<?xml version="1.0" standalone="no"?>
<!DOCTYPE svg PUBLIC "-//W3C//DTD SVG 1.1//EN" "http://www.w3.org/Graphics/SVG/1.1/DTD/svg11.dtd" >
<svg xmlns="http://www.w3.org/2000/svg" xmlns:xlink="http://www.w3.org/1999/xlink" version="1.1">
<metadata>
Created by FontForge 20201107 at Tue Sep  9 01:05:07 2025
 By 
Copyright 2018-2025 The Argentum Sans Project Authors (cssobral2013@gmail.com - https://github.com/cssobral2013/Argentum-Sans)
Portions are:
Copyright 2011-2017 The Montserrat Project Authors (julieta.ulanovsky@gmail.com - https://github.com/JulietaUla/Montserrat)
Copyright 2016 The Jones Project Authors (https://github.com/indestructible-type/jones)
Copyright 2016 The Montserrat-G Project Authors (https://github.com/green-s/Montserrat-G)
Copyright 2023 The Montserrat-Z-Remix Project Authors (https://github.com/AndreasZorpidis/Montserrat-Z-Remix/)
</metadata>
<defs>
<font id="ArgentumSans-Bold" horiz-adv-x="1607" >
  <font-face 
    font-family="Argentum Sans"
    font-weight="700"
    font-stretch="normal"
    units-per-em="2000"
    panose-1="0 0 0 0 0 0 0 0 0 0"
    ascent="1600"
    descent="-400"
    x-height="1081"
    cap-height="1400"
    bbox="-417 -522 2827 2187"
    underline-thickness="100"
    underline-position="-250"
    unicode-range="U+000D-FB02"
  />
<missing-glyph horiz-adv-x="1174" 
d="M80 0v1400h1014v-1400h-1014zM240 140h694v1120h-694v-1120z" />
    <glyph glyph-name="fi" unicode="fi" horiz-adv-x="1424" 
d="M929 845h-369v-845h-360v845h-146v236h146v101q0 89 31.5 157.5t87.5 116t132.5 71.5t166.5 24q40 0 81.5 -5t79.5 -14l-32 -275q-18 4 -36 6.5t-36 2.5q-51 0 -83 -29t-32 -85v-71h730v-1081h-361v845zM1107 1580q42 0 76.5 -14t60 -39t39.5 -60t14 -77t-14 -76.5
t-39.5 -60t-60 -39.5t-76.5 -14t-77 14t-60.5 39.5t-39.5 60t-14 76.5t14 77t39.5 60t60.5 39t77 14z" />
    <glyph glyph-name="fl" unicode="fl" horiz-adv-x="1538" 
d="M200 845h-146v236h146v101q0 89 31.5 157.5t87.5 115.5t132.5 71.5t166.5 24.5q81 0 149.5 -6.5t125.5 -16.5t102 -21.5t77 -22.5h246v-1080q0 -59 26.5 -84.5t68.5 -25.5q47 0 102 29l29 -294q-104 -46 -208 -46q-76 0 -144.5 24.5t-120.5 74.5t-83 126.5t-31 179.5v846
q-69 18 -139.5 25t-142.5 7q-51 0 -83 -29t-32 -85v-71h238v-236h-238v-845h-360v845z" />
    <glyph glyph-name="Idieresis.double" unicode="&#xcf;&#xcf;" horiz-adv-x="1296" 
d="M194 1400h373v-1400h-373v1400zM744 1400h372v-1400h-372v1400zM188 1842q34 0 62 -11.5t48.5 -32t32 -49t11.5 -62.5q0 -33 -11.5 -61t-32 -49t-48.5 -32.5t-62 -11.5t-62 11.5t-48.5 32.5t-32 49t-11.5 61q0 34 11.5 62.5t32 49t48.5 32t62 11.5zM643 1842
q34 0 62 -11.5t48.5 -32t32 -49t11.5 -62.5q0 -33 -11.5 -61t-32 -49t-48.5 -32.5t-62 -11.5t-62 11.5t-48.5 32.5t-32 49t-11.5 61q0 34 11.5 62.5t32 49t48.5 32t62 11.5zM1108 1842q34 0 62 -11.5t48.5 -32t32 -49t11.5 -62.5q0 -33 -11.5 -61t-32 -49t-48.5 -32.5
t-62 -11.5t-62 11.5t-48.5 32.5t-32 49t-11.5 61q0 34 11.5 62.5t32 49t48.5 32t62 11.5z" />
    <glyph glyph-name="idieresis.double" unicode="&#xef;&#xef;" horiz-adv-x="1270" 
d="M191 1081h361v-1081h-361v1081zM690 1081h362v-1081h-362v1081zM178 1532q34 0 62 -11.5t48.5 -32t32 -49t11.5 -62.5q0 -33 -11.5 -61t-32 -49t-48.5 -32.5t-62 -11.5t-62 11.5t-48.5 32.5t-32 49t-11.5 61q0 34 11.5 62.5t32 49t48.5 32t62 11.5zM636 1532
q33 0 61.5 -11.5t48.5 -32t31.5 -49t11.5 -62.5q0 -33 -11.5 -61t-31.5 -49t-48.5 -32.5t-61.5 -11.5q-34 0 -62.5 11.5t-49 32.5t-32 49t-11.5 61q0 34 11.5 62.5t32 49t49 32t62.5 11.5zM1093 1532q33 0 61.5 -11.5t48.5 -32t31.5 -49t11.5 -62.5q0 -33 -11.5 -61
t-31.5 -49t-48.5 -32.5t-61.5 -11.5q-34 0 -62.5 11.5t-49 32.5t-32 49t-11.5 61q0 34 11.5 62.5t32 49t49 32t62.5 11.5z" />
    <glyph glyph-name=".notdef" horiz-adv-x="1174" 
d="M80 0v1400h1014v-1400h-1014zM240 140h694v1120h-694v-1120z" />
    <glyph glyph-name=".null" horiz-adv-x="0" 
 />
    <glyph glyph-name=".null" horiz-adv-x="0" 
 />
    <glyph glyph-name="uni000D" unicode="&#xd;" horiz-adv-x="600" 
 />
    <glyph glyph-name="space" unicode=" " horiz-adv-x="504" 
 />
    <glyph glyph-name="exclam" unicode="!" horiz-adv-x="521" 
d="M260 331q38 0 70 -12.5t55 -35.5t36 -55t13 -70q0 -39 -13 -71t-36 -55t-55 -36t-70 -13q-37 0 -69 13t-54.5 36t-35.5 55t-13 71q0 38 13 70t35.5 55t54.5 35.5t69 12.5zM88 1394h345v-358l-63 -550h-219l-63 550v358z" />
    <glyph glyph-name="quotedbl" unicode="&#x22;" horiz-adv-x="899" 
d="M120 1400h272v-556h-272v556zM508 1400h272v-556h-272v556z" />
    <glyph glyph-name="numbersign" unicode="#" horiz-adv-x="1473" 
d="M122 1078h269l39 322h259l-40 -322h268l40 322h260l-40 -322h268l-27 -248h-272l-34 -275h268l-30 -249h-269l-38 -306h-259l38 306h-268l-38 -306h-259l38 306h-269l30 249h270l34 275h-266zM852 555l34 275h-267l-34 -275h267z" />
    <glyph glyph-name="dollar" unicode="$" horiz-adv-x="1294" 
d="M536 -11q-140 20 -271 75.5t-235 140.5l144 287q51 -45 115.5 -84.5t132.5 -68.5t136 -45.5t126 -16.5q33 0 64 6t55 20t38.5 37t14.5 56q0 46 -31.5 75.5t-83.5 51t-118.5 38.5t-135.5 38.5t-135.5 51t-118.5 75t-83.5 111.5t-31.5 160q0 89 31.5 160t87 123.5t132 87
t167.5 49.5v285h269v-281q121 -14 234 -53t204 -98l-140 -291q-50 30 -108.5 57t-118.5 48t-118 33.5t-107 12.5q-27 0 -52.5 -5t-46 -17t-32.5 -31t-12 -47q0 -45 31.5 -74t83.5 -50.5t118 -39.5t135 -40.5t135 -53.5t118 -78t83.5 -115t31.5 -164q0 -97 -35 -171.5
t-95 -127t-139.5 -84.5t-169.5 -45v-297h-269v299z" />
    <glyph glyph-name="percent" unicode="%" horiz-adv-x="1784" 
d="M1379 762q75 0 136 -27t103.5 -77t66 -120.5t23.5 -158.5t-23.5 -160t-66 -122t-103.5 -77.5t-136 -27.5t-136.5 27.5t-104.5 77.5t-66.5 122t-23.5 160t23.5 158.5t66.5 120.5t104.5 77t136.5 27zM1256 1401h251l-995 -1401h-252zM406 1410q75 0 136 -27t103.5 -77
t66 -120.5t23.5 -158.5t-23.5 -160t-66 -122t-103.5 -77.5t-136 -27.5t-136.5 27.5t-105 77.5t-67 122t-23.5 160t23.5 158.5t67 120.5t105 77t136.5 27zM1379 574q-50 0 -78.5 -53.5t-28.5 -141.5q0 -94 28.5 -145.5t78.5 -51.5q49 0 79 51.5t30 145.5q0 88 -30 141.5
t-79 53.5zM406 1222q-50 0 -79 -53.5t-29 -141.5q0 -94 29 -145.5t79 -51.5q49 0 78.5 51.5t29.5 145.5q0 88 -29.5 141.5t-78.5 53.5z" />
    <glyph glyph-name="ampersand" unicode="&#x26;" horiz-adv-x="1489" 
d="M1246 -24l-161 145q-98 -72 -216 -109.5t-253 -37.5q-119 0 -220 27t-174.5 78t-114.5 124.5t-41 166.5q0 72 21 131t60 108.5t94 91t122 77.5q-72 75 -105 144t-33 142q0 80 34.5 145.5t95.5 112t144.5 72.5t181.5 26q136 0 242.5 -47t172.5 -152l-232 -152
q-36 47 -79.5 79.5t-104.5 32.5q-63 0 -95.5 -31t-32.5 -80q0 -21 6.5 -40.5t23 -43t45.5 -53t75 -70.5l362 -326q21 47 37 100t27 113l289 -79q-20 -95 -53 -178.5t-79 -155.5l155 -139zM654 249q121 0 222 61l-321 290q-66 -38 -102 -83.5t-36 -108.5q0 -70 61.5 -114.5
t175.5 -44.5z" />
    <glyph glyph-name="quotesingle" unicode="'" horiz-adv-x="512" 
d="M120 1400h272v-556h-272v556z" />
    <glyph glyph-name="parenleft" unicode="(" horiz-adv-x="694" 
d="M694 1484q-55 -88 -99.5 -188.5t-76 -210.5t-49 -227.5t-17.5 -239.5t17.5 -239.5t49 -227.5t76 -210.5t99.5 -188.5h-324q-126 177 -192 399t-66 467t66 467t192 399h324z" />
    <glyph glyph-name="parenright" unicode=")" horiz-adv-x="694" 
d="M324 1484q125 -177 191 -399t66 -467t-66 -467t-191 -399h-324q55 88 99.5 188.5t76 210.5t49 227.5t17.5 239.5t-17.5 239.5t-49 227.5t-76 210.5t-99.5 188.5h324z" />
    <glyph glyph-name="asterisk" unicode="*" horiz-adv-x="766" 
d="M293 1438h180l-3 -188l161 96l90 -156l-167 -90l167 -93l-90 -157l-163 98l5 -188h-180l4 190l-162 -97l-91 154l166 93l-166 90l91 159l161 -99z" />
    <glyph glyph-name="plus" unicode="+" horiz-adv-x="1022" 
d="M64 768h334v333h228v-333h332v-228h-332v-333h-228v333h-334v228z" />
    <glyph glyph-name="comma" unicode="," horiz-adv-x="540" 
d="M169 22q-36 23 -53 58.5t-17 76.5q0 38 13 69.5t36 54t54.5 35t69.5 12.5q34 0 65 -11t54.5 -32.5t37.5 -53t14 -73.5q0 -39 -13.5 -72t-32.5 -64l-162 -266h-172z" />
    <glyph glyph-name="hyphen" unicode="-" horiz-adv-x="750" 
d="M109 728h533v-228h-533v228z" />
    <glyph glyph-name="period" unicode="." horiz-adv-x="540" 
d="M270 331q38 0 70 -12.5t55 -35.5t36 -55t13 -70q0 -39 -13 -71t-36 -55t-55 -36t-70 -13t-69.5 13t-54.5 36t-36 55t-13 71q0 38 13 70t36 55t54.5 35.5t69.5 12.5z" />
    <glyph glyph-name="slash" unicode="/" horiz-adv-x="712" 
d="M572 1621h304l-649 -1840h-304z" />
    <glyph glyph-name="zero" unicode="0" horiz-adv-x="1268" 
d="M635 1414q106 0 189 -27t145.5 -75t106 -114.5t70.5 -145.5t39.5 -168t12.5 -183q0 -93 -12.5 -182t-39.5 -168.5t-70.5 -146t-106 -114.5t-145.5 -75t-189 -27t-189 27t-146 75t-106.5 114.5t-70.5 146t-39.5 169t-12.5 182.5t12.5 182t39.5 168t70.5 145.5t106.5 114.5
t146 75t189 27zM635 1140q-46 0 -77.5 -24t-52 -62t-31 -86t-15.5 -97t-5.5 -93.5t-0.5 -75.5q0 -32 0.5 -77t5.5 -93.5t16 -97t31 -86.5t51.5 -62t77.5 -24t77.5 24t51.5 62t30.5 86.5t15.5 97t5.5 93.5t0.5 77q0 31 -0.5 75.5t-5.5 93.5t-15.5 97t-30.5 86t-51.5 62
t-77.5 24z" />
    <glyph glyph-name="one" unicode="1" horiz-adv-x="1268" 
d="M874 293h271v-293h-957v293h311v638h-283v293h283v176h375v-1107z" />
    <glyph glyph-name="two" unicode="2" horiz-adv-x="1268" 
d="M618 769q19 19 43 47t45 59.5t35.5 64t14.5 60.5q0 35 -14 57.5t-37 36.5t-52 19.5t-58 5.5q-52 0 -105.5 -15.5t-104.5 -40.5t-98 -56.5t-86 -64.5l-141 267q65 47 135 86t144.5 66.5t152.5 43t159 15.5q56 0 114.5 -9t113.5 -28t103.5 -48t85 -70t57.5 -93.5t21 -118.5
t-26 -131.5t-66 -126t-88.5 -114.5t-92.5 -98l-299 -295h614v-288h-1085v242z" />
    <glyph glyph-name="three" unicode="3" horiz-adv-x="1268" 
d="M420 851h131q230 0 230 131q0 75 -58 113.5t-170 38.5q-74 0 -154.5 -19.5t-146.5 -53.5l-115 281q44 21 95.5 37.5t107 28.5t113.5 18t116 6q128 0 234.5 -29t183 -81.5t118.5 -125.5t42 -161q0 -49 -14.5 -93.5t-41.5 -81t-65 -62.5t-84 -39q54 -15 99 -47t76.5 -77
t49 -100t17.5 -117q0 -96 -41.5 -175.5t-116.5 -137t-179 -89.5t-229 -32q-78 0 -157 12.5t-152 35t-136.5 54t-110.5 70.5l137 258q37 -34 83 -62t97.5 -47.5t106 -30t107.5 -10.5q109 0 168.5 45.5t59.5 128.5q0 166 -283 166h-118v247z" />
    <glyph glyph-name="four" unicode="4" horiz-adv-x="1268" 
d="M1031 301v-301h-340v301h-632v249l557 850h415v-820h179v-279h-179zM691 580v451l-286 -451h286z" />
    <glyph glyph-name="five" unicode="5" horiz-adv-x="1268" 
d="M533 906q38 2 68 2.5t47 0.5q124 0 224.5 -33.5t171.5 -94t109.5 -144.5t38.5 -185q0 -103 -40.5 -189t-114 -148t-176.5 -96.5t-229 -34.5q-76 0 -153 12.5t-151 36t-141.5 56t-124.5 71.5l138 262q85 -69 181 -111.5t196 -42.5q103 0 158.5 46.5t55.5 129.5
q0 40 -14 73.5t-42.5 57.5t-72.5 37.5t-104 13.5q-13 0 -39.5 -1t-61 -2.5t-73 -4t-76 -5t-70 -5.5t-54.5 -6l29 798h916v-294h-588z" />
    <glyph glyph-name="six" unicode="6" horiz-adv-x="1268" 
d="M1015 1050q-62 46 -136.5 68t-151.5 22q-81 0 -141 -25t-99 -73q-80 -97 -77 -271q29 41 65 69.5t77.5 46.5t87.5 26.5t94 8.5q104 0 186.5 -33t140 -93t88.5 -144t31 -186q0 -115 -39 -204.5t-108 -151t-163.5 -94t-205.5 -32.5q-154 0 -266.5 55.5t-186 150
t-109.5 220.5t-36 268q0 149 39.5 283t119 235.5t199.5 161t281 59.5q54 0 113.5 -7.5t118.5 -21.5t114.5 -35.5t101.5 -50.5zM654 660q-45 0 -83 -13.5t-65 -38.5t-42 -61.5t-15 -83.5q0 -45 14.5 -80.5t41 -60t63.5 -37.5t81 -13q94 0 145.5 51t51.5 145q0 91 -50 141.5
t-142 50.5z" />
    <glyph glyph-name="seven" unicode="7" horiz-adv-x="1268" 
d="M83 1400h1120v-253l-525 -1147h-393l506 1106l-708 1v293z" />
    <glyph glyph-name="eight" unicode="8" horiz-adv-x="1268" 
d="M631 1417q90 0 178.5 -20.5t159 -65.5t114.5 -117.5t44 -176.5q0 -90 -45 -166t-121 -122q54 -24 98 -60t75 -82t48 -100t17 -113q0 -94 -39.5 -169.5t-113.5 -128.5q-74 -54 -178 -83t-235 -29q-130 0 -233.5 28t-177.5 82q-74 53 -114 127t-40 167q0 62 19 117.5
t52.5 102t80.5 82.5t103 59q-39 24 -73 56t-58.5 70.5t-38.5 82.5t-14 91q0 85 35 153t100 116q63 48 154 73.5t203 25.5zM633 601q-43 0 -82.5 -9t-69 -29.5t-47 -54t-17.5 -82.5q0 -48 17.5 -81t47.5 -54t69 -30t82 -9t82.5 9t69.5 29.5t48 53.5t18 82t-17.5 82.5
t-47.5 54t-69.5 29.5t-83.5 9zM633 1172q-86 0 -136 -39q-47 -41 -47 -115q0 -41 15 -69.5t40 -46.5t58 -26t70 -8q38 0 71 8t58 26t39.5 46.5t14.5 69.5q0 75 -46 115q-50 39 -137 39z" />
    <glyph glyph-name="nine" unicode="9" horiz-adv-x="1268" 
d="M248 353q60 -45 132.5 -68t153.5 -23q82 0 142 25.5t99 73.5t58.5 116t18.5 154q-57 -81 -142 -116.5t-182 -35.5q-103 0 -185 33.5t-139.5 94t-88 144.5t-30.5 185q0 116 38.5 205.5t107.5 150.5t163.5 93t205.5 32q155 0 267 -55t185.5 -149t108.5 -220t35 -269
q0 -149 -39.5 -283.5t-119 -236t-199.5 -161t-282 -59.5q-55 0 -113.5 7.5t-117 22.5t-113.5 37t-102 50zM613 1130q-94 0 -144 -51t-50 -145q0 -91 49 -141t140 -50q98 0 152 56q26 26 39.5 62t12.5 78q1 39 -10.5 73.5t-36.5 60.5t-62.5 41.5t-89.5 15.5z" />
    <glyph glyph-name="colon" unicode=":" horiz-adv-x="540" 
d="M270 331q38 0 70 -12.5t55 -35.5t36 -55t13 -70q0 -39 -13 -71t-36 -55t-55 -36t-70 -13t-69.5 13t-54.5 36t-36 55t-13 71q0 38 13 70t36 55t54.5 35.5t69.5 12.5zM270 1099q38 0 70 -12.5t55 -35.5t36 -55t13 -70q0 -39 -13 -71t-36 -55t-55 -36t-70 -13t-69.5 13
t-54.5 36t-36 55t-13 71q0 38 13 70t36 55t54.5 35.5t69.5 12.5z" />
    <glyph glyph-name="semicolon" unicode=";" horiz-adv-x="540" 
d="M270 1103q38 0 70 -12.5t55 -35.5t36 -55t13 -70q0 -39 -13 -71t-36 -55t-55 -36t-70 -13t-69.5 13t-54.5 36t-36 55t-13 71q0 38 13 70t36 55t54.5 35.5t69.5 12.5zM169 22q-36 23 -53 58.5t-17 76.5q0 38 13 69.5t36 54t54.5 35t69.5 12.5q34 0 65 -11t54.5 -32.5
t37.5 -53t14 -73.5q0 -39 -13.5 -72t-32.5 -64l-162 -266h-172z" />
    <glyph glyph-name="less" unicode="&#x3c;" horiz-adv-x="1022" 
d="M958 1164v-255l-660 -261l660 -261v-255l-894 371v291z" />
    <glyph glyph-name="equal" unicode="=" horiz-adv-x="1022" 
d="M64 552h894v-228h-894v228zM64 984h894v-228h-894v228z" />
    <glyph glyph-name="greater" unicode="&#x3e;" horiz-adv-x="1022" 
d="M64 132v255l660 261l-660 261v255l894 -371v-291z" />
    <glyph glyph-name="question" unicode="?" horiz-adv-x="1189" 
d="M560 -17q-48 0 -87.5 16t-68 43.5t-44.5 64t-16 77.5q0 42 16 78t44.5 63t68 42t87.5 15t87.5 -15t68 -42t44.5 -63t16 -78q0 -41 -16 -77.5t-44.5 -64t-68 -43.5t-87.5 -16zM397 469q-14 35 -20 64.5t-6 54.5q0 36 10.5 65.5t28.5 54t42 44.5t51 36l122 75
q42 26 69 56.5t27 72.5q0 32 -14 57.5t-38.5 43t-59 27t-76.5 9.5q-86 0 -153 -37.5t-109 -106.5l-281 154q40 65 96 118t129 90.5t163 58t198 20.5q114 0 210 -24.5t165 -71.5t107.5 -117t38.5 -160q0 -96 -34.5 -160.5t-92.5 -101.5l-143 -90q-25 -16 -47 -30t-38.5 -28.5
t-26 -30.5t-9.5 -36q0 -15 3.5 -28.5t8.5 -27.5z" />
    <glyph glyph-name="at" unicode="@" horiz-adv-x="1817" 
d="M1340 318q0 -54 20.5 -75.5t52.5 -21.5q30 0 59.5 23.5t52 66t36.5 102t14 130.5q0 142 -44 265t-128 214t-205.5 143t-276.5 52q-141 0 -264 -53.5t-215 -146t-145 -216.5t-53 -266q0 -139 50 -257.5t137.5 -205.5t207 -136t257.5 -49q43 0 91.5 7.5t97.5 22.5t97 38
t90 55l94 -161q-44 -34 -101 -61t-119.5 -46t-127 -29t-122.5 -10q-121 0 -231 28.5t-204.5 81t-171.5 127.5t-131 167.5t-83.5 200.5t-29.5 227q0 122 31 233t87.5 207t136.5 174.5t177 134t209.5 85.5t234.5 30t232.5 -29t205 -82.5t171 -129.5t130.5 -170.5t83 -205
t29 -233.5q0 -112 -28.5 -202.5t-79.5 -155t-121 -99.5t-154 -35q-91 0 -153 37t-82 118l-4 25q-58 -84 -135 -121t-161 -37q-83 0 -161 33t-138.5 93.5t-97 145.5t-36.5 189q0 96 28.5 181.5t82 149.5t128.5 101.5t168 37.5q59 0 106 -17t81.5 -38.5t54 -42t22.5 -26.5v102
h248v-670zM878 783q-42 0 -76.5 -18.5t-58.5 -50.5t-37.5 -74.5t-13.5 -89.5q0 -50 13 -95t38 -79t60 -54t78 -20q46 0 82.5 19.5t61.5 53t38 78t13 95.5q0 49 -13.5 91.5t-39 74.5t-62.5 50.5t-83 18.5z" />
    <glyph glyph-name="A" unicode="A" horiz-adv-x="1548" 
d="M591 1400h381l587 -1400h-397l-95 248h-599l-96 -248h-383zM961 527l-190 501l-195 -501h385z" />
    <glyph glyph-name="B" unicode="B" horiz-adv-x="1432" 
d="M802 1400q119 0 215.5 -25t164.5 -70.5t104.5 -110.5t36.5 -146q0 -55 -17 -103.5t-48 -88.5t-75.5 -69t-99.5 -44q66 -13 119 -44.5t90.5 -77.5t57.5 -104.5t20 -126.5q0 -90 -38 -162t-108.5 -123t-171 -78t-224.5 -27h-694v1400h668zM781 285q94 -1 148.5 39t54.5 112
q0 66 -54.5 105t-148.5 38h-276v-294h276zM781 843q75 0 117.5 36.5t42.5 102.5q0 63 -42.5 98.5t-117.5 34.5h-276v-272h276z" />
    <glyph glyph-name="C" unicode="C" horiz-adv-x="1382" 
d="M1146 926q-34 43 -75 77.5t-86 59t-92 37.5t-93 13q-80 0 -148.5 -31t-118.5 -85t-78.5 -128t-28.5 -161t28.5 -161t78.5 -129t118.5 -86t148.5 -31q44 0 89.5 11.5t90.5 33t87.5 52t78.5 68.5l217 -229q-56 -60 -124.5 -108.5t-144 -83t-155.5 -53t-158 -18.5
q-158 0 -293 55.5t-233.5 153.5t-154 231.5t-55.5 289.5q0 154 56.5 286t157 228.5t238 151t298.5 54.5q78 0 156.5 -17t152 -48.5t140 -76.5t118.5 -101z" />
    <glyph glyph-name="D" unicode="D" horiz-adv-x="1530" 
d="M738 1400q167 0 304.5 -50.5t235.5 -143t152 -221t54 -284.5t-55 -285.5t-154.5 -221.5t-239.5 -143t-310 -51h-591v1400h604zM748 296q78 0 144 29t113 82t73.5 126.5t26.5 163.5q0 91 -28 165.5t-77.5 128t-118 83t-150.5 29.5h-225v-807h242z" />
    <glyph glyph-name="E" unicode="E" horiz-adv-x="1352" 
d="M134 1400h1110v-292h-738v-260h666v-291h-666v-266h758v-291h-1130v1400z" />
    <glyph glyph-name="F" unicode="F" horiz-adv-x="1216" 
d="M134 1400h1051l-1 -292h-678v-312h627v-290h-627v-506h-372v1400z" />
    <glyph glyph-name="G" unicode="G" horiz-adv-x="1485" 
d="M1187 958q-37 36 -81.5 65t-92.5 49t-97.5 31t-97.5 11q-83 0 -154.5 -31.5t-124 -87t-82.5 -131t-30 -162.5q0 -89 30 -165t83 -132t125 -87.5t156 -31.5q51 0 111.5 17t121.5 46v198h-340v272h668v-661q-57 -40 -128 -74t-148 -58.5t-156.5 -38t-153.5 -13.5
q-161 0 -298.5 55.5t-238 153t-157.5 230.5t-57 289q0 103 26.5 197t75.5 174t118.5 145t155.5 111t186.5 71t211.5 25q79 0 159 -15t155 -42.5t143 -66.5t122 -87z" />
    <glyph glyph-name="H" unicode="H" horiz-adv-x="1569" 
d="M134 1400h372v-571h557v571h372v-1400h-372v537h-557v-537h-372v1400z" />
    <glyph glyph-name="I" unicode="I" horiz-adv-x="640" 
d="M134 1400h372v-1400h-372v1400z" />
    <glyph glyph-name="J" unicode="J" horiz-adv-x="1081" 
d="M971 456q0 -112 -34 -200t-98 -148.5t-154.5 -92t-203.5 -31.5q-153 0 -274.5 58.5t-217.5 167.5l171 249q77 -80 155 -118.5t138 -38.5q67 0 105.5 40.5t38.5 121.5v936h374v-944z" />
    <glyph glyph-name="K" unicode="K" horiz-adv-x="1501" 
d="M134 1400h372v-607l518 607h431l-519 -575l551 -825h-445l-361 542l-175 -194v-348h-372v1400z" />
    <glyph glyph-name="L" unicode="L" horiz-adv-x="1127" 
d="M134 1400h372v-1088h592v-312h-964v1400z" />
    <glyph glyph-name="M" unicode="M" horiz-adv-x="1878" 
d="M134 1400h404l402 -819l399 819h404v-1400h-330l-1 888l-353 -748h-240l-355 748v-888h-330v1400z" />
    <glyph glyph-name="N" unicode="N" horiz-adv-x="1570" 
d="M134 1400h325l631 -840v840h345v-1400h-325l-629 836v-836h-347v1400z" />
    <glyph glyph-name="O" unicode="O" 
d="M803 1424q163 0 302 -54.5t240.5 -151.5t159 -228.5t57.5 -286.5q0 -156 -57.5 -289t-159 -231t-240.5 -153.5t-302 -55.5t-301.5 55.5t-240 153t-159 231t-57.5 289.5q0 155 57.5 287t159 228.5t240 151t301.5 54.5zM808 1112q-78 0 -147.5 -31t-121.5 -86t-82.5 -130.5
t-30.5 -163.5t30.5 -164t83 -132t122 -88t146.5 -32t144.5 32t118 88t79.5 132t29 164t-29 163.5t-79.5 130.5t-118 86t-144.5 31z" />
    <glyph glyph-name="P" unicode="P" horiz-adv-x="1360" 
d="M751 1400q135 0 240 -33t177 -95.5t110 -154t38 -208.5q0 -124 -38 -220.5t-110 -163.5t-177 -102t-240 -35h-245v-388h-372v1400h617zM733 680q110 0 170 55t60 163q0 105 -60 157.5t-170 52.5h-227v-428h227z" />
    <glyph glyph-name="Q" unicode="Q" 
d="M1204 77q-86 -50 -187 -76.5t-213 -26.5q-163 0 -302 55.5t-240.5 153t-159 231t-57.5 289.5t57.5 288t159 228.5t240.5 151t302 54.5t302 -54.5t240.5 -151.5t159 -229t57.5 -287q0 -128 -38.5 -240t-109.5 -204l152 -143l-184 -208zM808 1113q-78 0 -147 -31.5
t-121 -86.5t-82.5 -130t-30.5 -163t30.5 -164t83 -132t121.5 -88t146 -32q75 0 142 31l-185 175l182 208l195 -184q38 84 38 186q0 88 -29 163t-79.5 130t-118.5 86.5t-145 31.5z" />
    <glyph glyph-name="R" unicode="R" horiz-adv-x="1464" 
d="M767 1400q139 0 247.5 -33t183.5 -95.5t114 -154t39 -208.5q0 -160 -64 -273.5t-185 -176.5l291 -459h-421l-202 388h-3h-261v-388h-372v1400h633zM767 680q110 0 170.5 55t60.5 163q0 105 -60.5 157.5t-170.5 52.5h-261v-428h261z" />
    <glyph glyph-name="S" unicode="S" horiz-adv-x="1293" 
d="M1103 979q-50 30 -108.5 57t-118.5 48t-118 33.5t-107 12.5q-27 0 -52.5 -5t-46 -17t-32.5 -31t-12 -47q0 -45 31.5 -74t83.5 -50.5t118 -39.5t135 -40.5t135 -53.5t118 -78t83.5 -115t31.5 -164q0 -114 -47.5 -196.5t-126 -135.5t-180.5 -78.5t-210 -25.5
q-87 0 -174.5 15t-171.5 44t-161.5 71t-142.5 96l144 287q51 -45 115.5 -84.5t132.5 -68.5t136 -45.5t126 -16.5q33 0 64 6t55 20t38.5 37t14.5 56q0 46 -31.5 75.5t-83.5 51t-118.5 38.5t-135.5 38.5t-135.5 51t-118.5 75t-83.5 111.5t-31.5 160q0 106 44 186.5t120 135
t179 82.5t221 28q75 0 151 -11t148 -31.5t138.5 -50t123.5 -66.5z" />
    <glyph glyph-name="T" unicode="T" horiz-adv-x="1231" 
d="M13 1400h1205v-300h-417v-1100h-373v1100h-415v300z" />
    <glyph glyph-name="U" unicode="U" horiz-adv-x="1495" 
d="M483 578q0 -67 20.5 -121.5t56.5 -92.5t85.5 -58.5t107.5 -20.5q57 0 105 20t82.5 58t53.5 92.5t19 122.5v822h372v-822q0 -138 -44.5 -250t-127 -190.5t-199.5 -121t-262 -42.5q-147 0 -265.5 42.5t-202 121t-129 190.5t-45.5 250v822h373v-822z" />
    <glyph glyph-name="V" unicode="V" horiz-adv-x="1468" 
d="M-4 1400h400l345 -1012l347 1012h383l-548 -1400h-384z" />
    <glyph glyph-name="W" unicode="W" horiz-adv-x="2229" 
d="M-4 1400h399l274 -1017l273 1017h363l276 -1017l270 1017h382l-474 -1400h-382l-262 951l-266 -951h-382z" />
    <glyph glyph-name="X" unicode="X" horiz-adv-x="1480" 
d="M38 1400h434l258 -397l260 397h438l-460 -670l501 -730h-446l-293 433l-288 -433h-436l499 713z" />
    <glyph glyph-name="Y" unicode="Y" horiz-adv-x="1371" 
d="M504 441l-515 959h372l329 -600l320 600h372l-506 -949v-451h-372v441z" />
    <glyph glyph-name="Z" unicode="Z" horiz-adv-x="1351" 
d="M78 1400h1206v-238l-732 -868h745v-294h-1243v238l733 868h-709v294z" />
    <glyph glyph-name="bracketleft" unicode="[" horiz-adv-x="720" 
d="M130 1484h562v-269h-239v-1194h239v-269h-562v1732z" />
    <glyph glyph-name="backslash" unicode="\" horiz-adv-x="712" 
d="M572 1621h304l-649 -1840h-304z" />
    <glyph glyph-name="bracketright" unicode="]" horiz-adv-x="720" 
d="M590 -248h-562v269h240v1194h-240v269h562v-1732z" />
    <glyph glyph-name="asciicircum" unicode="^" horiz-adv-x="1159" 
d="M1096 629h-254l-261 572l-262 -572h-254l370 771h291z" />
    <glyph glyph-name="underscore" unicode="_" horiz-adv-x="1172" 
d="M0 -211h1172v-197h-1172v197z" />
    <glyph glyph-name="grave" unicode="`" horiz-adv-x="724" 
d="M381 1540l213 -323l-248 -20l-263 232z" />
    <glyph glyph-name="a" unicode="a" horiz-adv-x="1204" 
d="M745 123q-52 -68 -133.5 -103.5t-191.5 -35.5q-87 0 -155.5 25t-116 69.5t-72.5 106.5t-25 137q0 156 106 242t309 86h279v12q0 77 -51 119.5t-153 42.5q-68 0 -152.5 -21.5t-172.5 -64.5l-97 240q128 57 251 87.5t256 30.5q112 0 200 -26.5t149 -76.5t93 -123t32 -166
l1 -704h-355zM533 226q38 0 72.5 10t62.5 28.5t48 44t29 56.5v95h-209q-73 0 -109.5 -27t-36.5 -85q0 -57 37.5 -89.5t105.5 -32.5z" />
    <glyph glyph-name="b" unicode="b" horiz-adv-x="1372" 
d="M144 1484h362v-540q57 72 136.5 111t179.5 39q114 0 207 -40t159 -113t102 -176.5t36 -229.5q0 -124 -35 -225t-100 -173t-156.5 -111t-204.5 -39q-103 0 -185 39.5t-139 112.5v-139h-362v1484zM733 814q-51 0 -92.5 -19.5t-71.5 -55t-46.5 -85t-16.5 -109.5t16.5 -110
t46.5 -85.5t71.5 -55t92.5 -19.5t93 19.5t72 55.5t46.5 85.5t16.5 109.5q0 59 -16.5 108.5t-46.5 85t-72 55.5t-93 20z" />
    <glyph glyph-name="c" unicode="c" horiz-adv-x="1124" 
d="M829 688q-35 53 -86.5 82.5t-119.5 29.5q-47 0 -86.5 -19t-67.5 -53.5t-43.5 -82.5t-15.5 -107t15.5 -107.5t43.5 -83t67.5 -53.5t86.5 -19q69 0 121.5 30t84.5 93l270 -151q-66 -125 -193 -192.5t-301 -67.5q-126 0 -229 39.5t-176.5 111.5t-113.5 173.5t-40 225.5
q0 126 40.5 228.5t114 175.5t177 113t229.5 40q166 0 291.5 -67t195.5 -188z" />
    <glyph glyph-name="d" unicode="d" horiz-adv-x="1374" 
d="M868 137q-57 -73 -136.5 -112t-180.5 -39q-114 0 -207.5 40.5t-159.5 114t-102 176.5t-36 229q0 124 35.5 225.5t100.5 173.5t156.5 111t203.5 39q104 0 186 -39.5t140 -112.5v541h362v-1484h-362v137zM640 807q-51 0 -93.5 -20t-72.5 -55.5t-47 -85.5t-17 -110
t17 -109.5t47 -85t72 -55t94 -19.5q51 0 93 19.5t72 55t46.5 85t16.5 109.5t-16.5 110t-46.5 86t-72 55.5t-93 19.5z" />
    <glyph glyph-name="e" unicode="e" horiz-adv-x="1207" 
d="M410 445q26 -91 89 -139.5t153 -48.5q69 0 134.5 27.5t119.5 81.5l189 -187q-84 -92 -203 -142t-271 -50q-133 0 -239.5 39.5t-181 111.5t-114.5 173.5t-40 225.5q0 126 41 228.5t115.5 175.5t178.5 113t231 40q142 0 249 -45.5t176.5 -130.5t101 -204.5t21.5 -268.5
h-750zM615 844q-43 0 -78 -15t-62 -42.5t-45.5 -65.5t-26.5 -85h407q0 47 -14 85.5t-40 65.5t-61.5 42t-79.5 15z" />
    <glyph glyph-name="f" unicode="f" horiz-adv-x="845" 
d="M200 845h-146v236h146v101q0 89 31.5 157.5t87.5 115.5t132.5 71.5t166.5 24.5q57 0 116.5 -11t111.5 -31l-46 -269q-31 10 -62 18t-63 8q-51 0 -83 -29t-32 -85v-71h238v-236h-238v-845h-360v845z" />
    <glyph glyph-name="g" unicode="g" horiz-adv-x="1297" 
d="M1173 96q0 -114 -42.5 -206.5t-120 -157t-185.5 -99.5t-240 -35q-72 0 -140 10.5t-130 29.5t-116.5 45t-99.5 56l124 244q74 -50 160.5 -77.5t173.5 -27.5q121 0 188.5 56.5t67.5 152.5v112q-53 -68 -129 -103.5t-176 -35.5q-101 0 -186 37.5t-146.5 105.5t-95.5 164.5
t-34 214.5q0 116 33.5 210t93.5 161t143.5 104t183.5 37q102 0 180.5 -36t132.5 -105v128h360v-985zM600 826q-48 0 -87.5 -18.5t-68 -52t-44.5 -80t-16 -103.5q0 -56 16 -102.5t44 -79.5t68 -51.5t88 -18.5t87 18.5t67 51.5t43.5 79.5t15.5 102.5q0 57 -15.5 104t-43.5 80
t-67 51.5t-87 18.5z" />
    <glyph glyph-name="h" unicode="h" horiz-adv-x="1360" 
d="M894 581q0 91 -48 143.5t-132 52.5q-48 0 -86.5 -18.5t-65.5 -50.5t-41.5 -76.5t-14.5 -97.5v-534h-362v1484h362v-578q57 94 147 142t210 48q89 0 161.5 -29t124 -82.5t79.5 -130t28 -171.5v-683h-362v581z" />
    <glyph glyph-name="i" unicode="i" horiz-adv-x="629" 
d="M134 1081h361v-1081h-361v1081zM311 1580q42 0 77 -14t60.5 -39t39.5 -60t14 -77t-14 -76.5t-39.5 -60t-60.5 -39.5t-77 -14t-76.5 14t-60 39.5t-39.5 60t-14 76.5t14 77t39.5 60t60 39t76.5 14z" />
    <glyph glyph-name="j" unicode="j" horiz-adv-x="628" 
d="M-54 -105q43 -15 87 -15q106 0 106 133v1068h362v-1121q0 -85 -27.5 -152.5t-78 -114.5t-123 -71.5t-162.5 -23.5q-134 2 -236 43zM314 1580q42 0 77 -14t60.5 -39t39.5 -60t14 -77t-14 -76.5t-39.5 -60t-60.5 -39.5t-77 -14t-76.5 14t-60 39.5t-39.5 60t-14 76.5t14 77
t39.5 60t60 39t76.5 14z" />
    <glyph glyph-name="k" unicode="k" horiz-adv-x="1270" 
d="M144 1484h362v-768l340 365h411l-397 -417l405 -664h-429l-223 405l-107 -112v-293h-362v1484z" />
    <glyph glyph-name="l" unicode="l" horiz-adv-x="696" 
d="M476 404q0 -59 26 -84.5t68 -25.5q47 0 103 29l28 -294q-104 -46 -207 -46q-76 0 -144.5 24.5t-120.5 74.5t-83 126.5t-31 179.5v1096h361v-1080z" />
    <glyph glyph-name="m" unicode="m" horiz-adv-x="2073" 
d="M871 581q0 92 -47 144.5t-128 52.5q-46 -1 -83.5 -19t-63.5 -50.5t-40 -76.5t-14 -97v-535h-361v1081h361v-173q57 93 145 140.5t205 47.5q132 0 225 -63.5t135 -177.5q53 119 149 180t228 61q87 0 158.5 -29t122.5 -82.5t79 -130t28 -171.5v-683h-362v581
q0 92 -47.5 144.5t-128.5 52.5q-46 -1 -83 -19t-62.5 -50.5t-39.5 -76.5t-14 -97v-535h-362v581z" />
    <glyph glyph-name="n" unicode="n" horiz-adv-x="1349" 
d="M884 581q0 91 -48.5 143.5t-132.5 52.5q-45 0 -82 -16.5t-63.5 -45t-42.5 -69t-19 -88.5v-558h-362v1081h362v-174q57 94 147 141.5t209 47.5q89 0 161.5 -29t124.5 -82.5t80 -130t28 -171.5v-683h-362v581z" />
    <glyph glyph-name="o" unicode="o" horiz-adv-x="1278" 
d="M639 1094q134 0 243.5 -39.5t187 -111.5t120 -174t42.5 -227t-42.5 -227.5t-120 -175t-187 -112.5t-243.5 -40t-243.5 40t-187 112.5t-120 175t-42.5 227.5t42.5 227t120 174t187 111.5t243.5 39.5zM639 806q-51 0 -93.5 -19.5t-72.5 -55t-46.5 -85t-16.5 -109.5
t16.5 -110t46.5 -85t72.5 -54.5t93.5 -19.5t93 19.5t72 54.5t46.5 85t16.5 110t-16.5 109.5t-46.5 85t-72 55t-93 19.5z" />
    <glyph glyph-name="p" unicode="p" horiz-adv-x="1372" 
d="M144 1081h362v-137q57 72 136.5 111t179.5 39q114 0 207 -40t159 -113t102 -176.5t36 -229.5q0 -124 -35 -225t-100 -173t-156.5 -111t-204.5 -39q-103 0 -185 39.5t-139 112.5v-527h-362v1469zM733 814q-51 0 -92.5 -19.5t-71.5 -55t-46.5 -85t-16.5 -109.5t16.5 -110
t46.5 -85.5t71.5 -55t92.5 -19.5t93 19.5t72 55.5t46.5 85.5t16.5 109.5q0 59 -16.5 108.5t-46.5 85t-72 55.5t-93 20z" />
    <glyph glyph-name="q" unicode="q" horiz-adv-x="1374" 
d="M868 137q-57 -73 -136.5 -112t-180.5 -39q-114 0 -207.5 40.5t-159.5 114t-102 176.5t-36 229q0 124 35.5 225.5t100.5 173.5t156.5 111t203.5 39q104 0 186 -39.5t140 -112.5v138h362v-1469h-362v525zM640 807q-51 0 -93.5 -20t-72.5 -55.5t-47 -85.5t-17 -110
t17 -109.5t47 -85t72 -55t94 -19.5q51 0 93 19.5t72 55t46.5 85t16.5 109.5t-16.5 110t-46.5 86t-72 55.5t-93 19.5z" />
    <glyph glyph-name="r" unicode="r" horiz-adv-x="864" 
d="M134 1081h362v-179q57 94 145 144t203 50v-326q-28 3 -55 3q-65 0 -117.5 -16.5t-90 -46.5t-59.5 -73t-26 -96v-541h-362v1081z" />
    <glyph glyph-name="s" unicode="s" horiz-adv-x="1038" 
d="M861 740q-102 54 -190 81.5t-154 27.5q-45 0 -72.5 -16t-27.5 -50q0 -27 24.5 -45t64 -32.5t90.5 -28t104.5 -31.5t104.5 -42.5t90.5 -61.5t64 -87.5t24.5 -121.5q0 -83 -34.5 -148t-96 -109.5t-146 -67.5t-184.5 -23q-139 0 -265 38.5t-227 114.5l115 230
q94 -66 194 -100t190 -34q49 0 80 16t31 51q0 28 -24 46.5t-63 33t-89.5 28t-102.5 31t-102 41.5t-89.5 60t-63 87t-23.5 121q0 84 33.5 149t93 109t141.5 67t178 23q119 0 235 -31.5t219 -93.5z" />
    <glyph glyph-name="t" unicode="t" horiz-adv-x="878" 
d="M544 1081h280v-236h-280v-459q0 -60 25.5 -87t70.5 -27q34 0 69 11t65 25l69 -251q-58 -35 -135.5 -54t-156.5 -19q-80 0 -147.5 22.5t-116 66.5t-76 108.5t-27.5 148.5v515h-150v236h150v249h360v-249z" />
    <glyph glyph-name="u" unicode="u" horiz-adv-x="1329" 
d="M464 500q0 -91 46.5 -143.5t125.5 -52.5q46 1 82.5 19.5t62 50.5t39 76.5t13.5 96.5v534h362v-1081h-362v173q-56 -93 -143 -140.5t-202 -47.5q-87 0 -158 29t-122 83t-78.5 130.5t-27.5 170.5v683h362v-581z" />
    <glyph glyph-name="v" unicode="v" horiz-adv-x="1154" 
d="M-11 1081h373l223 -751l223 751h362l-405 -1081h-371z" />
    <glyph glyph-name="w" unicode="w" horiz-adv-x="1887" 
d="M-11 1081h368l215 -731l208 731h344l213 -731l212 731h354l-395 -1081h-360l-201 667l-205 -667h-359z" />
    <glyph glyph-name="x" unicode="x" horiz-adv-x="1228" 
d="M29 1081h415l171 -302l185 302h396l-340 -526l364 -555h-416l-189 330l-211 -330h-399l368 554z" />
    <glyph glyph-name="y" unicode="y" horiz-adv-x="1174" 
d="M726 -106q-62 -152 -167 -225t-259 -73q-94 0 -172 27t-154 85l152 246q37 -31 71 -45.5t72 -14.5q89 0 130 83l24 49l-449 1055h373l257 -702l225 702h361z" />
    <glyph glyph-name="z" unicode="z" horiz-adv-x="1111" 
d="M85 1081l952 -1v-216l-517 -592h536v-273l-990 1v216l517 592l-498 1v272z" />
    <glyph glyph-name="braceleft" unicode="{" horiz-adv-x="728" 
d="M126 755q38 0 54.5 19t16.5 66v363q0 79 18.5 133.5t61 88t110.5 48t167 14.5h140v-267q-52 0 -85.5 -7t-53 -22t-27.5 -39.5t-8 -59.5v-229q0 -59 -12 -99t-36.5 -67t-63.5 -45.5t-93 -33.5q54 -16 93 -34t63.5 -45.5t36.5 -67.5t12 -99v-229q0 -35 8 -59t27.5 -39
t53 -22t85.5 -7v-268h-140q-99 0 -167 15t-110.5 48.5t-61 87.5t-18.5 133v363q0 48 -16.5 66.5t-54.5 18.5h-79v275h79z" />
    <glyph glyph-name="bar" unicode="|" horiz-adv-x="606" 
d="M169 1604h269v-1821h-269v1821z" />
    <glyph glyph-name="braceright" unicode="}" horiz-adv-x="728" 
d="M682 755v-275h-79q-39 0 -55.5 -18.5t-16.5 -66.5v-363q0 -79 -18.5 -133t-60.5 -87.5t-110 -48.5t-167 -15h-140v268q51 0 84.5 7t53 22t27.5 39t8 59v229q0 59 12 99t37 67.5t64 45.5t93 34q-54 15 -93 33.5t-64 45.5t-37 67t-12 99v229q0 35 -8 59.5t-27.5 39.5
t-53 22t-84.5 7v267h140q99 0 167 -14.5t110 -48t60.5 -88t18.5 -133.5v-363q0 -47 16.5 -66t55.5 -19h79z" />
    <glyph glyph-name="asciitilde" unicode="~" horiz-adv-x="1022" 
d="M914 821q0 -179 -56 -264.5t-174 -85.5q-51 0 -91 15.5t-71.5 34t-57.5 34t-50 15.5q-62 0 -62 -90h-243q0 179 57 264.5t174 85.5q50 0 90 -15.5t72 -34.5t58.5 -34.5t50.5 -15.5q62 0 62 91h241z" />
    <glyph glyph-name="uni00A0" unicode="&#xa0;" horiz-adv-x="504" 
 />
    <glyph glyph-name="exclamdown" unicode="&#xa1;" horiz-adv-x="521" 
d="M433 -300h-345v358l63 550h219l63 -550v-358zM260 763q-38 0 -70 12.5t-55 35.5t-36 55t-13 70q0 39 13 71t36 55t55 36t70 13t69.5 -13t54.5 -36t36 -55t13 -71q0 -38 -13 -70t-36 -55t-54.5 -35.5t-69.5 -12.5z" />
    <glyph glyph-name="cent" unicode="&#xa2;" horiz-adv-x="1200" 
d="M484 -3q-100 18 -181 64t-138 115.5t-88 161t-31 199.5q0 110 31 202t88 162.5t138 117t181 64.5v319h269v-323q114 -24 200.5 -85t140.5 -155l-265 -151q-35 53 -86.5 82.5t-119.5 29.5q-48 0 -87 -19t-67 -53.5t-43.5 -82.5t-15.5 -107t15.5 -107.5t43.5 -83t67 -53.5
t87 -19q69 0 121.5 30t84.5 93l270 -151q-51 -96 -139 -158.5t-207 -86.5v-312h-269v307z" />
    <glyph glyph-name="sterling" unicode="&#xa3;" horiz-adv-x="1129" 
d="M688 1417q122 0 233.5 -44t194.5 -127l-138 -273q-65 66 -128 99.5t-123 33.5q-73 0 -111 -42.5t-38 -127.5v-183h332v-132h-332v-341h510v-280h-1034v280h150v341h-150v132h150v191q0 113 32.5 201t94 148.5t152 92t205.5 31.5z" />
    <glyph glyph-name="currency" unicode="&#xa4;" horiz-adv-x="1400" 
d="M248 1289l197 -196q57 32 121 49t133 17q70 0 134.5 -17.5t121.5 -49.5l197 197l202 -202l-197 -198q30 -55 46.5 -117t16.5 -129q0 -70 -18 -134.5t-51 -121.5l203 -204l-202 -202l-208 208q-55 -29 -116.5 -45t-128.5 -16q-66 0 -127 15.5t-116 44.5l-208 -207
l-202 202l203 204q-33 57 -51 121.5t-18 134.5q0 67 16.5 129t46.5 117l-197 198zM699 877q-49 0 -91.5 -18.5t-74.5 -50t-50.5 -74.5t-18.5 -91t18.5 -90t50.5 -73.5t74.5 -50t91.5 -18.5q50 0 93.5 18.5t75.5 50t51 73.5t19 90t-19 91t-51 74.5t-75.5 50t-93.5 18.5z" />
    <glyph glyph-name="yen" unicode="&#xa5;" horiz-adv-x="1394" 
d="M134 652h269l-403 748h372l328 -601l320 601h374l-400 -748h271v-132h-341l-36 -68v-34h377v-132h-377v-286h-372v286h-382v132h382v24l-42 78h-340v132z" />
    <glyph glyph-name="brokenbar" unicode="&#xa6;" horiz-adv-x="606" 
d="M169 1604h269v-684h-269v684zM169 467h269v-684h-269v684z" />
    <glyph glyph-name="section" unicode="&#xa7;" horiz-adv-x="1102" 
d="M918 1042q-108 54 -195 81t-149 27q-57 0 -87 -19.5t-30 -49.5q0 -29 25.5 -50t67.5 -38.5t96 -33.5t110 -35.5t110 -45t96 -62t67.5 -85.5t25.5 -117q0 -89 -53.5 -159t-142.5 -108q32 -19 55 -38t39 -42t23.5 -52t7.5 -67q0 -71 -32 -130.5t-91 -102.5t-144 -67
t-190 -24q-132 0 -260.5 39t-235.5 115l101 224q103 -68 202 -102t185 -34q63 0 96 20.5t33 50.5q0 28 -25.5 48.5t-66.5 37.5t-94 32.5t-108 35t-108 45t-94 61.5t-66.5 85t-25.5 116q0 94 54.5 161t152.5 105q-40 22 -66.5 44.5t-42 46.5t-21.5 51t-6 58q0 71 30.5 130.5
t87.5 102.5t138.5 67t183.5 24q113 0 228 -30.5t228 -93.5zM522 698q-68 0 -102.5 -20.5t-34.5 -55.5q0 -23 15 -42.5t41.5 -33t62 -21t76.5 -7.5q71 0 106 21.5t35 56.5q0 23 -15.5 41.5t-42.5 32t-63.5 21t-77.5 7.5z" />
    <glyph glyph-name="dieresis" unicode="&#xa8;" horiz-adv-x="858" 
d="M250 1532q33 0 61.5 -11.5t48.5 -32t31.5 -49t11.5 -62.5q0 -33 -11.5 -61t-31.5 -49t-48.5 -32.5t-61.5 -11.5q-34 0 -62.5 11.5t-49 32.5t-32 49t-11.5 61q0 34 11.5 62.5t32 49t49 32t62.5 11.5zM634 1532q34 0 62 -11.5t48.5 -32t32 -49t11.5 -62.5q0 -33 -11.5 -61
t-32 -49t-48.5 -32.5t-62 -11.5t-62 11.5t-48.5 32.5t-32 49t-11.5 61q0 34 11.5 62.5t32 49t48.5 32t62 11.5z" />
    <glyph glyph-name="copyright" unicode="&#xa9;" horiz-adv-x="1444" 
d="M900 798q-33 39 -75.5 62.5t-85.5 23.5q-37 0 -69.5 -14t-56 -38.5t-37 -58t-13.5 -72.5q0 -40 13.5 -73.5t37 -58.5t56 -39t69.5 -14q40 0 83 20t78 55l100 -106q-53 -56 -125 -88.5t-146 -32.5q-73 0 -136 25.5t-109 70t-72 105.5t-26 133q0 71 26.5 131.5t73.5 105
t111 69.5t139 25q36 0 72.5 -8t71 -22.5t65 -35t55.5 -46.5zM723 1378q143 0 266 -53.5t214.5 -146t143.5 -215.5t52 -263q0 -92 -24 -178.5t-67.5 -162.5t-105 -138.5t-137 -107.5t-163.5 -70t-183 -25t-182 24.5t-162 69t-135.5 106.5t-104 137.5t-67 162t-23.5 178.5
q0 93 23.5 179t67 162t105 138.5t137 107.5t163 70t182.5 25zM723 1212q-109 0 -202.5 -41t-162.5 -111.5t-108 -164.5t-39 -199t39 -198.5t107 -163t161 -110t201 -40.5q109 0 203 41t163.5 111.5t109 164.5t39.5 199t-39.5 198.5t-108 163t-162 110t-201.5 40.5z" />
    <glyph glyph-name="ordfeminine" unicode="&#xaa;" horiz-adv-x="788" 
d="M473 852q-32 -44 -84 -67t-123 -23q-53 0 -95 14.5t-71 41t-44.5 64t-15.5 82.5q0 94 67 143.5t196 50.5h170v6q0 42 -30.5 65t-91.5 23q-43 0 -97.5 -12.5t-114.5 -34.5l-57 159q85 31 168.5 48.5t158.5 17.5q72 0 129.5 -16t97 -46t60 -74t20.5 -101v-421h-242z
M352 915q38 0 69.5 15.5t51.5 49.5v62h-119q-39 0 -60.5 -14t-21.5 -45t21 -49.5t59 -18.5z" />
    <glyph glyph-name="guillemotleft" unicode="&#xab;" horiz-adv-x="1018" 
d="M240 905h292l-212 -370l212 -372h-292l-242 372zM695 905h292l-212 -370l212 -372h-292l-242 372z" />
    <glyph glyph-name="logicalnot" unicode="&#xac;" horiz-adv-x="1163" 
d="M64 860h973v-588h-259v360h-714v228z" />
    <glyph glyph-name="uni00AD" unicode="&#xad;" horiz-adv-x="750" 
d="M109 728h533v-228h-533v228z" />
    <glyph glyph-name="registered" unicode="&#xae;" horiz-adv-x="1444" 
d="M723 1378q143 0 266 -53.5t214.5 -146t143.5 -215.5t52 -263q0 -92 -24 -178.5t-67.5 -162.5t-105 -138.5t-137 -107.5t-163.5 -70t-183 -25t-182 24.5t-162 69t-135.5 106.5t-104 137.5t-67 162t-23.5 178.5q0 93 23.5 179t67 162t105 138.5t137 107.5t163 70t182.5 25z
M723 1212q-109 0 -202.5 -41t-162.5 -111.5t-108 -164.5t-39 -199t39 -198.5t107 -163t161 -110t201 -40.5q109 0 203 41t163.5 111.5t109 164.5t39.5 199t-39.5 198.5t-108 163t-162 110t-201.5 40.5zM742 1038q128 0 196 -58t68 -164q0 -72 -29 -124t-84 -80l133 -208
h-188l-93 176h-3h-112v-176h-166v634h278zM742 708q51 0 79 27t28 76q0 48 -28 74t-79 26h-112v-203h112z" />
    <glyph glyph-name="macron" unicode="&#xaf;" horiz-adv-x="688" 
d="M40 1487h620v-209h-620v209z" />
    <glyph glyph-name="degree" unicode="&#xb0;" horiz-adv-x="757" 
d="M406 1636q50 0 93 -18.5t75.5 -51t51 -75.5t18.5 -92t-18.5 -92t-51 -75t-75.5 -51t-93 -19q-49 0 -92.5 19t-75.5 51t-51 75t-19 92t18.5 92t51 75.5t76 51t92.5 18.5zM406 1497q-42 0 -70.5 -28.5t-28.5 -69.5q0 -20 7.5 -37.5t21 -31t31.5 -21.5t39 -8t39 8t31.5 21.5
t21 31t7.5 37.5q0 41 -28.5 69.5t-70.5 28.5z" />
    <glyph glyph-name="plusminus" unicode="&#xb1;" horiz-adv-x="1022" 
d="M64 768h334v333h228v-333h332v-228h-332v-333h-228v333h-334v228zM64 227h894v-228h-894v228z" />
    <glyph glyph-name="twosuperior" unicode="&#xb2;" horiz-adv-x="762" 
d="M355 1192q32 33 54 67t22 60q0 31 -21 46.5t-60 15.5q-52 0 -115.5 -29t-126.5 -80l-98 179q91 62 184.5 96.5t195.5 34.5q52 0 107 -12t100.5 -39t74.5 -70t29 -105q0 -42 -16 -82t-41.5 -76t-55.5 -68.5t-59 -59.5l-159 -159h351v-191h-680v158z" />
    <glyph glyph-name="threesuperior" unicode="&#xb3;" horiz-adv-x="742" 
d="M244 1237h135q41 0 60 17t19 48q0 37 -30.5 57t-87.5 20q-39 0 -84.5 -13.5t-102.5 -40.5l-72 196q68 31 130.5 45t127.5 14q85 0 154 -18t118 -49.5t76 -75.5t27 -96q0 -60 -27 -102.5t-78 -68.5q63 -29 95.5 -81.5t32.5 -121.5q0 -57 -25 -106t-71.5 -85.5t-112.5 -57
t-148 -20.5q-47 0 -95.5 8t-94 23t-86.5 36t-74 46l98 179q60 -50 120 -75t114 -25q58 0 88.5 24t30.5 66q0 43 -30.5 64.5t-88.5 21.5h-118v171z" />
    <glyph glyph-name="acute" unicode="&#xb4;" horiz-adv-x="700" 
d="M323 1540l297 -111l-292 -232l-246 20z" />
    <glyph glyph-name="uni00B5" unicode="&#xb5;" horiz-adv-x="1370" 
d="M130 1082h359v-549q0 -49 9 -93t31.5 -77.5t59.5 -53t92 -19.5q57 0 98.5 21.5t67.5 58t38.5 84.5t12.5 102v526h360v-1082h-318v126q-42 -66 -108.5 -104.5t-157.5 -38.5q-54 0 -100.5 14t-84.5 40v-437h-359v1482z" />
    <glyph glyph-name="paragraph" unicode="&#xb6;" horiz-adv-x="1310" 
d="M447 640h-51q-81 0 -143 19.5t-107.5 52t-76 74.5t-49 88t-26 92.5t-7.5 86.5q0 82 27 159.5t85.5 138t152 97t226.5 36.5h699v-1697h-270v1494h-191v-1494h-269v853z" />
    <glyph glyph-name="periodcentered" unicode="&#xb7;" horiz-adv-x="471" 
d="M232 772q42 0 77 -14t60.5 -39t39.5 -60t14 -77t-14 -76.5t-39.5 -60t-60.5 -39.5t-77 -14t-76.5 14t-60 39.5t-39.5 60t-14 76.5t14 77t39.5 60t60 39t76.5 14z" />
    <glyph glyph-name="cedilla" unicode="&#xb8;" horiz-adv-x="646" 
d="M272 54l201 -18l-41 -112q89 -20 126.5 -63.5t37.5 -98.5q0 -51 -21.5 -88t-57 -60t-82 -34t-96.5 -11q-57 0 -114 10.5t-107 28.5l56 160q23 -8 49.5 -13t51.5 -5q36 0 58.5 12t22.5 31q0 24 -31.5 36t-76.5 12h-46z" />
    <glyph glyph-name="onesuperior" unicode="&#xb9;" horiz-adv-x="595" 
d="M488 720h-257v549h-177v185h177v108h257v-842z" />
    <glyph glyph-name="ordmasculine" unicode="&#xba;" horiz-adv-x="828" 
d="M413 1425q86 0 155.5 -23.5t118.5 -67t76 -104.5t27 -137q0 -75 -27 -136t-76 -104.5t-118.5 -67t-155.5 -23.5q-85 0 -154 23.5t-118 67t-76 104.5t-27 136q0 76 27 137t76 104.5t118 67t154 23.5zM413 1237q-57 0 -91.5 -40t-34.5 -106t34.5 -106t91.5 -40t91.5 40
t34.5 106t-34.5 106t-91.5 40z" />
    <glyph glyph-name="guillemotright" unicode="&#xbb;" horiz-adv-x="1027" 
d="M333 163h-293l213 370l-213 372h293l241 -372zM788 163h-293l213 370l-213 372h293l241 -372z" />
    <glyph glyph-name="onequarter" unicode="&#xbc;" horiz-adv-x="1695" 
d="M1173 1400h251l-995 -1400h-251zM1280 842h314v-492h116v-177h-116v-173h-238v173h-416v163zM1356 350v280l-187 -280h187zM489 564h-257v549h-177v185h177v108h257v-842z" />
    <glyph glyph-name="onehalf" unicode="&#xbd;" horiz-adv-x="1777" 
d="M1314 472q32 33 53.5 67t21.5 60q0 62 -81 62q-52 0 -115.5 -29t-126.5 -80l-98 179q91 62 185 96.5t195 34.5q51 0 106.5 -12t101 -39t75 -70t29.5 -105q0 -42 -16.5 -81.5t-41.5 -76t-55.5 -69t-58.5 -59.5l-160 -159h351v-191h-680v158zM1173 1400h251l-995 -1400
h-251zM489 564h-257v549h-177v185h177v108h257v-842z" />
    <glyph glyph-name="threequarters" unicode="&#xbe;" horiz-adv-x="1851" 
d="M1439 842h314v-492h116v-177h-116v-173h-238v173h-416v163zM1332 1400h250l-995 -1400h-251zM244 1084h135q41 0 60 17t19 48q0 38 -30.5 57.5t-87.5 19.5q-39 0 -84.5 -13t-102.5 -41l-72 196q68 32 130.5 46t127.5 14q85 0 154 -18t118 -49.5t76 -75.5t27 -97
q0 -60 -27 -102.5t-78 -68.5q63 -29 95.5 -81t32.5 -121q0 -57 -25 -106t-71.5 -85.5t-112.5 -57t-148 -20.5q-47 0 -95.5 8t-94 23t-86.5 35.5t-74 45.5l98 180q60 -50 120 -75.5t114 -25.5q58 0 88.5 24t30.5 66q0 43 -30.5 65t-88.5 22h-118v170zM1515 350v280l-187 -280
h187z" />
    <glyph glyph-name="questiondown" unicode="&#xbf;" horiz-adv-x="1189" 
d="M792 595q14 -35 20 -64.5t6 -54.5q0 -63 -30 -108t-77 -75l-144 -90q-42 -27 -70.5 -58t-28.5 -73q0 -32 14 -57.5t38.5 -43t59 -27t76.5 -9.5q86 0 153 37.5t109 106.5l281 -154q-40 -65 -96 -118t-129 -90.5t-163 -58t-198 -20.5q-114 0 -210 24.5t-165 71.5
t-107.5 117t-38.5 160q0 93 32.5 157.5t88.5 99.5l159 101q23 15 43 28t35 27t24 29.5t9 34.5q0 15 -4 28.5t-8 27.5zM629 1081q48 0 87.5 -16t68 -43.5t44.5 -64t16 -77.5q0 -42 -16 -78t-44.5 -63t-68 -42t-87.5 -15t-87.5 15t-68 42t-44.5 63t-16 78q0 41 16 77.5
t44.5 64t68 43.5t87.5 16z" />
    <glyph glyph-name="Agrave" unicode="&#xc0;" horiz-adv-x="1548" 
d="M591 1400h381l587 -1400h-397l-95 248h-599l-96 -248h-383zM961 527l-190 501l-195 -501h385zM727 1843l213 -323l-248 -20l-263 232z" />
    <glyph glyph-name="Aacute" unicode="&#xc1;" horiz-adv-x="1548" 
d="M591 1400h381l587 -1400h-397l-95 248h-599l-96 -248h-383zM961 527l-190 501l-195 -501h385zM834 1843l297 -111l-292 -232l-246 20z" />
    <glyph glyph-name="Acircumflex" unicode="&#xc2;" horiz-adv-x="1548" 
d="M591 1400h381l587 -1400h-397l-95 248h-599l-96 -248h-383zM961 527l-190 501l-195 -501h385zM616 1817h318l219 -305h-258l-120 134l-120 -134h-258z" />
    <glyph glyph-name="Atilde" unicode="&#xc3;" horiz-adv-x="1548" 
d="M591 1400h381l587 -1400h-397l-95 248h-599l-96 -248h-383zM961 527l-190 501l-195 -501h385zM1118 1822q0 -76 -11 -134.5t-34.5 -99t-60.5 -61.5t-90 -21q-45 0 -84 14t-72.5 30.5t-61 30.5t-48.5 14q-31 0 -43 -22t-13 -61h-203q0 75 11 134t34.5 99.5t61 62
t90.5 21.5q45 0 84 -14t72 -30.5t60.5 -30.5t48.5 -14q32 0 44 22t13 60h202z" />
    <glyph glyph-name="Adieresis" unicode="&#xc4;" horiz-adv-x="1548" 
d="M591 1400h381l587 -1400h-397l-95 248h-599l-96 -248h-383zM961 527l-190 501l-195 -501h385zM583 1818q33 0 61.5 -11.5t48.5 -32t31.5 -49t11.5 -62.5q0 -33 -11.5 -61t-31.5 -49t-48.5 -32.5t-61.5 -11.5q-34 0 -62.5 11.5t-49 32.5t-32 49t-11.5 61q0 34 11.5 62.5
t32 49t49 32t62.5 11.5zM967 1818q34 0 62 -11.5t48.5 -32t32 -49t11.5 -62.5q0 -33 -11.5 -61t-32 -49t-48.5 -32.5t-62 -11.5t-62 11.5t-48.5 32.5t-32 49t-11.5 61q0 34 11.5 62.5t32 49t48.5 32t62 11.5z" />
    <glyph glyph-name="Aring" unicode="&#xc5;" horiz-adv-x="1548" 
d="M585 1387q-22 30 -34 66t-12 76q0 50 19 93.5t52 76t77 51.5t94 19t94 -19t77 -51.5t52 -76t19 -93.5q0 -40 -12 -76t-33 -65l581 -1388h-397l-95 248h-599l-96 -248h-383zM961 527l-190 501l-195 -501h385zM781 1617q-38 0 -63.5 -25.5t-25.5 -62.5q0 -38 25.5 -63.5
t63.5 -25.5t64 25.5t26 63.5q0 37 -26 62.5t-64 25.5z" />
    <glyph glyph-name="AE" unicode="&#xc6;" horiz-adv-x="2215" 
d="M998 287h-473l-150 -287h-386l792 1400h1327v-292h-738v-260h667v-291h-667v-266h758v-291h-1130v287zM998 556v559h-39l-293 -559h332z" />
    <glyph glyph-name="Ccedilla" unicode="&#xc7;" horiz-adv-x="1382" 
d="M1146 926q-34 43 -75 77.5t-86 59t-92 37.5t-93 13q-80 0 -148.5 -31t-118.5 -85t-78.5 -128t-28.5 -161t28.5 -161t78.5 -129t118.5 -86t148.5 -31q44 0 89.5 11.5t90.5 33t87.5 52t78.5 68.5l217 -229q-51 -55 -113 -100t-130 -78.5t-140.5 -54.5t-144.5 -27l-19 -53
q89 -20 126.5 -63.5t37.5 -98.5q0 -51 -21.5 -88t-57 -60t-82 -34t-96.5 -11q-57 0 -114 10.5t-106 28.5l55 160q23 -8 49.5 -13t51.5 -5q36 0 58.5 12t22.5 31q0 24 -31.5 36t-76.5 12h-46l48 147q-129 24 -237.5 87t-186.5 157t-121.5 214.5t-43.5 257.5q0 154 56.5 286
t157 228.5t238 151t298.5 54.5q78 0 156.5 -17t152 -48.5t140 -76.5t118.5 -101z" />
    <glyph glyph-name="Egrave" unicode="&#xc8;" horiz-adv-x="1352" 
d="M134 1400h1110v-292h-738v-260h666v-291h-666v-266h758v-291h-1130v1400zM650 1844l213 -323l-248 -20l-263 232z" />
    <glyph glyph-name="Eacute" unicode="&#xc9;" horiz-adv-x="1352" 
d="M134 1400h1110v-292h-738v-260h666v-291h-666v-266h758v-291h-1130v1400zM757 1844l297 -111l-292 -232l-246 20z" />
    <glyph glyph-name="Ecircumflex" unicode="&#xca;" horiz-adv-x="1352" 
d="M134 1400h1110v-292h-738v-260h666v-291h-666v-266h758v-291h-1130v1400zM539 1818h318l219 -305h-258l-120 134l-120 -134h-258z" />
    <glyph glyph-name="Edieresis" unicode="&#xcb;" horiz-adv-x="1352" 
d="M134 1400h1110v-292h-738v-260h666v-291h-666v-266h758v-291h-1130v1400zM507 1819q33 0 61.5 -11.5t48.5 -32t31.5 -49t11.5 -62.5q0 -33 -11.5 -61t-31.5 -49t-48.5 -32.5t-61.5 -11.5q-34 0 -62.5 11.5t-49 32.5t-32 49t-11.5 61q0 34 11.5 62.5t32 49t49 32
t62.5 11.5zM891 1819q34 0 62 -11.5t48.5 -32t32 -49t11.5 -62.5q0 -33 -11.5 -61t-32 -49t-48.5 -32.5t-62 -11.5t-62 11.5t-48.5 32.5t-32 49t-11.5 61q0 34 11.5 62.5t32 49t48.5 32t62 11.5z" />
    <glyph glyph-name="Igrave" unicode="&#xcc;" horiz-adv-x="640" 
d="M134 1400h372v-1400h-372v1400zM272 1843l213 -323l-248 -20l-263 232z" />
    <glyph glyph-name="Iacute" unicode="&#xcd;" horiz-adv-x="640" 
d="M134 1400h372v-1400h-372v1400zM379 1843l297 -111l-292 -232l-246 20z" />
    <glyph glyph-name="Icircumflex" unicode="&#xce;" horiz-adv-x="640" 
d="M134 1400h372v-1400h-372v1400zM161 1817h318l219 -305h-258l-120 134l-120 -134h-258z" />
    <glyph glyph-name="Idieresis" unicode="&#xcf;" horiz-adv-x="640" 
d="M134 1400h372v-1400h-372v1400zM129 1818q33 0 61.5 -11.5t48.5 -32t31.5 -49t11.5 -62.5q0 -33 -11.5 -61t-31.5 -49t-48.5 -32.5t-61.5 -11.5q-34 0 -62.5 11.5t-49 32.5t-32 49t-11.5 61q0 34 11.5 62.5t32 49t49 32t62.5 11.5zM513 1818q34 0 62 -11.5t48.5 -32
t32 -49t11.5 -62.5q0 -33 -11.5 -61t-32 -49t-48.5 -32.5t-62 -11.5t-62 11.5t-48.5 32.5t-32 49t-11.5 61q0 34 11.5 62.5t32 49t48.5 32t62 11.5z" />
    <glyph glyph-name="Eth" unicode="&#xd0;" horiz-adv-x="1530" 
d="M2 785h132v615h604q167 0 304.5 -50.5t235.5 -143t152 -221.5t54 -285t-55 -285t-155 -221t-240 -143t-310 -51h-590v616h-132v169zM747 297q79 0 144.5 29t113 81.5t74 126t26.5 163.5t-28 165t-78 128.5t-118.5 83t-150.5 29.5h-224v-318h317v-169h-317v-319h241z" />
    <glyph glyph-name="Ntilde" unicode="&#xd1;" horiz-adv-x="1570" 
d="M134 1400h325l631 -840v840h345v-1400h-325l-629 836v-836h-347v1400zM1137 1823q0 -76 -11 -134.5t-34.5 -99t-60.5 -61.5t-90 -21q-45 0 -84 14t-72.5 30.5t-61 30.5t-48.5 14q-31 0 -43 -22t-13 -61h-203q0 75 11 134t34.5 99.5t61 62t90.5 21.5q45 0 84 -14t72 -30.5
t60.5 -30.5t48.5 -14q32 0 44 22t13 60h202z" />
    <glyph glyph-name="Ograve" unicode="&#xd2;" 
d="M803 1424q163 0 302 -54.5t240.5 -151.5t159 -228.5t57.5 -286.5q0 -156 -57.5 -289t-159 -231t-240.5 -153.5t-302 -55.5t-301.5 55.5t-240 153t-159 231t-57.5 289.5q0 155 57.5 287t159 228.5t240 151t301.5 54.5zM808 1112q-78 0 -147.5 -31t-121.5 -86t-82.5 -130.5
t-30.5 -163.5t30.5 -164t83 -132t122 -88t146.5 -32t144.5 32t118 88t79.5 132t29 164t-29 163.5t-79.5 130.5t-118 86t-144.5 31zM756 1844l213 -323l-248 -20l-263 232z" />
    <glyph glyph-name="Oacute" unicode="&#xd3;" 
d="M803 1424q163 0 302 -54.5t240.5 -151.5t159 -228.5t57.5 -286.5q0 -156 -57.5 -289t-159 -231t-240.5 -153.5t-302 -55.5t-301.5 55.5t-240 153t-159 231t-57.5 289.5q0 155 57.5 287t159 228.5t240 151t301.5 54.5zM808 1112q-78 0 -147.5 -31t-121.5 -86t-82.5 -130.5
t-30.5 -163.5t30.5 -164t83 -132t122 -88t146.5 -32t144.5 32t118 88t79.5 132t29 164t-29 163.5t-79.5 130.5t-118 86t-144.5 31zM863 1844l297 -111l-292 -232l-246 20z" />
    <glyph glyph-name="Ocircumflex" unicode="&#xd4;" 
d="M803 1424q163 0 302 -54.5t240.5 -151.5t159 -228.5t57.5 -286.5q0 -156 -57.5 -289t-159 -231t-240.5 -153.5t-302 -55.5t-301.5 55.5t-240 153t-159 231t-57.5 289.5q0 155 57.5 287t159 228.5t240 151t301.5 54.5zM808 1112q-78 0 -147.5 -31t-121.5 -86t-82.5 -130.5
t-30.5 -163.5t30.5 -164t83 -132t122 -88t146.5 -32t144.5 32t118 88t79.5 132t29 164t-29 163.5t-79.5 130.5t-118 86t-144.5 31zM645 1818h318l219 -305h-258l-120 134l-120 -134h-258z" />
    <glyph glyph-name="Otilde" unicode="&#xd5;" 
d="M803 1424q163 0 302 -54.5t240.5 -151.5t159 -228.5t57.5 -286.5q0 -156 -57.5 -289t-159 -231t-240.5 -153.5t-302 -55.5t-301.5 55.5t-240 153t-159 231t-57.5 289.5q0 155 57.5 287t159 228.5t240 151t301.5 54.5zM808 1112q-78 0 -147.5 -31t-121.5 -86t-82.5 -130.5
t-30.5 -163.5t30.5 -164t83 -132t122 -88t146.5 -32t144.5 32t118 88t79.5 132t29 164t-29 163.5t-79.5 130.5t-118 86t-144.5 31zM1147 1823q0 -76 -11 -134.5t-34.5 -99t-60.5 -61.5t-90 -21q-45 0 -84 14t-72.5 30.5t-61 30.5t-48.5 14q-31 0 -43 -22t-13 -61h-203
q0 75 11 134t34.5 99.5t61 62t90.5 21.5q45 0 84 -14t72 -30.5t60.5 -30.5t48.5 -14q32 0 44 22t13 60h202z" />
    <glyph glyph-name="Odieresis" unicode="&#xd6;" 
d="M803 1424q163 0 302 -54.5t240.5 -151.5t159 -228.5t57.5 -286.5q0 -156 -57.5 -289t-159 -231t-240.5 -153.5t-302 -55.5t-301.5 55.5t-240 153t-159 231t-57.5 289.5q0 155 57.5 287t159 228.5t240 151t301.5 54.5zM808 1112q-78 0 -147.5 -31t-121.5 -86t-82.5 -130.5
t-30.5 -163.5t30.5 -164t83 -132t122 -88t146.5 -32t144.5 32t118 88t79.5 132t29 164t-29 163.5t-79.5 130.5t-118 86t-144.5 31zM612 1819q33 0 61.5 -11.5t48.5 -32t31.5 -49t11.5 -62.5q0 -33 -11.5 -61t-31.5 -49t-48.5 -32.5t-61.5 -11.5q-34 0 -62.5 11.5t-49 32.5
t-32 49t-11.5 61q0 34 11.5 62.5t32 49t49 32t62.5 11.5zM996 1819q34 0 62 -11.5t48.5 -32t32 -49t11.5 -62.5q0 -33 -11.5 -61t-32 -49t-48.5 -32.5t-62 -11.5t-62 11.5t-48.5 32.5t-32 49t-11.5 61q0 34 11.5 62.5t32 49t48.5 32t62 11.5z" />
    <glyph glyph-name="multiply" unicode="&#xd7;" horiz-adv-x="1022" 
d="M350 654l-235 235l161 162l236 -235l235 235l161 -162l-235 -235l235 -235l-161 -161l-235 235l-236 -235l-161 161z" />
    <glyph glyph-name="Oslash" unicode="&#xd8;" 
d="M333 125q-67 48 -120 109.5t-90.5 134.5t-57.5 155t-20 172q0 153 57.5 283.5t159 225t240 148t301.5 53.5q154 0 290 -49l93 152h233l-150 -243q68 -48 122 -109t92 -134t58.5 -155t20.5 -172q0 -153 -57.5 -284t-159 -227.5t-240.5 -151t-302 -54.5q-80 0 -154 13.5
t-142 39.5l-88 -142h-231zM808 1094q-78 0 -147.5 -30.5t-121.5 -83.5t-82.5 -126t-30.5 -159q0 -78 25 -145.5t69 -120.5l400 648q-54 17 -112 17zM1179 695q0 80 -25.5 149t-70.5 122l-402 -653q61 -23 127 -23q77 0 144.5 31t118 85.5t79.5 128.5t29 160z" />
    <glyph glyph-name="Ugrave" unicode="&#xd9;" horiz-adv-x="1495" 
d="M483 578q0 -67 20.5 -121.5t56.5 -92.5t85.5 -58.5t107.5 -20.5q57 0 105 20t82.5 58t53.5 92.5t19 122.5v822h372v-822q0 -138 -44.5 -250t-127 -190.5t-199.5 -121t-262 -42.5q-147 0 -265.5 42.5t-202 121t-129 190.5t-45.5 250v822h373v-822zM701 1844l213 -323
l-248 -20l-263 232z" />
    <glyph glyph-name="Uacute" unicode="&#xda;" horiz-adv-x="1495" 
d="M483 578q0 -67 20.5 -121.5t56.5 -92.5t85.5 -58.5t107.5 -20.5q57 0 105 20t82.5 58t53.5 92.5t19 122.5v822h372v-822q0 -138 -44.5 -250t-127 -190.5t-199.5 -121t-262 -42.5q-147 0 -265.5 42.5t-202 121t-129 190.5t-45.5 250v822h373v-822zM808 1844l297 -111
l-292 -232l-246 20z" />
    <glyph glyph-name="Ucircumflex" unicode="&#xdb;" horiz-adv-x="1495" 
d="M483 578q0 -67 20.5 -121.5t56.5 -92.5t85.5 -58.5t107.5 -20.5q57 0 105 20t82.5 58t53.5 92.5t19 122.5v822h372v-822q0 -138 -44.5 -250t-127 -190.5t-199.5 -121t-262 -42.5q-147 0 -265.5 42.5t-202 121t-129 190.5t-45.5 250v822h373v-822zM590 1818h318l219 -305
h-258l-120 134l-120 -134h-258z" />
    <glyph glyph-name="Udieresis" unicode="&#xdc;" horiz-adv-x="1495" 
d="M483 578q0 -67 20.5 -121.5t56.5 -92.5t85.5 -58.5t107.5 -20.5q57 0 105 20t82.5 58t53.5 92.5t19 122.5v822h372v-822q0 -138 -44.5 -250t-127 -190.5t-199.5 -121t-262 -42.5q-147 0 -265.5 42.5t-202 121t-129 190.5t-45.5 250v822h373v-822zM557 1819
q33 0 61.5 -11.5t48.5 -32t31.5 -49t11.5 -62.5q0 -33 -11.5 -61t-31.5 -49t-48.5 -32.5t-61.5 -11.5q-34 0 -62.5 11.5t-49 32.5t-32 49t-11.5 61q0 34 11.5 62.5t32 49t49 32t62.5 11.5zM941 1819q34 0 62 -11.5t48.5 -32t32 -49t11.5 -62.5q0 -33 -11.5 -61t-32 -49
t-48.5 -32.5t-62 -11.5t-62 11.5t-48.5 32.5t-32 49t-11.5 61q0 34 11.5 62.5t32 49t48.5 32t62 11.5z" />
    <glyph glyph-name="Yacute" unicode="&#xdd;" horiz-adv-x="1371" 
d="M504 441l-515 959h372l329 -600l320 600h372l-506 -949v-451h-372v441zM745 1844l297 -111l-292 -232l-246 20z" />
    <glyph glyph-name="Thorn" unicode="&#xde;" horiz-adv-x="1379" 
d="M134 1400h372v-183h237q138 0 248 -33.5t186.5 -96t117 -152t40.5 -202.5q0 -119 -40.5 -213.5t-117 -160.5t-186.5 -101.5t-248 -35.5h-237v-222h-372v1400zM506 506h221q109 0 167.5 56.5t58.5 159.5q0 100 -58.5 155t-167.5 55h-221v-426z" />
    <glyph glyph-name="germandbls" unicode="&#xdf;" horiz-adv-x="1327" 
d="M110 985q0 117 38.5 212.5t109.5 162.5t172 103.5t226 36.5q118 0 214.5 -28.5t165.5 -81t106.5 -126t37.5 -164.5q0 -52 -13 -101t-37.5 -92.5t-59 -79.5t-76.5 -60q60 -17 110 -48.5t85.5 -75t55.5 -98t20 -117.5q0 -96 -39.5 -175t-112.5 -135t-176.5 -87t-231.5 -31
h-97v257h76q112 0 171 46t59 129q0 85 -64.5 128t-185.5 43h-38v255q100 0 152 48t52 140q0 90 -44.5 136.5t-125.5 46.5q-92 0 -140 -55.5t-48 -161.5v-1012h-362v985z" />
    <glyph glyph-name="agrave" unicode="&#xe0;" horiz-adv-x="1204" 
d="M745 123q-52 -68 -133.5 -103.5t-191.5 -35.5q-87 0 -155.5 25t-116 69.5t-72.5 106.5t-25 137q0 156 106 242t309 86h279v12q0 77 -51 119.5t-153 42.5q-68 0 -152.5 -21.5t-172.5 -64.5l-97 240q128 57 251 87.5t256 30.5q112 0 200 -26.5t149 -76.5t93 -123t32 -166
l1 -704h-355zM533 226q38 0 72.5 10t62.5 28.5t48 44t29 56.5v95h-209q-73 0 -109.5 -27t-36.5 -85q0 -57 37.5 -89.5t105.5 -32.5zM541 1540l213 -323l-248 -20l-263 232z" />
    <glyph glyph-name="aacute" unicode="&#xe1;" horiz-adv-x="1204" 
d="M745 123q-52 -68 -133.5 -103.5t-191.5 -35.5q-87 0 -155.5 25t-116 69.5t-72.5 106.5t-25 137q0 156 106 242t309 86h279v12q0 77 -51 119.5t-153 42.5q-68 0 -152.5 -21.5t-172.5 -64.5l-97 240q128 57 251 87.5t256 30.5q112 0 200 -26.5t149 -76.5t93 -123t32 -166
l1 -704h-355zM533 226q38 0 72.5 10t62.5 28.5t48 44t29 56.5v95h-209q-73 0 -109.5 -27t-36.5 -85q0 -57 37.5 -89.5t105.5 -32.5zM698 1540l297 -111l-292 -232l-246 20z" />
    <glyph glyph-name="acircumflex" unicode="&#xe2;" horiz-adv-x="1204" 
d="M745 123q-52 -68 -133.5 -103.5t-191.5 -35.5q-87 0 -155.5 25t-116 69.5t-72.5 106.5t-25 137q0 156 106 242t309 86h279v12q0 77 -51 119.5t-153 42.5q-68 0 -152.5 -21.5t-172.5 -64.5l-97 240q128 57 251 87.5t256 30.5q112 0 200 -26.5t149 -76.5t93 -123t32 -166
l1 -704h-355zM533 226q38 0 72.5 10t62.5 28.5t48 44t29 56.5v95h-209q-73 0 -109.5 -27t-36.5 -85q0 -57 37.5 -89.5t105.5 -32.5zM461 1525h318l219 -305h-258l-120 134l-120 -134h-258z" />
    <glyph glyph-name="atilde" unicode="&#xe3;" horiz-adv-x="1204" 
d="M745 123q-52 -68 -133.5 -103.5t-191.5 -35.5q-87 0 -155.5 25t-116 69.5t-72.5 106.5t-25 137q0 156 106 242t309 86h279v12q0 77 -51 119.5t-153 42.5q-68 0 -152.5 -21.5t-172.5 -64.5l-97 240q128 57 251 87.5t256 30.5q112 0 200 -26.5t149 -76.5t93 -123t32 -166
l1 -704h-355zM533 226q38 0 72.5 10t62.5 28.5t48 44t29 56.5v95h-209q-73 0 -109.5 -27t-36.5 -85q0 -57 37.5 -89.5t105.5 -32.5zM990 1512q0 -76 -11 -134.5t-34.5 -99t-60.5 -61.5t-90 -21q-45 0 -84 14t-72.5 30.5t-61 30.5t-48.5 14q-31 0 -43 -22t-13 -61h-203
q0 75 11 134t34.5 99.5t61 62t90.5 21.5q45 0 84 -14t72 -30.5t60.5 -30.5t48.5 -14q32 0 44 22t13 60h202z" />
    <glyph glyph-name="adieresis" unicode="&#xe4;" horiz-adv-x="1204" 
d="M745 123q-52 -68 -133.5 -103.5t-191.5 -35.5q-87 0 -155.5 25t-116 69.5t-72.5 106.5t-25 137q0 156 106 242t309 86h279v12q0 77 -51 119.5t-153 42.5q-68 0 -152.5 -21.5t-172.5 -64.5l-97 240q128 57 251 87.5t256 30.5q112 0 200 -26.5t149 -76.5t93 -123t32 -166
l1 -704h-355zM533 226q38 0 72.5 10t62.5 28.5t48 44t29 56.5v95h-209q-73 0 -109.5 -27t-36.5 -85q0 -57 37.5 -89.5t105.5 -32.5zM429 1532q33 0 61.5 -11.5t48.5 -32t31.5 -49t11.5 -62.5q0 -33 -11.5 -61t-31.5 -49t-48.5 -32.5t-61.5 -11.5q-34 0 -62.5 11.5t-49 32.5
t-32 49t-11.5 61q0 34 11.5 62.5t32 49t49 32t62.5 11.5zM813 1532q34 0 62 -11.5t48.5 -32t32 -49t11.5 -62.5q0 -33 -11.5 -61t-32 -49t-48.5 -32.5t-62 -11.5t-62 11.5t-48.5 32.5t-32 49t-11.5 61q0 34 11.5 62.5t32 49t48.5 32t62 11.5z" />
    <glyph glyph-name="aring" unicode="&#xe5;" horiz-adv-x="1204" 
d="M745 123q-52 -68 -133.5 -103.5t-191.5 -35.5q-87 0 -155.5 25t-116 69.5t-72.5 106.5t-25 137q0 156 106 242t309 86h279v12q0 77 -51 119.5t-153 42.5q-68 0 -152.5 -21.5t-172.5 -64.5l-97 240q128 57 251 87.5t256 30.5q112 0 200 -26.5t149 -76.5t93 -123t32 -166
l1 -704h-355zM533 226q38 0 72.5 10t62.5 28.5t48 44t29 56.5v95h-209q-73 0 -109.5 -27t-36.5 -85q0 -57 37.5 -89.5t105.5 -32.5zM620 1631q50 0 93 -18.5t75.5 -50.5t51 -75t18.5 -92t-18.5 -92t-51 -75.5t-75.5 -51t-93 -18.5q-49 0 -92 18.5t-75.5 51t-51 75.5
t-18.5 92t18.5 92t51 75t75.5 50.5t92 18.5zM620 1482q-37 0 -62.5 -25.5t-25.5 -61.5q0 -37 25.5 -62.5t62.5 -25.5t63 25.5t26 62.5q0 36 -26 61.5t-63 25.5z" />
    <glyph glyph-name="ae" unicode="&#xe6;" horiz-adv-x="1930" 
d="M446 -17q-92 0 -165 24t-124 68t-78.5 106t-27.5 137q0 155 106.5 238.5t310.5 85.5h282v33q0 72 -55 110.5t-151 38.5q-71 0 -160 -21.5t-182 -64.5l-83 243q133 57 262 86t246 29q237 0 360 -118q131 116 335 116q135 0 242.5 -46t180.5 -130t109 -201.5t29 -261.5
h-773v-13q0 -41 22.5 -75t58.5 -58.5t81 -38t90 -13.5q71 0 136 27.5t119 81.5l190 -187q-86 -94 -205.5 -143t-270.5 -49q-155 0 -267 58t-178 166q-62 -111 -172.5 -169.5t-267.5 -58.5zM535 217q69 0 124 32.5t91 95.5v112h-208q-72 0 -112 -25.5t-40 -83.5
q0 -60 39 -95.5t106 -35.5zM1325 850q-42 0 -79.5 -14.5t-66.5 -42t-47 -66.5t-21 -87h410q0 48 -14 86.5t-40 66t-62 42.5t-80 15z" />
    <glyph glyph-name="ccedilla" unicode="&#xe7;" horiz-adv-x="1124" 
d="M829 688q-35 53 -86.5 82.5t-119.5 29.5q-47 0 -86.5 -19t-67.5 -53.5t-43.5 -82.5t-15.5 -107t15.5 -107.5t43.5 -83t67.5 -53.5t86.5 -19q69 0 121.5 30t84.5 93l270 -151q-58 -109 -165.5 -175.5t-253.5 -80.5l-25 -67q89 -20 126.5 -63.5t37.5 -98.5q0 -51 -21.5 -88
t-57 -60t-82 -34t-96.5 -11q-57 0 -114 10.5t-107 28.5l56 160q23 -8 49.5 -13t51.5 -5q36 0 58.5 12t22.5 31q0 24 -31.5 36t-76.5 12h-46l51 158q-98 18 -177.5 64t-135.5 115.5t-86.5 160.5t-30.5 198q0 126 40.5 228.5t114 175.5t177 113t229.5 40q166 0 291.5 -67
t195.5 -188z" />
    <glyph glyph-name="egrave" unicode="&#xe8;" horiz-adv-x="1207" 
d="M410 445q26 -91 89 -139.5t153 -48.5q69 0 134.5 27.5t119.5 81.5l189 -187q-84 -92 -203 -142t-271 -50q-133 0 -239.5 39.5t-181 111.5t-114.5 173.5t-40 225.5q0 126 41 228.5t115.5 175.5t178.5 113t231 40q142 0 249 -45.5t176.5 -130.5t101 -204.5t21.5 -268.5
h-750zM615 844q-43 0 -78 -15t-62 -42.5t-45.5 -65.5t-26.5 -85h407q0 47 -14 85.5t-40 65.5t-61.5 42t-79.5 15zM526 1540l213 -323l-248 -20l-263 232z" />
    <glyph glyph-name="eacute" unicode="&#xe9;" horiz-adv-x="1207" 
d="M410 445q26 -91 89 -139.5t153 -48.5q69 0 134.5 27.5t119.5 81.5l189 -187q-84 -92 -203 -142t-271 -50q-133 0 -239.5 39.5t-181 111.5t-114.5 173.5t-40 225.5q0 126 41 228.5t115.5 175.5t178.5 113t231 40q142 0 249 -45.5t176.5 -130.5t101 -204.5t21.5 -268.5
h-750zM615 844q-43 0 -78 -15t-62 -42.5t-45.5 -65.5t-26.5 -85h407q0 47 -14 85.5t-40 65.5t-61.5 42t-79.5 15zM682 1540l297 -111l-292 -232l-246 20z" />
    <glyph glyph-name="ecircumflex" unicode="&#xea;" horiz-adv-x="1207" 
d="M410 445q26 -91 89 -139.5t153 -48.5q69 0 134.5 27.5t119.5 81.5l189 -187q-84 -92 -203 -142t-271 -50q-133 0 -239.5 39.5t-181 111.5t-114.5 173.5t-40 225.5q0 126 41 228.5t115.5 175.5t178.5 113t231 40q142 0 249 -45.5t176.5 -130.5t101 -204.5t21.5 -268.5
h-750zM615 844q-43 0 -78 -15t-62 -42.5t-45.5 -65.5t-26.5 -85h407q0 47 -14 85.5t-40 65.5t-61.5 42t-79.5 15zM444 1525h318l219 -305h-258l-120 134l-120 -134h-258z" />
    <glyph glyph-name="edieresis" unicode="&#xeb;" horiz-adv-x="1207" 
d="M410 445q26 -91 89 -139.5t153 -48.5q69 0 134.5 27.5t119.5 81.5l189 -187q-84 -92 -203 -142t-271 -50q-133 0 -239.5 39.5t-181 111.5t-114.5 173.5t-40 225.5q0 126 41 228.5t115.5 175.5t178.5 113t231 40q142 0 249 -45.5t176.5 -130.5t101 -204.5t21.5 -268.5
h-750zM615 844q-43 0 -78 -15t-62 -42.5t-45.5 -65.5t-26.5 -85h407q0 47 -14 85.5t-40 65.5t-61.5 42t-79.5 15zM412 1532q33 0 61.5 -11.5t48.5 -32t31.5 -49t11.5 -62.5q0 -33 -11.5 -61t-31.5 -49t-48.5 -32.5t-61.5 -11.5q-34 0 -62.5 11.5t-49 32.5t-32 49t-11.5 61
q0 34 11.5 62.5t32 49t49 32t62.5 11.5zM796 1532q34 0 62 -11.5t48.5 -32t32 -49t11.5 -62.5q0 -33 -11.5 -61t-32 -49t-48.5 -32.5t-62 -11.5t-62 11.5t-48.5 32.5t-32 49t-11.5 61q0 34 11.5 62.5t32 49t48.5 32t62 11.5z" />
    <glyph glyph-name="igrave" unicode="&#xec;" horiz-adv-x="629" 
d="M134 1081h361v-1081h-361v1081zM236 1540l213 -323l-248 -20l-263 232z" />
    <glyph glyph-name="iacute" unicode="&#xed;" horiz-adv-x="629" 
d="M134 1081h361v-1081h-361v1081zM393 1540l297 -111l-292 -232l-246 20z" />
    <glyph glyph-name="icircumflex" unicode="&#xee;" horiz-adv-x="629" 
d="M134 1081h361v-1081h-361v1081zM156 1525h318l219 -305h-258l-120 134l-120 -134h-258z" />
    <glyph glyph-name="idieresis" unicode="&#xef;" horiz-adv-x="629" 
d="M134 1081h361v-1081h-361v1081zM132 1532q33 0 61.5 -11.5t48.5 -32t31.5 -49t11.5 -62.5q0 -33 -11.5 -61t-31.5 -49t-48.5 -32.5t-61.5 -11.5q-34 0 -62.5 11.5t-49 32.5t-32 49t-11.5 61q0 34 11.5 62.5t32 49t49 32t62.5 11.5zM500 1532q34 0 62 -11.5t48.5 -32
t32 -49t11.5 -62.5q0 -33 -11.5 -61t-32 -49t-48.5 -32.5t-62 -11.5t-62 11.5t-48.5 32.5t-32 49t-11.5 61q0 34 11.5 62.5t32 49t48.5 32t62 11.5z" />
    <glyph glyph-name="eth" unicode="&#xf0;" horiz-adv-x="1212" 
d="M176 1097l279 127q-59 37 -123 69t-133 59l242 148q79 -30 150 -68.5t135 -83.5l284 130l67 -140l-217 -99q146 -138 226.5 -308.5t80.5 -357.5q0 -134 -42.5 -243t-121 -186t-189.5 -119t-248 -42q-120 0 -217 33.5t-165.5 94.5t-106 148t-37.5 193q0 100 32 181.5
t91.5 139t143.5 88.5t187 31q48 0 94.5 -8t87.5 -23t75.5 -36t58.5 -48q-8 91 -64.5 178t-147.5 165l-355 -161zM580 651q-89 0 -141.5 -48.5t-52.5 -132.5q0 -43 14 -77.5t39.5 -59t62 -38t80.5 -13.5q45 0 81.5 13t62.5 37t40 57.5t14 75.5t-14 76.5t-40 58.5t-63 37.5
t-83 13.5z" />
    <glyph glyph-name="ntilde" unicode="&#xf1;" horiz-adv-x="1349" 
d="M884 581q0 91 -48.5 143.5t-132.5 52.5q-45 0 -82 -16.5t-63.5 -45t-42.5 -69t-19 -88.5v-558h-362v1081h362v-174q57 94 147 141.5t209 47.5q89 0 161.5 -29t124.5 -82.5t80 -130t28 -171.5v-683h-362v581zM1079 1512q0 -76 -11 -134.5t-34.5 -99t-60.5 -61.5t-90 -21
q-45 0 -84 14t-72.5 30.5t-61 30.5t-48.5 14q-31 0 -43 -22t-13 -61h-203q0 75 11 134t34.5 99.5t61 62t90.5 21.5q45 0 84 -14t72 -30.5t60.5 -30.5t48.5 -14q32 0 44 22t13 60h202z" />
    <glyph glyph-name="ograve" unicode="&#xf2;" horiz-adv-x="1278" 
d="M639 1094q134 0 243.5 -39.5t187 -111.5t120 -174t42.5 -227t-42.5 -227.5t-120 -175t-187 -112.5t-243.5 -40t-243.5 40t-187 112.5t-120 175t-42.5 227.5t42.5 227t120 174t187 111.5t243.5 39.5zM639 806q-51 0 -93.5 -19.5t-72.5 -55t-46.5 -85t-16.5 -109.5
t16.5 -110t46.5 -85t72.5 -54.5t93.5 -19.5t93 19.5t72 54.5t46.5 85t16.5 110t-16.5 109.5t-46.5 85t-72 55t-93 19.5zM560 1540l213 -323l-248 -20l-263 232z" />
    <glyph glyph-name="oacute" unicode="&#xf3;" horiz-adv-x="1278" 
d="M639 1094q134 0 243.5 -39.5t187 -111.5t120 -174t42.5 -227t-42.5 -227.5t-120 -175t-187 -112.5t-243.5 -40t-243.5 40t-187 112.5t-120 175t-42.5 227.5t42.5 227t120 174t187 111.5t243.5 39.5zM639 806q-51 0 -93.5 -19.5t-72.5 -55t-46.5 -85t-16.5 -109.5
t16.5 -110t46.5 -85t72.5 -54.5t93.5 -19.5t93 19.5t72 54.5t46.5 85t16.5 110t-16.5 109.5t-46.5 85t-72 55t-93 19.5zM717 1540l297 -111l-292 -232l-246 20z" />
    <glyph glyph-name="ocircumflex" unicode="&#xf4;" horiz-adv-x="1278" 
d="M639 1094q134 0 243.5 -39.5t187 -111.5t120 -174t42.5 -227t-42.5 -227.5t-120 -175t-187 -112.5t-243.5 -40t-243.5 40t-187 112.5t-120 175t-42.5 227.5t42.5 227t120 174t187 111.5t243.5 39.5zM639 806q-51 0 -93.5 -19.5t-72.5 -55t-46.5 -85t-16.5 -109.5
t16.5 -110t46.5 -85t72.5 -54.5t93.5 -19.5t93 19.5t72 54.5t46.5 85t16.5 110t-16.5 109.5t-46.5 85t-72 55t-93 19.5zM480 1525h318l219 -305h-258l-120 134l-120 -134h-258z" />
    <glyph glyph-name="otilde" unicode="&#xf5;" horiz-adv-x="1278" 
d="M639 1094q134 0 243.5 -39.5t187 -111.5t120 -174t42.5 -227t-42.5 -227.5t-120 -175t-187 -112.5t-243.5 -40t-243.5 40t-187 112.5t-120 175t-42.5 227.5t42.5 227t120 174t187 111.5t243.5 39.5zM639 806q-51 0 -93.5 -19.5t-72.5 -55t-46.5 -85t-16.5 -109.5
t16.5 -110t46.5 -85t72.5 -54.5t93.5 -19.5t93 19.5t72 54.5t46.5 85t16.5 110t-16.5 109.5t-46.5 85t-72 55t-93 19.5zM1009 1512q0 -76 -11 -134.5t-34.5 -99t-60.5 -61.5t-90 -21q-45 0 -84 14t-72.5 30.5t-61 30.5t-48.5 14q-31 0 -43 -22t-13 -61h-203q0 75 11 134
t34.5 99.5t61 62t90.5 21.5q45 0 84 -14t72 -30.5t60.5 -30.5t48.5 -14q32 0 44 22t13 60h202z" />
    <glyph glyph-name="odieresis" unicode="&#xf6;" horiz-adv-x="1278" 
d="M639 1094q134 0 243.5 -39.5t187 -111.5t120 -174t42.5 -227t-42.5 -227.5t-120 -175t-187 -112.5t-243.5 -40t-243.5 40t-187 112.5t-120 175t-42.5 227.5t42.5 227t120 174t187 111.5t243.5 39.5zM639 806q-51 0 -93.5 -19.5t-72.5 -55t-46.5 -85t-16.5 -109.5
t16.5 -110t46.5 -85t72.5 -54.5t93.5 -19.5t93 19.5t72 54.5t46.5 85t16.5 110t-16.5 109.5t-46.5 85t-72 55t-93 19.5zM448 1532q33 0 61.5 -11.5t48.5 -32t31.5 -49t11.5 -62.5q0 -33 -11.5 -61t-31.5 -49t-48.5 -32.5t-61.5 -11.5q-34 0 -62.5 11.5t-49 32.5t-32 49
t-11.5 61q0 34 11.5 62.5t32 49t49 32t62.5 11.5zM832 1532q34 0 62 -11.5t48.5 -32t32 -49t11.5 -62.5q0 -33 -11.5 -61t-32 -49t-48.5 -32.5t-62 -11.5t-62 11.5t-48.5 32.5t-32 49t-11.5 61q0 34 11.5 62.5t32 49t48.5 32t62 11.5z" />
    <glyph glyph-name="divide" unicode="&#xf7;" horiz-adv-x="1022" 
d="M509 454q34 0 63 -11.5t50 -32.5t32.5 -50t11.5 -64q0 -34 -11.5 -63t-32.5 -50t-50 -33t-63 -12t-63.5 12t-50.5 33t-33 50t-12 63q0 35 12 64t33 50t50.5 32.5t63.5 11.5zM64 768h894v-228h-894v228zM509 1171q34 0 63 -11.5t50 -32.5t32.5 -50t11.5 -64
q0 -34 -11.5 -63t-32.5 -50t-50 -33t-63 -12t-63.5 12t-50.5 33t-33 50t-12 63q0 35 12 64t33 50t50.5 32.5t63.5 11.5z" />
    <glyph glyph-name="oslash" unicode="&#xf8;" horiz-adv-x="1278" 
d="M257 99q-100 73 -155.5 185.5t-55.5 257.5q0 125 42.5 227t120 174t187 111.5t243.5 39.5q145 0 262 -47l141 207h171l-187 -275q98 -73 152 -184t54 -253q0 -125 -42.5 -227.5t-120 -175t-187 -112.5t-243.5 -40q-71 0 -135 11.5t-121 33.5l-139 -205h-171zM639 835
q-57 0 -103 -21.5t-79 -60.5t-51 -94t-18 -122q0 -108 44 -181l311 458q-46 21 -104 21zM891 537q0 53 -11.5 98t-32.5 81l-310 -457q47 -21 102 -21q56 0 102.5 21.5t79.5 60.5t51.5 94.5t18.5 122.5z" />
    <glyph glyph-name="ugrave" unicode="&#xf9;" horiz-adv-x="1329" 
d="M464 500q0 -91 46.5 -143.5t125.5 -52.5q46 1 82.5 19.5t62 50.5t39 76.5t13.5 96.5v534h362v-1081h-362v173q-56 -93 -143 -140.5t-202 -47.5q-87 0 -158 29t-122 83t-78.5 130.5t-27.5 170.5v683h362v-581zM585 1540l213 -323l-248 -20l-263 232z" />
    <glyph glyph-name="uacute" unicode="&#xfa;" horiz-adv-x="1329" 
d="M464 500q0 -91 46.5 -143.5t125.5 -52.5q46 1 82.5 19.5t62 50.5t39 76.5t13.5 96.5v534h362v-1081h-362v173q-56 -93 -143 -140.5t-202 -47.5q-87 0 -158 29t-122 83t-78.5 130.5t-27.5 170.5v683h362v-581zM743 1540l297 -111l-292 -232l-246 20z" />
    <glyph glyph-name="ucircumflex" unicode="&#xfb;" horiz-adv-x="1329" 
d="M464 500q0 -91 46.5 -143.5t125.5 -52.5q46 1 82.5 19.5t62 50.5t39 76.5t13.5 96.5v534h362v-1081h-362v173q-56 -93 -143 -140.5t-202 -47.5q-87 0 -158 29t-122 83t-78.5 130.5t-27.5 170.5v683h362v-581zM506 1525h318l219 -305h-258l-120 134l-120 -134h-258z" />
    <glyph glyph-name="udieresis" unicode="&#xfc;" horiz-adv-x="1329" 
d="M464 500q0 -91 46.5 -143.5t125.5 -52.5q46 1 82.5 19.5t62 50.5t39 76.5t13.5 96.5v534h362v-1081h-362v173q-56 -93 -143 -140.5t-202 -47.5q-87 0 -158 29t-122 83t-78.5 130.5t-27.5 170.5v683h362v-581zM474 1532q33 0 61.5 -11.5t48.5 -32t31.5 -49t11.5 -62.5
q0 -33 -11.5 -61t-31.5 -49t-48.5 -32.5t-61.5 -11.5q-34 0 -62.5 11.5t-49 32.5t-32 49t-11.5 61q0 34 11.5 62.5t32 49t49 32t62.5 11.5zM858 1532q34 0 62 -11.5t48.5 -32t32 -49t11.5 -62.5q0 -33 -11.5 -61t-32 -49t-48.5 -32.5t-62 -11.5t-62 11.5t-48.5 32.5t-32 49
t-11.5 61q0 34 11.5 62.5t32 49t48.5 32t62 11.5z" />
    <glyph glyph-name="yacute" unicode="&#xfd;" horiz-adv-x="1174" 
d="M726 -106q-62 -152 -167 -225t-259 -73q-94 0 -172 27t-154 85l152 246q37 -31 71 -45.5t72 -14.5q89 0 130 83l24 49l-449 1055h373l257 -702l225 702h361zM667 1540l297 -111l-292 -232l-246 20z" />
    <glyph glyph-name="thorn" unicode="&#xfe;" horiz-adv-x="1372" 
d="M506 942q55 74 135 113t181 39q114 0 207 -40t159 -113t102 -176.5t36 -229.5q0 -124 -35 -225t-100 -173t-156.5 -111t-204.5 -39q-104 0 -186 39.5t-138 114.5v-529h-362v1872h362v-542zM733 814q-51 0 -92.5 -19.5t-71.5 -55t-46.5 -85t-16.5 -109.5t16.5 -110
t46.5 -85.5t71.5 -55t92.5 -19.5t93 19.5t72 55.5t46.5 85.5t16.5 109.5q0 59 -16.5 108.5t-46.5 85t-72 55.5t-93 20z" />
    <glyph glyph-name="ydieresis" unicode="&#xff;" horiz-adv-x="1174" 
d="M726 -106q-62 -152 -167 -225t-259 -73q-94 0 -172 27t-154 85l152 246q37 -31 71 -45.5t72 -14.5q89 0 130 83l24 49l-449 1055h373l257 -702l225 702h361zM398 1532q33 0 61.5 -11.5t48.5 -32t31.5 -49t11.5 -62.5q0 -33 -11.5 -61t-31.5 -49t-48.5 -32.5t-61.5 -11.5
q-34 0 -62.5 11.5t-49 32.5t-32 49t-11.5 61q0 34 11.5 62.5t32 49t49 32t62.5 11.5zM782 1532q34 0 62 -11.5t48.5 -32t32 -49t11.5 -62.5q0 -33 -11.5 -61t-32 -49t-48.5 -32.5t-62 -11.5t-62 11.5t-48.5 32.5t-32 49t-11.5 61q0 34 11.5 62.5t32 49t48.5 32t62 11.5z" />
    <glyph glyph-name="Amacron" unicode="&#x100;" horiz-adv-x="1548" 
d="M591 1400h381l587 -1400h-397l-95 248h-599l-96 -248h-383zM961 527l-190 501l-195 -501h385zM424 1726h701v-209h-701v209z" />
    <glyph glyph-name="amacron" unicode="&#x101;" horiz-adv-x="1204" 
d="M745 123q-52 -68 -133.5 -103.5t-191.5 -35.5q-87 0 -155.5 25t-116 69.5t-72.5 106.5t-25 137q0 156 106 242t309 86h279v12q0 77 -51 119.5t-153 42.5q-68 0 -152.5 -21.5t-172.5 -64.5l-97 240q128 57 251 87.5t256 30.5q112 0 200 -26.5t149 -76.5t93 -123t32 -166
l1 -704h-355zM533 226q38 0 72.5 10t62.5 28.5t48 44t29 56.5v95h-209q-73 0 -109.5 -27t-36.5 -85q0 -57 37.5 -89.5t105.5 -32.5zM310 1487h620v-209h-620v209z" />
    <glyph glyph-name="Abreve" unicode="&#x102;" horiz-adv-x="1548" 
d="M591 1400h381l587 -1400h-397l-95 248h-599l-96 -248h-383zM961 527l-190 501l-195 -501h385zM666 1829q4 -51 33.5 -82t75.5 -31q45 0 75 31t34 82h224q-3 -73 -28.5 -132t-69 -101t-103.5 -65t-132 -23t-132 23t-104 65t-69.5 101t-28.5 132h225z" />
    <glyph glyph-name="abreve" unicode="&#x103;" horiz-adv-x="1204" 
d="M745 123q-52 -68 -133.5 -103.5t-191.5 -35.5q-87 0 -155.5 25t-116 69.5t-72.5 106.5t-25 137q0 156 106 242t309 86h279v12q0 77 -51 119.5t-153 42.5q-68 0 -152.5 -21.5t-172.5 -64.5l-97 240q128 57 251 87.5t256 30.5q112 0 200 -26.5t149 -76.5t93 -123t32 -166
l1 -704h-355zM533 226q38 0 72.5 10t62.5 28.5t48 44t29 56.5v95h-209q-73 0 -109.5 -27t-36.5 -85q0 -57 37.5 -89.5t105.5 -32.5zM512 1521q4 -51 33.5 -82t75.5 -31q45 0 75 31t34 82h224q-3 -73 -28.5 -132t-69 -101t-103.5 -65t-132 -23t-132 23t-104 65t-69.5 101
t-28.5 132h225z" />
    <glyph glyph-name="Aogonek" unicode="&#x104;" horiz-adv-x="1548" 
d="M591 1400h381l587 -1400h-397l-95 248h-599l-96 -248h-383zM961 527l-190 501l-195 -501h385zM1462 0q-72 -53 -112.5 -99.5t-40.5 -94.5q0 -28 12.5 -40.5t32.5 -12.5q12 0 27 4t30 12l58 -190q-44 -20 -95 -32.5t-101 -12.5q-55 0 -96.5 15.5t-70 43.5t-43 67t-14.5 86
q0 84 49.5 170t158.5 164z" />
    <glyph glyph-name="aogonek" unicode="&#x105;" horiz-adv-x="1204" 
d="M745 123q-52 -68 -133.5 -103.5t-191.5 -35.5q-87 0 -155.5 25t-116 69.5t-72.5 106.5t-25 137q0 156 106 242t309 86h279v12q0 77 -51 119.5t-153 42.5q-68 0 -152.5 -21.5t-172.5 -64.5l-97 240q128 57 251 87.5t256 30.5q112 0 200 -26.5t149 -76.5t93 -123t32 -166
l1 -704h-355zM533 226q38 0 72.5 10t62.5 28.5t48 44t29 56.5v95h-209q-73 0 -109.5 -27t-36.5 -85q0 -57 37.5 -89.5t105.5 -32.5zM1033 0q-72 -53 -112.5 -99.5t-40.5 -94.5q0 -28 12.5 -40.5t32.5 -12.5q12 0 27 4t30 12l58 -190q-44 -20 -95 -32.5t-101 -12.5
q-55 0 -96.5 15.5t-70 43.5t-43 67t-14.5 86q0 84 49.5 170t158.5 164z" />
    <glyph glyph-name="Cacute" unicode="&#x106;" horiz-adv-x="1382" 
d="M1146 926q-34 43 -75 77.5t-86 59t-92 37.5t-93 13q-80 0 -148.5 -31t-118.5 -85t-78.5 -128t-28.5 -161t28.5 -161t78.5 -129t118.5 -86t148.5 -31q44 0 89.5 11.5t90.5 33t87.5 52t78.5 68.5l217 -229q-56 -60 -124.5 -108.5t-144 -83t-155.5 -53t-158 -18.5
q-158 0 -293 55.5t-233.5 153.5t-154 231.5t-55.5 289.5q0 154 56.5 286t157 228.5t238 151t298.5 54.5q78 0 156.5 -17t152 -48.5t140 -76.5t118.5 -101zM869 1844l297 -111l-292 -232l-246 20z" />
    <glyph glyph-name="cacute" unicode="&#x107;" horiz-adv-x="1124" 
d="M829 688q-35 53 -86.5 82.5t-119.5 29.5q-47 0 -86.5 -19t-67.5 -53.5t-43.5 -82.5t-15.5 -107t15.5 -107.5t43.5 -83t67.5 -53.5t86.5 -19q69 0 121.5 30t84.5 93l270 -151q-66 -125 -193 -192.5t-301 -67.5q-126 0 -229 39.5t-176.5 111.5t-113.5 173.5t-40 225.5
q0 126 40.5 228.5t114 175.5t177 113t229.5 40q166 0 291.5 -67t195.5 -188zM679 1540l297 -111l-292 -232l-246 20z" />
    <glyph glyph-name="Ccircumflex" unicode="&#x108;" horiz-adv-x="1382" 
d="M1146 926q-34 43 -75 77.5t-86 59t-92 37.5t-93 13q-80 0 -148.5 -31t-118.5 -85t-78.5 -128t-28.5 -161t28.5 -161t78.5 -129t118.5 -86t148.5 -31q44 0 89.5 11.5t90.5 33t87.5 52t78.5 68.5l217 -229q-56 -60 -124.5 -108.5t-144 -83t-155.5 -53t-158 -18.5
q-158 0 -293 55.5t-233.5 153.5t-154 231.5t-55.5 289.5q0 154 56.5 286t157 228.5t238 151t298.5 54.5q78 0 156.5 -17t152 -48.5t140 -76.5t118.5 -101zM651 1818h318l219 -305h-258l-120 134l-120 -134h-258z" />
    <glyph glyph-name="ccircumflex" unicode="&#x109;" horiz-adv-x="1124" 
d="M829 688q-35 53 -86.5 82.5t-119.5 29.5q-47 0 -86.5 -19t-67.5 -53.5t-43.5 -82.5t-15.5 -107t15.5 -107.5t43.5 -83t67.5 -53.5t86.5 -19q69 0 121.5 30t84.5 93l270 -151q-66 -125 -193 -192.5t-301 -67.5q-126 0 -229 39.5t-176.5 111.5t-113.5 173.5t-40 225.5
q0 126 40.5 228.5t114 175.5t177 113t229.5 40q166 0 291.5 -67t195.5 -188zM442 1525h318l219 -305h-258l-120 134l-120 -134h-258z" />
    <glyph glyph-name="Cdotaccent" unicode="&#x10a;" horiz-adv-x="1382" 
d="M1146 926q-34 43 -75 77.5t-86 59t-92 37.5t-93 13q-80 0 -148.5 -31t-118.5 -85t-78.5 -128t-28.5 -161t28.5 -161t78.5 -129t118.5 -86t148.5 -31q44 0 89.5 11.5t90.5 33t87.5 52t78.5 68.5l217 -229q-56 -60 -124.5 -108.5t-144 -83t-155.5 -53t-158 -18.5
q-158 0 -293 55.5t-233.5 153.5t-154 231.5t-55.5 289.5q0 154 56.5 286t157 228.5t238 151t298.5 54.5q78 0 156.5 -17t152 -48.5t140 -76.5t118.5 -101zM809 1890q42 0 76.5 -14t60 -39t39.5 -60t14 -77t-14 -76.5t-39.5 -60t-60 -39.5t-76.5 -14t-76.5 14t-60 39.5
t-39.5 60t-14 76.5t14 77t39.5 60t60 39t76.5 14z" />
    <glyph glyph-name="cdotaccent" unicode="&#x10b;" horiz-adv-x="1124" 
d="M829 688q-35 53 -86.5 82.5t-119.5 29.5q-47 0 -86.5 -19t-67.5 -53.5t-43.5 -82.5t-15.5 -107t15.5 -107.5t43.5 -83t67.5 -53.5t86.5 -19q69 0 121.5 30t84.5 93l270 -151q-66 -125 -193 -192.5t-301 -67.5q-126 0 -229 39.5t-176.5 111.5t-113.5 173.5t-40 225.5
q0 126 40.5 228.5t114 175.5t177 113t229.5 40q166 0 291.5 -67t195.5 -188zM597 1580q42 0 77 -14t60.5 -39t39.5 -60t14 -77t-14 -76.5t-39.5 -60t-60.5 -39.5t-77 -14t-76.5 14t-60 39.5t-39.5 60t-14 76.5t14 77t39.5 60t60 39t76.5 14z" />
    <glyph glyph-name="Ccaron" unicode="&#x10c;" horiz-adv-x="1382" 
d="M1146 926q-34 43 -75 77.5t-86 59t-92 37.5t-93 13q-80 0 -148.5 -31t-118.5 -85t-78.5 -128t-28.5 -161t28.5 -161t78.5 -129t118.5 -86t148.5 -31q44 0 89.5 11.5t90.5 33t87.5 52t78.5 68.5l217 -229q-56 -60 -124.5 -108.5t-144 -83t-155.5 -53t-158 -18.5
q-158 0 -293 55.5t-233.5 153.5t-154 231.5t-55.5 289.5q0 154 56.5 286t157 228.5t238 151t298.5 54.5q78 0 156.5 -17t152 -48.5t140 -76.5t118.5 -101zM945 1513h-318l-219 305h258l120 -133l120 133h258z" />
    <glyph glyph-name="ccaron" unicode="&#x10d;" horiz-adv-x="1124" 
d="M829 688q-35 53 -86.5 82.5t-119.5 29.5q-47 0 -86.5 -19t-67.5 -53.5t-43.5 -82.5t-15.5 -107t15.5 -107.5t43.5 -83t67.5 -53.5t86.5 -19q69 0 121.5 30t84.5 93l270 -151q-66 -125 -193 -192.5t-301 -67.5q-126 0 -229 39.5t-176.5 111.5t-113.5 173.5t-40 225.5
q0 126 40.5 228.5t114 175.5t177 113t229.5 40q166 0 291.5 -67t195.5 -188zM760 1220h-318l-219 305h258l120 -133l120 133h258z" />
    <glyph glyph-name="Dcaron" unicode="&#x10e;" horiz-adv-x="1530" 
d="M738 1400q167 0 304.5 -50.5t235.5 -143t152 -221t54 -284.5t-55 -285.5t-154.5 -221.5t-239.5 -143t-310 -51h-591v1400h604zM748 296q78 0 144 29t113 82t73.5 126.5t26.5 163.5q0 91 -28 165.5t-77.5 128t-118 83t-150.5 29.5h-225v-807h242zM849 1512h-318l-219 305
h258l120 -133l120 133h258z" />
    <glyph glyph-name="dcaron" unicode="&#x10f;" 
d="M868 137q-57 -73 -136.5 -112t-180.5 -39q-114 0 -207.5 40.5t-159.5 114t-102 176.5t-36 229q0 124 35.5 225.5t100.5 173.5t156.5 111t203.5 39q104 0 186 -39.5t140 -112.5v541h362v-1484h-362v137zM640 807q-51 0 -93.5 -20t-72.5 -55.5t-47 -85.5t-17 -110
t17 -109.5t47 -85t72 -55t94 -19.5q51 0 93 19.5t72 55t46.5 85t16.5 109.5t-16.5 110t-46.5 86t-72 55.5t-93 19.5zM1383 1484h276l-60 -437h-216v437z" />
    <glyph glyph-name="Dcroat" unicode="&#x110;" horiz-adv-x="1530" 
d="M2 785h132v615h604q167 0 304.5 -50.5t235.5 -143t152 -221.5t54 -285t-55 -285t-155 -221t-240 -143t-310 -51h-590v616h-132v169zM747 297q79 0 144.5 29t113 81.5t74 126t26.5 163.5t-28 165t-78 128.5t-118.5 83t-150.5 29.5h-224v-318h317v-169h-317v-319h241z" />
    <glyph glyph-name="dcroat" unicode="&#x111;" horiz-adv-x="1373" 
d="M524 1325h344v159h361v-159h129v-173h-129v-1153h-361v137q-57 -72 -138 -111t-181 -39q-113 0 -206 38t-159 107t-102 166t-36 216q0 116 35.5 210.5t100 162t155.5 104.5t202 37q103 0 186.5 -39.5t142.5 -111.5v276h-344v173zM640 739q-51 0 -93.5 -17t-73 -48
t-47 -74.5t-16.5 -96.5t16.5 -96.5t47 -74.5t73 -48t93.5 -17t93 17t72 48t46.5 74.5t16.5 96.5t-16.5 96.5t-46.5 74.5t-72 48t-93 17z" />
    <glyph glyph-name="Emacron" unicode="&#x112;" horiz-adv-x="1352" 
d="M134 1400h1110v-292h-738v-260h666v-291h-666v-266h758v-291h-1130v1400zM347 1727h701v-209h-701v209z" />
    <glyph glyph-name="emacron" unicode="&#x113;" horiz-adv-x="1207" 
d="M410 445q26 -91 89 -139.5t153 -48.5q69 0 134.5 27.5t119.5 81.5l189 -187q-84 -92 -203 -142t-271 -50q-133 0 -239.5 39.5t-181 111.5t-114.5 173.5t-40 225.5q0 126 41 228.5t115.5 175.5t178.5 113t231 40q142 0 249 -45.5t176.5 -130.5t101 -204.5t21.5 -268.5
h-750zM615 844q-43 0 -78 -15t-62 -42.5t-45.5 -65.5t-26.5 -85h407q0 47 -14 85.5t-40 65.5t-61.5 42t-79.5 15zM292 1487h620v-209h-620v209z" />
    <glyph glyph-name="Ebreve" unicode="&#x114;" horiz-adv-x="1352" 
d="M134 1400h1110v-292h-738v-260h666v-291h-666v-266h758v-291h-1130v1400zM589 1830q4 -51 33.5 -82t75.5 -31q45 0 75 31t34 82h224q-3 -73 -28.5 -132t-69 -101t-103.5 -65t-132 -23t-132 23t-104 65t-69.5 101t-28.5 132h225z" />
    <glyph glyph-name="ebreve" unicode="&#x115;" horiz-adv-x="1207" 
d="M410 445q26 -91 89 -139.5t153 -48.5q69 0 134.5 27.5t119.5 81.5l189 -187q-84 -92 -203 -142t-271 -50q-133 0 -239.5 39.5t-181 111.5t-114.5 173.5t-40 225.5q0 126 41 228.5t115.5 175.5t178.5 113t231 40q142 0 249 -45.5t176.5 -130.5t101 -204.5t21.5 -268.5
h-750zM615 844q-43 0 -78 -15t-62 -42.5t-45.5 -65.5t-26.5 -85h407q0 47 -14 85.5t-40 65.5t-61.5 42t-79.5 15zM494 1521q4 -51 33.5 -82t75.5 -31q45 0 75 31t34 82h224q-3 -73 -28.5 -132t-69 -101t-103.5 -65t-132 -23t-132 23t-104 65t-69.5 101t-28.5 132h225z" />
    <glyph glyph-name="Edotaccent" unicode="&#x116;" horiz-adv-x="1352" 
d="M134 1400h1110v-292h-738v-260h666v-291h-666v-266h758v-291h-1130v1400zM697 1890q42 0 76.5 -14t60 -39t39.5 -60t14 -77t-14 -76.5t-39.5 -60t-60 -39.5t-76.5 -14t-76.5 14t-60 39.5t-39.5 60t-14 76.5t14 77t39.5 60t60 39t76.5 14z" />
    <glyph glyph-name="edotaccent" unicode="&#x117;" horiz-adv-x="1207" 
d="M410 445q26 -91 89 -139.5t153 -48.5q69 0 134.5 27.5t119.5 81.5l189 -187q-84 -92 -203 -142t-271 -50q-133 0 -239.5 39.5t-181 111.5t-114.5 173.5t-40 225.5q0 126 41 228.5t115.5 175.5t178.5 113t231 40q142 0 249 -45.5t176.5 -130.5t101 -204.5t21.5 -268.5
h-750zM615 844q-43 0 -78 -15t-62 -42.5t-45.5 -65.5t-26.5 -85h407q0 47 -14 85.5t-40 65.5t-61.5 42t-79.5 15zM599 1580q42 0 77 -14t60.5 -39t39.5 -60t14 -77t-14 -76.5t-39.5 -60t-60.5 -39.5t-77 -14t-76.5 14t-60 39.5t-39.5 60t-14 76.5t14 77t39.5 60t60 39
t76.5 14z" />
    <glyph glyph-name="Eogonek" unicode="&#x118;" horiz-adv-x="1352" 
d="M134 1400h1110v-292h-738v-260h666v-291h-666v-266h758v-291h-1130v1400zM1265 0q-72 -53 -112.5 -99.5t-40.5 -94.5q0 -28 12.5 -40.5t32.5 -12.5q12 0 27 4t30 12l58 -190q-44 -20 -95 -32.5t-101 -12.5q-55 0 -96.5 15.5t-70 43.5t-43 67t-14.5 86q0 84 49.5 170
t158.5 164z" />
    <glyph glyph-name="eogonek" unicode="&#x119;" horiz-adv-x="1207" 
d="M410 445q26 -91 89 -139.5t153 -48.5q69 0 134.5 27.5t119.5 81.5l189 -187q-84 -92 -203 -142t-271 -50q-133 0 -239.5 39.5t-181 111.5t-114.5 173.5t-40 225.5q0 126 41 228.5t115.5 175.5t178.5 113t231 40q142 0 249 -45.5t176.5 -130.5t101 -204.5t21.5 -268.5
h-750zM615 844q-43 0 -78 -15t-62 -42.5t-45.5 -65.5t-26.5 -85h407q0 47 -14 85.5t-40 65.5t-61.5 42t-79.5 15zM1031 120q-40 -36 -73 -76.5t-57 -81t-37 -79t-13 -69.5q0 -61 44 -61q28 0 57 16l59 -190q-45 -20 -92 -32.5t-100 -12.5q-49 0 -90.5 13t-72.5 40
t-48.5 67.5t-17.5 95.5q0 54 19 104.5t58.5 101.5t100 103.5t143.5 110.5z" />
    <glyph glyph-name="Ecaron" unicode="&#x11a;" horiz-adv-x="1352" 
d="M134 1400h1110v-292h-738v-260h666v-291h-666v-266h758v-291h-1130v1400zM833 1513h-318l-219 305h258l120 -133l120 133h258z" />
    <glyph glyph-name="ecaron" unicode="&#x11b;" horiz-adv-x="1207" 
d="M410 445q26 -91 89 -139.5t153 -48.5q69 0 134.5 27.5t119.5 81.5l189 -187q-84 -92 -203 -142t-271 -50q-133 0 -239.5 39.5t-181 111.5t-114.5 173.5t-40 225.5q0 126 41 228.5t115.5 175.5t178.5 113t231 40q142 0 249 -45.5t176.5 -130.5t101 -204.5t21.5 -268.5
h-750zM615 844q-43 0 -78 -15t-62 -42.5t-45.5 -65.5t-26.5 -85h407q0 47 -14 85.5t-40 65.5t-61.5 42t-79.5 15zM762 1220h-318l-219 305h258l120 -133l120 133h258z" />
    <glyph glyph-name="Gcircumflex" unicode="&#x11c;" horiz-adv-x="1484" 
d="M1187 958q-37 36 -81.5 65t-92.5 49t-97.5 31t-97.5 11q-83 0 -154.5 -31.5t-124 -87t-82.5 -131t-30 -162.5q0 -89 30 -165t83 -132t125 -87.5t156 -31.5q51 0 111.5 17t121.5 46v198h-340v272h668v-661q-57 -40 -128 -74t-148 -58.5t-156.5 -38t-153.5 -13.5
q-161 0 -298.5 55.5t-238 153t-157.5 230.5t-57 289q0 103 26.5 197t75.5 174t118.5 145t155.5 111t186.5 71t211.5 25q79 0 159 -15t155 -42.5t143 -66.5t122 -87zM644 1819h318l219 -305h-258l-120 134l-120 -134h-258z" />
    <glyph glyph-name="gcircumflex" unicode="&#x11d;" horiz-adv-x="1297" 
d="M1173 96q0 -114 -42.5 -206.5t-120 -157t-185.5 -99.5t-240 -35q-72 0 -140 10.5t-130 29.5t-116.5 45t-99.5 56l124 244q74 -50 160.5 -77.5t173.5 -27.5q121 0 188.5 56.5t67.5 152.5v112q-53 -68 -129 -103.5t-176 -35.5q-101 0 -186 37.5t-146.5 105.5t-95.5 164.5
t-34 214.5q0 116 33.5 210t93.5 161t143.5 104t183.5 37q102 0 180.5 -36t132.5 -105v128h360v-985zM600 826q-48 0 -87.5 -18.5t-68 -52t-44.5 -80t-16 -103.5q0 -56 16 -102.5t44 -79.5t68 -51.5t88 -18.5t87 18.5t67 51.5t43.5 79.5t15.5 102.5q0 57 -15.5 104t-43.5 80
t-67 51.5t-87 18.5zM459 1525h318l219 -305h-258l-120 134l-120 -134h-258z" />
    <glyph glyph-name="Gbreve" unicode="&#x11e;" horiz-adv-x="1484" 
d="M1187 958q-37 36 -81.5 65t-92.5 49t-97.5 31t-97.5 11q-83 0 -154.5 -31.5t-124 -87t-82.5 -131t-30 -162.5q0 -89 30 -165t83 -132t125 -87.5t156 -31.5q51 0 111.5 17t121.5 46v198h-340v272h668v-661q-57 -40 -128 -74t-148 -58.5t-156.5 -38t-153.5 -13.5
q-161 0 -298.5 55.5t-238 153t-157.5 230.5t-57 289q0 103 26.5 197t75.5 174t118.5 145t155.5 111t186.5 71t211.5 25q79 0 159 -15t155 -42.5t143 -66.5t122 -87zM693 1831q4 -51 33.5 -82t75.5 -31q45 0 75 31t34 82h224q-3 -73 -28.5 -132t-69 -101t-103.5 -65t-132 -23
t-132 23t-104 65t-69.5 101t-28.5 132h225z" />
    <glyph glyph-name="gbreve" unicode="&#x11f;" horiz-adv-x="1297" 
d="M1173 96q0 -114 -42.5 -206.5t-120 -157t-185.5 -99.5t-240 -35q-72 0 -140 10.5t-130 29.5t-116.5 45t-99.5 56l124 244q74 -50 160.5 -77.5t173.5 -27.5q121 0 188.5 56.5t67.5 152.5v112q-53 -68 -129 -103.5t-176 -35.5q-101 0 -186 37.5t-146.5 105.5t-95.5 164.5
t-34 214.5q0 116 33.5 210t93.5 161t143.5 104t183.5 37q102 0 180.5 -36t132.5 -105v128h360v-985zM600 826q-48 0 -87.5 -18.5t-68 -52t-44.5 -80t-16 -103.5q0 -56 16 -102.5t44 -79.5t68 -51.5t88 -18.5t87 18.5t67 51.5t43.5 79.5t15.5 102.5q0 57 -15.5 104t-43.5 80
t-67 51.5t-87 18.5zM509 1521q4 -51 33.5 -82t75.5 -31q45 0 75 31t34 82h224q-3 -73 -28.5 -132t-69 -101t-103.5 -65t-132 -23t-132 23t-104 65t-69.5 101t-28.5 132h225z" />
    <glyph glyph-name="Gdotaccent" unicode="&#x120;" horiz-adv-x="1484" 
d="M1187 958q-37 36 -81.5 65t-92.5 49t-97.5 31t-97.5 11q-83 0 -154.5 -31.5t-124 -87t-82.5 -131t-30 -162.5q0 -89 30 -165t83 -132t125 -87.5t156 -31.5q51 0 111.5 17t121.5 46v198h-340v272h668v-661q-57 -40 -128 -74t-148 -58.5t-156.5 -38t-153.5 -13.5
q-161 0 -298.5 55.5t-238 153t-157.5 230.5t-57 289q0 103 26.5 197t75.5 174t118.5 145t155.5 111t186.5 71t211.5 25q79 0 159 -15t155 -42.5t143 -66.5t122 -87zM802 1891q42 0 76.5 -14t60 -39t39.5 -60t14 -77t-14 -76.5t-39.5 -60t-60 -39.5t-76.5 -14t-76.5 14
t-60 39.5t-39.5 60t-14 76.5t14 77t39.5 60t60 39t76.5 14z" />
    <glyph glyph-name="gdotaccent" unicode="&#x121;" horiz-adv-x="1297" 
d="M1173 96q0 -114 -42.5 -206.5t-120 -157t-185.5 -99.5t-240 -35q-72 0 -140 10.5t-130 29.5t-116.5 45t-99.5 56l124 244q74 -50 160.5 -77.5t173.5 -27.5q121 0 188.5 56.5t67.5 152.5v112q-53 -68 -129 -103.5t-176 -35.5q-101 0 -186 37.5t-146.5 105.5t-95.5 164.5
t-34 214.5q0 116 33.5 210t93.5 161t143.5 104t183.5 37q102 0 180.5 -36t132.5 -105v128h360v-985zM600 826q-48 0 -87.5 -18.5t-68 -52t-44.5 -80t-16 -103.5q0 -56 16 -102.5t44 -79.5t68 -51.5t88 -18.5t87 18.5t67 51.5t43.5 79.5t15.5 102.5q0 57 -15.5 104t-43.5 80
t-67 51.5t-87 18.5zM614 1580q42 0 77 -14t60.5 -39t39.5 -60t14 -77t-14 -76.5t-39.5 -60t-60.5 -39.5t-77 -14t-76.5 14t-60 39.5t-39.5 60t-14 76.5t14 77t39.5 60t60 39t76.5 14z" />
    <glyph glyph-name="uni0122" unicode="&#x122;" horiz-adv-x="1484" 
d="M1187 958q-37 36 -81.5 65t-92.5 49t-97.5 31t-97.5 11q-83 0 -154.5 -31.5t-124 -87t-82.5 -131t-30 -162.5q0 -89 30 -165t83 -132t125 -87.5t156 -31.5q51 0 111.5 17t121.5 46v198h-340v272h668v-661q-57 -40 -128 -74t-148 -58.5t-156.5 -38t-153.5 -13.5
q-161 0 -298.5 55.5t-238 153t-157.5 230.5t-57 289q0 103 26.5 197t75.5 174t118.5 145t155.5 111t186.5 71t211.5 25q79 0 159 -15t155 -42.5t143 -66.5t122 -87zM635 -120h295l-149 -348h-210z" />
    <glyph glyph-name="uni0123" unicode="&#x123;" horiz-adv-x="1297" 
d="M1173 96q0 -114 -42.5 -206.5t-120 -157t-185.5 -99.5t-240 -35q-72 0 -140 10.5t-130 29.5t-116.5 45t-99.5 56l124 244q74 -50 160.5 -77.5t173.5 -27.5q121 0 188.5 56.5t67.5 152.5v112q-53 -68 -129 -103.5t-176 -35.5q-101 0 -186 37.5t-146.5 105.5t-95.5 164.5
t-34 214.5q0 116 33.5 210t93.5 161t143.5 104t183.5 37q102 0 180.5 -36t132.5 -105v128h360v-985zM600 826q-48 0 -87.5 -18.5t-68 -52t-44.5 -80t-16 -103.5q0 -56 16 -102.5t44 -79.5t68 -51.5t88 -18.5t87 18.5t67 51.5t43.5 79.5t15.5 102.5q0 57 -15.5 104t-43.5 80
t-67 51.5t-87 18.5zM736 1220h-294l149 348h210z" />
    <glyph glyph-name="Hcircumflex" unicode="&#x124;" horiz-adv-x="1569" 
d="M134 1400h372v-571h557v571h372v-1400h-372v537h-557v-537h-372v1400zM630 1817h318l219 -305h-258l-120 134l-120 -134h-258z" />
    <glyph glyph-name="hcircumflex" unicode="&#x125;" horiz-adv-x="1360" 
d="M894 581q0 91 -48 143.5t-132 52.5q-48 0 -86.5 -18.5t-65.5 -50.5t-41.5 -76.5t-14.5 -97.5v-534h-362v1484h362v-578q57 94 147 142t210 48q89 0 161.5 -29t124 -82.5t79.5 -130t28 -171.5v-683h-362v581zM157 1928h318l219 -305h-258l-120 134l-120 -134h-258z" />
    <glyph glyph-name="Hbar" unicode="&#x126;" horiz-adv-x="1690" 
d="M8 1204h184v196h373v-196h556v196h373v-196h183v-170h-183v-1034h-373v538h-556v-538h-373v1034h-184v170zM1121 1034h-556v-206h556v206z" />
    <glyph glyph-name="hbar" unicode="&#x127;" horiz-adv-x="1360" 
d="M16 1325h128v159h362v-159h343v-173h-343v-315q57 94 147 142t210 48q89 0 161.5 -29t124 -83t79.5 -130t28 -171v-614h-362v512q0 91 -48 143.5t-132 52.5q-48 0 -86.5 -18t-65.5 -50.5t-41.5 -77t-14.5 -97.5v-465h-362v1152h-128v173z" />
    <glyph glyph-name="Itilde" unicode="&#x128;" horiz-adv-x="640" 
d="M134 1400h372v-1400h-372v1400zM663 1822q0 -76 -11 -134.5t-34.5 -99t-60.5 -61.5t-90 -21q-45 0 -84 14t-72.5 30.5t-61 30.5t-48.5 14q-31 0 -43 -22t-13 -61h-203q0 75 11 134t34.5 99.5t61 62t90.5 21.5q45 0 84 -14t72 -30.5t60.5 -30.5t48.5 -14q32 0 44 22t13 60
h202z" />
    <glyph glyph-name="itilde" unicode="&#x129;" horiz-adv-x="629" 
d="M134 1081h361v-1081h-361v1081zM666 1508q0 -160 -44.5 -238t-142.5 -78q-41 0 -76 13t-63.5 29t-52 29t-42.5 13q-49 0 -51 -78h-203q0 155 44.5 236t143.5 81q41 0 75.5 -12.5t63.5 -27t52 -27t41 -12.5q27 0 39.5 17t13.5 55h202z" />
    <glyph glyph-name="Imacron" unicode="&#x12a;" horiz-adv-x="640" 
d="M134 1400h372v-1400h-372v1400zM9 1726h620v-209h-620v209z" />
    <glyph glyph-name="imacron" unicode="&#x12b;" horiz-adv-x="629" 
d="M134 1081h361v-1081h-361v1081zM33 1487h564v-209h-564v209z" />
    <glyph glyph-name="Ibreve" unicode="&#x12c;" horiz-adv-x="640" 
d="M134 1400h372v-1400h-372v1400zM211 1829q4 -51 33.5 -82t75.5 -31q45 0 75 31t34 82h224q-3 -73 -28.5 -132t-69 -101t-103.5 -65t-132 -23t-132 23t-104 65t-69.5 101t-28.5 132h225z" />
    <glyph glyph-name="ibreve" unicode="&#x12d;" horiz-adv-x="629" 
d="M134 1081h361v-1081h-361v1081zM206 1521q4 -51 33.5 -82t75.5 -31q45 0 75 31t34 82h224q-3 -73 -28.5 -132t-69 -101t-103.5 -65t-132 -23t-132 23t-104 65t-69.5 101t-28.5 132h225z" />
    <glyph glyph-name="Iogonek" unicode="&#x12e;" horiz-adv-x="640" 
d="M134 1400h372v-1400h-372v1400zM426 0q-72 -53 -112.5 -99.5t-40.5 -94.5q0 -28 12.5 -40.5t32.5 -12.5q12 0 27 4t30 12l58 -190q-44 -20 -95 -32.5t-101 -12.5q-55 0 -96.5 15.5t-70 43.5t-43 67t-14.5 86q0 84 49.5 170t158.5 164z" />
    <glyph glyph-name="iogonek" unicode="&#x12f;" horiz-adv-x="629" 
d="M134 1081h361v-1081h-361v1081zM311 1580q42 0 77 -14t60.5 -39t39.5 -60t14 -77t-14 -76.5t-39.5 -60t-60.5 -39.5t-77 -14t-76.5 14t-60 39.5t-39.5 60t-14 76.5t14 77t39.5 60t60 39t76.5 14zM423 0q-72 -53 -112.5 -99.5t-40.5 -94.5q0 -28 12.5 -40.5t32.5 -12.5
q12 0 27 4t30 12l58 -190q-44 -20 -95 -32.5t-101 -12.5q-55 0 -96.5 15.5t-70 43.5t-43 67t-14.5 86q0 84 49.5 170t158.5 164z" />
    <glyph glyph-name="Idotaccent" unicode="&#x130;" horiz-adv-x="640" 
d="M134 1400h372v-1400h-372v1400zM319 1889q42 0 76.5 -14t60 -39t39.5 -60t14 -77t-14 -76.5t-39.5 -60t-60 -39.5t-76.5 -14t-76.5 14t-60 39.5t-39.5 60t-14 76.5t14 77t39.5 60t60 39t76.5 14z" />
    <glyph glyph-name="dotlessi" unicode="&#x131;" horiz-adv-x="629" 
d="M134 1081h361v-1081h-361v1081z" />
    <glyph glyph-name="IJ" unicode="&#x132;" horiz-adv-x="1745" 
d="M134 1400h372v-1400h-372v1400zM1611 456q0 -112 -34 -200t-98 -148.5t-154.5 -92t-203.5 -31.5q-153 0 -274.5 58.5t-217.5 167.5l171 249q77 -80 155 -118.5t138 -38.5q67 0 105.5 40.5t38.5 121.5v936h374v-944z" />
    <glyph glyph-name="ij" unicode="&#x133;" horiz-adv-x="1261" 
d="M134 1081h361v-1081h-361v1081zM311 1580q42 0 77 -14t60.5 -39t39.5 -60t14 -77t-14 -76.5t-39.5 -60t-60.5 -39.5t-77 -14t-76.5 14t-60 39.5t-39.5 60t-14 76.5t14 77t39.5 60t60 39t76.5 14zM575 -105q43 -15 87 -15q106 0 106 133v1068h362v-1121
q0 -85 -27.5 -152.5t-78 -114.5t-123 -71.5t-162.5 -23.5q-134 2 -236 43zM943 1580q42 0 77 -14t60.5 -39t39.5 -60t14 -77t-14 -76.5t-39.5 -60t-60.5 -39.5t-77 -14t-76.5 14t-60 39.5t-39.5 60t-14 76.5t14 77t39.5 60t60 39t76.5 14z" />
    <glyph glyph-name="Jcircumflex" unicode="&#x134;" horiz-adv-x="1081" 
d="M971 456q0 -112 -34 -200t-98 -148.5t-154.5 -92t-203.5 -31.5q-153 0 -274.5 58.5t-217.5 167.5l171 249q77 -80 155 -118.5t138 -38.5q67 0 105.5 40.5t38.5 121.5v936h374v-944zM607 1818h318l219 -305h-258l-120 134l-120 -134h-258z" />
    <glyph glyph-name="jcircumflex" unicode="&#x135;" horiz-adv-x="628" 
d="M-54 -105q43 -15 87 -15q106 0 106 133v1068h362v-1121q0 -85 -27.5 -152.5t-78 -114.5t-123 -71.5t-162.5 -23.5q-134 2 -236 43zM159 1525h318l219 -305h-258l-120 134l-120 -134h-258z" />
    <glyph glyph-name="uni0136" unicode="&#x136;" horiz-adv-x="1501" 
d="M134 1400h372v-607l518 607h431l-519 -575l551 -825h-445l-361 542l-175 -194v-348h-372v1400zM579 -120h295l-149 -348h-210z" />
    <glyph glyph-name="uni0137" unicode="&#x137;" horiz-adv-x="1270" 
d="M144 1484h362v-768l340 365h411l-397 -417l405 -664h-429l-223 405l-107 -112v-293h-362v1484zM506 -120h295l-149 -348h-210z" />
    <glyph glyph-name="kgreenlandic" unicode="&#x138;" horiz-adv-x="1258" 
d="M134 1081h361v-382l339 382h410l-396 -417l405 -664h-429l-223 405l-106 -111v-294h-361v1081z" />
    <glyph glyph-name="Lacute" unicode="&#x139;" horiz-adv-x="1127" 
d="M134 1400h372v-1088h592v-312h-964v1400zM373 1843l297 -111l-292 -232l-246 20z" />
    <glyph glyph-name="lacute" unicode="&#x13a;" horiz-adv-x="696" 
d="M476 404q0 -59 26 -84.5t68 -25.5q47 0 103 29l28 -294q-104 -46 -207 -46q-76 0 -144.5 24.5t-120.5 74.5t-83 126.5t-31 179.5v1096h361v-1080zM374 1943l297 -111l-292 -232l-246 20z" />
    <glyph glyph-name="uni013B" unicode="&#x13b;" horiz-adv-x="1127" 
d="M134 1400h372v-1088h592v-312h-964v1400zM467 -120h295l-149 -348h-210z" />
    <glyph glyph-name="uni013C" unicode="&#x13c;" horiz-adv-x="696" 
d="M476 404q0 -59 26 -84.5t68 -25.5q47 0 103 29l28 -294q-104 -46 -207 -46q-76 0 -144.5 24.5t-120.5 74.5t-83 126.5t-31 179.5v1096h361v-1080zM280 -120h295l-149 -348h-210z" />
    <glyph glyph-name="Lcaron" unicode="&#x13d;" horiz-adv-x="1127" 
d="M134 1400h372v-1088h592v-312h-964v1400zM822 1401h276l-60 -437h-216v437z" />
    <glyph glyph-name="lcaron" unicode="&#x13e;" horiz-adv-x="845" 
d="M476 404q0 -59 26 -84.5t68 -25.5q47 0 103 29l28 -294q-104 -46 -207 -46q-76 0 -144.5 24.5t-120.5 74.5t-83 126.5t-31 179.5v1096h361v-1080zM620 1485h276l-60 -437h-216v437z" />
    <glyph glyph-name="Ldot" unicode="&#x13f;" horiz-adv-x="1127" 
d="M134 1400h372v-1088h592v-312h-964v1400zM870 936q42 0 77 -14t60.5 -39t39.5 -60t14 -77t-14 -76.5t-39.5 -60t-60.5 -39.5t-77 -14t-76.5 14t-60 39.5t-39.5 60t-14 76.5t14 77t39.5 60t60 39t76.5 14z" />
    <glyph glyph-name="ldot" unicode="&#x140;" horiz-adv-x="942" 
d="M476 404q0 -59 26 -84.5t68 -25.5q47 0 103 29l28 -294q-104 -46 -207 -46q-76 0 -144.5 24.5t-120.5 74.5t-83 126.5t-31 179.5v1096h361v-1080zM720 988q42 0 77 -14t60.5 -39t39.5 -60t14 -77t-14 -76.5t-39.5 -60t-60.5 -39.5t-77 -14t-76.5 14t-60 39.5t-39.5 60
t-14 76.5t14 77t39.5 60t60 39t76.5 14z" />
    <glyph glyph-name="Lslash" unicode="&#x141;" horiz-adv-x="1218" 
d="M36 703l189 97v600h372v-409l217 111v-195l-217 -111v-484h593v-312h-965v606l-189 -97v194z" />
    <glyph glyph-name="lslash" unicode="&#x142;" horiz-adv-x="848" 
d="M476 968l233 120v-203l-233 -119v-362q0 -59 26 -84.5t68 -25.5q47 0 103 29l28 -294q-104 -46 -207 -46q-76 0 -144.5 24.5t-120.5 74.5t-83 126.5t-31 179.5v192l-185 -94v203l185 94v701h361v-516z" />
    <glyph glyph-name="Nacute" unicode="&#x143;" horiz-adv-x="1570" 
d="M134 1400h325l631 -840v840h345v-1400h-325l-629 836v-836h-347v1400zM853 1844l297 -111l-292 -232l-246 20z" />
    <glyph glyph-name="nacute" unicode="&#x144;" horiz-adv-x="1349" 
d="M884 581q0 91 -48.5 143.5t-132.5 52.5q-45 0 -82 -16.5t-63.5 -45t-42.5 -69t-19 -88.5v-558h-362v1081h362v-174q57 94 147 141.5t209 47.5q89 0 161.5 -29t124.5 -82.5t80 -130t28 -171.5v-683h-362v581zM787 1540l297 -111l-292 -232l-246 20z" />
    <glyph glyph-name="uni0145" unicode="&#x145;" horiz-adv-x="1570" 
d="M134 1400h325l631 -840v840h345v-1400h-325l-629 836v-836h-347v1400zM644 -120h295l-149 -348h-210z" />
    <glyph glyph-name="uni0146" unicode="&#x146;" horiz-adv-x="1349" 
d="M884 581q0 91 -48.5 143.5t-132.5 52.5q-45 0 -82 -16.5t-63.5 -45t-42.5 -69t-19 -88.5v-558h-362v1081h362v-174q57 94 147 141.5t209 47.5q89 0 161.5 -29t124.5 -82.5t80 -130t28 -171.5v-683h-362v581zM536 -120h295l-149 -348h-210z" />
    <glyph glyph-name="Ncaron" unicode="&#x147;" horiz-adv-x="1570" 
d="M134 1400h325l631 -840v840h345v-1400h-325l-629 836v-836h-347v1400zM929 1513h-318l-219 305h258l120 -133l120 133h258z" />
    <glyph glyph-name="ncaron" unicode="&#x148;" horiz-adv-x="1349" 
d="M884 581q0 91 -48.5 143.5t-132.5 52.5q-45 0 -82 -16.5t-63.5 -45t-42.5 -69t-19 -88.5v-558h-362v1081h362v-174q57 94 147 141.5t209 47.5q89 0 161.5 -29t124.5 -82.5t80 -130t28 -171.5v-683h-362v581zM868 1220h-318l-219 305h258l120 -133l120 133h258z" />
    <glyph glyph-name="napostrophe" unicode="&#x149;" horiz-adv-x="1655" 
d="M88 1400h244l-48 -524h-196v524zM1192 581q0 91 -48.5 143.5t-132.5 52.5q-45 0 -82 -16.5t-63.5 -45t-42.5 -69t-19 -88.5v-558h-362v1081h362v-174q57 94 147 141.5t209 47.5q89 0 161.5 -29t124.5 -82.5t80 -130t28 -171.5v-683h-362v581z" />
    <glyph glyph-name="Eng" unicode="&#x14a;" horiz-adv-x="1570" 
d="M134 1400h325l631 -842v842h345v-1400q-4 -101 -40.5 -181.5t-100.5 -136t-152.5 -85t-197.5 -29.5q-106 0 -195 29t-163 83l133 278q62 -36 119.5 -54t103.5 -18q66 0 104 34.5t45 103.5l-610 814v-838h-347v1400z" />
    <glyph glyph-name="eng" unicode="&#x14b;" horiz-adv-x="1349" 
d="M134 1081h362v-174q57 94 147 141.5t209 47.5q89 0 161.5 -29t124.5 -82.5t80 -130t28 -171.5v-723q0 -87 -30.5 -154.5t-84 -114t-126.5 -70.5t-158 -24q-78 0 -149 18t-128 52l90 253q29 -17 59 -27t63 -10q46 0 74 27.5t28 86.5v584q0 91 -48.5 143.5t-132.5 52.5
q-45 0 -82 -16.5t-63.5 -45t-42.5 -69t-19 -88.5v-558h-362v1081z" />
    <glyph glyph-name="Omacron" unicode="&#x14c;" 
d="M803 1424q163 0 302 -54.5t240.5 -151.5t159 -228.5t57.5 -286.5q0 -156 -57.5 -289t-159 -231t-240.5 -153.5t-302 -55.5t-301.5 55.5t-240 153t-159 231t-57.5 289.5q0 155 57.5 287t159 228.5t240 151t301.5 54.5zM808 1112q-78 0 -147.5 -31t-121.5 -86t-82.5 -130.5
t-30.5 -163.5t30.5 -164t83 -132t122 -88t146.5 -32t144.5 32t118 88t79.5 132t29 164t-29 163.5t-79.5 130.5t-118 86t-144.5 31zM453 1727h701v-209h-701v209z" />
    <glyph glyph-name="omacron" unicode="&#x14d;" horiz-adv-x="1278" 
d="M639 1094q134 0 243.5 -39.5t187 -111.5t120 -174t42.5 -227t-42.5 -227.5t-120 -175t-187 -112.5t-243.5 -40t-243.5 40t-187 112.5t-120 175t-42.5 227.5t42.5 227t120 174t187 111.5t243.5 39.5zM639 806q-51 0 -93.5 -19.5t-72.5 -55t-46.5 -85t-16.5 -109.5
t16.5 -110t46.5 -85t72.5 -54.5t93.5 -19.5t93 19.5t72 54.5t46.5 85t16.5 110t-16.5 109.5t-46.5 85t-72 55t-93 19.5zM329 1487h620v-209h-620v209z" />
    <glyph glyph-name="Obreve" unicode="&#x14e;" 
d="M803 1424q163 0 302 -54.5t240.5 -151.5t159 -228.5t57.5 -286.5q0 -156 -57.5 -289t-159 -231t-240.5 -153.5t-302 -55.5t-301.5 55.5t-240 153t-159 231t-57.5 289.5q0 155 57.5 287t159 228.5t240 151t301.5 54.5zM808 1112q-78 0 -147.5 -31t-121.5 -86t-82.5 -130.5
t-30.5 -163.5t30.5 -164t83 -132t122 -88t146.5 -32t144.5 32t118 88t79.5 132t29 164t-29 163.5t-79.5 130.5t-118 86t-144.5 31zM695 1830q4 -51 33.5 -82t75.5 -31q45 0 75 31t34 82h224q-3 -73 -28.5 -132t-69 -101t-103.5 -65t-132 -23t-132 23t-104 65t-69.5 101
t-28.5 132h225z" />
    <glyph glyph-name="obreve" unicode="&#x14f;" horiz-adv-x="1278" 
d="M639 1094q134 0 243.5 -39.5t187 -111.5t120 -174t42.5 -227t-42.5 -227.5t-120 -175t-187 -112.5t-243.5 -40t-243.5 40t-187 112.5t-120 175t-42.5 227.5t42.5 227t120 174t187 111.5t243.5 39.5zM639 806q-51 0 -93.5 -19.5t-72.5 -55t-46.5 -85t-16.5 -109.5
t16.5 -110t46.5 -85t72.5 -54.5t93.5 -19.5t93 19.5t72 54.5t46.5 85t16.5 110t-16.5 109.5t-46.5 85t-72 55t-93 19.5zM530 1521q4 -51 33.5 -82t75.5 -31q45 0 75 31t34 82h224q-3 -73 -28.5 -132t-69 -101t-103.5 -65t-132 -23t-132 23t-104 65t-69.5 101t-28.5 132h225z
" />
    <glyph glyph-name="Ohungarumlaut" unicode="&#x150;" 
d="M803 1424q163 0 302 -54.5t240.5 -151.5t159 -228.5t57.5 -286.5q0 -156 -57.5 -289t-159 -231t-240.5 -153.5t-302 -55.5t-301.5 55.5t-240 153t-159 231t-57.5 289.5q0 155 57.5 287t159 228.5t240 151t301.5 54.5zM808 1112q-78 0 -147.5 -31t-121.5 -86t-82.5 -130.5
t-30.5 -163.5t30.5 -164t83 -132t122 -88t146.5 -32t144.5 32t118 88t79.5 132t29 164t-29 163.5t-79.5 130.5t-118 86t-144.5 31zM610 1850l273 -99l-181 -250l-254 19zM1007 1850l273 -99l-181 -250l-254 19z" />
    <glyph glyph-name="ohungarumlaut" unicode="&#x151;" horiz-adv-x="1278" 
d="M639 1094q134 0 243.5 -39.5t187 -111.5t120 -174t42.5 -227t-42.5 -227.5t-120 -175t-187 -112.5t-243.5 -40t-243.5 40t-187 112.5t-120 175t-42.5 227.5t42.5 227t120 174t187 111.5t243.5 39.5zM639 806q-51 0 -93.5 -19.5t-72.5 -55t-46.5 -85t-16.5 -109.5
t16.5 -110t46.5 -85t72.5 -54.5t93.5 -19.5t93 19.5t72 54.5t46.5 85t16.5 110t-16.5 109.5t-46.5 85t-72 55t-93 19.5zM446 1546l273 -99l-181 -250l-254 19zM843 1546l273 -99l-181 -250l-254 19z" />
    <glyph glyph-name="OE" unicode="&#x152;" horiz-adv-x="2228" 
d="M801 0q-162 0 -300 52.5t-239.5 146t-159 221.5t-57.5 278t57 278t158 222.5t239.5 148t301.5 53.5h1319v-292h-738v-261h666v-290h-666v-265h758v-292h-1339zM427 696q0 -85 28.5 -157.5t79 -125.5t119 -83t148.5 -30l208 1v794h-208q-80 0 -148.5 -30.5t-119 -83.5
t-79 -126t-28.5 -159z" />
    <glyph glyph-name="oe" unicode="&#x153;" horiz-adv-x="2032" 
d="M639 1094q134 0 234.5 -45.5t166.5 -130.5q63 85 159 130.5t223 45.5q136 0 243.5 -45t181 -128t109.5 -200t29 -260h-772q23 -98 88.5 -151t160.5 -53q71 0 136 27.5t121 81.5l189 -187q-85 -92 -205 -142t-273 -50q-134 0 -231.5 45.5t-160.5 129.5
q-66 -84 -165.5 -129.5t-233.5 -45.5t-243.5 40t-187 112.5t-120 175t-42.5 227.5t42.5 227t120 174t187 111.5t243.5 39.5zM639 806q-51 0 -93.5 -19.5t-72.5 -55t-46.5 -85t-16.5 -109.5t16.5 -110t46.5 -85t72.5 -54.5t93.5 -19.5t93 19.5t72 54.5t46.5 85t16.5 110
t-16.5 109.5t-46.5 85t-72 55t-93 19.5zM1425 850q-43 0 -79.5 -16t-64 -44.5t-46 -68.5t-26.5 -88h414q0 47 -14 87t-40.5 69t-63 45t-80.5 16z" />
    <glyph glyph-name="Racute" unicode="&#x154;" horiz-adv-x="1447" 
d="M767 1400q139 0 247.5 -33t183.5 -95.5t114 -154t39 -208.5q0 -160 -64 -273.5t-185 -176.5l291 -459h-421l-202 388h-3h-261v-388h-372v1400h633zM767 680q110 0 170.5 55t60.5 163q0 105 -60.5 157.5t-170.5 52.5h-261v-428h261zM769 1844l297 -111l-292 -232l-246 20z
" />
    <glyph glyph-name="racute" unicode="&#x155;" horiz-adv-x="864" 
d="M134 1081h362v-179q57 94 145 144t203 50v-326q-28 3 -55 3q-65 0 -117.5 -16.5t-90 -46.5t-59.5 -73t-26 -96v-541h-362v1081zM563 1540l297 -111l-292 -232l-246 20z" />
    <glyph glyph-name="uni0156" unicode="&#x156;" horiz-adv-x="1447" 
d="M767 1400q139 0 247.5 -33t183.5 -95.5t114 -154t39 -208.5q0 -160 -64 -273.5t-185 -176.5l291 -459h-421l-202 388h-3h-261v-388h-372v1400h633zM767 680q110 0 170.5 55t60.5 163q0 105 -60.5 157.5t-170.5 52.5h-261v-428h261zM568 -120h295l-149 -348h-210z" />
    <glyph glyph-name="uni0157" unicode="&#x157;" horiz-adv-x="864" 
d="M134 1081h362v-179q57 94 145 144t203 50v-326q-28 3 -55 3q-65 0 -117.5 -16.5t-90 -46.5t-59.5 -73t-26 -96v-541h-362v1081zM164 -120h295l-149 -348h-210z" />
    <glyph glyph-name="Rcaron" unicode="&#x158;" horiz-adv-x="1447" 
d="M767 1400q139 0 247.5 -33t183.5 -95.5t114 -154t39 -208.5q0 -160 -64 -273.5t-185 -176.5l291 -459h-421l-202 388h-3h-261v-388h-372v1400h633zM767 680q110 0 170.5 55t60.5 163q0 105 -60.5 157.5t-170.5 52.5h-261v-428h261zM845 1513h-318l-219 305h258l120 -133
l120 133h258z" />
    <glyph glyph-name="rcaron" unicode="&#x159;" horiz-adv-x="864" 
d="M134 1081h362v-179q57 94 145 144t203 50v-326q-28 3 -55 3q-65 0 -117.5 -16.5t-90 -46.5t-59.5 -73t-26 -96v-541h-362v1081zM644 1220h-318l-219 305h258l120 -133l120 133h258z" />
    <glyph glyph-name="Sacute" unicode="&#x15a;" horiz-adv-x="1293" 
d="M1103 979q-50 30 -108.5 57t-118.5 48t-118 33.5t-107 12.5q-27 0 -52.5 -5t-46 -17t-32.5 -31t-12 -47q0 -45 31.5 -74t83.5 -50.5t118 -39.5t135 -40.5t135 -53.5t118 -78t83.5 -115t31.5 -164q0 -114 -47.5 -196.5t-126 -135.5t-180.5 -78.5t-210 -25.5
q-87 0 -174.5 15t-171.5 44t-161.5 71t-142.5 96l144 287q51 -45 115.5 -84.5t132.5 -68.5t136 -45.5t126 -16.5q33 0 64 6t55 20t38.5 37t14.5 56q0 46 -31.5 75.5t-83.5 51t-118.5 38.5t-135.5 38.5t-135.5 51t-118.5 75t-83.5 111.5t-31.5 160q0 106 44 186.5t120 135
t179 82.5t221 28q75 0 151 -11t148 -31.5t138.5 -50t123.5 -66.5zM745 1844l297 -111l-292 -232l-246 20z" />
    <glyph glyph-name="sacute" unicode="&#x15b;" horiz-adv-x="1038" 
d="M861 740q-102 54 -190 81.5t-154 27.5q-45 0 -72.5 -16t-27.5 -50q0 -27 24.5 -45t64 -32.5t90.5 -28t104.5 -31.5t104.5 -42.5t90.5 -61.5t64 -87.5t24.5 -121.5q0 -83 -34.5 -148t-96 -109.5t-146 -67.5t-184.5 -23q-139 0 -265 38.5t-227 114.5l115 230
q94 -66 194 -100t190 -34q49 0 80 16t31 51q0 28 -24 46.5t-63 33t-89.5 28t-102.5 31t-102 41.5t-89.5 60t-63 87t-23.5 121q0 84 33.5 149t93 109t141.5 67t178 23q119 0 235 -31.5t219 -93.5zM594 1540l297 -111l-292 -232l-246 20z" />
    <glyph glyph-name="Scircumflex" unicode="&#x15c;" horiz-adv-x="1293" 
d="M1103 979q-50 30 -108.5 57t-118.5 48t-118 33.5t-107 12.5q-27 0 -52.5 -5t-46 -17t-32.5 -31t-12 -47q0 -45 31.5 -74t83.5 -50.5t118 -39.5t135 -40.5t135 -53.5t118 -78t83.5 -115t31.5 -164q0 -114 -47.5 -196.5t-126 -135.5t-180.5 -78.5t-210 -25.5
q-87 0 -174.5 15t-171.5 44t-161.5 71t-142.5 96l144 287q51 -45 115.5 -84.5t132.5 -68.5t136 -45.5t126 -16.5q33 0 64 6t55 20t38.5 37t14.5 56q0 46 -31.5 75.5t-83.5 51t-118.5 38.5t-135.5 38.5t-135.5 51t-118.5 75t-83.5 111.5t-31.5 160q0 106 44 186.5t120 135
t179 82.5t221 28q75 0 151 -11t148 -31.5t138.5 -50t123.5 -66.5zM527 1818h318l219 -305h-258l-120 134l-120 -134h-258z" />
    <glyph glyph-name="scircumflex" unicode="&#x15d;" horiz-adv-x="1038" 
d="M861 740q-102 54 -190 81.5t-154 27.5q-45 0 -72.5 -16t-27.5 -50q0 -27 24.5 -45t64 -32.5t90.5 -28t104.5 -31.5t104.5 -42.5t90.5 -61.5t64 -87.5t24.5 -121.5q0 -83 -34.5 -148t-96 -109.5t-146 -67.5t-184.5 -23q-139 0 -265 38.5t-227 114.5l115 230
q94 -66 194 -100t190 -34q49 0 80 16t31 51q0 28 -24 46.5t-63 33t-89.5 28t-102.5 31t-102 41.5t-89.5 60t-63 87t-23.5 121q0 84 33.5 149t93 109t141.5 67t178 23q119 0 235 -31.5t219 -93.5zM381 1525h318l219 -305h-258l-120 134l-120 -134h-258z" />
    <glyph glyph-name="Scedilla" unicode="&#x15e;" horiz-adv-x="1293" 
d="M1103 979q-50 30 -108.5 57t-118.5 48t-118 33.5t-107 12.5q-27 0 -52.5 -5t-46 -17t-32.5 -31t-12 -47q0 -45 31.5 -74t83.5 -50.5t118 -39.5t135 -40.5t135 -53.5t118 -78t83.5 -115t31.5 -164q0 -103 -39.5 -180.5t-106 -130.5t-154 -83t-184.5 -39l-22 -58
q89 -20 127 -63.5t38 -98.5q0 -51 -21.5 -88t-57.5 -60t-82.5 -34t-96.5 -11q-57 0 -113.5 10.5t-106.5 28.5l55 160q23 -8 49.5 -13t51.5 -5q36 0 58.5 12t22.5 31q0 24 -31 36t-76 12h-46l47 146q-145 17 -281.5 73t-244.5 145l144 287q51 -45 115.5 -84.5t132.5 -68.5
t136 -45.5t126 -16.5q33 0 64 6t55 20t38.5 37t14.5 56q0 46 -31.5 75.5t-83.5 51t-118.5 38.5t-135.5 38.5t-135.5 51t-118.5 75t-83.5 111.5t-31.5 160q0 106 44 186.5t120 135t179 82.5t221 28q75 0 151 -11t148 -31.5t138.5 -50t123.5 -66.5z" />
    <glyph glyph-name="scedilla" unicode="&#x15f;" horiz-adv-x="1038" 
d="M861 740q-102 54 -190 81.5t-154 27.5q-45 0 -72.5 -16t-27.5 -50q0 -27 24.5 -45t64 -32.5t90.5 -28t104.5 -31.5t104.5 -42.5t90.5 -61.5t64 -87.5t24.5 -121.5q0 -73 -27 -132t-75 -102.5t-115.5 -70.5t-148.5 -37l-24 -67q89 -20 126.5 -63.5t37.5 -98.5
q0 -51 -21.5 -88t-57 -60t-82 -34t-96.5 -11q-57 0 -114 10.5t-107 28.5l56 160q23 -8 49.5 -13t51.5 -5q36 0 58.5 12t22.5 31q0 24 -31.5 36t-76.5 12h-46l49 150q-107 13 -204.5 49.5t-177.5 97.5l115 230q94 -66 194 -100t190 -34q49 0 80 16t31 51q0 28 -24 46.5
t-63 33t-89.5 28t-102.5 31t-102 41.5t-89.5 60t-63 87t-23.5 121q0 84 33.5 149t93 109t141.5 67t178 23q119 0 235 -31.5t219 -93.5z" />
    <glyph glyph-name="Scaron" unicode="&#x160;" horiz-adv-x="1293" 
d="M1103 979q-50 30 -108.5 57t-118.5 48t-118 33.5t-107 12.5q-27 0 -52.5 -5t-46 -17t-32.5 -31t-12 -47q0 -45 31.5 -74t83.5 -50.5t118 -39.5t135 -40.5t135 -53.5t118 -78t83.5 -115t31.5 -164q0 -114 -47.5 -196.5t-126 -135.5t-180.5 -78.5t-210 -25.5
q-87 0 -174.5 15t-171.5 44t-161.5 71t-142.5 96l144 287q51 -45 115.5 -84.5t132.5 -68.5t136 -45.5t126 -16.5q33 0 64 6t55 20t38.5 37t14.5 56q0 46 -31.5 75.5t-83.5 51t-118.5 38.5t-135.5 38.5t-135.5 51t-118.5 75t-83.5 111.5t-31.5 160q0 106 44 186.5t120 135
t179 82.5t221 28q75 0 151 -11t148 -31.5t138.5 -50t123.5 -66.5zM821 1513h-318l-219 305h258l120 -133l120 133h258z" />
    <glyph glyph-name="scaron" unicode="&#x161;" horiz-adv-x="1038" 
d="M861 740q-102 54 -190 81.5t-154 27.5q-45 0 -72.5 -16t-27.5 -50q0 -27 24.5 -45t64 -32.5t90.5 -28t104.5 -31.5t104.5 -42.5t90.5 -61.5t64 -87.5t24.5 -121.5q0 -83 -34.5 -148t-96 -109.5t-146 -67.5t-184.5 -23q-139 0 -265 38.5t-227 114.5l115 230
q94 -66 194 -100t190 -34q49 0 80 16t31 51q0 28 -24 46.5t-63 33t-89.5 28t-102.5 31t-102 41.5t-89.5 60t-63 87t-23.5 121q0 84 33.5 149t93 109t141.5 67t178 23q119 0 235 -31.5t219 -93.5zM699 1220h-318l-219 305h258l120 -133l120 133h258z" />
    <glyph glyph-name="uni0162" unicode="&#x162;" horiz-adv-x="1231" 
d="M13 1400h1205v-300h-417v-1100h-88l-29 -76q89 -20 126.5 -63.5t37.5 -98.5q0 -51 -21.5 -88t-57 -60t-82 -34t-96.5 -11q-57 0 -114 10.5t-106 28.5l55 160q23 -8 49.5 -13t51.5 -5q36 0 58.5 12t22.5 31q0 24 -31.5 36t-76.5 12h-46l52 159h-78v1100h-415v300z" />
    <glyph glyph-name="uni0163" unicode="&#x163;" horiz-adv-x="878" 
d="M544 1081h280v-236h-280v-459q0 -60 25.5 -87t70.5 -27q34 0 69 11t65 25l69 -251q-45 -26 -102.5 -43.5t-119.5 -24.5l-24 -65q89 -20 126.5 -63.5t37.5 -98.5q0 -51 -21.5 -88t-57 -60t-82 -34t-96.5 -11q-57 0 -114 10.5t-106 28.5l55 160q23 -8 49.5 -13t51.5 -5
q36 0 58.5 12t22.5 31q0 24 -31.5 36t-76.5 12h-46l53 161q-53 15 -96.5 43t-74.5 69.5t-48 95.5t-17 120v515h-150v236h150v249h360v-249z" />
    <glyph glyph-name="Tcaron" unicode="&#x164;" horiz-adv-x="1231" 
d="M13 1400h1205v-300h-417v-1100h-373v1100h-415v300zM747 1513h-318l-219 305h258l120 -133l120 133h258z" />
    <glyph glyph-name="tcaron" unicode="&#x165;" horiz-adv-x="878" 
d="M544 1081h280v-236h-280v-459q0 -60 25.5 -87t70.5 -27q34 0 69 11t65 25l69 -251q-58 -35 -135.5 -54t-156.5 -19q-80 0 -147.5 22.5t-116 66.5t-76 108.5t-27.5 148.5v515h-150v236h150v249h360v-249zM654 1484h264l-48 -351h-216v351z" />
    <glyph glyph-name="Tbar" unicode="&#x166;" horiz-adv-x="1231" 
d="M13 1400h1205v-300h-417v-1100h-373v1100h-415v300zM175 722h879v-196h-879v196z" />
    <glyph glyph-name="tbar" unicode="&#x167;" horiz-adv-x="878" 
d="M34 1081h150v249h360v-249h280v-206h-280v-191h280v-206h-280v-92q0 -60 25.5 -87t70.5 -27q34 0 69 11t65 25l69 -251q-58 -35 -135.5 -54t-156.5 -19q-80 0 -147.5 22.5t-116 66.5t-76 108.5t-27.5 148.5v148h-150v206h150v191h-150v206z" />
    <glyph glyph-name="Utilde" unicode="&#x168;" horiz-adv-x="1495" 
d="M483 578q0 -67 20.5 -121.5t56.5 -92.5t85.5 -58.5t107.5 -20.5q57 0 105 20t82.5 58t53.5 92.5t19 122.5v822h372v-822q0 -138 -44.5 -250t-127 -190.5t-199.5 -121t-262 -42.5q-147 0 -265.5 42.5t-202 121t-129 190.5t-45.5 250v822h373v-822zM1092 1823
q0 -76 -11 -134.5t-34.5 -99t-60.5 -61.5t-90 -21q-45 0 -84 14t-72.5 30.5t-61 30.5t-48.5 14q-31 0 -43 -22t-13 -61h-203q0 75 11 134t34.5 99.5t61 62t90.5 21.5q45 0 84 -14t72 -30.5t60.5 -30.5t48.5 -14q32 0 44 22t13 60h202z" />
    <glyph glyph-name="utilde" unicode="&#x169;" horiz-adv-x="1329" 
d="M464 500q0 -91 46.5 -143.5t125.5 -52.5q46 1 82.5 19.5t62 50.5t39 76.5t13.5 96.5v534h362v-1081h-362v173q-56 -93 -143 -140.5t-202 -47.5q-87 0 -158 29t-122 83t-78.5 130.5t-27.5 170.5v683h362v-581zM1035 1512q0 -76 -11 -134.5t-34.5 -99t-60.5 -61.5t-90 -21
q-45 0 -84 14t-72.5 30.5t-61 30.5t-48.5 14q-31 0 -43 -22t-13 -61h-203q0 75 11 134t34.5 99.5t61 62t90.5 21.5q45 0 84 -14t72 -30.5t60.5 -30.5t48.5 -14q32 0 44 22t13 60h202z" />
    <glyph glyph-name="Umacron" unicode="&#x16a;" horiz-adv-x="1495" 
d="M483 578q0 -67 20.5 -121.5t56.5 -92.5t85.5 -58.5t107.5 -20.5q57 0 105 20t82.5 58t53.5 92.5t19 122.5v822h372v-822q0 -138 -44.5 -250t-127 -190.5t-199.5 -121t-262 -42.5q-147 0 -265.5 42.5t-202 121t-129 190.5t-45.5 250v822h373v-822zM398 1727h701v-209h-701
v209z" />
    <glyph glyph-name="umacron" unicode="&#x16b;" horiz-adv-x="1329" 
d="M464 500q0 -91 46.5 -143.5t125.5 -52.5q46 1 82.5 19.5t62 50.5t39 76.5t13.5 96.5v534h362v-1081h-362v173q-56 -93 -143 -140.5t-202 -47.5q-87 0 -158 29t-122 83t-78.5 130.5t-27.5 170.5v683h362v-581zM354 1487h620v-209h-620v209z" />
    <glyph glyph-name="Ubreve" unicode="&#x16c;" horiz-adv-x="1495" 
d="M483 578q0 -67 20.5 -121.5t56.5 -92.5t85.5 -58.5t107.5 -20.5q57 0 105 20t82.5 58t53.5 92.5t19 122.5v822h372v-822q0 -138 -44.5 -250t-127 -190.5t-199.5 -121t-262 -42.5q-147 0 -265.5 42.5t-202 121t-129 190.5t-45.5 250v822h373v-822zM640 1830
q4 -51 33.5 -82t75.5 -31q45 0 75 31t34 82h224q-3 -73 -28.5 -132t-69 -101t-103.5 -65t-132 -23t-132 23t-104 65t-69.5 101t-28.5 132h225z" />
    <glyph glyph-name="ubreve" unicode="&#x16d;" horiz-adv-x="1329" 
d="M464 500q0 -91 46.5 -143.5t125.5 -52.5q46 1 82.5 19.5t62 50.5t39 76.5t13.5 96.5v534h362v-1081h-362v173q-56 -93 -143 -140.5t-202 -47.5q-87 0 -158 29t-122 83t-78.5 130.5t-27.5 170.5v683h362v-581zM556 1521q4 -51 33.5 -82t75.5 -31q45 0 75 31t34 82h224
q-3 -73 -28.5 -132t-69 -101t-103.5 -65t-132 -23t-132 23t-104 65t-69.5 101t-28.5 132h225z" />
    <glyph glyph-name="Uring" unicode="&#x16e;" horiz-adv-x="1495" 
d="M483 578q0 -67 20.5 -121.5t56.5 -92.5t85.5 -58.5t107.5 -20.5q57 0 105 20t82.5 58t53.5 92.5t19 122.5v822h372v-822q0 -138 -44.5 -250t-127 -190.5t-199.5 -121t-262 -42.5q-147 0 -265.5 42.5t-202 121t-129 190.5t-45.5 250v822h373v-822zM748 1951q50 0 93 -18.5
t75.5 -50.5t51 -75t18.5 -92t-18.5 -92t-51 -75.5t-75.5 -51t-93 -18.5q-49 0 -92 18.5t-75.5 51t-51 75.5t-18.5 92t18.5 92t51 75t75.5 50.5t92 18.5zM748 1802q-37 0 -62.5 -25.5t-25.5 -61.5q0 -37 25.5 -62.5t62.5 -25.5t63 25.5t26 62.5q0 36 -26 61.5t-63 25.5z" />
    <glyph glyph-name="uring" unicode="&#x16f;" horiz-adv-x="1329" 
d="M464 500q0 -91 46.5 -143.5t125.5 -52.5q46 1 82.5 19.5t62 50.5t39 76.5t13.5 96.5v534h362v-1081h-362v173q-56 -93 -143 -140.5t-202 -47.5q-87 0 -158 29t-122 83t-78.5 130.5t-27.5 170.5v683h362v-581zM665 1631q50 0 93 -18.5t75.5 -50.5t51 -75t18.5 -92
t-18.5 -92t-51 -75.5t-75.5 -51t-93 -18.5q-49 0 -92 18.5t-75.5 51t-51 75.5t-18.5 92t18.5 92t51 75t75.5 50.5t92 18.5zM665 1482q-37 0 -62.5 -25.5t-25.5 -61.5q0 -37 25.5 -62.5t62.5 -25.5t63 25.5t26 62.5q0 36 -26 61.5t-63 25.5z" />
    <glyph glyph-name="Uhungarumlaut" unicode="&#x170;" horiz-adv-x="1495" 
d="M483 578q0 -67 20.5 -121.5t56.5 -92.5t85.5 -58.5t107.5 -20.5q57 0 105 20t82.5 58t53.5 92.5t19 122.5v822h372v-822q0 -138 -44.5 -250t-127 -190.5t-199.5 -121t-262 -42.5q-147 0 -265.5 42.5t-202 121t-129 190.5t-45.5 250v822h373v-822zM555 1850l273 -99
l-181 -250l-254 19zM952 1850l273 -99l-181 -250l-254 19z" />
    <glyph glyph-name="uhungarumlaut" unicode="&#x171;" horiz-adv-x="1329" 
d="M464 500q0 -91 46.5 -143.5t125.5 -52.5q46 1 82.5 19.5t62 50.5t39 76.5t13.5 96.5v534h362v-1081h-362v173q-56 -93 -143 -140.5t-202 -47.5q-87 0 -158 29t-122 83t-78.5 130.5t-27.5 170.5v683h362v-581zM471 1546l273 -99l-181 -250l-254 19zM868 1546l273 -99
l-181 -250l-254 19z" />
    <glyph glyph-name="Uogonek" unicode="&#x172;" horiz-adv-x="1495" 
d="M483 578q0 -67 20.5 -121.5t56.5 -92.5t85.5 -58.5t107.5 -20.5q57 0 105 20t82.5 58t53.5 92.5t19 122.5v822h372v-822q0 -138 -44.5 -250t-127 -190.5t-199.5 -121t-262 -42.5q-147 0 -265.5 42.5t-202 121t-129 190.5t-45.5 250v822h373v-822zM1191 120
q-40 -36 -73 -76.5t-57 -81t-37 -79t-13 -69.5q0 -61 44 -61q28 0 57 16l59 -190q-45 -20 -92 -32.5t-100 -12.5q-49 0 -90.5 13t-72.5 40t-48.5 67.5t-17.5 95.5q0 54 19 104.5t58.5 101.5t100 103.5t143.5 110.5z" />
    <glyph glyph-name="uogonek" unicode="&#x173;" horiz-adv-x="1329" 
d="M464 500q0 -91 46.5 -143.5t125.5 -52.5q46 1 82.5 19.5t62 50.5t39 76.5t13.5 96.5v534h362v-1081h-362v173q-56 -93 -143 -140.5t-202 -47.5q-87 0 -158 29t-122 83t-78.5 130.5t-27.5 170.5v683h362v-581zM1121 0q-72 -53 -112.5 -99.5t-40.5 -94.5q0 -28 12.5 -40.5
t32.5 -12.5q12 0 27 4t30 12l58 -190q-44 -20 -95 -32.5t-101 -12.5q-55 0 -96.5 15.5t-70 43.5t-43 67t-14.5 86q0 84 49.5 170t158.5 164z" />
    <glyph glyph-name="Wcircumflex" unicode="&#x174;" horiz-adv-x="2229" 
d="M-4 1400h399l274 -1017l273 1017h363l276 -1017l270 1017h382l-474 -1400h-382l-262 951l-266 -951h-382zM958 1818h318l219 -305h-258l-120 134l-120 -134h-258z" />
    <glyph glyph-name="wcircumflex" unicode="&#x175;" horiz-adv-x="1887" 
d="M-11 1081h368l215 -731l208 731h344l213 -731l212 731h354l-395 -1081h-360l-201 667l-205 -667h-359zM789 1525h318l219 -305h-258l-120 134l-120 -134h-258z" />
    <glyph glyph-name="Ycircumflex" unicode="&#x176;" horiz-adv-x="1371" 
d="M504 441l-515 959h372l329 -600l320 600h372l-506 -949v-451h-372v441zM527 1818h318l219 -305h-258l-120 134l-120 -134h-258z" />
    <glyph glyph-name="ycircumflex" unicode="&#x177;" horiz-adv-x="1174" 
d="M726 -106q-62 -152 -167 -225t-259 -73q-94 0 -172 27t-154 85l152 246q37 -31 71 -45.5t72 -14.5q89 0 130 83l24 49l-449 1055h373l257 -702l225 702h361zM430 1525h318l219 -305h-258l-120 134l-120 -134h-258z" />
    <glyph glyph-name="Ydieresis" unicode="&#x178;" horiz-adv-x="1371" 
d="M504 441l-515 959h372l329 -600l320 600h372l-506 -949v-451h-372v441zM495 1819q33 0 61.5 -11.5t48.5 -32t31.5 -49t11.5 -62.5q0 -33 -11.5 -61t-31.5 -49t-48.5 -32.5t-61.5 -11.5q-34 0 -62.5 11.5t-49 32.5t-32 49t-11.5 61q0 34 11.5 62.5t32 49t49 32t62.5 11.5z
M879 1819q34 0 62 -11.5t48.5 -32t32 -49t11.5 -62.5q0 -33 -11.5 -61t-32 -49t-48.5 -32.5t-62 -11.5t-62 11.5t-48.5 32.5t-32 49t-11.5 61q0 34 11.5 62.5t32 49t48.5 32t62 11.5z" />
    <glyph glyph-name="Zacute" unicode="&#x179;" horiz-adv-x="1351" 
d="M78 1400h1206v-238l-732 -868h745v-294h-1243v238l733 868h-709v294zM741 1844l297 -111l-292 -232l-246 20z" />
    <glyph glyph-name="zacute" unicode="&#x17a;" horiz-adv-x="1111" 
d="M85 1081l952 -1v-216l-517 -592h536v-273l-990 1v216l517 592l-498 1v272zM637 1540l297 -111l-292 -232l-246 20z" />
    <glyph glyph-name="Zdotaccent" unicode="&#x17b;" horiz-adv-x="1351" 
d="M78 1400h1206v-238l-732 -868h745v-294h-1243v238l733 868h-709v294zM681 1890q42 0 76.5 -14t60 -39t39.5 -60t14 -77t-14 -76.5t-39.5 -60t-60 -39.5t-76.5 -14t-76.5 14t-60 39.5t-39.5 60t-14 76.5t14 77t39.5 60t60 39t76.5 14z" />
    <glyph glyph-name="zdotaccent" unicode="&#x17c;" horiz-adv-x="1111" 
d="M85 1081l952 -1v-216l-517 -592h536v-273l-990 1v216l517 592l-498 1v272zM555 1580q42 0 77 -14t60.5 -39t39.5 -60t14 -77t-14 -76.5t-39.5 -60t-60.5 -39.5t-77 -14t-76.5 14t-60 39.5t-39.5 60t-14 76.5t14 77t39.5 60t60 39t76.5 14z" />
    <glyph glyph-name="Zcaron" unicode="&#x17d;" horiz-adv-x="1351" 
d="M78 1400h1206v-238l-732 -868h745v-294h-1243v238l733 868h-709v294zM817 1513h-318l-219 305h258l120 -133l120 133h258z" />
    <glyph glyph-name="zcaron" unicode="&#x17e;" horiz-adv-x="1111" 
d="M85 1081l952 -1v-216l-517 -592h536v-273l-990 1v216l517 592l-498 1v272zM718 1220h-318l-219 305h258l120 -133l120 133h258z" />
    <glyph glyph-name="longs" unicode="&#x17f;" horiz-adv-x="845" 
d="M200 845h-146v236h146v101q0 89 31.5 157.5t87.5 115.5t132.5 71.5t166.5 24.5q57 0 116.5 -11t111.5 -31l-46 -269q-31 10 -62 18t-63 8q-51 0 -83 -29t-32 -85v-1152h-360v845z" />
    <glyph glyph-name="uni018F" unicode="&#x18f;" horiz-adv-x="1583" 
d="M792 -26q-166 0 -302 58.5t-233 164.5t-150 254.5t-53 328.5h1086q-10 73 -40.5 134t-75.5 105t-103.5 68.5t-124.5 24.5q-99 0 -182 -49.5t-134 -134.5l-259 259q103 112 246.5 174.5t324.5 62.5q158 0 292 -54.5t232.5 -151.5t154 -229t55.5 -287t-55.5 -288.5
t-154 -231t-232.5 -153t-292 -55.5zM796 286q62 0 115 19t95.5 53.5t73 82.5t47.5 107h-668q18 -59 49.5 -107t74.5 -82.5t97 -53.5t116 -19z" />
    <glyph glyph-name="florin" unicode="&#x192;" horiz-adv-x="830" 
d="M546 700l-91 -746q-10 -83 -45 -149.5t-90.5 -113t-130.5 -71.5t-165 -24q-33 0 -67.5 6t-67.5 16t-62 24t-51 31l91 249q24 -20 55 -32t63 -12q51 0 79.5 35t36.5 94l85 693h-145l27 232h147l26 214q10 83 46 149.5t93.5 113t133 71.5t165.5 24q41 0 82.5 -6t81 -16
t74.5 -24t63 -31l-122 -249q-26 20 -59 32t-65 12q-57 0 -94.5 -34.5t-45.5 -93.5l-20 -162h239l-28 -232h-239z" />
    <glyph glyph-name="Ohorn" unicode="&#x1a0;" horiz-adv-x="1664" 
d="M803 1424q163 0 302 -54.5t240.5 -151.5t159 -228.5t57.5 -286.5q0 -156 -57.5 -289t-159 -231t-240.5 -153.5t-302 -55.5t-301.5 55.5t-240 153t-159 231t-57.5 289.5q0 155 57.5 287t159 228.5t240 151t301.5 54.5zM808 1112q-78 0 -147.5 -31t-121.5 -86t-82.5 -130.5
t-30.5 -163.5t30.5 -164t83 -132t122 -88t146.5 -32t144.5 32t118 88t79.5 132t29 164t-29 163.5t-79.5 130.5t-118 86t-144.5 31zM1545 1700q57 -111 57 -210.5t-46.5 -174.5t-133.5 -119t-204 -44h-74t-44 2l25 206q17 -8 36.5 -13t39.5 -5q46 0 74.5 25t39 64t1.5 85
t-38 88z" />
    <glyph glyph-name="ohorn" unicode="&#x1a1;" horiz-adv-x="1361" 
d="M639 1094q134 0 243.5 -39.5t187 -111.5t120 -174t42.5 -227t-42.5 -227.5t-120 -175t-187 -112.5t-243.5 -40t-243.5 40t-187 112.5t-120 175t-42.5 227.5t42.5 227t120 174t187 111.5t243.5 39.5zM639 806q-51 0 -93.5 -19.5t-72.5 -55t-46.5 -85t-16.5 -109.5
t16.5 -110t46.5 -85t72.5 -54.5t93.5 -19.5t93 19.5t72 54.5t46.5 85t16.5 110t-16.5 109.5t-46.5 85t-72 55t-93 19.5zM1338 1379q57 -111 57 -210.5t-46.5 -174.5t-133.5 -119t-204 -44h-74t-44 2l25 206q17 -8 36.5 -13t39.5 -5q46 0 74.5 25t39 64t1.5 85t-38 88z" />
    <glyph glyph-name="Uhorn" unicode="&#x1af;" horiz-adv-x="1594" 
d="M483 578q0 -67 20.5 -121.5t56.5 -92.5t85.5 -58.5t107.5 -20.5q57 0 105 20t82.5 58t53.5 92.5t19 122.5v822h372v-822q0 -138 -44.5 -250t-127 -190.5t-199.5 -121t-262 -42.5q-147 0 -265.5 42.5t-202 121t-129 190.5t-45.5 250v822h373v-822zM1589 1700
q47 -113 44.5 -203t-49 -153t-136 -96.5t-218.5 -33.5l24 187q49 0 75.5 20.5t34.5 51t0 66.5t-28 67z" />
    <glyph glyph-name="uhorn" unicode="&#x1b0;" horiz-adv-x="1377" 
d="M464 500q0 -91 46.5 -143.5t125.5 -52.5q46 1 82.5 19.5t62 50.5t39 76.5t13.5 96.5v534h362v-1081h-362v173q-56 -93 -143 -140.5t-202 -47.5q-87 0 -158 29t-122 83t-78.5 130.5t-27.5 170.5v683h362v-581zM1383 1380q47 -113 44.5 -203t-49 -153t-136 -96.5
t-218.5 -33.5l24 187q49 0 75.5 20.5t34.5 51t0 66.5t-28 67z" />
    <glyph glyph-name="uni01C4" unicode="&#x1c4;" horiz-adv-x="2881" 
d="M738 1400q167 0 304.5 -50.5t235.5 -143t152 -221t54 -284.5t-55 -285.5t-154.5 -221.5t-239.5 -143t-310 -51h-591v1400h604zM748 296q78 0 144 29t113 82t73.5 126.5t26.5 163.5q0 91 -28 165.5t-77.5 128t-118 83t-150.5 29.5h-225v-807h242zM1608 1400h1206v-238
l-732 -868h745v-294h-1243v238l733 868h-709v294zM2347 1513h-318l-219 305h258l120 -133l120 133h258z" />
    <glyph glyph-name="uni01C5" unicode="&#x1c5;" horiz-adv-x="2640" 
d="M738 1400q167 0 304.5 -50.5t235.5 -143t152 -221t54 -284.5t-55 -285.5t-154.5 -221.5t-239.5 -143t-310 -51h-591v1400h604zM748 296q78 0 144 29t113 82t73.5 126.5t26.5 163.5q0 91 -28 165.5t-77.5 128t-118 83t-150.5 29.5h-225v-807h242zM1615 1081l952 -1v-216
l-517 -592h536v-273l-990 1v216l517 592l-498 1v272zM2248 1220h-318l-219 305h258l120 -133l120 133h258z" />
    <glyph glyph-name="uni01C6" unicode="&#x1c6;" horiz-adv-x="2485" 
d="M868 137q-57 -73 -136.5 -112t-180.5 -39q-114 0 -207.5 40.5t-159.5 114t-102 176.5t-36 229q0 124 35.5 225.5t100.5 173.5t156.5 111t203.5 39q104 0 186 -39.5t140 -112.5v541h362v-1484h-362v137zM640 807q-51 0 -93.5 -20t-72.5 -55.5t-47 -85.5t-17 -110
t17 -109.5t47 -85t72 -55t94 -19.5q51 0 93 19.5t72 55t46.5 85t16.5 109.5t-16.5 110t-46.5 86t-72 55.5t-93 19.5zM1459 1081l952 -1v-216l-517 -592h536v-273l-990 1v216l517 592l-498 1v272zM2092 1220h-318l-219 305h258l120 -133l120 133h258z" />
    <glyph glyph-name="uni01C7" unicode="&#x1c7;" horiz-adv-x="2208" 
d="M134 1400h372v-1088h592v-312h-964v1400zM2098 456q0 -112 -34 -200t-98 -148.5t-154.5 -92t-203.5 -31.5q-153 0 -274.5 58.5t-217.5 167.5l171 249q77 -80 155 -118.5t138 -38.5q67 0 105.5 40.5t38.5 121.5v936h374v-944z" />
    <glyph glyph-name="uni01C8" unicode="&#x1c8;" horiz-adv-x="1755" 
d="M134 1400h372v-1088h592v-312h-964v1400zM1073 -105q43 -15 87 -15q106 0 106 133v1068h362v-1121q0 -85 -27.5 -152.5t-78 -114.5t-123 -71.5t-162.5 -23.5q-134 2 -236 43zM1441 1580q42 0 77 -14t60.5 -39t39.5 -60t14 -77t-14 -76.5t-39.5 -60t-60.5 -39.5t-77 -14
t-76.5 14t-60 39.5t-39.5 60t-14 76.5t14 77t39.5 60t60 39t76.5 14z" />
    <glyph glyph-name="uni01C9" unicode="&#x1c9;" horiz-adv-x="1324" 
d="M476 404q0 -59 26 -84.5t68 -25.5q47 0 103 29l28 -294q-104 -46 -207 -46q-76 0 -144.5 24.5t-120.5 74.5t-83 126.5t-31 179.5v1096h361v-1080zM642 -105q43 -15 87 -15q106 0 106 133v1068h362v-1121q0 -85 -27.5 -152.5t-78 -114.5t-123 -71.5t-162.5 -23.5
q-134 2 -236 43zM1010 1580q42 0 77 -14t60.5 -39t39.5 -60t14 -77t-14 -76.5t-39.5 -60t-60.5 -39.5t-77 -14t-76.5 14t-60 39.5t-39.5 60t-14 76.5t14 77t39.5 60t60 39t76.5 14z" />
    <glyph glyph-name="uni01CA" unicode="&#x1ca;" horiz-adv-x="2650" 
d="M134 1400h325l631 -840v840h345v-1400h-325l-629 836v-836h-347v1400zM2541 456q0 -112 -34 -200t-98 -148.5t-154.5 -92t-203.5 -31.5q-153 0 -274.5 58.5t-217.5 167.5l171 249q77 -80 155 -118.5t138 -38.5q67 0 105.5 40.5t38.5 121.5v936h374v-944z" />
    <glyph glyph-name="uni01CB" unicode="&#x1cb;" horiz-adv-x="2196" 
d="M134 1400h325l631 -840v840h345v-1400h-325l-629 836v-836h-347v1400zM1516 -105q43 -15 87 -15q106 0 106 133v1068h362v-1121q0 -85 -27.5 -152.5t-78 -114.5t-123 -71.5t-162.5 -23.5q-134 2 -236 43zM1884 1580q42 0 77 -14t60.5 -39t39.5 -60t14 -77t-14 -76.5
t-39.5 -60t-60.5 -39.5t-77 -14t-76.5 14t-60 39.5t-39.5 60t-14 76.5t14 77t39.5 60t60 39t76.5 14z" />
    <glyph glyph-name="uni01CC" unicode="&#x1cc;" horiz-adv-x="1977" 
d="M884 581q0 91 -48.5 143.5t-132.5 52.5q-45 0 -82 -16.5t-63.5 -45t-42.5 -69t-19 -88.5v-558h-362v1081h362v-174q57 94 147 141.5t209 47.5q89 0 161.5 -29t124.5 -82.5t80 -130t28 -171.5v-683h-362v581zM1295 -105q43 -15 87 -15q106 0 106 133v1068h362v-1121
q0 -85 -27.5 -152.5t-78 -114.5t-123 -71.5t-162.5 -23.5q-134 2 -236 43zM1663 1580q42 0 77 -14t60.5 -39t39.5 -60t14 -77t-14 -76.5t-39.5 -60t-60.5 -39.5t-77 -14t-76.5 14t-60 39.5t-39.5 60t-14 76.5t14 77t39.5 60t60 39t76.5 14z" />
    <glyph glyph-name="Gcaron" unicode="&#x1e6;" horiz-adv-x="1484" 
d="M1187 958q-37 36 -81.5 65t-92.5 49t-97.5 31t-97.5 11q-83 0 -154.5 -31.5t-124 -87t-82.5 -131t-30 -162.5q0 -89 30 -165t83 -132t125 -87.5t156 -31.5q51 0 111.5 17t121.5 46v198h-340v272h668v-661q-57 -40 -128 -74t-148 -58.5t-156.5 -38t-153.5 -13.5
q-161 0 -298.5 55.5t-238 153t-157.5 230.5t-57 289q0 103 26.5 197t75.5 174t118.5 145t155.5 111t186.5 71t211.5 25q79 0 159 -15t155 -42.5t143 -66.5t122 -87zM938 1514h-318l-219 305h258l120 -133l120 133h258z" />
    <glyph glyph-name="gcaron" unicode="&#x1e7;" horiz-adv-x="1297" 
d="M1173 96q0 -114 -42.5 -206.5t-120 -157t-185.5 -99.5t-240 -35q-72 0 -140 10.5t-130 29.5t-116.5 45t-99.5 56l124 244q74 -50 160.5 -77.5t173.5 -27.5q121 0 188.5 56.5t67.5 152.5v112q-53 -68 -129 -103.5t-176 -35.5q-101 0 -186 37.5t-146.5 105.5t-95.5 164.5
t-34 214.5q0 116 33.5 210t93.5 161t143.5 104t183.5 37q102 0 180.5 -36t132.5 -105v128h360v-985zM600 826q-48 0 -87.5 -18.5t-68 -52t-44.5 -80t-16 -103.5q0 -56 16 -102.5t44 -79.5t68 -51.5t88 -18.5t87 18.5t67 51.5t43.5 79.5t15.5 102.5q0 57 -15.5 104t-43.5 80
t-67 51.5t-87 18.5zM777 1220h-318l-219 305h258l120 -133l120 133h258z" />
    <glyph glyph-name="uni01EA" unicode="&#x1ea;" 
d="M803 1424q163 0 302 -54.5t240.5 -151.5t159 -228.5t57.5 -286.5q0 -156 -57.5 -289t-159 -231t-240.5 -153.5t-302 -55.5t-301.5 55.5t-240 153t-159 231t-57.5 289.5q0 155 57.5 287t159 228.5t240 151t301.5 54.5zM808 1112q-78 0 -147.5 -31t-121.5 -86t-82.5 -130.5
t-30.5 -163.5t30.5 -164t83 -132t122 -88t146.5 -32t144.5 32t118 88t79.5 132t29 164t-29 163.5t-79.5 130.5t-118 86t-144.5 31zM1258 120q-40 -36 -73 -76.5t-57 -81t-37 -79t-13 -69.5q0 -61 44 -61q28 0 57 16l59 -190q-45 -20 -92 -32.5t-100 -12.5q-49 0 -90.5 13
t-72.5 40t-48.5 67.5t-17.5 95.5q0 54 19 104.5t58.5 101.5t100 103.5t143.5 110.5z" />
    <glyph glyph-name="uni01EB" unicode="&#x1eb;" horiz-adv-x="1278" 
d="M639 1094q134 0 243.5 -39.5t187 -111.5t120 -174t42.5 -227t-42.5 -227.5t-120 -175t-187 -112.5t-243.5 -40t-243.5 40t-187 112.5t-120 175t-42.5 227.5t42.5 227t120 174t187 111.5t243.5 39.5zM639 806q-51 0 -93.5 -19.5t-72.5 -55t-46.5 -85t-16.5 -109.5
t16.5 -110t46.5 -85t72.5 -54.5t93.5 -19.5t93 19.5t72 54.5t46.5 85t16.5 110t-16.5 109.5t-46.5 85t-72 55t-93 19.5zM1047 120q-40 -36 -73 -76.5t-57 -81t-37 -79t-13 -69.5q0 -61 44 -61q28 0 57 16l59 -190q-45 -20 -92 -32.5t-100 -12.5q-49 0 -90.5 13t-72.5 40
t-48.5 67.5t-17.5 95.5q0 54 19 104.5t58.5 101.5t100 103.5t143.5 110.5z" />
    <glyph glyph-name="Aringacute" unicode="&#x1fa;" horiz-adv-x="1548" 
d="M585 1386q-23 30 -35 66t-12 77q0 50 19 93.5t51.5 76t76.5 51.5t94 19h10.5t10.5 -1l167 151l249 -150l-227 -121q32 -53 32 -119q0 -39 -11.5 -74.5t-32.5 -65.5l582 -1389h-397l-95 248h-599l-96 -248h-383zM961 527l-190 501l-195 -501h385zM779 1617q-18 0 -34 -7
t-28.5 -19t-19.5 -28t-7 -34q0 -19 7 -35t19.5 -28t28.5 -19t34 -7q38 0 64.5 25.5t26.5 63.5q0 18 -7 34t-19.5 28t-29 19t-35.5 7z" />
    <glyph glyph-name="aringacute" unicode="&#x1fb;" horiz-adv-x="1204" 
d="M745 123q-52 -68 -133.5 -103.5t-191.5 -35.5q-87 0 -155.5 25t-116 69.5t-72.5 106.5t-25 137q0 156 106 242t309 86h279v12q0 77 -51 119.5t-153 42.5q-68 0 -152.5 -21.5t-172.5 -64.5l-97 240q128 57 251 87.5t256 30.5q112 0 200 -26.5t149 -76.5t93 -123t32 -166
l1 -704h-355zM533 226q38 0 72.5 10t62.5 28.5t48 44t29 56.5v95h-209q-73 0 -109.5 -27t-36.5 -85q0 -57 37.5 -89.5t105.5 -32.5zM602 1631q50 0 93 -18.5t75.5 -50.5t51 -75t18.5 -92t-18.5 -92t-51 -75.5t-75.5 -51t-93 -18.5q-49 0 -92.5 18.5t-76 51t-51 75.5
t-18.5 92t18.5 92t51 75t76 50.5t92.5 18.5zM688 1994l245 -147l-318 -171l-214 57zM602 1482q-37 0 -62.5 -25.5t-25.5 -61.5q0 -37 25.5 -62.5t62.5 -25.5t62.5 25.5t25.5 62.5q0 36 -25.5 61.5t-62.5 25.5z" />
    <glyph glyph-name="AEacute" unicode="&#x1fc;" horiz-adv-x="2215" 
d="M998 287h-473l-150 -287h-386l792 1400h1327v-292h-738v-260h667v-291h-667v-266h758v-291h-1130v287zM998 556v559h-39l-293 -559h332zM1507 1843l297 -111l-292 -232l-246 20z" />
    <glyph glyph-name="aeacute" unicode="&#x1fd;" horiz-adv-x="1930" 
d="M446 -17q-92 0 -165 24t-124 68t-78.5 106t-27.5 137q0 155 106.5 238.5t310.5 85.5h282v33q0 72 -55 110.5t-151 38.5q-71 0 -160 -21.5t-182 -64.5l-83 243q133 57 262 86t246 29q237 0 360 -118q131 116 335 116q135 0 242.5 -46t180.5 -130t109 -201.5t29 -261.5
h-773v-13q0 -41 22.5 -75t58.5 -58.5t81 -38t90 -13.5q71 0 136 27.5t119 81.5l190 -187q-86 -94 -205.5 -143t-270.5 -49q-155 0 -267 58t-178 166q-62 -111 -172.5 -169.5t-267.5 -58.5zM535 217q69 0 124 32.5t91 95.5v112h-208q-72 0 -112 -25.5t-40 -83.5
q0 -60 39 -95.5t106 -35.5zM1325 850q-42 0 -79.5 -14.5t-66.5 -42t-47 -66.5t-21 -87h410q0 48 -14 86.5t-40 66t-62 42.5t-80 15zM1045 1540l297 -111l-292 -232l-246 20z" />
    <glyph glyph-name="Oslashacute" unicode="&#x1fe;" 
d="M333 125q-67 48 -120 109.5t-90.5 134.5t-57.5 155t-20 172q0 153 57.5 283.5t159 225t240 148t301.5 53.5q154 0 290 -49l93 152h233l-150 -243q68 -48 122 -109t92 -134t58.5 -155t20.5 -172q0 -153 -57.5 -284t-159 -227.5t-240.5 -151t-302 -54.5q-80 0 -154 13.5
t-142 39.5l-88 -142h-231zM808 1094q-78 0 -147.5 -30.5t-121.5 -83.5t-82.5 -126t-30.5 -159q0 -78 25 -145.5t69 -120.5l400 648q-54 17 -112 17zM1179 695q0 80 -25.5 149t-70.5 122l-402 -653q61 -23 127 -23q77 0 144.5 31t118 85.5t79.5 128.5t29 160zM888 1844
l297 -111l-292 -232l-246 20z" />
    <glyph glyph-name="oslashacute" unicode="&#x1ff;" horiz-adv-x="1278" 
d="M257 99q-100 73 -155.5 185.5t-55.5 257.5q0 125 42.5 227t120 174t187 111.5t243.5 39.5q145 0 262 -47l141 207h171l-187 -275q98 -73 152 -184t54 -253q0 -125 -42.5 -227.5t-120 -175t-187 -112.5t-243.5 -40q-71 0 -135 11.5t-121 33.5l-139 -205h-171zM639 835
q-57 0 -103 -21.5t-79 -60.5t-51 -94t-18 -122q0 -108 44 -181l311 458q-46 21 -104 21zM891 537q0 53 -11.5 98t-32.5 81l-310 -457q47 -21 102 -21q56 0 102.5 21.5t79.5 60.5t51.5 94.5t18.5 122.5zM742 1540l297 -111l-292 -232l-246 20z" />
    <glyph glyph-name="uni0200" unicode="&#x200;" horiz-adv-x="1548" 
d="M591 1400h381l587 -1400h-397l-95 248h-599l-96 -248h-383zM961 527l-190 501l-195 -501h385zM574 1845l161 -330l-254 -19l-180 250zM971 1845l161 -330l-253 -19l-181 250z" />
    <glyph glyph-name="uni0201" unicode="&#x201;" horiz-adv-x="1204" 
d="M745 123q-52 -68 -133.5 -103.5t-191.5 -35.5q-87 0 -155.5 25t-116 69.5t-72.5 106.5t-25 137q0 156 106 242t309 86h279v12q0 77 -51 119.5t-153 42.5q-68 0 -152.5 -21.5t-172.5 -64.5l-97 240q128 57 251 87.5t256 30.5q112 0 200 -26.5t149 -76.5t93 -123t32 -166
l1 -704h-355zM533 226q38 0 72.5 10t62.5 28.5t48 44t29 56.5v95h-209q-73 0 -109.5 -27t-36.5 -85q0 -57 37.5 -89.5t105.5 -32.5zM420 1546l161 -330l-254 -19l-180 250zM817 1546l161 -330l-253 -19l-181 250z" />
    <glyph glyph-name="uni0202" unicode="&#x202;" horiz-adv-x="1548" 
d="M591 1400h381l587 -1400h-397l-95 248h-599l-96 -248h-383zM961 527l-190 501l-195 -501h385zM440 1512q3 73 28.5 132.5t69.5 101.5t104 64.5t132 22.5t132 -22.5t103.5 -64.5t69 -101.5t28.5 -132.5h-224q-4 51 -34 82.5t-75 31.5q-46 0 -75.5 -31.5t-33.5 -82.5h-225z
" />
    <glyph glyph-name="uni0203" unicode="&#x203;" horiz-adv-x="1204" 
d="M745 123q-52 -68 -133.5 -103.5t-191.5 -35.5q-87 0 -155.5 25t-116 69.5t-72.5 106.5t-25 137q0 156 106 242t309 86h279v12q0 77 -51 119.5t-153 42.5q-68 0 -152.5 -21.5t-172.5 -64.5l-97 240q128 57 251 87.5t256 30.5q112 0 200 -26.5t149 -76.5t93 -123t32 -166
l1 -704h-355zM533 226q38 0 72.5 10t62.5 28.5t48 44t29 56.5v95h-209q-73 0 -109.5 -27t-36.5 -85q0 -57 37.5 -89.5t105.5 -32.5zM285 1200q3 73 28.5 132.5t69.5 101.5t104 64.5t132 22.5t132 -22.5t103.5 -64.5t69 -101.5t28.5 -132.5h-224q-4 51 -34 82.5t-75 31.5
q-46 0 -75.5 -31.5t-33.5 -82.5h-225z" />
    <glyph glyph-name="uni0204" unicode="&#x204;" horiz-adv-x="1352" 
d="M134 1400h1110v-292h-738v-260h666v-291h-666v-266h758v-291h-1130v1400zM498 1846l161 -330l-254 -19l-180 250zM895 1846l161 -330l-253 -19l-181 250z" />
    <glyph glyph-name="uni0205" unicode="&#x205;" horiz-adv-x="1207" 
d="M410 445q26 -91 89 -139.5t153 -48.5q69 0 134.5 27.5t119.5 81.5l189 -187q-84 -92 -203 -142t-271 -50q-133 0 -239.5 39.5t-181 111.5t-114.5 173.5t-40 225.5q0 126 41 228.5t115.5 175.5t178.5 113t231 40q142 0 249 -45.5t176.5 -130.5t101 -204.5t21.5 -268.5
h-750zM615 844q-43 0 -78 -15t-62 -42.5t-45.5 -65.5t-26.5 -85h407q0 47 -14 85.5t-40 65.5t-61.5 42t-79.5 15zM403 1546l161 -330l-254 -19l-180 250zM800 1546l161 -330l-253 -19l-181 250z" />
    <glyph glyph-name="uni0206" unicode="&#x206;" horiz-adv-x="1352" 
d="M134 1400h1110v-292h-738v-260h666v-291h-666v-266h758v-291h-1130v1400zM363 1513q3 73 28.5 132.5t69.5 101.5t104 64.5t132 22.5t132 -22.5t103.5 -64.5t69 -101.5t28.5 -132.5h-224q-4 51 -34 82.5t-75 31.5q-46 0 -75.5 -31.5t-33.5 -82.5h-225z" />
    <glyph glyph-name="uni0207" unicode="&#x207;" horiz-adv-x="1207" 
d="M410 445q26 -91 89 -139.5t153 -48.5q69 0 134.5 27.5t119.5 81.5l189 -187q-84 -92 -203 -142t-271 -50q-133 0 -239.5 39.5t-181 111.5t-114.5 173.5t-40 225.5q0 126 41 228.5t115.5 175.5t178.5 113t231 40q142 0 249 -45.5t176.5 -130.5t101 -204.5t21.5 -268.5
h-750zM615 844q-43 0 -78 -15t-62 -42.5t-45.5 -65.5t-26.5 -85h407q0 47 -14 85.5t-40 65.5t-61.5 42t-79.5 15zM268 1200q3 73 28.5 132.5t69.5 101.5t104 64.5t132 22.5t132 -22.5t103.5 -64.5t69 -101.5t28.5 -132.5h-224q-4 51 -34 82.5t-75 31.5q-46 0 -75.5 -31.5
t-33.5 -82.5h-225z" />
    <glyph glyph-name="uni0208" unicode="&#x208;" horiz-adv-x="640" 
d="M134 1400h372v-1400h-372v1400zM120 1845l161 -330l-254 -19l-180 250zM517 1845l161 -330l-253 -19l-181 250z" />
    <glyph glyph-name="uni0209" unicode="&#x209;" horiz-adv-x="629" 
d="M134 1081h361v-1081h-361v1081zM115 1546l161 -330l-254 -19l-180 250zM512 1546l161 -330l-253 -19l-181 250z" />
    <glyph glyph-name="uni020A" unicode="&#x20a;" horiz-adv-x="640" 
d="M134 1400h372v-1400h-372v1400zM-15 1512q3 73 28.5 132.5t69.5 101.5t104 64.5t132 22.5t132 -22.5t103.5 -64.5t69 -101.5t28.5 -132.5h-224q-4 51 -34 82.5t-75 31.5q-46 0 -75.5 -31.5t-33.5 -82.5h-225z" />
    <glyph glyph-name="uni020B" unicode="&#x20b;" horiz-adv-x="629" 
d="M134 1081h361v-1081h-361v1081zM-7 1200q3 74 27 133.5t66 101.5t100 65t128 23t127.5 -23t99 -65t65.5 -101.5t27 -133.5h-220q-5 51 -31 82t-68 31t-68.5 -31t-31.5 -82h-221z" />
    <glyph glyph-name="uni020C" unicode="&#x20c;" 
d="M803 1424q163 0 302 -54.5t240.5 -151.5t159 -228.5t57.5 -286.5q0 -156 -57.5 -289t-159 -231t-240.5 -153.5t-302 -55.5t-301.5 55.5t-240 153t-159 231t-57.5 289.5q0 155 57.5 287t159 228.5t240 151t301.5 54.5zM808 1112q-78 0 -147.5 -31t-121.5 -86t-82.5 -130.5
t-30.5 -163.5t30.5 -164t83 -132t122 -88t146.5 -32t144.5 32t118 88t79.5 132t29 164t-29 163.5t-79.5 130.5t-118 86t-144.5 31zM603 1846l161 -330l-254 -19l-180 250zM1000 1846l161 -330l-253 -19l-181 250z" />
    <glyph glyph-name="uni020D" unicode="&#x20d;" horiz-adv-x="1278" 
d="M639 1094q134 0 243.5 -39.5t187 -111.5t120 -174t42.5 -227t-42.5 -227.5t-120 -175t-187 -112.5t-243.5 -40t-243.5 40t-187 112.5t-120 175t-42.5 227.5t42.5 227t120 174t187 111.5t243.5 39.5zM639 806q-51 0 -93.5 -19.5t-72.5 -55t-46.5 -85t-16.5 -109.5
t16.5 -110t46.5 -85t72.5 -54.5t93.5 -19.5t93 19.5t72 54.5t46.5 85t16.5 110t-16.5 109.5t-46.5 85t-72 55t-93 19.5zM439 1546l161 -330l-254 -19l-180 250zM836 1546l161 -330l-253 -19l-181 250z" />
    <glyph glyph-name="uni020E" unicode="&#x20e;" 
d="M803 1424q163 0 302 -54.5t240.5 -151.5t159 -228.5t57.5 -286.5q0 -156 -57.5 -289t-159 -231t-240.5 -153.5t-302 -55.5t-301.5 55.5t-240 153t-159 231t-57.5 289.5q0 155 57.5 287t159 228.5t240 151t301.5 54.5zM808 1112q-78 0 -147.5 -31t-121.5 -86t-82.5 -130.5
t-30.5 -163.5t30.5 -164t83 -132t122 -88t146.5 -32t144.5 32t118 88t79.5 132t29 164t-29 163.5t-79.5 130.5t-118 86t-144.5 31zM468 1513q3 73 28.5 132.5t69.5 101.5t104 64.5t132 22.5t132 -22.5t103.5 -64.5t69 -101.5t28.5 -132.5h-224q-4 51 -34 82.5t-75 31.5
q-46 0 -75.5 -31.5t-33.5 -82.5h-225z" />
    <glyph glyph-name="uni020F" unicode="&#x20f;" horiz-adv-x="1278" 
d="M639 1094q134 0 243.5 -39.5t187 -111.5t120 -174t42.5 -227t-42.5 -227.5t-120 -175t-187 -112.5t-243.5 -40t-243.5 40t-187 112.5t-120 175t-42.5 227.5t42.5 227t120 174t187 111.5t243.5 39.5zM639 806q-51 0 -93.5 -19.5t-72.5 -55t-46.5 -85t-16.5 -109.5
t16.5 -110t46.5 -85t72.5 -54.5t93.5 -19.5t93 19.5t72 54.5t46.5 85t16.5 110t-16.5 109.5t-46.5 85t-72 55t-93 19.5zM304 1200q3 73 28.5 132.5t69.5 101.5t104 64.5t132 22.5t132 -22.5t103.5 -64.5t69 -101.5t28.5 -132.5h-224q-4 51 -34 82.5t-75 31.5
q-46 0 -75.5 -31.5t-33.5 -82.5h-225z" />
    <glyph glyph-name="uni0210" unicode="&#x210;" horiz-adv-x="1447" 
d="M767 1400q139 0 247.5 -33t183.5 -95.5t114 -154t39 -208.5q0 -160 -64 -273.5t-185 -176.5l291 -459h-421l-202 388h-3h-261v-388h-372v1400h633zM767 680q110 0 170.5 55t60.5 163q0 105 -60.5 157.5t-170.5 52.5h-261v-428h261zM510 1846l161 -330l-254 -19l-180 250z
M907 1846l161 -330l-253 -19l-181 250z" />
    <glyph glyph-name="uni0211" unicode="&#x211;" horiz-adv-x="864" 
d="M134 1081h362v-179q57 94 145 144t203 50v-326q-28 3 -55 3q-65 0 -117.5 -16.5t-90 -46.5t-59.5 -73t-26 -96v-541h-362v1081zM285 1546l161 -330l-254 -19l-180 250zM682 1546l161 -330l-253 -19l-181 250z" />
    <glyph glyph-name="uni0212" unicode="&#x212;" horiz-adv-x="1447" 
d="M767 1400q139 0 247.5 -33t183.5 -95.5t114 -154t39 -208.5q0 -160 -64 -273.5t-185 -176.5l291 -459h-421l-202 388h-3h-261v-388h-372v1400h633zM767 680q110 0 170.5 55t60.5 163q0 105 -60.5 157.5t-170.5 52.5h-261v-428h261zM375 1513q3 73 28.5 132.5t69.5 101.5
t104 64.5t132 22.5t132 -22.5t103.5 -64.5t69 -101.5t28.5 -132.5h-224q-4 51 -34 82.5t-75 31.5q-46 0 -75.5 -31.5t-33.5 -82.5h-225z" />
    <glyph glyph-name="uni0213" unicode="&#x213;" horiz-adv-x="864" 
d="M134 1081h362v-179q57 94 145 144t203 50v-326q-28 3 -55 3q-65 0 -117.5 -16.5t-90 -46.5t-59.5 -73t-26 -96v-541h-362v1081zM150 1200q3 73 28.5 132.5t69.5 101.5t104 64.5t132 22.5t132 -22.5t103.5 -64.5t69 -101.5t28.5 -132.5h-224q-4 51 -34 82.5t-75 31.5
q-46 0 -75.5 -31.5t-33.5 -82.5h-225z" />
    <glyph glyph-name="uni0214" unicode="&#x214;" horiz-adv-x="1495" 
d="M483 578q0 -67 20.5 -121.5t56.5 -92.5t85.5 -58.5t107.5 -20.5q57 0 105 20t82.5 58t53.5 92.5t19 122.5v822h372v-822q0 -138 -44.5 -250t-127 -190.5t-199.5 -121t-262 -42.5q-147 0 -265.5 42.5t-202 121t-129 190.5t-45.5 250v822h373v-822zM548 1846l161 -330
l-254 -19l-180 250zM945 1846l161 -330l-253 -19l-181 250z" />
    <glyph glyph-name="uni0215" unicode="&#x215;" horiz-adv-x="1329" 
d="M464 500q0 -91 46.5 -143.5t125.5 -52.5q46 1 82.5 19.5t62 50.5t39 76.5t13.5 96.5v534h362v-1081h-362v173q-56 -93 -143 -140.5t-202 -47.5q-87 0 -158 29t-122 83t-78.5 130.5t-27.5 170.5v683h362v-581zM465 1546l161 -330l-254 -19l-180 250zM862 1546l161 -330
l-253 -19l-181 250z" />
    <glyph glyph-name="uni0216" unicode="&#x216;" horiz-adv-x="1495" 
d="M483 578q0 -67 20.5 -121.5t56.5 -92.5t85.5 -58.5t107.5 -20.5q57 0 105 20t82.5 58t53.5 92.5t19 122.5v822h372v-822q0 -138 -44.5 -250t-127 -190.5t-199.5 -121t-262 -42.5q-147 0 -265.5 42.5t-202 121t-129 190.5t-45.5 250v822h373v-822zM414 1513
q3 73 28.5 132.5t69.5 101.5t104 64.5t132 22.5t132 -22.5t103.5 -64.5t69 -101.5t28.5 -132.5h-224q-4 51 -34 82.5t-75 31.5q-46 0 -75.5 -31.5t-33.5 -82.5h-225z" />
    <glyph glyph-name="uni0217" unicode="&#x217;" horiz-adv-x="1329" 
d="M464 500q0 -91 46.5 -143.5t125.5 -52.5q46 1 82.5 19.5t62 50.5t39 76.5t13.5 96.5v534h362v-1081h-362v173q-56 -93 -143 -140.5t-202 -47.5q-87 0 -158 29t-122 83t-78.5 130.5t-27.5 170.5v683h362v-581zM330 1200q3 73 28.5 132.5t69.5 101.5t104 64.5t132 22.5
t132 -22.5t103.5 -64.5t69 -101.5t28.5 -132.5h-224q-4 51 -34 82.5t-75 31.5q-46 0 -75.5 -31.5t-33.5 -82.5h-225z" />
    <glyph glyph-name="uni0218" unicode="&#x218;" horiz-adv-x="1293" 
d="M1103 979q-50 30 -108.5 57t-118.5 48t-118 33.5t-107 12.5q-27 0 -52.5 -5t-46 -17t-32.5 -31t-12 -47q0 -45 31.5 -74t83.5 -50.5t118 -39.5t135 -40.5t135 -53.5t118 -78t83.5 -115t31.5 -164q0 -114 -47.5 -196.5t-126 -135.5t-180.5 -78.5t-210 -25.5
q-87 0 -174.5 15t-171.5 44t-161.5 71t-142.5 96l144 287q51 -45 115.5 -84.5t132.5 -68.5t136 -45.5t126 -16.5q33 0 64 6t55 20t38.5 37t14.5 56q0 46 -31.5 75.5t-83.5 51t-118.5 38.5t-135.5 38.5t-135.5 51t-118.5 75t-83.5 111.5t-31.5 160q0 106 44 186.5t120 135
t179 82.5t221 28q75 0 151 -11t148 -31.5t138.5 -50t123.5 -66.5zM516 -120h295l-149 -348h-210z" />
    <glyph glyph-name="uni0219" unicode="&#x219;" horiz-adv-x="1038" 
d="M861 740q-102 54 -190 81.5t-154 27.5q-45 0 -72.5 -16t-27.5 -50q0 -27 24.5 -45t64 -32.5t90.5 -28t104.5 -31.5t104.5 -42.5t90.5 -61.5t64 -87.5t24.5 -121.5q0 -83 -34.5 -148t-96 -109.5t-146 -67.5t-184.5 -23q-139 0 -265 38.5t-227 114.5l115 230
q94 -66 194 -100t190 -34q49 0 80 16t31 51q0 28 -24 46.5t-63 33t-89.5 28t-102.5 31t-102 41.5t-89.5 60t-63 87t-23.5 121q0 84 33.5 149t93 109t141.5 67t178 23q119 0 235 -31.5t219 -93.5zM368 -120h295l-149 -348h-210z" />
    <glyph glyph-name="uni021A" unicode="&#x21a;" horiz-adv-x="1231" 
d="M13 1400h1205v-300h-417v-1100h-373v1100h-415v300zM465 -120h295l-149 -348h-210z" />
    <glyph glyph-name="uni021B" unicode="&#x21b;" horiz-adv-x="878" 
d="M544 1081h280v-236h-280v-459q0 -60 25.5 -87t70.5 -27q34 0 69 11t65 25l69 -251q-58 -35 -135.5 -54t-156.5 -19q-80 0 -147.5 22.5t-116 66.5t-76 108.5t-27.5 148.5v515h-150v236h150v249h360v-249zM393 -120h295l-149 -348h-210z" />
    <glyph glyph-name="uni022A" unicode="&#x22a;" 
d="M803 1424q163 0 302 -54.5t240.5 -151.5t159 -228.5t57.5 -286.5q0 -156 -57.5 -289t-159 -231t-240.5 -153.5t-302 -55.5t-301.5 55.5t-240 153t-159 231t-57.5 289.5q0 155 57.5 287t159 228.5t240 151t301.5 54.5zM808 1112q-78 0 -147.5 -31t-121.5 -86t-82.5 -130.5
t-30.5 -163.5t30.5 -164t83 -132t122 -88t146.5 -32t144.5 32t118 88t79.5 132t29 164t-29 163.5t-79.5 130.5t-118 86t-144.5 31zM607 1815q33 0 61 -11t48 -31.5t31.5 -48.5t11.5 -62q0 -33 -11.5 -61t-31.5 -48.5t-48 -32t-61 -11.5q-34 0 -62 11.5t-48 32t-31.5 48.5
t-11.5 61q0 34 11.5 62t31.5 48.5t48 31.5t62 11zM999 1815q33 0 61 -11t48 -31.5t31.5 -48.5t11.5 -62q0 -33 -11.5 -61t-31.5 -48.5t-48 -32t-61 -11.5t-61.5 11.5t-48.5 32t-31.5 48.5t-11.5 61q0 34 11.5 62t31.5 48.5t48.5 31.5t61.5 11zM509 2093h588v-199h-588v199z
" />
    <glyph glyph-name="uni022B" unicode="&#x22b;" horiz-adv-x="1278" 
d="M639 1094q134 0 243.5 -39.5t187 -111.5t120 -174t42.5 -227t-42.5 -227.5t-120 -175t-187 -112.5t-243.5 -40t-243.5 40t-187 112.5t-120 175t-42.5 227.5t42.5 227t120 174t187 111.5t243.5 39.5zM639 806q-51 0 -93.5 -19.5t-72.5 -55t-46.5 -85t-16.5 -109.5
t16.5 -110t46.5 -85t72.5 -54.5t93.5 -19.5t93 19.5t72 54.5t46.5 85t16.5 110t-16.5 109.5t-46.5 85t-72 55t-93 19.5zM443 1507q33 0 61 -11t48 -31.5t31.5 -48.5t11.5 -62q0 -33 -11.5 -61t-31.5 -48.5t-48 -32t-61 -11.5q-34 0 -62 11.5t-48 32t-31.5 48.5t-11.5 61
q0 34 11.5 62t31.5 48.5t48 31.5t62 11zM835 1507q33 0 61 -11t48 -31.5t31.5 -48.5t11.5 -62q0 -33 -11.5 -61t-31.5 -48.5t-48 -32t-61 -11.5t-61.5 11.5t-48.5 32t-31.5 48.5t-11.5 61q0 34 11.5 62t31.5 48.5t48.5 31.5t61.5 11zM345 1785h588v-199h-588v199z" />
    <glyph glyph-name="uni022C" unicode="&#x22c;" 
d="M803 1424q163 0 302 -54.5t240.5 -151.5t159 -228.5t57.5 -286.5q0 -156 -57.5 -289t-159 -231t-240.5 -153.5t-302 -55.5t-301.5 55.5t-240 153t-159 231t-57.5 289.5q0 155 57.5 287t159 228.5t240 151t301.5 54.5zM808 1112q-78 0 -147.5 -31t-121.5 -86t-82.5 -130.5
t-30.5 -163.5t30.5 -164t83 -132t122 -88t146.5 -32t144.5 32t118 88t79.5 132t29 164t-29 163.5t-79.5 130.5t-118 86t-144.5 31zM1162 1778q0 -129 -44.5 -198.5t-148.5 -69.5q-48 0 -91 13t-80 28.5t-67.5 28.5t-54.5 13q-35 0 -47.5 -20.5t-12.5 -57.5h-172
q0 63 10.5 113t33.5 84.5t59.5 53t89.5 18.5q49 0 92 -13t80 -28.5t67.5 -28.5t53.5 -13q35 0 47.5 20.5t14.5 56.5h170zM511 2059h588v-199h-588v199z" />
    <glyph glyph-name="uni022D" unicode="&#x22d;" horiz-adv-x="1278" 
d="M639 1094q134 0 243.5 -39.5t187 -111.5t120 -174t42.5 -227t-42.5 -227.5t-120 -175t-187 -112.5t-243.5 -40t-243.5 40t-187 112.5t-120 175t-42.5 227.5t42.5 227t120 174t187 111.5t243.5 39.5zM639 806q-51 0 -93.5 -19.5t-72.5 -55t-46.5 -85t-16.5 -109.5
t16.5 -110t46.5 -85t72.5 -54.5t93.5 -19.5t93 19.5t72 54.5t46.5 85t16.5 110t-16.5 109.5t-46.5 85t-72 55t-93 19.5zM998 1466q0 -129 -44.5 -198.5t-148.5 -69.5q-48 0 -91 13t-80 28.5t-67.5 28.5t-54.5 13q-35 0 -47.5 -20.5t-12.5 -57.5h-172q0 63 10.5 113
t33.5 84.5t59.5 53t89.5 18.5q49 0 92 -13t80 -28.5t67.5 -28.5t53.5 -13q35 0 47.5 20.5t14.5 56.5h170zM347 1747h588v-199h-588v199z" />
    <glyph glyph-name="uni0230" unicode="&#x230;" 
d="M803 1424q163 0 302 -54.5t240.5 -151.5t159 -228.5t57.5 -286.5q0 -156 -57.5 -289t-159 -231t-240.5 -153.5t-302 -55.5t-301.5 55.5t-240 153t-159 231t-57.5 289.5q0 155 57.5 287t159 228.5t240 151t301.5 54.5zM808 1112q-78 0 -147.5 -31t-121.5 -86t-82.5 -130.5
t-30.5 -163.5t30.5 -164t83 -132t122 -88t146.5 -32t144.5 32t118 88t79.5 132t29 164t-29 163.5t-79.5 130.5t-118 86t-144.5 31zM803 1843q36 0 66.5 -12t52.5 -34t34 -52.5t12 -66.5t-12 -66t-34 -52t-52.5 -34.5t-66.5 -12.5t-66 12.5t-52 34.5t-34.5 52t-12.5 66
t12.5 66.5t34.5 52.5t52 34t66 12zM510 2098h588v-199h-588v199z" />
    <glyph glyph-name="uni0231" unicode="&#x231;" horiz-adv-x="1278" 
d="M639 1094q134 0 243.5 -39.5t187 -111.5t120 -174t42.5 -227t-42.5 -227.5t-120 -175t-187 -112.5t-243.5 -40t-243.5 40t-187 112.5t-120 175t-42.5 227.5t42.5 227t120 174t187 111.5t243.5 39.5zM639 806q-51 0 -93.5 -19.5t-72.5 -55t-46.5 -85t-16.5 -109.5
t16.5 -110t46.5 -85t72.5 -54.5t93.5 -19.5t93 19.5t72 54.5t46.5 85t16.5 110t-16.5 109.5t-46.5 85t-72 55t-93 19.5zM638 1530q36 0 66.5 -12t52.5 -34t34 -52.5t12 -66.5t-12 -66t-34 -52t-52.5 -34.5t-66.5 -12.5t-66 12.5t-52 34.5t-34.5 52t-12.5 66t12.5 66.5
t34.5 52.5t52 34t66 12zM345 1785h588v-199h-588v199z" />
    <glyph glyph-name="uni0232" unicode="&#x232;" horiz-adv-x="1371" 
d="M504 441l-515 959h372l329 -600l320 600h372l-506 -949v-451h-372v441zM335 1727h701v-209h-701v209z" />
    <glyph glyph-name="uni0233" unicode="&#x233;" horiz-adv-x="1174" 
d="M726 -106q-62 -152 -167 -225t-259 -73q-94 0 -172 27t-154 85l152 246q37 -31 71 -45.5t72 -14.5q89 0 130 83l24 49l-449 1055h373l257 -702l225 702h361zM278 1487h620v-209h-620v209z" />
    <glyph glyph-name="uni0237" unicode="&#x237;" horiz-adv-x="628" 
d="M-54 -105q43 -15 87 -15q106 0 106 133v1068h362v-1121q0 -85 -27.5 -152.5t-78 -114.5t-123 -71.5t-162.5 -23.5q-134 2 -236 43z" />
    <glyph glyph-name="uni0259" unicode="&#x259;" horiz-adv-x="1207" 
d="M596 -13q-142 0 -249 45.5t-177 130.5t-101 205t-22 268h750q-25 91 -88 139.5t-154 48.5q-69 0 -134 -27.5t-119 -81.5l-190 187q85 92 203.5 142t270.5 50q134 0 240.5 -39.5t180.5 -111.5t114 -173.5t40 -225.5q0 -126 -41 -228.5t-115 -175.5t-178.5 -113t-230.5 -40
zM592 238q86 0 140.5 57t71.5 151h-407q0 -47 14 -85.5t40 -65.5t62 -42t79 -15z" />
    <glyph glyph-name="uni02BB" unicode="&#x2bb;" horiz-adv-x="476" 
d="M376 968l-276 62l60 370h216v-432z" />
    <glyph glyph-name="uni02BC" unicode="&#x2bc;" horiz-adv-x="424" 
d="M88 1400h244l-48 -524h-196v524z" />
    <glyph glyph-name="uni02BE" unicode="&#x2be;" horiz-adv-x="450" 
d="M115 1291q21 0 39.5 8t32 21.5t21.5 31.5t8 39t-8 39t-21.5 31.5t-32 21t-39.5 7.5v142q51 0 95 -19t77 -51.5t52 -76.5t19 -94t-19 -94t-52 -77t-77 -52t-95 -19v142z" />
    <glyph glyph-name="uni02BF" unicode="&#x2bf;" horiz-adv-x="448" 
d="M333 1149q-51 0 -95 19t-77 52t-52 77t-19 94t19 94t52 76.5t77 51.5t95 19v-142q-21 0 -39.5 -7.5t-32 -21t-21.5 -31.5t-8 -39t8 -39t21.5 -31.5t32 -21.5t39.5 -8v-142z" />
    <glyph glyph-name="circumflex" unicode="&#x2c6;" horiz-adv-x="820" 
d="M251 1525h318l219 -305h-258l-120 134l-120 -134h-258z" />
    <glyph glyph-name="caron" unicode="&#x2c7;" horiz-adv-x="892" 
d="M545 1220h-318l-219 305h258l120 -133l120 133h258z" />
    <glyph glyph-name="uni02C8" unicode="&#x2c8;" horiz-adv-x="319" 
d="M40 1015v385h239v-385h-239z" />
    <glyph glyph-name="uni02C9" unicode="&#x2c9;" horiz-adv-x="688" 
d="M40 1487h620v-209h-620v209z" />
    <glyph glyph-name="uni02CA" unicode="&#x2ca;" horiz-adv-x="700" 
d="M339 1540l297 -111l-292 -232l-246 20z" />
    <glyph glyph-name="uni02CB" unicode="&#x2cb;" horiz-adv-x="700" 
d="M398 1540l213 -323l-248 -20l-263 232z" />
    <glyph glyph-name="uni02CC" unicode="&#x2cc;" horiz-adv-x="323" 
d="M40 -446v385h243v-385h-243z" />
    <glyph glyph-name="breve" unicode="&#x2d8;" horiz-adv-x="746" 
d="M264 1521q4 -51 33.5 -82t75.5 -31q45 0 75 31t34 82h224q-3 -73 -28.5 -132t-69 -101t-103.5 -65t-132 -23t-132 23t-104 65t-69.5 101t-28.5 132h225z" />
    <glyph glyph-name="dotaccent" unicode="&#x2d9;" horiz-adv-x="700" 
d="M346 1580q42 0 77 -14t60.5 -39t39.5 -60t14 -77t-14 -76.5t-39.5 -60t-60.5 -39.5t-77 -14t-76.5 14t-60 39.5t-39.5 60t-14 76.5t14 77t39.5 60t60 39t76.5 14z" />
    <glyph glyph-name="ring" unicode="&#x2da;" horiz-adv-x="886" 
d="M329 1631q50 0 93 -18.5t75.5 -50.5t51 -75t18.5 -92t-18.5 -92t-51 -75.5t-75.5 -51t-93 -18.5q-49 0 -92 18.5t-75.5 51t-51 75.5t-18.5 92t18.5 92t51 75t75.5 50.5t92 18.5zM329 1482q-37 0 -62.5 -25.5t-25.5 -61.5q0 -37 25.5 -62.5t62.5 -25.5t63 25.5t26 62.5
q0 36 -26 61.5t-63 25.5z" />
    <glyph glyph-name="ogonek" unicode="&#x2db;" horiz-adv-x="606" 
d="M433 0q-72 -53 -112 -99.5t-40 -94.5q0 -28 12 -40.5t33 -12.5q11 0 26 4t30 12l59 -190q-45 -20 -95.5 -32.5t-101.5 -12.5q-54 0 -96 15.5t-70.5 43.5t-43 67t-14.5 86q0 84 49.5 170t158.5 164z" />
    <glyph glyph-name="tilde" unicode="&#x2dc;" horiz-adv-x="799" 
d="M817 1512q0 -76 -11 -134.5t-34.5 -99t-60.5 -61.5t-90 -21q-45 0 -84 14t-72.5 30.5t-61 30.5t-48.5 14q-31 0 -43 -22t-13 -61h-203q0 75 11 134t34.5 99.5t61 62t90.5 21.5q45 0 84 -14t72 -30.5t60.5 -30.5t48.5 -14q32 0 44 22t13 60h202z" />
    <glyph glyph-name="hungarumlaut" unicode="&#x2dd;" horiz-adv-x="1063" 
d="M277 1546l273 -99l-181 -250l-254 19zM674 1546l273 -99l-181 -250l-254 19z" />
    <glyph glyph-name="gravecomb" unicode="&#x300;" horiz-adv-x="1204" 
d="M638 1540l213 -323l-248 -20l-263 232z" />
    <glyph glyph-name="acutecomb" unicode="&#x301;" horiz-adv-x="1084" 
d="M515 1540l297 -111l-292 -232l-246 20z" />
    <glyph glyph-name="uni0302" unicode="&#x302;" horiz-adv-x="820" 
d="M251 1525h318l219 -305h-258l-120 134l-120 -134h-258z" />
    <glyph glyph-name="tildecomb" unicode="&#x303;" horiz-adv-x="799" 
d="M760 1512q0 -76 -11 -134.5t-34.5 -99t-60.5 -61.5t-90 -21q-45 0 -84 14t-72.5 30.5t-61 30.5t-48.5 14q-31 0 -43 -22t-13 -61h-203q0 75 11 134t34.5 99.5t61 62t90.5 21.5q45 0 84 -14t72 -30.5t60.5 -30.5t48.5 -14q32 0 44 22t13 60h202z" />
    <glyph glyph-name="uni0304" unicode="&#x304;" horiz-adv-x="644" 
d="M12 1487h620v-209h-620v209z" />
    <glyph glyph-name="uni0306" unicode="&#x306;" horiz-adv-x="746" 
d="M264 1521q4 -51 33.5 -82t75.5 -31q45 0 75 31t34 82h224q-3 -73 -28.5 -132t-69 -101t-103.5 -65t-132 -23t-132 23t-104 65t-69.5 101t-28.5 132h225z" />
    <glyph glyph-name="uni0307" unicode="&#x307;" horiz-adv-x="526" 
d="M259 1580q42 0 77 -14t60.5 -39t39.5 -60t14 -77t-14 -76.5t-39.5 -60t-60.5 -39.5t-77 -14t-76.5 14t-60 39.5t-39.5 60t-14 76.5t14 77t39.5 60t60 39t76.5 14z" />
    <glyph glyph-name="uni0308" unicode="&#x308;" horiz-adv-x="906" 
d="M250 1532q33 0 61.5 -11.5t48.5 -32t31.5 -49t11.5 -62.5q0 -33 -11.5 -61t-31.5 -49t-48.5 -32.5t-61.5 -11.5q-34 0 -62.5 11.5t-49 32.5t-32 49t-11.5 61q0 34 11.5 62.5t32 49t49 32t62.5 11.5zM634 1532q34 0 62 -11.5t48.5 -32t32 -49t11.5 -62.5q0 -33 -11.5 -61
t-32 -49t-48.5 -32.5t-62 -11.5t-62 11.5t-48.5 32.5t-32 49t-11.5 61q0 34 11.5 62.5t32 49t48.5 32t62 11.5z" />
    <glyph glyph-name="hookabovecomb" unicode="&#x309;" horiz-adv-x="607" 
d="M321 1632q107 0 166 -51.5t59 -136.5q0 -72 -46 -143.5t-127 -135.5l-160 66q43 39 66 80.5t23 73.5q0 24 -16 38.5t-40 14.5q-17 0 -36.5 -6.5t-38.5 -21.5l-93 146q117 76 243 76z" />
    <glyph glyph-name="uni030A" unicode="&#x30a;" horiz-adv-x="660" 
d="M329 1631q50 0 93 -18.5t75.5 -50.5t51 -75t18.5 -92t-18.5 -92t-51 -75.5t-75.5 -51t-93 -18.5q-49 0 -92 18.5t-75.5 51t-51 75.5t-18.5 92t18.5 92t51 75t75.5 50.5t92 18.5zM329 1482q-37 0 -62.5 -25.5t-25.5 -61.5q0 -37 25.5 -62.5t62.5 -25.5t63 25.5t26 62.5
q0 36 -26 61.5t-63 25.5z" />
    <glyph glyph-name="uni030B" unicode="&#x30b;" horiz-adv-x="1041" 
d="M311 1546l273 -99l-181 -250l-254 19zM708 1546l273 -99l-181 -250l-254 19z" />
    <glyph glyph-name="uni030C" unicode="&#x30c;" horiz-adv-x="892" 
d="M605 1220h-318l-219 305h258l120 -133l120 133h258z" />
    <glyph glyph-name="uni030F" unicode="&#x30f;" horiz-adv-x="1041" 
d="M373 1546l161 -330l-254 -19l-180 250zM770 1546l161 -330l-253 -19l-181 250z" />
    <glyph glyph-name="uni0311" unicode="&#x311;" horiz-adv-x="746" 
d="M39 1200q3 73 28.5 132.5t69.5 101.5t104 64.5t132 22.5t132 -22.5t103.5 -64.5t69 -101.5t28.5 -132.5h-224q-4 51 -34 82.5t-75 31.5q-46 0 -75.5 -31.5t-33.5 -82.5h-225z" />
    <glyph glyph-name="uni0312" unicode="&#x312;" horiz-adv-x="524" 
d="M386 1220h-294l149 348h210z" />
    <glyph glyph-name="uni031B" unicode="&#x31b;" horiz-adv-x="453" 
d="M312 1380q47 -113 44.5 -203t-49 -153t-136 -96.5t-218.5 -33.5l24 187q49 0 75.5 20.5t34.5 51t0 66.5t-28 67z" />
    <glyph glyph-name="dotbelowcomb" unicode="&#x323;" horiz-adv-x="526" 
d="M259 -136q42 0 77 -14t60.5 -39t39.5 -60t14 -77t-14 -76.5t-39.5 -60t-60.5 -39.5t-77 -14t-76.5 14t-60 39.5t-39.5 60t-14 76.5t14 77t39.5 60t60 39t76.5 14z" />
    <glyph glyph-name="uni0324" unicode="&#x324;" horiz-adv-x="906" 
d="M274 -133q33 0 61.5 -11.5t48.5 -32t31.5 -49t11.5 -62.5q0 -33 -11.5 -61t-31.5 -49t-48.5 -32.5t-61.5 -11.5q-34 0 -62.5 11.5t-49 32.5t-32 49t-11.5 61q0 34 11.5 62.5t32 49t49 32t62.5 11.5zM658 -133q34 0 62 -11.5t48.5 -32t32 -49t11.5 -62.5q0 -33 -11.5 -61
t-32 -49t-48.5 -32.5t-62 -11.5t-62 11.5t-48.5 32.5t-32 49t-11.5 61q0 34 11.5 62.5t32 49t48.5 32t62 11.5z" />
    <glyph glyph-name="uni0325" unicode="&#x325;" horiz-adv-x="0" 
d="M0 -49q50 0 93 -18.5t75.5 -50.5t51 -75t18.5 -92t-18.5 -92t-51 -75.5t-75.5 -51t-93 -18.5q-49 0 -92 18.5t-75.5 51t-51 75.5t-18.5 92t18.5 92t51 75t75.5 50.5t92 18.5zM0 -198q-37 0 -62.5 -25.5t-25.5 -61.5q0 -37 25.5 -62.5t62.5 -25.5t63 25.5t26 62.5
q0 36 -26 61.5t-63 25.5z" />
    <glyph glyph-name="uni0326" unicode="&#x326;" horiz-adv-x="496" 
d="M108 -120h295l-149 -348h-210z" />
    <glyph glyph-name="uni0327" unicode="&#x327;" horiz-adv-x="659" 
d="M272 54l201 -18l-41 -112q89 -20 126.5 -63.5t37.5 -98.5q0 -51 -21.5 -88t-57 -60t-82 -34t-96.5 -11q-57 0 -114 10.5t-107 28.5l56 160q23 -8 49.5 -13t51.5 -5q36 0 58.5 12t22.5 31q0 24 -31.5 36t-76.5 12h-46z" />
    <glyph glyph-name="uni0328" unicode="&#x328;" horiz-adv-x="606" 
d="M509 0q-72 -53 -112.5 -99.5t-40.5 -94.5q0 -28 12.5 -40.5t32.5 -12.5q12 0 27 4t30 12l58 -190q-44 -20 -95 -32.5t-101 -12.5q-55 0 -96.5 15.5t-70 43.5t-43 67t-14.5 86q0 84 49.5 170t158.5 164z" />
    <glyph glyph-name="uni032D" unicode="&#x32d;" horiz-adv-x="0" 
d="M-159 -87h318l219 -305h-258l-120 134l-120 -134h-258z" />
    <glyph glyph-name="uni032E" unicode="&#x32e;" horiz-adv-x="746" 
d="M264 -118q4 -51 33.5 -82t75.5 -31q45 0 75 31t34 82h224q-3 -73 -28.5 -132t-69 -101t-103.5 -65t-132 -23t-132 23t-104 65t-69.5 101t-28.5 132h225z" />
    <glyph glyph-name="uni0330" unicode="&#x330;" horiz-adv-x="0" 
d="M304 -82q0 -76 -11 -134.5t-34.5 -99t-60.5 -61.5t-90 -21q-45 0 -84 14t-72.5 30.5t-61 30.5t-48.5 14q-31 0 -43 -22t-13 -61h-203q0 75 11 134t34.5 99.5t61 62t90.5 21.5q45 0 84 -14t72 -30.5t60.5 -30.5t48.5 -14q32 0 44 22t13 60h202z" />
    <glyph glyph-name="uni0331" unicode="&#x331;" horiz-adv-x="764" 
d="M72 -155h620v-209h-620v209z" />
    <glyph glyph-name="uni0335" unicode="&#x335;" horiz-adv-x="817" 
d="M14 970h789v-196h-789v196z" />
    <glyph glyph-name="uni0336" unicode="&#x336;" horiz-adv-x="1200" 
d="M156 970h879v-196h-879v196z" />
    <glyph glyph-name="uni0337" unicode="&#x337;" horiz-adv-x="712" 
d="M703 1130l-335 -950h-304l335 950h304z" />
    <glyph glyph-name="uni0338" unicode="&#x338;" horiz-adv-x="712" 
d="M1 0l523 1484h304l-523 -1484h-304z" />
    <glyph glyph-name="tonos" unicode="&#x384;" horiz-adv-x="412" 
d="M99 1513h328l-215 -299h-222z" />
    <glyph glyph-name="dieresistonos" unicode="&#x385;" horiz-adv-x="1056" 
d="M428 1552h328l-214 -299h-222zM869 1248q-33 0 -61 11t-48.5 31t-32 48t-11.5 61t11.5 60.5t32 48t48.5 31.5t61 11t61 -11t48.5 -31.5t32 -48t11.5 -60.5t-11.5 -61t-32 -48t-48.5 -31t-61 -11zM187 1248q-33 0 -61 11t-48.5 31t-32 48t-11.5 61t11.5 60.5t32 48
t48.5 31.5t61 11t61 -11t48.5 -31.5t32 -48t11.5 -60.5t-11.5 -61t-32 -48t-48.5 -31t-61 -11z" />
    <glyph glyph-name="Alphatonos" unicode="&#x386;" horiz-adv-x="1559" 
d="M591 1400h381l587 -1400h-397l-95 248h-599l-96 -248h-383zM961 527l-190 501l-195 -501h385zM156 1513h328l-215 -299h-222z" />
    <glyph glyph-name="Epsilontonos" unicode="&#x388;" horiz-adv-x="1748" 
d="M558 1400h1110v-292h-738v-260h666v-291h-666v-266h758v-291h-1130v1400zM127 1513h328l-215 -299h-222z" />
    <glyph glyph-name="Etatonos" unicode="&#x389;" horiz-adv-x="1990" 
d="M527 1400h372v-571h557v571h372v-1400h-372v537h-557v-537h-372v1400zM104 1513h328l-215 -299h-222z" />
    <glyph glyph-name="Iotatonos" unicode="&#x38a;" horiz-adv-x="1011" 
d="M107 1513h328l-215 -299h-222zM491 1400h372v-1400h-372v1400z" />
    <glyph glyph-name="Omicrontonos" unicode="&#x38c;" horiz-adv-x="1780" 
d="M915 1421q163 0 302 -54.5t240.5 -151.5t159 -228.5t57.5 -286.5q0 -156 -57.5 -289t-159 -231t-240.5 -153.5t-302 -55.5t-301.5 55.5t-240 153t-159 231t-57.5 289.5q0 155 57.5 287t159 228.5t240 151t301.5 54.5zM920 1109q-78 0 -147.5 -31t-121.5 -86t-82.5 -130.5
t-30.5 -163.5t30.5 -164t83 -132t122 -88t146.5 -32t144.5 32t118 88t79.5 132t29 164t-29 163.5t-79.5 130.5t-118 86t-144.5 31zM103 1513h328l-215 -299h-222z" />
    <glyph glyph-name="Upsilontonos" unicode="&#x38e;" horiz-adv-x="1789" 
d="M922 441l-515 959h372l329 -600l320 600h372l-506 -949v-451h-372v441zM130 1513h328l-215 -299h-222z" />
    <glyph glyph-name="Omegatonos" unicode="&#x38f;" horiz-adv-x="1830" 
d="M1069 327q65 35 114 80.5t82 98.5t49.5 111.5t16.5 117.5q0 78 -27.5 147t-78.5 120.5t-123.5 81.5t-162.5 30t-162 -30t-123 -81t-78 -120t-27 -147q0 -60 17 -118.5t50 -112t82 -99t113 -79.5v-327h-711v291h366q-58 46 -104 102.5t-77.5 120t-48.5 131.5t-17 137
q0 135 55 251t152 201.5t228.5 134t284.5 48.5q102 0 195.5 -22t173.5 -62.5t145.5 -98t111.5 -128.5t71 -153.5t25 -172.5q0 -68 -17 -135.5t-48.5 -131t-77.5 -120t-103 -102.5h364v-291h-710v327zM109 1513h328l-215 -299h-222z" />
    <glyph glyph-name="iotadieresistonos" unicode="&#x390;" horiz-adv-x="743" 
d="M519 404q0 -59 26 -84.5t68 -25.5q47 0 103 29l28 -294q-104 -46 -207 -46q-76 0 -144.5 24.5t-120.5 74.5t-83 126.5t-31 179.5v694h361v-678zM272 1552h328l-214 -299h-222zM713 1248q-33 0 -61 11t-48.5 31t-32 48t-11.5 61t11.5 60.5t32 48t48.5 31.5t61 11t61 -11
t48.5 -31.5t32 -48t11.5 -60.5t-11.5 -61t-32 -48t-48.5 -31t-61 -11zM31 1248q-33 0 -61 11t-48.5 31t-32 48t-11.5 61t11.5 60.5t32 48t48.5 31.5t61 11t61 -11t48.5 -31.5t32 -48t11.5 -60.5t-11.5 -61t-32 -48t-48.5 -31t-61 -11z" />
    <glyph glyph-name="Alpha" unicode="&#x391;" horiz-adv-x="1559" 
d="M-25 0l620 1400h369l620 -1400h-388l-114 281h-611l-114 -281h-382zM969 558l-193 476l-192 -476h385z" />
    <glyph glyph-name="Beta" unicode="&#x392;" horiz-adv-x="1432" 
d="M802 1400q119 0 215.5 -25t164.5 -70.5t104.5 -110.5t36.5 -146q0 -55 -17 -103.5t-48 -88.5t-75.5 -69t-99.5 -44q66 -13 119 -44.5t90.5 -77.5t57.5 -104.5t20 -126.5q0 -90 -38 -162t-108.5 -123t-171 -78t-224.5 -27h-694v1400h668zM781 285q94 -1 148.5 39t54.5 112
q0 66 -54.5 105t-148.5 38h-276v-294h276zM781 843q75 0 117.5 36.5t42.5 102.5q0 63 -42.5 98.5t-117.5 34.5h-276v-272h276z" />
    <glyph glyph-name="Gamma" unicode="&#x393;" horiz-adv-x="1198" 
d="M158 0v1400h1013l-1 -299h-644v-1101h-368z" />
    <glyph glyph-name="uni0394" unicode="&#x394;" horiz-adv-x="1548" 
d="M591 1400h381l587 -1400h-1570zM1059 269l-289 759l-293 -759h582z" />
    <glyph glyph-name="Epsilon" unicode="&#x395;" horiz-adv-x="1352" 
d="M134 1400h1110v-292h-738v-260h666v-291h-666v-266h758v-291h-1130v1400z" />
    <glyph glyph-name="Zeta" unicode="&#x396;" horiz-adv-x="1351" 
d="M78 1400h1206v-238l-732 -868h745v-294h-1243v238l733 868h-709v294z" />
    <glyph glyph-name="Eta" unicode="&#x397;" horiz-adv-x="1569" 
d="M134 1400h372v-571h557v571h372v-1400h-372v537h-557v-537h-372v1400z" />
    <glyph glyph-name="Theta" unicode="&#x398;" horiz-adv-x="1690" 
d="M847 -26q-106 0 -205 23t-185 67t-157 107.5t-121.5 144t-78.5 177.5t-28 207t28 206.5t78.5 177t121 144.5t156.5 108t185 67t205 23q168 0 308.5 -53t244.5 -152q105 -99 162.5 -230.5t57.5 -290.5q0 -158 -57.5 -290t-162.5 -231q-104 -99 -244 -152t-308 -53z
M1125 837v-267h-549v267h549zM846 284q90 0 162.5 32.5t124.5 88.5t80 132t28 163t-28 163t-80 132t-124.5 88.5t-162.5 32.5t-163.5 -32t-125 -88t-80 -132t-28.5 -164t28.5 -164t80 -132t125 -88t163.5 -32z" />
    <glyph glyph-name="Iota" unicode="&#x399;" horiz-adv-x="640" 
d="M134 1400h372v-1400h-372v1400z" />
    <glyph glyph-name="Kappa" unicode="&#x39a;" horiz-adv-x="1501" 
d="M134 1400h372v-607l518 607h431l-519 -575l551 -825h-445l-361 542l-175 -194v-348h-372v1400z" />
    <glyph glyph-name="Lambda" unicode="&#x39b;" horiz-adv-x="1559" 
d="M-25 0l620 1400h369l620 -1400h-388l-420 1034l-419 -1034h-382z" />
    <glyph glyph-name="Mu" unicode="&#x39c;" horiz-adv-x="1878" 
d="M134 1400h404l402 -819l399 819h404v-1400h-330l-1 888l-353 -748h-240l-355 748v-888h-330v1400z" />
    <glyph glyph-name="Nu" unicode="&#x39d;" horiz-adv-x="1570" 
d="M134 1400h325l631 -840v840h345v-1400h-325l-629 836v-836h-347v1400z" />
    <glyph glyph-name="Xi" unicode="&#x39e;" horiz-adv-x="1557" 
d="M148 0v297h1260v-297h-1260zM306 584v248h948v-248h-948zM178 1101v299h1200v-299h-1200z" />
    <glyph glyph-name="Omicron" unicode="&#x39f;" 
d="M803 1424q163 0 302 -54.5t240.5 -151.5t159 -228.5t57.5 -286.5q0 -156 -57.5 -289t-159 -231t-240.5 -153.5t-302 -55.5t-301.5 55.5t-240 153t-159 231t-57.5 289.5q0 155 57.5 287t159 228.5t240 151t301.5 54.5zM808 1112q-78 0 -147.5 -31t-121.5 -86t-82.5 -130.5
t-30.5 -163.5t30.5 -164t83 -132t122 -88t146.5 -32t144.5 32t118 88t79.5 132t29 164t-29 163.5t-79.5 130.5t-118 86t-144.5 31z" />
    <glyph glyph-name="Pi" unicode="&#x3a0;" horiz-adv-x="1616" 
d="M158 0v1400h1301v-1400h-369v1101h-564v-1101h-368z" />
    <glyph glyph-name="Rho" unicode="&#x3a1;" horiz-adv-x="1360" 
d="M751 1400q135 0 240 -33t177 -95.5t110 -154t38 -208.5q0 -124 -38 -220.5t-110 -163.5t-177 -102t-240 -35h-245v-388h-372v1400h617zM733 680q110 0 170 55t60 163q0 105 -60 157.5t-170 52.5h-227v-428h227z" />
    <glyph glyph-name="Sigma" unicode="&#x3a3;" horiz-adv-x="1331" 
d="M84 0v279l468 425l-468 414v280l1131 2v-297l-687 -3l402 -330v-142l-390 -330h675v-298h-1131z" />
    <glyph glyph-name="Tau" unicode="&#x3a4;" horiz-adv-x="1260" 
d="M443 1101h-435v299h1244v-299h-435v-1101h-374v1101z" />
    <glyph glyph-name="Upsilon" unicode="&#x3a5;" horiz-adv-x="1375" 
d="M500 504l-537 896h396l344 -576l345 576h364l-537 -900v-500h-375v504z" />
    <glyph glyph-name="Phi" unicode="&#x3a6;" horiz-adv-x="1834" 
d="M746 89q-93 7 -183 24.5t-171 49.5t-150 79.5t-119 113.5t-78 152.5t-28 195.5q0 107 27 192.5t75.5 151.5t116.5 114t149 80.5t172.5 51t188.5 25.5v145h344v-144q94 -6 184 -23.5t171 -49.5t149.5 -80.5t118 -115t77.5 -152.5t28 -195q0 -107 -27 -192.5t-75 -152
t-115.5 -115.5t-148.5 -81.5t-173 -51t-189 -23.5v-153h-344v154zM379 704q0 -83 29.5 -140.5t79.5 -95t116.5 -58t141.5 -29.5v646q-74 -7 -140.5 -26t-117 -56t-80 -95.5t-29.5 -145.5zM1456 706q0 84 -28.5 141.5t-78 95t-116.5 57.5t-143 29v-649q74 8 140.5 27.5
t116.5 56.5t79.5 96t29.5 146z" />
    <glyph glyph-name="Chi" unicode="&#x3a7;" horiz-adv-x="1461" 
d="M511 711l-489 689h422l293 -420l288 420h404l-488 -676l521 -724h-430l-306 450l-299 -450h-428z" />
    <glyph glyph-name="Psi" unicode="&#x3a8;" horiz-adv-x="1834" 
d="M1814 1400q2 -172 3 -271t1 -127q0 -196 -95 -351q-50 -83 -121.5 -138.5t-154.5 -89t-174.5 -50t-182.5 -21.5v-417h-344v418q-90 6 -180.5 23t-173.5 50.5t-154.5 87.5t-123.5 134q-102 154 -97 354q2 78 3.5 177t3.5 221h360q-2 -171 -3.5 -270t-1.5 -128
q0 -118 61 -207q26 -39 61 -65t74.5 -43.5t83 -26.5t87.5 -14v818h344v-820q41 5 76.5 12t67.5 17q57 18 99 50.5t69 75.5t40.5 95t13.5 110q0 26 -1 124.5t-3 271.5h362z" />
    <glyph glyph-name="uni03A9" unicode="&#x3a9;" horiz-adv-x="1705" 
d="M982 327q65 35 114 80.5t82 98.5t49.5 111.5t16.5 117.5q0 78 -27.5 147t-78.5 120.5t-123.5 81.5t-162.5 30t-162 -30t-123 -81t-78 -120t-27 -147q0 -60 17 -118.5t50 -112t82 -99t113 -79.5v-327h-711v291h366q-58 46 -104 102.5t-77.5 120t-48.5 131.5t-17 137
q0 135 55 251t152 201.5t228.5 134t284.5 48.5q102 0 195.5 -22t173.5 -62.5t145.5 -98t111.5 -128.5t71 -153.5t25 -172.5q0 -68 -17 -135.5t-48.5 -131t-77.5 -120t-103 -102.5h364v-291h-710v327z" />
    <glyph glyph-name="Iotadieresis" unicode="&#x3aa;" horiz-adv-x="640" 
d="M134 1400h372v-1400h-372v1400zM128 1850q33 0 61.5 -11.5t48.5 -32t31.5 -49t11.5 -62.5q0 -33 -11.5 -61t-31.5 -49t-48.5 -32.5t-61.5 -11.5q-34 0 -62.5 11.5t-49 32.5t-32 49t-11.5 61q0 34 11.5 62.5t32 49t49 32t62.5 11.5zM512 1850q34 0 62 -11.5t48.5 -32
t32 -49t11.5 -62.5q0 -33 -11.5 -61t-32 -49t-48.5 -32.5t-62 -11.5t-62 11.5t-48.5 32.5t-32 49t-11.5 61q0 34 11.5 62.5t32 49t48.5 32t62 11.5z" />
    <glyph glyph-name="Upsilondieresis" unicode="&#x3ab;" horiz-adv-x="1375" 
d="M500 504l-537 896h396l344 -576l345 576h364l-537 -900v-500h-375v504zM496 1818q33 0 61.5 -11.5t48.5 -32t31.5 -49t11.5 -62.5q0 -33 -11.5 -61t-31.5 -49t-48.5 -32.5t-61.5 -11.5q-34 0 -62.5 11.5t-49 32.5t-32 49t-11.5 61q0 34 11.5 62.5t32 49t49 32t62.5 11.5z
M880 1818q34 0 62 -11.5t48.5 -32t32 -49t11.5 -62.5q0 -33 -11.5 -61t-32 -49t-48.5 -32.5t-62 -11.5t-62 11.5t-48.5 32.5t-32 49t-11.5 61q0 34 11.5 62.5t32 49t48.5 32t62 11.5z" />
    <glyph glyph-name="alphatonos" unicode="&#x3ac;" horiz-adv-x="1366" 
d="M868 137q-57 -73 -136.5 -112t-180.5 -39q-114 0 -207.5 40.5t-159.5 114t-102 176.5t-36 229q0 124 35.5 225.5t100.5 173.5t156.5 111t203.5 39q104 0 186 -39.5t140 -112.5v139h362v-1082h-362v137zM640 807q-51 0 -93.5 -20t-72.5 -55.5t-47 -85.5t-17 -110
t17 -109.5t47 -85t72 -55t94 -19.5q51 0 93 19.5t72 55t46.5 85t16.5 109.5t-16.5 110t-46.5 86t-72 55.5t-93 19.5zM574 1513h328l-215 -299h-222z" />
    <glyph glyph-name="epsilontonos" unicode="&#x3ad;" horiz-adv-x="1165" 
d="M620 -22q-117 0 -219 23.5t-177 68t-118.5 108.5t-43.5 146q0 85 51.5 146.5t145.5 91.5q-76 36 -121.5 97t-45.5 137q0 74 40 131t110.5 96t166 59.5t206.5 20.5q118 0 232.5 -26.5t223.5 -71.5l-84 -240q-92 35 -178 54t-167 19q-97 0 -142 -24.5t-45 -68.5
q0 -88 144 -88h198v-213h-230q-142 0 -142 -91q0 -54 56 -81t152 -27q100 0 195.5 18.5t183.5 57.5l94 -246q-111 -50 -236 -73.5t-250 -23.5zM637 1513h328l-215 -299h-222z" />
    <glyph glyph-name="etatonos" unicode="&#x3ae;" horiz-adv-x="1389" 
d="M818 1099q110 0 193.5 -33.5t140 -96t85.5 -151.5t29 -200v-1018h-360v961q0 121 -49.5 176t-139.5 55q-60 0 -103 -20t-70.5 -56t-41 -84.5t-13.5 -105.5v-526h-359v1082h342v-122q66 71 155 105t191 34zM685 1513h328l-215 -299h-222z" />
    <glyph glyph-name="iotatonos" unicode="&#x3af;" horiz-adv-x="696" 
d="M476 404q0 -59 26 -84.5t68 -25.5q47 0 103 29l28 -294q-104 -46 -207 -46q-76 0 -144.5 24.5t-120.5 74.5t-83 126.5t-31 179.5v694h361v-678zM297 1513h328l-215 -299h-222z" />
    <glyph glyph-name="upsilondieresistonos" unicode="&#x3b0;" horiz-adv-x="1374" 
d="M686 -25q-122 0 -225 33t-178 98.5t-117.5 164t-42.5 229.5v582h365v-571q0 -121 51.5 -182t149.5 -61q199 0 199 243v571h359v-582q0 -127 -40 -224.5t-113.5 -164.5t-177 -101.5t-230.5 -34.5zM587 1552h328l-214 -299h-222zM1028 1248q-33 0 -61 11t-48.5 31t-32 48
t-11.5 61t11.5 60.5t32 48t48.5 31.5t61 11t61 -11t48.5 -31.5t32 -48t11.5 -60.5t-11.5 -61t-32 -48t-48.5 -31t-61 -11zM346 1248q-33 0 -61 11t-48.5 31t-32 48t-11.5 61t11.5 60.5t32 48t48.5 31.5t61 11t61 -11t48.5 -31.5t32 -48t11.5 -60.5t-11.5 -61t-32 -48
t-48.5 -31t-61 -11z" />
    <glyph glyph-name="alpha" unicode="&#x3b1;" horiz-adv-x="1374" 
d="M868 137q-57 -73 -136.5 -112t-180.5 -39q-114 0 -207.5 40.5t-159.5 114t-102 176.5t-36 229q0 124 35.5 225.5t100.5 173.5t156.5 111t203.5 39q104 0 186 -39.5t140 -112.5v139h362v-1082h-362v137zM640 807q-51 0 -93.5 -20t-72.5 -55.5t-47 -85.5t-17 -110
t17 -109.5t47 -85t72 -55t94 -19.5q51 0 93 19.5t72 55t46.5 85t16.5 109.5t-16.5 110t-46.5 86t-72 55.5t-93 19.5z" />
    <glyph glyph-name="beta" unicode="&#x3b2;" horiz-adv-x="1360" 
d="M684 -15q-128 0 -247 33v-418h-333v1195q0 140 39 259.5t115.5 208t189.5 138.5t262 50q48 0 98.5 -7t98 -22t89.5 -38.5t73.5 -57.5t50 -78.5t18.5 -100.5q0 -75 -26.5 -131.5t-79.5 -104.5l-56 -52q72 -12 131 -40t101 -74t65 -110.5t23 -150.5q0 -89 -24 -160.5
t-66.5 -127t-101 -95.5t-126.5 -66t-143 -38t-151 -12zM446 357q55 -42 117 -70.5t138 -28.5q50 0 99.5 12.5t88.5 39.5t63.5 69.5t24.5 102.5q0 38 -11.5 66t-32 46.5t-49 27.5t-62.5 9q-28 0 -52 -9.5t-45 -23.5t-40 -31t-36 -32zM779 953q32 27 49 65t17 65
q0 26 -12.5 44t-32.5 29t-43.5 16.5t-46.5 5.5q-78 0 -130.5 -34.5t-84 -90t-45 -125t-13.5 -140.5v-143z" />
    <glyph glyph-name="gamma" unicode="&#x3b3;" horiz-adv-x="1238" 
d="M430 127l-464 955h385l272 -597l271 597h365l-465 -956v-526h-364v527z" />
    <glyph glyph-name="delta" unicode="&#x3b4;" horiz-adv-x="1358" 
d="M679 -11q-118 0 -224 37t-186.5 107t-127.5 170t-47 227q0 125 50.5 232.5t150.5 182.5q-41 41 -58.5 95.5t-17.5 113.5q0 64 22.5 113.5t61 87t89 63.5t106 42t113 23.5t109.5 7.5q49 0 103 -4.5t108 -14.5t105 -26t94 -40l-107 -239q-78 42 -154 58.5t-147 16.5
q-21 0 -51.5 -3.5t-59 -14t-49 -29.5t-20.5 -49q0 -31 23.5 -46.5t56.5 -22t67.5 -7.5t56.5 -3q109 -10 203.5 -52t164.5 -111t110 -163.5t40 -210.5q0 -124 -45.5 -224.5t-125 -170.5t-186 -108t-228.5 -38zM679 266q56 0 100 20.5t74 56.5t46 84t16 103q0 53 -15 100.5
t-44.5 83.5t-73.5 57t-102 21q-56 0 -100 -20.5t-74.5 -56t-46.5 -83t-16 -102.5q0 -53 15.5 -101t45.5 -84t74 -57.5t101 -21.5z" />
    <glyph glyph-name="epsilon" unicode="&#x3b5;" horiz-adv-x="1188" 
d="M620 -22q-117 0 -219 23.5t-177 68t-118.5 108.5t-43.5 146q0 85 51.5 146.5t145.5 91.5q-76 36 -121.5 97t-45.5 137q0 74 40 131t110.5 96t166 59.5t206.5 20.5q118 0 232.5 -26.5t223.5 -71.5l-84 -240q-92 35 -178 54t-167 19q-97 0 -142 -24.5t-45 -68.5
q0 -88 144 -88h198v-213h-230q-142 0 -142 -91q0 -54 56 -81t152 -27q100 0 195.5 18.5t183.5 57.5l94 -246q-111 -50 -236 -73.5t-250 -23.5z" />
    <glyph glyph-name="zeta" unicode="&#x3b6;" horiz-adv-x="1136" 
d="M1056 1153q-130 -130 -238.5 -246.5t-185 -215t-116.5 -177.5t-34.5 -134.5t61.5 -85t172 -29.5q123 0 203 -47.5t112.5 -134.5t16 -210t-87.5 -273h-329q249 401 -11 401q-53 0 -110 4.5t-112.5 16.5t-106 33t-89.5 54.5t-64.5 81t-29.5 112.5q-24 302 518 841h-463v282
h894v-273z" />
    <glyph glyph-name="eta" unicode="&#x3b7;" horiz-adv-x="1391" 
d="M818 1099q110 0 193.5 -33.5t140 -96t85.5 -151.5t29 -200v-1018h-360v961q0 121 -49.5 176t-139.5 55q-60 0 -103 -20t-70.5 -56t-41 -84.5t-13.5 -105.5v-526h-359v1082h342v-122q66 71 155 105t191 34z" />
    <glyph glyph-name="theta" unicode="&#x3b8;" horiz-adv-x="1498" 
d="M744 -26q-150 0 -271.5 54t-207.5 149t-132.5 224t-46.5 279q0 146 45.5 274.5t130.5 224.5t207 151.5t274 55.5t275.5 -53t210.5 -147t134.5 -223.5t47.5 -282.5q0 -150 -46.5 -279t-132.5 -224t-209.5 -149t-278.5 -54zM743 284q71 0 128 20.5t99.5 57t71 88
t41.5 112.5h-680q13 -61 41 -112t70.5 -88t99.5 -57.5t129 -20.5zM743 1076q-70 0 -126 -19.5t-99 -55.5t-71.5 -86t-42.5 -110h677q-14 59 -42 109t-70 86t-98.5 56t-127.5 20z" />
    <glyph glyph-name="iota" unicode="&#x3b9;" horiz-adv-x="696" 
d="M476 404q0 -59 26 -84.5t68 -25.5q47 0 103 29l28 -294q-104 -46 -207 -46q-76 0 -144.5 24.5t-120.5 74.5t-83 126.5t-31 179.5v694h361v-678z" />
    <glyph glyph-name="kappa" unicode="&#x3ba;" horiz-adv-x="1270" 
d="M144 1081h361v-382l339 382h410l-396 -417l405 -664h-429l-223 405l-106 -111v-294h-361v1081z" />
    <glyph glyph-name="lambda" unicode="&#x3bb;" horiz-adv-x="1227" 
d="M300 1487q93 0 166 -22.5t129.5 -67t100 -110.5t78.5 -153l474 -1134h-343l-279 684l-277 -684h-369l464 1094q-24 55 -60 81.5t-97 26.5q-45 0 -90.5 -17.5t-80.5 -47.5l-127 252q30 25 68 43.5t79 30.5t83 18t81 6z" />
    <glyph glyph-name="uni03BC" unicode="&#x3bc;" horiz-adv-x="1381" 
d="M130 1082h359v-549q0 -49 9 -93t31.5 -77.5t59.5 -53t92 -19.5q57 0 98.5 21.5t67.5 58t38.5 84.5t12.5 102v526h360v-1082h-318v126q-42 -66 -108.5 -104.5t-157.5 -38.5q-54 0 -100.5 14t-84.5 40v-437h-359v1482z" />
    <glyph glyph-name="nu" unicode="&#x3bd;" horiz-adv-x="1154" 
d="M-11 1081h373l223 -751l223 751h362l-405 -1081h-371z" />
    <glyph glyph-name="xi" unicode="&#x3be;" horiz-adv-x="1056" 
d="M897 548h-125q-67 0 -135 -3t-123 -18t-89.5 -47t-34.5 -89q0 -127 241 -127q82 0 149.5 -14t116 -47.5t75.5 -89.5t27 -141q0 -73 -23 -165t-72 -207h-329q119 194 119 294q0 37 -10.5 58t-29.5 31.5t-46 13t-60 2.5q-101 0 -189.5 17.5t-154 60.5t-103 114t-37.5 177
q0 339 353 339q-306 0 -306 217q0 216 276 216h-302v285h873v-285q-33 0 -80.5 -0.5t-99 -5t-102.5 -13.5t-91.5 -26.5t-66 -44t-25.5 -66.5q0 -123 198 -123h206v-313z" />
    <glyph glyph-name="omicron" unicode="&#x3bf;" horiz-adv-x="1278" 
d="M639 1094q134 0 243.5 -39.5t187 -111.5t120 -174t42.5 -227t-42.5 -227.5t-120 -175t-187 -112.5t-243.5 -40t-243.5 40t-187 112.5t-120 175t-42.5 227.5t42.5 227t120 174t187 111.5t243.5 39.5zM639 806q-51 0 -93.5 -19.5t-72.5 -55t-46.5 -85t-16.5 -109.5
t16.5 -110t46.5 -85t72.5 -54.5t93.5 -19.5t93 19.5t72 54.5t46.5 85t16.5 110t-16.5 109.5t-46.5 85t-72 55t-93 19.5z" />
    <glyph glyph-name="pi" unicode="&#x3c0;" horiz-adv-x="1360" 
d="M1248 1082v-1082h-359v822h-418v-822h-359v1082h1136z" />
    <glyph glyph-name="rho" unicode="&#x3c1;" horiz-adv-x="1346" 
d="M681 -14q-64 0 -131 12t-123 43v-441h-351v944q0 130 48 233t130.5 175t192.5 110.5t234 38.5q125 0 235 -38t192.5 -110t130.5 -175.5t48 -233.5t-48 -233.5t-130.5 -175.5t-192.5 -110.5t-235 -38.5zM681 274q59 0 104.5 21.5t76 58t46 86t15.5 104.5q0 56 -15.5 104.5
t-46 85.5t-75.5 58t-104 21t-104.5 -21t-76 -58t-46.5 -85.5t-16 -104.5q0 -55 16 -104t46.5 -86t76 -58.5t103.5 -21.5z" />
    <glyph glyph-name="uni03C2" unicode="&#x3c2;" horiz-adv-x="1092" 
d="M619 0q-126 0 -231 37.5t-181 107t-118.5 169t-42.5 223.5q0 126 40.5 228.5t114 175.5t177 113t229.5 40q166 0 291.5 -67t195.5 -188l-265 -151q-35 53 -86.5 82.5t-119.5 29.5q-47 0 -86.5 -19t-67.5 -53.5t-43.5 -82.5t-15.5 -107t18 -105t49 -77.5t73 -48t89 -16.5
q78 0 151.5 -22.5t130 -67.5t90.5 -112t34 -157q0 -78 -24 -163.5t-62 -168.5h-329q122 193 122 293q0 107 -133 107z" />
    <glyph glyph-name="sigma" unicode="&#x3c3;" horiz-adv-x="1436" 
d="M677 -17q-125 0 -235.5 39.5t-192.5 112t-129.5 176t-47.5 231.5q0 135 49 237t133 170.5t194.5 103.5t233.5 35q59 0 117.5 -0.5t118.5 -0.5h446v-252h-162q40 -63 60.5 -137t20.5 -156q0 -131 -48.5 -235t-131.5 -176t-193 -110t-233 -38zM677 271q58 0 103 21.5t76 58
t47 86t16 105.5q0 55 -15.5 104t-45.5 85.5t-75.5 58t-105.5 21.5q-58 0 -103 -21t-76 -57.5t-47 -85.5t-16 -105q0 -55 15.5 -104t46 -86t76 -59t104.5 -22z" />
    <glyph glyph-name="tau" unicode="&#x3c4;" horiz-adv-x="1240" 
d="M1188 1082v-296h-373v-786h-389v787h-374v295h1136z" />
    <glyph glyph-name="upsilon" unicode="&#x3c5;" horiz-adv-x="1376" 
d="M686 -25q-122 0 -225 33t-178 98.5t-117.5 164t-42.5 229.5v582h365v-571q0 -121 51.5 -182t149.5 -61q199 0 199 243v571h359v-582q0 -127 -40 -224.5t-113.5 -164.5t-177 -101.5t-230.5 -34.5z" />
    <glyph glyph-name="phi" unicode="&#x3c6;" horiz-adv-x="1681" 
d="M660 -6q-162 18 -274 73q-76 37 -136 83.5t-101.5 105t-63.5 130t-22 158.5q0 177 82 295.5t241 191.5q56 26 124.5 42.5t150.5 25.5l1 220h355l1 -220q120 -12 229 -49t191.5 -104.5t131 -166.5t48.5 -236q0 -87 -22 -158.5t-63.5 -129.5t-101.5 -104.5t-136 -84.5
q-109 -54 -275 -72v-394h-361zM371 548q0 -69 21.5 -118t59.5 -83t91.5 -54.5t116.5 -32.5l1 573q-58 -11 -111 -31.5t-92.5 -54.5t-63 -82.5t-23.5 -116.5zM1306 546q0 68 -22 116t-61 81.5t-91.5 54.5t-113.5 34l1 -571q61 12 113.5 31t91 52t60.5 82t22 120z" />
    <glyph glyph-name="chi" unicode="&#x3c7;" horiz-adv-x="1224" 
d="M431 344l-418 738h404l203 -431l210 431h381l-418 -723l432 -759h-410l-208 448l-217 -448h-391z" />
    <glyph glyph-name="psi" unicode="&#x3c8;" horiz-adv-x="1619" 
d="M993 320q29 11 57 25.5t52.5 33.5t45 42.5t33.5 51.5q21 43 34 90t20 99q15 173 3 420h329q4 -103 3 -207t-8 -213q-12 -185 -101 -348q-36 -67 -86.5 -119t-111 -90t-129 -63.5t-141.5 -39.5l1 -402h-363v404q-72 14 -140.5 39.5t-128.5 64t-110.5 90t-88.5 116.5
q-92 161 -106 348q-6 109 -4.5 213t9.5 207h331q-12 -125 -15 -228.5t4 -191.5q12 -115 64.5 -197t158.5 -131q7 -3 13.5 -6t12.5 -6l1 997h360z" />
    <glyph glyph-name="omega" unicode="&#x3c9;" horiz-adv-x="1754" 
d="M1464 1102q53 -48 95.5 -111t72 -133.5t45.5 -146t16 -147.5q0 -115 -29 -221.5t-90 -188t-153.5 -130t-220.5 -48.5q-113 0 -196 51.5t-128 139.5q-22 -42 -56.5 -76t-76.5 -58t-91 -36.5t-102 -12.5q-77 0 -143 22.5t-121 62.5t-97.5 94t-71.5 117t-44 133t-15 140
q0 42 9 92t25.5 102.5t39.5 105t51 99.5t60.5 86t67.5 64l222 -149q-34 -34 -65 -79t-54 -95t-36.5 -101t-13.5 -97q0 -45 10 -95.5t32.5 -92.5t60 -70t91.5 -28q46 0 77 16t50 43.5t27 64t8 77.5l-1 334h313l1 -352q0 -33 4 -65t16.5 -57.5t36 -41t62.5 -15.5q57 0 99 23
t70.5 60.5t42.5 86t14 99.5q0 110 -45 210.5t-122 176.5z" />
    <glyph glyph-name="iotadieresis" unicode="&#x3ca;" horiz-adv-x="696" 
d="M476 404q0 -59 26 -84.5t68 -25.5q47 0 103 29l28 -294q-104 -46 -207 -46q-76 0 -144.5 24.5t-120.5 74.5t-83 126.5t-31 179.5v694h361v-678zM113 1535q33 0 61.5 -11.5t48.5 -32t31.5 -49t11.5 -62.5q0 -33 -11.5 -61t-31.5 -49t-48.5 -32.5t-61.5 -11.5
q-34 0 -62.5 11.5t-49 32.5t-32 49t-11.5 61q0 34 11.5 62.5t32 49t49 32t62.5 11.5zM497 1535q34 0 62 -11.5t48.5 -32t32 -49t11.5 -62.5q0 -33 -11.5 -61t-32 -49t-48.5 -32.5t-62 -11.5t-62 11.5t-48.5 32.5t-32 49t-11.5 61q0 34 11.5 62.5t32 49t48.5 32t62 11.5z" />
    <glyph glyph-name="upsilondieresis" unicode="&#x3cb;" horiz-adv-x="1376" 
d="M686 -25q-122 0 -225 33t-178 98.5t-117.5 164t-42.5 229.5v582h365v-571q0 -121 51.5 -182t149.5 -61q199 0 199 243v571h359v-582q0 -127 -40 -224.5t-113.5 -164.5t-177 -101.5t-230.5 -34.5zM498 1533q33 0 61.5 -11.5t48.5 -32t31.5 -49t11.5 -62.5q0 -33 -11.5 -61
t-31.5 -49t-48.5 -32.5t-61.5 -11.5q-34 0 -62.5 11.5t-49 32.5t-32 49t-11.5 61q0 34 11.5 62.5t32 49t49 32t62.5 11.5zM882 1533q34 0 62 -11.5t48.5 -32t32 -49t11.5 -62.5q0 -33 -11.5 -61t-32 -49t-48.5 -32.5t-62 -11.5t-62 11.5t-48.5 32.5t-32 49t-11.5 61
q0 34 11.5 62.5t32 49t48.5 32t62 11.5z" />
    <glyph glyph-name="omicrontonos" unicode="&#x3cc;" horiz-adv-x="1323" 
d="M639 1094q134 0 243.5 -39.5t187 -111.5t120 -174t42.5 -227t-42.5 -227.5t-120 -175t-187 -112.5t-243.5 -40t-243.5 40t-187 112.5t-120 175t-42.5 227.5t42.5 227t120 174t187 111.5t243.5 39.5zM639 806q-51 0 -93.5 -19.5t-72.5 -55t-46.5 -85t-16.5 -109.5
t16.5 -110t46.5 -85t72.5 -54.5t93.5 -19.5t93 19.5t72 54.5t46.5 85t16.5 110t-16.5 109.5t-46.5 85t-72 55t-93 19.5zM653 1523h328l-215 -299h-222z" />
    <glyph glyph-name="upsilontonos" unicode="&#x3cd;" horiz-adv-x="1374" 
d="M686 -25q-122 0 -225 33t-178 98.5t-117.5 164t-42.5 229.5v582h365v-571q0 -121 51.5 -182t149.5 -61q199 0 199 243v571h359v-582q0 -127 -40 -224.5t-113.5 -164.5t-177 -101.5t-230.5 -34.5zM683 1513h328l-215 -299h-222z" />
    <glyph glyph-name="omegatonos" unicode="&#x3ce;" horiz-adv-x="1749" 
d="M1464 1102q53 -48 95.5 -111t72 -133.5t45.5 -146t16 -147.5q0 -115 -29 -221.5t-90 -188t-153.5 -130t-220.5 -48.5q-113 0 -196 51.5t-128 139.5q-22 -42 -56.5 -76t-76.5 -58t-91 -36.5t-102 -12.5q-77 0 -143 22.5t-121 62.5t-97.5 94t-71.5 117t-44 133t-15 140
q0 42 9 92t25.5 102.5t39.5 105t51 99.5t60.5 86t67.5 64l222 -149q-34 -34 -65 -79t-54 -95t-36.5 -101t-13.5 -97q0 -45 10 -95.5t32.5 -92.5t60 -70t91.5 -28q46 0 77 16t50 43.5t27 64t8 77.5l-1 334h313l1 -352q0 -33 4 -65t16.5 -57.5t36 -41t62.5 -15.5q57 0 99 23
t70.5 60.5t42.5 86t14 99.5q0 110 -45 210.5t-122 176.5zM869 1513h328l-215 -299h-222z" />
    <glyph glyph-name="uni0400" unicode="&#x400;" horiz-adv-x="1349" 
d="M143 1400h1110v-292h-738v-260h667v-291h-667v-266h759v-291h-1131v1400zM718 1844l213 -323l-248 -20l-263 232z" />
    <glyph glyph-name="uni0401" unicode="&#x401;" horiz-adv-x="1349" 
d="M143 1400h1110v-292h-738v-260h667v-291h-667v-266h759v-291h-1131v1400zM483 1819q33 0 61.5 -11.5t48.5 -32t31.5 -49t11.5 -62.5q0 -33 -11.5 -61t-31.5 -49t-48.5 -32.5t-61.5 -11.5q-34 0 -62.5 11.5t-49 32.5t-32 49t-11.5 61q0 34 11.5 62.5t32 49t49 32
t62.5 11.5zM867 1819q34 0 62 -11.5t48.5 -32t32 -49t11.5 -62.5q0 -33 -11.5 -61t-32 -49t-48.5 -32.5t-62 -11.5t-62 11.5t-48.5 32.5t-32 49t-11.5 61q0 34 11.5 62.5t32 49t48.5 32t62 11.5z" />
    <glyph glyph-name="uni0402" unicode="&#x402;" horiz-adv-x="1711" 
d="M466 0v1101h-435v299h1301v-299h-497v-268q176 45 319 45q120 0 214 -30t159 -88t99 -142.5t34 -192.5q0 -117 -39.5 -200.5t-106.5 -137t-156.5 -78.5t-190.5 -25q-42 0 -84 4t-85 12l36 286q36 -11 79 -11q32 0 64 7.5t57.5 24.5t41 45t15.5 68q0 38 -16 68t-45.5 51
t-70 32t-90.5 11q-52 0 -111 -13t-123 -39v-530h-369z" />
    <glyph glyph-name="uni0403" unicode="&#x403;" horiz-adv-x="1198" 
d="M158 0v1400h1013l-1 -299h-644v-1101h-368zM705 1843l297 -111l-292 -232l-246 20z" />
    <glyph glyph-name="uni0404" unicode="&#x404;" horiz-adv-x="1435" 
d="M785 -26q-107 0 -203 24.5t-177.5 69.5t-147 110t-111.5 145.5t-70.5 175.5t-24.5 201t24.5 201t70.5 175.5t111.5 145.5t147 110t177.5 69.5t203 24.5q193 0 345 -66t253 -193l-236 -217q-70 81 -154.5 123t-188.5 42q-68 0 -126 -19.5t-103.5 -55.5t-78.5 -87.5
t-50 -115.5h525v-278h-524q18 -63 50.5 -113.5t78.5 -86.5t103.5 -55t124.5 -19q104 0 188.5 42t154.5 123l236 -217q-101 -127 -253 -193t-345 -66z" />
    <glyph glyph-name="uni0405" unicode="&#x405;" horiz-adv-x="1319" 
d="M1121 979q-50 30 -108.5 57t-118.5 48t-118 33.5t-107 12.5q-27 0 -52.5 -5t-46 -17t-32.5 -31t-12 -47q0 -45 31.5 -74t83.5 -50.5t118 -39.5t135 -40.5t135 -53.5t118 -78t83.5 -115t31.5 -164q0 -114 -47.5 -196.5t-126 -135.5t-180.5 -78.5t-210 -25.5
q-87 0 -174.5 15t-171.5 44t-161.5 71t-142.5 96l144 287q51 -45 115.5 -84.5t132.5 -68.5t136 -45.5t126 -16.5q33 0 64 6t55 20t38.5 37t14.5 56q0 46 -31.5 75.5t-83.5 51t-118.5 38.5t-135.5 38.5t-135.5 51t-118.5 75t-83.5 111.5t-31.5 160q0 106 44 186.5t120 135
t179 82.5t221 28q75 0 151 -11t148 -31.5t138.5 -50t123.5 -66.5z" />
    <glyph glyph-name="uni0406" unicode="&#x406;" horiz-adv-x="684" 
d="M158 0v1400h368v-1400h-368z" />
    <glyph glyph-name="uni0407" unicode="&#x407;" horiz-adv-x="671" 
d="M148 0v1400h375v-1400h-375zM126 1516q-32 0 -60 11t-48.5 30.5t-32 47t-11.5 61.5t11.5 62t32 48t48.5 31t60 11t60 -11t48.5 -31t32.5 -48t12 -62t-12 -61.5t-32.5 -47t-48.5 -30.5t-60 -11zM545 1516q-32 0 -60 11t-48.5 30.5t-32.5 47t-12 61.5t12 62t32.5 48
t48.5 31t60 11t60 -11t48.5 -31t32.5 -48t12 -62t-12 -61.5t-32.5 -47t-48.5 -30.5t-60 -11z" />
    <glyph glyph-name="uni0408" unicode="&#x408;" horiz-adv-x="1159" 
d="M1026 456q0 -112 -34 -200t-98 -148.5t-154.5 -92t-203.5 -31.5q-153 0 -274.5 58.5t-217.5 167.5l171 249q77 -80 155 -118.5t138 -38.5q67 0 105.5 40.5t38.5 121.5v936h374v-944z" />
    <glyph glyph-name="uni0409" unicode="&#x409;" horiz-adv-x="2368" 
d="M202 -23q-39 0 -82.5 5.5t-91.5 17.5l21 308q29 -6 56 -6q61 0 99.5 37.5t61.5 107.5t33.5 169.5t14.5 222.5l19 561h1112v-450h335q127 0 226.5 -28.5t168.5 -85.5t105 -142.5t36 -199.5q0 -122 -40.5 -214.5t-116.5 -154.5t-185 -93.5t-245 -31.5h-653v1101h-426
l-8 -248q-6 -205 -27 -367.5t-69.5 -275.5t-131 -173t-212.5 -60zM1706 270q107 0 170 56t63 162q0 52 -16.5 88.5t-46.5 59.5t-73 33.5t-97 10.5h-261v-410h261z" />
    <glyph glyph-name="uni040A" unicode="&#x40a;" horiz-adv-x="2334" 
d="M158 0v1400h368v-514h552v514h369v-501h331q121 0 215.5 -29t159.5 -84.5t99 -136.5t34 -185q0 -111 -37.5 -197t-108 -145.5t-171 -90.5t-227.5 -31h-664v587h-552v-587h-368zM1447 270h250q100 0 155.5 46.5t55.5 134.5t-55 132.5t-156 44.5h-250v-358z" />
    <glyph glyph-name="uni040B" unicode="&#x40b;" horiz-adv-x="1725" 
d="M464 0v1101h-434v299h1284v-299h-481v-294q168 49 313 49q117 0 212 -31t161.5 -95t103 -161.5t36.5 -229.5v-339h-369v292q0 129 -63.5 191.5t-168.5 62.5q-100 0 -225 -55v-491h-369z" />
    <glyph glyph-name="uni040C" unicode="&#x40c;" horiz-adv-x="1491" 
d="M1047 0l-330 544h-194v-544h-373v1400h373v-552h203l344 552h393l-444 -677l451 -723h-423zM823 1843l297 -111l-292 -232l-246 20z" />
    <glyph glyph-name="uni040D" unicode="&#x40d;" horiz-adv-x="1641" 
d="M158 0v1400h368v-850l606 850h352v-1400h-369v848l-605 -848h-352zM772 1843l213 -323l-248 -20l-263 232z" />
    <glyph glyph-name="uni040E" unicode="&#x40e;" horiz-adv-x="1474" 
d="M227 294q80 -24 140 -24t105.5 26t84.5 84l3 5l-546 1015h396l340 -699l352 699h364l-583 -1089q-92 -173 -221 -259.5t-282 -86.5q-117 0 -242 51zM734 1508q-187 0 -278 80t-92 244h234q0 -66 31.5 -104.5t102.5 -38.5q69 0 103 38.5t35 104.5h237q-2 -165 -93 -244.5
t-280 -79.5z" />
    <glyph glyph-name="uni040F" unicode="&#x40f;" horiz-adv-x="1618" 
d="M1460 1400v-1400h-480v-289h-344v289h-478v1400h368v-1101h564v1101h370z" />
    <glyph glyph-name="uni0410" unicode="&#x410;" horiz-adv-x="1633" 
d="M628 1400h381l587 -1400h-397l-95 248h-599l-96 -248h-383zM998 527l-190 501l-195 -501h385z" />
    <glyph glyph-name="uni0411" unicode="&#x411;" horiz-adv-x="1480" 
d="M158 0v1400h1157v-291h-789v-245h371q256 0 389.5 -106.5t133.5 -310.5q0 -106 -38.5 -189t-112 -140.5t-180.5 -87.5t-243 -30h-688zM526 270h297q108 0 164.5 42.5t56.5 123.5q0 159 -221 159h-297v-325z" />
    <glyph glyph-name="uni0412" unicode="&#x412;" horiz-adv-x="1488" 
d="M158 0v1400h671q124 0 221.5 -24t165 -70.5t103 -114.5t35.5 -155q0 -105 -50 -182.5t-141 -122.5q124 -39 190 -122.5t66 -210.5q0 -92 -36 -166t-106 -125.5t-173 -79t-237 -27.5h-709zM526 270h326q189 0 189 157q0 152 -189 152h-326v-309zM526 835h268
q182 0 182 146q0 73 -45.5 111t-136.5 38h-268v-295z" />
    <glyph glyph-name="uni0413" unicode="&#x413;" horiz-adv-x="1198" 
d="M158 0v1400h1013l-1 -299h-644v-1101h-368z" />
    <glyph glyph-name="uni0414" unicode="&#x414;" horiz-adv-x="1684" 
d="M32 -285v584h43q70 -1 115.5 48.5t73 139t41 212t19.5 267.5l16 434h1112v-1101h192v-584h-344v285h-924v-285h-344zM650 933q-4 -105 -12 -201t-22.5 -177.5t-37 -146.5t-55.5 -109h560v802h-426z" />
    <glyph glyph-name="uni0415" unicode="&#x415;" horiz-adv-x="1349" 
d="M143 1400h1110v-292h-738v-260h667v-291h-667v-266h759v-291h-1131v1400z" />
    <glyph glyph-name="uni0416" unicode="&#x416;" horiz-adv-x="2199" 
d="M1747 0l-285 544h-178v-544h-366v544h-180l-286 -544h-431l405 734l-380 666h392l291 -552h189v552h366v-552h183l294 552h393l-379 -667l403 -733h-431z" />
    <glyph glyph-name="uni0417" unicode="&#x417;" horiz-adv-x="1323" 
d="M154 374q98 -52 207 -78t208 -26q64 0 120 11t97 33t65 55t24 76q0 35 -15 59.5t-42 41t-65 24t-84 7.5h-354v278h324q87 0 133 33.5t46 93.5q0 38 -19 66.5t-53 47.5t-80 28.5t-99 9.5q-88 0 -186.5 -24t-190.5 -74l-111 286q115 57 240 83.5t248 26.5q126 0 240 -27.5
t200.5 -79.5t138 -127.5t51.5 -171.5q0 -100 -52 -177t-142 -120q59 -21 105.5 -54.5t78.5 -76.5t49.5 -95t17.5 -110q0 -100 -52 -178t-141 -132t-207 -82.5t-250 -28.5q-140 0 -285 33.5t-279 104.5z" />
    <glyph glyph-name="uni0418" unicode="&#x418;" horiz-adv-x="1641" 
d="M158 0v1400h368v-850l606 850h352v-1400h-369v848l-605 -848h-352z" />
    <glyph glyph-name="uni0419" unicode="&#x419;" horiz-adv-x="1641" 
d="M158 0v1400h368v-850l606 850h352v-1400h-369v848l-605 -848h-352zM824 1487q-106 0 -182 21t-125 61.5t-72.5 100.5t-23.5 137h253q1 -71 36.5 -105.5t113.5 -34.5q152 0 153 140h253q0 -77 -24 -137t-73.5 -100.5t-126 -61.5t-182.5 -21z" />
    <glyph glyph-name="uni041A" unicode="&#x41a;" horiz-adv-x="1491" 
d="M1047 0l-330 544h-194v-544h-373v1400h373v-552h203l344 552h393l-444 -677l451 -723h-423z" />
    <glyph glyph-name="uni041B" unicode="&#x41b;" horiz-adv-x="1603" 
d="M202 -23q-39 0 -82.5 5.5t-91.5 17.5l21 308q29 -6 56 -6q61 0 99.5 37.5t61.5 107.5t33.5 169.5t14.5 222.5l19 561h1112v-1400h-369v1101h-426l-8 -248q-6 -205 -27 -367.5t-69.5 -275.5t-131 -173t-212.5 -60z" />
    <glyph glyph-name="uni041C" unicode="&#x41c;" horiz-adv-x="1926" 
d="M158 0v1400h308l502 -828l490 828h308l4 -1400h-346l-3 771l-376 -630h-166l-375 612v-753h-346z" />
    <glyph glyph-name="uni041D" unicode="&#x41d;" horiz-adv-x="1632" 
d="M143 1400h372v-571h557v571h372v-1400h-372v537h-557v-537h-372v1400z" />
    <glyph glyph-name="uni041E" unicode="&#x41e;" horiz-adv-x="1680" 
d="M797 1424q163 0 302 -54.5t240.5 -151.5t159 -228.5t57.5 -286.5q0 -156 -57.5 -289t-159 -231t-240.5 -153.5t-302 -55.5t-301.5 55.5t-240 153t-159 231t-57.5 289.5q0 155 57.5 287t159 228.5t240 151t301.5 54.5zM802 1112q-78 0 -147.5 -31t-121.5 -86t-82.5 -130.5
t-30.5 -163.5t30.5 -164t83 -132t122 -88t146.5 -32t144.5 32t118 88t79.5 132t29 164t-29 163.5t-79.5 130.5t-118 86t-144.5 31z" />
    <glyph glyph-name="uni041F" unicode="&#x41f;" horiz-adv-x="1616" 
d="M158 0v1400h1301v-1400h-369v1101h-564v-1101h-368z" />
    <glyph glyph-name="uni0420" unicode="&#x420;" horiz-adv-x="1457" 
d="M760 1400q135 0 240 -33t177 -95.5t110 -154t38 -208.5q0 -124 -38 -220.5t-110 -163.5t-177 -102t-240 -35h-245v-388h-372v1400h617zM742 680q110 0 170 55t60 163q0 105 -60 157.5t-170 52.5h-227v-428h227z" />
    <glyph glyph-name="uni0421" unicode="&#x421;" horiz-adv-x="1460" 
d="M1142 926q-34 43 -75 77.5t-86 59t-92 37.5t-93 13q-80 0 -148.5 -31t-118.5 -85t-78.5 -128t-28.5 -161t28.5 -161t78.5 -129t118.5 -86t148.5 -31q44 0 89.5 11.5t90.5 33t87.5 52t78.5 68.5l217 -229q-56 -60 -124.5 -108.5t-144 -83t-155.5 -53t-158 -18.5
q-158 0 -293 55.5t-233.5 153.5t-154 231.5t-55.5 289.5q0 154 56.5 286t157 228.5t238 151t298.5 54.5q78 0 156.5 -17t152 -48.5t140 -76.5t118.5 -101z" />
    <glyph glyph-name="uni0422" unicode="&#x422;" horiz-adv-x="1298" 
d="M464 0v1101h-434v299h1238v-299h-435v-1101h-369z" />
    <glyph glyph-name="uni0423" unicode="&#x423;" horiz-adv-x="1474" 
d="M227 294q80 -24 140 -24t105.5 26t84.5 84l3 5l-546 1015h396l340 -699l352 699h364l-583 -1089q-92 -173 -221 -259.5t-282 -86.5q-117 0 -242 51z" />
    <glyph glyph-name="uni0424" unicode="&#x424;" horiz-adv-x="1921" 
d="M789 -65v154q-178 12 -314 58.5t-228 124.5t-139.5 186.5t-47.5 245.5t47.5 246t139.5 187t228 124t314 58v145h344v-144q177 -12 313 -58t228.5 -124.5t139.5 -187.5t47 -246t-47 -246.5t-139 -188t-228 -125t-314 -56.5v-153h-344zM422 704q0 -145 94 -223t273 -100
v647q-190 -21 -278.5 -99.5t-88.5 -224.5zM1499 706q0 146 -90 224.5t-276 98.5v-650q189 21 277.5 101t88.5 226z" />
    <glyph glyph-name="uni0425" unicode="&#x425;" horiz-adv-x="1488" 
d="M46 1400h430l260 -393l262 393h435l-461 -670l501 -730h-441l-296 430l-290 -430h-431l498 714z" />
    <glyph glyph-name="uni0426" unicode="&#x426;" horiz-adv-x="1693" 
d="M1311 -289v289h-1153v1400h368v-1101h564v1101h370v-1101h195v-588h-344z" />
    <glyph glyph-name="uni0427" unicode="&#x427;" horiz-adv-x="1509" 
d="M983 0v485q-85 -29 -161.5 -43t-148.5 -14q-145 0 -256.5 35t-187 103.5t-114.5 169t-39 231.5v433h368v-392q0 -138 69.5 -206.5t205.5 -68.5q73 0 139.5 12.5t124.5 38.5v616h369v-1400h-369z" />
    <glyph glyph-name="uni0428" unicode="&#x428;" horiz-adv-x="2198" 
d="M916 299v1101h368v-1101h388v1101h368v-1400h-1882v1400h368v-1101h390z" />
    <glyph glyph-name="uni0429" unicode="&#x429;" horiz-adv-x="2268" 
d="M1881 -285v285h-1723v1400h368v-1101h390v1101h368v-1101h388v1101h368v-1101h185v-584h-344z" />
    <glyph glyph-name="uni042A" unicode="&#x42a;" horiz-adv-x="1704" 
d="M1116 950q127 0 226.5 -28.5t168 -85.5t104.5 -142.5t36 -199.5q0 -122 -40.5 -214.5t-116.5 -154.5t-184.5 -93.5t-245.5 -31.5h-651v1101h-383v299h752v-450h334zM1042 270q108 0 170.5 56t62.5 162q0 52 -16 88.5t-46.5 59.5t-73.5 33.5t-97 10.5h-260v-410h260z" />
    <glyph glyph-name="uni042B" unicode="&#x42b;" horiz-adv-x="2085" 
d="M861 950q127 0 226.5 -28.5t168.5 -85.5t105 -142.5t36 -199.5q0 -122 -40.5 -214.5t-116.5 -154.5t-185 -93.5t-245 -31.5h-652v1400h368v-450h335zM787 270q108 0 170.5 56t62.5 162q0 52 -16.5 88.5t-46.5 59.5t-73 33.5t-97 10.5h-261v-410h261zM1559 0v1400h368
v-1400h-368z" />
    <glyph glyph-name="uni042C" unicode="&#x42c;" horiz-adv-x="1449" 
d="M861 950q127 0 226.5 -28.5t168.5 -85.5t105 -142.5t36 -199.5q0 -122 -40.5 -214.5t-116.5 -154.5t-185 -93.5t-245 -31.5h-652v1400h368v-450h335zM787 270q108 0 170.5 56t62.5 162q0 52 -16.5 88.5t-46.5 59.5t-73 33.5t-97 10.5h-261v-410h261z" />
    <glyph glyph-name="uni042D" unicode="&#x42d;" horiz-adv-x="1434" 
d="M630 1426q107 0 203 -24.5t177.5 -69.5t147 -110t111.5 -145.5t70.5 -175.5t24.5 -201t-24.5 -201t-70.5 -175.5t-111.5 -145.5t-147 -110t-177.5 -69.5t-203 -24.5q-193 0 -345 66t-253 193l236 217q69 -81 154 -123t189 -42q68 0 126.5 20t104.5 56.5t79 89t49 117.5
h-526v278h522q-18 62 -50.5 111.5t-78 84.5t-103 54t-123.5 19q-104 0 -189 -42t-154 -123l-236 217q101 127 253 193t345 66z" />
    <glyph glyph-name="uni042E" unicode="&#x42e;" horiz-adv-x="2241" 
d="M158 0v1400h368v-532h162q27 124 93 227t161.5 176.5t217.5 114t262 40.5q162 0 299.5 -54.5t237.5 -151t156.5 -229.5t56.5 -291q0 -157 -56.5 -290.5t-156.5 -230t-237.5 -151t-299.5 -54.5q-143 0 -267 42t-220.5 118.5t-161 183t-89.5 234.5h-158v-552h-368z
M1422 285q78 0 146.5 29.5t118.5 83.5t79 131t29 171q0 95 -29 171.5t-79 130.5t-118.5 83.5t-146.5 29.5t-146.5 -29.5t-118.5 -83.5t-79 -130.5t-29 -171.5q0 -94 29 -171t79 -131t118.5 -83.5t146.5 -29.5z" />
    <glyph glyph-name="uni042F" unicode="&#x42f;" horiz-adv-x="1470" 
d="M944 0v358h-240l-235 -358h-393l286 414q-140 60 -215.5 176t-75.5 281q0 123 43.5 221.5t124 166.5t195 104.5t256.5 36.5h623v-1400h-369zM944 1102h-246q-122 0 -185 -56.5t-63 -168.5t61.5 -170t182.5 -58h250v453z" />
    <glyph glyph-name="uni0430" unicode="&#x430;" horiz-adv-x="1220" 
d="M733 123q-52 -68 -133.5 -103.5t-191.5 -35.5q-87 0 -155.5 25t-116 69.5t-72.5 106.5t-25 137q0 156 106 242t309 86h279v12q0 77 -51 119.5t-153 42.5q-68 0 -152.5 -21.5t-172.5 -64.5l-97 240q128 57 251 87.5t256 30.5q112 0 200 -26.5t149 -76.5t93 -123t32 -166
l1 -704h-355zM521 226q38 0 72.5 10t62.5 28.5t48 44t29 56.5v95h-209q-73 0 -109.5 -27t-36.5 -85q0 -57 37.5 -89.5t105.5 -32.5z" />
    <glyph glyph-name="uni0431" unicode="&#x431;" horiz-adv-x="1354" 
d="M699 -26q-136 0 -250 42.5t-196 130t-127.5 221.5t-45.5 317q0 160 34.5 290t106 228.5t182 163.5t263.5 95l522 101l49 -303l-455 -86q-88 -17 -152.5 -43.5t-107.5 -65.5t-67 -91.5t-32 -122.5q69 67 161 104t206 37q119 0 214 -35.5t161 -101t101.5 -157.5t35.5 -205
q0 -117 -45.5 -213t-126 -164t-191 -105t-240.5 -37zM701 247q55 0 98.5 19t74 52.5t46.5 78t16 95.5q0 55 -17 98.5t-48 74t-74.5 47t-95.5 16.5q-54 0 -97.5 -16.5t-75 -47.5t-48.5 -75t-17 -99q0 -53 17.5 -97.5t49 -77t75 -50.5t96.5 -18z" />
    <glyph glyph-name="uni0432" unicode="&#x432;" horiz-adv-x="1249" 
d="M135 0v1082h571q104 0 186 -19t139 -55t87 -88t30 -119q0 -80 -40.5 -139.5t-114.5 -95.5q188 -63 188 -256q0 -71 -27.5 -128.5t-83.5 -98t-139.5 -62t-196.5 -21.5h-599zM458 235h244q148 0 148 106q0 54 -35 80t-109 26h-248v-212zM458 644h216q142 0 142 103
q0 52 -35 76t-107 24h-216v-203z" />
    <glyph glyph-name="uni0433" unicode="&#x433;" horiz-adv-x="1048" 
d="M135 0v1082h893v-288h-535v-794h-358z" />
    <glyph glyph-name="uni0434" unicode="&#x434;" horiz-adv-x="1433" 
d="M22 -226v515h35q56 -1 91 32t55.5 90.5t29.5 133.5t13 161l14 376h982v-793h151v-515h-333v226h-705v-226h-333zM569 679q-2 -63 -6 -121t-13.5 -108t-25.5 -91t-42 -70h402v505h-310z" />
    <glyph glyph-name="uni0435" unicode="&#x435;" horiz-adv-x="1294" 
d="M406 445q26 -91 89 -139.5t153 -48.5q69 0 134.5 27.5t119.5 81.5l189 -187q-84 -92 -203 -142t-271 -50q-133 0 -239.5 39.5t-181 111.5t-114.5 173.5t-40 225.5q0 126 41 228.5t115.5 175.5t178.5 113t231 40q142 0 249 -45.5t176.5 -130.5t101 -204.5t21.5 -268.5
h-750zM611 844q-43 0 -78 -15t-62 -42.5t-45.5 -65.5t-26.5 -85h407q0 47 -14 85.5t-40 65.5t-61.5 42t-79.5 15z" />
    <glyph glyph-name="uni0436" unicode="&#x436;" horiz-adv-x="1878" 
d="M1446 0l-208 394h-122v-394h-354v394h-124l-207 -394h-424l330 560l-306 522h379l221 -406h131v406h354v-406h128l222 406h380l-307 -522l332 -560h-425z" />
    <glyph glyph-name="uni0437" unicode="&#x437;" horiz-adv-x="1139" 
d="M519 -22q-126 0 -250.5 23.5t-236.5 73.5l94 246q88 -39 183.5 -57.5t196.5 -18.5q95 0 151.5 27t56.5 81q0 91 -142 91h-230v213h198q144 0 144 88q0 44 -45.5 68.5t-142.5 24.5q-81 0 -166.5 -19t-177.5 -54l-84 240q109 45 223 71.5t233 26.5q111 0 206.5 -20.5
t166 -59.5t110.5 -96t40 -131q0 -76 -45.5 -137t-121.5 -97q94 -30 145.5 -91.5t51.5 -146.5q0 -82 -43.5 -146t-118.5 -108.5t-177 -68t-219 -23.5z" />
    <glyph glyph-name="uni0438" unicode="&#x438;" horiz-adv-x="1432" 
d="M135 0v1082h358v-591l475 591h329v-1082h-358v592l-473 -592h-331z" />
    <glyph glyph-name="uni0439" unicode="&#x439;" horiz-adv-x="1432" 
d="M135 0v1082h358v-591l475 591h329v-1082h-358v592l-473 -592h-331zM692 1190q-187 0 -278 80t-92 244h234q0 -66 31.5 -104.5t102.5 -38.5q69 0 103 38.5t35 104.5h237q-2 -165 -93 -244.5t-280 -79.5z" />
    <glyph glyph-name="uni043A" unicode="&#x43a;" horiz-adv-x="1318" 
d="M895 0l-264 394h-137v-394h-359v1082h359v-406h145l275 406h380l-368 -518l392 -564h-423z" />
    <glyph glyph-name="uni043B" unicode="&#x43b;" horiz-adv-x="1352" 
d="M33 295q28 -5 47 -5q51 0 81 27t46.5 74t22.5 110t9 135l17 446h961v-1082h-359v794h-295l-8 -174q-6 -145 -24.5 -264t-58.5 -204t-107 -131t-171 -46q-75 0 -177 26z" />
    <glyph glyph-name="uni043C" unicode="&#x43c;" horiz-adv-x="1644" 
d="M135 0v1082h378l315 -584l342 584h337l3 -1082h-324l-1 590l-290 -492h-153l-284 502v-600h-323z" />
    <glyph glyph-name="uni043D" unicode="&#x43d;" horiz-adv-x="1399" 
d="M135 0v1082h358v-407h413v407h358v-1082h-358v386h-413v-386h-358z" />
    <glyph glyph-name="uni043E" unicode="&#x43e;" horiz-adv-x="1318" 
d="M635 1094q134 0 243.5 -39.5t187 -111.5t120 -174t42.5 -227t-42.5 -227.5t-120 -175t-187 -112.5t-243.5 -40t-243.5 40t-187 112.5t-120 175t-42.5 227.5t42.5 227t120 174t187 111.5t243.5 39.5zM635 806q-51 0 -93.5 -19.5t-72.5 -55t-46.5 -85t-16.5 -109.5
t16.5 -110t46.5 -85t72.5 -54.5t93.5 -19.5t93 19.5t72 54.5t46.5 85t16.5 110t-16.5 109.5t-46.5 85t-72 55t-93 19.5z" />
    <glyph glyph-name="uni043F" unicode="&#x43f;" horiz-adv-x="1375" 
d="M135 0v1082h1105v-1082h-358v794h-389v-794h-358z" />
    <glyph glyph-name="uni0440" unicode="&#x440;" horiz-adv-x="1394" 
d="M149 1081h362v-137q57 72 136.5 111t179.5 39q114 0 207 -40t159 -113t102 -176.5t36 -229.5q0 -124 -35 -225t-100 -173t-156.5 -111t-204.5 -39q-103 0 -185 39.5t-139 112.5v-527h-362v1469zM738 814q-51 0 -92.5 -19.5t-71.5 -55t-46.5 -85t-16.5 -109.5t16.5 -110
t46.5 -85.5t71.5 -55t92.5 -19.5t93 19.5t72 55.5t46.5 85.5t16.5 109.5q0 59 -16.5 108.5t-46.5 85t-72 55.5t-93 20z" />
    <glyph glyph-name="uni0441" unicode="&#x441;" horiz-adv-x="1202" 
d="M825 688q-35 53 -86.5 82.5t-119.5 29.5q-47 0 -86.5 -19t-67.5 -53.5t-43.5 -82.5t-15.5 -107t15.5 -107.5t43.5 -83t67.5 -53.5t86.5 -19q69 0 121.5 30t84.5 93l270 -151q-66 -125 -193 -192.5t-301 -67.5q-126 0 -229 39.5t-176.5 111.5t-113.5 173.5t-40 225.5
q0 126 40.5 228.5t114 175.5t177 113t229.5 40q166 0 291.5 -67t195.5 -188z" />
    <glyph glyph-name="uni0442" unicode="&#x442;" horiz-adv-x="1103" 
d="M372 0v794h-353v288h1065v-288h-354v-794h-358z" />
    <glyph glyph-name="uni0443" unicode="&#x443;" horiz-adv-x="1265" 
d="M744 -106q-62 -152 -167 -225t-259 -73q-94 0 -172 27t-154 85l152 246q37 -31 71 -45.5t72 -14.5q89 0 130 83l24 49l-449 1055h373l257 -702l225 702h361z" />
    <glyph glyph-name="uni0444" unicode="&#x444;" horiz-adv-x="1733" 
d="M706 -388v366q-157 12 -278.5 54t-204.5 113t-126 171.5t-43 228.5q0 252 166.5 391.5t485.5 161.5v386h320v-387q157 -12 278.5 -52.5t205 -110t126.5 -167t43 -222.5q0 -127 -43 -227t-126.5 -171.5t-205 -113.5t-278.5 -54v-367h-320zM398 545q0 -67 17 -118.5
t54 -88.5t95.5 -60t141.5 -33v586q-83 -9 -141.5 -31.5t-95.5 -57.5t-54 -84.5t-17 -112.5zM1337 545q0 64 -17.5 113t-55 84.5t-96.5 57t-142 30.5v-585q83 10 142 33t96.5 60t55 88.5t17.5 118.5z" />
    <glyph glyph-name="uni0445" unicode="&#x445;" horiz-adv-x="1228" 
d="M31 1081h415l171 -302l185 302h396l-340 -526l364 -555h-416l-189 330l-211 -330h-399l368 554z" />
    <glyph glyph-name="uni0446" unicode="&#x446;" horiz-adv-x="1420" 
d="M1048 -230v230h-913v1082h358v-793h377v793h358v-793h153v-519h-333z" />
    <glyph glyph-name="uni0447" unicode="&#x447;" horiz-adv-x="1286" 
d="M794 0v391q-57 -29 -127 -47t-157 -18q-110 0 -194 24.5t-141 75.5t-86 130t-29 189v337h358v-314q0 -94 45 -133t130 -39q56 0 106 11.5t95 33.5v441h358v-1082h-358z" />
    <glyph glyph-name="uni0448" unicode="&#x448;" horiz-adv-x="1964" 
d="M805 289v793h358v-793h310v793h357v-1082h-1695v1082h358v-793h312z" />
    <glyph glyph-name="uni0449" unicode="&#x449;" horiz-adv-x="1964" 
d="M805 289v793h358v-793h310v793h357v-793h147v-499h-333v210h-1509v1082h358v-793h312z" />
    <glyph glyph-name="uni044A" unicode="&#x44a;" horiz-adv-x="1396" 
d="M921 743q106 0 188 -24.5t137.5 -70.5t84 -113t28.5 -151q0 -91 -33 -162.5t-96 -120.5t-153 -75t-204 -26h-549v794h-305v288h663v-339h239zM850 249q72 0 108 37t36 104q0 130 -144 130h-168v-271h168z" />
    </font>
</defs>
</svg>
