<?xml version="1.0" standalone="no"?>
<!DOCTYPE svg PUBLIC "-//W3C//DTD SVG 1.1//EN" "http://www.w3.org/Graphics/SVG/1.1/DTD/svg11.dtd" >
<svg xmlns="http://www.w3.org/2000/svg" xmlns:xlink="http://www.w3.org/1999/xlink" version="1.1">
<metadata>
Created by FontForge 20201107 at Tue Sep  9 01:05:06 2025
 By 
Copyright 2018-2025 The Argentum Sans Project Authors (cssobral2013@gmail.com - https://github.com/cssobral2013/Argentum-Sans)
Portions are:
Copyright 2011-2017 The Montserrat Project Authors (julieta.ulanovsky@gmail.com - https://github.com/JulietaUla/Montserrat)
Copyright 2016 The Jones Project Authors (https://github.com/indestructible-type/jones)
Copyright 2016 The Montserrat-G Project Authors (https://github.com/green-s/Montserrat-G)
Copyright 2023 The Montserrat-Z-Remix Project Authors (https://github.com/AndreasZorpidis/Montserrat-Z-Remix/)
</metadata>
<defs>
<font id="ArgentumSans-SemiBold" horiz-adv-x="1268" >
  <font-face 
    font-family="Argentum Sans SemiBold"
    font-weight="600"
    font-stretch="normal"
    units-per-em="2000"
    panose-1="0 0 0 0 0 0 0 0 0 0"
    ascent="1600"
    descent="-400"
    x-height="1075"
    cap-height="1400"
    bbox="-414 -512 2819 2148"
    underline-thickness="100"
    underline-position="-250"
    unicode-range="U+000D-FB02"
  />
<missing-glyph horiz-adv-x="1174" 
d="M80 0v1400h1014v-1400h-1014zM240 140h694v1120h-694v-1120z" />
    <glyph glyph-name="fi" unicode="fi" horiz-adv-x="1376" 
d="M913 863h-393v-863h-316v863h-144v212h144v101q0 91 31.5 160t86.5 115.5t128 70t156 23.5q32 0 68 -4.5t68 -12.5l-27 -246q-16 5 -33.5 7.5t-33.5 2.5q-54 0 -91 -30.5t-37 -95.5v-91h710v-1075h-317v863zM1069 1554q37 0 68.5 -13t54.5 -35.5t36 -54t13 -69.5
q0 -37 -13 -68.5t-36 -54.5t-54.5 -36t-68.5 -13t-68.5 13t-54 36t-35.5 54.5t-13 68.5q0 38 13 69.5t35.5 54t54 35.5t68.5 13z" />
    <glyph glyph-name="fl" unicode="fl" horiz-adv-x="1478" 
d="M204 863h-144v212h144v101q0 91 31.5 160t86.5 115.5t128 70t156 23.5q140 0 240.5 -20t162.5 -41h243v-1110q0 -60 26 -88t69 -28q24 0 49.5 8.5t54.5 22.5l29 -254q-51 -24 -102.5 -37t-101.5 -13q-69 0 -131 23t-108.5 68.5t-74 115t-27.5 162.5v900q-49 14 -119.5 26
t-167.5 12q-54 0 -91 -30.5t-37 -95.5v-91h252v-212h-252v-863h-316v863z" />
    <glyph glyph-name="Idieresis.double" unicode="&#xcf;&#xcf;" horiz-adv-x="1237" 
d="M204 1400h326v-1400h-326v1400zM729 1400h327v-1400h-327v1400zM180 1835q31 0 57 -10.5t45 -29.5t29.5 -45t10.5 -58q0 -30 -10.5 -56.5t-29.5 -45.5t-45 -30t-57 -11t-57.5 11t-46 30t-30 45.5t-10.5 56.5q0 32 10.5 58t30 45t46 29.5t57.5 10.5zM616 1835
q31 0 57 -10.5t45 -29.5t29.5 -45t10.5 -58q0 -30 -10.5 -56.5t-29.5 -45.5t-45 -30t-57 -11t-57.5 11t-46 30t-30 45.5t-10.5 56.5q0 32 10.5 58t30 45t46 29.5t57.5 10.5zM1058 1835q31 0 57 -10.5t45 -29.5t29.5 -45t10.5 -58q0 -30 -10.5 -56.5t-29.5 -45.5t-45 -30
t-57 -11t-57.5 11t-45.5 30t-29.5 45.5t-10.5 56.5q0 32 10.5 58t29.5 45t45.5 29.5t57.5 10.5z" />
    <glyph glyph-name="idieresis.double" unicode="&#xef;&#xef;" horiz-adv-x="1216" 
d="M199 1075h317v-1075h-317v1075zM674 1075h316v-1075h-316v1075zM170 1516q31 0 57 -10.5t45 -29.5t29.5 -45.5t10.5 -57.5t-10.5 -57t-29.5 -45.5t-45 -30.5t-57 -11t-57.5 11t-46 30.5t-30 45.5t-10.5 57t10.5 57.5t30 45.5t46 29.5t57.5 10.5zM608 1516
q31 0 57.5 -10.5t45.5 -29.5t29.5 -45.5t10.5 -57.5t-10.5 -57t-29.5 -45.5t-45.5 -30.5t-57.5 -11t-57.5 11t-45.5 30.5t-29.5 45.5t-10.5 57t10.5 57.5t29.5 45.5t45.5 29.5t57.5 10.5zM1047 1516q31 0 57.5 -10.5t45.5 -29.5t29.5 -45.5t10.5 -57.5t-10.5 -57
t-29.5 -45.5t-45.5 -30.5t-57.5 -11t-57.5 11t-45.5 30.5t-29.5 45.5t-10.5 57t10.5 57.5t29.5 45.5t45.5 29.5t57.5 10.5z" />
    <glyph glyph-name=".notdef" horiz-adv-x="1174" 
d="M80 0v1400h1014v-1400h-1014zM240 140h694v1120h-694v-1120z" />
    <glyph glyph-name=".null" horiz-adv-x="0" 
 />
    <glyph glyph-name=".null" horiz-adv-x="0" 
 />
    <glyph glyph-name="uni000D" unicode="&#xd;" horiz-adv-x="600" 
 />
    <glyph glyph-name="space" unicode=" " horiz-adv-x="516" 
 />
    <glyph glyph-name="exclam" unicode="!" horiz-adv-x="487" 
d="M92 1390h303v-354l-55 -566h-193l-55 566v354zM244 299q35 0 64 -11.5t50 -32.5t32.5 -49.5t11.5 -63.5t-11.5 -64t-32.5 -50t-50 -33t-64 -12q-34 0 -63 12t-50 33t-33 50t-12 64t12 63.5t33 49.5t50 32.5t63 11.5z" />
    <glyph glyph-name="quotedbl" unicode="&#x22;" horiz-adv-x="841" 
d="M120 1400h240v-532h-240v532zM482 1400h240v-532h-240v532z" />
    <glyph glyph-name="numbersign" unicode="#" horiz-adv-x="1465" 
d="M126 1064h274l42 336h229l-42 -336h297l41 336h230l-42 -336h272l-23 -220h-276l-38 -303h272l-24 -219h-275l-40 -322h-229l40 322h-297l-39 -322h-229l39 322h-272l24 219h276l37 303h-271zM861 541l38 303h-297l-37 -303h296z" />
    <glyph glyph-name="dollar" unicode="$" horiz-adv-x="1278" 
d="M540 -11q-139 18 -269 74t-233 144l130 256q50 -45 111 -83.5t126.5 -67t132.5 -45t127 -16.5q36 0 72.5 7t65 23t46.5 43t18 67q0 51 -32 84t-84 56t-119 41.5t-136.5 40t-136.5 50.5t-119 74.5t-84 111t-32 159.5q0 90 32.5 160t88.5 120.5t132 82.5t163 45v272h239
v-269q117 -13 227 -50.5t201 -96.5l-126 -260q-48 29 -104 54.5t-113.5 45t-114.5 31t-107 11.5q-30 0 -60.5 -5.5t-55 -19t-40 -36.5t-15.5 -57q0 -50 32 -82.5t84 -56t119 -42t136.5 -41t136.5 -53t119 -77t84 -113.5t32 -163t-35.5 -169t-95 -124.5t-138.5 -82.5
t-166 -43v-289h-239v289z" />
    <glyph glyph-name="percent" unicode="%" horiz-adv-x="1768" 
d="M1359 758q74 0 133 -26.5t101 -76t64.5 -120t22.5 -158.5t-22.5 -159t-64.5 -121t-101 -76.5t-133 -26.5t-133.5 26.5t-101.5 76.5t-65 121t-23 159t23 158.5t65 120t101.5 76t133.5 26.5zM1268 1401h227l-1007 -1401h-228zM410 1410q74 0 133 -26.5t101 -76t64.5 -120
t22.5 -158.5t-22.5 -159t-64.5 -121t-101 -76.5t-133 -26.5t-133.5 26.5t-101.5 76.5t-64.5 121t-22.5 159t22.5 158.5t64.5 120t101.5 76t133.5 26.5zM1359 590q-57 0 -90 -57t-33 -156q0 -103 33 -159t90 -56t90 56t33 159q0 99 -33 156t-90 57zM410 1242q-57 0 -89.5 -57
t-32.5 -156q0 -103 32.5 -159t89.5 -56t90.5 56t33.5 159q0 99 -33.5 156t-90.5 57z" />
    <glyph glyph-name="ampersand" unicode="&#x26;" horiz-adv-x="1457" 
d="M1242 -24l-167 156q-97 -76 -214.5 -116t-254.5 -40q-115 0 -213 27t-169.5 77.5t-111.5 122.5t-40 161q0 71 21 130t60.5 109t97 93.5t129.5 82.5q-77 79 -111 149.5t-34 145.5q0 77 32.5 140t90.5 108.5t137.5 70.5t173.5 25q128 0 225.5 -43.5t163.5 -141.5l-198 -138
q-37 47 -83.5 78.5t-108.5 31.5q-73 0 -110.5 -35t-37.5 -92q0 -23 6.5 -44t24 -46t47.5 -56t76 -75l383 -354q45 100 69 231l253 -65q-41 -199 -132 -342l165 -153zM636 221q151 0 259 78l-346 321q-86 -47 -128 -100.5t-42 -123.5q0 -39 17.5 -71t50.5 -55t81 -36t108 -13
z" />
    <glyph glyph-name="quotesingle" unicode="'" horiz-adv-x="480" 
d="M120 1400h240v-532h-240v532z" />
    <glyph glyph-name="parenleft" unicode="(" horiz-adv-x="670" 
d="M660 1484q-55 -87 -99 -187.5t-75.5 -210.5t-48.5 -227.5t-17 -240.5t17 -240.5t48.5 -227.5t75.5 -210.5t99 -187.5h-286q-123 176 -187.5 397.5t-64.5 468.5t64.5 468.5t187.5 397.5h286z" />
    <glyph glyph-name="parenright" unicode=")" horiz-adv-x="670" 
d="M296 1484q124 -176 188.5 -397.5t64.5 -468.5t-64.5 -468.5t-188.5 -397.5h-286q55 87 99 187.5t75.5 210.5t48.5 227.5t17 240.5t-17 240.5t-48.5 227.5t-75.5 210.5t-99 187.5h286z" />
    <glyph glyph-name="asterisk" unicode="*" horiz-adv-x="742" 
d="M291 1440h160l-3 -196l167 100l80 -140l-171 -94l171 -95l-80 -141l-167 102l3 -194h-160l4 196l-168 -101l-81 138l170 95l-170 94l81 143l167 -103z" />
    <glyph glyph-name="plus" unicode="+" horiz-adv-x="1014" 
d="M66 754h340v339h202v-339h340v-204h-340v-339h-202v339h-340v204z" />
    <glyph glyph-name="comma" unicode="," horiz-adv-x="540" 
d="M182 16q-34 21 -50.5 54t-16.5 71q0 34 11.5 62.5t32.5 49t50 32t63 11.5q31 0 59 -10t49.5 -29.5t34 -48.5t12.5 -66q0 -36 -13 -66t-29 -58l-146 -254h-154z" />
    <glyph glyph-name="hyphen" unicode="-" horiz-adv-x="746" 
d="M113 714h519v-204h-519v204z" />
    <glyph glyph-name="period" unicode="." horiz-adv-x="540" 
d="M270 299q35 0 64 -11.5t50 -32.5t32.5 -49.5t11.5 -63.5t-11.5 -64t-32.5 -50t-50 -33t-64 -12q-34 0 -63 12t-50 33t-32.5 50t-11.5 64t11.5 63.5t32.5 49.5t50 32.5t63 11.5z" />
    <glyph glyph-name="slash" unicode="/" horiz-adv-x="696" 
d="M578 1625h268l-643 -1850h-268z" />
    <glyph glyph-name="zero" unicode="0" 
d="M635 1412q106 0 188 -27t143.5 -75.5t104 -115t69 -145.5t38.5 -167.5t12 -180.5t-12 -180.5t-38.5 -168t-69 -146t-104.5 -115t-144 -76t-187 -27.5t-187.5 27.5t-144 76t-104.5 115t-69.5 146t-38.5 168t-12 180.5t12 180.5t38.5 167.5t69.5 145.5t105 115t144 75.5
t187 27zM635 1170q-53 0 -90 -24t-61.5 -63.5t-38.5 -90t-20.5 -102.5t-8 -101.5t-1.5 -86.5q0 -38 1.5 -87.5t8.5 -102t20.5 -103.5t38 -90.5t61.5 -64t90 -24.5t90 24.5t61.5 64t38 90.5t20 103.5t8 102.5t1.5 88q0 37 -1.5 86t-8 101t-20 102.5t-37.5 90t-61.5 63.5
t-90.5 24z" />
    <glyph glyph-name="one" unicode="1" 
d="M850 261h287v-261h-939v261h325v694h-299v261h299v184h327v-1139z" />
    <glyph glyph-name="two" unicode="2" 
d="M640 753q21 22 47.5 53t50.5 65.5t40 70.5t16 68q0 41 -17.5 68.5t-45.5 44t-62.5 23.5t-69.5 7q-53 0 -107.5 -15t-106.5 -40t-99.5 -57t-86.5 -65l-125 235q62 46 130 84t140.5 65.5t148.5 42.5t154 15q107 0 196.5 -25.5t154.5 -73.5q66 -48 102 -114t36 -148
q0 -65 -26.5 -130t-66.5 -125.5t-88 -115t-92 -97.5l-340 -335h665v-254h-1077v216z" />
    <glyph glyph-name="three" unicode="3" 
d="M424 845h139q125 0 190.5 36.5t65.5 106.5q0 86 -65 131.5t-189 45.5q-37 0 -77.5 -5t-80.5 -15t-78.5 -24t-72.5 -31l-103 249q91 43 203.5 67t226.5 24q123 0 225.5 -28.5t176.5 -79.5t115 -122t41 -156q0 -52 -15.5 -99t-43 -84.5t-66.5 -64.5t-87 -40
q56 -13 101.5 -44t77.5 -75t50 -99.5t18 -117.5q0 -96 -41 -176t-115 -137.5t-177 -89t-226 -31.5q-76 0 -153 12t-148.5 33.5t-133.5 51.5t-108 67l125 232q36 -33 82.5 -60t98 -46t107 -29.5t109.5 -10.5q123 0 192 53t69 147q0 186 -314 186h-119v223z" />
    <glyph glyph-name="four" unicode="4" 
d="M1015 317v-317h-300v317h-648v221l579 862h370l-1 -830h189v-253h-189zM715 570l1 502l-331 -502h330z" />
    <glyph glyph-name="five" unicode="5" 
d="M504 900q44 2 81.5 3.5t57.5 1.5q124 0 224.5 -34t171 -94.5t108.5 -144t38 -182.5q0 -102 -39.5 -187t-112 -146.5t-174 -96t-224.5 -34.5q-73 0 -148.5 12.5t-147.5 35t-138 54t-122 70.5l124 234q87 -69 185 -109.5t198 -40.5q118 0 183 54t65 148q0 45 -16 83
t-48.5 65t-82.5 42.5t-118 15.5q-14 0 -40.5 -1t-60.5 -3t-71.5 -4.5t-74.5 -5.5t-69.5 -6t-55.5 -6l29 776h896v-262h-609z" />
    <glyph glyph-name="six" unicode="6" 
d="M1017 1078q-65 46 -141 68t-155 22q-88 0 -152.5 -29.5t-107.5 -84.5t-63 -132.5t-18 -174.5q60 92 149 130.5t195 38.5q103 0 186 -32t141 -91t89.5 -142.5t31.5 -186.5q0 -114 -38.5 -203t-106.5 -150t-161.5 -93t-203.5 -32q-153 0 -264 55t-183 149.5t-106.5 220
t-34.5 265.5q0 169 44 304.5t127 232.5q82 97 197 149.5t259 52.5q53 0 111 -7t115 -21.5t111.5 -35.5t100.5 -49zM656 682q-57 0 -101 -17t-75 -47q-63 -63 -61 -159q-1 -41 12.5 -80t42.5 -69q29 -31 72 -49.5t103 -18.5q105 0 166 59t61 165q0 104 -58.5 160t-161.5 56z
" />
    <glyph glyph-name="seven" unicode="7" 
d="M93 1400h1102v-225l-547 -1175h-345l531 1138l-741 1v261z" />
    <glyph glyph-name="eight" unicode="8" 
d="M631 1415q59 0 118 -8.5t113 -27.5t100.5 -48.5t81 -71t54 -96t19.5 -122.5q0 -94 -48 -171t-130 -121q56 -24 102 -59t79 -80t51 -99.5t18 -116.5q0 -94 -39.5 -169t-111.5 -129q-72 -53 -174.5 -81.5t-230.5 -28.5t-230 28t-174 81q-72 52 -111.5 126t-39.5 167
q0 64 20 119.5t55 101.5t84 81.5t106 58.5q-42 23 -77.5 54.5t-61.5 70t-40.5 83.5t-14.5 94q0 67 19.5 120t54 93t81 69t100 47t112 26.5t115.5 8.5zM633 617q-48 0 -92.5 -10t-79 -32.5t-55.5 -60t-21 -92.5t20.5 -93t55 -61t79 -33.5t93.5 -10.5q48 0 93.5 10t80 33
t55.5 60.5t21 92.5q0 56 -21 93.5t-55.5 60.5t-79.5 33t-94 10zM633 1198q-42 0 -80.5 -9.5t-67.5 -30.5t-46 -54t-17 -80t17.5 -79.5t46.5 -52.5t67 -29t80 -9t80 9t67.5 29t46.5 52.5t17 79.5t-17 80t-46 54t-67 30.5t-81 9.5z" />
    <glyph glyph-name="nine" unicode="9" 
d="M244 323q62 -45 137.5 -67t156.5 -22q88 0 152.5 29.5t107.5 84.5q42 55 62 132.5t18 174.5q-28 -45 -65.5 -77.5t-82 -53t-94 -30t-100.5 -9.5q-102 0 -184.5 32.5t-140.5 92t-89 143t-31 185.5q0 114 38 202.5t105.5 149.5t160.5 93t203 32q154 0 265 -55t182 -148.5
t105 -219t34 -266.5q0 -98 -16.5 -190.5t-50.5 -175t-85 -151t-121 -118.5t-158 -77.5t-195 -27.5q-54 0 -111 7.5t-114 22t-110.5 35.5t-100.5 48zM611 1160q-105 0 -164.5 -59.5t-59.5 -164.5q0 -101 58 -159t159 -58q51 0 94.5 15.5t75 44t49 70.5t17.5 94q0 51 -17 91.5
t-47.5 68.5t-72.5 42.5t-92 14.5z" />
    <glyph glyph-name="colon" unicode=":" horiz-adv-x="540" 
d="M270 299q35 0 64 -11.5t50 -32.5t32.5 -49.5t11.5 -63.5t-11.5 -64t-32.5 -50t-50 -33t-64 -12q-34 0 -63 12t-50 33t-32.5 50t-11.5 64t11.5 63.5t32.5 49.5t50 32.5t63 11.5zM270 1091q35 0 64 -11.5t50 -32.5t32.5 -49.5t11.5 -63.5t-11.5 -64t-32.5 -50t-50 -33
t-64 -12q-34 0 -63 12t-50 33t-32.5 50t-11.5 64t11.5 63.5t32.5 49.5t50 32.5t63 11.5z" />
    <glyph glyph-name="semicolon" unicode=";" horiz-adv-x="540" 
d="M270 1097q35 0 64 -11.5t50 -32.5t32.5 -49.5t11.5 -63.5t-11.5 -64t-32.5 -50t-50 -33t-64 -12q-34 0 -63 12t-50 33t-32.5 50t-11.5 64t11.5 63.5t32.5 49.5t50 32.5t63 11.5zM182 16q-34 21 -50.5 54t-16.5 71q0 34 11.5 62.5t32.5 49t50 32t63 11.5q31 0 59 -10
t49.5 -29.5t34 -48.5t12.5 -66q0 -36 -13 -66t-29 -58l-146 -254h-154z" />
    <glyph glyph-name="less" unicode="&#x3c;" horiz-adv-x="1014" 
d="M948 1148v-225l-674 -273l674 -275v-225l-882 371v257z" />
    <glyph glyph-name="equal" unicode="=" horiz-adv-x="1014" 
d="M66 966h882v-202h-882v202zM66 540h882v-202h-882v202z" />
    <glyph glyph-name="greater" unicode="&#x3e;" horiz-adv-x="1014" 
d="M66 150v225l674 273l-674 275v225l882 -371v-257z" />
    <glyph glyph-name="question" unicode="?" horiz-adv-x="1177" 
d="M548 -15q-42 0 -77.5 14t-61 39t-39.5 58t-14 70q0 38 14 71t39.5 57t61 38t77.5 14t77.5 -14t61 -38t39.5 -57t14 -71q0 -37 -14 -70t-39.5 -58t-61 -39t-77.5 -14zM403 449q-16 37 -23 68t-7 57q0 39 11 70.5t30 58t45 47.5t55 39l130 78q44 26 72.5 58.5t28.5 76.5
q0 36 -15.5 65.5t-43.5 50.5t-67.5 32t-87.5 11q-97 0 -169.5 -39t-120.5 -109l-243 142q41 62 96.5 111.5t126 84.5t156.5 54t187 19q113 0 206.5 -24.5t161 -72t104.5 -116t37 -156.5q0 -96 -36 -161t-95 -102l-147 -93q-25 -16 -48 -31t-40 -31t-27 -34t-10 -41
q0 -17 5 -32t10 -32z" />
    <glyph glyph-name="at" unicode="@" horiz-adv-x="1861" 
d="M1370 310q0 -56 22 -78.5t57 -22.5q33 0 63.5 24.5t54 68t38 105t14.5 134.5q0 145 -46.5 270t-133.5 217.5t-212.5 145.5t-283.5 53q-146 0 -273.5 -54t-222.5 -148t-150 -220t-55 -270q0 -142 52 -262.5t142.5 -208.5t214 -137.5t267.5 -49.5q43 0 92 7t98.5 22
t97.5 38t90 54l90 -155q-44 -33 -101 -59.5t-119.5 -45.5t-126.5 -29t-121 -10q-123 0 -235 28.5t-208 81.5t-174 128t-133 168t-85 201.5t-30 228.5q0 122 31.5 233.5t88.5 208t138 174.5t180 133.5t213.5 86t238.5 30.5q186 0 344 -64t274 -178t181.5 -270.5t65.5 -341.5
q0 -112 -28.5 -203.5t-79.5 -156t-121 -99.5t-154 -35q-91 0 -152.5 38t-80.5 119l-4 31q-60 -87 -141 -126.5t-171 -39.5q-86 0 -166 33.5t-141.5 94.5t-98.5 146.5t-37 190.5q0 97 29.5 182.5t84 150t131.5 102t172 37.5q62 0 112 -17t86 -39.5t58 -45t26 -32.5v112h238
v-680zM898 795q-46 0 -84 -19.5t-65 -53t-42 -78t-15 -94.5q0 -53 14.5 -100.5t42 -83.5t66 -57t86.5 -21q51 0 90.5 20.5t67.5 56t42.5 82.5t14.5 101q0 51 -15 96t-43.5 78.5t-68.5 53t-91 19.5z" />
    <glyph glyph-name="A" unicode="A" horiz-adv-x="1524" 
d="M600 1400h336l595 -1400h-349l-108 274h-634l-109 -274h-338zM974 526l-216 547l-218 -547h434z" />
    <glyph glyph-name="B" unicode="B" horiz-adv-x="1426" 
d="M798 1400q116 0 209.5 -24.5t159 -70t101 -111t35.5 -146.5q0 -56 -17 -105.5t-48.5 -89.5t-76 -68.5t-100.5 -43.5q68 -13 121.5 -44t91.5 -76.5t58 -104.5t20 -128q0 -90 -37 -162t-106 -122t-167.5 -77t-221.5 -27h-670v1400h648zM781 257q109 -1 171 44t62 127
q0 77 -62 120.5t-171 42.5h-304v-334h304zM781 835q87 0 136.5 41t49.5 116q0 72 -49.5 112t-136.5 39h-304v-308h304z" />
    <glyph glyph-name="C" unicode="C" horiz-adv-x="1386" 
d="M1164 963q-36 42 -78.5 76t-89.5 58t-96 37t-97 13q-88 0 -164 -33.5t-132 -93t-88 -140t-32 -173.5t32 -174t88 -141t132 -94t164 -34q47 0 95 11.5t94.5 33.5t90 52.5t81.5 69.5l191 -202q-55 -57 -122.5 -103.5t-141 -79.5t-151 -50.5t-154.5 -17.5q-157 0 -291 55.5
t-232 153t-154 230t-56 286.5q0 153 57 284t156.5 227.5t236 151t295.5 54.5q77 0 153.5 -16.5t148.5 -46.5t137 -73t117 -97z" />
    <glyph glyph-name="D" unicode="D" horiz-adv-x="1536" 
d="M745 1400q164 0 299.5 -51.5t233.5 -144t152 -221t54 -283.5q0 -154 -54.5 -283t-153.5 -221.5t-237 -144t-305 -51.5h-584v1400h595zM753 265q87 0 160 31.5t126 88.5t82.5 137t29.5 176q0 97 -31 177.5t-86 138t-131 89.5t-165 32h-261v-870h276z" />
    <glyph glyph-name="E" unicode="E" horiz-adv-x="1338" 
d="M150 1400h1074v-262h-747v-305h673v-261h-673v-310h769v-262h-1096v1400z" />
    <glyph glyph-name="F" unicode="F" horiz-adv-x="1194" 
d="M150 1400h1015l-1 -262h-686v-346h629v-260h-629v-532h-328v1400z" />
    <glyph glyph-name="G" unicode="G" horiz-adv-x="1489" 
d="M1199 990q-39 37 -84.5 66t-94.5 49.5t-100.5 31.5t-101.5 11q-91 0 -170 -34.5t-137 -94.5t-91 -141.5t-33 -175.5q0 -96 33.5 -178t92 -142.5t137.5 -95t171 -34.5q58 0 125 19t132 52v242h-368v248h660v-651q-55 -41 -124 -75t-144 -58t-152.5 -37.5t-151.5 -13.5
q-106 0 -202.5 25t-179 71.5t-150 111.5t-115 145.5t-73 174t-25.5 196.5q0 102 26.5 195t75 173t117.5 145t154 110.5t184.5 70.5t208.5 25q78 0 155.5 -14.5t151 -41.5t139 -65t119.5 -86z" />
    <glyph glyph-name="H" unicode="H" horiz-adv-x="1573" 
d="M150 1400h327v-586h619v586h327v-1400h-327v554h-619v-554h-327v1400z" />
    <glyph glyph-name="I" unicode="I" horiz-adv-x="628" 
d="M150 1400h327v-1400h-327v1400z" />
    <glyph glyph-name="J" unicode="J" horiz-adv-x="1053" 
d="M929 447q0 -110 -33 -195.5t-94.5 -144.5t-149 -90t-196.5 -31q-143 0 -259 57t-206 161l151 222q75 -78 153 -116.5t143 -38.5q76 0 119 46.5t43 137.5v945h329v-953z" />
    <glyph glyph-name="K" unicode="K" horiz-adv-x="1479" 
d="M150 1400h327v-656l568 656h380l-527 -583l561 -817h-392l-394 569l-196 -216v-353h-327v1400z" />
    <glyph glyph-name="L" unicode="L" horiz-adv-x="1107" 
d="M150 1400h327v-1125h597v-275h-924v1400z" />
    <glyph glyph-name="M" unicode="M" horiz-adv-x="1878" 
d="M150 1400h361l430 -862l426 862h361v-1400h-293l-1 949l-389 -807h-211l-391 807v-949h-293v1400z" />
    <glyph glyph-name="N" unicode="N" horiz-adv-x="1574" 
d="M150 1400h294l672 -903v903h307v-1400h-295l-668 898v-898h-310v1400z" />
    <glyph glyph-name="O" unicode="O" horiz-adv-x="1611" 
d="M806 1420q161 0 298.5 -54.5t238 -151t158 -228t57.5 -284.5q0 -102 -26 -195.5t-74 -174t-115.5 -146t-151 -112t-181 -71.5t-204.5 -25q-161 0 -299 55.5t-239 152.5t-158 229.5t-57 286.5t57 285.5t158 227.5t239 150.5t299 54.5zM809 1146q-86 0 -163 -34t-134.5 -94
t-91 -141t-33.5 -175q0 -95 34 -177t91.5 -143t134.5 -95.5t162 -34.5q86 0 161.5 34.5t131.5 95.5t88.5 143t32.5 177q0 94 -32.5 175t-88.5 141t-131.5 94t-161.5 34z" />
    <glyph glyph-name="P" unicode="P" horiz-adv-x="1356" 
d="M748 1400q134 0 238.5 -32.5t176.5 -94.5t109.5 -152.5t37.5 -206.5q0 -122 -37.5 -217.5t-109.5 -161t-176.5 -100t-238.5 -34.5h-271v-401h-327v1400h598zM732 663q128 0 197 60.5t69 181.5q0 117 -69 175t-197 58h-255v-475h255z" />
    <glyph glyph-name="Q" unicode="Q" horiz-adv-x="1611" 
d="M1213 86q-88 -52 -190 -80t-217 -28q-107 0 -204.5 25t-181.5 71.5t-151.5 111.5t-115.5 145.5t-74 174.5t-26 197q0 154 57.5 285.5t158.5 227.5t238.5 150.5t298.5 54.5t298.5 -54.5t238.5 -151t158.5 -228t57.5 -284.5q0 -131 -40.5 -245t-114.5 -206l162 -153
l-169 -187zM810 1147q-87 0 -163.5 -34t-134.5 -94t-91.5 -141t-33.5 -176t34 -177t91.5 -143t134.5 -95.5t163 -34.5q48 0 93.5 11.5t86.5 32.5l-207 196l167 187l218 -205q26 51 41 108t15 120q0 95 -32.5 176t-89 141t-131.5 94t-161 34z" />
    <glyph glyph-name="R" unicode="R" horiz-adv-x="1458" 
d="M762 1400q137 0 244.5 -32.5t181.5 -94.5t112.5 -152.5t38.5 -206.5q0 -163 -67.5 -277.5t-195.5 -174.5l299 -462h-370l-219 401h-24h-285v-401h-327v1400h612zM762 663q128 0 197.5 60.5t69.5 181.5q0 117 -69.5 175t-197.5 58h-285v-475h285z" />
    <glyph glyph-name="S" unicode="S" horiz-adv-x="1277" 
d="M1081 1012q-48 29 -104 54.5t-113.5 45t-114.5 31t-107 11.5q-30 0 -60.5 -5.5t-55 -19t-40 -36.5t-15.5 -57q0 -50 32 -82.5t84 -56t119 -42t136.5 -41t136.5 -53t119 -77t84 -113.5t32 -163q0 -112 -47.5 -193t-125.5 -133t-177 -76.5t-203 -24.5q-84 0 -168.5 15
t-164.5 44t-154 71t-136 96l130 256q50 -45 111 -83.5t126.5 -67t132.5 -45t127 -16.5q36 0 72.5 7t65 23t46.5 43t18 67q0 51 -32 84t-84 56t-119 41.5t-136.5 40t-136.5 50.5t-119 74.5t-84 111t-32 159.5q0 105 44.5 183.5t119.5 130.5t174 77.5t207 25.5q72 0 144 -10.5
t141 -30t133 -48t120 -64.5z" />
    <glyph glyph-name="T" unicode="T" horiz-adv-x="1207" 
d="M15 1400h1177v-268h-426v-1132h-327v1132h-424v268z" />
    <glyph glyph-name="U" unicode="U" horiz-adv-x="1503" 
d="M452 577q0 -76 22.5 -136t62.5 -102t96 -64.5t123 -22.5q66 0 120.5 22t93 64t59.5 102.5t21 136.5v823h327v-823q0 -138 -43.5 -249t-124.5 -188.5t-196 -119.5t-258 -42q-144 0 -260.5 42t-198.5 119.5t-126 188.5t-44 249v823h326v-823z" />
    <glyph glyph-name="V" unicode="V" horiz-adv-x="1438" 
d="M0 1400h350l375 -1058l377 1058h337l-554 -1400h-338z" />
    <glyph glyph-name="W" unicode="W" horiz-adv-x="2195" 
d="M0 1400h350l298 -1064l297 1064h320l300 -1064l295 1064h336l-474 -1400h-337l-287 1006l-292 -1006h-336z" />
    <glyph glyph-name="X" unicode="X" horiz-adv-x="1448" 
d="M48 1400h380l286 -431l288 431h384l-464 -670l505 -730h-392l-321 469l-318 -469h-382l503 715z" />
    <glyph glyph-name="Y" unicode="Y" horiz-adv-x="1339" 
d="M511 450l-518 950h327l353 -631l344 631h329l-509 -941v-459h-326v450z" />
    <glyph glyph-name="Z" unicode="Z" horiz-adv-x="1345" 
d="M86 1400h1186v-212l-773 -925h784v-263h-1223v212l774 924h-748v264z" />
    <glyph glyph-name="bracketleft" unicode="[" horiz-adv-x="700" 
d="M142 1484h526v-237h-243v-1258h243v-237h-526v1732z" />
    <glyph glyph-name="backslash" unicode="\" horiz-adv-x="696" 
d="M578 1625h268l-643 -1850h-268z" />
    <glyph glyph-name="bracketright" unicode="]" horiz-adv-x="700" 
d="M558 -248h-526v237h242v1258h-242v237h526v-1732z" />
    <glyph glyph-name="asciicircum" unicode="^" horiz-adv-x="1131" 
d="M1066 623h-226l-273 597l-275 -597h-226l372 777h258z" />
    <glyph glyph-name="underscore" unicode="_" horiz-adv-x="1158" 
d="M0 -233h1158v-175h-1158v175z" />
    <glyph glyph-name="grave" unicode="`" horiz-adv-x="698" 
d="M371 1530l207 -305l-228 -20l-257 218z" />
    <glyph glyph-name="a" unicode="a" horiz-adv-x="1194" 
d="M766 125q-54 -69 -138 -104t-196 -35q-87 0 -155.5 25t-116.5 70t-73.5 106.5t-25.5 134.5q0 75 27 135t79 102t129 64.5t176 22.5h293v20q0 86 -55.5 134t-164.5 48q-71 0 -153.5 -24t-167.5 -70l-97 208q61 31 119.5 54.5t117.5 39.5t121.5 24t132.5 8
q109 0 194.5 -26.5t144 -76t89.5 -121t32 -162.5l1 -702h-313v125zM523 206q47 0 88 12.5t73 34.5t53.5 52.5t28.5 66.5v92h-236q-87 0 -128.5 -29t-41.5 -93q0 -63 43 -99.5t120 -36.5z" />
    <glyph glyph-name="b" unicode="b" horiz-adv-x="1368" 
d="M156 1484h318v-562q57 80 141.5 122t192.5 42q114 0 207 -40t159.5 -112.5t103 -174.5t36.5 -226q0 -122 -35.5 -222.5t-100.5 -172t-157 -110.5t-205 -39q-112 0 -198 42.5t-144 121.5v-153h-318v1484zM733 838q-57 0 -105 -22t-82 -61t-53 -93.5t-19 -120.5t19 -121
t53 -94.5t82 -61t105 -21.5q58 0 105.5 22t82 61t53.5 94t19 121q0 65 -19 119.5t-53.5 94t-82 61.5t-105.5 22z" />
    <glyph glyph-name="c" unicode="c" horiz-adv-x="1126" 
d="M859 712q-42 54 -101.5 84t-136.5 30q-55 0 -100.5 -21t-78 -59t-50.5 -91.5t-18 -118.5q0 -66 18 -120t50.5 -92.5t78 -59.5t100.5 -21q80 0 141 31t101 94l222 -143q-67 -112 -190 -174t-290 -62q-123 0 -224.5 39.5t-174 111t-112.5 172t-40 223.5t40 224.5t113 174
t174.5 112.5t225.5 40q158 0 278.5 -58.5t192.5 -166.5z" />
    <glyph glyph-name="d" unicode="d" horiz-adv-x="1370" 
d="M896 151q-57 -79 -141.5 -121t-193.5 -42q-114 0 -207.5 40t-160 112.5t-103 175t-36.5 226.5q0 123 36 223.5t101.5 172t158 110.5t204.5 39t198 -42.5t144 -122.5v562h318v-1484h-318v151zM636 833q-58 0 -106 -22t-82.5 -61.5t-54 -94.5t-19.5 -121t19 -121
t53.5 -94.5t83 -61.5t106.5 -22t105.5 22t82 61.5t53.5 94.5t19 121t-19 121t-53.5 94.5t-82 61.5t-105.5 22z" />
    <glyph glyph-name="e" unicode="e" horiz-adv-x="1197" 
d="M374 445q26 -104 97.5 -161t174.5 -57q75 0 143.5 29t124.5 86l167 -165q-82 -91 -198.5 -139.5t-263.5 -48.5q-130 0 -234.5 39.5t-178 111t-113 172t-39.5 223.5q0 124 40.5 225.5t114 173.5t175.5 112t226 40q142 0 246.5 -45t171 -128.5t95.5 -202t19 -265.5h-768z
M613 860q-49 0 -90.5 -16.5t-73 -47.5t-52.5 -74t-30 -96h475q-1 54 -17.5 97t-46.5 73.5t-72 47t-93 16.5z" />
    <glyph glyph-name="f" unicode="f" horiz-adv-x="823" 
d="M204 863h-144v212h144v101q0 91 31.5 160t86.5 115.5t128 70t156 23.5q54 0 109.5 -12t104.5 -32l-46 -239q-30 11 -62 20.5t-64 9.5q-54 0 -91 -30.5t-37 -95.5v-91h252v-212h-252v-863h-316v863z" />
    <glyph glyph-name="g" unicode="g" horiz-adv-x="1291" 
d="M1159 100q0 -115 -41.5 -207.5t-117 -157.5t-182 -100t-235.5 -35q-139 0 -258.5 39t-213.5 102l116 216q74 -53 158.5 -81t175.5 -28q65 0 117.5 17t89 48.5t56 76.5t19.5 101v118q-54 -74 -134.5 -113.5t-186.5 -39.5q-103 0 -189.5 37.5t-148 106t-96 164t-34.5 212.5
q0 114 33.5 208t94.5 161t145.5 104t186.5 37q109 1 191.5 -39t137.5 -115v143h316v-975zM598 848q-55 0 -100 -20.5t-77.5 -57.5t-50.5 -88.5t-18 -113.5t18 -113.5t50.5 -88.5t77.5 -57.5t100 -20.5q54 0 99.5 20.5t77.5 57.5t50 88.5t18 113.5t-18 113.5t-50 88.5
t-77.5 57.5t-99.5 20.5z" />
    <glyph glyph-name="h" unicode="h" horiz-adv-x="1352" 
d="M920 587q0 103 -55 161.5t-151 58.5q-56 0 -100.5 -21t-75.5 -58t-47.5 -87.5t-16.5 -110.5v-530h-318v1484h318v-595q57 100 150.5 149t218.5 50q90 0 163 -29t124.5 -82.5t79.5 -130t28 -171.5v-675h-318v587z" />
    <glyph glyph-name="i" unicode="i" horiz-adv-x="609" 
d="M146 1075h317v-1075h-317v1075zM303 1554q37 0 68.5 -13t54 -35.5t35.5 -54t13 -69.5q0 -37 -13 -68.5t-35.5 -54.5t-54 -36t-68.5 -13t-68.5 13t-54.5 36t-36 54.5t-13 68.5q0 38 13 69.5t36 54t54.5 35.5t68.5 13z" />
    <glyph glyph-name="j" unicode="j" horiz-adv-x="602" 
d="M-60 -135q22 -7 45 -12t46 -5q58 0 88 39.5t30 115.5v1072h318v-1119q0 -84 -25.5 -150.5t-73.5 -112.5t-116 -70t-154 -23q-123 2 -222 41zM304 1554q37 0 68.5 -13t54 -35.5t35.5 -54t13 -69.5q0 -37 -13 -68.5t-35.5 -54.5t-54 -36t-68.5 -13t-68.5 13t-54.5 36
t-36 54.5t-13 68.5q0 38 13 69.5t36 54t54.5 35.5t68.5 13z" />
    <glyph glyph-name="k" unicode="k" horiz-adv-x="1244" 
d="M156 1484h318v-815l384 406h361l-396 -415l412 -660h-377l-251 434l-133 -139v-295h-318v1484z" />
    <glyph glyph-name="l" unicode="l" horiz-adv-x="670" 
d="M444 374q0 -60 26.5 -88t69.5 -28q24 0 49.5 8.5t53.5 22.5l30 -254q-51 -24 -103 -37t-102 -13q-69 0 -131 23t-108.5 68.5t-74 115t-27.5 162.5v1130h317v-1110z" />
    <glyph glyph-name="m" unicode="m" horiz-adv-x="2077" 
d="M895 587q0 104 -53 162.5t-146 58.5q-54 -1 -97 -22.5t-73.5 -58t-46.5 -87t-16 -109.5v-531h-317v1075h317v-184q57 99 148.5 147.5t213.5 49.5q135 0 229 -65t133 -181q53 124 151.5 184.5t235.5 61.5q89 0 160.5 -29t122 -82.5t78 -130t27.5 -171.5v-675h-318v587
q0 104 -53.5 162.5t-146.5 58.5q-54 -1 -96.5 -22.5t-72.5 -58t-46 -87t-16 -109.5v-531h-318v587z" />
    <glyph glyph-name="n" unicode="n" horiz-adv-x="1341" 
d="M908 587q0 103 -54.5 161.5t-150.5 58.5q-52 0 -94.5 -18.5t-73 -51t-49 -77.5t-22.5 -99v-561h-318v1075h318v-184q57 100 150 148t218 49q90 0 163 -29t124.5 -82.5t79 -130t27.5 -171.5v-675h-318v587z" />
    <glyph glyph-name="o" unicode="o" 
d="M635 1086q130 0 237 -39.5t183 -111.5t117.5 -173t41.5 -224t-41.5 -224t-117.5 -173.5t-183 -112t-237 -39.5q-131 0 -238 39.5t-183.5 112t-118 173.5t-41.5 224t41.5 224t118 173t183.5 111.5t238 39.5zM635 832q-58 0 -106 -21.5t-82.5 -61t-53.5 -94t-19 -120.5
q0 -67 19 -122t53.5 -94.5t82.5 -61t106 -21.5t105.5 21.5t82 61t53.5 94.5t19 122q0 66 -19 120.5t-53.5 94t-82 61t-105.5 21.5z" />
    <glyph glyph-name="p" unicode="p" horiz-adv-x="1368" 
d="M156 1075h318v-153q57 80 141.5 122t192.5 42q114 0 207 -40t159.5 -112.5t103 -174.5t36.5 -226q0 -122 -35.5 -222.5t-100.5 -172t-157 -110.5t-205 -39q-112 0 -198 42.5t-144 121.5v-541h-318v1463zM733 838q-57 0 -105 -22t-82 -61t-53 -93.5t-19 -120.5t19 -121
t53 -94.5t82 -61t105 -21.5q58 0 105.5 22t82 61t53.5 94t19 121q0 65 -19 119.5t-53.5 94t-82 61.5t-105.5 22z" />
    <glyph glyph-name="q" unicode="q" horiz-adv-x="1370" 
d="M896 151q-57 -79 -141.5 -121t-193.5 -42q-114 0 -207.5 40t-160 112.5t-103 175t-36.5 226.5q0 123 36 223.5t101.5 172t158 110.5t204.5 39t198 -42.5t144 -122.5v153h318v-1463h-318v539zM636 833q-58 0 -106 -22t-82.5 -61.5t-54 -94.5t-19.5 -121t19 -121
t53.5 -94.5t83 -61.5t106.5 -22t105.5 22t82 61.5t53.5 94.5t19 121t-19 121t-53.5 94.5t-82 61.5t-105.5 22z" />
    <glyph glyph-name="r" unicode="r" horiz-adv-x="838" 
d="M146 1075h318v-190q56 99 146 150.5t208 52.5v-288q-78 6 -141 -9.5t-108.5 -49t-72.5 -83.5t-32 -112v-546h-318v1075z" />
    <glyph glyph-name="s" unicode="s" horiz-adv-x="1006" 
d="M833 762q-91 49 -177.5 76t-154.5 27q-52 0 -85 -19.5t-33 -62.5q0 -30 24.5 -50.5t64 -36.5t90.5 -30t104 -31.5t104 -41.5t90.5 -60.5t63.5 -87.5t24 -122q0 -82 -34 -145t-94 -105.5t-141 -64t-174 -21.5q-131 0 -253.5 38t-216.5 113l103 206q43 -32 90 -57t96 -42
t97 -26t93 -9q56 0 93.5 21t37.5 64q0 33 -24 54.5t-63 37.5t-89.5 30t-102.5 31.5t-102 41t-89.5 59t-63 85.5t-23.5 121q0 83 33.5 145.5t91 104.5t135.5 63t168 21q113 0 223 -31t203 -88z" />
    <glyph glyph-name="t" unicode="t" horiz-adv-x="856" 
d="M510 1075h290v-212h-290v-493q0 -69 26 -97.5t74 -28.5q38 0 74.5 12t69.5 28l65 -223q-60 -36 -133 -55.5t-149 -19.5q-73 0 -136 20.5t-109 62t-72 104t-26 145.5v545h-150v212h150v249h316v-249z" />
    <glyph glyph-name="u" unicode="u" horiz-adv-x="1321" 
d="M432 488q0 -103 52.5 -161.5t143.5 -58.5q54 1 96.5 22t72 58t45 87.5t15.5 109.5v530h318v-1075h-318v184q-55 -99 -145.5 -147.5t-211.5 -49.5q-88 0 -159.5 29t-122 82.5t-77.5 130t-27 171.5v675h318v-587z" />
    <glyph glyph-name="v" unicode="v" horiz-adv-x="1120" 
d="M-7 1075h329l247 -785l247 785h318l-407 -1075h-327z" />
    <glyph glyph-name="w" unicode="w" horiz-adv-x="1853" 
d="M-7 1075h324l235 -771l228 771h310l231 -771l232 771h314l-393 -1075h-318l-225 713l-227 -713h-317z" />
    <glyph glyph-name="x" unicode="x" horiz-adv-x="1188" 
d="M37 1075h365l193 -326l205 326h348l-342 -524l366 -551h-366l-211 352l-231 -352h-351l370 550z" />
    <glyph glyph-name="y" unicode="y" horiz-adv-x="1136" 
d="M680 -120q-57 -143 -157 -212.5t-243 -69.5q-87 0 -158 25t-140 79l134 220q37 -29 70 -42.5t71 -13.5q95 0 140 95l28 61l-445 1053h327l277 -742l249 742h317z" />
    <glyph glyph-name="z" unicode="z" horiz-adv-x="1099" 
d="M93 1075l926 -1v-194l-547 -640h566v-241l-964 1v194l547 640l-528 1v240z" />
    <glyph glyph-name="braceleft" unicode="{" horiz-adv-x="716" 
d="M134 739q42 0 59.5 21t17.5 72v381q0 75 18 127.5t58.5 85t105.5 47t159 14.5h122v-237q-52 0 -86 -7.5t-54.5 -23t-29 -40.5t-8.5 -61v-267q0 -57 -12.5 -93.5t-37 -61t-62.5 -42.5t-89 -37q51 -19 89 -36.5t62.5 -42.5t37 -62t12.5 -94v-265q0 -36 8.5 -61t29 -41
t54.5 -23.5t86 -7.5v-236h-122q-94 0 -159 14.5t-105.5 47t-58.5 84.5t-18 128v381q0 51 -17.5 72t-59.5 21h-73v243h73z" />
    <glyph glyph-name="bar" unicode="|" horiz-adv-x="584" 
d="M173 1610h237v-1833h-237v1833z" />
    <glyph glyph-name="braceright" unicode="}" horiz-adv-x="716" 
d="M654 739v-243h-73q-41 0 -58.5 -21t-17.5 -72v-381q0 -76 -18 -128t-58.5 -84.5t-106 -47t-159.5 -14.5h-122v236q52 0 86.5 7.5t55 23.5t29 41t8.5 61v265q0 57 12.5 94t37 62t62.5 42.5t89 36.5q-51 19 -89 37t-62.5 42.5t-37 61t-12.5 93.5v267q0 36 -8.5 61t-29 40.5
t-55 23t-86.5 7.5v237h122q94 0 159.5 -14.5t106 -47t58.5 -85t18 -127.5v-381q0 -51 17.5 -72t58.5 -21h73z" />
    <glyph glyph-name="asciitilde" unicode="~" horiz-adv-x="1014" 
d="M898 805q0 -165 -54 -244.5t-164 -79.5q-51 0 -91.5 16.5t-73.5 36t-61 36t-54 16.5q-68 0 -68 -96h-215q0 165 54 244.5t165 79.5q50 0 90 -16t74 -35.5t62.5 -36t54.5 -16.5q68 0 68 95h213z" />
    <glyph glyph-name="uni00A0" unicode="&#xa0;" horiz-adv-x="516" 
 />
    <glyph glyph-name="exclamdown" unicode="&#xa1;" horiz-adv-x="487" 
d="M395 -296h-303v354l55 566h193l55 -566v-354zM244 795q-34 0 -63 11.5t-50 32.5t-33 50t-12 63q0 35 12 64t33 50t50 33t63 12t63 -12t50 -33t32.5 -50t11.5 -64q0 -34 -11.5 -63t-32.5 -50t-50 -32.5t-63 -11.5z" />
    <glyph glyph-name="cent" unicode="&#xa2;" horiz-adv-x="1200" 
d="M498 -3q-101 16 -183 61.5t-140 115t-89.5 161t-31.5 200.5q0 110 31.5 202t89.5 162.5t140 116t183 61.5v313h237v-315q113 -20 200 -74.5t143 -139.5l-219 -149q-42 54 -101.5 84t-136.5 30q-54 0 -99.5 -21t-78.5 -59t-51 -91.5t-18 -118.5q0 -66 18 -120t51 -92.5
t78.5 -59.5t99.5 -21q80 0 141 31t101 94l222 -143q-54 -90 -142.5 -147.5t-207.5 -77.5v-300h-237v297z" />
    <glyph glyph-name="sterling" unicode="&#xa3;" horiz-adv-x="1117" 
d="M680 1415q121 0 229 -45t189 -130l-124 -239q-63 69 -128.5 104t-130.5 35q-84 0 -127.5 -48.5t-43.5 -145.5v-189h338v-128h-338v-381h526v-248h-1010v248h156v381h-156v128h156v195q0 111 31 197t90 145t145.5 90t197.5 31z" />
    <glyph glyph-name="currency" unicode="&#xa4;" horiz-adv-x="1408" 
d="M232 1285l200 -199q60 36 128 55.5t143 19.5t144 -19.5t129 -55.5l200 199l178 -178l-198 -199q35 -59 54.5 -126t19.5 -141q0 -75 -21 -144t-59 -129l204 -205l-178 -178l-210 208q-58 -33 -124.5 -51t-138.5 -18t-138 18t-124 51l-209 -208l-178 178l204 205
q-38 60 -59 129t-21 144q0 74 19.5 141t54.5 125l-198 200zM703 913q-57 0 -107 -21.5t-87.5 -58.5t-59 -86.5t-21.5 -105.5q0 -55 21.5 -104t59 -85.5t87.5 -57.5t107 -21q58 0 108.5 21t88.5 57.5t60 85.5t22 104q0 56 -22 105.5t-60 86.5t-88.5 58.5t-108.5 21.5z" />
    <glyph glyph-name="yen" unicode="&#xa5;" horiz-adv-x="1352" 
d="M130 632h289l-419 768h328l352 -631l344 631h328l-415 -768h292v-128h-361l-24 -43v-65h385v-128h-385v-268h-326v268h-388v128h388v55l-29 53h-359v128z" />
    <glyph glyph-name="brokenbar" unicode="&#xa6;" horiz-adv-x="584" 
d="M173 1610h237v-686h-237v686zM173 465h237v-688h-237v688z" />
    <glyph glyph-name="section" unicode="&#xa7;" horiz-adv-x="1068" 
d="M886 1076q-99 51 -183 76.5t-147 25.5q-67 0 -105 -24t-38 -63q0 -34 26 -58t68 -42.5t96.5 -35t110.5 -35.5t110.5 -43.5t96.5 -60t68 -85t26 -117.5q0 -44 -15 -84.5t-42 -75t-64 -61.5t-81 -44q36 -19 62.5 -39t44 -44.5t26 -55t8.5 -70.5q0 -69 -31 -126.5t-88.5 -99
t-139 -65t-182.5 -23.5q-129 0 -253 39t-225 115l91 194q97 -66 194 -101t185 -35q73 0 115 27t42 66q0 34 -25.5 57t-67.5 41.5t-95 35t-109 35.5t-109 43.5t-95 60t-67.5 84.5t-25.5 116q0 94 58 160.5t161 101.5q-46 22 -76.5 45t-48.5 48.5t-25.5 55t-7.5 63.5
q0 68 30 125t85 98t133.5 64t175.5 23q109 0 216.5 -29t213.5 -89zM510 718q-78 0 -118.5 -25t-40.5 -69q0 -28 16.5 -50.5t46 -39t68.5 -25.5t84 -9q80 0 119.5 27t39.5 69q0 27 -16.5 49.5t-46 38.5t-68.5 25t-84 9z" />
    <glyph glyph-name="dieresis" unicode="&#xa8;" horiz-adv-x="816" 
d="M240 1516q31 0 57.5 -10.5t45.5 -29.5t29.5 -45.5t10.5 -57.5t-10.5 -57t-29.5 -45.5t-45.5 -30.5t-57.5 -11t-57.5 11t-45.5 30.5t-29.5 45.5t-10.5 57t10.5 57.5t29.5 45.5t45.5 29.5t57.5 10.5zM616 1516q31 0 57 -10.5t45 -29.5t29.5 -45.5t10.5 -57.5t-10.5 -57
t-29.5 -45.5t-45 -30.5t-57 -11t-57.5 11t-46 30.5t-30 45.5t-10.5 57t10.5 57.5t30 45.5t46 29.5t57.5 10.5z" />
    <glyph glyph-name="copyright" unicode="&#xa9;" horiz-adv-x="1460" 
d="M916 818q-35 39 -80 61.5t-91 22.5q-42 0 -78 -15.5t-63 -42.5t-42 -63.5t-15 -79.5t15 -80.5t42 -65.5t63 -43.5t78 -15.5q43 0 89 20.5t82 56.5l90 -96q-53 -54 -124 -85.5t-145 -31.5t-137.5 25.5t-110 71t-73 107.5t-26.5 134t27 133t74 106t111.5 70.5t139.5 25.5
q36 0 72.5 -7.5t71 -22t65 -34.5t55.5 -46zM731 1378q143 0 266 -53.5t214.5 -146t143.5 -215.5t52 -263q0 -92 -24 -178.5t-67.5 -162.5t-105 -138.5t-137 -107.5t-163.5 -70t-183 -25t-182 24.5t-162 69t-135.5 106.5t-104 137.5t-67 162t-23.5 178.5q0 93 23.5 179
t67 162t105 138.5t137 107.5t163 70t182.5 25zM731 1230q-112 0 -209 -42.5t-168.5 -115.5t-112 -170t-40.5 -206t40.5 -205.5t111 -168.5t166.5 -114t208 -42q113 0 210 42.5t168.5 115.5t112 170t40.5 206t-40.5 205.5t-111.5 168.5t-167 114t-208 42z" />
    <glyph glyph-name="ordfeminine" unicode="&#xaa;" horiz-adv-x="782" 
d="M486 866q-34 -47 -88 -71.5t-126 -24.5q-52 0 -94 14.5t-70.5 40.5t-44 62.5t-15.5 80.5q0 92 66.5 140.5t192.5 49.5h178v14q0 47 -32.5 73.5t-99.5 26.5q-45 0 -99.5 -14t-112.5 -39l-51 143q80 31 160 49.5t155 18.5q141 0 218.5 -61t76.5 -172v-417h-214v86zM346 907
q45 0 81 18t59 59v66h-134q-47 0 -72.5 -15t-25.5 -50t24.5 -56.5t67.5 -21.5z" />
    <glyph glyph-name="guillemotleft" unicode="&#xab;" horiz-adv-x="982" 
d="M252 891h260l-214 -362l214 -362h-260l-238 362zM675 891h260l-214 -362l214 -362h-260l-238 362z" />
    <glyph glyph-name="logicalnot" unicode="&#xac;" horiz-adv-x="1149" 
d="M66 840h949v-562h-229v360h-720v202z" />
    <glyph glyph-name="uni00AD" unicode="&#xad;" horiz-adv-x="746" 
d="M113 714h519v-204h-519v204z" />
    <glyph glyph-name="registered" unicode="&#xae;" horiz-adv-x="1460" 
d="M731 1378q143 0 266 -53.5t214.5 -146t143.5 -215.5t52 -263q0 -92 -24 -178.5t-67.5 -162.5t-105 -138.5t-137 -107.5t-163.5 -70t-183 -25t-182 24.5t-162 69t-135.5 106.5t-104 137.5t-67 162t-23.5 178.5q0 93 23.5 179t67 162t105 138.5t137 107.5t163 70t182.5 25z
M731 1230q-112 0 -209 -42.5t-168.5 -115.5t-112 -170t-40.5 -206t40.5 -205.5t111 -168.5t166.5 -114t208 -42q113 0 210 42.5t168.5 115.5t112 170t40.5 206t-40.5 205.5t-111.5 168.5t-167 114t-208 42zM748 1044q129 0 198.5 -58t69.5 -166q0 -76 -32 -129.5t-92 -81.5
l142 -215h-170l-104 188h-12h-128v-188h-148v650h276zM748 698q60 0 93.5 30t33.5 87q0 56 -33.5 85t-93.5 29h-128v-231h128z" />
    <glyph glyph-name="macron" unicode="&#xaf;" horiz-adv-x="692" 
d="M46 1469h610v-187h-610v187z" />
    <glyph glyph-name="degree" unicode="&#xb0;" horiz-adv-x="735" 
d="M402 1630q49 0 92 -18.5t75 -50.5t50.5 -75t18.5 -91t-18.5 -90.5t-50.5 -74t-75 -50t-92 -18.5q-48 0 -91 18.5t-75.5 50t-51 74t-18.5 90.5t18.5 91t50.5 75t75 50.5t92 18.5zM402 1505q-23 0 -43 -8.5t-35 -23.5t-24 -35t-9 -43q0 -22 9 -41.5t24 -34.5t35 -23.5
t43 -8.5t43 8.5t35 23.5t24 34.5t9 41.5q0 23 -9 43t-24 35t-35 23.5t-43 8.5z" />
    <glyph glyph-name="plusminus" unicode="&#xb1;" horiz-adv-x="1014" 
d="M66 754h340v339h202v-339h340v-204h-340v-339h-202v339h-340v204zM66 217h882v-204h-882v204z" />
    <glyph glyph-name="twosuperior" unicode="&#xb2;" horiz-adv-x="748" 
d="M359 1184q36 38 60 76t24 67q0 36 -25.5 55.5t-73.5 19.5q-54 0 -117 -29t-125 -80l-88 161q86 60 177 94t189 34q51 0 105 -12t98 -39t72.5 -69.5t28.5 -102.5q0 -41 -16 -80.5t-41 -76t-55 -68.5t-58 -59l-181 -184h376v-171h-668v142z" />
    <glyph glyph-name="threesuperior" unicode="&#xb3;" horiz-adv-x="730" 
d="M242 1233h140q95 0 95 74q0 45 -35.5 68.5t-102.5 23.5q-39 0 -86.5 -13t-104.5 -42l-65 177q68 32 131.5 45.5t123.5 13.5q83 0 150.5 -17.5t116 -49t75 -76t26.5 -98.5q0 -57 -31 -101.5t-80 -69.5q59 -27 95 -78t36 -120q0 -58 -24.5 -108t-70.5 -86.5t-111.5 -57
t-146.5 -20.5q-46 0 -93 8t-91.5 22t-85 34t-72.5 44l89 164q60 -49 121 -74.5t117 -25.5q68 0 104.5 29t36.5 78q0 51 -37 75.5t-106 24.5h-114v156z" />
    <glyph glyph-name="acute" unicode="&#xb4;" horiz-adv-x="700" 
d="M327 1530l277 -107l-276 -218l-228 20z" />
    <glyph glyph-name="uni00B5" unicode="&#xb5;" horiz-adv-x="1364" 
d="M144 1076h313v-561q0 -55 11.5 -102.5t37 -83t67 -55.5t102.5 -20q64 0 111 22.5t77.5 61.5t45.5 92t15 114v532h312v-1076h-282v135q-45 -71 -116.5 -110.5t-165.5 -39.5q-129 0 -215 69v-454h-313v1476z" />
    <glyph glyph-name="paragraph" unicode="&#xb6;" horiz-adv-x="1284" 
d="M443 668q-14 -2 -27.5 -2h-27.5q-79 0 -139 19t-104 50.5t-74 72.5t-47.5 85.5t-25 89.5t-7.5 84q0 79 26 154t83 133.5t148 94t220 35.5h665v-1699h-238v1518h-215v-1518h-237v883z" />
    <glyph glyph-name="periodcentered" unicode="&#xb7;" horiz-adv-x="465" 
d="M230 750q37 0 68.5 -13t54 -35.5t35.5 -54t13 -69.5q0 -37 -13 -68.5t-35.5 -54.5t-54 -36t-68.5 -13t-68.5 13t-54.5 36t-36 54.5t-13 68.5q0 38 13 69.5t36 54t54.5 35.5t68.5 13z" />
    <glyph glyph-name="cedilla" unicode="&#xb8;" horiz-adv-x="626" 
d="M272 54l185 -18l-41 -108q44 -9 75.5 -25t51 -37.5t28.5 -47t9 -52.5q0 -48 -20 -83.5t-54.5 -58.5t-79.5 -34t-95 -11q-55 0 -109.5 11.5t-101.5 29.5l52 150q24 -10 52.5 -15t54.5 -5q38 0 59.5 13t21.5 32q0 23 -28.5 35.5t-75.5 12.5h-52z" />
    <glyph glyph-name="onesuperior" unicode="&#xb9;" horiz-adv-x="578" 
d="M469 720h-225v563h-189v167h189v112h225v-842z" />
    <glyph glyph-name="ordmasculine" unicode="&#xba;" horiz-adv-x="824" 
d="M411 1423q83 0 150.5 -23.5t115.5 -66.5t74.5 -103.5t26.5 -134.5t-26.5 -134.5t-74.5 -103t-115.5 -66t-150.5 -23.5q-82 0 -149.5 23.5t-115.5 66t-74 103t-26 134.5t26 134.5t74 103.5t115.5 66.5t149.5 23.5zM411 1255q-66 0 -106 -44t-40 -118t40 -118t106 -44
q65 0 104.5 44t39.5 118t-39.5 118t-104.5 44z" />
    <glyph glyph-name="guillemotright" unicode="&#xbb;" horiz-adv-x="997" 
d="M321 167h-259l213 362l-213 362h259l239 -362zM744 167h-259l213 362l-213 362h259l239 -362z" />
    <glyph glyph-name="onequarter" unicode="&#xbc;" horiz-adv-x="1637" 
d="M1247 842h274v-502h118v-157h-118v-183h-213v183h-416v147zM1152 1400h227l-1006 -1400h-228zM469 566h-225v563h-189v167h189v112h225v-842zM1308 340v300l-206 -300h206z" />
    <glyph glyph-name="onehalf" unicode="&#xbd;" horiz-adv-x="1713" 
d="M1262 464q37 38 61 76t24 67q0 36 -25.5 55.5t-73.5 19.5q-54 0 -117 -29t-125 -80l-88 161q86 60 176.5 94t189.5 34q51 0 105 -12t98 -39t72 -69.5t28 -102.5q0 -41 -16 -80.5t-41 -76t-55 -68.5t-58 -59l-180 -184h376v-171h-668v142zM1152 1400h227l-1006 -1400h-228
zM469 566h-225v563h-189v167h189v112h225v-842z" />
    <glyph glyph-name="threequarters" unicode="&#xbe;" horiz-adv-x="1797" 
d="M1417 842h274v-502h118v-157h-118v-183h-213v183h-416v147zM1322 1400h228l-1006 -1400h-228zM242 1084h140q95 0 95 74q0 45 -35.5 68.5t-102.5 23.5q-39 0 -86.5 -13t-104.5 -42l-65 177q68 32 131.5 45t123.5 13q83 0 150.5 -17t116 -48.5t75 -76t26.5 -98.5
q0 -57 -31 -101.5t-80 -69.5q59 -27 95 -78.5t36 -120.5q0 -58 -24.5 -108t-70.5 -86.5t-111.5 -57t-146.5 -20.5q-46 0 -93 8t-91.5 22t-85 34.5t-72.5 44.5l89 163q60 -49 121 -74t117 -25q68 0 104.5 29t36.5 78q0 51 -37 75t-106 24h-114v157zM1478 340v300l-206 -300
h206z" />
    <glyph glyph-name="questiondown" unicode="&#xbf;" horiz-adv-x="1177" 
d="M774 615q16 -37 23 -68t7 -57q0 -69 -31.5 -117t-82.5 -79l-153 -95q-45 -28 -75 -60t-30 -77q0 -36 15.5 -65.5t43.5 -50.5t67.5 -32t87.5 -11q97 0 170 39t120 109l243 -142q-40 -62 -95.5 -111.5t-126 -84.5t-156.5 -54t-188 -19q-113 0 -206.5 24.5t-161 72
t-104.5 116t-37 156.5q0 93 34 157.5t91 100.5l164 104q24 15 44.5 29.5t36 30t24.5 33t9 38.5q0 17 -4.5 32t-10.5 32zM629 1079q42 0 77.5 -14t61 -39t39.5 -57.5t14 -70.5t-14 -71t-39.5 -57t-61 -38t-77.5 -14t-77.5 14t-61 38t-39.5 57t-14 71t14 70.5t39.5 57.5t61 39
t77.5 14z" />
    <glyph glyph-name="Agrave" unicode="&#xc0;" horiz-adv-x="1524" 
d="M600 1400h336l595 -1400h-349l-108 274h-634l-109 -274h-338zM974 526l-216 547l-218 -547h434zM698 1831l207 -305l-228 -20l-257 218z" />
    <glyph glyph-name="Aacute" unicode="&#xc1;" horiz-adv-x="1524" 
d="M600 1400h336l595 -1400h-349l-108 274h-634l-109 -274h-338zM974 526l-216 547l-218 -547h434zM828 1831l277 -107l-276 -218l-228 20z" />
    <glyph glyph-name="Acircumflex" unicode="&#xc2;" horiz-adv-x="1524" 
d="M600 1400h336l595 -1400h-349l-108 274h-634l-109 -274h-338zM974 526l-216 547l-218 -547h434zM617 1813h290l217 -295h-246l-116 128l-116 -128h-246z" />
    <glyph glyph-name="Atilde" unicode="&#xc3;" horiz-adv-x="1524" 
d="M600 1400h336l595 -1400h-349l-108 274h-634l-109 -274h-338zM974 526l-216 547l-218 -547h434zM1098 1808q0 -67 -10 -122t-32 -94t-57.5 -60.5t-86.5 -21.5q-44 0 -83 14.5t-72.5 32t-61.5 32t-49 14.5q-32 0 -43.5 -24t-12.5 -63h-187q0 67 10 122t32 94.5t57.5 61
t87.5 21.5q44 0 83 -14.5t72.5 -32t61 -32t48.5 -14.5q33 0 44.5 24t12.5 62h186z" />
    <glyph glyph-name="Adieresis" unicode="&#xc4;" horiz-adv-x="1524" 
d="M600 1400h336l595 -1400h-349l-108 274h-634l-109 -274h-338zM974 526l-216 547l-218 -547h434zM576 1798q31 0 57.5 -10.5t45.5 -29.5t29.5 -45t10.5 -58q0 -31 -10.5 -57t-29.5 -45.5t-45.5 -30.5t-57.5 -11t-57.5 11t-45.5 30.5t-29.5 45.5t-10.5 57q0 32 10.5 58
t29.5 45t45.5 29.5t57.5 10.5zM952 1798q31 0 57 -10.5t45 -29.5t29.5 -45t10.5 -58q0 -31 -10.5 -57t-29.5 -45.5t-45 -30.5t-57 -11t-57.5 11t-46 30.5t-30 45.5t-10.5 57q0 32 10.5 58t30 45t46 29.5t57.5 10.5z" />
    <glyph glyph-name="Aring" unicode="&#xc5;" horiz-adv-x="1524" 
d="M595 1388q-29 32 -46 72.5t-17 86.5q0 48 18.5 90.5t50.5 74t75 50t92 18.5t91.5 -18.5t74.5 -50t50.5 -74t18.5 -90.5q0 -46 -17 -86.5t-46 -71.5l591 -1389h-349l-108 274h-634l-109 -274h-338zM974 526l-216 547l-218 -547h434zM768 1639q-19 0 -36.5 -7t-30.5 -19.5
t-20.5 -29.5t-7.5 -36t7.5 -36t20.5 -30t30.5 -20t36.5 -7q39 0 66.5 27t27.5 66q0 19 -7.5 36t-20 29.5t-29.5 19.5t-37 7z" />
    <glyph glyph-name="AE" unicode="&#xc6;" horiz-adv-x="2177" 
d="M990 309h-492l-166 -309h-339l799 1400h1271v-262h-747v-305h674v-261h-674v-310h769v-262h-1095v309zM990 547v602h-42l-322 -602h364z" />
    <glyph glyph-name="Ccedilla" unicode="&#xc7;" horiz-adv-x="1386" 
d="M1164 963q-36 42 -78.5 76t-89.5 58t-96 37t-97 13q-88 0 -164 -33.5t-132 -93t-88 -140t-32 -173.5t32 -174t88 -141t132 -94t164 -34q47 0 95 11.5t94.5 33.5t90 52.5t81.5 69.5l191 -202q-51 -52 -112 -96t-128 -76.5t-138 -52.5t-142 -25l-20 -51q44 -9 75.5 -25
t51 -37.5t28.5 -47t9 -52.5q0 -48 -20.5 -83.5t-54.5 -58.5t-79 -34t-95 -11q-55 0 -109.5 11.5t-102.5 29.5l53 150q24 -10 52.5 -15t54.5 -5q38 0 59.5 13t21.5 32q0 23 -28.5 35.5t-75.5 12.5h-52l48 146q-131 22 -240.5 85t-189 157t-124 214.5t-44.5 257.5
q0 153 57 284t156.5 227.5t236 151t295.5 54.5q77 0 153.5 -16.5t148.5 -46.5t137 -73t117 -97z" />
    <glyph glyph-name="Egrave" unicode="&#xc8;" horiz-adv-x="1338" 
d="M150 1400h1074v-262h-747v-305h673v-261h-673v-310h769v-262h-1096v1400zM635 1832l207 -305l-228 -20l-257 218z" />
    <glyph glyph-name="Eacute" unicode="&#xc9;" horiz-adv-x="1338" 
d="M150 1400h1074v-262h-747v-305h673v-261h-673v-310h769v-262h-1096v1400zM765 1832l277 -107l-276 -218l-228 20z" />
    <glyph glyph-name="Ecircumflex" unicode="&#xca;" horiz-adv-x="1338" 
d="M150 1400h1074v-262h-747v-305h673v-261h-673v-310h769v-262h-1096v1400zM554 1814h290l217 -295h-246l-116 128l-116 -128h-246z" />
    <glyph glyph-name="Edieresis" unicode="&#xcb;" horiz-adv-x="1338" 
d="M150 1400h1074v-262h-747v-305h673v-261h-673v-310h769v-262h-1096v1400zM512 1799q31 0 57.5 -10.5t45.5 -29.5t29.5 -45t10.5 -58q0 -31 -10.5 -57t-29.5 -45.5t-45.5 -30.5t-57.5 -11t-57.5 11t-45.5 30.5t-29.5 45.5t-10.5 57q0 32 10.5 58t29.5 45t45.5 29.5
t57.5 10.5zM888 1799q31 0 57 -10.5t45 -29.5t29.5 -45t10.5 -58q0 -31 -10.5 -57t-29.5 -45.5t-45 -30.5t-57 -11t-57.5 11t-46 30.5t-30 45.5t-10.5 57q0 32 10.5 58t30 45t46 29.5t57.5 10.5z" />
    <glyph glyph-name="Igrave" unicode="&#xcc;" horiz-adv-x="628" 
d="M150 1400h327v-1400h-327v1400zM249 1831l207 -305l-228 -20l-257 218z" />
    <glyph glyph-name="Iacute" unicode="&#xcd;" horiz-adv-x="628" 
d="M150 1400h327v-1400h-327v1400zM379 1831l277 -107l-276 -218l-228 20z" />
    <glyph glyph-name="Icircumflex" unicode="&#xce;" horiz-adv-x="628" 
d="M150 1400h327v-1400h-327v1400zM168 1813h290l217 -295h-246l-116 128l-116 -128h-246z" />
    <glyph glyph-name="Idieresis" unicode="&#xcf;" horiz-adv-x="628" 
d="M150 1400h327v-1400h-327v1400zM126 1798q31 0 57.5 -10.5t45.5 -29.5t29.5 -45t10.5 -58q0 -31 -10.5 -57t-29.5 -45.5t-45.5 -30.5t-57.5 -11t-57.5 11t-45.5 30.5t-29.5 45.5t-10.5 57q0 32 10.5 58t29.5 45t45.5 29.5t57.5 10.5zM502 1798q31 0 57 -10.5t45 -29.5
t29.5 -45t10.5 -58q0 -31 -10.5 -57t-29.5 -45.5t-45 -30.5t-57 -11t-57.5 11t-46 30.5t-30 45.5t-10.5 57q0 32 10.5 58t30 45t46 29.5t57.5 10.5z" />
    <glyph glyph-name="Eth" unicode="&#xd0;" horiz-adv-x="1536" 
d="M14 779h136v621h594q164 0 300 -51.5t234 -144t152 -221t54 -283.5q0 -154 -54.5 -283t-153.5 -221.5t-237 -144t-305 -51.5h-584v622h-136v157zM753 265q86 0 159 31.5t126 88.5t83 136.5t30 175.5q0 97 -31 177.5t-86 138.5t-131 90t-165 32h-260v-356h343v-157h-343
v-357h275z" />
    <glyph glyph-name="Ntilde" unicode="&#xd1;" horiz-adv-x="1574" 
d="M150 1400h294l672 -903v903h307v-1400h-295l-668 898v-898h-310v1400zM1135 1809q0 -67 -10 -122t-32 -94t-57.5 -60.5t-86.5 -21.5q-44 0 -83 14.5t-72.5 32t-61.5 32t-49 14.5q-32 0 -43.5 -24t-12.5 -63h-187q0 67 10 122t32 94.5t57.5 61t87.5 21.5q44 0 83 -14.5
t72.5 -32t61 -32t48.5 -14.5q33 0 44.5 24t12.5 62h186z" />
    <glyph glyph-name="Ograve" unicode="&#xd2;" horiz-adv-x="1611" 
d="M806 1420q161 0 298.5 -54.5t238 -151t158 -228t57.5 -284.5q0 -102 -26 -195.5t-74 -174t-115.5 -146t-151 -112t-181 -71.5t-204.5 -25q-161 0 -299 55.5t-239 152.5t-158 229.5t-57 286.5t57 285.5t158 227.5t239 150.5t299 54.5zM809 1146q-86 0 -163 -34t-134.5 -94
t-91 -141t-33.5 -175q0 -95 34 -177t91.5 -143t134.5 -95.5t162 -34.5q86 0 161.5 34.5t131.5 95.5t88.5 143t32.5 177q0 94 -32.5 175t-88.5 141t-131.5 94t-161.5 34zM741 1832l207 -305l-228 -20l-257 218z" />
    <glyph glyph-name="Oacute" unicode="&#xd3;" horiz-adv-x="1611" 
d="M806 1420q161 0 298.5 -54.5t238 -151t158 -228t57.5 -284.5q0 -102 -26 -195.5t-74 -174t-115.5 -146t-151 -112t-181 -71.5t-204.5 -25q-161 0 -299 55.5t-239 152.5t-158 229.5t-57 286.5t57 285.5t158 227.5t239 150.5t299 54.5zM809 1146q-86 0 -163 -34t-134.5 -94
t-91 -141t-33.5 -175q0 -95 34 -177t91.5 -143t134.5 -95.5t162 -34.5q86 0 161.5 34.5t131.5 95.5t88.5 143t32.5 177q0 94 -32.5 175t-88.5 141t-131.5 94t-161.5 34zM871 1832l277 -107l-276 -218l-228 20z" />
    <glyph glyph-name="Ocircumflex" unicode="&#xd4;" horiz-adv-x="1611" 
d="M806 1420q161 0 298.5 -54.5t238 -151t158 -228t57.5 -284.5q0 -102 -26 -195.5t-74 -174t-115.5 -146t-151 -112t-181 -71.5t-204.5 -25q-161 0 -299 55.5t-239 152.5t-158 229.5t-57 286.5t57 285.5t158 227.5t239 150.5t299 54.5zM809 1146q-86 0 -163 -34t-134.5 -94
t-91 -141t-33.5 -175q0 -95 34 -177t91.5 -143t134.5 -95.5t162 -34.5q86 0 161.5 34.5t131.5 95.5t88.5 143t32.5 177q0 94 -32.5 175t-88.5 141t-131.5 94t-161.5 34zM660 1814h290l217 -295h-246l-116 128l-116 -128h-246z" />
    <glyph glyph-name="Otilde" unicode="&#xd5;" horiz-adv-x="1611" 
d="M806 1420q161 0 298.5 -54.5t238 -151t158 -228t57.5 -284.5q0 -102 -26 -195.5t-74 -174t-115.5 -146t-151 -112t-181 -71.5t-204.5 -25q-161 0 -299 55.5t-239 152.5t-158 229.5t-57 286.5t57 285.5t158 227.5t239 150.5t299 54.5zM809 1146q-86 0 -163 -34t-134.5 -94
t-91 -141t-33.5 -175q0 -95 34 -177t91.5 -143t134.5 -95.5t162 -34.5q86 0 161.5 34.5t131.5 95.5t88.5 143t32.5 177q0 94 -32.5 175t-88.5 141t-131.5 94t-161.5 34zM1141 1809q0 -67 -10 -122t-32 -94t-57.5 -60.5t-86.5 -21.5q-44 0 -83 14.5t-72.5 32t-61.5 32
t-49 14.5q-32 0 -43.5 -24t-12.5 -63h-187q0 67 10 122t32 94.5t57.5 61t87.5 21.5q44 0 83 -14.5t72.5 -32t61 -32t48.5 -14.5q33 0 44.5 24t12.5 62h186z" />
    <glyph glyph-name="Odieresis" unicode="&#xd6;" horiz-adv-x="1611" 
d="M806 1420q161 0 298.5 -54.5t238 -151t158 -228t57.5 -284.5q0 -102 -26 -195.5t-74 -174t-115.5 -146t-151 -112t-181 -71.5t-204.5 -25q-161 0 -299 55.5t-239 152.5t-158 229.5t-57 286.5t57 285.5t158 227.5t239 150.5t299 54.5zM809 1146q-86 0 -163 -34t-134.5 -94
t-91 -141t-33.5 -175q0 -95 34 -177t91.5 -143t134.5 -95.5t162 -34.5q86 0 161.5 34.5t131.5 95.5t88.5 143t32.5 177q0 94 -32.5 175t-88.5 141t-131.5 94t-161.5 34zM619 1799q31 0 57.5 -10.5t45.5 -29.5t29.5 -45t10.5 -58q0 -31 -10.5 -57t-29.5 -45.5t-45.5 -30.5
t-57.5 -11t-57.5 11t-45.5 30.5t-29.5 45.5t-10.5 57q0 32 10.5 58t29.5 45t45.5 29.5t57.5 10.5zM995 1799q31 0 57 -10.5t45 -29.5t29.5 -45t10.5 -58q0 -31 -10.5 -57t-29.5 -45.5t-45 -30.5t-57 -11t-57.5 11t-46 30.5t-30 45.5t-10.5 57q0 32 10.5 58t30 45t46 29.5
t57.5 10.5z" />
    <glyph glyph-name="multiply" unicode="&#xd7;" horiz-adv-x="1014" 
d="M364 652l-239 239l143 144l239 -240l240 240l143 -144l-239 -239l239 -239l-143 -143l-240 239l-239 -239l-143 143z" />
    <glyph glyph-name="Oslash" unicode="&#xd8;" horiz-adv-x="1611" 
d="M335 132q-65 48 -117.5 109.5t-89 133.5t-56 153t-19.5 169q0 152 57 282t158 225t239 148.5t299 53.5q81 0 156.5 -14.5t144.5 -40.5l101 158h221l-157 -248q66 -48 119 -109t90 -132.5t57 -153t20 -169.5q0 -101 -26 -193.5t-74 -171.5t-115.5 -143.5t-151 -110
t-181 -70.5t-204.5 -25q-166 0 -308 58l-96 -151h-220zM809 1132q-86 0 -163 -33t-134.5 -91.5t-91 -138.5t-33.5 -173q0 -88 30.5 -165t84.5 -136l450 711q-34 12 -69.5 19t-73.5 7zM1223 696q0 91 -31 169t-85 136l-453 -713q76 -31 155 -31q86 0 161.5 34t131.5 93
t88.5 139t32.5 173z" />
    <glyph glyph-name="Ugrave" unicode="&#xd9;" horiz-adv-x="1503" 
d="M452 577q0 -76 22.5 -136t62.5 -102t96 -64.5t123 -22.5q66 0 120.5 22t93 64t59.5 102.5t21 136.5v823h327v-823q0 -138 -43.5 -249t-124.5 -188.5t-196 -119.5t-258 -42q-144 0 -260.5 42t-198.5 119.5t-126 188.5t-44 249v823h326v-823zM688 1832l207 -305l-228 -20
l-257 218z" />
    <glyph glyph-name="Uacute" unicode="&#xda;" horiz-adv-x="1503" 
d="M452 577q0 -76 22.5 -136t62.5 -102t96 -64.5t123 -22.5q66 0 120.5 22t93 64t59.5 102.5t21 136.5v823h327v-823q0 -138 -43.5 -249t-124.5 -188.5t-196 -119.5t-258 -42q-144 0 -260.5 42t-198.5 119.5t-126 188.5t-44 249v823h326v-823zM818 1832l277 -107l-276 -218
l-228 20z" />
    <glyph glyph-name="Ucircumflex" unicode="&#xdb;" horiz-adv-x="1503" 
d="M452 577q0 -76 22.5 -136t62.5 -102t96 -64.5t123 -22.5q66 0 120.5 22t93 64t59.5 102.5t21 136.5v823h327v-823q0 -138 -43.5 -249t-124.5 -188.5t-196 -119.5t-258 -42q-144 0 -260.5 42t-198.5 119.5t-126 188.5t-44 249v823h326v-823zM607 1814h290l217 -295h-246
l-116 128l-116 -128h-246z" />
    <glyph glyph-name="Udieresis" unicode="&#xdc;" horiz-adv-x="1503" 
d="M452 577q0 -76 22.5 -136t62.5 -102t96 -64.5t123 -22.5q66 0 120.5 22t93 64t59.5 102.5t21 136.5v823h327v-823q0 -138 -43.5 -249t-124.5 -188.5t-196 -119.5t-258 -42q-144 0 -260.5 42t-198.5 119.5t-126 188.5t-44 249v823h326v-823zM566 1799q31 0 57.5 -10.5
t45.5 -29.5t29.5 -45t10.5 -58q0 -31 -10.5 -57t-29.5 -45.5t-45.5 -30.5t-57.5 -11t-57.5 11t-45.5 30.5t-29.5 45.5t-10.5 57q0 32 10.5 58t29.5 45t45.5 29.5t57.5 10.5zM942 1799q31 0 57 -10.5t45 -29.5t29.5 -45t10.5 -58q0 -31 -10.5 -57t-29.5 -45.5t-45 -30.5
t-57 -11t-57.5 11t-46 30.5t-30 45.5t-10.5 57q0 32 10.5 58t30 45t46 29.5t57.5 10.5z" />
    <glyph glyph-name="Yacute" unicode="&#xdd;" horiz-adv-x="1339" 
d="M511 450l-518 950h327l353 -631l344 631h329l-509 -941v-459h-326v450zM735 1832l277 -107l-276 -218l-228 20z" />
    <glyph glyph-name="Thorn" unicode="&#xde;" horiz-adv-x="1371" 
d="M150 1400h328v-189h255q140 0 249.5 -32.5t186 -94t116.5 -150t40 -201.5q0 -118 -40 -211.5t-116.5 -158t-186 -99t-249.5 -34.5h-255v-230h-328v1400zM478 482h241q133 0 202.5 62t69.5 180q0 114 -69.5 175t-202.5 61h-241v-478z" />
    <glyph glyph-name="germandbls" unicode="&#xdf;" horiz-adv-x="1321" 
d="M126 981q0 118 37 213.5t106 163t168 104t223 36.5q113 0 206 -28t159 -80t102.5 -125t36.5 -163q0 -54 -14.5 -105t-40.5 -95t-63.5 -79t-83.5 -58q63 -16 115.5 -46t90 -73t58.5 -98.5t21 -121.5q0 -94 -39 -172.5t-110.5 -135t-172.5 -87.5t-226 -31h-99v227h90
q118 0 183 53.5t65 145.5q0 95 -73 145t-205 50h-34v225q110 0 170 55t60 155q0 97 -52 150t-144 53q-104 0 -161 -67t-57 -188v-1004h-316v981z" />
    <glyph glyph-name="agrave" unicode="&#xe0;" horiz-adv-x="1194" 
d="M766 125q-54 -69 -138 -104t-196 -35q-87 0 -155.5 25t-116.5 70t-73.5 106.5t-25.5 134.5q0 75 27 135t79 102t129 64.5t176 22.5h293v20q0 86 -55.5 134t-164.5 48q-71 0 -153.5 -24t-167.5 -70l-97 208q61 31 119.5 54.5t117.5 39.5t121.5 24t132.5 8
q109 0 194.5 -26.5t144 -76t89.5 -121t32 -162.5l1 -702h-313v125zM523 206q47 0 88 12.5t73 34.5t53.5 52.5t28.5 66.5v92h-236q-87 0 -128.5 -29t-41.5 -93q0 -63 43 -99.5t120 -36.5zM525 1530l207 -305l-228 -20l-257 218z" />
    <glyph glyph-name="aacute" unicode="&#xe1;" horiz-adv-x="1194" 
d="M766 125q-54 -69 -138 -104t-196 -35q-87 0 -155.5 25t-116.5 70t-73.5 106.5t-25.5 134.5q0 75 27 135t79 102t129 64.5t176 22.5h293v20q0 86 -55.5 134t-164.5 48q-71 0 -153.5 -24t-167.5 -70l-97 208q61 31 119.5 54.5t117.5 39.5t121.5 24t132.5 8
q109 0 194.5 -26.5t144 -76t89.5 -121t32 -162.5l1 -702h-313v125zM523 206q47 0 88 12.5t73 34.5t53.5 52.5t28.5 66.5v92h-236q-87 0 -128.5 -29t-41.5 -93q0 -63 43 -99.5t120 -36.5zM690 1530l277 -107l-276 -218l-228 20z" />
    <glyph glyph-name="acircumflex" unicode="&#xe2;" horiz-adv-x="1194" 
d="M766 125q-54 -69 -138 -104t-196 -35q-87 0 -155.5 25t-116.5 70t-73.5 106.5t-25.5 134.5q0 75 27 135t79 102t129 64.5t176 22.5h293v20q0 86 -55.5 134t-164.5 48q-71 0 -153.5 -24t-167.5 -70l-97 208q61 31 119.5 54.5t117.5 39.5t121.5 24t132.5 8
q109 0 194.5 -26.5t144 -76t89.5 -121t32 -162.5l1 -702h-313v125zM523 206q47 0 88 12.5t73 34.5t53.5 52.5t28.5 66.5v92h-236q-87 0 -128.5 -29t-41.5 -93q0 -63 43 -99.5t120 -36.5zM468 1519h290l217 -295h-246l-116 128l-116 -128h-246z" />
    <glyph glyph-name="atilde" unicode="&#xe3;" horiz-adv-x="1194" 
d="M766 125q-54 -69 -138 -104t-196 -35q-87 0 -155.5 25t-116.5 70t-73.5 106.5t-25.5 134.5q0 75 27 135t79 102t129 64.5t176 22.5h293v20q0 86 -55.5 134t-164.5 48q-71 0 -153.5 -24t-167.5 -70l-97 208q61 31 119.5 54.5t117.5 39.5t121.5 24t132.5 8
q109 0 194.5 -26.5t144 -76t89.5 -121t32 -162.5l1 -702h-313v125zM523 206q47 0 88 12.5t73 34.5t53.5 52.5t28.5 66.5v92h-236q-87 0 -128.5 -29t-41.5 -93q0 -63 43 -99.5t120 -36.5zM967 1498q0 -67 -10 -122t-32 -94t-57.5 -60.5t-86.5 -21.5q-44 0 -83 14.5t-72.5 32
t-61.5 32t-49 14.5q-32 0 -43.5 -24t-12.5 -63h-187q0 67 10 122t32 94.5t57.5 61t87.5 21.5q44 0 83 -14.5t72.5 -32t61 -32t48.5 -14.5q33 0 44.5 24t12.5 62h186z" />
    <glyph glyph-name="adieresis" unicode="&#xe4;" horiz-adv-x="1194" 
d="M766 125q-54 -69 -138 -104t-196 -35q-87 0 -155.5 25t-116.5 70t-73.5 106.5t-25.5 134.5q0 75 27 135t79 102t129 64.5t176 22.5h293v20q0 86 -55.5 134t-164.5 48q-71 0 -153.5 -24t-167.5 -70l-97 208q61 31 119.5 54.5t117.5 39.5t121.5 24t132.5 8
q109 0 194.5 -26.5t144 -76t89.5 -121t32 -162.5l1 -702h-313v125zM523 206q47 0 88 12.5t73 34.5t53.5 52.5t28.5 66.5v92h-236q-87 0 -128.5 -29t-41.5 -93q0 -63 43 -99.5t120 -36.5zM426 1516q31 0 57.5 -10.5t45.5 -29.5t29.5 -45.5t10.5 -57.5t-10.5 -57t-29.5 -45.5
t-45.5 -30.5t-57.5 -11t-57.5 11t-45.5 30.5t-29.5 45.5t-10.5 57t10.5 57.5t29.5 45.5t45.5 29.5t57.5 10.5zM802 1516q31 0 57 -10.5t45 -29.5t29.5 -45.5t10.5 -57.5t-10.5 -57t-29.5 -45.5t-45 -30.5t-57 -11t-57.5 11t-46 30.5t-30 45.5t-10.5 57t10.5 57.5t30 45.5
t46 29.5t57.5 10.5z" />
    <glyph glyph-name="aring" unicode="&#xe5;" horiz-adv-x="1194" 
d="M766 125q-54 -69 -138 -104t-196 -35q-87 0 -155.5 25t-116.5 70t-73.5 106.5t-25.5 134.5q0 75 27 135t79 102t129 64.5t176 22.5h293v20q0 86 -55.5 134t-164.5 48q-71 0 -153.5 -24t-167.5 -70l-97 208q61 31 119.5 54.5t117.5 39.5t121.5 24t132.5 8
q109 0 194.5 -26.5t144 -76t89.5 -121t32 -162.5l1 -702h-313v125zM523 206q47 0 88 12.5t73 34.5t53.5 52.5t28.5 66.5v92h-236q-87 0 -128.5 -29t-41.5 -93q0 -63 43 -99.5t120 -36.5zM613 1619q48 0 90.5 -18t74 -49.5t49.5 -73.5t18 -89q0 -48 -18 -90t-49.5 -73.5
t-74 -49.5t-90.5 -18t-90.5 18t-74 49.5t-50 73.5t-18.5 90q0 47 18.5 89t50 73.5t74 49.5t90.5 18zM613 1480q-19 0 -36 -7t-30 -19.5t-20.5 -29t-7.5 -35.5t7.5 -36t20.5 -29.5t30 -19.5t36 -7t36 7t29.5 19.5t20 29.5t7.5 36t-7.5 35.5t-20 29t-29.5 19.5t-36 7z" />
    <glyph glyph-name="ae" unicode="&#xe6;" horiz-adv-x="1936" 
d="M448 -15q-89 0 -160.5 23.5t-122 67t-77.5 104.5t-27 136q0 150 106 233t307 85h296v41q0 84 -58.5 128.5t-163.5 44.5q-75 0 -164 -24t-182 -70l-75 213q128 60 252.5 90.5t239.5 30.5q121 0 213.5 -33.5t150.5 -98.5q66 63 154.5 96.5t194.5 33.5q132 0 237 -45.5
t177 -128t107.5 -198t29.5 -255.5h-796v-13q0 -46 24 -86.5t63.5 -69.5t90 -46t103.5 -17q75 0 144 29t125 86l168 -165q-85 -92 -202 -140t-262 -48q-155 0 -269 61t-178 173q-63 -117 -175.5 -177.5t-270.5 -60.5zM525 193q82 0 144 37.5t101 112.5v118h-232
q-86 0 -132 -27.5t-46 -91.5q0 -68 44.5 -108.5t120.5 -40.5zM1335 870q-49 0 -92.5 -16t-77.5 -47t-54.5 -75t-22.5 -100h477q0 55 -17.5 99t-48 75t-72.5 47.5t-92 16.5z" />
    <glyph glyph-name="ccedilla" unicode="&#xe7;" horiz-adv-x="1126" 
d="M859 712q-42 54 -101.5 84t-136.5 30q-55 0 -100.5 -21t-78 -59t-50.5 -91.5t-18 -118.5q0 -66 18 -120t50.5 -92.5t78 -59.5t100.5 -21q80 0 141 31t101 94l222 -143q-61 -101 -167 -161.5t-249 -71.5l-24 -64q44 -9 75.5 -25t51 -37.5t28.5 -47t9 -52.5
q0 -48 -20 -83.5t-54.5 -58.5t-79.5 -34t-95 -11q-55 0 -109.5 11.5t-101.5 29.5l52 150q24 -10 52.5 -15t54.5 -5q38 0 59.5 13t21.5 32q0 23 -28.5 35.5t-75.5 12.5h-52l51 156q-98 18 -177.5 64t-135.5 115t-86.5 159.5t-30.5 197.5q0 123 40 224.5t113 174t174.5 112.5
t225.5 40q158 0 278.5 -58.5t192.5 -166.5z" />
    <glyph glyph-name="egrave" unicode="&#xe8;" horiz-adv-x="1197" 
d="M374 445q26 -104 97.5 -161t174.5 -57q75 0 143.5 29t124.5 86l167 -165q-82 -91 -198.5 -139.5t-263.5 -48.5q-130 0 -234.5 39.5t-178 111t-113 172t-39.5 223.5q0 124 40.5 225.5t114 173.5t175.5 112t226 40q142 0 246.5 -45t171 -128.5t95.5 -202t19 -265.5h-768z
M613 860q-49 0 -90.5 -16.5t-73 -47.5t-52.5 -74t-30 -96h475q-1 54 -17.5 97t-46.5 73.5t-72 47t-93 16.5zM518 1530l207 -305l-228 -20l-257 218z" />
    <glyph glyph-name="eacute" unicode="&#xe9;" horiz-adv-x="1197" 
d="M374 445q26 -104 97.5 -161t174.5 -57q75 0 143.5 29t124.5 86l167 -165q-82 -91 -198.5 -139.5t-263.5 -48.5q-130 0 -234.5 39.5t-178 111t-113 172t-39.5 223.5q0 124 40.5 225.5t114 173.5t175.5 112t226 40q142 0 246.5 -45t171 -128.5t95.5 -202t19 -265.5h-768z
M613 860q-49 0 -90.5 -16.5t-73 -47.5t-52.5 -74t-30 -96h475q-1 54 -17.5 97t-46.5 73.5t-72 47t-93 16.5zM680 1530l277 -107l-276 -218l-228 20z" />
    <glyph glyph-name="ecircumflex" unicode="&#xea;" horiz-adv-x="1197" 
d="M374 445q26 -104 97.5 -161t174.5 -57q75 0 143.5 29t124.5 86l167 -165q-82 -91 -198.5 -139.5t-263.5 -48.5q-130 0 -234.5 39.5t-178 111t-113 172t-39.5 223.5q0 124 40.5 225.5t114 173.5t175.5 112t226 40q142 0 246.5 -45t171 -128.5t95.5 -202t19 -265.5h-768z
M613 860q-49 0 -90.5 -16.5t-73 -47.5t-52.5 -74t-30 -96h475q-1 54 -17.5 97t-46.5 73.5t-72 47t-93 16.5zM456 1519h290l217 -295h-246l-116 128l-116 -128h-246z" />
    <glyph glyph-name="edieresis" unicode="&#xeb;" horiz-adv-x="1197" 
d="M374 445q26 -104 97.5 -161t174.5 -57q75 0 143.5 29t124.5 86l167 -165q-82 -91 -198.5 -139.5t-263.5 -48.5q-130 0 -234.5 39.5t-178 111t-113 172t-39.5 223.5q0 124 40.5 225.5t114 173.5t175.5 112t226 40q142 0 246.5 -45t171 -128.5t95.5 -202t19 -265.5h-768z
M613 860q-49 0 -90.5 -16.5t-73 -47.5t-52.5 -74t-30 -96h475q-1 54 -17.5 97t-46.5 73.5t-72 47t-93 16.5zM414 1516q31 0 57.5 -10.5t45.5 -29.5t29.5 -45.5t10.5 -57.5t-10.5 -57t-29.5 -45.5t-45.5 -30.5t-57.5 -11t-57.5 11t-45.5 30.5t-29.5 45.5t-10.5 57t10.5 57.5
t29.5 45.5t45.5 29.5t57.5 10.5zM790 1516q31 0 57 -10.5t45 -29.5t29.5 -45.5t10.5 -57.5t-10.5 -57t-29.5 -45.5t-45 -30.5t-57 -11t-57.5 11t-46 30.5t-30 45.5t-10.5 57t10.5 57.5t30 45.5t46 29.5t57.5 10.5z" />
    <glyph glyph-name="igrave" unicode="&#xec;" horiz-adv-x="609" 
d="M146 1075h317v-1075h-317v1075zM217 1530l207 -305l-228 -20l-257 218z" />
    <glyph glyph-name="iacute" unicode="&#xed;" horiz-adv-x="609" 
d="M146 1075h317v-1075h-317v1075zM382 1530l277 -107l-276 -218l-228 20z" />
    <glyph glyph-name="icircumflex" unicode="&#xee;" horiz-adv-x="609" 
d="M146 1075h317v-1075h-317v1075zM160 1519h290l217 -295h-246l-116 128l-116 -128h-246z" />
    <glyph glyph-name="idieresis" unicode="&#xef;" horiz-adv-x="609" 
d="M146 1075h317v-1075h-317v1075zM130 1516q31 0 57.5 -10.5t45.5 -29.5t29.5 -45.5t10.5 -57.5t-10.5 -57t-29.5 -45.5t-45.5 -30.5t-57.5 -11t-57.5 11t-45.5 30.5t-29.5 45.5t-10.5 57t10.5 57.5t29.5 45.5t45.5 29.5t57.5 10.5zM482 1516q31 0 57 -10.5t45 -29.5
t29.5 -45.5t10.5 -57.5t-10.5 -57t-29.5 -45.5t-45 -30.5t-57 -11t-57.5 11t-46 30.5t-30 45.5t-10.5 57t10.5 57.5t30 45.5t46 29.5t57.5 10.5z" />
    <glyph glyph-name="eth" unicode="&#xf0;" horiz-adv-x="1202" 
d="M190 1095l286 131q-60 40 -125.5 75t-135.5 65l212 132q80 -33 152 -73.5t137 -88.5l280 128l63 -132l-220 -100q73 -70 130.5 -149.5t97.5 -165.5t61 -176.5t21 -183.5q0 -130 -41.5 -235.5t-117.5 -180.5t-184 -115.5t-240 -40.5q-117 0 -212.5 33t-163 94t-104 146.5
t-36.5 191.5q0 100 32 181.5t91.5 139t143.5 88.5t187 31q51 0 100 -9.5t92 -26.5t78.5 -42t59.5 -55q-11 98 -71 191.5t-156 177.5l-354 -161zM580 677q-52 0 -93.5 -15t-71 -42.5t-45.5 -66.5t-16 -87q0 -49 16 -89.5t46 -69t71.5 -44t92.5 -15.5q53 0 95.5 15t72.5 43
t46 67.5t16 87.5q0 49 -16 88.5t-46 68t-72.5 44t-95.5 15.5z" />
    <glyph glyph-name="ntilde" unicode="&#xf1;" horiz-adv-x="1341" 
d="M908 587q0 103 -54.5 161.5t-150.5 58.5q-52 0 -94.5 -18.5t-73 -51t-49 -77.5t-22.5 -99v-561h-318v1075h318v-184q57 100 150 148t218 49q90 0 163 -29t124.5 -82.5t79 -130t27.5 -171.5v-675h-318v587zM1057 1498q0 -67 -10 -122t-32 -94t-57.5 -60.5t-86.5 -21.5
q-44 0 -83 14.5t-72.5 32t-61.5 32t-49 14.5q-32 0 -43.5 -24t-12.5 -63h-187q0 67 10 122t32 94.5t57.5 61t87.5 21.5q44 0 83 -14.5t72.5 -32t61 -32t48.5 -14.5q33 0 44.5 24t12.5 62h186z" />
    <glyph glyph-name="ograve" unicode="&#xf2;" 
d="M635 1086q130 0 237 -39.5t183 -111.5t117.5 -173t41.5 -224t-41.5 -224t-117.5 -173.5t-183 -112t-237 -39.5q-131 0 -238 39.5t-183.5 112t-118 173.5t-41.5 224t41.5 224t118 173t183.5 111.5t238 39.5zM635 832q-58 0 -106 -21.5t-82.5 -61t-53.5 -94t-19 -120.5
q0 -67 19 -122t53.5 -94.5t82.5 -61t106 -21.5t105.5 21.5t82 61t53.5 94.5t19 122q0 66 -19 120.5t-53.5 94t-82 61t-105.5 21.5zM547 1530l207 -305l-228 -20l-257 218z" />
    <glyph glyph-name="oacute" unicode="&#xf3;" 
d="M635 1086q130 0 237 -39.5t183 -111.5t117.5 -173t41.5 -224t-41.5 -224t-117.5 -173.5t-183 -112t-237 -39.5q-131 0 -238 39.5t-183.5 112t-118 173.5t-41.5 224t41.5 224t118 173t183.5 111.5t238 39.5zM635 832q-58 0 -106 -21.5t-82.5 -61t-53.5 -94t-19 -120.5
q0 -67 19 -122t53.5 -94.5t82.5 -61t106 -21.5t105.5 21.5t82 61t53.5 94.5t19 122q0 66 -19 120.5t-53.5 94t-82 61t-105.5 21.5zM712 1530l277 -107l-276 -218l-228 20z" />
    <glyph glyph-name="ocircumflex" unicode="&#xf4;" 
d="M635 1086q130 0 237 -39.5t183 -111.5t117.5 -173t41.5 -224t-41.5 -224t-117.5 -173.5t-183 -112t-237 -39.5q-131 0 -238 39.5t-183.5 112t-118 173.5t-41.5 224t41.5 224t118 173t183.5 111.5t238 39.5zM635 832q-58 0 -106 -21.5t-82.5 -61t-53.5 -94t-19 -120.5
q0 -67 19 -122t53.5 -94.5t82.5 -61t106 -21.5t105.5 21.5t82 61t53.5 94.5t19 122q0 66 -19 120.5t-53.5 94t-82 61t-105.5 21.5zM490 1519h290l217 -295h-246l-116 128l-116 -128h-246z" />
    <glyph glyph-name="otilde" unicode="&#xf5;" 
d="M635 1086q130 0 237 -39.5t183 -111.5t117.5 -173t41.5 -224t-41.5 -224t-117.5 -173.5t-183 -112t-237 -39.5q-131 0 -238 39.5t-183.5 112t-118 173.5t-41.5 224t41.5 224t118 173t183.5 111.5t238 39.5zM635 832q-58 0 -106 -21.5t-82.5 -61t-53.5 -94t-19 -120.5
q0 -67 19 -122t53.5 -94.5t82.5 -61t106 -21.5t105.5 21.5t82 61t53.5 94.5t19 122q0 66 -19 120.5t-53.5 94t-82 61t-105.5 21.5zM989 1498q0 -67 -10 -122t-32 -94t-57.5 -60.5t-86.5 -21.5q-44 0 -83 14.5t-72.5 32t-61.5 32t-49 14.5q-32 0 -43.5 -24t-12.5 -63h-187
q0 67 10 122t32 94.5t57.5 61t87.5 21.5q44 0 83 -14.5t72.5 -32t61 -32t48.5 -14.5q33 0 44.5 24t12.5 62h186z" />
    <glyph glyph-name="odieresis" unicode="&#xf6;" 
d="M635 1086q130 0 237 -39.5t183 -111.5t117.5 -173t41.5 -224t-41.5 -224t-117.5 -173.5t-183 -112t-237 -39.5q-131 0 -238 39.5t-183.5 112t-118 173.5t-41.5 224t41.5 224t118 173t183.5 111.5t238 39.5zM635 832q-58 0 -106 -21.5t-82.5 -61t-53.5 -94t-19 -120.5
q0 -67 19 -122t53.5 -94.5t82.5 -61t106 -21.5t105.5 21.5t82 61t53.5 94.5t19 122q0 66 -19 120.5t-53.5 94t-82 61t-105.5 21.5zM448 1516q31 0 57.5 -10.5t45.5 -29.5t29.5 -45.5t10.5 -57.5t-10.5 -57t-29.5 -45.5t-45.5 -30.5t-57.5 -11t-57.5 11t-45.5 30.5
t-29.5 45.5t-10.5 57t10.5 57.5t29.5 45.5t45.5 29.5t57.5 10.5zM824 1516q31 0 57 -10.5t45 -29.5t29.5 -45.5t10.5 -57.5t-10.5 -57t-29.5 -45.5t-45 -30.5t-57 -11t-57.5 11t-46 30.5t-30 45.5t-10.5 57t10.5 57.5t30 45.5t46 29.5t57.5 10.5z" />
    <glyph glyph-name="divide" unicode="&#xf7;" horiz-adv-x="1014" 
d="M66 754h882v-204h-882v204zM505 1156q32 0 58.5 -10.5t45.5 -30t30 -46t11 -58.5q0 -31 -11 -58t-30 -46t-45.5 -30t-58.5 -11q-31 0 -58 11t-46 30t-30 46t-11 58q0 32 11 58.5t30 46t46 30t58 10.5zM505 441q32 0 58.5 -10.5t45.5 -30t30 -46t11 -58.5q0 -31 -11 -58
t-30 -46t-45.5 -30t-58.5 -11q-31 0 -58 11t-46 30t-30 46t-11 58q0 32 11 58.5t30 46t46 30t58 10.5z" />
    <glyph glyph-name="oslash" unicode="&#xf8;" 
d="M258 103q-97 73 -150.5 184t-53.5 251q0 123 41.5 224t118 173t183.5 111.5t238 39.5q72 0 137 -12.5t122 -35.5l146 216h169l-194 -285q95 -72 147 -181.5t52 -249.5q0 -123 -41.5 -224t-117.5 -173.5t-183 -112t-237 -39.5q-140 0 -255 46l-146 -214h-169zM635 857
q-63 0 -114.5 -23t-88.5 -65.5t-57.5 -102t-20.5 -131.5q0 -62 15 -114t41 -93l343 504q-55 25 -118 25zM915 535q0 61 -14.5 112.5t-41.5 91.5l-343 -503q54 -26 119 -26q62 0 113.5 23.5t88.5 66.5t57.5 102.5t20.5 132.5z" />
    <glyph glyph-name="ugrave" unicode="&#xf9;" horiz-adv-x="1321" 
d="M432 488q0 -103 52.5 -161.5t143.5 -58.5q54 1 96.5 22t72 58t45 87.5t15.5 109.5v530h318v-1075h-318v184q-55 -99 -145.5 -147.5t-211.5 -49.5q-88 0 -159.5 29t-122 82.5t-77.5 130t-27 171.5v675h318v-587zM574 1530l207 -305l-228 -20l-257 218z" />
    <glyph glyph-name="uacute" unicode="&#xfa;" horiz-adv-x="1321" 
d="M432 488q0 -103 52.5 -161.5t143.5 -58.5q54 1 96.5 22t72 58t45 87.5t15.5 109.5v530h318v-1075h-318v184q-55 -99 -145.5 -147.5t-211.5 -49.5q-88 0 -159.5 29t-122 82.5t-77.5 130t-27 171.5v675h318v-587zM738 1530l277 -107l-276 -218l-228 20z" />
    <glyph glyph-name="ucircumflex" unicode="&#xfb;" horiz-adv-x="1321" 
d="M432 488q0 -103 52.5 -161.5t143.5 -58.5q54 1 96.5 22t72 58t45 87.5t15.5 109.5v530h318v-1075h-318v184q-55 -99 -145.5 -147.5t-211.5 -49.5q-88 0 -159.5 29t-122 82.5t-77.5 130t-27 171.5v675h318v-587zM516 1519h290l217 -295h-246l-116 128l-116 -128h-246z" />
    <glyph glyph-name="udieresis" unicode="&#xfc;" horiz-adv-x="1321" 
d="M432 488q0 -103 52.5 -161.5t143.5 -58.5q54 1 96.5 22t72 58t45 87.5t15.5 109.5v530h318v-1075h-318v184q-55 -99 -145.5 -147.5t-211.5 -49.5q-88 0 -159.5 29t-122 82.5t-77.5 130t-27 171.5v675h318v-587zM474 1516q31 0 57.5 -10.5t45.5 -29.5t29.5 -45.5
t10.5 -57.5t-10.5 -57t-29.5 -45.5t-45.5 -30.5t-57.5 -11t-57.5 11t-45.5 30.5t-29.5 45.5t-10.5 57t10.5 57.5t29.5 45.5t45.5 29.5t57.5 10.5zM850 1516q31 0 57 -10.5t45 -29.5t29.5 -45.5t10.5 -57.5t-10.5 -57t-29.5 -45.5t-45 -30.5t-57 -11t-57.5 11t-46 30.5
t-30 45.5t-10.5 57t10.5 57.5t30 45.5t46 29.5t57.5 10.5z" />
    <glyph glyph-name="yacute" unicode="&#xfd;" horiz-adv-x="1136" 
d="M680 -120q-57 -143 -157 -212.5t-243 -69.5q-87 0 -158 25t-140 79l134 220q37 -29 70 -42.5t71 -13.5q95 0 140 95l28 61l-445 1053h327l277 -742l249 742h317zM648 1530l277 -107l-276 -218l-228 20z" />
    <glyph glyph-name="thorn" unicode="&#xfe;" horiz-adv-x="1368" 
d="M474 920q57 81 141 123.5t193 42.5q114 0 207 -40t159.5 -112.5t103 -174.5t36.5 -226q0 -122 -35.5 -222.5t-100.5 -172t-157 -110.5t-205 -39t-199 42.5t-143 123.5v-543h-318v1872h318v-564zM733 838q-57 0 -105 -22t-82 -61t-53 -93.5t-19 -120.5t19 -121t53 -94.5
t82 -61t105 -21.5q58 0 105.5 22t82 61t53.5 94t19 121q0 65 -19 119.5t-53.5 94t-82 61.5t-105.5 22z" />
    <glyph glyph-name="ydieresis" unicode="&#xff;" horiz-adv-x="1136" 
d="M680 -120q-57 -143 -157 -212.5t-243 -69.5q-87 0 -158 25t-140 79l134 220q37 -29 70 -42.5t71 -13.5q95 0 140 95l28 61l-445 1053h327l277 -742l249 742h317zM384 1516q31 0 57.5 -10.5t45.5 -29.5t29.5 -45.5t10.5 -57.5t-10.5 -57t-29.5 -45.5t-45.5 -30.5
t-57.5 -11t-57.5 11t-45.5 30.5t-29.5 45.5t-10.5 57t10.5 57.5t29.5 45.5t45.5 29.5t57.5 10.5zM760 1516q31 0 57 -10.5t45 -29.5t29.5 -45.5t10.5 -57.5t-10.5 -57t-29.5 -45.5t-45 -30.5t-57 -11t-57.5 11t-46 30.5t-30 45.5t-10.5 57t10.5 57.5t30 45.5t46 29.5
t57.5 10.5z" />
    <glyph glyph-name="Amacron" unicode="&#x100;" horiz-adv-x="1524" 
d="M600 1400h336l595 -1400h-349l-108 274h-634l-109 -274h-338zM974 526l-216 547l-218 -547h434zM427 1710h671v-187h-671v187z" />
    <glyph glyph-name="amacron" unicode="&#x101;" horiz-adv-x="1194" 
d="M766 125q-54 -69 -138 -104t-196 -35q-87 0 -155.5 25t-116.5 70t-73.5 106.5t-25.5 134.5q0 75 27 135t79 102t129 64.5t176 22.5h293v20q0 86 -55.5 134t-164.5 48q-71 0 -153.5 -24t-167.5 -70l-97 208q61 31 119.5 54.5t117.5 39.5t121.5 24t132.5 8
q109 0 194.5 -26.5t144 -76t89.5 -121t32 -162.5l1 -702h-313v125zM523 206q47 0 88 12.5t73 34.5t53.5 52.5t28.5 66.5v92h-236q-87 0 -128.5 -29t-41.5 -93q0 -63 43 -99.5t120 -36.5zM307 1469h610v-187h-610v187z" />
    <glyph glyph-name="Abreve" unicode="&#x102;" horiz-adv-x="1524" 
d="M600 1400h336l595 -1400h-349l-108 274h-634l-109 -274h-338zM974 526l-216 547l-218 -547h434zM647 1819q4 -54 35.5 -87.5t79.5 -33.5t79.5 33.5t35.5 87.5h202q-3 -70 -27.5 -126.5t-66 -96.5t-98.5 -62t-125 -22t-125 22t-98.5 62t-65.5 96.5t-27 126.5h201z" />
    <glyph glyph-name="abreve" unicode="&#x103;" horiz-adv-x="1194" 
d="M766 125q-54 -69 -138 -104t-196 -35q-87 0 -155.5 25t-116.5 70t-73.5 106.5t-25.5 134.5q0 75 27 135t79 102t129 64.5t176 22.5h293v20q0 86 -55.5 134t-164.5 48q-71 0 -153.5 -24t-167.5 -70l-97 208q61 31 119.5 54.5t117.5 39.5t121.5 24t132.5 8
q109 0 194.5 -26.5t144 -76t89.5 -121t32 -162.5l1 -702h-313v125zM523 206q47 0 88 12.5t73 34.5t53.5 52.5t28.5 66.5v92h-236q-87 0 -128.5 -29t-41.5 -93q0 -63 43 -99.5t120 -36.5zM497 1513q4 -54 35.5 -87.5t79.5 -33.5t79.5 33.5t35.5 87.5h202q-3 -70 -27.5 -126.5
t-66 -96.5t-98.5 -62t-125 -22t-125 22t-98.5 62t-65.5 96.5t-27 126.5h201z" />
    <glyph glyph-name="Aogonek" unicode="&#x104;" horiz-adv-x="1524" 
d="M600 1400h336l595 -1400h-349l-108 274h-634l-109 -274h-338zM974 526l-216 547l-218 -547h434zM1465 0q-79 -59 -119 -106.5t-40 -93.5q0 -29 12.5 -42t34.5 -13q12 0 28 4t31 12l58 -174q-45 -20 -93 -31.5t-95 -11.5q-104 0 -162 54.5t-58 147.5q0 81 50 166.5
t168 165.5z" />
    <glyph glyph-name="aogonek" unicode="&#x105;" horiz-adv-x="1194" 
d="M766 125q-54 -69 -138 -104t-196 -35q-87 0 -155.5 25t-116.5 70t-73.5 106.5t-25.5 134.5q0 75 27 135t79 102t129 64.5t176 22.5h293v20q0 86 -55.5 134t-164.5 48q-71 0 -153.5 -24t-167.5 -70l-97 208q61 31 119.5 54.5t117.5 39.5t121.5 24t132.5 8
q109 0 194.5 -26.5t144 -76t89.5 -121t32 -162.5l1 -702h-313v125zM523 206q47 0 88 12.5t73 34.5t53.5 52.5t28.5 66.5v92h-236q-87 0 -128.5 -29t-41.5 -93q0 -63 43 -99.5t120 -36.5zM1033 0q-79 -59 -119 -106.5t-40 -93.5q0 -29 12.5 -42t34.5 -13q12 0 28 4t31 12
l58 -174q-45 -20 -93 -31.5t-95 -11.5q-104 0 -162 54.5t-58 147.5q0 81 50 166.5t168 165.5z" />
    <glyph glyph-name="Cacute" unicode="&#x106;" horiz-adv-x="1386" 
d="M1164 963q-36 42 -78.5 76t-89.5 58t-96 37t-97 13q-88 0 -164 -33.5t-132 -93t-88 -140t-32 -173.5t32 -174t88 -141t132 -94t164 -34q47 0 95 11.5t94.5 33.5t90 52.5t81.5 69.5l191 -202q-55 -57 -122.5 -103.5t-141 -79.5t-151 -50.5t-154.5 -17.5q-157 0 -291 55.5
t-232 153t-154 230t-56 286.5q0 153 57 284t156.5 227.5t236 151t295.5 54.5q77 0 153.5 -16.5t148.5 -46.5t137 -73t117 -97zM887 1832l277 -107l-276 -218l-228 20z" />
    <glyph glyph-name="cacute" unicode="&#x107;" horiz-adv-x="1126" 
d="M859 712q-42 54 -101.5 84t-136.5 30q-55 0 -100.5 -21t-78 -59t-50.5 -91.5t-18 -118.5q0 -66 18 -120t50.5 -92.5t78 -59.5t100.5 -21q80 0 141 31t101 94l222 -143q-67 -112 -190 -174t-290 -62q-123 0 -224.5 39.5t-174 111t-112.5 172t-40 223.5t40 224.5t113 174
t174.5 112.5t225.5 40q158 0 278.5 -58.5t192.5 -166.5zM680 1530l277 -107l-276 -218l-228 20z" />
    <glyph glyph-name="Ccircumflex" unicode="&#x108;" horiz-adv-x="1386" 
d="M1164 963q-36 42 -78.5 76t-89.5 58t-96 37t-97 13q-88 0 -164 -33.5t-132 -93t-88 -140t-32 -173.5t32 -174t88 -141t132 -94t164 -34q47 0 95 11.5t94.5 33.5t90 52.5t81.5 69.5l191 -202q-55 -57 -122.5 -103.5t-141 -79.5t-151 -50.5t-154.5 -17.5q-157 0 -291 55.5
t-232 153t-154 230t-56 286.5q0 153 57 284t156.5 227.5t236 151t295.5 54.5q77 0 153.5 -16.5t148.5 -46.5t137 -73t117 -97zM676 1814h290l217 -295h-246l-116 128l-116 -128h-246z" />
    <glyph glyph-name="ccircumflex" unicode="&#x109;" horiz-adv-x="1126" 
d="M859 712q-42 54 -101.5 84t-136.5 30q-55 0 -100.5 -21t-78 -59t-50.5 -91.5t-18 -118.5q0 -66 18 -120t50.5 -92.5t78 -59.5t100.5 -21q80 0 141 31t101 94l222 -143q-67 -112 -190 -174t-290 -62q-123 0 -224.5 39.5t-174 111t-112.5 172t-40 223.5t40 224.5t113 174
t174.5 112.5t225.5 40q158 0 278.5 -58.5t192.5 -166.5zM458 1519h290l217 -295h-246l-116 128l-116 -128h-246z" />
    <glyph glyph-name="Cdotaccent" unicode="&#x10a;" horiz-adv-x="1386" 
d="M1164 963q-36 42 -78.5 76t-89.5 58t-96 37t-97 13q-88 0 -164 -33.5t-132 -93t-88 -140t-32 -173.5t32 -174t88 -141t132 -94t164 -34q47 0 95 11.5t94.5 33.5t90 52.5t81.5 69.5l191 -202q-55 -57 -122.5 -103.5t-141 -79.5t-151 -50.5t-154.5 -17.5q-157 0 -291 55.5
t-232 153t-154 230t-56 286.5q0 153 57 284t156.5 227.5t236 151t295.5 54.5q77 0 153.5 -16.5t148.5 -46.5t137 -73t117 -97zM821 1856q37 0 68.5 -13t54.5 -35.5t36 -54t13 -69.5q0 -37 -13 -68.5t-36 -54.5t-54.5 -36t-68.5 -13t-68.5 13t-54.5 36t-36 54.5t-13 68.5
q0 38 13 69.5t36 54t54.5 35.5t68.5 13z" />
    <glyph glyph-name="cdotaccent" unicode="&#x10b;" horiz-adv-x="1126" 
d="M859 712q-42 54 -101.5 84t-136.5 30q-55 0 -100.5 -21t-78 -59t-50.5 -91.5t-18 -118.5q0 -66 18 -120t50.5 -92.5t78 -59.5t100.5 -21q80 0 141 31t101 94l222 -143q-67 -112 -190 -174t-290 -62q-123 0 -224.5 39.5t-174 111t-112.5 172t-40 223.5t40 224.5t113 174
t174.5 112.5t225.5 40q158 0 278.5 -58.5t192.5 -166.5zM601 1554q37 0 68.5 -13t54 -35.5t35.5 -54t13 -69.5q0 -37 -13 -68.5t-35.5 -54.5t-54 -36t-68.5 -13t-68.5 13t-54.5 36t-36 54.5t-13 68.5q0 38 13 69.5t36 54t54.5 35.5t68.5 13z" />
    <glyph glyph-name="Ccaron" unicode="&#x10c;" horiz-adv-x="1386" 
d="M1164 963q-36 42 -78.5 76t-89.5 58t-96 37t-97 13q-88 0 -164 -33.5t-132 -93t-88 -140t-32 -173.5t32 -174t88 -141t132 -94t164 -34q47 0 95 11.5t94.5 33.5t90 52.5t81.5 69.5l191 -202q-55 -57 -122.5 -103.5t-141 -79.5t-151 -50.5t-154.5 -17.5q-157 0 -291 55.5
t-232 153t-154 230t-56 286.5q0 153 57 284t156.5 227.5t236 151t295.5 54.5q77 0 153.5 -16.5t148.5 -46.5t137 -73t117 -97zM930 1519h-290l-217 295h246l116 -129l116 129h246z" />
    <glyph glyph-name="ccaron" unicode="&#x10d;" horiz-adv-x="1126" 
d="M859 712q-42 54 -101.5 84t-136.5 30q-55 0 -100.5 -21t-78 -59t-50.5 -91.5t-18 -118.5q0 -66 18 -120t50.5 -92.5t78 -59.5t100.5 -21q80 0 141 31t101 94l222 -143q-67 -112 -190 -174t-290 -62q-123 0 -224.5 39.5t-174 111t-112.5 172t-40 223.5t40 224.5t113 174
t174.5 112.5t225.5 40q158 0 278.5 -58.5t192.5 -166.5zM748 1224h-290l-217 295h246l116 -129l116 129h246z" />
    <glyph glyph-name="Dcaron" unicode="&#x10e;" horiz-adv-x="1536" 
d="M745 1400q164 0 299.5 -51.5t233.5 -144t152 -221t54 -283.5q0 -154 -54.5 -283t-153.5 -221.5t-237 -144t-305 -51.5h-584v1400h595zM753 265q87 0 160 31.5t126 88.5t82.5 137t29.5 176q0 97 -31 177.5t-86 138t-131 89.5t-165 32h-261v-870h276zM828 1518h-290
l-217 295h246l116 -129l116 129h246z" />
    <glyph glyph-name="dcaron" unicode="&#x10f;" horiz-adv-x="1583" 
d="M896 151q-57 -79 -141.5 -121t-193.5 -42q-114 0 -207.5 40t-160 112.5t-103 175t-36.5 226.5q0 123 36 223.5t101.5 172t158 110.5t204.5 39t198 -42.5t144 -122.5v562h318v-1484h-318v151zM636 833q-58 0 -106 -22t-82.5 -61.5t-54 -94.5t-19.5 -121t19 -121
t53.5 -94.5t83 -61.5t106.5 -22t105.5 22t82 61.5t53.5 94.5t19 121t-19 121t-53.5 94.5t-82 61.5t-105.5 22zM1375 1484h256l-60 -424h-196v424z" />
    <glyph glyph-name="Dcroat" unicode="&#x110;" horiz-adv-x="1536" 
d="M14 779h136v621h594q164 0 300 -51.5t234 -144t152 -221t54 -283.5q0 -154 -54.5 -283t-153.5 -221.5t-237 -144t-305 -51.5h-584v622h-136v157zM753 265q86 0 159 31.5t126 88.5t83 136.5t30 175.5q0 97 -31 177.5t-86 138.5t-131 90t-165 32h-260v-356h343v-157h-343
v-357h275z" />
    <glyph glyph-name="dcroat" unicode="&#x111;" horiz-adv-x="1369" 
d="M532 1321h364v163h317v-163h133v-159h-133v-1163h-317v156q-59 -80 -145 -123.5t-194 -43.5q-112 0 -205 37.5t-159 106.5t-102.5 166t-36.5 215q0 116 35.5 211t101 163t156.5 105t202 37q110 0 198.5 -44.5t148.5 -124.5v302h-364v159zM636 775q-58 0 -106.5 -19.5
t-83 -55.5t-53.5 -85.5t-19 -109.5t19 -110t53.5 -85.5t83 -55t106.5 -19.5q57 0 105 19.5t82.5 55t53.5 85.5t19 110t-19 109.5t-53.5 85t-82.5 55.5t-105 20z" />
    <glyph glyph-name="Emacron" unicode="&#x112;" horiz-adv-x="1338" 
d="M150 1400h1074v-262h-747v-305h673v-261h-673v-310h769v-262h-1096v1400zM364 1711h671v-187h-671v187z" />
    <glyph glyph-name="emacron" unicode="&#x113;" horiz-adv-x="1197" 
d="M374 445q26 -104 97.5 -161t174.5 -57q75 0 143.5 29t124.5 86l167 -165q-82 -91 -198.5 -139.5t-263.5 -48.5q-130 0 -234.5 39.5t-178 111t-113 172t-39.5 223.5q0 124 40.5 225.5t114 173.5t175.5 112t226 40q142 0 246.5 -45t171 -128.5t95.5 -202t19 -265.5h-768z
M613 860q-49 0 -90.5 -16.5t-73 -47.5t-52.5 -74t-30 -96h475q-1 54 -17.5 97t-46.5 73.5t-72 47t-93 16.5zM296 1469h610v-187h-610v187z" />
    <glyph glyph-name="Ebreve" unicode="&#x114;" horiz-adv-x="1338" 
d="M150 1400h1074v-262h-747v-305h673v-261h-673v-310h769v-262h-1096v1400zM584 1820q4 -54 35.5 -87.5t79.5 -33.5t79.5 33.5t35.5 87.5h202q-3 -70 -27.5 -126.5t-66 -96.5t-98.5 -62t-125 -22t-125 22t-98.5 62t-65.5 96.5t-27 126.5h201z" />
    <glyph glyph-name="ebreve" unicode="&#x115;" horiz-adv-x="1197" 
d="M374 445q26 -104 97.5 -161t174.5 -57q75 0 143.5 29t124.5 86l167 -165q-82 -91 -198.5 -139.5t-263.5 -48.5q-130 0 -234.5 39.5t-178 111t-113 172t-39.5 223.5q0 124 40.5 225.5t114 173.5t175.5 112t226 40q142 0 246.5 -45t171 -128.5t95.5 -202t19 -265.5h-768z
M613 860q-49 0 -90.5 -16.5t-73 -47.5t-52.5 -74t-30 -96h475q-1 54 -17.5 97t-46.5 73.5t-72 47t-93 16.5zM486 1513q4 -54 35.5 -87.5t79.5 -33.5t79.5 33.5t35.5 87.5h202q-3 -70 -27.5 -126.5t-66 -96.5t-98.5 -62t-125 -22t-125 22t-98.5 62t-65.5 96.5t-27 126.5h201z
" />
    <glyph glyph-name="Edotaccent" unicode="&#x116;" horiz-adv-x="1338" 
d="M150 1400h1074v-262h-747v-305h673v-261h-673v-310h769v-262h-1096v1400zM699 1856q37 0 68.5 -13t54.5 -35.5t36 -54t13 -69.5q0 -37 -13 -68.5t-36 -54.5t-54.5 -36t-68.5 -13t-68.5 13t-54.5 36t-36 54.5t-13 68.5q0 38 13 69.5t36 54t54.5 35.5t68.5 13z" />
    <glyph glyph-name="edotaccent" unicode="&#x117;" horiz-adv-x="1197" 
d="M374 445q26 -104 97.5 -161t174.5 -57q75 0 143.5 29t124.5 86l167 -165q-82 -91 -198.5 -139.5t-263.5 -48.5q-130 0 -234.5 39.5t-178 111t-113 172t-39.5 223.5q0 124 40.5 225.5t114 173.5t175.5 112t226 40q142 0 246.5 -45t171 -128.5t95.5 -202t19 -265.5h-768z
M613 860q-49 0 -90.5 -16.5t-73 -47.5t-52.5 -74t-30 -96h475q-1 54 -17.5 97t-46.5 73.5t-72 47t-93 16.5zM599 1554q37 0 68.5 -13t54 -35.5t35.5 -54t13 -69.5q0 -37 -13 -68.5t-35.5 -54.5t-54 -36t-68.5 -13t-68.5 13t-54.5 36t-36 54.5t-13 68.5q0 38 13 69.5t36 54
t54.5 35.5t68.5 13z" />
    <glyph glyph-name="Eogonek" unicode="&#x118;" horiz-adv-x="1338" 
d="M150 1400h1074v-262h-747v-305h673v-261h-673v-310h769v-262h-1096v1400zM1246 0q-79 -59 -119 -106.5t-40 -93.5q0 -29 12.5 -42t34.5 -13q12 0 28 4t31 12l58 -174q-45 -20 -93 -31.5t-95 -11.5q-104 0 -162 54.5t-58 147.5q0 81 50 166.5t168 165.5z" />
    <glyph glyph-name="eogonek" unicode="&#x119;" horiz-adv-x="1197" 
d="M374 445q26 -104 97.5 -161t174.5 -57q75 0 143.5 29t124.5 86l167 -165q-82 -91 -198.5 -139.5t-263.5 -48.5q-130 0 -234.5 39.5t-178 111t-113 172t-39.5 223.5q0 124 40.5 225.5t114 173.5t175.5 112t226 40q142 0 246.5 -45t171 -128.5t95.5 -202t19 -265.5h-768z
M613 860q-49 0 -90.5 -16.5t-73 -47.5t-52.5 -74t-30 -96h475q-1 54 -17.5 97t-46.5 73.5t-72 47t-93 16.5zM1011 114q-39 -35 -71.5 -75.5t-56 -81t-37 -79.5t-13.5 -70q0 -63 48 -63q14 0 29.5 4t29.5 12l57 -174q-45 -20 -91 -31.5t-93 -11.5q-49 0 -90 13.5t-70.5 40.5
t-46 67t-16.5 93q0 51 17.5 100.5t54.5 99t95 101.5t138 107z" />
    <glyph glyph-name="Ecaron" unicode="&#x11a;" horiz-adv-x="1338" 
d="M150 1400h1074v-262h-747v-305h673v-261h-673v-310h769v-262h-1096v1400zM808 1519h-290l-217 295h246l116 -129l116 129h246z" />
    <glyph glyph-name="ecaron" unicode="&#x11b;" horiz-adv-x="1197" 
d="M374 445q26 -104 97.5 -161t174.5 -57q75 0 143.5 29t124.5 86l167 -165q-82 -91 -198.5 -139.5t-263.5 -48.5q-130 0 -234.5 39.5t-178 111t-113 172t-39.5 223.5q0 124 40.5 225.5t114 173.5t175.5 112t226 40q142 0 246.5 -45t171 -128.5t95.5 -202t19 -265.5h-768z
M613 860q-49 0 -90.5 -16.5t-73 -47.5t-52.5 -74t-30 -96h475q-1 54 -17.5 97t-46.5 73.5t-72 47t-93 16.5zM746 1224h-290l-217 295h246l116 -129l116 129h246z" />
    <glyph glyph-name="Gcircumflex" unicode="&#x11c;" horiz-adv-x="1488" 
d="M1199 990q-39 37 -84.5 66t-94.5 49.5t-100.5 31.5t-101.5 11q-91 0 -170 -34.5t-137 -94.5t-91 -141.5t-33 -175.5q0 -96 33.5 -178t92 -142.5t137.5 -95t171 -34.5q58 0 125 19t132 52v242h-368v248h660v-651q-55 -41 -124 -75t-144 -58t-152.5 -37.5t-151.5 -13.5
q-106 0 -202.5 25t-179 71.5t-150 111.5t-115 145.5t-73 174t-25.5 196.5q0 102 26.5 195t75 173t117.5 145t154 110.5t184.5 70.5t208.5 25q78 0 155.5 -14.5t151 -41.5t139 -65t119.5 -86zM647 1815h290l217 -295h-246l-116 128l-116 -128h-246z" />
    <glyph glyph-name="gcircumflex" unicode="&#x11d;" horiz-adv-x="1291" 
d="M1159 100q0 -115 -41.5 -207.5t-117 -157.5t-182 -100t-235.5 -35q-139 0 -258.5 39t-213.5 102l116 216q74 -53 158.5 -81t175.5 -28q65 0 117.5 17t89 48.5t56 76.5t19.5 101v118q-54 -74 -134.5 -113.5t-186.5 -39.5q-103 0 -189.5 37.5t-148 106t-96 164t-34.5 212.5
q0 114 33.5 208t94.5 161t145.5 104t186.5 37q109 1 191.5 -39t137.5 -115v143h316v-975zM598 848q-55 0 -100 -20.5t-77.5 -57.5t-50.5 -88.5t-18 -113.5t18 -113.5t50.5 -88.5t77.5 -57.5t100 -20.5q54 0 99.5 20.5t77.5 57.5t50 88.5t18 113.5t-18 113.5t-50 88.5
t-77.5 57.5t-99.5 20.5zM471 1519h290l217 -295h-246l-116 128l-116 -128h-246z" />
    <glyph glyph-name="Gbreve" unicode="&#x11e;" horiz-adv-x="1488" 
d="M1199 990q-39 37 -84.5 66t-94.5 49.5t-100.5 31.5t-101.5 11q-91 0 -170 -34.5t-137 -94.5t-91 -141.5t-33 -175.5q0 -96 33.5 -178t92 -142.5t137.5 -95t171 -34.5q58 0 125 19t132 52v242h-368v248h660v-651q-55 -41 -124 -75t-144 -58t-152.5 -37.5t-151.5 -13.5
q-106 0 -202.5 25t-179 71.5t-150 111.5t-115 145.5t-73 174t-25.5 196.5q0 102 26.5 195t75 173t117.5 145t154 110.5t184.5 70.5t208.5 25q78 0 155.5 -14.5t151 -41.5t139 -65t119.5 -86zM678 1821q4 -54 35.5 -87.5t79.5 -33.5t79.5 33.5t35.5 87.5h202
q-3 -70 -27.5 -126.5t-66 -96.5t-98.5 -62t-125 -22t-125 22t-98.5 62t-65.5 96.5t-27 126.5h201z" />
    <glyph glyph-name="gbreve" unicode="&#x11f;" horiz-adv-x="1291" 
d="M1159 100q0 -115 -41.5 -207.5t-117 -157.5t-182 -100t-235.5 -35q-139 0 -258.5 39t-213.5 102l116 216q74 -53 158.5 -81t175.5 -28q65 0 117.5 17t89 48.5t56 76.5t19.5 101v118q-54 -74 -134.5 -113.5t-186.5 -39.5q-103 0 -189.5 37.5t-148 106t-96 164t-34.5 212.5
q0 114 33.5 208t94.5 161t145.5 104t186.5 37q109 1 191.5 -39t137.5 -115v143h316v-975zM598 848q-55 0 -100 -20.5t-77.5 -57.5t-50.5 -88.5t-18 -113.5t18 -113.5t50.5 -88.5t77.5 -57.5t100 -20.5q54 0 99.5 20.5t77.5 57.5t50 88.5t18 113.5t-18 113.5t-50 88.5
t-77.5 57.5t-99.5 20.5zM501 1513q4 -54 35.5 -87.5t79.5 -33.5t79.5 33.5t35.5 87.5h202q-3 -70 -27.5 -126.5t-66 -96.5t-98.5 -62t-125 -22t-125 22t-98.5 62t-65.5 96.5t-27 126.5h201z" />
    <glyph glyph-name="Gdotaccent" unicode="&#x120;" horiz-adv-x="1488" 
d="M1199 990q-39 37 -84.5 66t-94.5 49.5t-100.5 31.5t-101.5 11q-91 0 -170 -34.5t-137 -94.5t-91 -141.5t-33 -175.5q0 -96 33.5 -178t92 -142.5t137.5 -95t171 -34.5q58 0 125 19t132 52v242h-368v248h660v-651q-55 -41 -124 -75t-144 -58t-152.5 -37.5t-151.5 -13.5
q-106 0 -202.5 25t-179 71.5t-150 111.5t-115 145.5t-73 174t-25.5 196.5q0 102 26.5 195t75 173t117.5 145t154 110.5t184.5 70.5t208.5 25q78 0 155.5 -14.5t151 -41.5t139 -65t119.5 -86zM792 1857q37 0 68.5 -13t54.5 -35.5t36 -54t13 -69.5q0 -37 -13 -68.5t-36 -54.5
t-54.5 -36t-68.5 -13t-68.5 13t-54.5 36t-36 54.5t-13 68.5q0 38 13 69.5t36 54t54.5 35.5t68.5 13z" />
    <glyph glyph-name="gdotaccent" unicode="&#x121;" horiz-adv-x="1291" 
d="M1159 100q0 -115 -41.5 -207.5t-117 -157.5t-182 -100t-235.5 -35q-139 0 -258.5 39t-213.5 102l116 216q74 -53 158.5 -81t175.5 -28q65 0 117.5 17t89 48.5t56 76.5t19.5 101v118q-54 -74 -134.5 -113.5t-186.5 -39.5q-103 0 -189.5 37.5t-148 106t-96 164t-34.5 212.5
q0 114 33.5 208t94.5 161t145.5 104t186.5 37q109 1 191.5 -39t137.5 -115v143h316v-975zM598 848q-55 0 -100 -20.5t-77.5 -57.5t-50.5 -88.5t-18 -113.5t18 -113.5t50.5 -88.5t77.5 -57.5t100 -20.5q54 0 99.5 20.5t77.5 57.5t50 88.5t18 113.5t-18 113.5t-50 88.5
t-77.5 57.5t-99.5 20.5zM614 1554q37 0 68.5 -13t54 -35.5t35.5 -54t13 -69.5q0 -37 -13 -68.5t-35.5 -54.5t-54 -36t-68.5 -13t-68.5 13t-54.5 36t-36 54.5t-13 68.5q0 38 13 69.5t36 54t54.5 35.5t68.5 13z" />
    <glyph glyph-name="uni0122" unicode="&#x122;" horiz-adv-x="1488" 
d="M1199 990q-39 37 -84.5 66t-94.5 49.5t-100.5 31.5t-101.5 11q-91 0 -170 -34.5t-137 -94.5t-91 -141.5t-33 -175.5q0 -96 33.5 -178t92 -142.5t137.5 -95t171 -34.5q58 0 125 19t132 52v242h-368v248h660v-651q-55 -41 -124 -75t-144 -58t-152.5 -37.5t-151.5 -13.5
q-106 0 -202.5 25t-179 71.5t-150 111.5t-115 145.5t-73 174t-25.5 196.5q0 102 26.5 195t75 173t117.5 145t154 110.5t184.5 70.5t208.5 25q78 0 155.5 -14.5t151 -41.5t139 -65t119.5 -86zM647 -118h267l-139 -340h-194z" />
    <glyph glyph-name="uni0123" unicode="&#x123;" horiz-adv-x="1291" 
d="M1159 100q0 -115 -41.5 -207.5t-117 -157.5t-182 -100t-235.5 -35q-139 0 -258.5 39t-213.5 102l116 216q74 -53 158.5 -81t175.5 -28q65 0 117.5 17t89 48.5t56 76.5t19.5 101v118q-54 -74 -134.5 -113.5t-186.5 -39.5q-103 0 -189.5 37.5t-148 106t-96 164t-34.5 212.5
q0 114 33.5 208t94.5 161t145.5 104t186.5 37q109 1 191.5 -39t137.5 -115v143h316v-975zM598 848q-55 0 -100 -20.5t-77.5 -57.5t-50.5 -88.5t-18 -113.5t18 -113.5t50.5 -88.5t77.5 -57.5t100 -20.5q54 0 99.5 20.5t77.5 57.5t50 88.5t18 113.5t-18 113.5t-50 88.5
t-77.5 57.5t-99.5 20.5zM730 1222h-268l139 340h194z" />
    <glyph glyph-name="Hcircumflex" unicode="&#x124;" horiz-adv-x="1573" 
d="M150 1400h327v-586h619v586h327v-1400h-327v554h-619v-554h-327v1400zM647 1813h290l217 -295h-246l-116 128l-116 -128h-246z" />
    <glyph glyph-name="hcircumflex" unicode="&#x125;" horiz-adv-x="1352" 
d="M920 587q0 103 -55 161.5t-151 58.5q-56 0 -100.5 -21t-75.5 -58t-47.5 -87.5t-16.5 -110.5v-530h-318v1484h318v-595q57 100 150.5 149t218.5 50q90 0 163 -29t124.5 -82.5t79.5 -130t28 -171.5v-675h-318v587zM163 1928h290l217 -295h-246l-116 128l-116 -128h-246z
" />
    <glyph glyph-name="Hbar" unicode="&#x126;" horiz-adv-x="1654" 
d="M6 1196h184v204h327v-204h618v204h327v-204h183v-158h-183v-1038h-327v554h-618v-554h-327v1038h-184v158zM1135 1038h-618v-224h618v224z" />
    <glyph glyph-name="hbar" unicode="&#x127;" horiz-adv-x="1352" 
d="M24 1321h132v163h318v-163h365v-159h-365v-331q57 100 150.5 149t218.5 49q90 0 163 -29t124.5 -82.5t79.5 -130t28 -171.5v-616h-318v528q0 103 -55 161.5t-151 58.5q-56 0 -100.5 -21t-75.5 -58t-47.5 -87.5t-16.5 -110.5v-471h-318v1162h-132v159z" />
    <glyph glyph-name="Itilde" unicode="&#x128;" horiz-adv-x="628" 
d="M150 1400h327v-1400h-327v1400zM649 1808q0 -67 -10 -122t-32 -94t-57.5 -60.5t-86.5 -21.5q-44 0 -83 14.5t-72.5 32t-61.5 32t-49 14.5q-32 0 -43.5 -24t-12.5 -63h-187q0 67 10 122t32 94.5t57.5 61t87.5 21.5q44 0 83 -14.5t72.5 -32t61 -32t48.5 -14.5q33 0 44.5 24
t12.5 62h186z" />
    <glyph glyph-name="itilde" unicode="&#x129;" horiz-adv-x="609" 
d="M146 1075h317v-1075h-317v1075zM638 1494q0 -142 -41 -220t-136 -78q-40 0 -74 14t-62.5 30.5t-52 30t-41.5 13.5q-27 0 -38.5 -22t-12.5 -60h-187q0 70 10 125.5t31.5 94t55 59t81.5 20.5q39 0 73.5 -13t63 -28.5t52 -28.5t41.5 -13q27 0 38.5 20t12.5 56h186z" />
    <glyph glyph-name="Imacron" unicode="&#x12a;" horiz-adv-x="628" 
d="M150 1400h327v-1400h-327v1400zM8 1710h610v-187h-610v187z" />
    <glyph glyph-name="imacron" unicode="&#x12b;" horiz-adv-x="609" 
d="M146 1075h317v-1075h-317v1075zM31 1469h546v-187h-546v187z" />
    <glyph glyph-name="Ibreve" unicode="&#x12c;" horiz-adv-x="628" 
d="M150 1400h327v-1400h-327v1400zM198 1819q4 -54 35.5 -87.5t79.5 -33.5t79.5 33.5t35.5 87.5h202q-3 -70 -27.5 -126.5t-66 -96.5t-98.5 -62t-125 -22t-125 22t-98.5 62t-65.5 96.5t-27 126.5h201z" />
    <glyph glyph-name="ibreve" unicode="&#x12d;" horiz-adv-x="609" 
d="M146 1075h317v-1075h-317v1075zM190 1513q4 -54 35.5 -87.5t79.5 -33.5t79.5 33.5t35.5 87.5h202q-3 -70 -27.5 -126.5t-66 -96.5t-98.5 -62t-125 -22t-125 22t-98.5 62t-65.5 96.5t-27 126.5h201z" />
    <glyph glyph-name="Iogonek" unicode="&#x12e;" horiz-adv-x="628" 
d="M150 1400h327v-1400h-327v1400zM423 0q-79 -59 -119 -106.5t-40 -93.5q0 -29 12.5 -42t34.5 -13q12 0 28 4t31 12l58 -174q-45 -20 -93 -31.5t-95 -11.5q-104 0 -162 54.5t-58 147.5q0 81 50 166.5t168 165.5z" />
    <glyph glyph-name="iogonek" unicode="&#x12f;" horiz-adv-x="609" 
d="M146 1075h317v-1075h-317v1075zM303 1554q37 0 68.5 -13t54 -35.5t35.5 -54t13 -69.5q0 -37 -13 -68.5t-35.5 -54.5t-54 -36t-68.5 -13t-68.5 13t-54.5 36t-36 54.5t-13 68.5q0 38 13 69.5t36 54t54.5 35.5t68.5 13zM415 0q-79 -59 -119 -106.5t-40 -93.5q0 -29 12.5 -42
t34.5 -13q12 0 28 4t31 12l58 -174q-45 -20 -93 -31.5t-95 -11.5q-104 0 -162 54.5t-58 147.5q0 81 50 166.5t168 165.5z" />
    <glyph glyph-name="Idotaccent" unicode="&#x130;" horiz-adv-x="628" 
d="M150 1400h327v-1400h-327v1400zM313 1855q37 0 68.5 -13t54.5 -35.5t36 -54t13 -69.5q0 -37 -13 -68.5t-36 -54.5t-54.5 -36t-68.5 -13t-68.5 13t-54.5 36t-36 54.5t-13 68.5q0 38 13 69.5t36 54t54.5 35.5t68.5 13z" />
    <glyph glyph-name="dotlessi" unicode="&#x131;" horiz-adv-x="609" 
d="M146 1075h317v-1075h-317v1075z" />
    <glyph glyph-name="IJ" unicode="&#x132;" horiz-adv-x="1707" 
d="M150 1400h327v-1400h-327v1400zM1557 447q0 -110 -33 -195.5t-94.5 -144.5t-149 -90t-196.5 -31q-143 0 -259 57t-206 161l151 222q75 -78 153 -116.5t143 -38.5q76 0 119 46.5t43 137.5v945h329v-953z" />
    <glyph glyph-name="ij" unicode="&#x133;" horiz-adv-x="1219" 
d="M146 1075h317v-1075h-317v1075zM303 1554q37 0 68.5 -13t54 -35.5t35.5 -54t13 -69.5q0 -37 -13 -68.5t-35.5 -54.5t-54 -36t-68.5 -13t-68.5 13t-54.5 36t-36 54.5t-13 68.5q0 38 13 69.5t36 54t54.5 35.5t68.5 13zM549 -135q22 -7 45 -12t46 -5q58 0 88 39.5t30 115.5
v1072h318v-1119q0 -84 -25.5 -150.5t-73.5 -112.5t-116 -70t-154 -23q-123 2 -222 41zM913 1554q37 0 68.5 -13t54 -35.5t35.5 -54t13 -69.5q0 -37 -13 -68.5t-35.5 -54.5t-54 -36t-68.5 -13t-68.5 13t-54.5 36t-36 54.5t-13 68.5q0 38 13 69.5t36 54t54.5 35.5t68.5 13z
" />
    <glyph glyph-name="Jcircumflex" unicode="&#x134;" horiz-adv-x="1053" 
d="M929 447q0 -110 -33 -195.5t-94.5 -144.5t-149 -90t-196.5 -31q-143 0 -259 57t-206 161l151 222q75 -78 153 -116.5t143 -38.5q76 0 119 46.5t43 137.5v945h329v-953zM603 1814h290l217 -295h-246l-116 128l-116 -128h-246z" />
    <glyph glyph-name="jcircumflex" unicode="&#x135;" horiz-adv-x="602" 
d="M-60 -135q22 -7 45 -12t46 -5q58 0 88 39.5t30 115.5v1072h318v-1119q0 -84 -25.5 -150.5t-73.5 -112.5t-116 -70t-154 -23q-123 2 -222 41zM161 1519h290l217 -295h-246l-116 128l-116 -128h-246z" />
    <glyph glyph-name="uni0136" unicode="&#x136;" horiz-adv-x="1479" 
d="M150 1400h327v-656l568 656h380l-527 -583l561 -817h-392l-394 569l-196 -216v-353h-327v1400zM587 -118h267l-139 -340h-194z" />
    <glyph glyph-name="uni0137" unicode="&#x137;" horiz-adv-x="1244" 
d="M156 1484h318v-815l384 406h361l-396 -415l412 -660h-377l-251 434l-133 -139v-295h-318v1484zM518 -118h267l-139 -340h-194z" />
    <glyph glyph-name="kgreenlandic" unicode="&#x138;" horiz-adv-x="1232" 
d="M146 1075h317v-418l383 418h362l-397 -415l412 -660h-377l-251 434l-132 -138v-296h-317v1075z" />
    <glyph glyph-name="Lacute" unicode="&#x139;" horiz-adv-x="1107" 
d="M150 1400h327v-1125h597v-275h-924v1400zM377 1831l277 -107l-276 -218l-228 20z" />
    <glyph glyph-name="lacute" unicode="&#x13a;" horiz-adv-x="670" 
d="M444 374q0 -60 26.5 -88t69.5 -28q24 0 49.5 8.5t53.5 22.5l30 -254q-51 -24 -103 -37t-102 -13q-69 0 -131 23t-108.5 68.5t-74 115t-27.5 162.5v1130h317v-1110zM363 1939l277 -107l-276 -218l-228 20z" />
    <glyph glyph-name="uni013B" unicode="&#x13b;" horiz-adv-x="1107" 
d="M150 1400h327v-1125h597v-275h-924v1400zM479 -118h267l-139 -340h-194z" />
    <glyph glyph-name="uni013C" unicode="&#x13c;" horiz-adv-x="670" 
d="M444 374q0 -60 26.5 -88t69.5 -28q24 0 49.5 8.5t53.5 22.5l30 -254q-51 -24 -103 -37t-102 -13q-69 0 -131 23t-108.5 68.5t-74 115t-27.5 162.5v1130h317v-1110zM284 -118h267l-139 -340h-194z" />
    <glyph glyph-name="Lcaron" unicode="&#x13d;" horiz-adv-x="1107" 
d="M150 1400h327v-1125h597v-275h-924v1400zM818 1401h256l-60 -424h-196v424z" />
    <glyph glyph-name="lcaron" unicode="&#x13e;" horiz-adv-x="799" 
d="M444 374q0 -60 26.5 -88t69.5 -28q24 0 49.5 8.5t53.5 22.5l30 -254q-51 -24 -103 -37t-102 -13q-69 0 -131 23t-108.5 68.5t-74 115t-27.5 162.5v1130h317v-1110zM590 1485h256l-60 -424h-196v424z" />
    <glyph glyph-name="Ldot" unicode="&#x13f;" horiz-adv-x="1107" 
d="M150 1400h327v-1125h597v-275h-924v1400zM858 896q37 0 68.5 -13t54 -35.5t35.5 -54t13 -69.5q0 -37 -13 -68.5t-35.5 -54.5t-54 -36t-68.5 -13t-68.5 13t-54.5 36t-36 54.5t-13 68.5q0 38 13 69.5t36 54t54.5 35.5t68.5 13z" />
    <glyph glyph-name="ldot" unicode="&#x140;" horiz-adv-x="884" 
d="M444 374q0 -60 26.5 -88t69.5 -28q24 0 49.5 8.5t53.5 22.5l30 -254q-51 -24 -103 -37t-102 -13q-69 0 -131 23t-108.5 68.5t-74 115t-27.5 162.5v1130h317v-1110zM680 970q37 0 68.5 -13t54 -35.5t35.5 -54t13 -69.5q0 -37 -13 -68.5t-35.5 -54.5t-54 -36t-68.5 -13
t-68.5 13t-54.5 36t-36 54.5t-13 68.5q0 38 13 69.5t36 54t54.5 35.5t68.5 13z" />
    <glyph glyph-name="Lslash" unicode="&#x141;" horiz-adv-x="1190" 
d="M40 693l193 100v607h326v-438l223 116v-175l-223 -115v-514h597v-274h-923v619l-193 -100v174z" />
    <glyph glyph-name="lslash" unicode="&#x142;" horiz-adv-x="824" 
d="M444 942l237 122v-185l-237 -123v-382q0 -60 26.5 -88t69.5 -28q24 0 49.5 8.5t53.5 22.5l30 -254q-51 -24 -103 -37t-102 -13q-69 0 -131 23t-108.5 68.5t-74 115t-27.5 162.5v238l-189 -98v187l189 98v705h317v-542z" />
    <glyph glyph-name="Nacute" unicode="&#x143;" horiz-adv-x="1574" 
d="M150 1400h294l672 -903v903h307v-1400h-295l-668 898v-898h-310v1400zM865 1832l277 -107l-276 -218l-228 20z" />
    <glyph glyph-name="nacute" unicode="&#x144;" horiz-adv-x="1341" 
d="M908 587q0 103 -54.5 161.5t-150.5 58.5q-52 0 -94.5 -18.5t-73 -51t-49 -77.5t-22.5 -99v-561h-318v1075h318v-184q57 100 150 148t218 49q90 0 163 -29t124.5 -82.5t79 -130t27.5 -171.5v-675h-318v587zM780 1530l277 -107l-276 -218l-228 20z" />
    <glyph glyph-name="uni0145" unicode="&#x145;" horiz-adv-x="1574" 
d="M150 1400h294l672 -903v903h307v-1400h-295l-668 898v-898h-310v1400zM660 -118h267l-139 -340h-194z" />
    <glyph glyph-name="uni0146" unicode="&#x146;" horiz-adv-x="1341" 
d="M908 587q0 103 -54.5 161.5t-150.5 58.5q-52 0 -94.5 -18.5t-73 -51t-49 -77.5t-22.5 -99v-561h-318v1075h318v-184q57 100 150 148t218 49q90 0 163 -29t124.5 -82.5t79 -130t27.5 -171.5v-675h-318v587zM548 -118h267l-139 -340h-194z" />
    <glyph glyph-name="Ncaron" unicode="&#x147;" horiz-adv-x="1574" 
d="M150 1400h294l672 -903v903h307v-1400h-295l-668 898v-898h-310v1400zM908 1519h-290l-217 295h246l116 -129l116 129h246z" />
    <glyph glyph-name="ncaron" unicode="&#x148;" horiz-adv-x="1341" 
d="M908 587q0 103 -54.5 161.5t-150.5 58.5q-52 0 -94.5 -18.5t-73 -51t-49 -77.5t-22.5 -99v-561h-318v1075h318v-184q57 100 150 148t218 49q90 0 163 -29t124.5 -82.5t79 -130t27.5 -171.5v-675h-318v587zM848 1224h-290l-217 295h246l116 -129l116 129h246z" />
    <glyph glyph-name="napostrophe" unicode="&#x149;" horiz-adv-x="1625" 
d="M82 1400h221l-41 -523h-180v523zM1192 587q0 103 -54.5 161.5t-150.5 58.5q-52 0 -94.5 -18.5t-73 -51t-49 -77.5t-22.5 -99v-561h-318v1075h318v-184q57 100 150 148t218 49q90 0 163 -29t124.5 -82.5t79 -130t27.5 -171.5v-675h-318v587z" />
    <glyph glyph-name="Eng" unicode="&#x14a;" horiz-adv-x="1574" 
d="M150 1400h295l671 -904v904h307v-1400q-3 -98 -37.5 -176.5t-96 -133.5t-147.5 -84.5t-192 -29.5q-111 0 -203.5 33t-166.5 95l127 244q63 -44 126 -65t115 -21q72 0 115 40t51 118l-653 880v-900h-311v1400z" />
    <glyph glyph-name="eng" unicode="&#x14b;" horiz-adv-x="1341" 
d="M146 1075h318v-184q57 100 150 148t218 49q90 0 163 -29t124.5 -82.5t79 -130t27.5 -171.5v-711q0 -90 -30.5 -158.5t-82 -114.5t-121 -69t-147.5 -23q-72 0 -138.5 18t-120.5 52l86 225q29 -19 61.5 -30t66.5 -11q48 0 78 30.5t30 95.5v608q0 103 -54.5 161.5
t-150.5 58.5q-52 0 -94.5 -18.5t-73 -51t-49 -77.5t-22.5 -99v-561h-318v1075z" />
    <glyph glyph-name="Omacron" unicode="&#x14c;" horiz-adv-x="1611" 
d="M806 1420q161 0 298.5 -54.5t238 -151t158 -228t57.5 -284.5q0 -102 -26 -195.5t-74 -174t-115.5 -146t-151 -112t-181 -71.5t-204.5 -25q-161 0 -299 55.5t-239 152.5t-158 229.5t-57 286.5t57 285.5t158 227.5t239 150.5t299 54.5zM809 1146q-86 0 -163 -34t-134.5 -94
t-91 -141t-33.5 -175q0 -95 34 -177t91.5 -143t134.5 -95.5t162 -34.5q86 0 161.5 34.5t131.5 95.5t88.5 143t32.5 177q0 94 -32.5 175t-88.5 141t-131.5 94t-161.5 34zM470 1711h671v-187h-671v187z" />
    <glyph glyph-name="omacron" unicode="&#x14d;" 
d="M635 1086q130 0 237 -39.5t183 -111.5t117.5 -173t41.5 -224t-41.5 -224t-117.5 -173.5t-183 -112t-237 -39.5q-131 0 -238 39.5t-183.5 112t-118 173.5t-41.5 224t41.5 224t118 173t183.5 111.5t238 39.5zM635 832q-58 0 -106 -21.5t-82.5 -61t-53.5 -94t-19 -120.5
q0 -67 19 -122t53.5 -94.5t82.5 -61t106 -21.5t105.5 21.5t82 61t53.5 94.5t19 122q0 66 -19 120.5t-53.5 94t-82 61t-105.5 21.5zM329 1469h610v-187h-610v187z" />
    <glyph glyph-name="Obreve" unicode="&#x14e;" horiz-adv-x="1611" 
d="M806 1420q161 0 298.5 -54.5t238 -151t158 -228t57.5 -284.5q0 -102 -26 -195.5t-74 -174t-115.5 -146t-151 -112t-181 -71.5t-204.5 -25q-161 0 -299 55.5t-239 152.5t-158 229.5t-57 286.5t57 285.5t158 227.5t239 150.5t299 54.5zM809 1146q-86 0 -163 -34t-134.5 -94
t-91 -141t-33.5 -175q0 -95 34 -177t91.5 -143t134.5 -95.5t162 -34.5q86 0 161.5 34.5t131.5 95.5t88.5 143t32.5 177q0 94 -32.5 175t-88.5 141t-131.5 94t-161.5 34zM690 1820q4 -54 35.5 -87.5t79.5 -33.5t79.5 33.5t35.5 87.5h202q-3 -70 -27.5 -126.5t-66 -96.5
t-98.5 -62t-125 -22t-125 22t-98.5 62t-65.5 96.5t-27 126.5h201z" />
    <glyph glyph-name="obreve" unicode="&#x14f;" 
d="M635 1086q130 0 237 -39.5t183 -111.5t117.5 -173t41.5 -224t-41.5 -224t-117.5 -173.5t-183 -112t-237 -39.5q-131 0 -238 39.5t-183.5 112t-118 173.5t-41.5 224t41.5 224t118 173t183.5 111.5t238 39.5zM635 832q-58 0 -106 -21.5t-82.5 -61t-53.5 -94t-19 -120.5
q0 -67 19 -122t53.5 -94.5t82.5 -61t106 -21.5t105.5 21.5t82 61t53.5 94.5t19 122q0 66 -19 120.5t-53.5 94t-82 61t-105.5 21.5zM520 1513q4 -54 35.5 -87.5t79.5 -33.5t79.5 33.5t35.5 87.5h202q-3 -70 -27.5 -126.5t-66 -96.5t-98.5 -62t-125 -22t-125 22t-98.5 62
t-65.5 96.5t-27 126.5h201z" />
    <glyph glyph-name="Ohungarumlaut" unicode="&#x150;" horiz-adv-x="1611" 
d="M806 1420q161 0 298.5 -54.5t238 -151t158 -228t57.5 -284.5q0 -102 -26 -195.5t-74 -174t-115.5 -146t-151 -112t-181 -71.5t-204.5 -25q-161 0 -299 55.5t-239 152.5t-158 229.5t-57 286.5t57 285.5t158 227.5t239 150.5t299 54.5zM809 1146q-86 0 -163 -34t-134.5 -94
t-91 -141t-33.5 -175q0 -95 34 -177t91.5 -143t134.5 -95.5t162 -34.5q86 0 161.5 34.5t131.5 95.5t88.5 143t32.5 177q0 94 -32.5 175t-88.5 141t-131.5 94t-161.5 34zM631 1840l247 -95l-181 -238l-226 19zM1006 1840l247 -95l-181 -238l-226 19z" />
    <glyph glyph-name="ohungarumlaut" unicode="&#x151;" 
d="M635 1086q130 0 237 -39.5t183 -111.5t117.5 -173t41.5 -224t-41.5 -224t-117.5 -173.5t-183 -112t-237 -39.5q-131 0 -238 39.5t-183.5 112t-118 173.5t-41.5 224t41.5 224t118 173t183.5 111.5t238 39.5zM635 832q-58 0 -106 -21.5t-82.5 -61t-53.5 -94t-19 -120.5
q0 -67 19 -122t53.5 -94.5t82.5 -61t106 -21.5t105.5 21.5t82 61t53.5 94.5t19 122q0 66 -19 120.5t-53.5 94t-82 61t-105.5 21.5zM460 1538l247 -95l-181 -238l-226 19zM835 1538l247 -95l-181 -238l-226 19z" />
    <glyph glyph-name="OE" unicode="&#x152;" horiz-adv-x="2216" 
d="M53 698q0 99 26 189.5t73.5 168.5t115 141.5t151 108.5t180.5 69.5t204 24.5h1299v-262h-746v-305h672v-260h-672v-311h768v-262h-1321q-159 0 -296.5 53t-238 146.5t-158 221t-57.5 277.5zM387 696q0 -92 32 -170.5t88 -136.5t132.5 -90.5t164.5 -32.5l224 2v861h-224
q-88 0 -164.5 -33t-132.5 -90.5t-88 -137t-32 -172.5z" />
    <glyph glyph-name="oe" unicode="&#x153;" horiz-adv-x="2048" 
d="M635 1086q140 0 243.5 -51t168.5 -143q63 92 163 143t232 51t237.5 -44.5t177.5 -125.5t108 -194.5t30 -252.5h-798q11 -57 35.5 -102t61 -76t83 -47.5t101.5 -16.5q75 0 144.5 29t126.5 86l167 -165q-84 -91 -200.5 -139.5t-265.5 -48.5q-140 0 -241 50.5t-164 142.5
q-66 -92 -169 -142.5t-241 -50.5q-131 0 -238 39.5t-183.5 112t-118 173.5t-41.5 224t41.5 224t118 173t183.5 111.5t238 39.5zM635 832q-58 0 -106 -21.5t-82.5 -61t-53.5 -94t-19 -120.5q0 -67 19 -122t53.5 -94.5t82.5 -61t106 -21.5t105.5 21.5t82 61t53.5 94.5t19 122
q0 66 -19 120.5t-53.5 94t-82 61t-105.5 21.5zM1445 870q-51 0 -93 -18t-74.5 -51t-53.5 -78.5t-29 -99.5h482q0 54 -17 99.5t-48 78t-73.5 51t-93.5 18.5z" />
    <glyph glyph-name="Racute" unicode="&#x154;" horiz-adv-x="1447" 
d="M762 1400q137 0 244.5 -32.5t181.5 -94.5t112.5 -152.5t38.5 -206.5q0 -163 -67.5 -277.5t-195.5 -174.5l299 -462h-370l-219 401h-24h-285v-401h-327v1400h612zM762 663q128 0 197.5 60.5t69.5 181.5q0 117 -69.5 175t-197.5 58h-285v-475h285zM769 1832l277 -107
l-276 -218l-228 20z" />
    <glyph glyph-name="racute" unicode="&#x155;" horiz-adv-x="838" 
d="M146 1075h318v-190q56 99 146 150.5t208 52.5v-288q-78 6 -141 -9.5t-108.5 -49t-72.5 -83.5t-32 -112v-546h-318v1075zM560 1530l277 -107l-276 -218l-228 20z" />
    <glyph glyph-name="uni0156" unicode="&#x156;" horiz-adv-x="1447" 
d="M762 1400q137 0 244.5 -32.5t181.5 -94.5t112.5 -152.5t38.5 -206.5q0 -163 -67.5 -277.5t-195.5 -174.5l299 -462h-370l-219 401h-24h-285v-401h-327v1400h612zM762 663q128 0 197.5 60.5t69.5 181.5q0 117 -69.5 175t-197.5 58h-285v-475h285zM584 -118h267l-139 -340
h-194z" />
    <glyph glyph-name="uni0157" unicode="&#x157;" horiz-adv-x="838" 
d="M146 1075h318v-190q56 99 146 150.5t208 52.5v-288q-78 6 -141 -9.5t-108.5 -49t-72.5 -83.5t-32 -112v-546h-318v1075zM170 -118h267l-139 -340h-194z" />
    <glyph glyph-name="Rcaron" unicode="&#x158;" horiz-adv-x="1447" 
d="M762 1400q137 0 244.5 -32.5t181.5 -94.5t112.5 -152.5t38.5 -206.5q0 -163 -67.5 -277.5t-195.5 -174.5l299 -462h-370l-219 401h-24h-285v-401h-327v1400h612zM762 663q128 0 197.5 60.5t69.5 181.5q0 117 -69.5 175t-197.5 58h-285v-475h285zM812 1519h-290l-217 295
h246l116 -129l116 129h246z" />
    <glyph glyph-name="rcaron" unicode="&#x159;" horiz-adv-x="838" 
d="M146 1075h318v-190q56 99 146 150.5t208 52.5v-288q-78 6 -141 -9.5t-108.5 -49t-72.5 -83.5t-32 -112v-546h-318v1075zM628 1224h-290l-217 295h246l116 -129l116 129h246z" />
    <glyph glyph-name="Sacute" unicode="&#x15a;" horiz-adv-x="1277" 
d="M1081 1012q-48 29 -104 54.5t-113.5 45t-114.5 31t-107 11.5q-30 0 -60.5 -5.5t-55 -19t-40 -36.5t-15.5 -57q0 -50 32 -82.5t84 -56t119 -42t136.5 -41t136.5 -53t119 -77t84 -113.5t32 -163q0 -112 -47.5 -193t-125.5 -133t-177 -76.5t-203 -24.5q-84 0 -168.5 15
t-164.5 44t-154 71t-136 96l130 256q50 -45 111 -83.5t126.5 -67t132.5 -45t127 -16.5q36 0 72.5 7t65 23t46.5 43t18 67q0 51 -32 84t-84 56t-119 41.5t-136.5 40t-136.5 50.5t-119 74.5t-84 111t-32 159.5q0 105 44.5 183.5t119.5 130.5t174 77.5t207 25.5q72 0 144 -10.5
t141 -30t133 -48t120 -64.5zM735 1832l277 -107l-276 -218l-228 20z" />
    <glyph glyph-name="sacute" unicode="&#x15b;" horiz-adv-x="1006" 
d="M833 762q-91 49 -177.5 76t-154.5 27q-52 0 -85 -19.5t-33 -62.5q0 -30 24.5 -50.5t64 -36.5t90.5 -30t104 -31.5t104 -41.5t90.5 -60.5t63.5 -87.5t24 -122q0 -82 -34 -145t-94 -105.5t-141 -64t-174 -21.5q-131 0 -253.5 38t-216.5 113l103 206q43 -32 90 -57t96 -42
t97 -26t93 -9q56 0 93.5 21t37.5 64q0 33 -24 54.5t-63 37.5t-89.5 30t-102.5 31.5t-102 41t-89.5 59t-63 85.5t-23.5 121q0 83 33.5 145.5t91 104.5t135.5 63t168 21q113 0 223 -31t203 -88zM579 1530l277 -107l-276 -218l-228 20z" />
    <glyph glyph-name="Scircumflex" unicode="&#x15c;" horiz-adv-x="1277" 
d="M1081 1012q-48 29 -104 54.5t-113.5 45t-114.5 31t-107 11.5q-30 0 -60.5 -5.5t-55 -19t-40 -36.5t-15.5 -57q0 -50 32 -82.5t84 -56t119 -42t136.5 -41t136.5 -53t119 -77t84 -113.5t32 -163q0 -112 -47.5 -193t-125.5 -133t-177 -76.5t-203 -24.5q-84 0 -168.5 15
t-164.5 44t-154 71t-136 96l130 256q50 -45 111 -83.5t126.5 -67t132.5 -45t127 -16.5q36 0 72.5 7t65 23t46.5 43t18 67q0 51 -32 84t-84 56t-119 41.5t-136.5 40t-136.5 50.5t-119 74.5t-84 111t-32 159.5q0 105 44.5 183.5t119.5 130.5t174 77.5t207 25.5q72 0 144 -10.5
t141 -30t133 -48t120 -64.5zM524 1814h290l217 -295h-246l-116 128l-116 -128h-246z" />
    <glyph glyph-name="scircumflex" unicode="&#x15d;" horiz-adv-x="1006" 
d="M833 762q-91 49 -177.5 76t-154.5 27q-52 0 -85 -19.5t-33 -62.5q0 -30 24.5 -50.5t64 -36.5t90.5 -30t104 -31.5t104 -41.5t90.5 -60.5t63.5 -87.5t24 -122q0 -82 -34 -145t-94 -105.5t-141 -64t-174 -21.5q-131 0 -253.5 38t-216.5 113l103 206q43 -32 90 -57t96 -42
t97 -26t93 -9q56 0 93.5 21t37.5 64q0 33 -24 54.5t-63 37.5t-89.5 30t-102.5 31.5t-102 41t-89.5 59t-63 85.5t-23.5 121q0 83 33.5 145.5t91 104.5t135.5 63t168 21q113 0 223 -31t203 -88zM375 1519h290l217 -295h-246l-116 128l-116 -128h-246z" />
    <glyph glyph-name="Scedilla" unicode="&#x15e;" horiz-adv-x="1277" 
d="M1081 1012q-48 29 -104 54.5t-113.5 45t-114.5 31t-107 11.5q-30 0 -60.5 -5.5t-55 -19t-40 -36.5t-15.5 -57q0 -50 32 -82.5t84 -56t119 -42t136.5 -41t136.5 -53t119 -77t84 -113.5t32 -163q0 -101 -39 -176.5t-104 -127.5t-150.5 -81t-178.5 -38l-21 -57q44 -9 75 -25
t50.5 -37.5t28.5 -47t9 -52.5q0 -48 -20 -83.5t-54.5 -58.5t-79 -34t-94.5 -11q-55 0 -110 11.5t-102 29.5l53 150q23 -10 52 -15t55 -5q38 0 59.5 13t21.5 32q0 23 -29 35.5t-76 12.5h-52l48 144q-144 16 -278 72.5t-240 147.5l130 256q50 -45 111 -83.5t126.5 -67
t132.5 -45t127 -16.5q36 0 72.5 7t65 23t46.5 43t18 67q0 51 -32 84t-84 56t-119 41.5t-136.5 40t-136.5 50.5t-119 74.5t-84 111t-32 159.5q0 105 44.5 183.5t119.5 130.5t174 77.5t207 25.5q72 0 144 -10.5t141 -30t133 -48t120 -64.5z" />
    <glyph glyph-name="scedilla" unicode="&#x15f;" horiz-adv-x="1006" 
d="M833 762q-91 49 -177.5 76t-154.5 27q-52 0 -85 -19.5t-33 -62.5q0 -30 24.5 -50.5t64 -36.5t90.5 -30t104 -31.5t104 -41.5t90.5 -60.5t63.5 -87.5t24 -122q0 -72 -26.5 -129.5t-73.5 -99t-112 -67.5t-142 -35l-25 -64q44 -9 75.5 -25t51 -37.5t28.5 -47t9 -52.5
q0 -48 -20 -83.5t-54.5 -58.5t-79.5 -34t-95 -11q-55 0 -109.5 11.5t-101.5 29.5l52 150q24 -10 52.5 -15t54.5 -5q38 0 59.5 13t21.5 32q0 23 -28.5 35.5t-75.5 12.5h-52l49 150q-105 11 -200.5 48t-170.5 97l103 206q43 -32 90 -57t96 -42t97 -26t93 -9q56 0 93.5 21
t37.5 64q0 33 -24 54.5t-63 37.5t-89.5 30t-102.5 31.5t-102 41t-89.5 59t-63 85.5t-23.5 121q0 83 33.5 145.5t91 104.5t135.5 63t168 21q113 0 223 -31t203 -88z" />
    <glyph glyph-name="Scaron" unicode="&#x160;" horiz-adv-x="1277" 
d="M1081 1012q-48 29 -104 54.5t-113.5 45t-114.5 31t-107 11.5q-30 0 -60.5 -5.5t-55 -19t-40 -36.5t-15.5 -57q0 -50 32 -82.5t84 -56t119 -42t136.5 -41t136.5 -53t119 -77t84 -113.5t32 -163q0 -112 -47.5 -193t-125.5 -133t-177 -76.5t-203 -24.5q-84 0 -168.5 15
t-164.5 44t-154 71t-136 96l130 256q50 -45 111 -83.5t126.5 -67t132.5 -45t127 -16.5q36 0 72.5 7t65 23t46.5 43t18 67q0 51 -32 84t-84 56t-119 41.5t-136.5 40t-136.5 50.5t-119 74.5t-84 111t-32 159.5q0 105 44.5 183.5t119.5 130.5t174 77.5t207 25.5q72 0 144 -10.5
t141 -30t133 -48t120 -64.5zM778 1519h-290l-217 295h246l116 -129l116 129h246z" />
    <glyph glyph-name="scaron" unicode="&#x161;" horiz-adv-x="1006" 
d="M833 762q-91 49 -177.5 76t-154.5 27q-52 0 -85 -19.5t-33 -62.5q0 -30 24.5 -50.5t64 -36.5t90.5 -30t104 -31.5t104 -41.5t90.5 -60.5t63.5 -87.5t24 -122q0 -82 -34 -145t-94 -105.5t-141 -64t-174 -21.5q-131 0 -253.5 38t-216.5 113l103 206q43 -32 90 -57t96 -42
t97 -26t93 -9q56 0 93.5 21t37.5 64q0 33 -24 54.5t-63 37.5t-89.5 30t-102.5 31.5t-102 41t-89.5 59t-63 85.5t-23.5 121q0 83 33.5 145.5t91 104.5t135.5 63t168 21q113 0 223 -31t203 -88zM665 1224h-290l-217 295h246l116 -129l116 129h246z" />
    <glyph glyph-name="uni0162" unicode="&#x162;" horiz-adv-x="1207" 
d="M15 1400h1177v-268h-426v-1132h-75l-27 -72q44 -9 75.5 -25t51 -37.5t28.5 -47t9 -52.5q0 -48 -20.5 -83.5t-54.5 -58.5t-79 -34t-95 -11q-55 0 -109.5 11.5t-102.5 29.5l53 150q24 -10 52.5 -15t54.5 -5q38 0 59.5 13t21.5 32q0 23 -28.5 35.5t-75.5 12.5h-52l51 157
h-64v1132h-424v268z" />
    <glyph glyph-name="uni0163" unicode="&#x163;" horiz-adv-x="856" 
d="M510 1075h290v-212h-290v-493q0 -69 26 -97.5t74 -28.5q38 0 74.5 12t69.5 28l65 -223q-43 -26 -96 -43.5t-110 -25.5l-24 -64q44 -9 75.5 -25t51 -37.5t28.5 -47t9 -52.5q0 -48 -20.5 -83.5t-54.5 -58.5t-79 -34t-95 -11q-55 0 -109.5 11.5t-102.5 29.5l53 150
q24 -10 52.5 -15t54.5 -5q38 0 59.5 13t21.5 32q0 23 -28.5 35.5t-75.5 12.5h-52l51 157q-51 13 -94 39t-74 65.5t-48.5 93t-17.5 120.5v545h-150v212h150v249h316v-249z" />
    <glyph glyph-name="Tcaron" unicode="&#x164;" horiz-adv-x="1207" 
d="M15 1400h1177v-268h-426v-1132h-327v1132h-424v268zM705 1519h-290l-217 295h246l116 -129l116 129h246z" />
    <glyph glyph-name="tcaron" unicode="&#x165;" horiz-adv-x="856" 
d="M510 1075h290v-212h-290v-493q0 -69 26 -97.5t74 -28.5q38 0 74.5 12t69.5 28l65 -223q-60 -36 -133 -55.5t-149 -19.5q-73 0 -136 20.5t-109 62t-72 104t-26 145.5v545h-150v212h150v249h316v-249zM624 1484h248l-52 -345h-196v345z" />
    <glyph glyph-name="Tbar" unicode="&#x166;" horiz-adv-x="1207" 
d="M15 1400h1177v-268h-426v-1132h-327v1132h-424v268zM170 723h863v-174h-863v174z" />
    <glyph glyph-name="tbar" unicode="&#x167;" horiz-adv-x="856" 
d="M44 1075h150v249h316v-249h290v-192h-290v-205h290v-192h-290v-116q0 -69 26 -97.5t74 -28.5q38 0 74.5 12t69.5 28l65 -223q-60 -36 -133 -55.5t-149 -19.5q-73 0 -136 20.5t-109 62t-72 104t-26 145.5v168h-150v192h150v205h-150v192z" />
    <glyph glyph-name="Utilde" unicode="&#x168;" horiz-adv-x="1503" 
d="M452 577q0 -76 22.5 -136t62.5 -102t96 -64.5t123 -22.5q66 0 120.5 22t93 64t59.5 102.5t21 136.5v823h327v-823q0 -138 -43.5 -249t-124.5 -188.5t-196 -119.5t-258 -42q-144 0 -260.5 42t-198.5 119.5t-126 188.5t-44 249v823h326v-823zM1088 1809q0 -67 -10 -122
t-32 -94t-57.5 -60.5t-86.5 -21.5q-44 0 -83 14.5t-72.5 32t-61.5 32t-49 14.5q-32 0 -43.5 -24t-12.5 -63h-187q0 67 10 122t32 94.5t57.5 61t87.5 21.5q44 0 83 -14.5t72.5 -32t61 -32t48.5 -14.5q33 0 44.5 24t12.5 62h186z" />
    <glyph glyph-name="utilde" unicode="&#x169;" horiz-adv-x="1321" 
d="M432 488q0 -103 52.5 -161.5t143.5 -58.5q54 1 96.5 22t72 58t45 87.5t15.5 109.5v530h318v-1075h-318v184q-55 -99 -145.5 -147.5t-211.5 -49.5q-88 0 -159.5 29t-122 82.5t-77.5 130t-27 171.5v675h318v-587zM1015 1498q0 -67 -10 -122t-32 -94t-57.5 -60.5
t-86.5 -21.5q-44 0 -83 14.5t-72.5 32t-61.5 32t-49 14.5q-32 0 -43.5 -24t-12.5 -63h-187q0 67 10 122t32 94.5t57.5 61t87.5 21.5q44 0 83 -14.5t72.5 -32t61 -32t48.5 -14.5q33 0 44.5 24t12.5 62h186z" />
    <glyph glyph-name="Umacron" unicode="&#x16a;" horiz-adv-x="1503" 
d="M452 577q0 -76 22.5 -136t62.5 -102t96 -64.5t123 -22.5q66 0 120.5 22t93 64t59.5 102.5t21 136.5v823h327v-823q0 -138 -43.5 -249t-124.5 -188.5t-196 -119.5t-258 -42q-144 0 -260.5 42t-198.5 119.5t-126 188.5t-44 249v823h326v-823zM417 1711h671v-187h-671v187z
" />
    <glyph glyph-name="umacron" unicode="&#x16b;" horiz-adv-x="1321" 
d="M432 488q0 -103 52.5 -161.5t143.5 -58.5q54 1 96.5 22t72 58t45 87.5t15.5 109.5v530h318v-1075h-318v184q-55 -99 -145.5 -147.5t-211.5 -49.5q-88 0 -159.5 29t-122 82.5t-77.5 130t-27 171.5v675h318v-587zM356 1469h610v-187h-610v187z" />
    <glyph glyph-name="Ubreve" unicode="&#x16c;" horiz-adv-x="1503" 
d="M452 577q0 -76 22.5 -136t62.5 -102t96 -64.5t123 -22.5q66 0 120.5 22t93 64t59.5 102.5t21 136.5v823h327v-823q0 -138 -43.5 -249t-124.5 -188.5t-196 -119.5t-258 -42q-144 0 -260.5 42t-198.5 119.5t-126 188.5t-44 249v823h326v-823zM637 1820q4 -54 35.5 -87.5
t79.5 -33.5t79.5 33.5t35.5 87.5h202q-3 -70 -27.5 -126.5t-66 -96.5t-98.5 -62t-125 -22t-125 22t-98.5 62t-65.5 96.5t-27 126.5h201z" />
    <glyph glyph-name="ubreve" unicode="&#x16d;" horiz-adv-x="1321" 
d="M432 488q0 -103 52.5 -161.5t143.5 -58.5q54 1 96.5 22t72 58t45 87.5t15.5 109.5v530h318v-1075h-318v184q-55 -99 -145.5 -147.5t-211.5 -49.5q-88 0 -159.5 29t-122 82.5t-77.5 130t-27 171.5v675h318v-587zM546 1513q4 -54 35.5 -87.5t79.5 -33.5t79.5 33.5
t35.5 87.5h202q-3 -70 -27.5 -126.5t-66 -96.5t-98.5 -62t-125 -22t-125 22t-98.5 62t-65.5 96.5t-27 126.5h201z" />
    <glyph glyph-name="Uring" unicode="&#x16e;" horiz-adv-x="1503" 
d="M452 577q0 -76 22.5 -136t62.5 -102t96 -64.5t123 -22.5q66 0 120.5 22t93 64t59.5 102.5t21 136.5v823h327v-823q0 -138 -43.5 -249t-124.5 -188.5t-196 -119.5t-258 -42q-144 0 -260.5 42t-198.5 119.5t-126 188.5t-44 249v823h326v-823zM752 1945q48 0 90.5 -18
t74 -49.5t49.5 -73.5t18 -89q0 -48 -18 -90t-49.5 -73.5t-74 -49.5t-90.5 -18t-90.5 18t-74 49.5t-50 73.5t-18.5 90q0 47 18.5 89t50 73.5t74 49.5t90.5 18zM752 1806q-19 0 -36 -7t-30 -19.5t-20.5 -29t-7.5 -35.5t7.5 -36t20.5 -29.5t30 -19.5t36 -7t36 7t29.5 19.5
t20 29.5t7.5 36t-7.5 35.5t-20 29t-29.5 19.5t-36 7z" />
    <glyph glyph-name="uring" unicode="&#x16f;" horiz-adv-x="1321" 
d="M432 488q0 -103 52.5 -161.5t143.5 -58.5q54 1 96.5 22t72 58t45 87.5t15.5 109.5v530h318v-1075h-318v184q-55 -99 -145.5 -147.5t-211.5 -49.5q-88 0 -159.5 29t-122 82.5t-77.5 130t-27 171.5v675h318v-587zM661 1619q48 0 90.5 -18t74 -49.5t49.5 -73.5t18 -89
q0 -48 -18 -90t-49.5 -73.5t-74 -49.5t-90.5 -18t-90.5 18t-74 49.5t-50 73.5t-18.5 90q0 47 18.5 89t50 73.5t74 49.5t90.5 18zM661 1480q-19 0 -36 -7t-30 -19.5t-20.5 -29t-7.5 -35.5t7.5 -36t20.5 -29.5t30 -19.5t36 -7t36 7t29.5 19.5t20 29.5t7.5 36t-7.5 35.5t-20 29
t-29.5 19.5t-36 7z" />
    <glyph glyph-name="Uhungarumlaut" unicode="&#x170;" horiz-adv-x="1503" 
d="M452 577q0 -76 22.5 -136t62.5 -102t96 -64.5t123 -22.5q66 0 120.5 22t93 64t59.5 102.5t21 136.5v823h327v-823q0 -138 -43.5 -249t-124.5 -188.5t-196 -119.5t-258 -42q-144 0 -260.5 42t-198.5 119.5t-126 188.5t-44 249v823h326v-823zM578 1840l247 -95l-181 -238
l-226 19zM953 1840l247 -95l-181 -238l-226 19z" />
    <glyph glyph-name="uhungarumlaut" unicode="&#x171;" horiz-adv-x="1321" 
d="M432 488q0 -103 52.5 -161.5t143.5 -58.5q54 1 96.5 22t72 58t45 87.5t15.5 109.5v530h318v-1075h-318v184q-55 -99 -145.5 -147.5t-211.5 -49.5q-88 0 -159.5 29t-122 82.5t-77.5 130t-27 171.5v675h318v-587zM487 1538l247 -95l-181 -238l-226 19zM862 1538l247 -95
l-181 -238l-226 19z" />
    <glyph glyph-name="Uogonek" unicode="&#x172;" horiz-adv-x="1503" 
d="M452 577q0 -76 22.5 -136t62.5 -102t96 -64.5t123 -22.5q66 0 120.5 22t93 64t59.5 102.5t21 136.5v823h327v-823q0 -138 -43.5 -249t-124.5 -188.5t-196 -119.5t-258 -42q-144 0 -260.5 42t-198.5 119.5t-126 188.5t-44 249v823h326v-823zM1178 114q-39 -35 -71.5 -75.5
t-56 -81t-37 -79.5t-13.5 -70q0 -63 48 -63q14 0 29.5 4t29.5 12l57 -174q-45 -20 -91 -31.5t-93 -11.5q-49 0 -90 13.5t-70.5 40.5t-46 67t-16.5 93q0 51 17.5 100.5t54.5 99t95 101.5t138 107z" />
    <glyph glyph-name="uogonek" unicode="&#x173;" horiz-adv-x="1321" 
d="M432 488q0 -103 52.5 -161.5t143.5 -58.5q54 1 96.5 22t72 58t45 87.5t15.5 109.5v530h318v-1075h-318v184q-55 -99 -145.5 -147.5t-211.5 -49.5q-88 0 -159.5 29t-122 82.5t-77.5 130t-27 171.5v675h318v-587zM1125 0q-79 -59 -119 -106.5t-40 -93.5q0 -29 12.5 -42
t34.5 -13q12 0 28 4t31 12l58 -174q-45 -20 -93 -31.5t-95 -11.5q-104 0 -162 54.5t-58 147.5q0 81 50 166.5t168 165.5z" />
    <glyph glyph-name="Wcircumflex" unicode="&#x174;" horiz-adv-x="2195" 
d="M0 1400h350l298 -1064l297 1064h320l300 -1064l295 1064h336l-474 -1400h-337l-287 1006l-292 -1006h-336zM953 1814h290l217 -295h-246l-116 128l-116 -128h-246z" />
    <glyph glyph-name="wcircumflex" unicode="&#x175;" horiz-adv-x="1853" 
d="M-7 1075h324l235 -771l228 771h310l231 -771l232 771h314l-393 -1075h-318l-225 713l-227 -713h-317zM787 1519h290l217 -295h-246l-116 128l-116 -128h-246z" />
    <glyph glyph-name="Ycircumflex" unicode="&#x176;" horiz-adv-x="1339" 
d="M511 450l-518 950h327l353 -631l344 631h329l-509 -941v-459h-326v450zM524 1814h290l217 -295h-246l-116 128l-116 -128h-246z" />
    <glyph glyph-name="ycircumflex" unicode="&#x177;" horiz-adv-x="1136" 
d="M680 -120q-57 -143 -157 -212.5t-243 -69.5q-87 0 -158 25t-140 79l134 220q37 -29 70 -42.5t71 -13.5q95 0 140 95l28 61l-445 1053h327l277 -742l249 742h317zM426 1519h290l217 -295h-246l-116 128l-116 -128h-246z" />
    <glyph glyph-name="Ydieresis" unicode="&#x178;" horiz-adv-x="1339" 
d="M511 450l-518 950h327l353 -631l344 631h329l-509 -941v-459h-326v450zM482 1799q31 0 57.5 -10.5t45.5 -29.5t29.5 -45t10.5 -58q0 -31 -10.5 -57t-29.5 -45.5t-45.5 -30.5t-57.5 -11t-57.5 11t-45.5 30.5t-29.5 45.5t-10.5 57q0 32 10.5 58t29.5 45t45.5 29.5
t57.5 10.5zM858 1799q31 0 57 -10.5t45 -29.5t29.5 -45t10.5 -58q0 -31 -10.5 -57t-29.5 -45.5t-45 -30.5t-57 -11t-57.5 11t-46 30.5t-30 45.5t-10.5 57q0 32 10.5 58t30 45t46 29.5t57.5 10.5z" />
    <glyph glyph-name="Zacute" unicode="&#x179;" horiz-adv-x="1345" 
d="M86 1400h1186v-212l-773 -925h784v-263h-1223v212l774 924h-748v264zM745 1832l277 -107l-276 -218l-228 20z" />
    <glyph glyph-name="zacute" unicode="&#x17a;" horiz-adv-x="1099" 
d="M93 1075l926 -1v-194l-547 -640h566v-241l-964 1v194l547 640l-528 1v240zM632 1530l277 -107l-276 -218l-228 20z" />
    <glyph glyph-name="Zdotaccent" unicode="&#x17b;" horiz-adv-x="1345" 
d="M86 1400h1186v-212l-773 -925h784v-263h-1223v212l774 924h-748v264zM679 1856q37 0 68.5 -13t54.5 -35.5t36 -54t13 -69.5q0 -37 -13 -68.5t-36 -54.5t-54.5 -36t-68.5 -13t-68.5 13t-54.5 36t-36 54.5t-13 68.5q0 38 13 69.5t36 54t54.5 35.5t68.5 13z" />
    <glyph glyph-name="zdotaccent" unicode="&#x17c;" horiz-adv-x="1099" 
d="M93 1075l926 -1v-194l-547 -640h566v-241l-964 1v194l547 640l-528 1v240zM553 1554q37 0 68.5 -13t54 -35.5t35.5 -54t13 -69.5q0 -37 -13 -68.5t-35.5 -54.5t-54 -36t-68.5 -13t-68.5 13t-54.5 36t-36 54.5t-13 68.5q0 38 13 69.5t36 54t54.5 35.5t68.5 13z" />
    <glyph glyph-name="Zcaron" unicode="&#x17d;" horiz-adv-x="1345" 
d="M86 1400h1186v-212l-773 -925h784v-263h-1223v212l774 924h-748v264zM788 1519h-290l-217 295h246l116 -129l116 129h246z" />
    <glyph glyph-name="zcaron" unicode="&#x17e;" horiz-adv-x="1099" 
d="M93 1075l926 -1v-194l-547 -640h566v-241l-964 1v194l547 640l-528 1v240zM700 1224h-290l-217 295h246l116 -129l116 129h246z" />
    <glyph glyph-name="longs" unicode="&#x17f;" horiz-adv-x="823" 
d="M204 863h-144v212h144v101q0 91 31.5 160t86.5 115.5t128 70t156 23.5q54 0 109.5 -12t104.5 -32l-46 -239q-30 11 -62 20.5t-64 9.5q-54 0 -91 -30.5t-37 -95.5v-1166h-316v863z" />
    <glyph glyph-name="uni018F" unicode="&#x18f;" horiz-adv-x="1575" 
d="M788 -22q-164 0 -299 58t-231 163t-149 251.5t-53 323.5h1124q-10 81 -44 149.5t-85.5 118t-117.5 77t-141 27.5q-53 0 -103 -13t-94.5 -38t-82 -60t-66.5 -79l-229 223q105 113 246 177t325 64q104 0 198 -25t174.5 -70.5t146 -110t111.5 -144.5t71 -173t25 -195
q0 -154 -55 -286t-152.5 -229.5t-230.5 -153t-288 -55.5zM792 252q69 0 129.5 21.5t109 61t83.5 95t53 122.5h-756q19 -67 54 -122.5t84 -95t110.5 -61t132.5 -21.5z" />
    <glyph glyph-name="florin" unicode="&#x192;" horiz-adv-x="802" 
d="M510 726l-95 -778q-10 -80 -42.5 -145t-84.5 -111t-122 -70.5t-156 -23.5q-32 0 -65 6t-64.5 16t-59.5 24t-49 31l81 219q23 -20 58 -34t66 -14q56 0 87.5 40.5t40.5 108.5l89 731h-143l25 204h143l28 224q10 80 44.5 145t89.5 111t127 70.5t157 23.5q78 -1 155 -21.5
t130 -55.5l-108 -219q-26 20 -62.5 34t-69.5 14q-62 0 -103.5 -40t-50.5 -108l-21 -178h252l-24 -204h-253z" />
    <glyph glyph-name="Ohorn" unicode="&#x1a0;" horiz-adv-x="1666" 
d="M806 1420q161 0 298.5 -54.5t238 -151t158 -228t57.5 -284.5q0 -102 -26 -195.5t-74 -174t-115.5 -146t-151 -112t-181 -71.5t-204.5 -25q-161 0 -299 55.5t-239 152.5t-158 229.5t-57 286.5t57 285.5t158 227.5t239 150.5t299 54.5zM809 1146q-86 0 -163 -34t-134.5 -94
t-91 -141t-33.5 -175q0 -95 34 -177t91.5 -143t134.5 -95.5t162 -34.5q86 0 161.5 34.5t131.5 95.5t88.5 143t32.5 177q0 94 -32.5 175t-88.5 141t-131.5 94t-161.5 34zM1523 1690q54 -103 55 -198.5t-42 -168t-124.5 -116t-191.5 -43.5q-46 0 -71 1t-45 3l23 188
q17 -8 36.5 -13t41.5 -5q47 0 76 26t39 65.5t1 86.5t-39 90z" />
    <glyph glyph-name="ohorn" unicode="&#x1a1;" horiz-adv-x="1345" 
d="M635 1086q130 0 237 -39.5t183 -111.5t117.5 -173t41.5 -224t-41.5 -224t-117.5 -173.5t-183 -112t-237 -39.5q-131 0 -238 39.5t-183.5 112t-118 173.5t-41.5 224t41.5 224t118 173t183.5 111.5t238 39.5zM635 832q-58 0 -106 -21.5t-82.5 -61t-53.5 -94t-19 -120.5
q0 -67 19 -122t53.5 -94.5t82.5 -61t106 -21.5t105.5 21.5t82 61t53.5 94.5t19 122q0 66 -19 120.5t-53.5 94t-82 61t-105.5 21.5zM1310 1363q54 -103 55 -198.5t-42 -168t-124.5 -116t-191.5 -43.5q-46 0 -71 1t-45 3l23 188q17 -8 36.5 -13t41.5 -5q47 0 76 26t39 65.5
t1 86.5t-39 90z" />
    <glyph glyph-name="Uhorn" unicode="&#x1af;" horiz-adv-x="1588" 
d="M452 577q0 -76 22.5 -136t62.5 -102t96 -64.5t123 -22.5q66 0 120.5 22t93 64t59.5 102.5t21 136.5v823h327v-823q0 -138 -43.5 -249t-124.5 -188.5t-196 -119.5t-258 -42q-144 0 -260.5 42t-198.5 119.5t-126 188.5t-44 249v823h326v-823zM1577 1690q44 -106 42.5 -191
t-45 -145t-127 -92t-203.5 -32l16 171q51 0 79 18.5t37.5 48.5t2 67t-28.5 73z" />
    <glyph glyph-name="uhorn" unicode="&#x1b0;" horiz-adv-x="1357" 
d="M432 488q0 -103 52.5 -161.5t143.5 -58.5q54 1 96.5 22t72 58t45 87.5t15.5 109.5v530h318v-1075h-318v184q-55 -99 -145.5 -147.5t-211.5 -49.5q-88 0 -159.5 29t-122 82.5t-77.5 130t-27 171.5v675h318v-587zM1351 1364q44 -106 42.5 -191t-45 -145t-127 -92
t-203.5 -32l16 171q51 0 79 18.5t37.5 48.5t2 67t-28.5 73z" />
    <glyph glyph-name="uni01C4" unicode="&#x1c4;" horiz-adv-x="2881" 
d="M745 1400q164 0 299.5 -51.5t233.5 -144t152 -221t54 -283.5q0 -154 -54.5 -283t-153.5 -221.5t-237 -144t-305 -51.5h-584v1400h595zM753 265q87 0 160 31.5t126 88.5t82.5 137t29.5 176q0 97 -31 177.5t-86 138t-131 89.5t-165 32h-261v-870h276zM1622 1400h1186v-212
l-773 -925h784v-263h-1223v212l774 924h-748v264zM2324 1519h-290l-217 295h246l116 -129l116 129h246z" />
    <glyph glyph-name="uni01C5" unicode="&#x1c5;" horiz-adv-x="2634" 
d="M745 1400q164 0 299.5 -51.5t233.5 -144t152 -221t54 -283.5q0 -154 -54.5 -283t-153.5 -221.5t-237 -144t-305 -51.5h-584v1400h595zM753 265q87 0 160 31.5t126 88.5t82.5 137t29.5 176q0 97 -31 177.5t-86 138t-131 89.5t-165 32h-261v-870h276zM1629 1075l926 -1
v-194l-547 -640h566v-241l-964 1v194l547 640l-528 1v240zM2236 1224h-290l-217 295h246l116 -129l116 129h246z" />
    <glyph glyph-name="uni01C6" unicode="&#x1c6;" horiz-adv-x="2469" 
d="M896 151q-57 -79 -141.5 -121t-193.5 -42q-114 0 -207.5 40t-160 112.5t-103 175t-36.5 226.5q0 123 36 223.5t101.5 172t158 110.5t204.5 39t198 -42.5t144 -122.5v562h318v-1484h-318v151zM636 833q-58 0 -106 -22t-82.5 -61.5t-54 -94.5t-19.5 -121t19 -121
t53.5 -94.5t83 -61.5t106.5 -22t105.5 22t82 61.5t53.5 94.5t19 121t-19 121t-53.5 94.5t-82 61.5t-105.5 22zM1463 1075l926 -1v-194l-547 -640h566v-241l-964 1v194l547 640l-528 1v240zM2070 1224h-290l-217 295h246l116 -129l116 129h246z" />
    <glyph glyph-name="uni01C7" unicode="&#x1c7;" horiz-adv-x="2160" 
d="M150 1400h327v-1125h597v-275h-924v1400zM2036 447q0 -110 -33 -195.5t-94.5 -144.5t-149 -90t-196.5 -31q-143 0 -259 57t-206 161l151 222q75 -78 153 -116.5t143 -38.5q76 0 119 46.5t43 137.5v945h329v-953z" />
    <glyph glyph-name="uni01C8" unicode="&#x1c8;" horiz-adv-x="1709" 
d="M150 1400h327v-1125h597v-275h-924v1400zM1047 -135q22 -7 45 -12t46 -5q58 0 88 39.5t30 115.5v1072h318v-1119q0 -84 -25.5 -150.5t-73.5 -112.5t-116 -70t-154 -23q-123 2 -222 41zM1411 1554q37 0 68.5 -13t54 -35.5t35.5 -54t13 -69.5q0 -37 -13 -68.5t-35.5 -54.5
t-54 -36t-68.5 -13t-68.5 13t-54.5 36t-36 54.5t-13 68.5q0 38 13 69.5t36 54t54.5 35.5t68.5 13z" />
    <glyph glyph-name="uni01C9" unicode="&#x1c9;" horiz-adv-x="1272" 
d="M444 374q0 -60 26.5 -88t69.5 -28q24 0 49.5 8.5t53.5 22.5l30 -254q-51 -24 -103 -37t-102 -13q-69 0 -131 23t-108.5 68.5t-74 115t-27.5 162.5v1130h317v-1110zM610 -135q22 -7 45 -12t46 -5q58 0 88 39.5t30 115.5v1072h318v-1119q0 -84 -25.5 -150.5t-73.5 -112.5
t-116 -70t-154 -23q-123 2 -222 41zM974 1554q37 0 68.5 -13t54 -35.5t35.5 -54t13 -69.5q0 -37 -13 -68.5t-35.5 -54.5t-54 -36t-68.5 -13t-68.5 13t-54.5 36t-36 54.5t-13 68.5q0 38 13 69.5t36 54t54.5 35.5t68.5 13z" />
    <glyph glyph-name="uni01CA" unicode="&#x1ca;" horiz-adv-x="2628" 
d="M150 1400h294l672 -903v903h307v-1400h-295l-668 898v-898h-310v1400zM2503 447q0 -110 -33 -195.5t-94.5 -144.5t-149 -90t-196.5 -31q-143 0 -259 57t-206 161l151 222q75 -78 153 -116.5t143 -38.5q76 0 119 46.5t43 137.5v945h329v-953z" />
    <glyph glyph-name="uni01CB" unicode="&#x1cb;" horiz-adv-x="2176" 
d="M150 1400h294l672 -903v903h307v-1400h-295l-668 898v-898h-310v1400zM1514 -135q22 -7 45 -12t46 -5q58 0 88 39.5t30 115.5v1072h318v-1119q0 -84 -25.5 -150.5t-73.5 -112.5t-116 -70t-154 -23q-123 2 -222 41zM1878 1554q37 0 68.5 -13t54 -35.5t35.5 -54t13 -69.5
q0 -37 -13 -68.5t-35.5 -54.5t-54 -36t-68.5 -13t-68.5 13t-54.5 36t-36 54.5t-13 68.5q0 38 13 69.5t36 54t54.5 35.5t68.5 13z" />
    <glyph glyph-name="uni01CC" unicode="&#x1cc;" horiz-adv-x="1943" 
d="M908 587q0 103 -54.5 161.5t-150.5 58.5q-52 0 -94.5 -18.5t-73 -51t-49 -77.5t-22.5 -99v-561h-318v1075h318v-184q57 100 150 148t218 49q90 0 163 -29t124.5 -82.5t79 -130t27.5 -171.5v-675h-318v587zM1281 -135q22 -7 45 -12t46 -5q58 0 88 39.5t30 115.5v1072h318
v-1119q0 -84 -25.5 -150.5t-73.5 -112.5t-116 -70t-154 -23q-123 2 -222 41zM1645 1554q37 0 68.5 -13t54 -35.5t35.5 -54t13 -69.5q0 -37 -13 -68.5t-35.5 -54.5t-54 -36t-68.5 -13t-68.5 13t-54.5 36t-36 54.5t-13 68.5q0 38 13 69.5t36 54t54.5 35.5t68.5 13z" />
    <glyph glyph-name="Gcaron" unicode="&#x1e6;" horiz-adv-x="1488" 
d="M1199 990q-39 37 -84.5 66t-94.5 49.5t-100.5 31.5t-101.5 11q-91 0 -170 -34.5t-137 -94.5t-91 -141.5t-33 -175.5q0 -96 33.5 -178t92 -142.5t137.5 -95t171 -34.5q58 0 125 19t132 52v242h-368v248h660v-651q-55 -41 -124 -75t-144 -58t-152.5 -37.5t-151.5 -13.5
q-106 0 -202.5 25t-179 71.5t-150 111.5t-115 145.5t-73 174t-25.5 196.5q0 102 26.5 195t75 173t117.5 145t154 110.5t184.5 70.5t208.5 25q78 0 155.5 -14.5t151 -41.5t139 -65t119.5 -86zM901 1520h-290l-217 295h246l116 -129l116 129h246z" />
    <glyph glyph-name="gcaron" unicode="&#x1e7;" horiz-adv-x="1291" 
d="M1159 100q0 -115 -41.5 -207.5t-117 -157.5t-182 -100t-235.5 -35q-139 0 -258.5 39t-213.5 102l116 216q74 -53 158.5 -81t175.5 -28q65 0 117.5 17t89 48.5t56 76.5t19.5 101v118q-54 -74 -134.5 -113.5t-186.5 -39.5q-103 0 -189.5 37.5t-148 106t-96 164t-34.5 212.5
q0 114 33.5 208t94.5 161t145.5 104t186.5 37q109 1 191.5 -39t137.5 -115v143h316v-975zM598 848q-55 0 -100 -20.5t-77.5 -57.5t-50.5 -88.5t-18 -113.5t18 -113.5t50.5 -88.5t77.5 -57.5t100 -20.5q54 0 99.5 20.5t77.5 57.5t50 88.5t18 113.5t-18 113.5t-50 88.5
t-77.5 57.5t-99.5 20.5zM761 1224h-290l-217 295h246l116 -129l116 129h246z" />
    <glyph glyph-name="uni01EA" unicode="&#x1ea;" horiz-adv-x="1611" 
d="M806 1420q161 0 298.5 -54.5t238 -151t158 -228t57.5 -284.5q0 -102 -26 -195.5t-74 -174t-115.5 -146t-151 -112t-181 -71.5t-204.5 -25q-161 0 -299 55.5t-239 152.5t-158 229.5t-57 286.5t57 285.5t158 227.5t239 150.5t299 54.5zM809 1146q-86 0 -163 -34t-134.5 -94
t-91 -141t-33.5 -175q0 -95 34 -177t91.5 -143t134.5 -95.5t162 -34.5q86 0 161.5 34.5t131.5 95.5t88.5 143t32.5 177q0 94 -32.5 175t-88.5 141t-131.5 94t-161.5 34zM1243 114q-39 -35 -71.5 -75.5t-56 -81t-37 -79.5t-13.5 -70q0 -63 48 -63q14 0 29.5 4t29.5 12
l57 -174q-45 -20 -91 -31.5t-93 -11.5q-49 0 -90 13.5t-70.5 40.5t-46 67t-16.5 93q0 51 17.5 100.5t54.5 99t95 101.5t138 107z" />
    <glyph glyph-name="uni01EB" unicode="&#x1eb;" 
d="M635 1086q130 0 237 -39.5t183 -111.5t117.5 -173t41.5 -224t-41.5 -224t-117.5 -173.5t-183 -112t-237 -39.5q-131 0 -238 39.5t-183.5 112t-118 173.5t-41.5 224t41.5 224t118 173t183.5 111.5t238 39.5zM635 832q-58 0 -106 -21.5t-82.5 -61t-53.5 -94t-19 -120.5
q0 -67 19 -122t53.5 -94.5t82.5 -61t106 -21.5t105.5 21.5t82 61t53.5 94.5t19 122q0 66 -19 120.5t-53.5 94t-82 61t-105.5 21.5zM1023 114q-39 -35 -71.5 -75.5t-56 -81t-37 -79.5t-13.5 -70q0 -63 48 -63q14 0 29.5 4t29.5 12l57 -174q-45 -20 -91 -31.5t-93 -11.5
q-49 0 -90 13.5t-70.5 40.5t-46 67t-16.5 93q0 51 17.5 100.5t54.5 99t95 101.5t138 107z" />
    <glyph glyph-name="Aringacute" unicode="&#x1fa;" horiz-adv-x="1524" 
d="M595 1387q-30 32 -47 72.5t-17 87.5q0 48 18.5 90.5t50.5 74t74.5 50t91.5 18.5h12t12 -1l162 147l232 -142l-217 -116q16 -26 25 -57t9 -64q0 -45 -16 -85t-45 -72l591 -1390h-349l-108 274h-634l-109 -274h-338zM974 526l-216 547l-218 -547h434zM766 1639
q-19 0 -36.5 -7.5t-30.5 -20t-20.5 -29t-7.5 -35.5t7.5 -36t20.5 -30t30.5 -20t36.5 -7q20 0 37 7t30 20t20.5 30t7.5 36t-7.5 35.5t-20.5 29t-30 20t-37 7.5z" />
    <glyph glyph-name="aringacute" unicode="&#x1fb;" horiz-adv-x="1194" 
d="M766 125q-54 -69 -138 -104t-196 -35q-87 0 -155.5 25t-116.5 70t-73.5 106.5t-25.5 134.5q0 75 27 135t79 102t129 64.5t176 22.5h293v20q0 86 -55.5 134t-164.5 48q-71 0 -153.5 -24t-167.5 -70l-97 208q61 31 119.5 54.5t117.5 39.5t121.5 24t132.5 8
q109 0 194.5 -26.5t144 -76t89.5 -121t32 -162.5l1 -702h-313v125zM523 206q47 0 88 12.5t73 34.5t53.5 52.5t28.5 66.5v92h-236q-87 0 -128.5 -29t-41.5 -93q0 -63 43 -99.5t120 -36.5zM594 1619q48 0 90.5 -18t74 -49.5t49.5 -73.5t18 -89q0 -48 -18 -90t-49.5 -73.5
t-74 -49.5t-90.5 -18t-90 18t-73.5 49.5t-50 73.5t-18.5 90q0 47 18.5 89t50 73.5t73.5 49.5t90 18zM594 1480q-19 0 -36 -7t-30 -19.5t-20.5 -29t-7.5 -35.5t7.5 -36t20.5 -29.5t30 -19.5t36 -7t36 7t30 19.5t20.5 29.5t7.5 36t-7.5 35.5t-20.5 29t-30 19.5t-36 7z
M684 1968l229 -139l-304 -163l-198 53z" />
    <glyph glyph-name="AEacute" unicode="&#x1fc;" horiz-adv-x="2177" 
d="M990 309h-492l-166 -309h-339l799 1400h1271v-262h-747v-305h674v-261h-674v-310h769v-262h-1095v309zM990 547v602h-42l-322 -602h364zM1447 1831l277 -107l-276 -218l-228 20z" />
    <glyph glyph-name="aeacute" unicode="&#x1fd;" horiz-adv-x="1936" 
d="M448 -15q-89 0 -160.5 23.5t-122 67t-77.5 104.5t-27 136q0 150 106 233t307 85h296v41q0 84 -58.5 128.5t-163.5 44.5q-75 0 -164 -24t-182 -70l-75 213q128 60 252.5 90.5t239.5 30.5q121 0 213.5 -33.5t150.5 -98.5q66 63 154.5 96.5t194.5 33.5q132 0 237 -45.5
t177 -128t107.5 -198t29.5 -255.5h-796v-13q0 -46 24 -86.5t63.5 -69.5t90 -46t103.5 -17q75 0 144 29t125 86l168 -165q-85 -92 -202 -140t-262 -48q-155 0 -269 61t-178 173q-63 -117 -175.5 -177.5t-270.5 -60.5zM525 193q82 0 144 37.5t101 112.5v118h-232
q-86 0 -132 -27.5t-46 -91.5q0 -68 44.5 -108.5t120.5 -40.5zM1335 870q-49 0 -92.5 -16t-77.5 -47t-54.5 -75t-22.5 -100h477q0 55 -17.5 99t-48 75t-72.5 47.5t-92 16.5zM1048 1530l277 -107l-276 -218l-228 20z" />
    <glyph glyph-name="Oslashacute" unicode="&#x1fe;" horiz-adv-x="1611" 
d="M335 132q-65 48 -117.5 109.5t-89 133.5t-56 153t-19.5 169q0 152 57 282t158 225t239 148.5t299 53.5q81 0 156.5 -14.5t144.5 -40.5l101 158h221l-157 -248q66 -48 119 -109t90 -132.5t57 -153t20 -169.5q0 -101 -26 -193.5t-74 -171.5t-115.5 -143.5t-151 -110
t-181 -70.5t-204.5 -25q-166 0 -308 58l-96 -151h-220zM809 1132q-86 0 -163 -33t-134.5 -91.5t-91 -138.5t-33.5 -173q0 -88 30.5 -165t84.5 -136l450 711q-34 12 -69.5 19t-73.5 7zM1223 696q0 91 -31 169t-85 136l-453 -713q76 -31 155 -31q86 0 161.5 34t131.5 93
t88.5 139t32.5 173zM888 1832l277 -107l-276 -218l-228 20z" />
    <glyph glyph-name="oslashacute" unicode="&#x1ff;" 
d="M258 103q-97 73 -150.5 184t-53.5 251q0 123 41.5 224t118 173t183.5 111.5t238 39.5q72 0 137 -12.5t122 -35.5l146 216h169l-194 -285q95 -72 147 -181.5t52 -249.5q0 -123 -41.5 -224t-117.5 -173.5t-183 -112t-237 -39.5q-140 0 -255 46l-146 -214h-169zM635 857
q-63 0 -114.5 -23t-88.5 -65.5t-57.5 -102t-20.5 -131.5q0 -62 15 -114t41 -93l343 504q-55 25 -118 25zM915 535q0 61 -14.5 112.5t-41.5 91.5l-343 -503q54 -26 119 -26q62 0 113.5 23.5t88.5 66.5t57.5 102.5t20.5 132.5zM730 1530l277 -107l-276 -218l-228 20z" />
    <glyph glyph-name="uni0200" unicode="&#x200;" horiz-adv-x="1524" 
d="M600 1400h336l595 -1400h-349l-108 274h-634l-109 -274h-338zM974 526l-216 547l-218 -547h434zM555 1837l159 -314l-224 -19l-182 238zM930 1837l159 -314l-225 -19l-181 238z" />
    <glyph glyph-name="uni0201" unicode="&#x201;" horiz-adv-x="1194" 
d="M766 125q-54 -69 -138 -104t-196 -35q-87 0 -155.5 25t-116.5 70t-73.5 106.5t-25.5 134.5q0 75 27 135t79 102t129 64.5t176 22.5h293v20q0 86 -55.5 134t-164.5 48q-71 0 -153.5 -24t-167.5 -70l-97 208q61 31 119.5 54.5t117.5 39.5t121.5 24t132.5 8
q109 0 194.5 -26.5t144 -76t89.5 -121t32 -162.5l1 -702h-313v125zM523 206q47 0 88 12.5t73 34.5t53.5 52.5t28.5 66.5v92h-236q-87 0 -128.5 -29t-41.5 -93q0 -63 43 -99.5t120 -36.5zM405 1538l159 -314l-224 -19l-182 238zM780 1538l159 -314l-225 -19l-181 238z" />
    <glyph glyph-name="uni0202" unicode="&#x202;" horiz-adv-x="1524" 
d="M600 1400h336l595 -1400h-349l-108 274h-634l-109 -274h-338zM974 526l-216 547l-218 -547h434zM445 1518q3 69 27 126t65.5 97t98.5 62t125 22t125 -22t98.5 -62t66 -97t27.5 -126h-202q-4 53 -35.5 86.5t-79.5 33.5t-79.5 -33.5t-35.5 -86.5h-201z" />
    <glyph glyph-name="uni0203" unicode="&#x203;" horiz-adv-x="1194" 
d="M766 125q-54 -69 -138 -104t-196 -35q-87 0 -155.5 25t-116.5 70t-73.5 106.5t-25.5 134.5q0 75 27 135t79 102t129 64.5t176 22.5h293v20q0 86 -55.5 134t-164.5 48q-71 0 -153.5 -24t-167.5 -70l-97 208q61 31 119.5 54.5t117.5 39.5t121.5 24t132.5 8
q109 0 194.5 -26.5t144 -76t89.5 -121t32 -162.5l1 -702h-313v125zM523 206q47 0 88 12.5t73 34.5t53.5 52.5t28.5 66.5v92h-236q-87 0 -128.5 -29t-41.5 -93q0 -63 43 -99.5t120 -36.5zM296 1206q3 69 27 126t65.5 97t98.5 62t125 22t125 -22t98.5 -62t66 -97t27.5 -126
h-202q-4 53 -35.5 86.5t-79.5 33.5t-79.5 -33.5t-35.5 -86.5h-201z" />
    <glyph glyph-name="uni0204" unicode="&#x204;" horiz-adv-x="1338" 
d="M150 1400h1074v-262h-747v-305h673v-261h-673v-310h769v-262h-1096v1400zM491 1838l159 -314l-224 -19l-182 238zM866 1838l159 -314l-225 -19l-181 238z" />
    <glyph glyph-name="uni0205" unicode="&#x205;" horiz-adv-x="1197" 
d="M374 445q26 -104 97.5 -161t174.5 -57q75 0 143.5 29t124.5 86l167 -165q-82 -91 -198.5 -139.5t-263.5 -48.5q-130 0 -234.5 39.5t-178 111t-113 172t-39.5 223.5q0 124 40.5 225.5t114 173.5t175.5 112t226 40q142 0 246.5 -45t171 -128.5t95.5 -202t19 -265.5h-768z
M613 860q-49 0 -90.5 -16.5t-73 -47.5t-52.5 -74t-30 -96h475q-1 54 -17.5 97t-46.5 73.5t-72 47t-93 16.5zM393 1538l159 -314l-224 -19l-182 238zM768 1538l159 -314l-225 -19l-181 238z" />
    <glyph glyph-name="uni0206" unicode="&#x206;" horiz-adv-x="1338" 
d="M150 1400h1074v-262h-747v-305h673v-261h-673v-310h769v-262h-1096v1400zM382 1519q3 69 27 126t65.5 97t98.5 62t125 22t125 -22t98.5 -62t66 -97t27.5 -126h-202q-4 53 -35.5 86.5t-79.5 33.5t-79.5 -33.5t-35.5 -86.5h-201z" />
    <glyph glyph-name="uni0207" unicode="&#x207;" horiz-adv-x="1197" 
d="M374 445q26 -104 97.5 -161t174.5 -57q75 0 143.5 29t124.5 86l167 -165q-82 -91 -198.5 -139.5t-263.5 -48.5q-130 0 -234.5 39.5t-178 111t-113 172t-39.5 223.5q0 124 40.5 225.5t114 173.5t175.5 112t226 40q142 0 246.5 -45t171 -128.5t95.5 -202t19 -265.5h-768z
M613 860q-49 0 -90.5 -16.5t-73 -47.5t-52.5 -74t-30 -96h475q-1 54 -17.5 97t-46.5 73.5t-72 47t-93 16.5zM284 1206q3 69 27 126t65.5 97t98.5 62t125 22t125 -22t98.5 -62t66 -97t27.5 -126h-202q-4 53 -35.5 86.5t-79.5 33.5t-79.5 -33.5t-35.5 -86.5h-201z" />
    <glyph glyph-name="uni0208" unicode="&#x208;" horiz-adv-x="628" 
d="M150 1400h327v-1400h-327v1400zM105 1837l159 -314l-224 -19l-182 238zM480 1837l159 -314l-225 -19l-181 238z" />
    <glyph glyph-name="uni0209" unicode="&#x209;" horiz-adv-x="609" 
d="M146 1075h317v-1075h-317v1075zM97 1538l159 -314l-224 -19l-182 238zM472 1538l159 -314l-225 -19l-181 238z" />
    <glyph glyph-name="uni020A" unicode="&#x20a;" horiz-adv-x="628" 
d="M150 1400h327v-1400h-327v1400zM-4 1518q3 69 27 126t65.5 97t98.5 62t125 22t125 -22t98.5 -62t66 -97t27.5 -126h-202q-4 53 -35.5 86.5t-79.5 33.5t-79.5 -33.5t-35.5 -86.5h-201z" />
    <glyph glyph-name="uni020B" unicode="&#x20b;" horiz-adv-x="609" 
d="M146 1075h317v-1075h-317v1075zM1 1206q3 71 26 128t63 97t94 62t120 22q65 0 119 -22t93.5 -62t62.5 -97t26 -128h-200q-5 52 -32 85.5t-69 33.5q-43 0 -70.5 -33.5t-31.5 -85.5h-201z" />
    <glyph glyph-name="uni020C" unicode="&#x20c;" horiz-adv-x="1611" 
d="M806 1420q161 0 298.5 -54.5t238 -151t158 -228t57.5 -284.5q0 -102 -26 -195.5t-74 -174t-115.5 -146t-151 -112t-181 -71.5t-204.5 -25q-161 0 -299 55.5t-239 152.5t-158 229.5t-57 286.5t57 285.5t158 227.5t239 150.5t299 54.5zM809 1146q-86 0 -163 -34t-134.5 -94
t-91 -141t-33.5 -175q0 -95 34 -177t91.5 -143t134.5 -95.5t162 -34.5q86 0 161.5 34.5t131.5 95.5t88.5 143t32.5 177q0 94 -32.5 175t-88.5 141t-131.5 94t-161.5 34zM598 1838l159 -314l-224 -19l-182 238zM973 1838l159 -314l-225 -19l-181 238z" />
    <glyph glyph-name="uni020D" unicode="&#x20d;" 
d="M635 1086q130 0 237 -39.5t183 -111.5t117.5 -173t41.5 -224t-41.5 -224t-117.5 -173.5t-183 -112t-237 -39.5q-131 0 -238 39.5t-183.5 112t-118 173.5t-41.5 224t41.5 224t118 173t183.5 111.5t238 39.5zM635 832q-58 0 -106 -21.5t-82.5 -61t-53.5 -94t-19 -120.5
q0 -67 19 -122t53.5 -94.5t82.5 -61t106 -21.5t105.5 21.5t82 61t53.5 94.5t19 122q0 66 -19 120.5t-53.5 94t-82 61t-105.5 21.5zM427 1538l159 -314l-224 -19l-182 238zM802 1538l159 -314l-225 -19l-181 238z" />
    <glyph glyph-name="uni020E" unicode="&#x20e;" horiz-adv-x="1611" 
d="M806 1420q161 0 298.5 -54.5t238 -151t158 -228t57.5 -284.5q0 -102 -26 -195.5t-74 -174t-115.5 -146t-151 -112t-181 -71.5t-204.5 -25q-161 0 -299 55.5t-239 152.5t-158 229.5t-57 286.5t57 285.5t158 227.5t239 150.5t299 54.5zM809 1146q-86 0 -163 -34t-134.5 -94
t-91 -141t-33.5 -175q0 -95 34 -177t91.5 -143t134.5 -95.5t162 -34.5q86 0 161.5 34.5t131.5 95.5t88.5 143t32.5 177q0 94 -32.5 175t-88.5 141t-131.5 94t-161.5 34zM489 1519q3 69 27 126t65.5 97t98.5 62t125 22t125 -22t98.5 -62t66 -97t27.5 -126h-202
q-4 53 -35.5 86.5t-79.5 33.5t-79.5 -33.5t-35.5 -86.5h-201z" />
    <glyph glyph-name="uni020F" unicode="&#x20f;" 
d="M635 1086q130 0 237 -39.5t183 -111.5t117.5 -173t41.5 -224t-41.5 -224t-117.5 -173.5t-183 -112t-237 -39.5q-131 0 -238 39.5t-183.5 112t-118 173.5t-41.5 224t41.5 224t118 173t183.5 111.5t238 39.5zM635 832q-58 0 -106 -21.5t-82.5 -61t-53.5 -94t-19 -120.5
q0 -67 19 -122t53.5 -94.5t82.5 -61t106 -21.5t105.5 21.5t82 61t53.5 94.5t19 122q0 66 -19 120.5t-53.5 94t-82 61t-105.5 21.5zM318 1206q3 69 27 126t65.5 97t98.5 62t125 22t125 -22t98.5 -62t66 -97t27.5 -126h-202q-4 53 -35.5 86.5t-79.5 33.5t-79.5 -33.5
t-35.5 -86.5h-201z" />
    <glyph glyph-name="uni0210" unicode="&#x210;" horiz-adv-x="1447" 
d="M762 1400q137 0 244.5 -32.5t181.5 -94.5t112.5 -152.5t38.5 -206.5q0 -163 -67.5 -277.5t-195.5 -174.5l299 -462h-370l-219 401h-24h-285v-401h-327v1400h612zM762 663q128 0 197.5 60.5t69.5 181.5q0 117 -69.5 175t-197.5 58h-285v-475h285zM495 1838l159 -314
l-224 -19l-182 238zM870 1838l159 -314l-225 -19l-181 238z" />
    <glyph glyph-name="uni0211" unicode="&#x211;" horiz-adv-x="838" 
d="M146 1075h318v-190q56 99 146 150.5t208 52.5v-288q-78 6 -141 -9.5t-108.5 -49t-72.5 -83.5t-32 -112v-546h-318v1075zM275 1538l159 -314l-224 -19l-182 238zM650 1538l159 -314l-225 -19l-181 238z" />
    <glyph glyph-name="uni0212" unicode="&#x212;" horiz-adv-x="1447" 
d="M762 1400q137 0 244.5 -32.5t181.5 -94.5t112.5 -152.5t38.5 -206.5q0 -163 -67.5 -277.5t-195.5 -174.5l299 -462h-370l-219 401h-24h-285v-401h-327v1400h612zM762 663q128 0 197.5 60.5t69.5 181.5q0 117 -69.5 175t-197.5 58h-285v-475h285zM386 1519q3 69 27 126
t65.5 97t98.5 62t125 22t125 -22t98.5 -62t66 -97t27.5 -126h-202q-4 53 -35.5 86.5t-79.5 33.5t-79.5 -33.5t-35.5 -86.5h-201z" />
    <glyph glyph-name="uni0213" unicode="&#x213;" horiz-adv-x="838" 
d="M146 1075h318v-190q56 99 146 150.5t208 52.5v-288q-78 6 -141 -9.5t-108.5 -49t-72.5 -83.5t-32 -112v-546h-318v1075zM166 1206q3 69 27 126t65.5 97t98.5 62t125 22t125 -22t98.5 -62t66 -97t27.5 -126h-202q-4 53 -35.5 86.5t-79.5 33.5t-79.5 -33.5t-35.5 -86.5
h-201z" />
    <glyph glyph-name="uni0214" unicode="&#x214;" horiz-adv-x="1503" 
d="M452 577q0 -76 22.5 -136t62.5 -102t96 -64.5t123 -22.5q66 0 120.5 22t93 64t59.5 102.5t21 136.5v823h327v-823q0 -138 -43.5 -249t-124.5 -188.5t-196 -119.5t-258 -42q-144 0 -260.5 42t-198.5 119.5t-126 188.5t-44 249v823h326v-823zM545 1838l159 -314l-224 -19
l-182 238zM920 1838l159 -314l-225 -19l-181 238z" />
    <glyph glyph-name="uni0215" unicode="&#x215;" horiz-adv-x="1321" 
d="M432 488q0 -103 52.5 -161.5t143.5 -58.5q54 1 96.5 22t72 58t45 87.5t15.5 109.5v530h318v-1075h-318v184q-55 -99 -145.5 -147.5t-211.5 -49.5q-88 0 -159.5 29t-122 82.5t-77.5 130t-27 171.5v675h318v-587zM453 1538l159 -314l-224 -19l-182 238zM828 1538l159 -314
l-225 -19l-181 238z" />
    <glyph glyph-name="uni0216" unicode="&#x216;" horiz-adv-x="1503" 
d="M452 577q0 -76 22.5 -136t62.5 -102t96 -64.5t123 -22.5q66 0 120.5 22t93 64t59.5 102.5t21 136.5v823h327v-823q0 -138 -43.5 -249t-124.5 -188.5t-196 -119.5t-258 -42q-144 0 -260.5 42t-198.5 119.5t-126 188.5t-44 249v823h326v-823zM435 1519q3 69 27 126t65.5 97
t98.5 62t125 22t125 -22t98.5 -62t66 -97t27.5 -126h-202q-4 53 -35.5 86.5t-79.5 33.5t-79.5 -33.5t-35.5 -86.5h-201z" />
    <glyph glyph-name="uni0217" unicode="&#x217;" horiz-adv-x="1321" 
d="M432 488q0 -103 52.5 -161.5t143.5 -58.5q54 1 96.5 22t72 58t45 87.5t15.5 109.5v530h318v-1075h-318v184q-55 -99 -145.5 -147.5t-211.5 -49.5q-88 0 -159.5 29t-122 82.5t-77.5 130t-27 171.5v675h318v-587zM344 1206q3 69 27 126t65.5 97t98.5 62t125 22t125 -22
t98.5 -62t66 -97t27.5 -126h-202q-4 53 -35.5 86.5t-79.5 33.5t-79.5 -33.5t-35.5 -86.5h-201z" />
    <glyph glyph-name="uni0218" unicode="&#x218;" horiz-adv-x="1277" 
d="M1081 1012q-48 29 -104 54.5t-113.5 45t-114.5 31t-107 11.5q-30 0 -60.5 -5.5t-55 -19t-40 -36.5t-15.5 -57q0 -50 32 -82.5t84 -56t119 -42t136.5 -41t136.5 -53t119 -77t84 -113.5t32 -163q0 -112 -47.5 -193t-125.5 -133t-177 -76.5t-203 -24.5q-84 0 -168.5 15
t-164.5 44t-154 71t-136 96l130 256q50 -45 111 -83.5t126.5 -67t132.5 -45t127 -16.5q36 0 72.5 7t65 23t46.5 43t18 67q0 51 -32 84t-84 56t-119 41.5t-136.5 40t-136.5 50.5t-119 74.5t-84 111t-32 159.5q0 105 44.5 183.5t119.5 130.5t174 77.5t207 25.5q72 0 144 -10.5
t141 -30t133 -48t120 -64.5zM520 -118h267l-139 -340h-194z" />
    <glyph glyph-name="uni0219" unicode="&#x219;" horiz-adv-x="1006" 
d="M833 762q-91 49 -177.5 76t-154.5 27q-52 0 -85 -19.5t-33 -62.5q0 -30 24.5 -50.5t64 -36.5t90.5 -30t104 -31.5t104 -41.5t90.5 -60.5t63.5 -87.5t24 -122q0 -82 -34 -145t-94 -105.5t-141 -64t-174 -21.5q-131 0 -253.5 38t-216.5 113l103 206q43 -32 90 -57t96 -42
t97 -26t93 -9q56 0 93.5 21t37.5 64q0 33 -24 54.5t-63 37.5t-89.5 30t-102.5 31.5t-102 41t-89.5 59t-63 85.5t-23.5 121q0 83 33.5 145.5t91 104.5t135.5 63t168 21q113 0 223 -31t203 -88zM368 -118h267l-139 -340h-194z" />
    <glyph glyph-name="uni021A" unicode="&#x21a;" horiz-adv-x="1207" 
d="M15 1400h1177v-268h-426v-1132h-327v1132h-424v268zM469 -118h267l-139 -340h-194z" />
    <glyph glyph-name="uni021B" unicode="&#x21b;" horiz-adv-x="856" 
d="M510 1075h290v-212h-290v-493q0 -69 26 -97.5t74 -28.5q38 0 74.5 12t69.5 28l65 -223q-60 -36 -133 -55.5t-149 -19.5q-73 0 -136 20.5t-109 62t-72 104t-26 145.5v545h-150v212h150v249h316v-249zM399 -118h267l-139 -340h-194z" />
    <glyph glyph-name="uni022A" unicode="&#x22a;" horiz-adv-x="1611" 
d="M806 1420q161 0 298.5 -54.5t238 -151t158 -228t57.5 -284.5q0 -102 -26 -195.5t-74 -174t-115.5 -146t-151 -112t-181 -71.5t-204.5 -25q-161 0 -299 55.5t-239 152.5t-158 229.5t-57 286.5t57 285.5t158 227.5t239 150.5t299 54.5zM809 1146q-86 0 -163 -34t-134.5 -94
t-91 -141t-33.5 -175q0 -95 34 -177t91.5 -143t134.5 -95.5t162 -34.5q86 0 161.5 34.5t131.5 95.5t88.5 143t32.5 177q0 94 -32.5 175t-88.5 141t-131.5 94t-161.5 34zM618 1795q62 0 101 -39t39 -102q0 -30 -10.5 -56t-29 -44.5t-44 -29.5t-56.5 -11t-56.5 11t-44.5 29.5
t-29.5 44.5t-10.5 56q0 31 10.5 57t29.5 44.5t44.5 29t56.5 10.5zM994 1795q30 0 55.5 -10.5t44.5 -29t29.5 -44.5t10.5 -57q0 -30 -10.5 -56t-29.5 -44.5t-44.5 -29.5t-55.5 -11q-31 0 -57.5 11t-45.5 29.5t-29.5 44.5t-10.5 56q0 31 10.5 57t29.5 44.5t45.5 29t57.5 10.5z
M524 2049h562v-179h-562v179z" />
    <glyph glyph-name="uni022B" unicode="&#x22b;" 
d="M635 1086q130 0 237 -39.5t183 -111.5t117.5 -173t41.5 -224t-41.5 -224t-117.5 -173.5t-183 -112t-237 -39.5q-131 0 -238 39.5t-183.5 112t-118 173.5t-41.5 224t41.5 224t118 173t183.5 111.5t238 39.5zM635 832q-58 0 -106 -21.5t-82.5 -61t-53.5 -94t-19 -120.5
q0 -67 19 -122t53.5 -94.5t82.5 -61t106 -21.5t105.5 21.5t82 61t53.5 94.5t19 122q0 66 -19 120.5t-53.5 94t-82 61t-105.5 21.5zM447 1483q62 0 101 -39t39 -102q0 -30 -10.5 -56t-29 -44.5t-44 -29.5t-56.5 -11t-56.5 11t-44.5 29.5t-29.5 44.5t-10.5 56q0 31 10.5 57
t29.5 44.5t44.5 29t56.5 10.5zM823 1483q30 0 55.5 -10.5t44.5 -29t29.5 -44.5t10.5 -57q0 -30 -10.5 -56t-29.5 -44.5t-44.5 -29.5t-55.5 -11q-31 0 -57.5 11t-45.5 29.5t-29.5 44.5t-10.5 56q0 31 10.5 57t29.5 44.5t45.5 29t57.5 10.5zM353 1737h562v-179h-562v179z" />
    <glyph glyph-name="uni022C" unicode="&#x22c;" horiz-adv-x="1611" 
d="M806 1420q161 0 298.5 -54.5t238 -151t158 -228t57.5 -284.5q0 -102 -26 -195.5t-74 -174t-115.5 -146t-151 -112t-181 -71.5t-204.5 -25q-161 0 -299 55.5t-239 152.5t-158 229.5t-57 286.5t57 285.5t158 227.5t239 150.5t299 54.5zM809 1146q-86 0 -163 -34t-134.5 -94
t-91 -141t-33.5 -175q0 -95 34 -177t91.5 -143t134.5 -95.5t162 -34.5q86 0 161.5 34.5t131.5 95.5t88.5 143t32.5 177q0 94 -32.5 175t-88.5 141t-131.5 94t-161.5 34zM1149 1768q0 -58 -9.5 -105t-31.5 -80t-56.5 -51t-85.5 -18q-47 0 -89 13.5t-78 30t-66 30t-54 13.5
q-37 0 -49.5 -22t-12.5 -60h-156q0 58 9.5 105.5t31.5 81t56.5 52t85.5 18.5q47 0 89.5 -13.5t79 -30t66.5 -30t54 -13.5q35 0 47.5 21.5t12.5 57.5h156zM526 2027h562v-179h-562v179z" />
    <glyph glyph-name="uni022D" unicode="&#x22d;" 
d="M635 1086q130 0 237 -39.5t183 -111.5t117.5 -173t41.5 -224t-41.5 -224t-117.5 -173.5t-183 -112t-237 -39.5q-131 0 -238 39.5t-183.5 112t-118 173.5t-41.5 224t41.5 224t118 173t183.5 111.5t238 39.5zM635 832q-58 0 -106 -21.5t-82.5 -61t-53.5 -94t-19 -120.5
q0 -67 19 -122t53.5 -94.5t82.5 -61t106 -21.5t105.5 21.5t82 61t53.5 94.5t19 122q0 66 -19 120.5t-53.5 94t-82 61t-105.5 21.5zM978 1452q0 -58 -9.5 -105t-31.5 -80t-56.5 -51t-85.5 -18q-47 0 -89 13.5t-78 30t-66 30t-54 13.5q-37 0 -49.5 -22t-12.5 -60h-156
q0 58 9.5 105.5t31.5 81t56.5 52t85.5 18.5q47 0 89.5 -13.5t79 -30t66.5 -30t54 -13.5q35 0 47.5 21.5t12.5 57.5h156zM355 1711h562v-179h-562v179z" />
    <glyph glyph-name="uni0230" unicode="&#x230;" horiz-adv-x="1611" 
d="M806 1420q161 0 298.5 -54.5t238 -151t158 -228t57.5 -284.5q0 -102 -26 -195.5t-74 -174t-115.5 -146t-151 -112t-181 -71.5t-204.5 -25q-161 0 -299 55.5t-239 152.5t-158 229.5t-57 286.5t57 285.5t158 227.5t239 150.5t299 54.5zM809 1146q-86 0 -163 -34t-134.5 -94
t-91 -141t-33.5 -175q0 -95 34 -177t91.5 -143t134.5 -95.5t162 -34.5q86 0 161.5 34.5t131.5 95.5t88.5 143t32.5 177q0 94 -32.5 175t-88.5 141t-131.5 94t-161.5 34zM804 1821q33 0 61.5 -11.5t48.5 -31.5t31.5 -48.5t11.5 -61.5t-11.5 -60.5t-31.5 -47.5t-48.5 -31.5
t-61.5 -11.5t-60.5 11.5t-47.5 31.5t-31.5 47.5t-11.5 60.5t11.5 61.5t31.5 48.5t47.5 31.5t60.5 11.5zM525 2054h562v-179h-562v179z" />
    <glyph glyph-name="uni0231" unicode="&#x231;" 
d="M635 1086q130 0 237 -39.5t183 -111.5t117.5 -173t41.5 -224t-41.5 -224t-117.5 -173.5t-183 -112t-237 -39.5q-131 0 -238 39.5t-183.5 112t-118 173.5t-41.5 224t41.5 224t118 173t183.5 111.5t238 39.5zM635 832q-58 0 -106 -21.5t-82.5 -61t-53.5 -94t-19 -120.5
q0 -67 19 -122t53.5 -94.5t82.5 -61t106 -21.5t105.5 21.5t82 61t53.5 94.5t19 122q0 66 -19 120.5t-53.5 94t-82 61t-105.5 21.5zM632 1504q33 0 61.5 -11.5t48.5 -31.5t31.5 -48.5t11.5 -61.5t-11.5 -60.5t-31.5 -47.5t-48.5 -31.5t-61.5 -11.5t-60.5 11.5t-47.5 31.5
t-31.5 47.5t-11.5 60.5t11.5 61.5t31.5 48.5t47.5 31.5t60.5 11.5zM353 1737h562v-179h-562v179z" />
    <glyph glyph-name="uni0232" unicode="&#x232;" horiz-adv-x="1339" 
d="M511 450l-518 950h327l353 -631l344 631h329l-509 -941v-459h-326v450zM334 1711h671v-187h-671v187z" />
    <glyph glyph-name="uni0233" unicode="&#x233;" horiz-adv-x="1136" 
d="M680 -120q-57 -143 -157 -212.5t-243 -69.5q-87 0 -158 25t-140 79l134 220q37 -29 70 -42.5t71 -13.5q95 0 140 95l28 61l-445 1053h327l277 -742l249 742h317zM266 1469h610v-187h-610v187z" />
    <glyph glyph-name="uni0237" unicode="&#x237;" horiz-adv-x="602" 
d="M-60 -135q22 -7 45 -12t46 -5q58 0 88 39.5t30 115.5v1072h318v-1119q0 -84 -25.5 -150.5t-73.5 -112.5t-116 -70t-154 -23q-123 2 -222 41z" />
    <glyph glyph-name="uni0259" unicode="&#x259;" horiz-adv-x="1197" 
d="M586 -11q-141 0 -245.5 45t-171.5 128.5t-95.5 202t-18.5 265.5h768q-26 103 -97.5 160.5t-174.5 57.5q-75 0 -144 -29t-125 -86l-166 165q81 91 198 139.5t264 48.5q130 0 234.5 -39.5t178 -111t113 -172t39.5 -223.5q0 -124 -40.5 -225.5t-114 -173.5t-176 -112
t-226.5 -40zM584 214q50 0 91 16.5t72.5 47.5t52 74t29.5 96h-474q1 -53 17.5 -96.5t46.5 -74t72 -47t93 -16.5z" />
    <glyph glyph-name="uni02BB" unicode="&#x2bb;" horiz-adv-x="456" 
d="M356 982l-256 56l60 362h196v-418z" />
    <glyph glyph-name="uni02BC" unicode="&#x2bc;" horiz-adv-x="384" 
d="M82 1400h221l-41 -523h-180v523z" />
    <glyph glyph-name="uni02BE" unicode="&#x2be;" horiz-adv-x="462" 
d="M119 1273q23 0 43.5 8.5t36 23.5t24.5 35t9 43t-9 43t-24.5 35t-36 24t-43.5 9v128q50 0 94 -19t76.5 -51.5t51.5 -76t19 -92.5t-19 -92.5t-51.5 -75.5t-76.5 -51t-94 -19v128z" />
    <glyph glyph-name="uni02BF" unicode="&#x2bf;" horiz-adv-x="460" 
d="M341 1145q-50 0 -94 19t-76.5 51t-51.5 75.5t-19 92.5t19 92.5t51.5 76t76.5 51.5t94 19v-128q-23 0 -43.5 -9t-36 -24t-24.5 -35t-9 -43t9 -43t24.5 -35t36 -23.5t43.5 -8.5v-128z" />
    <glyph glyph-name="circumflex" unicode="&#x2c6;" horiz-adv-x="780" 
d="M245 1519h290l217 -295h-246l-116 128l-116 -128h-246z" />
    <glyph glyph-name="caron" unicode="&#x2c7;" horiz-adv-x="828" 
d="M499 1224h-290l-217 295h246l116 -129l116 129h246z" />
    <glyph glyph-name="uni02C8" unicode="&#x2c8;" horiz-adv-x="295" 
d="M40 1027v373h215v-373h-215z" />
    <glyph glyph-name="uni02C9" unicode="&#x2c9;" horiz-adv-x="692" 
d="M46 1469h610v-187h-610v187z" />
    <glyph glyph-name="uni02CA" unicode="&#x2ca;" horiz-adv-x="700" 
d="M343 1530l277 -107l-276 -218l-228 20z" />
    <glyph glyph-name="uni02CB" unicode="&#x2cb;" horiz-adv-x="700" 
d="M378 1530l207 -305l-228 -20l-257 218z" />
    <glyph glyph-name="uni02CC" unicode="&#x2cc;" horiz-adv-x="297" 
d="M40 -434v373h217v-373h-217z" />
    <glyph glyph-name="breve" unicode="&#x2d8;" horiz-adv-x="730" 
d="M250 1513q4 -54 35.5 -87.5t79.5 -33.5t79.5 33.5t35.5 87.5h202q-3 -70 -27.5 -126.5t-66 -96.5t-98.5 -62t-125 -22t-125 22t-98.5 62t-65.5 96.5t-27 126.5h201z" />
    <glyph glyph-name="dotaccent" unicode="&#x2d9;" horiz-adv-x="700" 
d="M348 1554q37 0 68.5 -13t54 -35.5t35.5 -54t13 -69.5q0 -37 -13 -68.5t-35.5 -54.5t-54 -36t-68.5 -13t-68.5 13t-54.5 36t-36 54.5t-13 68.5q0 38 13 69.5t36 54t54.5 35.5t68.5 13z" />
    <glyph glyph-name="ring" unicode="&#x2da;" horiz-adv-x="882" 
d="M335 1619q48 0 90.5 -18t74 -49.5t49.5 -73.5t18 -89q0 -48 -18 -90t-49.5 -73.5t-74 -49.5t-90.5 -18t-90.5 18t-74 49.5t-50 73.5t-18.5 90q0 47 18.5 89t50 73.5t74 49.5t90.5 18zM335 1480q-19 0 -36 -7t-30 -19.5t-20.5 -29t-7.5 -35.5t7.5 -36t20.5 -29.5t30 -19.5
t36 -7t36 7t29.5 19.5t20 29.5t7.5 36t-7.5 35.5t-20 29t-29.5 19.5t-36 7z" />
    <glyph glyph-name="ogonek" unicode="&#x2db;" horiz-adv-x="586" 
d="M427 0q-79 -59 -119.5 -106.5t-40.5 -93.5q0 -29 13 -42t34 -13q13 0 29 4t31 12l57 -174q-45 -20 -93 -31.5t-94 -11.5q-105 0 -162.5 54.5t-57.5 147.5q0 81 50 166.5t168 165.5z" />
    <glyph glyph-name="tilde" unicode="&#x2dc;" horiz-adv-x="793" 
d="M822 1498q0 -67 -10 -122t-32 -94t-57.5 -60.5t-86.5 -21.5q-44 0 -83 14.5t-72.5 32t-61.5 32t-49 14.5q-32 0 -43.5 -24t-12.5 -63h-187q0 67 10 122t32 94.5t57.5 61t87.5 21.5q44 0 83 -14.5t72.5 -32t61 -32t48.5 -14.5q33 0 44.5 24t12.5 62h186z" />
    <glyph glyph-name="hungarumlaut" unicode="&#x2dd;" horiz-adv-x="1025" 
d="M283 1538l247 -95l-181 -238l-226 19zM658 1538l247 -95l-181 -238l-226 19z" />
    <glyph glyph-name="gravecomb" unicode="&#x300;" horiz-adv-x="1178" 
d="M618 1530l207 -305l-228 -20l-257 218z" />
    <glyph glyph-name="acutecomb" unicode="&#x301;" horiz-adv-x="1058" 
d="M507 1530l277 -107l-276 -218l-228 20z" />
    <glyph glyph-name="uni0302" unicode="&#x302;" horiz-adv-x="780" 
d="M245 1519h290l217 -295h-246l-116 128l-116 -128h-246z" />
    <glyph glyph-name="tildecomb" unicode="&#x303;" horiz-adv-x="793" 
d="M744 1498q0 -67 -10 -122t-32 -94t-57.5 -60.5t-86.5 -21.5q-44 0 -83 14.5t-72.5 32t-61.5 32t-49 14.5q-32 0 -43.5 -24t-12.5 -63h-187q0 67 10 122t32 94.5t57.5 61t87.5 21.5q44 0 83 -14.5t72.5 -32t61 -32t48.5 -14.5q33 0 44.5 24t12.5 62h186z" />
    <glyph glyph-name="uni0304" unicode="&#x304;" horiz-adv-x="626" 
d="M8 1469h610v-187h-610v187z" />
    <glyph glyph-name="uni0306" unicode="&#x306;" horiz-adv-x="730" 
d="M250 1513q4 -54 35.5 -87.5t79.5 -33.5t79.5 33.5t35.5 87.5h202q-3 -70 -27.5 -126.5t-66 -96.5t-98.5 -62t-125 -22t-125 22t-98.5 62t-65.5 96.5t-27 126.5h201z" />
    <glyph glyph-name="uni0307" unicode="&#x307;" horiz-adv-x="506" 
d="M251 1554q37 0 68.5 -13t54 -35.5t35.5 -54t13 -69.5q0 -37 -13 -68.5t-35.5 -54.5t-54 -36t-68.5 -13t-68.5 13t-54.5 36t-36 54.5t-13 68.5q0 38 13 69.5t36 54t54.5 35.5t68.5 13z" />
    <glyph glyph-name="uni0308" unicode="&#x308;" horiz-adv-x="870" 
d="M240 1516q31 0 57.5 -10.5t45.5 -29.5t29.5 -45.5t10.5 -57.5t-10.5 -57t-29.5 -45.5t-45.5 -30.5t-57.5 -11t-57.5 11t-45.5 30.5t-29.5 45.5t-10.5 57t10.5 57.5t29.5 45.5t45.5 29.5t57.5 10.5zM616 1516q31 0 57 -10.5t45 -29.5t29.5 -45.5t10.5 -57.5t-10.5 -57
t-29.5 -45.5t-45 -30.5t-57 -11t-57.5 11t-46 30.5t-30 45.5t-10.5 57t10.5 57.5t30 45.5t46 29.5t57.5 10.5z" />
    <glyph glyph-name="hookabovecomb" unicode="&#x309;" horiz-adv-x="575" 
d="M303 1610q49 0 89 -12t68.5 -35t44 -56t15.5 -75q0 -69 -46 -139.5t-121 -131.5l-148 62q43 39 65 81.5t22 74.5q0 24 -16 38.5t-40 14.5q-17 0 -35.5 -6t-37.5 -20l-87 134q108 70 227 70z" />
    <glyph glyph-name="uni030A" unicode="&#x30a;" horiz-adv-x="670" 
d="M335 1619q48 0 90.5 -18t74 -49.5t49.5 -73.5t18 -89q0 -48 -18 -90t-49.5 -73.5t-74 -49.5t-90.5 -18t-90.5 18t-74 49.5t-50 73.5t-18.5 90q0 47 18.5 89t50 73.5t74 49.5t90.5 18zM335 1480q-19 0 -36 -7t-30 -19.5t-20.5 -29t-7.5 -35.5t7.5 -36t20.5 -29.5t30 -19.5
t36 -7t36 7t29.5 19.5t20 29.5t7.5 36t-7.5 35.5t-20 29t-29.5 19.5t-36 7z" />
    <glyph glyph-name="uni030B" unicode="&#x30b;" horiz-adv-x="991" 
d="M297 1538l247 -95l-181 -238l-226 19zM672 1538l247 -95l-181 -238l-226 19z" />
    <glyph glyph-name="uni030C" unicode="&#x30c;" horiz-adv-x="828" 
d="M559 1224h-290l-217 295h246l116 -129l116 129h246z" />
    <glyph glyph-name="uni030F" unicode="&#x30f;" horiz-adv-x="991" 
d="M347 1538l159 -314l-224 -19l-182 238zM722 1538l159 -314l-225 -19l-181 238z" />
    <glyph glyph-name="uni0311" unicode="&#x311;" horiz-adv-x="730" 
d="M49 1206q3 69 27 126t65.5 97t98.5 62t125 22t125 -22t98.5 -62t66 -97t27.5 -126h-202q-4 53 -35.5 86.5t-79.5 33.5t-79.5 -33.5t-35.5 -86.5h-201z" />
    <glyph glyph-name="uni0312" unicode="&#x312;" horiz-adv-x="506" 
d="M366 1222h-268l139 340h194z" />
    <glyph glyph-name="uni031B" unicode="&#x31b;" horiz-adv-x="425" 
d="M292 1364q44 -106 42.5 -191t-45 -145t-127 -92t-203.5 -32l16 171q51 0 79 18.5t37.5 48.5t2 67t-28.5 73z" />
    <glyph glyph-name="dotbelowcomb" unicode="&#x323;" horiz-adv-x="506" 
d="M251 -138q37 0 68.5 -13t54 -35.5t35.5 -54t13 -69.5q0 -37 -13 -68.5t-35.5 -54.5t-54 -36t-68.5 -13t-68.5 13t-54.5 36t-36 54.5t-13 68.5q0 38 13 69.5t36 54t54.5 35.5t68.5 13z" />
    <glyph glyph-name="uni0324" unicode="&#x324;" horiz-adv-x="870" 
d="M266 -135q31 0 57.5 -10.5t45.5 -29.5t29.5 -45.5t10.5 -57.5t-10.5 -57t-29.5 -45.5t-45.5 -30.5t-57.5 -11t-57.5 11t-45.5 30.5t-29.5 45.5t-10.5 57t10.5 57.5t29.5 45.5t45.5 29.5t57.5 10.5zM642 -135q31 0 57 -10.5t45 -29.5t29.5 -45.5t10.5 -57.5t-10.5 -57
t-29.5 -45.5t-45 -30.5t-57 -11t-57.5 11t-46 30.5t-30 45.5t-10.5 57t10.5 57.5t30 45.5t46 29.5t57.5 10.5z" />
    <glyph glyph-name="uni0325" unicode="&#x325;" horiz-adv-x="0" 
d="M0 -51q48 0 90.5 -18t74 -49.5t49.5 -73.5t18 -89q0 -48 -18 -90t-49.5 -73.5t-74 -49.5t-90.5 -18t-90.5 18t-74 49.5t-50 73.5t-18.5 90q0 47 18.5 89t50 73.5t74 49.5t90.5 18zM0 -190q-19 0 -36 -7t-30 -19.5t-20.5 -29t-7.5 -35.5t7.5 -36t20.5 -29.5t30 -19.5
t36 -7t36 7t29.5 19.5t20 29.5t7.5 36t-7.5 35.5t-20 29t-29.5 19.5t-36 7z" />
    <glyph glyph-name="uni0326" unicode="&#x326;" horiz-adv-x="472" 
d="M118 -118h267l-139 -340h-194z" />
    <glyph glyph-name="uni0327" unicode="&#x327;" horiz-adv-x="647" 
d="M272 54l185 -18l-41 -108q44 -9 75.5 -25t51 -37.5t28.5 -47t9 -52.5q0 -48 -20 -83.5t-54.5 -58.5t-79.5 -34t-95 -11q-55 0 -109.5 11.5t-101.5 29.5l52 150q24 -10 52.5 -15t54.5 -5q38 0 59.5 13t21.5 32q0 23 -28.5 35.5t-75.5 12.5h-52z" />
    <glyph glyph-name="uni0328" unicode="&#x328;" horiz-adv-x="586" 
d="M501 0q-79 -59 -119 -106.5t-40 -93.5q0 -29 12.5 -42t34.5 -13q12 0 28 4t31 12l58 -174q-45 -20 -93 -31.5t-95 -11.5q-104 0 -162 54.5t-58 147.5q0 81 50 166.5t168 165.5z" />
    <glyph glyph-name="uni032D" unicode="&#x32d;" horiz-adv-x="0" 
d="M-145 -89h290l217 -295h-246l-116 128l-116 -128h-246z" />
    <glyph glyph-name="uni032E" unicode="&#x32e;" horiz-adv-x="730" 
d="M250 -112q4 -54 35.5 -87.5t79.5 -33.5t79.5 33.5t35.5 87.5h202q-3 -70 -27.5 -126.5t-66 -96.5t-98.5 -62t-125 -22t-125 22t-98.5 62t-65.5 96.5t-27 126.5h201z" />
    <glyph glyph-name="uni0330" unicode="&#x330;" horiz-adv-x="0" 
d="M309 -88q0 -67 -10 -122t-32 -94t-57.5 -60.5t-86.5 -21.5q-44 0 -83 14.5t-72.5 32t-61.5 32t-49 14.5q-32 0 -43.5 -24t-12.5 -63h-187q0 67 10 122t32 94.5t57.5 61t87.5 21.5q44 0 83 -14.5t72.5 -32t61 -32t48.5 -14.5q33 0 44.5 24t12.5 62h186z" />
    <glyph glyph-name="uni0331" unicode="&#x331;" horiz-adv-x="746" 
d="M68 -157h610v-187h-610v187z" />
    <glyph glyph-name="uni0335" unicode="&#x335;" horiz-adv-x="789" 
d="M16 962h757v-174h-757v174z" />
    <glyph glyph-name="uni0336" unicode="&#x336;" horiz-adv-x="1200" 
d="M164 962h863v-174h-863v174z" />
    <glyph glyph-name="uni0337" unicode="&#x337;" horiz-adv-x="696" 
d="M673 1126l-329 -946h-268l329 946h268z" />
    <glyph glyph-name="uni0338" unicode="&#x338;" horiz-adv-x="696" 
d="M13 0l517 1484h268l-517 -1484h-268z" />
    <glyph glyph-name="tonos" unicode="&#x384;" horiz-adv-x="392" 
d="M97 1503h300l-195 -289h-206z" />
    <glyph glyph-name="dieresistonos" unicode="&#x385;" horiz-adv-x="962" 
d="M170 1244q-30 0 -55.5 10t-44 28.5t-29 43.5t-10.5 55t10.5 55.5t29 44t44 29t55.5 10.5t55.5 -10.5t44 -29t29 -44t10.5 -55.5t-10.5 -55t-29 -43.5t-44 -28.5t-55.5 -10zM393 1531h300l-196 -289h-206zM792 1244q-30 0 -55.5 10t-44 28.5t-29 43.5t-10.5 55t10.5 55.5
t29 44t44 29t55.5 10.5t55.5 -10.5t44 -29t29 -44t10.5 -55.5t-10.5 -55t-29 -43.5t-44 -28.5t-55.5 -10z" />
    <glyph glyph-name="Alphatonos" unicode="&#x386;" horiz-adv-x="1533" 
d="M600 1400h336l595 -1400h-349l-108 274h-634l-109 -274h-338zM974 526l-216 547l-218 -547h434zM160 1503h300l-195 -289h-206z" />
    <glyph glyph-name="Epsilontonos" unicode="&#x388;" horiz-adv-x="1704" 
d="M533 1400h1074v-262h-747v-305h673v-261h-673v-310h769v-262h-1096v1400zM125 1503h300l-195 -289h-206z" />
    <glyph glyph-name="Etatonos" unicode="&#x389;" horiz-adv-x="1952" 
d="M500 1400h327v-586h619v586h327v-1400h-327v554h-619v-554h-327v1400zM102 1503h300l-195 -289h-206z" />
    <glyph glyph-name="Iotatonos" unicode="&#x38a;" horiz-adv-x="971" 
d="M105 1503h300l-195 -289h-206zM478 1400h327v-1400h-327v1400z" />
    <glyph glyph-name="Omicrontonos" unicode="&#x38c;" horiz-adv-x="1748" 
d="M886 1418q161 0 298.5 -54.5t238 -151t158 -228t57.5 -284.5q0 -102 -26 -195.5t-74 -174t-115.5 -146t-151 -112t-181 -71.5t-204.5 -25q-161 0 -299 55.5t-239 152.5t-158 229.5t-57 286.5t57 285.5t158 227.5t239 150.5t299 54.5zM889 1144q-86 0 -163 -34t-134.5 -94
t-91 -141t-33.5 -175q0 -95 34 -177t91.5 -143t134.5 -95.5t162 -34.5q86 0 161.5 34.5t131.5 95.5t88.5 143t32.5 177q0 94 -32.5 175t-88.5 141t-131.5 94t-161.5 34zM103 1503h300l-195 -289h-206z" />
    <glyph glyph-name="Upsilontonos" unicode="&#x38e;" horiz-adv-x="1728" 
d="M900 450l-518 950h327l353 -631l344 631h329l-509 -941v-459h-326v450zM121 1503h300l-195 -289h-206z" />
    <glyph glyph-name="Omegatonos" unicode="&#x38f;" horiz-adv-x="1818" 
d="M1074 285q69 38 121 88.5t87 108t52.5 120t17.5 125.5q0 85 -29.5 161.5t-85.5 134t-136 91.5t-181 34q-100 0 -180 -34t-135.5 -91.5t-85 -133.5t-29.5 -161q0 -64 17.5 -127t52.5 -120.5t87 -107.5t121 -88v-285h-695v257h384q-59 46 -106.5 105t-81 125.5t-51.5 138
t-18 142.5q0 92 25 175.5t70.5 155.5t110.5 130.5t145 99.5t173.5 63.5t195.5 22.5q154 0 286 -49.5t229 -136t152 -205t55 -256.5q0 -71 -18 -142.5t-51.5 -138t-81 -125.5t-105.5 -105h382v-257h-694v285zM110 1503h300l-195 -289h-206z" />
    <glyph glyph-name="iotadieresistonos" unicode="&#x390;" horiz-adv-x="715" 
d="M486 374q0 -60 26.5 -88t69.5 -28q24 0 49.5 8.5t53.5 22.5l30 -254q-51 -24 -103 -37t-102 -13q-69 0 -131 23t-108.5 68.5t-74 115t-27.5 162.5v722h317v-702zM46 1244q-30 0 -55.5 10t-44 28.5t-29 43.5t-10.5 55t10.5 55.5t29 44t44 29t55.5 10.5t55.5 -10.5t44 -29
t29 -44t10.5 -55.5t-10.5 -55t-29 -43.5t-44 -28.5t-55.5 -10zM269 1531h300l-196 -289h-206zM668 1244q-30 0 -55.5 10t-44 28.5t-29 43.5t-10.5 55t10.5 55.5t29 44t44 29t55.5 10.5t55.5 -10.5t44 -29t29 -44t10.5 -55.5t-10.5 -55t-29 -43.5t-44 -28.5t-55.5 -10z" />
    <glyph glyph-name="Alpha" unicode="&#x391;" horiz-adv-x="1533" 
d="M-19 0l624 1400h321l626 -1400h-340l-124 299h-649l-124 -299h-334zM986 546l-222 534l-222 -534h444z" />
    <glyph glyph-name="Beta" unicode="&#x392;" horiz-adv-x="1426" 
d="M798 1400q116 0 209.5 -24.5t159 -70t101 -111t35.5 -146.5q0 -56 -17 -105.5t-48.5 -89.5t-76 -68.5t-100.5 -43.5q68 -13 121.5 -44t91.5 -76.5t58 -104.5t20 -128q0 -90 -37 -162t-106 -122t-167.5 -77t-221.5 -27h-670v1400h648zM781 257q109 -1 171 44t62 127
q0 77 -62 120.5t-171 42.5h-304v-334h304zM781 835q87 0 136.5 41t49.5 116q0 72 -49.5 112t-136.5 39h-304v-308h304z" />
    <glyph glyph-name="Gamma" unicode="&#x393;" horiz-adv-x="1186" 
d="M174 0v1400h987l-1 -265h-666l2 -1135h-322z" />
    <glyph glyph-name="uni0394" unicode="&#x394;" horiz-adv-x="1524" 
d="M601 1400h335l595 -1400h-1538zM1088 237l-330 835l-332 -835h662z" />
    <glyph glyph-name="Epsilon" unicode="&#x395;" horiz-adv-x="1338" 
d="M150 1400h1074v-262h-747v-305h673v-261h-673v-310h769v-262h-1096v1400z" />
    <glyph glyph-name="Zeta" unicode="&#x396;" horiz-adv-x="1345" 
d="M86 1400h1186v-212l-773 -925h784v-263h-1223v212l774 924h-748v264z" />
    <glyph glyph-name="Eta" unicode="&#x397;" horiz-adv-x="1573" 
d="M150 1400h327v-586h619v586h327v-1400h-327v554h-619v-554h-327v1400z" />
    <glyph glyph-name="Theta" unicode="&#x398;" horiz-adv-x="1688" 
d="M845 -24q-105 0 -203 23.5t-183.5 67.5t-155.5 108t-120 144t-77.5 176t-27.5 205q0 163 60.5 296.5t164.5 228.5t243.5 147t297.5 52q159 0 298 -52t243 -146.5t164 -228t60 -297.5q0 -163 -60 -296.5t-163.5 -228.5t-242.5 -147t-298 -52zM1163 829v-247h-631v247h631z
M844 252q97 0 177.5 34t138 94t89.5 142t32 178t-32 178t-89.5 142t-138 94t-177.5 34t-177.5 -34t-138 -94t-89.5 -142t-32 -178t32 -178t89.5 -142t138 -94t177.5 -34z" />
    <glyph glyph-name="Iota" unicode="&#x399;" horiz-adv-x="628" 
d="M150 1400h327v-1400h-327v1400z" />
    <glyph glyph-name="Kappa" unicode="&#x39a;" horiz-adv-x="1479" 
d="M150 1400h327v-656l568 656h380l-527 -583l561 -817h-392l-394 569l-196 -216v-353h-327v1400z" />
    <glyph glyph-name="Lambda" unicode="&#x39b;" horiz-adv-x="1533" 
d="M-19 0l624 1400h321l626 -1400h-340l-448 1080l-449 -1080h-334z" />
    <glyph glyph-name="Mu" unicode="&#x39c;" horiz-adv-x="1878" 
d="M150 1400h361l430 -862l426 862h361v-1400h-293l-1 949l-389 -807h-211l-391 807v-949h-293v1400z" />
    <glyph glyph-name="Nu" unicode="&#x39d;" horiz-adv-x="1574" 
d="M150 1400h294l672 -903v903h307v-1400h-295l-668 898v-898h-310v1400z" />
    <glyph glyph-name="Xi" unicode="&#x39e;" horiz-adv-x="1591" 
d="M330 594v230h932v-230h-932zM166 0v263h1260v-263h-1260zM196 1135v265h1200v-265h-1200z" />
    <glyph glyph-name="Omicron" unicode="&#x39f;" horiz-adv-x="1611" 
d="M806 1420q161 0 298.5 -54.5t238 -151t158 -228t57.5 -284.5q0 -102 -26 -195.5t-74 -174t-115.5 -146t-151 -112t-181 -71.5t-204.5 -25q-161 0 -299 55.5t-239 152.5t-158 229.5t-57 286.5t57 285.5t158 227.5t239 150.5t299 54.5zM809 1146q-86 0 -163 -34t-134.5 -94
t-91 -141t-33.5 -175q0 -95 34 -177t91.5 -143t134.5 -95.5t162 -34.5q86 0 161.5 34.5t131.5 95.5t88.5 143t32.5 177q0 94 -32.5 175t-88.5 141t-131.5 94t-161.5 34z" />
    <glyph glyph-name="Pi" unicode="&#x3a0;" horiz-adv-x="1624" 
d="M174 0v1400h1275v-1400h-321v1135h-632v-1135h-322z" />
    <glyph glyph-name="Rho" unicode="&#x3a1;" horiz-adv-x="1356" 
d="M748 1400q134 0 238.5 -32.5t176.5 -94.5t109.5 -152.5t37.5 -206.5q0 -122 -37.5 -217.5t-109.5 -161t-176.5 -100t-238.5 -34.5h-271v-401h-327v1400h598zM732 663q128 0 197 60.5t69 181.5q0 117 -69 175t-197 58h-255v-475h255z" />
    <glyph glyph-name="Sigma" unicode="&#x3a3;" horiz-adv-x="1305" 
d="M84 0v249l473 455l-473 446v248l1105 2v-271l-701 -2l406 -363v-130l-397 -362h692v-272h-1105z" />
    <glyph glyph-name="Tau" unicode="&#x3a4;" horiz-adv-x="1236" 
d="M455 1135h-447v265h1220v-265h-447v-1135h-326v1135z" />
    <glyph glyph-name="Upsilon" unicode="&#x3a5;" horiz-adv-x="1353" 
d="M514 499l-543 901h346l372 -621l375 621h318l-543 -904v-496h-325v499z" />
    <glyph glyph-name="Phi" unicode="&#x3a6;" horiz-adv-x="1800" 
d="M750 91q-93 6 -183.5 23t-172 48.5t-150.5 79t-119.5 114t-79 153t-28.5 195.5q0 107 27.5 192t76.5 151t117.5 114.5t149.5 81t173 50.5t189 24v143h300v-142q94 -5 184.5 -22.5t171.5 -49.5t150 -79.5t119.5 -114t78.5 -153t28 -195.5q0 -107 -27 -193t-76 -152.5
t-116.5 -115t-149 -81t-173.5 -50.5t-190 -23v-150h-300v152zM333 704q0 -93 34 -157.5t91.5 -106.5t133 -64t158.5 -31v717q-82 -8 -157.5 -28.5t-133 -61t-92 -105.5t-34.5 -163zM1468 706q0 94 -33.5 158.5t-91 106t-133.5 63t-160 29.5v-719q83 9 158.5 29.5t133 62
t92 107t34.5 163.5z" />
    <glyph glyph-name="Chi" unicode="&#x3a7;" horiz-adv-x="1429" 
d="M522 713l-490 687h368l321 -452l316 452h352l-489 -676l522 -724h-374l-337 486l-332 -486h-372z" />
    <glyph glyph-name="Psi" unicode="&#x3a8;" horiz-adv-x="1800" 
d="M1778 1400q2 -164 3 -261t1 -129q0 -193 -95 -357q-50 -86 -121 -143t-154.5 -91.5t-176 -50.5t-185.5 -21v-408h-300v409q-199 12 -348 69q-94 36 -166.5 96t-121 137.5t-73.5 169t-24 190.5q2 63 3.5 159.5t5.5 230.5h312q-3 -161 -4 -258t-1 -132q0 -125 65 -231
q30 -48 69 -79.5t84.5 -51t96 -30t102.5 -15.5v857h300v-858q53 5 105 15t99 30t86.5 53t67.5 83q60 105 60 229q0 32 -1 128.5t-3 259.5h314z" />
    <glyph glyph-name="uni03A9" unicode="&#x3a9;" horiz-adv-x="1725" 
d="M1016 285q69 38 121 88.5t87 108t52.5 120t17.5 125.5q0 85 -29.5 161.5t-85.5 134t-136 91.5t-181 34q-100 0 -180 -34t-135.5 -91.5t-85 -133.5t-29.5 -161q0 -64 17.5 -127t52.5 -120.5t87 -107.5t121 -88v-285h-695v257h384q-59 46 -106.5 105t-81 125.5t-51.5 138
t-18 142.5q0 92 25 175.5t70.5 155.5t110.5 130.5t145 99.5t173.5 63.5t195.5 22.5q154 0 286 -49.5t229 -136t152 -205t55 -256.5q0 -71 -18 -142.5t-51.5 -138t-81 -125.5t-105.5 -105h382v-257h-694v285z" />
    <glyph glyph-name="Iotadieresis" unicode="&#x3aa;" horiz-adv-x="628" 
d="M150 1400h327v-1400h-327v1400zM127 1840q31 0 57.5 -10.5t45.5 -29.5t29.5 -45.5t10.5 -57.5t-10.5 -57t-29.5 -45.5t-45.5 -30.5t-57.5 -11t-57.5 11t-45.5 30.5t-29.5 45.5t-10.5 57t10.5 57.5t29.5 45.5t45.5 29.5t57.5 10.5zM503 1840q31 0 57 -10.5t45 -29.5
t29.5 -45.5t10.5 -57.5t-10.5 -57t-29.5 -45.5t-45 -30.5t-57 -11t-57.5 11t-46 30.5t-30 45.5t-10.5 57t10.5 57.5t30 45.5t46 29.5t57.5 10.5z" />
    <glyph glyph-name="Upsilondieresis" unicode="&#x3ab;" horiz-adv-x="1353" 
d="M514 499l-543 901h346l372 -621l375 621h318l-543 -904v-496h-325v499zM490 1798q31 0 57.5 -10.5t45.5 -29.5t29.5 -45t10.5 -58q0 -31 -10.5 -57t-29.5 -45.5t-45.5 -30.5t-57.5 -11t-57.5 11t-45.5 30.5t-29.5 45.5t-10.5 57q0 32 10.5 58t29.5 45t45.5 29.5
t57.5 10.5zM866 1798q31 0 57 -10.5t45 -29.5t29.5 -45t10.5 -58q0 -31 -10.5 -57t-29.5 -45.5t-45 -30.5t-57 -11t-57.5 11t-46 30.5t-30 45.5t-10.5 57q0 32 10.5 58t30 45t46 29.5t57.5 10.5z" />
    <glyph glyph-name="alphatonos" unicode="&#x3ac;" horiz-adv-x="1368" 
d="M896 151q-57 -79 -141.5 -121t-193.5 -42q-114 0 -207.5 40t-160 112.5t-103 175t-36.5 226.5q0 123 36 223.5t101.5 172t158 110.5t204.5 39t198 -42.5t144 -122.5v154h318v-1076h-318v151zM636 833q-58 0 -106 -22t-82.5 -61.5t-54 -94.5t-19.5 -121t19 -121
t53.5 -94.5t83 -61.5t106.5 -22t105.5 22t82 61.5t53.5 94.5t19 121t-19 121t-53.5 94.5t-82 61.5t-105.5 22zM586 1503h300l-195 -289h-206z" />
    <glyph glyph-name="epsilontonos" unicode="&#x3ad;" horiz-adv-x="1153" 
d="M612 -20q-115 0 -213.5 23.5t-170.5 67.5t-113 107t-41 142q0 87 53 148.5t150 90.5q-79 35 -126 96t-47 139q0 71 38 126.5t105 94.5t159 59.5t199 20.5q117 0 227.5 -25.5t216.5 -72.5l-76 -216q-91 37 -175.5 56t-165.5 19q-104 0 -157.5 -28.5t-53.5 -78.5t43 -76
t125 -26h194v-195h-220q-172 0 -172 -107q0 -30 16.5 -53t47 -38.5t73.5 -24t97 -8.5q100 0 196 20.5t181 61.5l84 -220q-105 -51 -227 -77t-247 -26zM625 1503h300l-195 -289h-206z" />
    <glyph glyph-name="etatonos" unicode="&#x3ae;" horiz-adv-x="1381" 
d="M798 1091q108 0 191.5 -33t140 -94.5t85.5 -149.5t29 -198v-1016h-312v969q0 130 -57 191.5t-160 61.5q-66 0 -114.5 -21.5t-80.5 -59.5t-47.5 -91.5t-15.5 -117.5v-532h-313v1076h298v-128q67 75 160 109t196 34zM689 1503h300l-195 -289h-206z" />
    <glyph glyph-name="iotatonos" unicode="&#x3af;" horiz-adv-x="670" 
d="M444 374q0 -60 26.5 -88t69.5 -28q24 0 49.5 8.5t53.5 22.5l30 -254q-51 -24 -103 -37t-102 -13q-69 0 -131 23t-108.5 68.5t-74 115t-27.5 162.5v722h317v-702zM289 1503h300l-195 -289h-206z" />
    <glyph glyph-name="upsilondieresistonos" unicode="&#x3b0;" horiz-adv-x="1368" 
d="M682 -23q-120 0 -220 33t-172.5 98.5t-112.5 162.5t-40 225v580h317v-571q0 -133 59 -201t172 -68q112 0 170.5 67.5t58.5 201.5v571h311v-580q0 -124 -38 -220.5t-108.5 -163t-171 -101t-225.5 -34.5zM373 1244q-30 0 -55.5 10t-44 28.5t-29 43.5t-10.5 55t10.5 55.5
t29 44t44 29t55.5 10.5t55.5 -10.5t44 -29t29 -44t10.5 -55.5t-10.5 -55t-29 -43.5t-44 -28.5t-55.5 -10zM596 1531h300l-196 -289h-206zM995 1244q-30 0 -55.5 10t-44 28.5t-29 43.5t-10.5 55t10.5 55.5t29 44t44 29t55.5 10.5t55.5 -10.5t44 -29t29 -44t10.5 -55.5
t-10.5 -55t-29 -43.5t-44 -28.5t-55.5 -10z" />
    <glyph glyph-name="alpha" unicode="&#x3b1;" horiz-adv-x="1370" 
d="M896 151q-57 -79 -141.5 -121t-193.5 -42q-114 0 -207.5 40t-160 112.5t-103 175t-36.5 226.5q0 123 36 223.5t101.5 172t158 110.5t204.5 39t198 -42.5t144 -122.5v154h318v-1076h-318v151zM636 833q-58 0 -106 -22t-82.5 -61.5t-54 -94.5t-19.5 -121t19 -121
t53.5 -94.5t83 -61.5t106.5 -22t105.5 22t82 61.5t53.5 94.5t19 121t-19 121t-53.5 94.5t-82 61.5t-105.5 22z" />
    <glyph glyph-name="beta" unicode="&#x3b2;" horiz-adv-x="1376" 
d="M707 -17q-76 0 -148.5 11t-143.5 32v-426h-297v1197q0 140 41 259t119 205.5t192 135.5t260 49q72 0 146 -16.5t134.5 -53t98.5 -95t38 -142.5q0 -73 -28 -130t-79 -106l-58 -56q73 -11 132 -38.5t101 -73.5t65 -111.5t23 -152.5q0 -89 -23 -159.5t-63.5 -125t-96 -93
t-122 -63t-140.5 -36t-151 -11.5zM430 326q63 -40 132 -65.5t150 -25.5q56 0 110 13t96.5 42t68.5 75t26 112q0 42 -13 72t-36 50t-54.5 29.5t-69.5 9.5q-30 0 -56 -11.5t-49 -28.5t-43 -37t-40 -37zM808 966q30 27 49 64t19 67q0 27 -13.5 46.5t-34.5 32t-46 18.5t-49 6
q-85 0 -145.5 -34t-98.5 -91t-56 -131t-18 -154v-199z" />
    <glyph glyph-name="gamma" unicode="&#x3b3;" horiz-adv-x="1196" 
d="M428 108l-464 968h335l297 -656l296 656h319l-465 -971v-505h-318v508z" />
    <glyph glyph-name="delta" unicode="&#x3b4;" horiz-adv-x="1366" 
d="M683 -11q-118 0 -222.5 37.5t-183.5 107.5t-125 170.5t-46 225.5q0 131 54.5 242.5t160.5 186.5q-22 23 -37.5 45.5t-26 47t-15.5 52.5t-5 62q0 62 22 110.5t59 85t86 62t103 41.5t109.5 23t105.5 7q48 0 101.5 -5t107 -15.5t104.5 -27.5t93 -41l-103 -217
q-77 43 -153 60t-148 17q-23 0 -57 -4t-66 -15.5t-54.5 -32t-22.5 -52.5q0 -23 12 -38t32 -25t44.5 -15t49.5 -8t47.5 -4t38.5 -3q109 -10 202.5 -52.5t162.5 -112.5t108 -165t39 -209q0 -123 -44.5 -222.5t-122 -170.5t-183 -109.5t-227.5 -38.5zM683 238q63 0 113 22.5
t85 61.5t53.5 92.5t18.5 115.5q0 60 -17.5 113t-52 93t-84.5 63t-115 23q-63 0 -113 -22.5t-85 -61.5t-54 -92.5t-19 -115.5q0 -60 18 -113t52.5 -93t85 -63t114.5 -23z" />
    <glyph glyph-name="epsilon" unicode="&#x3b5;" horiz-adv-x="1174" 
d="M612 -20q-115 0 -213.5 23.5t-170.5 67.5t-113 107t-41 142q0 87 53 148.5t150 90.5q-79 35 -126 96t-47 139q0 71 38 126.5t105 94.5t159 59.5t199 20.5q117 0 227.5 -25.5t216.5 -72.5l-76 -216q-91 37 -175.5 56t-165.5 19q-104 0 -157.5 -28.5t-53.5 -78.5t43 -76
t125 -26h194v-195h-220q-172 0 -172 -107q0 -30 16.5 -53t47 -38.5t73.5 -24t97 -8.5q100 0 196 20.5t181 61.5l84 -220q-105 -51 -227 -77t-247 -26z" />
    <glyph glyph-name="zeta" unicode="&#x3b6;" horiz-adv-x="1110" 
d="M1030 1171q-130 -140 -238.5 -262.5t-185.5 -225t-117 -183.5t-33.5 -136.5t64 -85t175.5 -29.5q94 0 159 -25t104.5 -70t55.5 -106t12 -133.5t-27 -152.5t-60 -162h-301q233 401 -27 401q-50 0 -104.5 4.5t-107.5 16t-101.5 32t-86.5 52.5t-62.5 77t-29.5 106
q-31 286 528 877h-479v252h862v-247z" />
    <glyph glyph-name="eta" unicode="&#x3b7;" horiz-adv-x="1383" 
d="M798 1091q108 0 191.5 -33t140 -94.5t85.5 -149.5t29 -198v-1016h-312v969q0 130 -57 191.5t-160 61.5q-66 0 -114.5 -21.5t-80.5 -59.5t-47.5 -91.5t-15.5 -117.5v-532h-313v1076h298v-128q67 75 160 109t196 34z" />
    <glyph glyph-name="theta" unicode="&#x3b8;" horiz-adv-x="1484" 
d="M740 -24q-151 0 -272 53.5t-205.5 148t-129.5 223.5t-45 279q0 147 44 275t128 223.5t205 150.5t274 55q152 0 274 -53t207.5 -146.5t131 -222.5t45.5 -282q0 -149 -44.5 -277.5t-129 -223.5t-206.5 -149t-277 -54zM739 252q79 0 140.5 23.5t106.5 66t73.5 101
t40.5 127.5h-724q12 -69 40.5 -127t73.5 -100.5t107 -66.5t142 -24zM739 1108q-78 0 -139 -22.5t-106 -63.5t-73.5 -97t-42.5 -124h720q-13 66 -41.5 122t-73 97.5t-105.5 64.5t-139 23z" />
    <glyph glyph-name="iota" unicode="&#x3b9;" horiz-adv-x="670" 
d="M444 374q0 -60 26.5 -88t69.5 -28q24 0 49.5 8.5t53.5 22.5l30 -254q-51 -24 -103 -37t-102 -13q-69 0 -131 23t-108.5 68.5t-74 115t-27.5 162.5v722h317v-702z" />
    <glyph glyph-name="kappa" unicode="&#x3ba;" horiz-adv-x="1244" 
d="M156 1075h317v-418l383 418h362l-397 -415l412 -660h-377l-251 434l-132 -138v-296h-317v1075z" />
    <glyph glyph-name="lambda" unicode="&#x3bb;" horiz-adv-x="1197" 
d="M280 1479q89 0 157.5 -22t122 -65t94.5 -106t74 -144l484 -1142h-299l-304 730l-302 -730h-323l466 1084l-5 10q-13 31 -28.5 56t-36 42t-47 26.5t-62.5 9.5q-47 0 -93.5 -18.5t-83.5 -50.5l-115 222q29 25 65.5 43.5t76.5 30.5t80.5 18t78.5 6z" />
    <glyph glyph-name="uni03BC" unicode="&#x3bc;" horiz-adv-x="1373" 
d="M144 1076h313v-561q0 -55 11.5 -102.5t37 -83t67 -55.5t102.5 -20q64 0 111 22.5t77.5 61.5t45.5 92t15 114v532h312v-1076h-282v135q-45 -71 -116.5 -110.5t-165.5 -39.5q-129 0 -215 69v-454h-313v1476z" />
    <glyph glyph-name="nu" unicode="&#x3bd;" horiz-adv-x="1120" 
d="M-7 1075h329l247 -785l247 785h318l-407 -1075h-327z" />
    <glyph glyph-name="xi" unicode="&#x3be;" horiz-adv-x="1036" 
d="M865 562h-115q-70 0 -140.5 -3.5t-127.5 -20t-92.5 -52t-35.5 -99.5q0 -69 64 -103.5t188 -34.5q82 0 147 -15t110 -48.5t69 -87.5t24 -133q0 -72 -21.5 -162.5t-66.5 -202.5h-299q107 188 107 286q0 36 -10 58t-29 34t-46 16.5t-61 4.5q-103 0 -189 20.5t-147.5 65
t-95.5 115.5t-34 173q0 333 349 334q-298 0 -298 225q0 222 268 222h-290v263h839v-263q-39 0 -89.5 -1t-103.5 -6t-104 -15.5t-91.5 -29.5t-65 -47.5t-24.5 -69.5q0 -136 207 -136h204v-287z" />
    <glyph glyph-name="omicron" unicode="&#x3bf;" 
d="M635 1086q130 0 237 -39.5t183 -111.5t117.5 -173t41.5 -224t-41.5 -224t-117.5 -173.5t-183 -112t-237 -39.5q-131 0 -238 39.5t-183.5 112t-118 173.5t-41.5 224t41.5 224t118 173t183.5 111.5t238 39.5zM635 832q-58 0 -106 -21.5t-82.5 -61t-53.5 -94t-19 -120.5
q0 -67 19 -122t53.5 -94.5t82.5 -61t106 -21.5t105.5 21.5t82 61t53.5 94.5t19 122q0 66 -19 120.5t-53.5 94t-82 61t-105.5 21.5z" />
    <glyph glyph-name="pi" unicode="&#x3c0;" horiz-adv-x="1356" 
d="M1228 1076v-1076h-313v842h-474v-842h-313v1076h1100z" />
    <glyph glyph-name="rho" unicode="&#x3c1;" horiz-adv-x="1318" 
d="M671 -12q-36 0 -73.5 3.5t-74.5 12t-72 22.5t-64 35v-461h-307v942q0 127 46.5 229t127 174t188 111t229.5 39q123 0 230.5 -38.5t187.5 -110.5t126 -174.5t46 -229.5t-46 -229.5t-126 -174.5t-187.5 -111t-230.5 -39zM671 244q65 0 116 23t86 63.5t53.5 95t18.5 116.5
t-18.5 116.5t-53.5 94.5t-85.5 63t-115.5 23t-116 -23t-86.5 -63t-54 -94.5t-18.5 -116.5t18.5 -116t54 -94.5t86.5 -64t115 -23.5z" />
    <glyph glyph-name="uni03C2" unicode="&#x3c2;" horiz-adv-x="1066" 
d="M611 0q-123 0 -225.5 37.5t-176 107.5t-114.5 168.5t-41 221.5t40 224.5t113 174t174.5 112.5t225.5 40q158 0 278.5 -58.5t192.5 -166.5l-219 -149q-42 54 -101.5 84t-136.5 30q-55 0 -100.5 -21t-78 -59t-50.5 -91.5t-18 -118.5q0 -66 22 -116.5t59 -84t86 -51
t104 -17.5q84 0 154 -22.5t120 -65t77.5 -103.5t27.5 -139q0 -42 -7 -85.5t-18.5 -87t-27 -85t-32.5 -79.5h-301q111 187 111 287q0 113 -138 113z" />
    <glyph glyph-name="sigma" unicode="&#x3c3;" horiz-adv-x="1410" 
d="M665 -15q-124 0 -232 39.5t-187.5 112t-125.5 174.5t-46 227q0 131 47.5 233t128.5 171.5t189 105.5t229 36q60 0 119 -0.5t119 -0.5h430v-220h-183q51 -68 76.5 -150t25.5 -175q0 -129 -47 -231.5t-127.5 -174t-187.5 -109.5t-228 -38zM665 241q64 0 114.5 23t86 63
t54.5 94t19 117q0 62 -18 116t-52.5 94t-86 63.5t-117.5 23.5q-64 0 -114.5 -23t-86 -62.5t-54.5 -94t-19 -117.5q0 -61 18 -115t53 -94.5t86 -64t117 -23.5z" />
    <glyph glyph-name="tau" unicode="&#x3c4;" horiz-adv-x="1196" 
d="M1148 1076v-258h-383v-818h-333v819h-384v257h1100z" />
    <glyph glyph-name="upsilon" unicode="&#x3c5;" horiz-adv-x="1370" 
d="M682 -23q-120 0 -220 33t-172.5 98.5t-112.5 162.5t-40 225v580h317v-571q0 -133 59 -201t172 -68q112 0 170.5 67.5t58.5 201.5v571h311v-580q0 -124 -38 -220.5t-108.5 -163t-171 -101t-225.5 -34.5z" />
    <glyph glyph-name="phi" unicode="&#x3c6;" horiz-adv-x="1657" 
d="M672 -9q-88 8 -159 26.5t-128 46.5q-74 38 -133 85t-99.5 105.5t-62 129.5t-21.5 156q0 160 79 282q44 68 103 116t127 80t143.5 49.5t152.5 24.5v227h307v-226q180 -17 292 -71q150 -72 232.5 -193t82.5 -290q0 -85 -21.5 -156t-62 -129.5t-99.5 -105t-133 -84.5
q-56 -29 -127.5 -47t-159.5 -27l1 -390h-315zM399 369q24 -32 55.5 -55t67 -39.5t74 -26.5t76.5 -16l1 620q-63 -9 -121.5 -31.5t-103.5 -60t-72 -91t-27 -125.5q0 -110 50 -175zM1306 542q0 71 -26.5 124.5t-71 91t-103 60.5t-123.5 33l2 -618q35 5 65.5 12.5t56.5 17.5
q98 41 149 105.5t51 173.5z" />
    <glyph glyph-name="chi" unicode="&#x3c7;" horiz-adv-x="1190" 
d="M438 341l-415 735h350l228 -470l233 470h333l-416 -725l432 -751h-356l-236 485l-241 -485h-343z" />
    <glyph glyph-name="psi" unicode="&#x3c8;" horiz-adv-x="1599" 
d="M959 282q35 12 68 27.5t62.5 35.5t54 47t42.5 61q46 94 55 197q6 105 5 211t-10 215h299q5 -94 4.5 -200t-5.5 -226q-11 -180 -97 -342q-37 -69 -88.5 -121t-113 -89.5t-132 -62t-144.5 -37.5l1 -398h-317l1 398q-74 13 -144 38t-132 63t-113.5 90t-89.5 119
q-91 163 -100 342q-6 120 -4.5 226t9.5 200h301q-25 -217 -15 -424q8 -107 59 -199q37 -67 98 -106.5t131 -63.5l2 1036h310z" />
    <glyph glyph-name="omega" unicode="&#x3c9;" horiz-adv-x="1730" 
d="M1412 1096q60 -44 107 -106.5t79 -135.5t48.5 -151t16.5 -152q0 -112 -28.5 -214.5t-87.5 -181t-149 -125t-213 -46.5q-54 0 -102.5 13.5t-90 38.5t-74.5 60.5t-56 78.5q-22 -43 -57 -77.5t-77.5 -58.5t-91 -37t-99.5 -13q-111 0 -198.5 47t-148 123.5t-92.5 174.5
t-32 200q0 44 9 96.5t26.5 107t41.5 109t54.5 102t66 86t75.5 61.5l178 -161q-39 -32 -72 -76.5t-56.5 -94t-37 -100.5t-13.5 -96q0 -47 10 -99.5t34 -96t62.5 -72t95.5 -28.5q49 0 83.5 16.5t56.5 45t32 67.5t10 83l-1 320h285l1 -346q0 -35 6 -67t21.5 -56t41.5 -38.5
t66 -14.5q59 0 103.5 22t74.5 59t45 86t15 104q0 54 -11 108t-32.5 103.5t-53.5 93.5t-74 79z" />
    <glyph glyph-name="iotadieresis" unicode="&#x3ca;" horiz-adv-x="670" 
d="M444 374q0 -60 26.5 -88t69.5 -28q24 0 49.5 8.5t53.5 22.5l30 -254q-51 -24 -103 -37t-102 -13q-69 0 -131 23t-108.5 68.5t-74 115t-27.5 162.5v722h317v-702zM106 1519q31 0 57.5 -10.5t45.5 -29.5t29.5 -45.5t10.5 -57.5t-10.5 -57t-29.5 -45.5t-45.5 -30.5
t-57.5 -11t-57.5 11t-45.5 30.5t-29.5 45.5t-10.5 57t10.5 57.5t29.5 45.5t45.5 29.5t57.5 10.5zM482 1519q31 0 57 -10.5t45 -29.5t29.5 -45.5t10.5 -57.5t-10.5 -57t-29.5 -45.5t-45 -30.5t-57 -11t-57.5 11t-46 30.5t-30 45.5t-10.5 57t10.5 57.5t30 45.5t46 29.5
t57.5 10.5z" />
    <glyph glyph-name="upsilondieresis" unicode="&#x3cb;" horiz-adv-x="1370" 
d="M682 -23q-120 0 -220 33t-172.5 98.5t-112.5 162.5t-40 225v580h317v-571q0 -133 59 -201t172 -68q112 0 170.5 67.5t58.5 201.5v571h311v-580q0 -124 -38 -220.5t-108.5 -163t-171 -101t-225.5 -34.5zM498 1517q31 0 57.5 -10.5t45.5 -29.5t29.5 -45.5t10.5 -57.5
t-10.5 -57t-29.5 -45.5t-45.5 -30.5t-57.5 -11t-57.5 11t-45.5 30.5t-29.5 45.5t-10.5 57t10.5 57.5t29.5 45.5t45.5 29.5t57.5 10.5zM874 1517q31 0 57 -10.5t45 -29.5t29.5 -45.5t10.5 -57.5t-10.5 -57t-29.5 -45.5t-45 -30.5t-57 -11t-57.5 11t-46 30.5t-30 45.5
t-10.5 57t10.5 57.5t30 45.5t46 29.5t57.5 10.5z" />
    <glyph glyph-name="omicrontonos" unicode="&#x3cc;" horiz-adv-x="1309" 
d="M635 1086q130 0 237 -39.5t183 -111.5t117.5 -173t41.5 -224t-41.5 -224t-117.5 -173.5t-183 -112t-237 -39.5q-131 0 -238 39.5t-183.5 112t-118 173.5t-41.5 224t41.5 224t118 173t183.5 111.5t238 39.5zM635 832q-58 0 -106 -21.5t-82.5 -61t-53.5 -94t-19 -120.5
q0 -67 19 -122t53.5 -94.5t82.5 -61t106 -21.5t105.5 21.5t82 61t53.5 94.5t19 122q0 66 -19 120.5t-53.5 94t-82 61t-105.5 21.5zM646 1509h300l-195 -289h-206z" />
    <glyph glyph-name="upsilontonos" unicode="&#x3cd;" horiz-adv-x="1368" 
d="M682 -23q-120 0 -220 33t-172.5 98.5t-112.5 162.5t-40 225v580h317v-571q0 -133 59 -201t172 -68q112 0 170.5 67.5t58.5 201.5v571h311v-580q0 -124 -38 -220.5t-108.5 -163t-171 -101t-225.5 -34.5zM681 1503h300l-195 -289h-206z" />
    <glyph glyph-name="omegatonos" unicode="&#x3ce;" horiz-adv-x="1727" 
d="M1412 1096q60 -44 107 -106.5t79 -135.5t48.5 -151t16.5 -152q0 -112 -28.5 -214.5t-87.5 -181t-149 -125t-213 -46.5q-54 0 -102.5 13.5t-90 38.5t-74.5 60.5t-56 78.5q-22 -43 -57 -77.5t-77.5 -58.5t-91 -37t-99.5 -13q-111 0 -198.5 47t-148 123.5t-92.5 174.5
t-32 200q0 44 9 96.5t26.5 107t41.5 109t54.5 102t66 86t75.5 61.5l178 -161q-39 -32 -72 -76.5t-56.5 -94t-37 -100.5t-13.5 -96q0 -47 10 -99.5t34 -96t62.5 -72t95.5 -28.5q49 0 83.5 16.5t56.5 45t32 67.5t10 83l-1 320h285l1 -346q0 -35 6 -67t21.5 -56t41.5 -38.5
t66 -14.5q59 0 103.5 22t74.5 59t45 86t15 104q0 54 -11 108t-32.5 103.5t-53.5 93.5t-74 79zM861 1503h300l-195 -289h-206z" />
    <glyph glyph-name="uni0400" unicode="&#x400;" horiz-adv-x="1345" 
d="M159 1400h1074v-262h-747v-305h672v-261h-672v-310h768v-262h-1095v1400zM708 1832l207 -305l-228 -20l-257 218z" />
    <glyph glyph-name="uni0401" unicode="&#x401;" horiz-adv-x="1345" 
d="M159 1400h1074v-262h-747v-305h672v-261h-672v-310h768v-262h-1095v1400zM485 1799q31 0 57.5 -10.5t45.5 -29.5t29.5 -45t10.5 -58q0 -31 -10.5 -57t-29.5 -45.5t-45.5 -30.5t-57.5 -11t-57.5 11t-45.5 30.5t-29.5 45.5t-10.5 57q0 32 10.5 58t29.5 45t45.5 29.5
t57.5 10.5zM861 1799q31 0 57 -10.5t45 -29.5t29.5 -45t10.5 -58q0 -31 -10.5 -57t-29.5 -45.5t-45 -30.5t-57 -11t-57.5 11t-46 30.5t-30 45.5t-10.5 57q0 32 10.5 58t30 45t46 29.5t57.5 10.5z" />
    <glyph glyph-name="uni0402" unicode="&#x402;" horiz-adv-x="1699" 
d="M478 0v1135h-447v265h1273v-265h-505v-317q94 26 179.5 39t162.5 13q116 0 209 -29.5t158 -86t99.5 -140t34.5 -191.5q0 -115 -39 -197.5t-105.5 -136t-155 -78.5t-187.5 -25q-42 0 -84 4t-85 12l34 254q42 -12 90 -12q39 0 76.5 9.5t67 30t47.5 53.5t18 81
q0 46 -18 81.5t-51 60t-79 37t-102 12.5q-60 0 -128.5 -15t-141.5 -46v-548h-321z" />
    <glyph glyph-name="uni0403" unicode="&#x403;" horiz-adv-x="1186" 
d="M174 0v1400h987l-1 -265h-666l2 -1135h-322zM715 1831l277 -107l-276 -218l-228 20z" />
    <glyph glyph-name="uni0404" unicode="&#x404;" horiz-adv-x="1429" 
d="M793 -24q-158 0 -291 54t-230 150t-151 229t-54 291t54 291t151 229t230 150t291 54q187 0 335.5 -63.5t248.5 -185.5l-206 -193q-145 165 -361 165q-77 0 -143.5 -23.5t-118 -66t-87.5 -103t-52 -135.5h568v-248h-566q17 -72 53 -131t87.5 -100.5t117 -64t141.5 -22.5
q216 0 361 165l206 -193q-100 -122 -248.5 -185.5t-335.5 -63.5z" />
    <glyph glyph-name="uni0405" unicode="&#x405;" horiz-adv-x="1307" 
d="M1099 1012q-48 29 -104 54.5t-113.5 45t-114.5 31t-107 11.5q-30 0 -60.5 -5.5t-55 -19t-40 -36.5t-15.5 -57q0 -50 32 -82.5t84 -56t119 -42t136.5 -41t136.5 -53t119 -77t84 -113.5t32 -163q0 -112 -47.5 -193t-125.5 -133t-177 -76.5t-203 -24.5q-84 0 -168.5 15
t-164.5 44t-154 71t-136 96l130 256q50 -45 111 -83.5t126.5 -67t132.5 -45t127 -16.5q36 0 72.5 7t65 23t46.5 43t18 67q0 51 -32 84t-84 56t-119 41.5t-136.5 40t-136.5 50.5t-119 74.5t-84 111t-32 159.5q0 105 44.5 183.5t119.5 130.5t174 77.5t207 25.5q72 0 144 -10.5
t141 -30t133 -48t120 -64.5z" />
    <glyph glyph-name="uni0406" unicode="&#x406;" horiz-adv-x="670" 
d="M174 0v1400h322v-1400h-322z" />
    <glyph glyph-name="uni0407" unicode="&#x407;" horiz-adv-x="657" 
d="M166 0v1400h325v-1400h-325zM531 1524q-29 0 -54.5 10t-44 28t-29.5 43.5t-11 56.5t11 56.5t29.5 43.5t44 28t54.5 10t54.5 -10t44.5 -28t29.5 -43.5t10.5 -56.5t-10.5 -56.5t-29.5 -43.5t-44.5 -28t-54.5 -10zM126 1524q-29 0 -54.5 10t-44.5 28t-30 43.5t-11 56.5
t11 56.5t30 43.5t44.5 28t54.5 10t54.5 -10t44.5 -28t29.5 -43.5t10.5 -56.5t-10.5 -56.5t-29.5 -43.5t-44.5 -28t-54.5 -10z" />
    <glyph glyph-name="uni0408" unicode="&#x408;" horiz-adv-x="1137" 
d="M984 447q0 -110 -33 -195.5t-94.5 -144.5t-149 -90t-196.5 -31q-143 0 -259 57t-206 161l151 222q75 -78 153 -116.5t143 -38.5q76 0 119 46.5t43 137.5v945h329v-953z" />
    <glyph glyph-name="uni0409" unicode="&#x409;" horiz-adv-x="2370" 
d="M188 -21q-70 0 -160 21l19 274q16 -5 30 -6.5t28 -1.5q62 0 102.5 38t65 110.5t36.5 177.5t17 239l19 569h1078v-460h357q126 0 225 -28.5t166.5 -85t103 -141t35.5 -197.5q0 -120 -39.5 -211.5t-114 -153t-181.5 -92.5t-242 -31h-631v1135h-480l-10 -292
q-6 -205 -27 -366t-68.5 -271.5t-126.5 -168.5t-202 -58zM1714 240q127 0 198 62t71 180q0 58 -18.5 99t-53 67.5t-84.5 39t-113 12.5h-291v-460h291z" />
    <glyph glyph-name="uni040A" unicode="&#x40a;" horiz-adv-x="2342" 
d="M174 0v1400h322v-526h614v526h321v-515h353q119 0 212.5 -28.5t158 -83.5t98 -135t33.5 -182q0 -108 -37 -193t-106 -143.5t-168.5 -89t-224.5 -30.5h-640v609h-614v-609h-322zM1431 240h282q116 0 180.5 53t64.5 152q0 98 -63.5 148.5t-181.5 50.5h-282v-404z" />
    <glyph glyph-name="uni040B" unicode="&#x40b;" horiz-adv-x="1713" 
d="M476 0v1135h-446v265h1258v-265h-491v-340q92 29 175.5 43t161.5 14q115 0 208 -30.5t159 -92.5t102 -156.5t36 -223.5v-349h-321v308q0 68 -18.5 119t-52.5 84.5t-82 50t-107 16.5q-115 0 -261 -64v-514h-321z" />
    <glyph glyph-name="uni040C" unicode="&#x40c;" horiz-adv-x="1471" 
d="M1079 0l-363 564h-223v-564h-323v1400h323v-566h231l368 566h343l-458 -677l471 -723h-369zM817 1831l277 -107l-276 -218l-228 20z" />
    <glyph glyph-name="uni040D" unicode="&#x40d;" horiz-adv-x="1643" 
d="M174 0v1400h322v-912l668 912h304v-1400h-321v910l-667 -910h-306zM756 1831l207 -305l-228 -20l-257 218z" />
    <glyph glyph-name="uni040E" unicode="&#x40e;" horiz-adv-x="1448" 
d="M223 262q39 -12 73 -18.5t65 -6.5q60 0 108 28t90 91l10 16l-551 1028h346l372 -752l384 752h318l-595 -1107q-87 -165 -207.5 -245.5t-263.5 -80.5q-109 0 -228 49zM715 1516q-353 0 -354 312h204q2 -69 38 -109t110 -40q72 0 110.5 40t39.5 109h209q-2 -158 -91 -235
t-266 -77z" />
    <glyph glyph-name="uni040F" unicode="&#x40f;" horiz-adv-x="1616" 
d="M1442 1400v-1400h-484v-297h-300v297h-484v1400h322v-1135h624v1135h322z" />
    <glyph glyph-name="uni0410" unicode="&#x410;" horiz-adv-x="1599" 
d="M633 1400h336l595 -1400h-349l-108 274h-634l-109 -274h-338zM1007 526l-216 547l-218 -547h434z" />
    <glyph glyph-name="uni0411" unicode="&#x411;" horiz-adv-x="1476" 
d="M174 0v1400h1129v-259h-807v-287h389q254 0 386.5 -105.5t132.5 -307.5q0 -105 -38 -187t-110.5 -138.5t-177.5 -86t-240 -29.5h-664zM496 240h323q126 0 191.5 49t65.5 143q0 183 -257 183h-323v-375z" />
    <glyph glyph-name="uni0412" unicode="&#x412;" horiz-adv-x="1490" 
d="M174 0v1400h653q121 0 216.5 -24t162 -70t101.5 -113.5t35 -154.5q0 -109 -52 -186.5t-146 -121.5q128 -38 195.5 -122t67.5 -214q0 -91 -35 -164t-103.5 -124t-169.5 -78.5t-234 -27.5h-691zM496 240h356q112 0 169.5 44t57.5 135q0 90 -57.5 132t-169.5 42h-356v-353z
M496 821h302q106 0 160 42t54 126t-54 127.5t-160 43.5h-302v-339z" />
    <glyph glyph-name="uni0413" unicode="&#x413;" horiz-adv-x="1186" 
d="M174 0v1400h987l-1 -265h-666l2 -1135h-322z" />
    <glyph glyph-name="uni0414" unicode="&#x414;" horiz-adv-x="1662" 
d="M30 -291l2 556h54q69 2 114 56t72 147t40 220t18 274l16 438h1076v-1135h196v-556h-300v291h-986l-2 -291h-300zM616 933q-4 -111 -13 -213.5t-24.5 -189t-40 -154.5t-60.5 -111h623v870h-478z" />
    <glyph glyph-name="uni0415" unicode="&#x415;" horiz-adv-x="1345" 
d="M159 1400h1074v-262h-747v-305h672v-261h-672v-310h768v-262h-1095v1400z" />
    <glyph glyph-name="uni0416" unicode="&#x416;" horiz-adv-x="2159" 
d="M1757 0l-313 564h-204v-564h-318v564h-207l-313 -564h-377l420 733l-393 667h344l312 -566h214v566h318v-566h208l315 566h343l-391 -668l419 -732h-377z" />
    <glyph glyph-name="uni0417" unicode="&#x417;" horiz-adv-x="1313" 
d="M148 354q98 -58 208.5 -86t213.5 -28q68 0 128.5 13t105.5 38t71 62t26 86q0 40 -17 69t-48.5 48.5t-76 29t-98.5 9.5h-342v246h316q100 0 154.5 39.5t54.5 109.5q0 43 -21.5 75.5t-59 54.5t-88.5 33.5t-110 11.5q-88 0 -187.5 -25t-191.5 -76l-99 252q115 58 237.5 86
t242.5 28q122 0 231.5 -27t193 -78.5t132.5 -126.5t49 -170q0 -102 -53.5 -179.5t-146.5 -119.5q60 -21 107.5 -54t81 -76t51 -95t17.5 -111q0 -99 -50.5 -176.5t-136.5 -131.5t-200 -82t-241 -28q-139 0 -282 35.5t-272 111.5z" />
    <glyph glyph-name="uni0418" unicode="&#x418;" horiz-adv-x="1643" 
d="M174 0v1400h322v-912l668 912h304v-1400h-321v910l-667 -910h-306z" />
    <glyph glyph-name="uni0419" unicode="&#x419;" horiz-adv-x="1643" 
d="M174 0v1400h322v-912l668 912h304v-1400h-321v910l-667 -910h-306zM824 1491q-199 0 -292.5 79.5t-94.5 226.5h223q2 -146 164 -146t167 146h221q-1 -147 -95.5 -226.5t-292.5 -79.5z" />
    <glyph glyph-name="uni041A" unicode="&#x41a;" horiz-adv-x="1471" 
d="M1079 0l-363 564h-223v-564h-323v1400h323v-566h231l368 566h343l-458 -677l471 -723h-369z" />
    <glyph glyph-name="uni041B" unicode="&#x41b;" horiz-adv-x="1597" 
d="M188 -21q-70 0 -160 21l19 274q16 -5 30 -6.5t28 -1.5q62 0 102.5 38t65 110.5t36.5 177.5t17 239l19 569h1078v-1400h-321v1135h-480l-10 -292q-6 -205 -27 -366t-68.5 -271.5t-126.5 -168.5t-202 -58z" />
    <glyph glyph-name="uni041C" unicode="&#x41c;" horiz-adv-x="1926" 
d="M174 0v1400h268l525 -870l515 870h268l2 -1400h-304l-2 837l-411 -688h-146l-411 673v-822h-304z" />
    <glyph glyph-name="uni041D" unicode="&#x41d;" horiz-adv-x="1634" 
d="M159 1400h327v-586h619v586h327v-1400h-327v554h-619v-554h-327v1400z" />
    <glyph glyph-name="uni041E" unicode="&#x41e;" horiz-adv-x="1684" 
d="M804 1420q161 0 298.5 -54.5t238 -151t158 -228t57.5 -284.5q0 -102 -26 -195.5t-74 -174t-115.5 -146t-151 -112t-181 -71.5t-204.5 -25q-161 0 -299 55.5t-239 152.5t-158 229.5t-57 286.5t57 285.5t158 227.5t239 150.5t299 54.5zM807 1146q-86 0 -163 -34t-134.5 -94
t-91 -141t-33.5 -175q0 -95 34 -177t91.5 -143t134.5 -95.5t162 -34.5q86 0 161.5 34.5t131.5 95.5t88.5 143t32.5 177q0 94 -32.5 175t-88.5 141t-131.5 94t-161.5 34z" />
    <glyph glyph-name="uni041F" unicode="&#x41f;" horiz-adv-x="1624" 
d="M174 0v1400h1275v-1400h-321v1135h-632v-1135h-322z" />
    <glyph glyph-name="uni0420" unicode="&#x420;" horiz-adv-x="1449" 
d="M757 1400q134 0 238.5 -32.5t176.5 -94.5t109.5 -152.5t37.5 -206.5q0 -122 -37.5 -217.5t-109.5 -161t-176.5 -100t-238.5 -34.5h-271v-401h-327v1400h598zM741 663q128 0 197 60.5t69 181.5q0 117 -69 175t-197 58h-255v-475h255z" />
    <glyph glyph-name="uni0421" unicode="&#x421;" horiz-adv-x="1452" 
d="M1164 963q-36 42 -78.5 76t-89.5 58t-96 37t-97 13q-88 0 -164 -33.5t-132 -93t-88 -140t-32 -173.5t32 -174t88 -141t132 -94t164 -34q47 0 95 11.5t94.5 33.5t90 52.5t81.5 69.5l191 -202q-55 -57 -122.5 -103.5t-141 -79.5t-151 -50.5t-154.5 -17.5q-157 0 -291 55.5
t-232 153t-154 230t-56 286.5q0 153 57 284t156.5 227.5t236 151t295.5 54.5q77 0 153.5 -16.5t148.5 -46.5t137 -73t117 -97z" />
    <glyph glyph-name="uni0422" unicode="&#x422;" horiz-adv-x="1274" 
d="M476 0v1135h-446v265h1214v-265h-447v-1135h-321z" />
    <glyph glyph-name="uni0423" unicode="&#x423;" horiz-adv-x="1448" 
d="M223 262q39 -12 73 -18.5t65 -6.5q60 0 108 28t90 91l10 16l-551 1028h346l372 -752l384 752h318l-595 -1107q-87 -165 -207.5 -245.5t-263.5 -80.5q-109 0 -228 49z" />
    <glyph glyph-name="uni0424" unicode="&#x424;" horiz-adv-x="1901" 
d="M801 -61v152q-177 11 -314 56.5t-230 123.5t-141 186.5t-48 246.5t48 246.5t141 186.5t230 123.5t314 56.5v143h300v-143q177 -10 313.5 -56t229.5 -124t141 -187t48 -246q0 -138 -48 -247.5t-141 -188t-229.5 -124t-313.5 -54.5v-151h-300zM384 704q0 -163 107.5 -250.5
t309.5 -108.5v717q-212 -20 -314.5 -107.5t-102.5 -250.5zM1519 706q0 162 -105 250t-313 107v-719q212 20 315 109t103 253z" />
    <glyph glyph-name="uni0425" unicode="&#x425;" horiz-adv-x="1444" 
d="M52 1400h374l290 -425l290 425h379l-465 -670l505 -730h-385l-324 464l-322 -464h-375l502 716z" />
    <glyph glyph-name="uni0426" unicode="&#x426;" horiz-adv-x="1683" 
d="M1343 -297v297h-1169v1400h322v-1135h624v1135h322v-1135h201v-562h-300z" />
    <glyph glyph-name="uni0427" unicode="&#x427;" horiz-adv-x="1499" 
d="M1003 0v504q-181 -66 -338 -66q-141 0 -249 34t-182 100.5t-112 164t-38 224.5v439h322v-402q0 -144 76.5 -216.5t222.5 -72.5q79 0 154.5 15.5t143.5 46.5v629h321v-1400h-321z" />
    <glyph glyph-name="uni0428" unicode="&#x428;" horiz-adv-x="2196" 
d="M938 265v1135h322v-1135h440v1135h322v-1400h-1848v1400h322v-1135h442z" />
    <glyph glyph-name="uni0429" unicode="&#x429;" horiz-adv-x="2260" 
d="M1913 -291v291h-1739v1400h322v-1135h442v1135h322v-1135h440v1135h322v-1135h191v-556h-300z" />
    <glyph glyph-name="uni042A" unicode="&#x42a;" horiz-adv-x="1690" 
d="M1102 940q126 0 224.5 -28.5t166 -85t103 -141t35.5 -197.5q0 -120 -39.5 -211.5t-114 -153t-181.5 -92.5t-242 -31h-631v1135h-393v265h714v-460h358zM1036 240q126 0 196.5 62t70.5 180q0 58 -18 99t-52.5 67.5t-84 39t-112.5 12.5h-292v-460h292z" />
    <glyph glyph-name="uni042B" unicode="&#x42b;" horiz-adv-x="2057" 
d="M853 940q126 0 225 -28.5t166.5 -85t103 -141t35.5 -197.5q0 -120 -39.5 -211.5t-114 -153t-181.5 -92.5t-242 -31h-632v1400h322v-460h357zM787 240q126 0 197.5 62t71.5 180q0 58 -18.5 99t-53 67.5t-84.5 39t-113 12.5h-291v-460h291zM1561 0v1400h322v-1400h-322z
" />
    <glyph glyph-name="uni042C" unicode="&#x42c;" horiz-adv-x="1443" 
d="M853 940q126 0 225 -28.5t166.5 -85t103 -141t35.5 -197.5q0 -120 -39.5 -211.5t-114 -153t-181.5 -92.5t-242 -31h-632v1400h322v-460h357zM787 240q126 0 197.5 62t71.5 180q0 58 -18.5 99t-53 67.5t-84.5 39t-113 12.5h-291v-460h291z" />
    <glyph glyph-name="uni042D" unicode="&#x42d;" horiz-adv-x="1428" 
d="M622 1424q158 0 291 -54t230 -150t151 -229t54 -291t-54 -291t-151 -229t-230 -150t-291 -54q-187 0 -335.5 63.5t-248.5 185.5l206 193q147 -165 361 -165q78 0 144.5 23.5t118.5 67t87.5 104.5t51.5 136h-569v248h565q-18 72 -54 130t-87 99t-116 63.5t-141 22.5
q-214 0 -361 -165l-206 193q100 122 248.5 185.5t335.5 63.5z" />
    <glyph glyph-name="uni042E" unicode="&#x42e;" horiz-adv-x="2229" 
d="M174 0v1400h322v-550h188q24 127 88 232.5t159.5 181.5t217 118t261.5 42q160 0 295.5 -54.5t234.5 -151t154.5 -229t55.5 -289.5t-55.5 -289.5t-154.5 -229t-234.5 -151t-295.5 -54.5q-143 0 -266.5 43.5t-219.5 122t-159 188t-85 240.5h-184v-570h-322zM1410 253
q87 0 162 32t130.5 91t87 141.5t31.5 182.5q0 101 -31.5 183t-87 141t-130.5 91t-162 32t-162 -32t-130.5 -91t-87 -141t-31.5 -183q0 -100 31.5 -182.5t87 -141.5t130.5 -91t162 -32z" />
    <glyph glyph-name="uni042F" unicode="&#x42f;" horiz-adv-x="1468" 
d="M972 0v372h-297l-246 -372h-343l293 422q-143 57 -219.5 173t-76.5 282q0 123 42.5 220t121.5 164.5t190.5 103t250.5 35.5h605v-1400h-321zM972 1136h-276q-139 0 -211.5 -63.5t-72.5 -189.5q0 -124 69.5 -189t206.5 -65h284v507z" />
    <glyph glyph-name="uni0430" unicode="&#x430;" horiz-adv-x="1208" 
d="M756 125q-54 -69 -138 -104t-196 -35q-87 0 -155.5 25t-116.5 70t-73.5 106.5t-25.5 134.5q0 75 27 135t79 102t129 64.5t176 22.5h293v20q0 86 -55.5 134t-164.5 48q-71 0 -153.5 -24t-167.5 -70l-97 208q61 31 119.5 54.5t117.5 39.5t121.5 24t132.5 8
q109 0 194.5 -26.5t144 -76t89.5 -121t32 -162.5l1 -702h-313v125zM513 206q47 0 88 12.5t73 34.5t53.5 52.5t28.5 66.5v92h-236q-87 0 -128.5 -29t-41.5 -93q0 -63 43 -99.5t120 -36.5z" />
    <glyph glyph-name="uni0431" unicode="&#x431;" horiz-adv-x="1346" 
d="M695 -24q-136 0 -247.5 44t-190.5 133t-122 222.5t-43 313.5q0 160 34 289t104.5 225.5t179 160.5t256.5 94l512 103l43 -269l-453 -90q-92 -18 -159 -47t-112.5 -72.5t-71 -102t-33.5 -135.5q70 75 165.5 116t214.5 41q117 0 211.5 -36.5t161 -102.5t103 -159t36.5 -207
q0 -117 -44 -213.5t-122 -164.5t-186 -105.5t-237 -37.5zM699 219q61 0 110 21t83.5 58t53 87.5t18.5 108.5q0 62 -19 111t-54 83.5t-83.5 53t-108.5 18.5t-110 -18.5t-85.5 -53t-55 -84t-19.5 -110.5q0 -60 20 -110.5t55.5 -87t85 -57t109.5 -20.5z" />
    <glyph glyph-name="uni0432" unicode="&#x432;" horiz-adv-x="1245" 
d="M149 0v1076h551q101 0 181 -18.5t135.5 -54t84.5 -87.5t29 -119q0 -81 -41.5 -140.5t-116.5 -94.5q191 -62 191 -256q0 -71 -27 -128t-81.5 -96.5t-137 -60.5t-193.5 -21h-575zM436 213h262q172 0 172 118q0 61 -40 90.5t-126 29.5h-268v-238zM436 634h236q81 0 122.5 30
t41.5 87q0 58 -41.5 85t-122.5 27h-236v-229z" />
    <glyph glyph-name="uni0433" unicode="&#x433;" horiz-adv-x="1028" 
d="M149 0v1076h863v-256h-551v-820h-312z" />
    <glyph glyph-name="uni0434" unicode="&#x434;" horiz-adv-x="1403" 
d="M20 -232v489h46q54 2 88 39t54 98.5t29 141.5t13 168l14 372h938v-819h155v-489h-291v232h-755v-232h-291zM533 681q-3 -68 -7.5 -131.5t-15 -118.5t-28 -99.5t-46.5 -74.5h454v563h-352z" />
    <glyph glyph-name="uni0435" unicode="&#x435;" horiz-adv-x="1286" 
d="M372 445q26 -104 97.5 -161t174.5 -57q75 0 143.5 29t124.5 86l167 -165q-82 -91 -198.5 -139.5t-263.5 -48.5q-130 0 -234.5 39.5t-178 111t-113 172t-39.5 223.5q0 124 40.5 225.5t114 173.5t175.5 112t226 40q142 0 246.5 -45t171 -128.5t95.5 -202t19 -265.5h-768z
M611 860q-49 0 -90.5 -16.5t-73 -47.5t-52.5 -74t-30 -96h475q-1 54 -17.5 97t-46.5 73.5t-72 47t-93 16.5z" />
    <glyph glyph-name="uni0436" unicode="&#x436;" horiz-adv-x="1826" 
d="M1444 0l-230 408h-146v-408h-310v408h-148l-229 -408h-370l339 557l-313 519h331l237 -418h153v418h310v-418h151l239 418h332l-315 -520l340 -556h-371z" />
    <glyph glyph-name="uni0437" unicode="&#x437;" horiz-adv-x="1125" 
d="M513 -20q-125 0 -247 26t-226 77l84 220q84 -41 180 -61.5t196 -20.5q109 0 171.5 32t62.5 92q0 107 -172 107h-220v195h194q82 0 125 26t43 76t-53 78.5t-157 28.5q-81 0 -166 -19t-176 -56l-76 216q107 47 216 73t226 26q108 0 200 -20.5t159.5 -59.5t105.5 -95
t38 -127q0 -78 -47 -139t-126 -96q97 -29 150 -90.5t53 -148.5q0 -79 -41 -142t-113 -107t-170.5 -67.5t-213.5 -23.5z" />
    <glyph glyph-name="uni0438" unicode="&#x438;" horiz-adv-x="1420" 
d="M149 0v1076h312v-639l523 639h287v-1076h-312v640l-521 -640h-289z" />
    <glyph glyph-name="uni0439" unicode="&#x439;" horiz-adv-x="1420" 
d="M149 0v1076h312v-639l523 639h287v-1076h-312v640l-521 -640h-289zM687 1192q-353 0 -354 312h204q2 -69 38 -109t110 -40q72 0 110.5 40t39.5 109h209q-2 -158 -91 -235t-266 -77z" />
    <glyph glyph-name="uni043A" unicode="&#x43a;" horiz-adv-x="1284" 
d="M911 0l-288 408h-161v-408h-313v1076h313v-418h168l292 418h332l-376 -516l402 -560h-369z" />
    <glyph glyph-name="uni043B" unicode="&#x43b;" horiz-adv-x="1332" 
d="M29 259q28 -5 47 -5q56 0 88 32.5t49 86.5t23 124.5t9 146.5l17 432h921v-1076h-313v820h-340l-9 -190q-6 -144 -23.5 -264t-55.5 -206.5t-102 -134.5t-164 -48q-35 0 -75 6.5t-86 17.5z" />
    <glyph glyph-name="uni043C" unicode="&#x43c;" horiz-adv-x="1630" 
d="M149 0v1076h328l343 -621l366 621h293l3 -1076h-282l-1 640l-320 -536h-133l-314 544v-648h-283z" />
    <glyph glyph-name="uni043D" unicode="&#x43d;" horiz-adv-x="1389" 
d="M149 0v1076h312v-419h467v419h312v-1076h-312v402h-467v-402h-312z" />
    <glyph glyph-name="uni043E" unicode="&#x43e;" horiz-adv-x="1308" 
d="M633 1086q130 0 237 -39.5t183 -111.5t117.5 -173t41.5 -224t-41.5 -224t-117.5 -173.5t-183 -112t-237 -39.5q-131 0 -238 39.5t-183.5 112t-118 173.5t-41.5 224t41.5 224t118 173t183.5 111.5t238 39.5zM633 832q-58 0 -106 -21.5t-82.5 -61t-53.5 -94t-19 -120.5
q0 -67 19 -122t53.5 -94.5t82.5 -61t106 -21.5t105.5 21.5t82 61t53.5 94.5t19 122q0 66 -19 120.5t-53.5 94t-82 61t-105.5 21.5z" />
    <glyph glyph-name="uni043F" unicode="&#x43f;" horiz-adv-x="1369" 
d="M149 0v1076h1071v-1076h-312v820h-447v-820h-312z" />
    </font>
</defs>
</svg>
