<?xml version="1.0" standalone="no"?>
<!DOCTYPE svg PUBLIC "-//W3C//DTD SVG 1.1//EN" "http://www.w3.org/Graphics/SVG/1.1/DTD/svg11.dtd" >
<svg xmlns="http://www.w3.org/2000/svg" xmlns:xlink="http://www.w3.org/1999/xlink" version="1.1">
<metadata>
Created by FontForge 20201107 at Tue Sep  9 01:05:05 2025
 By 
Copyright 2018-2025 The Argentum Sans Project Authors (cssobral2013@gmail.com - https://github.com/cssobral2013/Argentum-Sans)
Portions are:
Copyright 2011-2017 The Montserrat Project Authors (julieta.ulanovsky@gmail.com - https://github.com/JulietaUla/Montserrat)
Copyright 2016 The Jones Project Authors (https://github.com/indestructible-type/jones)
Copyright 2016 The Montserrat-G Project Authors (https://github.com/green-s/Montserrat-G)
Copyright 2023 The Montserrat-Z-Remix Project Authors (https://github.com/AndreasZorpidis/Montserrat-Z-Remix/)
</metadata>
<defs>
<font id="ArgentumSans-Light" horiz-adv-x="1295" >
  <font-face 
    font-family="Argentum Sans Light"
    font-weight="300"
    font-stretch="normal"
    units-per-em="2000"
    panose-1="0 0 0 0 0 0 0 0 0 0"
    ascent="1600"
    descent="-400"
    x-height="1053"
    cap-height="1400"
    bbox="-443 -464 2812 2076"
    underline-thickness="100"
    underline-position="-250"
    unicode-range="U+000D-FB02"
  />
<missing-glyph horiz-adv-x="1174" 
d="M80 0v1400h1014v-1400h-1014zM240 140h694v1120h-694v-1120z" />
    <glyph glyph-name="fi" unicode="fi" horiz-adv-x="1209" 
d="M857 930h-471v-930h-165v930h-137v123h137v124q0 86 28.5 151.5t75.5 110.5t109 68t128 22q20 0 41 -2.5t40 -7.5l-12 -138q-32 8 -65 8q-37 0 -70 -12.5t-57.5 -37.5t-38.5 -60.5t-14 -82.5v-143h636v-1053h-165v930zM939 1461q23 0 42.5 -8t33.5 -22t22.5 -33.5
t8.5 -42.5q0 -22 -8.5 -42t-22.5 -34t-33.5 -22.5t-42.5 -8.5q-22 0 -41.5 8.5t-34 22.5t-22.5 34t-8 42q0 46 30.5 76t75.5 30z" />
    <glyph glyph-name="fl" unicode="fl" horiz-adv-x="1273" 
d="M221 930h-137v123h137v124q0 86 28.5 151.5t75.5 110.5t109 67.5t128 22.5q100 0 173 -16t123 -34v5h165v-1215q0 -66 26.5 -98t74.5 -32q50 0 110 43l30 -125q-93 -64 -181 -64q-49 0 -90 16.5t-71 49.5t-47 81.5t-17 111.5v1081q-19 9 -46.5 18.5t-64 18t-82 14
t-99.5 5.5q-37 0 -70 -12.5t-57.5 -37.5t-38.5 -60.5t-14 -82.5v-143h297v-123h-297v-930h-165v930z" />
    <glyph glyph-name="Idieresis.double" unicode="&#xcf;&#xcf;" horiz-adv-x="1033" 
d="M233 1400h171v-1400h-171v1400zM658 1400h170v-1400h-170v1400zM149 1767q42 0 70 -27.5t28 -69.5t-28 -70.5t-70 -28.5q-21 0 -39 7.5t-31 21t-20.5 31.5t-7.5 39q0 42 28 69.5t70 27.5zM516 1767q42 0 70 -27.5t28 -69.5t-28 -70.5t-70 -28.5q-21 0 -39 7.5t-31 21
t-20.5 31.5t-7.5 39q0 42 28 69.5t70 27.5zM885 1767q42 0 69.5 -27.5t27.5 -69.5t-27.5 -70.5t-69.5 -28.5q-21 0 -39 7.5t-31.5 21t-21 31.5t-7.5 39q0 42 28.5 69.5t70.5 27.5z" />
    <glyph glyph-name="idieresis.double" unicode="&#xef;&#xef;" horiz-adv-x="973" 
d="M217 1053h166v-1053h-166v1053zM582 1053h165v-1053h-165v1053zM131 1451q21 0 38.5 -7.5t31 -20.5t21 -31t7.5 -39q0 -41 -28 -69.5t-70 -28.5q-21 0 -39 7.5t-31 21t-20.5 31.5t-7.5 38q0 42 28 70t70 28zM487 1451q21 0 38.5 -7.5t31 -20.5t21 -31t7.5 -39
q0 -41 -28 -69.5t-70 -28.5q-21 0 -39 7.5t-31 21t-20.5 31.5t-7.5 38q0 42 28 70t70 28zM843 1451q21 0 38.5 -7.5t31 -20.5t21 -31t7.5 -39q0 -41 -28 -69.5t-70 -28.5q-21 0 -39 7.5t-31 21t-20.5 31.5t-7.5 38q0 42 28 70t70 28z" />
    <glyph glyph-name=".notdef" horiz-adv-x="1174" 
d="M80 0v1400h1014v-1400h-1014zM240 140h694v1120h-694v-1120z" />
    <glyph glyph-name=".null" horiz-adv-x="0" 
 />
    <glyph glyph-name=".null" horiz-adv-x="0" 
 />
    <glyph glyph-name="uni000D" unicode="&#xd;" horiz-adv-x="600" 
 />
    <glyph glyph-name="space" unicode=" " horiz-adv-x="560" 
 />
    <glyph glyph-name="exclam" unicode="!" horiz-adv-x="408" 
d="M204 187q43 0 72 -28t29 -73t-29 -74t-72 -29t-72 29t-29 74t29 73t72 28zM124 1376h160v-337l-25 -620h-110l-25 620v337z" />
    <glyph glyph-name="quotedbl" unicode="&#x22;" horiz-adv-x="640" 
d="M120 1400h131v-449h-131v449zM389 1400h131v-449h-131v449z" />
    <glyph glyph-name="numbersign" unicode="#" horiz-adv-x="1439" 
d="M143 1017h290l47 383h127l-48 -383h397l47 383h127l-47 -383h284l-8 -122h-291l-50 -400h285l-10 -122h-290l-46 -373h-126l46 373h-397l-47 -373h-125l46 373h-287l10 122h292l49 400h-285zM892 495l49 400h-397l-49 -400h397z" />
    <glyph glyph-name="dollar" unicode="$" horiz-adv-x="1225" 
d="M553 -10q-137 9 -264.5 64.5t-226.5 149.5l77 139q45 -44 99.5 -81t114.5 -63.5t124 -41t128 -14.5q53 0 110 11t103.5 36.5t76.5 68.5t30 107q0 71 -33.5 117.5t-88.5 78.5t-125.5 54t-144 45t-144 51t-125.5 72t-88.5 108.5t-33.5 159.5q0 88 35.5 152t93.5 107.5
t132 67.5t150 32v233h131v-231q105 -7 208 -39t190 -89l-72 -143q-85 54 -187.5 85.5t-203.5 31.5q-46 0 -97 -9t-93.5 -31.5t-70 -60.5t-27.5 -95q0 -69 33.5 -114.5t88.5 -77t125.5 -53.5t143.5 -45t143.5 -52t125.5 -74t88.5 -110.5t33.5 -162.5q0 -92 -37 -160
t-97 -114.5t-137 -72.5t-158 -34v-259h-131v256z" />
    <glyph glyph-name="percent" unicode="%" horiz-adv-x="1729" 
d="M1299 747q68 0 122.5 -25.5t92 -74t57.5 -118t20 -158.5t-20 -159t-57.5 -118t-92 -73.5t-122.5 -25.5t-122.5 25.5t-92 73.5t-57.5 118t-20 159t20 158.5t57.5 118t92 74t122.5 25.5zM1314 1399h137l-1044 -1399h-138zM431 1409q68 0 122.5 -25.5t92 -74t57.5 -118
t20 -158.5t-20 -159t-57.5 -118t-92 -73.5t-122.5 -25.5t-122.5 25.5t-92 73.5t-57.5 118t-20 159t20 158.5t57.5 118t92 74t122.5 25.5zM1299 651q-85 0 -131 -73t-46 -207q0 -137 46 -208.5t131 -71.5t131.5 71.5t46.5 208.5q0 134 -46.5 207t-131.5 73zM431 1313
q-85 0 -131 -73t-46 -207q0 -137 46 -208.5t131 -71.5t131.5 71.5t46.5 208.5q0 134 -46.5 207t-131.5 73z" />
    <glyph glyph-name="ampersand" unicode="&#x26;" horiz-adv-x="1351" 
d="M1232 -21l-195 197q-90 -95 -206 -142.5t-258 -47.5q-104 0 -192 26t-151.5 73.5t-99 113.5t-35.5 146q0 63 19 120.5t60.5 110.5t107 104t159.5 101q-48 51 -81 93t-53 80.5t-28.5 75.5t-8.5 77q0 68 26.5 124t74 96t113.5 62t145 22q100 0 176 -34.5t137 -109.5
l-95 -82q-45 51 -97 79t-122 28q-51 0 -90 -13.5t-65.5 -37.5t-40.5 -57.5t-14 -74.5q0 -30 7 -57.5t25.5 -58.5t50.5 -68.5t81 -87.5l446 -453q31 60 54 133.5t38 162.5l133 -26q-40 -217 -131 -365l201 -204zM582 121q117 0 207.5 35.5t158.5 110.5l-417 423
q-80 -42 -133.5 -82t-86 -80t-46 -81t-13.5 -86q0 -54 24 -98.5t67.5 -76t104 -48.5t134.5 -17z" />
    <glyph glyph-name="quotesingle" unicode="'" horiz-adv-x="371" 
d="M120 1400h131v-449h-131v449z" />
    <glyph glyph-name="parenleft" unicode="(" horiz-adv-x="600" 
d="M552 1484q-110 -170 -171.5 -391.5t-61.5 -474.5t61.5 -474.5t171.5 -391.5h-152q-116 170 -177 391.5t-61 474.5t61 474.5t177 391.5h152z" />
    <glyph glyph-name="parenright" unicode=")" horiz-adv-x="600" 
d="M200 1484q116 -170 177 -391.5t61 -474.5t-61 -474.5t-177 -391.5h-152q110 170 171.5 391.5t61.5 474.5t-61.5 474.5t-171.5 391.5h152z" />
    <glyph glyph-name="asterisk" unicode="*" horiz-adv-x="663" 
d="M285 1443h92l-1 -216l186 110l46 -82l-187 -107l187 -107l-46 -82l-186 110l1 -215h-92l2 217l-186 -110l-48 80l187 107l-187 107l48 83l186 -111z" />
    <glyph glyph-name="plus" unicode="+" horiz-adv-x="984" 
d="M73 703h363v361h113v-361h362v-115h-362v-361h-113v361h-363v115z" />
    <glyph glyph-name="comma" unicode="," horiz-adv-x="540" 
d="M227 -2q-27 13 -40.5 36t-13.5 51q0 43 28 70.5t72 27.5q39 0 68.5 -26t29.5 -72q0 -24 -8.5 -43.5t-18.5 -40.5l-105 -228h-92z" />
    <glyph glyph-name="hyphen" unicode="-" horiz-adv-x="729" 
d="M128 663h473v-115h-473v115z" />
    <glyph glyph-name="period" unicode="." horiz-adv-x="540" 
d="M271 187q44 0 73 -28t29 -73t-29 -74t-73 -29q-43 0 -72 29t-29 74t29 73t72 28z" />
    <glyph glyph-name="slash" unicode="/" horiz-adv-x="637" 
d="M601 1640h145l-627 -1884h-144z" />
    <glyph glyph-name="zero" unicode="0" horiz-adv-x="1268" 
d="M636 1407q103 0 182.5 -27.5t139 -76.5t100.5 -116t66 -145.5t36 -165.5t11 -176t-11 -176t-36 -165.5t-66 -145.5t-100.5 -116t-139 -77t-182.5 -28t-183.5 28t-140 77t-100.5 116t-66 145.5t-36 165.5t-11 176t11 176t36 165.5t66 145.5t100.5 116t140 76.5t183.5 27.5
zM636 1275q-77 0 -133.5 -26t-96.5 -69.5t-65.5 -101.5t-39.5 -121.5t-19.5 -129t-5.5 -125.5t5.5 -126.5t20 -130.5t39.5 -122.5t65 -102.5t96.5 -70t133.5 -26t133 26t95.5 70t64.5 102t39.5 122t19.5 130.5t5 127.5q0 60 -5 126t-19 129.5t-39 121t-65 101t-96 69.5
t-133 26z" />
    <glyph glyph-name="one" unicode="1" horiz-adv-x="1268" 
d="M771 145h338v-145h-882v145h378v902h-355v143h355v210h166v-1255z" />
    <glyph glyph-name="two" unicode="2" horiz-adv-x="1268" 
d="M713 700q30 29 66.5 70.5t68.5 88t54 95.5t22 93q0 64 -28.5 106.5t-73.5 68t-100 36t-108 10.5q-57 0 -114 -13t-111 -36.5t-103.5 -55t-91.5 -68.5l-72 122q53 44 113.5 79.5t126.5 61t135 39.5t138 14q80 0 163 -18t150.5 -58.5t110 -105.5t42.5 -160
q0 -61 -27 -125.5t-67.5 -124.5t-88 -113.5t-88.5 -94.5l-485 -474h846v-137h-1054v130z" />
    <glyph glyph-name="three" unicode="3" horiz-adv-x="1268" 
d="M439 819h151q179 0 265 50t86 154q0 122 -87 187.5t-252 65.5q-42 0 -87 -6.5t-89 -17.5t-85 -27t-76 -36l-58 133q87 47 195 73t218 26t200 -25.5t154 -72.5t99.5 -112t35.5 -145q0 -59 -17 -111t-47.5 -93t-73.5 -68.5t-96 -38.5q63 -10 114 -39.5t87 -73.5
t55.5 -101.5t19.5 -123.5q0 -95 -39 -173t-109.5 -134t-169 -87t-218.5 -31q-69 0 -138.5 10t-134 28.5t-121 44t-98.5 56.5l73 131q36 -30 83.5 -54t101.5 -41.5t111.5 -26.5t114.5 -9q86 0 155.5 21t119 59t76 92t26.5 121q0 131 -104.5 197t-311.5 66h-129v132z" />
    <glyph glyph-name="four" unicode="4" horiz-adv-x="1268" 
d="M957 371v-371h-160v371h-700v128l660 901h200v-883h219v-146h-219zM797 517v702l-510 -702h510z" />
    <glyph glyph-name="five" unicode="5" horiz-adv-x="1268" 
d="M411 855q27 5 59.5 8.5t64.5 6t62.5 4t53.5 1.5q119 0 214 -32t162.5 -89.5t103.5 -138t36 -177.5q0 -98 -37 -180t-104.5 -141t-161.5 -92t-209 -33q-66 0 -134.5 11t-134.5 31.5t-128 49t-115 63.5l71 129q92 -66 201.5 -101.5t215.5 -35.5q81 0 146.5 21.5t111.5 61.5
t71 97t25 127q0 63 -24 115.5t-70.5 89.5t-114 57.5t-155.5 20.5q-31 0 -78 -4t-99.5 -10t-104 -14t-91.5 -16l27 715h834v-147h-683z" />
    <glyph glyph-name="six" unicode="6" horiz-adv-x="1268" 
d="M1028 1183q-34 21 -74 37t-82 27t-84.5 17t-82.5 6q-114 0 -197.5 -45t-137.5 -128q-55 -84 -78.5 -201.5t-14.5 -263.5q26 68 68 118t96 82t118 47.5t135 15.5q103 0 186.5 -29.5t142 -86t90.5 -138.5t32 -187q0 -109 -35.5 -195t-99 -145t-152 -90.5t-195.5 -31.5
q-100 0 -180 25t-141.5 70.5t-106 108t-73 137.5t-42 160t-13.5 175q0 169 41 304.5t118 232.5q75 97 183 149.5t244 52.5q49 0 102 -7t105.5 -20t102.5 -31.5t93 -41.5zM665 765q-70 0 -134 -22t-112.5 -63.5t-77 -101t-28.5 -133.5q0 -51 19.5 -106t61.5 -101
q41 -46 105 -75.5t153 -29.5q74 0 135 22.5t105 64.5t68.5 102t24.5 135q0 73 -23.5 130t-65.5 96.5t-101 60.5t-130 21z" />
    <glyph glyph-name="seven" unicode="7" horiz-adv-x="1268" 
d="M131 1400h1040v-130l-622 -1270h-182l617 1253l-853 2v145z" />
    <glyph glyph-name="eight" unicode="8" horiz-adv-x="1268" 
d="M633 1407q85 0 166 -18.5t144.5 -60.5t102 -109t38.5 -164q0 -56 -16 -103.5t-45 -85.5t-70 -67.5t-92 -49.5q64 -19 117.5 -51.5t92.5 -77.5t60.5 -102.5t21.5 -126.5q0 -109 -45.5 -185.5t-119 -123.5t-166.5 -68.5t-188 -21.5t-188 20.5t-166.5 67.5t-119 123
t-45.5 186q0 71 22.5 128.5t62 102.5t94.5 77.5t119 51.5q-51 21 -93.5 51t-73 69t-47.5 87t-17 105q0 95 39.5 161t103.5 107t145 59.5t163 18.5zM632 675q-65 0 -128.5 -13.5t-114 -45t-82 -83t-31.5 -127.5q0 -78 30 -132t80 -87.5t114.5 -48.5t133.5 -15t133 14.5
t114 48t80 87t30 131.5q0 77 -31.5 128.5t-82.5 83.5t-115 45.5t-130 13.5zM634 1286q-58 0 -112.5 -12.5t-97.5 -41t-69 -74.5t-26 -112t26 -112t68.5 -74.5t97.5 -41.5t113 -13q59 0 113.5 12.5t96.5 41t67.5 74.5t25.5 113q0 66 -25.5 112t-67.5 74.5t-96.5 41
t-113.5 12.5z" />
    <glyph glyph-name="nine" unicode="9" horiz-adv-x="1268" 
d="M229 216q69 -42 153.5 -64.5t166.5 -22.5q112 0 195 45t137 129t77.5 201.5t15.5 264.5q-26 -68 -67.5 -118t-94.5 -82.5t-117 -48t-135 -15.5q-102 0 -185 30.5t-141 87.5t-89.5 139t-31.5 185q0 108 35 193.5t98 145t151 90.5t194 31q100 0 180 -25t141.5 -70
t105 -107.5t71.5 -137.5t41 -159.5t13 -174.5q0 -169 -40.5 -305t-116.5 -233q-75 -98 -182.5 -150.5t-242.5 -52.5q-50 0 -102 7t-103.5 20t-101 31.5t-93.5 41.5zM602 1266q-73 0 -134 -22.5t-104 -64.5t-67 -101.5t-24 -133.5q0 -72 23 -129t64.5 -97t99.5 -61.5
t129 -21.5q83 0 147.5 26.5t109.5 71.5t68.5 102.5t22.5 120.5q1 51 -17.5 105.5t-60.5 100.5q-42 45 -105 74.5t-152 29.5z" />
    <glyph glyph-name="colon" unicode=":" horiz-adv-x="540" 
d="M271 187q44 0 73 -28t29 -73t-29 -74t-73 -29q-43 0 -72 29t-29 74t29 73t72 28zM271 1067q44 0 73 -28t29 -73t-29 -74t-73 -29q-43 0 -72 29t-29 74t29 73t72 28z" />
    <glyph glyph-name="semicolon" unicode=";" horiz-adv-x="540" 
d="M271 1074q44 0 73 -28t29 -73t-29 -74t-73 -29q-43 0 -72 29t-29 74t29 73t72 28zM227 -2q-27 13 -40.5 36t-13.5 51q0 43 28 70.5t72 27.5q39 0 68.5 -26t29.5 -72q0 -24 -8.5 -43.5t-18.5 -40.5l-105 -228h-92z" />
    <glyph glyph-name="less" unicode="&#x3c;" horiz-adv-x="984" 
d="M911 1097v-127l-722 -317l722 -318v-126l-838 372v145z" />
    <glyph glyph-name="equal" unicode="=" horiz-adv-x="984" 
d="M73 496h838v-113h-838v113zM73 908h838v-113h-838v113z" />
    <glyph glyph-name="greater" unicode="&#x3e;" horiz-adv-x="984" 
d="M73 209v126l722 317l-722 318v127l838 -372v-146z" />
    <glyph glyph-name="question" unicode="?" horiz-adv-x="1139" 
d="M489 -10q-24 0 -45 9t-36 24t-23.5 35.5t-8.5 43.5q0 24 8.5 44.5t23.5 35.5t36 23.5t45 8.5q50 0 82 -32t32 -80q0 -23 -8.5 -43.5t-23.5 -35.5t-36 -24t-46 -9zM411 395q-18 39 -27 71t-9 61q0 42 14 75.5t37 61.5t54.5 51t65.5 44l157 93q55 32 89 77.5t34 108.5
q0 51 -20.5 94t-60.5 74t-97 48.5t-131 17.5q-127 0 -218 -41t-155 -120l-121 88q82 103 208 159t297 56q106 0 192 -24.5t146.5 -70t93.5 -110.5t33 -146q0 -102 -41 -170t-107 -109l-167 -102q-29 -18 -55 -36t-45 -38t-30 -42.5t-11 -50.5q0 -19 5.5 -40.5t15.5 -44.5z
" />
    <glyph glyph-name="at" unicode="@" horiz-adv-x="1969" 
d="M1440 261q0 -67 32 -100.5t79 -33.5q44 0 83 29t67.5 82t45 127.5t16.5 165.5q0 164 -55 304.5t-155.5 243.5t-242.5 161t-315 58q-111 0 -213 -26.5t-189.5 -75.5t-158.5 -118.5t-121.5 -154.5t-78 -184.5t-27.5 -207.5q0 -159 58 -293t160 -232t241.5 -152.5
t302.5 -54.5q44 0 93 7t99 20.5t97.5 34t87.5 46.5l60 -108q-42 -28 -96 -50.5t-112.5 -38.5t-117 -25t-111.5 -9q-127 0 -243 29t-214.5 83t-178.5 131t-136.5 172t-87 206t-30.5 234q0 126 31.5 241t90 213.5t141.5 178t184.5 136t220 87t248.5 30.5q129 0 245.5 -30
t216 -85.5t180 -134.5t137 -177t87 -212.5t30.5 -242.5q0 -118 -26 -213t-73 -162.5t-112.5 -104t-144.5 -36.5q-87 0 -146 46.5t-70 137.5l-3 70q-60 -108 -160 -166t-225 -58q-97 0 -184 35.5t-151.5 100t-102.5 154t-38 197.5q0 104 33.5 194t94.5 156.5t146 104.5
t188 38q71 0 132 -19t108 -49t79.5 -66t46.5 -70v189h157v-753zM945 885q-71 0 -130 -26.5t-101.5 -72.5t-66 -108.5t-23.5 -134.5q0 -74 23.5 -138t66.5 -111.5t102 -74.5t131 -27q74 0 134 26.5t102.5 73.5t66 111t23.5 138q0 73 -24 135.5t-67 109t-103.5 73t-133.5 26.5
z" />
    <glyph glyph-name="A" unicode="A" horiz-adv-x="1442" 
d="M634 1400h176l624 -1400h-183l-156 358h-752l-155 -358h-180zM1031 505l-314 721l-311 -721h625z" />
    <glyph glyph-name="B" unicode="B" horiz-adv-x="1429" 
d="M801 1400q107 0 191.5 -23.5t143 -68.5t90 -110t31.5 -147q0 -124 -67.5 -207t-188.5 -109q75 -11 133.5 -41t99 -75.5t62 -105.5t21.5 -132q0 -90 -34.5 -161t-100 -119.5t-159 -74.5t-212.5 -26h-603v1400h593zM793 148q83 0 148 16.5t110 48.5t68.5 79t23.5 108
q0 58 -23.5 104t-68.5 77.5t-110 48t-148 16.5h-414v-498h414zM793 794q137 0 213 60t76 172q0 109 -76 168t-213 58h-414v-458h414z" />
    <glyph glyph-name="C" unicode="C" horiz-adv-x="1400" 
d="M1223 1091q-40 41 -88 74t-101 55.5t-109 34.5t-113 12q-117 0 -219.5 -44t-178 -120.5t-119.5 -179.5t-44 -220q0 -78 20 -150t56 -135t87.5 -114t113.5 -88t134 -57t150 -20q114 0 221 45t190 124l103 -106q-51 -49 -112 -89t-128 -68t-138.5 -43t-143.5 -15
q-101 0 -194 25.5t-174 72t-146.5 111.5t-112.5 144.5t-72.5 171t-25.5 190.5t26 190t73 170t113.5 143.5t147.5 110.5t174.5 71t195.5 25q72 0 143 -14t137 -40.5t125.5 -64.5t109.5 -86z" />
    <glyph glyph-name="D" unicode="D" horiz-adv-x="1575" 
d="M774 1400q103 0 196.5 -24t174 -69t145 -108t110.5 -140.5t71 -168.5t25 -190q0 -149 -55 -277t-152.5 -222t-230 -147.5t-288.5 -53.5h-562v1400h566zM778 148q115 0 214.5 42t173 115.5t116 174t42.5 218.5q0 119 -43 220t-117.5 175.5t-175 116.5t-216.5 42h-393
v-1104h399z" />
    <glyph glyph-name="E" unicode="E" horiz-adv-x="1305" 
d="M208 1400h959v-148h-788v-469h703v-147h-703v-488h813v-148h-984v1400z" />
    <glyph glyph-name="F" unicode="F" horiz-adv-x="1131" 
d="M208 1400h899l-2 -148h-726v-502h652v-147h-652v-603h-171v1400z" />
    <glyph glyph-name="G" unicode="G" horiz-adv-x="1505" 
d="M1239 1102q-85 78 -194.5 121.5t-226.5 43.5q-118 0 -221.5 -44.5t-180 -121t-121 -179.5t-44.5 -220q0 -118 44.5 -222t121.5 -181t180.5 -121.5t221.5 -44.5q91 0 182 29t170 82v383h-484v146h645v-602q-51 -42 -112.5 -76t-129 -58t-139 -37t-142.5 -13
q-102 0 -195.5 25.5t-175 72t-147.5 111.5t-113.5 144.5t-73 171t-25.5 190.5t26 190t73.5 169.5t114.5 143t149.5 110.5t177.5 71t198 25q73 0 144.5 -13.5t137.5 -38t126 -60t111 -80.5z" />
    <glyph glyph-name="H" unicode="H" horiz-adv-x="1588" 
d="M208 1400h171v-634h830v634h171v-1400h-171v620h-830v-620h-171v1400z" />
    <glyph glyph-name="I" unicode="I" horiz-adv-x="587" 
d="M208 1400h171v-1400h-171v1400z" />
    <glyph glyph-name="J" unicode="J" horiz-adv-x="972" 
d="M796 418q0 -102 -27.5 -181t-80 -133t-128 -82.5t-170.5 -28.5q-118 0 -217 52t-174 147l84 124q67 -81 146.5 -122.5t159.5 -41.5q112 0 173.5 69t61.5 201v978h172v-982z" />
    <glyph glyph-name="K" unicode="K" horiz-adv-x="1405" 
d="M208 1400h171v-821l740 821h204l-557 -608l596 -792h-207l-507 663l-269 -294v-369h-171v1400z" />
    <glyph glyph-name="L" unicode="L" horiz-adv-x="1040" 
d="M208 1400h171v-1252h613v-148h-784v1400z" />
    <glyph glyph-name="M" unicode="M" horiz-adv-x="1877" 
d="M208 1400h206l526 -1020l523 1020h206v-1400h-159l-2 1167l-518 -1018h-102l-521 1018v-1167h-159v1400z" />
    <glyph glyph-name="N" unicode="N" horiz-adv-x="1589" 
d="M208 1400h175l829 -1139v1139h168v-1400h-175l-826 1135v-1135h-171v1400z" />
    <glyph glyph-name="O" unicode="O" horiz-adv-x="1626" 
d="M813 1412q103 0 197 -25t175.5 -71t148 -110.5t114 -143.5t73.5 -170t26 -190t-26 -190.5t-73.5 -171t-114 -144.5t-148 -111.5t-175.5 -72t-197 -25.5q-102 0 -196.5 25.5t-176 72t-148 111.5t-114 144.5t-73.5 171t-26 190.5t26 190.5t73.5 170t114 143t148 110.5
t176 71t196.5 25zM814 1265q-115 0 -217.5 -44t-179 -120.5t-121 -179t-44.5 -219.5q0 -78 20.5 -151t57.5 -136t88.5 -115t114 -88.5t134 -57t147.5 -20.5q115 0 217 44.5t178 121.5t120 180.5t44 221.5q0 117 -44 219.5t-120 179t-178 120.5t-217 44z" />
    <glyph glyph-name="P" unicode="P" horiz-adv-x="1339" 
d="M738 1400q131 0 232.5 -31.5t172 -91.5t107 -147t36.5 -199q0 -116 -36.5 -206.5t-107 -153t-172 -95t-232.5 -32.5h-359v-444h-171v1400h530zM732 592q186 0 288 84.5t102 250.5q0 161 -102 243t-288 82h-353v-660h353z" />
    <glyph glyph-name="Q" unicode="Q" horiz-adv-x="1614" 
d="M1249 125q-91 -65 -201.5 -101.5t-234.5 -36.5q-102 0 -196.5 25.5t-176 72t-148 111.5t-114 144.5t-73.5 171t-26 190.5t26 190t73.5 170t114 143.5t148 110t176 70.5t196.5 25q103 0 197 -25t175.5 -71t148 -110.5t114 -143t73.5 -169.5t26 -190q0 -140 -49.5 -262
t-137.5 -217l187 -176l-101 -107zM814 1265q-115 0 -217.5 -44t-179 -120.5t-121 -179t-44.5 -219.5q0 -118 44.5 -221.5t121 -180.5t179 -121.5t217.5 -44.5q89 0 169.5 27t148.5 75l-289 273l100 106l297 -279q62 74 97 167t35 199q0 117 -44 219.5t-120 179t-177.5 120.5
t-216.5 44z" />
    <glyph glyph-name="R" unicode="R" horiz-adv-x="1446" 
d="M745 1400q132 0 235 -31.5t174 -91.5t108 -147t37 -199q0 -174 -81 -288.5t-233 -163.5l330 -479h-195l-289 448q-20 -2 -41.5 -3t-44.5 -1h-366v-444h-171v1400h537zM745 592q187 0 289.5 84.5t102.5 250.5q0 161 -102.5 243t-289.5 82h-366v-660h366z" />
    <glyph glyph-name="S" unicode="S" horiz-adv-x="1225" 
d="M1010 1142q-85 54 -187.5 85.5t-203.5 31.5q-46 0 -97 -9t-93.5 -31.5t-70 -60.5t-27.5 -95q0 -69 33.5 -114.5t88.5 -77t125.5 -53.5t143.5 -45t143.5 -52t125.5 -74t88.5 -110.5t33.5 -162.5q0 -104 -46 -177t-119.5 -119.5t-164.5 -67.5t-180 -21q-74 0 -148 14.5
t-143.5 42t-132.5 67.5t-117 91l77 139q45 -44 99.5 -81t114.5 -63.5t124 -41t128 -14.5q53 0 110 11t103.5 36.5t76.5 68.5t30 107q0 71 -33.5 117.5t-88.5 78.5t-125.5 54t-144 45t-144 51t-125.5 72t-88.5 108.5t-33.5 159.5q0 66 20.5 119t56 93t83.5 69t102.5 47
t112.5 26.5t114 8.5q58 0 117.5 -8.5t117.5 -25t113 -40.5t103 -56z" />
    <glyph glyph-name="T" unicode="T" horiz-adv-x="1123" 
d="M21 1400h1081v-148h-456v-1252h-170v1252h-455v148z" />
    <glyph glyph-name="U" unicode="U" horiz-adv-x="1529" 
d="M348 570q0 -103 29 -184t83 -137t131.5 -85.5t174.5 -29.5t174 29.5t130.5 85t82 137t28.5 184.5v830h170v-830q0 -137 -40 -245t-115.5 -183t-184 -115t-245.5 -40q-138 0 -247.5 40t-185 115t-116 183t-40.5 245v830h171v-830z" />
    <glyph glyph-name="V" unicode="V" horiz-adv-x="1338" 
d="M11 1400h184l475 -1219l477 1219h180l-572 -1400h-178z" />
    <glyph glyph-name="W" unicode="W" horiz-adv-x="2076" 
d="M11 1400h184l381 -1221l380 1221h170l383 -1221l379 1221h178l-475 -1400h-176l-376 1191l-380 -1191h-175z" />
    <glyph glyph-name="X" unicode="X" horiz-adv-x="1339" 
d="M79 1400h198l382 -545l384 545h200l-476 -673l515 -727h-204l-419 591l-417 -591h-200l514 721z" />
    <glyph glyph-name="Y" unicode="Y" horiz-adv-x="1254" 
d="M546 488l-538 912h175l447 -735l440 735h176l-530 -906v-494h-170v488z" />
    <glyph glyph-name="Z" unicode="Z" horiz-adv-x="1322" 
d="M111 1400h1117v-123l-917 -1129h926v-148h-1153v123l919 1129h-892v148z" />
    <glyph glyph-name="bracketleft" unicode="[" horiz-adv-x="628" 
d="M181 1484h402v-129h-251v-1474h251v-129h-402v1732z" />
    <glyph glyph-name="backslash" unicode="\" horiz-adv-x="637" 
d="M601 1640h145l-627 -1884h-144z" />
    <glyph glyph-name="bracketright" unicode="]" horiz-adv-x="628" 
d="M447 -248h-402v129h251v1474h-251v129h402v-1732z" />
    <glyph glyph-name="asciicircum" unicode="^" horiz-adv-x="1035" 
d="M961 608h-126l-317 685l-318 -685h-127l372 792h146z" />
    <glyph glyph-name="underscore" unicode="_" horiz-adv-x="1113" 
d="M0 -307h1113v-101h-1113v101z" />
    <glyph glyph-name="grave" unicode="`" horiz-adv-x="665" 
d="M308 1499l223 -253l-144 -17l-249 198z" />
    <glyph glyph-name="a" unicode="a" horiz-adv-x="1156" 
d="M837 162q-61 -86 -157.5 -127.5t-221.5 -41.5q-82 0 -149 24.5t-114 67.5t-72.5 101.5t-25.5 126.5q0 69 26.5 124.5t77.5 94.5t124.5 60t167.5 21h343l-1 66q0 118 -69.5 183t-208.5 65q-86 0 -167.5 -31.5t-162.5 -89.5l-71 109q51 34 99.5 60.5t100 45t108.5 28
t126 9.5q98 0 174 -25t128 -72t79 -114.5t28 -151.5l3 -695h-164zM491 124q67 0 124.5 16.5t102.5 47.5t76 75.5t43 100.5l-1 127h-321q-261 0 -261 -173q0 -43 16.5 -79t47.5 -61.5t74.5 -39.5t98.5 -14z" />
    <glyph glyph-name="b" unicode="b" horiz-adv-x="1344" 
d="M188 1484h167v-653q59 109 161.5 168t240.5 59q112 0 205 -39t160 -109.5t104 -169t37 -216.5q0 -117 -36.5 -214t-103 -167t-159 -109t-205.5 -39q-139 0 -242 59t-162 167v-221h-167v1484zM725 923q-81 0 -149 -29.5t-117 -82t-76.5 -125t-27.5 -158.5
q0 -87 27.5 -159.5t76.5 -125t117 -82t149 -29.5t149 29.5t117 82t76.5 125t27.5 159.5q0 86 -27.5 158t-76.5 125t-117 82.5t-149 29.5z" />
    <glyph glyph-name="c" unicode="c" horiz-adv-x="1123" 
d="M924 795q-59 57 -136.5 90t-174.5 33q-79 0 -146.5 -28.5t-116 -80.5t-76 -124t-27.5 -159q0 -88 27.5 -160.5t76 -124.5t116 -80.5t146.5 -28.5q103 0 185.5 34.5t139.5 102.5l94 -94q-71 -86 -178.5 -133t-247.5 -47q-115 0 -211.5 39t-166 109t-108.5 167.5t-39 215.5
q0 117 39 215t108.5 168.5t166 109.5t211.5 39q131 0 235 -40.5t176 -114.5z" />
    <glyph glyph-name="d" unicode="d" horiz-adv-x="1349" 
d="M995 220q-60 -109 -162.5 -168.5t-242.5 -59.5q-113 0 -206.5 39.5t-161 110.5t-104.5 169.5t-37 216.5t37.5 216t104.5 168.5t160 109.5t204 39q140 0 244 -60t164 -169v652h166v-1484h-166v220zM622 923q-82 0 -150.5 -30t-118 -83t-77.5 -126t-28 -160t28 -159.5
t77.5 -125.5t118 -82.5t150.5 -29.5t150.5 29.5t118 82.5t77 125.5t27.5 159.5t-27.5 160.5t-77 126.5t-118 82.5t-150.5 29.5z" />
    <glyph glyph-name="e" unicode="e" horiz-adv-x="1177" 
d="M247 469q9 -78 40.5 -141.5t80.5 -108.5t113.5 -69.5t140.5 -24.5q96 0 178.5 34.5t143.5 99.5l91 -90q-76 -83 -184 -128.5t-241 -45.5q-118 0 -215 39t-167 109t-108.5 167.5t-38.5 215.5q0 117 39 215t109 168t166 109.5t211 39.5q129 0 225 -42t157.5 -119t89 -185.5
t20.5 -242.5h-851zM607 927q-74 0 -136.5 -24t-109.5 -68t-77 -106t-38 -138h705q-4 77 -30 139t-70.5 106t-106 67.5t-137.5 23.5z" />
    <glyph glyph-name="f" unicode="f" horiz-adv-x="753" 
d="M221 930h-137v123h137v124q0 86 28.5 151.5t75.5 110t109 67.5t128 23q46 0 93 -13.5t88 -34.5l-40 -128q-30 14 -65 25t-72 11t-70 -12.5t-57.5 -37.5t-38.5 -60.5t-14 -82.5v-143h297v-123h-297v-930h-165v930z" />
    <glyph glyph-name="g" unicode="g" horiz-adv-x="1273" 
d="M1111 109q0 -116 -38 -208.5t-107.5 -157.5t-167.5 -100t-219 -35q-125 0 -231.5 39.5t-202.5 113.5l75 115q78 -66 162.5 -100.5t189.5 -34.5q85 0 154 25.5t117.5 73t75 115t26.5 150.5v156q-56 -103 -153.5 -159t-229.5 -56q-107 0 -195.5 37.5t-152 105t-98.5 160.5
t-35 205q0 111 35 203.5t98 159t150.5 104t192.5 37.5q134 1 232.5 -56t155.5 -160v211h166v-944zM593 928q-78 0 -143 -28.5t-112 -78.5t-73.5 -119.5t-26.5 -151.5t26.5 -151t73 -119.5t112 -78.5t143.5 -28q77 0 142 28t111.5 78.5t72.5 119.5t26 151q0 83 -26 152.5
t-72.5 119.5t-111.5 78t-142 28z" />
    <glyph glyph-name="h" unicode="h" horiz-adv-x="1317" 
d="M996 609q0 142 -77 221t-216 79q-82 -1 -146.5 -30.5t-109.5 -81t-68.5 -123t-23.5 -157.5v-517h-167v1484h167v-666q55 122 158.5 180t249.5 60q94 0 168.5 -28t126 -81t78.5 -129t27 -171v-649h-167v609z" />
    <glyph glyph-name="i" unicode="i" horiz-adv-x="539" 
d="M187 1053h165v-1053h-165v1053zM270 1461q45 0 75.5 -30t30.5 -76q0 -22 -8 -42t-22.5 -34t-33.5 -22.5t-42 -8.5q-22 0 -42 8.5t-34 22.5t-22.5 34t-8.5 42q0 23 8.5 42.5t22.5 33.5t34 22t42 8z" />
    <glyph glyph-name="j" unicode="j" horiz-adv-x="513" 
d="M-77 -237q24 -9 50.5 -15t52.5 -6q77 0 116.5 57t39.5 168v1086h167v-1107q0 -83 -20 -146.5t-57.5 -106.5t-92.5 -65t-125 -21q-91 3 -170 35zM265 1461q45 0 75.5 -30t30.5 -76q0 -22 -8 -42t-22.5 -34t-33.5 -22.5t-42 -8.5q-22 0 -42 8.5t-34 22.5t-22.5 34t-8.5 42
q0 23 8.5 42.5t22.5 33.5t34 22t42 8z" />
    <glyph glyph-name="k" unicode="k" horiz-adv-x="1147" 
d="M191 1484h167v-978l533 547h194l-394 -407l434 -646h-197l-351 529l-219 -226v-303h-167v1484z" />
    <glyph glyph-name="l" unicode="l" horiz-adv-x="585" 
d="M334 269q0 -66 26.5 -98t74.5 -32q50 0 110 43l30 -125q-45 -32 -91 -48t-90 -16q-49 0 -90 16.5t-71 49.5t-47 81.5t-17 111.5v1232h165v-1215z" />
    <glyph glyph-name="m" unicode="m" horiz-adv-x="2088" 
d="M977 609q0 71 -19.5 127t-56.5 94.5t-90 59t-120 20.5q-79 -2 -142 -31.5t-107 -81t-67 -122.5t-23 -157v-518h-165v1053h165v-233q54 121 156 178.5t244 59.5q149 0 246 -71.5t130 -202.5q51 140 156.5 206t257.5 68q92 0 165 -28t123.5 -81t77 -129t26.5 -171v-649
h-167v609q0 71 -19.5 127t-56.5 94.5t-90 59t-120 20.5q-79 -2 -142 -31.5t-106 -81t-66 -122.5t-23 -157v-518h-167v609z" />
    <glyph glyph-name="n" unicode="n" horiz-adv-x="1313" 
d="M993 609q0 71 -20 126.5t-58 94t-92 59t-123 20.5q-76 -1 -137.5 -26.5t-106 -70.5t-71 -108t-32.5 -139v-565h-166v1053h166v-231q56 120 159.5 177t247.5 59q94 0 168 -28t125.5 -81t78.5 -129t27 -171v-649h-166v609z" />
    <glyph glyph-name="o" unicode="o" horiz-adv-x="1237" 
d="M619 1058q118 0 216.5 -39t170 -109t111 -167.5t39.5 -215.5t-39.5 -215.5t-111 -168t-170 -109.5t-216.5 -39t-217 39t-170.5 109.5t-111 168t-39.5 215.5t39.5 215.5t111 167.5t170.5 109t217 39zM619 921q-81 0 -149.5 -29t-117.5 -81.5t-76.5 -125t-27.5 -159.5
q0 -88 27.5 -161t76.5 -125.5t117.5 -81.5t149.5 -29t149 29t117 81.5t76.5 125.5t27.5 161q0 87 -27.5 159.5t-76.5 125t-117 81.5t-149 29z" />
    <glyph glyph-name="p" unicode="p" horiz-adv-x="1344" 
d="M188 1053h167v-222q59 109 161.5 168t240.5 59q112 0 205 -39t160 -109.5t104 -169t37 -216.5q0 -117 -36.5 -214t-103 -167t-159 -109t-205.5 -39q-139 0 -242 59t-162 167v-609h-167v1441zM725 923q-81 0 -149 -29.5t-117 -82t-76.5 -125t-27.5 -158.5
q0 -87 27.5 -159.5t76.5 -125t117 -82t149 -29.5t149 29.5t117 82t76.5 125t27.5 159.5q0 86 -27.5 158t-76.5 125t-117 82.5t-149 29.5z" />
    <glyph glyph-name="q" unicode="q" horiz-adv-x="1347" 
d="M995 220q-60 -109 -162.5 -168.5t-242.5 -59.5q-113 0 -206.5 39.5t-161 110.5t-104.5 169.5t-37 216.5t37.5 216t104.5 168.5t160 109.5t204 39q140 0 244 -60t164 -169v221h166v-1441h-166v608zM622 923q-82 0 -150.5 -30t-118 -83t-77.5 -126t-28 -160t28 -159.5
t77.5 -125.5t118 -82.5t150.5 -29.5t150.5 29.5t118 82.5t77 125.5t27.5 159.5t-27.5 160.5t-77 126.5t-118 82.5t-150.5 29.5z" />
    <glyph glyph-name="r" unicode="r" horiz-adv-x="751" 
d="M187 1053h166v-233q53 115 148.5 175.5t229.5 62.5v-152q-83 2 -150 -22.5t-115.5 -70t-77 -110t-35.5 -144.5v-559h-166v1053z" />
    <glyph glyph-name="s" unicode="s" horiz-adv-x="911" 
d="M751 845q-64 38 -140 61t-149 23q-43 0 -79.5 -8.5t-63.5 -25.5t-42.5 -44t-15.5 -65q0 -45 25 -74t66.5 -50t94 -37t107 -33.5t107 -39.5t93.5 -56.5t66 -83.5t25 -120q0 -77 -32 -133t-86 -92.5t-124 -54t-146 -17.5q-57 0 -114 9.5t-110 28t-100 46t-85 62.5l63 114
q34 -31 76 -55.5t88 -41.5t94 -26t94 -9q45 0 84.5 9t69 27.5t47 47t18.5 68.5q1 48 -23.5 80t-65.5 54t-93 38.5t-106.5 34t-107 39t-93.5 54.5t-65.5 81t-24.5 118q0 75 30.5 129t81.5 88.5t118 51t140 16.5q95 0 184 -25t156 -70z" />
    <glyph glyph-name="t" unicode="t" horiz-adv-x="784" 
d="M391 1053h330v-123h-330v-611q0 -98 35 -139.5t101 -40.5q79 0 166 54l47 -122q-57 -38 -118 -57.5t-125 -20.5q-58 0 -107.5 17.5t-86 54t-57.5 93t-21 134.5v638h-150v123h150v243h166v-243z" />
    <glyph glyph-name="u" unicode="u" 
d="M319 444q0 -70 19.5 -126t56.5 -94.5t89.5 -59t119.5 -20.5q80 2 142.5 31.5t106 81t66.5 123t23 156.5v517h167v-1053h-167v236q-54 -122 -154.5 -180.5t-242.5 -60.5q-92 0 -165 28t-123.5 81t-77.5 128.5t-27 171.5v649h167v-609z" />
    <glyph glyph-name="v" unicode="v" horiz-adv-x="1004" 
d="M8 1053h175l331 -896l327 896h170l-414 -1053h-173z" />
    <glyph glyph-name="w" unicode="w" horiz-adv-x="1736" 
d="M8 1053h173l308 -896l300 896h175l303 -896l304 896h172l-390 -1053h-174l-302 862l-304 -862h-172z" />
    <glyph glyph-name="x" unicode="x" horiz-adv-x="1065" 
d="M67 1053h192l274 -404l276 404h184l-351 -512l377 -541h-193l-294 433l-305 -433h-188l384 541z" />
    <glyph glyph-name="y" unicode="y" horiz-adv-x="1012" 
d="M535 -150q-50 -121 -131.5 -183t-189.5 -62q-66 0 -121 19t-104 57l71 125q36 -26 71.5 -38t74.5 -12q61 0 109 38.5t80 113.5l41 100l-436 1045h174l346 -876l329 876h170z" />
    <glyph glyph-name="z" unicode="z" horiz-adv-x="1056" 
d="M119 1053l837 -2v-116l-652 -804l669 -1v-132l-872 2v115l652 805l-634 2v131z" />
    <glyph glyph-name="braceleft" unicode="{" horiz-adv-x="671" 
d="M163 683q49 0 71.5 28.5t22.5 92.5v445q0 63 16.5 108t51.5 73.5t90 41.5t132 13h61v-129q-108 0 -153.5 -35.5t-45.5 -113.5v-395q0 -46 -10 -74.5t-28.5 -48t-45 -35.5t-60.5 -37q34 -21 60.5 -37t45 -36t28.5 -48.5t10 -75.5v-393q0 -78 45.5 -114t153.5 -36v-129h-61
q-77 0 -132 13t-90 41.5t-51.5 73.5t-16.5 108v445q0 64 -22.5 93t-71.5 29h-54v132h54z" />
    <glyph glyph-name="bar" unicode="|" horiz-adv-x="505" 
d="M188 1631h129v-1873h-129v1873z" />
    <glyph glyph-name="braceright" unicode="}" horiz-adv-x="671" 
d="M562 683v-132h-54q-49 0 -71.5 -29t-22.5 -93v-445q0 -63 -16.5 -108t-51.5 -73.5t-90 -41.5t-132 -13h-61v129q108 0 153.5 36t45.5 114v393q0 47 10 75.5t28.5 48.5t45.5 36t60 37q-33 21 -60 37t-45.5 35.5t-28.5 48t-10 74.5v395q0 78 -45.5 113.5t-153.5 35.5v129
h61q77 0 132 -13t90 -41.5t51.5 -73.5t16.5 -108v-445q0 -64 22.5 -92.5t71.5 -28.5h54z" />
    <glyph glyph-name="asciitilde" unicode="~" horiz-adv-x="984" 
d="M843 748q0 -117 -45 -176t-131 -59q-51 0 -94.5 19.5t-82 42.5t-73 42.5t-68.5 19.5q-86 0 -86 -109h-120q0 117 45 176t131 59q47 0 90 -19.5t83 -42.5t76.5 -42.5t70.5 -19.5q41 0 63 27.5t22 81.5h119z" />
    <glyph glyph-name="uni00A0" unicode="&#xa0;" horiz-adv-x="560" 
 />
    <glyph glyph-name="exclamdown" unicode="&#xa1;" horiz-adv-x="408" 
d="M284 -282h-160v337l25 620h110l25 -620v-337zM204 907q-43 0 -72 28t-29 73t29 74t72 29t72 -29t29 -74t-29 -73t-72 -28z" />
    <glyph glyph-name="cent" unicode="&#xa2;" horiz-adv-x="1200" 
d="M545 -2q-103 10 -188 52.5t-146.5 111.5t-95.5 161.5t-34 202.5t34 202.5t95.5 161.5t146.5 112t188 53v290h129v-290q108 -10 194 -49.5t148 -102.5l-93 -108q-59 57 -136.5 90t-174.5 33q-79 0 -146 -28.5t-116 -80.5t-76 -124t-27 -159q0 -88 27 -160.5t76 -124.5
t116 -80.5t146 -28.5q103 0 185.5 34.5t139.5 102.5l94 -94q-62 -75 -152 -120.5t-205 -56.5v-277h-129v277z" />
    <glyph glyph-name="sterling" unicode="&#xa3;" horiz-adv-x="1085" 
d="M656 1407q111 0 209 -48.5t172 -138.5l-72 -124q-63 81 -137.5 122.5t-155.5 41.5q-118 0 -181 -71t-63 -211v-235h362v-94h-362v-514h585v-135h-929v135h173v514h-173v94h173v238q0 102 26.5 181.5t77.5 133.5t125 82.5t170 28.5z" />
    <glyph glyph-name="currency" unicode="&#xa4;" horiz-adv-x="1432" 
d="M177 1270l210 -209q69 51 152 80t176 29q94 0 178 -28.5t153 -79.5l209 208l96 -96l-205 -207q56 -69 87 -153t31 -178t-32 -178t-89 -153l208 -209l-96 -96l-213 211q-69 -49 -151.5 -76.5t-175.5 -27.5q-91 0 -173 27.5t-151 77.5l-214 -212l-96 96l209 211
q-56 68 -87.5 151.5t-31.5 177.5t31 177.5t86 152.5l-207 208zM715 1035q-84 0 -158 -31.5t-129.5 -86t-88 -127t-32.5 -154.5q0 -81 32.5 -153t88 -126t129.5 -85t158 -31q86 0 161.5 31t131.5 85t88.5 126t32.5 153q0 82 -32.5 154.5t-88.5 127t-131.5 86t-161.5 31.5z
" />
    <glyph glyph-name="yen" unicode="&#xa5;" horiz-adv-x="1251" 
d="M131 581h360l-484 819h174l448 -735l440 735h176l-480 -819h364v-93h-414v-140h414v-93h-414v-255h-170v255h-414v93h414v140h-414v93z" />
    <glyph glyph-name="brokenbar" unicode="&#xa6;" horiz-adv-x="505" 
d="M188 456h129v-698h-129v698zM188 1631h129v-697h-129v697z" />
    <glyph glyph-name="section" unicode="&#xa7;" horiz-adv-x="953" 
d="M785 1191q-71 41 -144 61.5t-144 20.5q-51 0 -92.5 -10.5t-71.5 -30t-46 -47t-16 -62.5q0 -49 26.5 -81.5t69.5 -56t98.5 -41t113 -35.5t113 -40.5t98.5 -55.5t69.5 -80.5t26.5 -115.5q0 -49 -19 -92t-50 -77t-71.5 -57.5t-84.5 -33.5q101 -39 148.5 -95.5t47.5 -143.5
q0 -63 -28.5 -115.5t-80 -90t-123.5 -58.5t-158 -21q-121 0 -229.5 39.5t-189.5 110.5l56 102q79 -66 171 -101t186 -35q53 0 98 12t78 34t51.5 52.5t18.5 67.5q0 48 -26.5 80.5t-69.5 56t-98 41t-112 36t-112 41t-98 55.5t-69.5 80.5t-26.5 114.5q0 100 70 164.5t191 84.5
q-64 24 -108 50t-71.5 56t-39.5 65t-12 77q0 61 26.5 111t75.5 85.5t117 55t152 19.5q91 0 177.5 -23.5t167.5 -71.5zM473 783q-109 0 -170.5 -40.5t-61.5 -108.5q0 -41 22.5 -76t60.5 -61t88.5 -41t106.5 -15q50 0 90.5 12t69 34t43.5 52t15 66q0 40 -19 72.5t-53.5 56
t-83.5 36.5t-108 13z" />
    <glyph glyph-name="dieresis" unicode="&#xa8;" horiz-adv-x="683" 
d="M199 1451q21 0 38.5 -7.5t31 -20.5t21 -31t7.5 -39q0 -41 -28 -69.5t-70 -28.5q-21 0 -39 7.5t-31 21t-20.5 31.5t-7.5 38q0 42 28 70t70 28zM537 1451q20 0 38 -7.5t31 -20.5t20.5 -31t7.5 -39q0 -41 -28 -69.5t-69 -28.5q-21 0 -39 7.5t-31.5 21t-21 31.5t-7.5 38
q0 42 28.5 70t70.5 28z" />
    <glyph glyph-name="copyright" unicode="&#xa9;" horiz-adv-x="1511" 
d="M971 883q-42 39 -94.5 61.5t-109.5 22.5t-107 -21t-86.5 -57t-58 -85t-21.5 -105t21.5 -105.5t58 -86t86.5 -58t107 -21.5q55 0 108.5 22t95.5 60l55 -58q-52 -50 -120.5 -79t-142.5 -29q-76 0 -142 27.5t-115 75.5t-77 112.5t-28 138.5t28.5 138t77.5 111t116 74.5
t143 27.5q72 0 140.5 -28t119.5 -76zM757 1378q143 0 266 -53.5t214.5 -146t143.5 -215.5t52 -263q0 -92 -24 -178.5t-67.5 -162.5t-105 -138.5t-137 -107.5t-163.5 -70t-183 -25t-182 24.5t-162 69t-135.5 106.5t-104 137.5t-67 162t-23.5 178.5q0 93 23.5 179t67 162
t105 138.5t137 107.5t163 70t182.5 25zM757 1289q-125 0 -233 -47t-187 -128t-124 -189t-45 -229q0 -81 20.5 -156t57.5 -140.5t90 -119.5t118 -92.5t140.5 -59.5t158.5 -21q125 0 233 47t187.5 128t124.5 189t45 229q0 122 -45 229t-123.5 187t-185.5 126.5t-232 46.5z" />
    <glyph glyph-name="ordfeminine" unicode="&#xaa;" horiz-adv-x="761" 
d="M529 915q-38 -58 -98.5 -86t-140.5 -28q-49 0 -88 13.5t-66.5 38t-42.5 58.5t-15 74q0 83 64 128t181 45h205v42q0 65 -41 101t-125 36q-54 0 -106.5 -18t-108.5 -50l-33 83q67 35 135.5 56.5t139.5 21.5q125 0 192 -58t67 -159l1 -408h-119zM329 881q68 0 119 27.5
t81 92.5v84h-184q-72 0 -112 -21t-40 -70q0 -51 36.5 -82t99.5 -31z" />
    <glyph glyph-name="guillemotleft" unicode="&#xab;" horiz-adv-x="862" 
d="M297 845h144l-215 -335l215 -331h-144l-228 331zM612 845h144l-215 -335l215 -331h-144l-228 331z" />
    <glyph glyph-name="logicalnot" unicode="&#xac;" horiz-adv-x="1104" 
d="M73 775h868v-474h-125v360h-743v114z" />
    <glyph glyph-name="uni00AD" unicode="&#xad;" horiz-adv-x="729" 
d="M128 663h473v-115h-473v115z" />
    <glyph glyph-name="registered" unicode="&#xae;" horiz-adv-x="1511" 
d="M757 1378q143 0 266 -53.5t214.5 -146t143.5 -215.5t52 -263q0 -92 -24 -178.5t-67.5 -162.5t-105 -138.5t-137 -107.5t-163.5 -70t-183 -25t-182 24.5t-162 69t-135.5 106.5t-104 137.5t-67 162t-23.5 178.5q0 93 23.5 179t67 162t105 138.5t137 107.5t163 70t182.5 25z
M757 1289q-125 0 -233 -47t-187 -128t-124 -189t-45 -229q0 -81 20.5 -156t57.5 -140.5t90 -119.5t118 -92.5t140.5 -59.5t158.5 -21q125 0 233 47t187.5 128t124.5 189t45 229q0 122 -45 229t-123.5 187t-185.5 126.5t-232 46.5zM768 1067q135 0 207 -61t72 -175
q0 -86 -40 -144t-116 -84l167 -240h-105l-145 224q-10 -1 -19.5 -1.5t-20.5 -0.5h-179v-222h-90v704h269zM768 660q92 0 143 44.5t51 125.5q0 80 -51 121.5t-143 41.5h-179v-333h179z" />
    <glyph glyph-name="macron" unicode="&#xaf;" horiz-adv-x="700" 
d="M69 1406h565v-107h-565v107z" />
    <glyph glyph-name="degree" unicode="&#xb0;" horiz-adv-x="661" 
d="M388 1609q47 0 89 -18t73.5 -49t49.5 -72t18 -87q0 -45 -18 -86t-49.5 -71.5t-73.5 -48.5t-89 -18q-46 0 -88 18t-73 48.5t-49.5 71.5t-18.5 86q0 46 18 87t49.5 72t73 49t88.5 18zM388 1531q-31 0 -58.5 -12t-48 -32t-32.5 -47t-12 -57q0 -29 12 -55.5t32.5 -46.5
t48 -31.5t58.5 -11.5t58.5 11.5t48 31.5t32.5 46.5t12 55.5q0 30 -12 57t-32.5 47t-48 32t-58.5 12z" />
    <glyph glyph-name="plusminus" unicode="&#xb1;" horiz-adv-x="984" 
d="M73 703h363v361h113v-361h362v-115h-362v-361h-113v361h-363v115zM73 181h838v-115h-838v115z" />
    <glyph glyph-name="twosuperior" unicode="&#xb2;" horiz-adv-x="694" 
d="M369 1154q52 54 83 105t31 92q0 60 -41.5 93.5t-116.5 33.5q-60 0 -124 -29t-120 -80l-55 91q70 58 150.5 90t165.5 32q50 0 99.5 -12t88.5 -37.5t63.5 -66.5t24.5 -98q0 -38 -15.5 -77t-39.5 -75.5t-52.5 -69t-54.5 -57.5l-254 -269h461v-100h-624v89z" />
    <glyph glyph-name="threesuperior" unicode="&#xb3;" horiz-adv-x="689" 
d="M221 1217h157q78 0 112 29.5t34 86.5q0 69 -51 105t-145 36q-46 0 -96.5 -14.5t-108.5 -47.5l-40 104q64 35 124.5 49t120.5 14q74 0 134 -15.5t103.5 -45.5t67 -73.5t23.5 -100.5q0 -29 -9.5 -56t-26.5 -50t-40 -41t-50 -29q30 -12 57.5 -31.5t48.5 -44.5t33.5 -55.5
t12.5 -65.5q0 -61 -24 -111.5t-68 -86.5t-107.5 -56t-143.5 -20q-84 0 -167 25.5t-145 67.5l57 98q57 -42 121.5 -65.5t126.5 -23.5q51 0 91.5 12.5t68.5 35t43 53.5t15 68q0 75 -58.5 112.5t-162.5 37.5h-108v99z" />
    <glyph glyph-name="acute" unicode="&#xb4;" horiz-adv-x="700" 
d="M382 1499l170 -72l-249 -198l-144 17z" />
    <glyph glyph-name="uni00B5" unicode="&#xb5;" horiz-adv-x="1340" 
d="M171 1054h160v-593q0 -75 18.5 -136t56 -103.5t95.5 -65.5t136 -23q83 0 148 26.5t109 75t67 117t23 152.5v550h160v-1054h-153v183q-52 -96 -144 -144.5t-207 -48.5q-103 0 -181 34.5t-128 103.5v-528h-160v1454z" />
    <glyph glyph-name="paragraph" unicode="&#xb6;" horiz-adv-x="1191" 
d="M427 761q-36 -3 -66 -3q-71 0 -125.5 16.5t-94 44.5t-66 64.5t-43 76t-23 79.5t-6.5 74q0 71 24 137.5t75.5 118.5t133.5 83.5t198 31.5h549v-1704h-130v1600h-296v-1600h-130v981z" />
    <glyph glyph-name="periodcentered" unicode="&#xb7;" horiz-adv-x="415" 
d="M208 665q45 0 75.5 -30t30.5 -76q0 -22 -8 -42t-22.5 -34t-33.5 -22.5t-42 -8.5q-22 0 -42 8.5t-34 22.5t-22.5 34t-8.5 42q0 23 8.5 42.5t22.5 33.5t34 22t42 8z" />
    <glyph glyph-name="cedilla" unicode="&#xb8;" horiz-adv-x="561" 
d="M274 43l113 -14l-35 -102q42 -5 73 -19.5t50.5 -35.5t29 -46.5t9.5 -52.5q0 -39 -15.5 -71t-44 -54.5t-68 -35t-86.5 -12.5t-94 12t-84 31l37 100q26 -14 59 -22t63 -8q51 0 75.5 23.5t24.5 50.5q0 29 -26 49.5t-78 20.5h-62z" />
    <glyph glyph-name="onesuperior" unicode="&#xb9;" horiz-adv-x="520" 
d="M403 720h-121v616h-224v98h224v128h121v-842z" />
    <glyph glyph-name="ordmasculine" unicode="&#xba;" horiz-adv-x="807" 
d="M403 1415q74 0 135 -23t105.5 -64.5t69 -99t24.5 -127.5t-24.5 -127.5t-69 -98.5t-105.5 -64t-135 -23t-135 23t-105 64t-68.5 98.5t-24.5 127.5t24.5 127.5t68.5 99t105 64.5t135 23zM403 1318q-46 0 -85 -16t-67.5 -44.5t-44 -68.5t-15.5 -88q0 -49 15.5 -90t44 -69.5
t67.5 -44.5t85 -16t84.5 16t66 44.5t43 69.5t15.5 90q0 48 -15.5 88t-43 68.5t-66 44.5t-84.5 16z" />
    <glyph glyph-name="guillemotright" unicode="&#xbb;" horiz-adv-x="878" 
d="M266 179h-144l215 334l-215 332h144l227 -332zM581 179h-144l215 334l-215 332h144l228 -332z" />
    <glyph glyph-name="onequarter" unicode="&#xbc;" horiz-adv-x="1436" 
d="M1137 842h144v-534h129v-92h-129v-216h-121v216h-417v90zM1099 1400h137l-1044 -1400h-139zM403 575h-121v616h-224v98h224v128h121v-842zM1160 308v395l-289 -395h289z" />
    <glyph glyph-name="onehalf" unicode="&#xbd;" horiz-adv-x="1490" 
d="M1108 434q52 54 83 105t31 92q0 60 -41.5 93.5t-116.5 33.5q-60 0 -124 -29t-120 -80l-55 91q70 58 151 90t166 32q50 0 99 -12t88 -38t63.5 -66.5t24.5 -97.5q0 -39 -15.5 -78t-39.5 -75t-52.5 -68.5t-54.5 -57.5l-254 -269h462v-100h-624v89zM1099 1400h137
l-1044 -1400h-139zM403 575h-121v616h-224v98h224v128h121v-842z" />
    <glyph glyph-name="threequarters" unicode="&#xbe;" horiz-adv-x="1611" 
d="M1330 842h144v-534h128v-92h-128v-216h-122v216h-417v90zM1292 1400h137l-1045 -1400h-138zM221 1078h157q78 0 112 29.5t34 86.5q0 69 -51 105t-145 36q-46 0 -96.5 -14.5t-108.5 -47.5l-40 104q64 35 124.5 49t120.5 14q74 0 134 -15.5t103.5 -45.5t67 -73.5
t23.5 -100.5q0 -29 -9.5 -56t-26.5 -50t-40 -41t-50 -29q30 -12 57.5 -31.5t48.5 -44.5t33.5 -55.5t12.5 -65.5q0 -61 -24 -111.5t-68 -86.5t-107.5 -56t-143.5 -20q-84 0 -167 25.5t-145 67.5l57 98q57 -42 121.5 -65.5t126.5 -23.5q51 0 91.5 12.5t68.5 35t43 53.5t15 68
q0 75 -58.5 112.5t-162.5 37.5h-108v99zM1352 308v395l-288 -395h288z" />
    <glyph glyph-name="questiondown" unicode="&#xbf;" horiz-adv-x="1139" 
d="M727 669q19 -39 27.5 -71t8.5 -61q0 -74 -39 -125t-99 -86l-185 -111q-56 -33 -91.5 -78.5t-35.5 -110.5q0 -51 20.5 -94t60 -74t97 -48.5t130.5 -17.5q127 0 218.5 41t155.5 120l121 -88q-82 -103 -208 -159t-297 -56q-106 0 -192 24.5t-146.5 70t-93.5 110.5t-33 146
q0 99 39 166.5t102 106.5l186 115q27 17 50.5 34t41 36t27.5 41t10 49q0 19 -6 40.5t-15 44.5zM649 1074q25 0 46 -9t36 -24t23.5 -35.5t8.5 -43.5q0 -48 -32 -80t-82 -32q-24 0 -45 8.5t-36 23.5t-23.5 35.5t-8.5 44.5q0 23 8.5 43.5t23.5 35.5t36 24t45 9z" />
    <glyph glyph-name="Agrave" unicode="&#xc0;" horiz-adv-x="1442" 
d="M634 1400h176l624 -1400h-183l-156 358h-752l-155 -358h-180zM1031 505l-314 721l-311 -721h625zM596 1798l223 -253l-144 -17l-249 198z" />
    <glyph glyph-name="Aacute" unicode="&#xc1;" horiz-adv-x="1442" 
d="M634 1400h176l624 -1400h-183l-156 358h-752l-155 -358h-180zM1031 505l-314 721l-311 -721h625zM846 1798l170 -72l-249 -198l-144 17z" />
    <glyph glyph-name="Acircumflex" unicode="&#xc2;" horiz-adv-x="1442" 
d="M634 1400h176l624 -1400h-183l-156 358h-752l-155 -358h-180zM1031 505l-314 721l-311 -721h625zM633 1792h176l208 -257h-167l-129 142l-130 -142h-166z" />
    <glyph glyph-name="Atilde" unicode="&#xc3;" horiz-adv-x="1442" 
d="M634 1400h176l624 -1400h-183l-156 358h-752l-155 -358h-180zM1031 505l-314 721l-311 -721h625zM1030 1756q0 -46 -8.5 -87t-28 -72t-49.5 -49.5t-74 -18.5q-42 0 -78 17t-67.5 38t-60 38t-54.5 17q-39 0 -54.5 -29t-15.5 -73h-116q0 46 8.5 87t27.5 72t49.5 49.5
t73.5 18.5q42 0 78 -17t68 -38t60 -38t55 -17q39 0 54 28.5t15 73.5h117z" />
    <glyph glyph-name="Adieresis" unicode="&#xc4;" horiz-adv-x="1442" 
d="M634 1400h176l624 -1400h-183l-156 358h-752l-155 -358h-180zM1031 505l-314 721l-311 -721h625zM553 1724q41 0 69 -27.5t28 -69.5t-28 -70.5t-69 -28.5q-21 0 -39 7.5t-31.5 21t-21 31.5t-7.5 39q0 42 28.5 69.5t70.5 27.5zM891 1724q42 0 70 -27.5t28 -69.5t-28 -70.5
t-70 -28.5q-21 0 -39 7.5t-31 21t-20.5 31.5t-7.5 39q0 42 28 69.5t70 27.5z" />
    <glyph glyph-name="Aring" unicode="&#xc5;" horiz-adv-x="1442" 
d="M630 1391q-52 26 -84 74.5t-32 107.5q0 41 16.5 78t44.5 65t66 44.5t80 16.5q43 0 80.5 -16.5t66 -44.5t45 -65t16.5 -78q0 -59 -32 -107.5t-83 -74.5l620 -1391h-183l-156 358h-752l-155 -358h-180zM1031 505l-314 721l-311 -721h625zM721 1686q-24 0 -45 -9t-37 -24.5
t-25.5 -36t-9.5 -43.5t9.5 -43.5t25.5 -36t37 -24.5t45 -9t45 9t37.5 24.5t26 36t9.5 43.5t-9.5 43.5t-26 36t-37.5 24.5t-45 9z" />
    <glyph glyph-name="AE" unicode="&#xc6;" horiz-adv-x="2060" 
d="M965 384h-557l-220 -384h-180l822 1400h1092v-148h-788v-469h705v-147h-705v-488h814v-148h-983v384zM965 514v750h-51l-431 -750h482z" />
    <glyph glyph-name="Ccedilla" unicode="&#xc7;" horiz-adv-x="1400" 
d="M1223 1091q-40 41 -88 74t-101 55.5t-109 34.5t-113 12q-117 0 -219.5 -44t-178 -120.5t-119.5 -179.5t-44 -220q0 -78 20 -150t56 -135t87.5 -114t113.5 -88t134 -57t150 -20q114 0 221 45t190 124l103 -106q-49 -47 -107 -85t-122 -66t-132 -44t-138 -19l-20 -61
q42 -5 73 -19.5t50.5 -35.5t29 -46.5t9.5 -52.5q0 -39 -15.5 -71t-44 -54.5t-68 -35t-86.5 -12.5t-94.5 12t-83.5 31l37 100q25 -14 58.5 -22t63.5 -8q51 0 75.5 23.5t24.5 50.5q0 29 -26 49.5t-78 20.5h-62l43 136q-135 16 -251 77.5t-201 156t-133.5 216t-48.5 259.5
q0 99 26 190t73 170t113.5 143.5t147.5 110.5t174.5 71t195.5 25q72 0 143 -14t137 -40.5t125.5 -64.5t109.5 -86z" />
    <glyph glyph-name="Egrave" unicode="&#xc8;" horiz-adv-x="1305" 
d="M208 1400h959v-148h-788v-469h703v-147h-703v-488h813v-148h-984v1400zM577 1799l223 -253l-144 -17l-249 198z" />
    <glyph glyph-name="Eacute" unicode="&#xc9;" horiz-adv-x="1305" 
d="M208 1400h959v-148h-788v-469h703v-147h-703v-488h813v-148h-984v1400zM827 1799l170 -72l-249 -198l-144 17z" />
    <glyph glyph-name="Ecircumflex" unicode="&#xca;" horiz-adv-x="1305" 
d="M208 1400h959v-148h-788v-469h703v-147h-703v-488h813v-148h-984v1400zM614 1793h176l208 -257h-167l-129 142l-130 -142h-166z" />
    <glyph glyph-name="Edieresis" unicode="&#xcb;" horiz-adv-x="1305" 
d="M208 1400h959v-148h-788v-469h703v-147h-703v-488h813v-148h-984v1400zM534 1725q41 0 69 -27.5t28 -69.5t-28 -70.5t-69 -28.5q-21 0 -39 7.5t-31.5 21t-21 31.5t-7.5 39q0 42 28.5 69.5t70.5 27.5zM872 1725q42 0 70 -27.5t28 -69.5t-28 -70.5t-70 -28.5q-21 0 -39 7.5
t-31 21t-20.5 31.5t-7.5 39q0 42 28 69.5t70 27.5z" />
    <glyph glyph-name="Igrave" unicode="&#xcc;" horiz-adv-x="587" 
d="M208 1400h171v-1400h-171v1400zM167 1798l223 -253l-144 -17l-249 198z" />
    <glyph glyph-name="Iacute" unicode="&#xcd;" horiz-adv-x="587" 
d="M208 1400h171v-1400h-171v1400zM417 1798l170 -72l-249 -198l-144 17z" />
    <glyph glyph-name="Icircumflex" unicode="&#xce;" horiz-adv-x="587" 
d="M208 1400h171v-1400h-171v1400zM204 1792h176l208 -257h-167l-129 142l-130 -142h-166z" />
    <glyph glyph-name="Idieresis" unicode="&#xcf;" horiz-adv-x="587" 
d="M208 1400h171v-1400h-171v1400zM124 1724q41 0 69 -27.5t28 -69.5t-28 -70.5t-69 -28.5q-21 0 -39 7.5t-31.5 21t-21 31.5t-7.5 39q0 42 28.5 69.5t70.5 27.5zM462 1724q42 0 70 -27.5t28 -69.5t-28 -70.5t-70 -28.5q-21 0 -39 7.5t-31 21t-20.5 31.5t-7.5 39
q0 42 28 69.5t70 27.5z" />
    <glyph glyph-name="Eth" unicode="&#xd0;" horiz-adv-x="1575" 
d="M65 751h143v649h567q154 0 286 -53.5t228.5 -147.5t151.5 -222t55 -278q0 -99 -25 -189.5t-71 -168t-111 -140.5t-146 -108t-175 -69t-197 -24h-563v649h-143v102zM779 148q114 0 213.5 42t173 115.5t116 174t42.5 218.5q0 119 -43 220.5t-117.5 175.5t-175 116
t-216.5 42h-393v-501h454v-102h-454v-501h400z" />
    <glyph glyph-name="Ntilde" unicode="&#xd1;" horiz-adv-x="1589" 
d="M208 1400h175l829 -1139v1139h168v-1400h-175l-826 1135v-1135h-171v1400zM1128 1757q0 -46 -8.5 -87t-28 -72t-49.5 -49.5t-74 -18.5q-42 0 -78 17t-67.5 38t-60 38t-54.5 17q-39 0 -54.5 -29t-15.5 -73h-116q0 46 8.5 87t27.5 72t49.5 49.5t73.5 18.5q42 0 78 -17
t68 -38t60 -38t55 -17q39 0 54 28.5t15 73.5h117z" />
    <glyph glyph-name="Ograve" unicode="&#xd2;" horiz-adv-x="1626" 
d="M813 1412q103 0 197 -25t175.5 -71t148 -110.5t114 -143.5t73.5 -170t26 -190t-26 -190.5t-73.5 -171t-114 -144.5t-148 -111.5t-175.5 -72t-197 -25.5q-102 0 -196.5 25.5t-176 72t-148 111.5t-114 144.5t-73.5 171t-26 190.5t26 190.5t73.5 170t114 143t148 110.5
t176 71t196.5 25zM814 1265q-115 0 -217.5 -44t-179 -120.5t-121 -179t-44.5 -219.5q0 -78 20.5 -151t57.5 -136t88.5 -115t114 -88.5t134 -57t147.5 -20.5q115 0 217 44.5t178 121.5t120 180.5t44 221.5q0 117 -44 219.5t-120 179t-178 120.5t-217 44zM688 1799l223 -253
l-144 -17l-249 198z" />
    <glyph glyph-name="Oacute" unicode="&#xd3;" horiz-adv-x="1626" 
d="M813 1412q103 0 197 -25t175.5 -71t148 -110.5t114 -143.5t73.5 -170t26 -190t-26 -190.5t-73.5 -171t-114 -144.5t-148 -111.5t-175.5 -72t-197 -25.5q-102 0 -196.5 25.5t-176 72t-148 111.5t-114 144.5t-73.5 171t-26 190.5t26 190.5t73.5 170t114 143t148 110.5
t176 71t196.5 25zM814 1265q-115 0 -217.5 -44t-179 -120.5t-121 -179t-44.5 -219.5q0 -78 20.5 -151t57.5 -136t88.5 -115t114 -88.5t134 -57t147.5 -20.5q115 0 217 44.5t178 121.5t120 180.5t44 221.5q0 117 -44 219.5t-120 179t-178 120.5t-217 44zM939 1799l170 -72
l-249 -198l-144 17z" />
    <glyph glyph-name="Ocircumflex" unicode="&#xd4;" horiz-adv-x="1626" 
d="M813 1412q103 0 197 -25t175.5 -71t148 -110.5t114 -143.5t73.5 -170t26 -190t-26 -190.5t-73.5 -171t-114 -144.5t-148 -111.5t-175.5 -72t-197 -25.5q-102 0 -196.5 25.5t-176 72t-148 111.5t-114 144.5t-73.5 171t-26 190.5t26 190.5t73.5 170t114 143t148 110.5
t176 71t196.5 25zM814 1265q-115 0 -217.5 -44t-179 -120.5t-121 -179t-44.5 -219.5q0 -78 20.5 -151t57.5 -136t88.5 -115t114 -88.5t134 -57t147.5 -20.5q115 0 217 44.5t178 121.5t120 180.5t44 221.5q0 117 -44 219.5t-120 179t-178 120.5t-217 44zM725 1793h176
l208 -257h-167l-129 142l-130 -142h-166z" />
    <glyph glyph-name="Otilde" unicode="&#xd5;" horiz-adv-x="1626" 
d="M813 1412q103 0 197 -25t175.5 -71t148 -110.5t114 -143.5t73.5 -170t26 -190t-26 -190.5t-73.5 -171t-114 -144.5t-148 -111.5t-175.5 -72t-197 -25.5q-102 0 -196.5 25.5t-176 72t-148 111.5t-114 144.5t-73.5 171t-26 190.5t26 190.5t73.5 170t114 143t148 110.5
t176 71t196.5 25zM814 1265q-115 0 -217.5 -44t-179 -120.5t-121 -179t-44.5 -219.5q0 -78 20.5 -151t57.5 -136t88.5 -115t114 -88.5t134 -57t147.5 -20.5q115 0 217 44.5t178 121.5t120 180.5t44 221.5q0 117 -44 219.5t-120 179t-178 120.5t-217 44zM1123 1757
q0 -46 -8.5 -87t-28 -72t-49.5 -49.5t-74 -18.5q-42 0 -78 17t-67.5 38t-60 38t-54.5 17q-39 0 -54.5 -29t-15.5 -73h-116q0 46 8.5 87t27.5 72t49.5 49.5t73.5 18.5q42 0 78 -17t68 -38t60 -38t55 -17q39 0 54 28.5t15 73.5h117z" />
    <glyph glyph-name="Odieresis" unicode="&#xd6;" horiz-adv-x="1626" 
d="M813 1412q103 0 197 -25t175.5 -71t148 -110.5t114 -143.5t73.5 -170t26 -190t-26 -190.5t-73.5 -171t-114 -144.5t-148 -111.5t-175.5 -72t-197 -25.5q-102 0 -196.5 25.5t-176 72t-148 111.5t-114 144.5t-73.5 171t-26 190.5t26 190.5t73.5 170t114 143t148 110.5
t176 71t196.5 25zM814 1265q-115 0 -217.5 -44t-179 -120.5t-121 -179t-44.5 -219.5q0 -78 20.5 -151t57.5 -136t88.5 -115t114 -88.5t134 -57t147.5 -20.5q115 0 217 44.5t178 121.5t120 180.5t44 221.5q0 117 -44 219.5t-120 179t-178 120.5t-217 44zM645 1725
q41 0 69 -27.5t28 -69.5t-28 -70.5t-69 -28.5q-21 0 -39 7.5t-31.5 21t-21 31.5t-7.5 39q0 42 28.5 69.5t70.5 27.5zM983 1725q42 0 70 -27.5t28 -69.5t-28 -70.5t-70 -28.5q-21 0 -39 7.5t-31 21t-20.5 31.5t-7.5 39q0 42 28 69.5t70 27.5z" />
    <glyph glyph-name="multiply" unicode="&#xd7;" horiz-adv-x="984" 
d="M412 646l-255 254l80 81l256 -255l255 255l80 -81l-255 -254l255 -255l-80 -80l-255 254l-256 -254l-80 80z" />
    <glyph glyph-name="Oslash" unicode="&#xd8;" horiz-adv-x="1626" 
d="M356 145q-64 48 -115 109t-87 132t-55.5 150t-19.5 164q0 99 26 189.5t73.5 168.5t114 142t148 109.5t176 70t196.5 24.5q97 0 186 -22t168 -63l132 192h147l-177 -256q64 -48 115.5 -108.5t87.5 -131.5t55.5 -150t19.5 -165q0 -98 -26 -188.5t-73.5 -169.5t-114 -143
t-148 -110t-175.5 -71t-197 -25q-98 0 -187.5 22.5t-168.5 64.5l-131 -190h-146zM814 1257q-115 0 -217.5 -43.5t-179 -119t-121 -177t-44.5 -217.5q0 -128 52.5 -236.5t142.5 -186.5l631 914q-59 32 -125.5 49t-138.5 17zM1373 700q0 128 -52.5 237t-142.5 186l-632 -914
q60 -33 128 -51t140 -18q115 0 217 44t178 120t120 178t44 218z" />
    <glyph glyph-name="Ugrave" unicode="&#xd9;" horiz-adv-x="1529" 
d="M348 570q0 -103 29 -184t83 -137t131.5 -85.5t174.5 -29.5t174 29.5t130.5 85t82 137t28.5 184.5v830h170v-830q0 -137 -40 -245t-115.5 -183t-184 -115t-245.5 -40q-138 0 -247.5 40t-185 115t-116 183t-40.5 245v830h171v-830zM640 1799l223 -253l-144 -17l-249 198z
" />
    <glyph glyph-name="Uacute" unicode="&#xda;" horiz-adv-x="1529" 
d="M348 570q0 -103 29 -184t83 -137t131.5 -85.5t174.5 -29.5t174 29.5t130.5 85t82 137t28.5 184.5v830h170v-830q0 -137 -40 -245t-115.5 -183t-184 -115t-245.5 -40q-138 0 -247.5 40t-185 115t-116 183t-40.5 245v830h171v-830zM891 1799l170 -72l-249 -198l-144 17z
" />
    <glyph glyph-name="Ucircumflex" unicode="&#xdb;" horiz-adv-x="1529" 
d="M348 570q0 -103 29 -184t83 -137t131.5 -85.5t174.5 -29.5t174 29.5t130.5 85t82 137t28.5 184.5v830h170v-830q0 -137 -40 -245t-115.5 -183t-184 -115t-245.5 -40q-138 0 -247.5 40t-185 115t-116 183t-40.5 245v830h171v-830zM677 1793h176l208 -257h-167l-129 142
l-130 -142h-166z" />
    <glyph glyph-name="Udieresis" unicode="&#xdc;" horiz-adv-x="1529" 
d="M348 570q0 -103 29 -184t83 -137t131.5 -85.5t174.5 -29.5t174 29.5t130.5 85t82 137t28.5 184.5v830h170v-830q0 -137 -40 -245t-115.5 -183t-184 -115t-245.5 -40q-138 0 -247.5 40t-185 115t-116 183t-40.5 245v830h171v-830zM597 1725q41 0 69 -27.5t28 -69.5
t-28 -70.5t-69 -28.5q-21 0 -39 7.5t-31.5 21t-21 31.5t-7.5 39q0 42 28.5 69.5t70.5 27.5zM935 1725q42 0 70 -27.5t28 -69.5t-28 -70.5t-70 -28.5q-21 0 -39 7.5t-31 21t-20.5 31.5t-7.5 39q0 42 28 69.5t70 27.5z" />
    <glyph glyph-name="Yacute" unicode="&#xdd;" horiz-adv-x="1254" 
d="M546 488l-538 912h175l447 -735l440 735h176l-530 -906v-494h-170v488zM751 1799l170 -72l-249 -198l-144 17z" />
    <glyph glyph-name="Thorn" unicode="&#xde;" horiz-adv-x="1346" 
d="M208 1400h171v-208h320q292 0 443 -116.5t151 -340.5q0 -234 -151 -354.5t-443 -120.5h-320v-260h-171v1400zM379 396h314q426 0 426 335q0 161 -106 243t-320 82h-314v-660z" />
    <glyph glyph-name="germandbls" unicode="&#xdf;" horiz-adv-x="1299" 
d="M177 980q0 116 34 210.5t97 161.5t153.5 103t203.5 36q99 0 181 -27t140.5 -76.5t90.5 -119.5t32 -156q0 -63 -18 -119.5t-51 -102.5t-80 -80t-105 -51q73 -12 134 -40.5t105 -72.5t68.5 -103t24.5 -132q0 -91 -36 -166.5t-102.5 -130t-161 -84.5t-210.5 -30h-104v125
h116q76 0 138 20.5t105.5 57.5t67.5 89t24 114q0 64 -26.5 115t-75.5 86.5t-118 54.5t-154 19h-21v124q73 0 132 20t100.5 57.5t64 90.5t22.5 118q0 62 -20.5 111.5t-58 84.5t-90 54t-117.5 19q-73 0 -132.5 -26t-100.5 -74.5t-63.5 -116.5t-22.5 -152v-991h-166v980z" />
    <glyph glyph-name="agrave" unicode="&#xe0;" horiz-adv-x="1156" 
d="M837 162q-61 -86 -157.5 -127.5t-221.5 -41.5q-82 0 -149 24.5t-114 67.5t-72.5 101.5t-25.5 126.5q0 69 26.5 124.5t77.5 94.5t124.5 60t167.5 21h343l-1 66q0 118 -69.5 183t-208.5 65q-86 0 -167.5 -31.5t-162.5 -89.5l-71 109q51 34 99.5 60.5t100 45t108.5 28
t126 9.5q98 0 174 -25t128 -72t79 -114.5t28 -151.5l3 -695h-164zM491 124q67 0 124.5 16.5t102.5 47.5t76 75.5t43 100.5l-1 127h-321q-261 0 -261 -173q0 -43 16.5 -79t47.5 -61.5t74.5 -39.5t98.5 -14zM433 1499l223 -253l-144 -17l-249 198z" />
    <glyph glyph-name="aacute" unicode="&#xe1;" horiz-adv-x="1156" 
d="M837 162q-61 -86 -157.5 -127.5t-221.5 -41.5q-82 0 -149 24.5t-114 67.5t-72.5 101.5t-25.5 126.5q0 69 26.5 124.5t77.5 94.5t124.5 60t167.5 21h343l-1 66q0 118 -69.5 183t-208.5 65q-86 0 -167.5 -31.5t-162.5 -89.5l-71 109q51 34 99.5 60.5t100 45t108.5 28
t126 9.5q98 0 174 -25t128 -72t79 -114.5t28 -151.5l3 -695h-164zM491 124q67 0 124.5 16.5t102.5 47.5t76 75.5t43 100.5l-1 127h-321q-261 0 -261 -173q0 -43 16.5 -79t47.5 -61.5t74.5 -39.5t98.5 -14zM718 1499l170 -72l-249 -198l-144 17z" />
    <glyph glyph-name="acircumflex" unicode="&#xe2;" horiz-adv-x="1156" 
d="M837 162q-61 -86 -157.5 -127.5t-221.5 -41.5q-82 0 -149 24.5t-114 67.5t-72.5 101.5t-25.5 126.5q0 69 26.5 124.5t77.5 94.5t124.5 60t167.5 21h343l-1 66q0 118 -69.5 183t-208.5 65q-86 0 -167.5 -31.5t-162.5 -89.5l-71 109q51 34 99.5 60.5t100 45t108.5 28
t126 9.5q98 0 174 -25t128 -72t79 -114.5t28 -151.5l3 -695h-164zM491 124q67 0 124.5 16.5t102.5 47.5t76 75.5t43 100.5l-1 127h-321q-261 0 -261 -173q0 -43 16.5 -79t47.5 -61.5t74.5 -39.5t98.5 -14zM499 1493h176l208 -257h-167l-129 142l-130 -142h-166z" />
    <glyph glyph-name="atilde" unicode="&#xe3;" horiz-adv-x="1156" 
d="M837 162q-61 -86 -157.5 -127.5t-221.5 -41.5q-82 0 -149 24.5t-114 67.5t-72.5 101.5t-25.5 126.5q0 69 26.5 124.5t77.5 94.5t124.5 60t167.5 21h343l-1 66q0 118 -69.5 183t-208.5 65q-86 0 -167.5 -31.5t-162.5 -89.5l-71 109q51 34 99.5 60.5t100 45t108.5 28
t126 9.5q98 0 174 -25t128 -72t79 -114.5t28 -151.5l3 -695h-164zM491 124q67 0 124.5 16.5t102.5 47.5t76 75.5t43 100.5l-1 127h-321q-261 0 -261 -173q0 -43 16.5 -79t47.5 -61.5t74.5 -39.5t98.5 -14zM890 1452q0 -46 -8.5 -87t-28 -72t-49.5 -49.5t-74 -18.5
q-42 0 -78 17t-67.5 38t-60 38t-54.5 17q-39 0 -54.5 -29t-15.5 -73h-116q0 46 8.5 87t27.5 72t49.5 49.5t73.5 18.5q42 0 78 -17t68 -38t60 -38t55 -17q39 0 54 28.5t15 73.5h117z" />
    <glyph glyph-name="adieresis" unicode="&#xe4;" horiz-adv-x="1156" 
d="M837 162q-61 -86 -157.5 -127.5t-221.5 -41.5q-82 0 -149 24.5t-114 67.5t-72.5 101.5t-25.5 126.5q0 69 26.5 124.5t77.5 94.5t124.5 60t167.5 21h343l-1 66q0 118 -69.5 183t-208.5 65q-86 0 -167.5 -31.5t-162.5 -89.5l-71 109q51 34 99.5 60.5t100 45t108.5 28
t126 9.5q98 0 174 -25t128 -72t79 -114.5t28 -151.5l3 -695h-164zM491 124q67 0 124.5 16.5t102.5 47.5t76 75.5t43 100.5l-1 127h-321q-261 0 -261 -173q0 -43 16.5 -79t47.5 -61.5t74.5 -39.5t98.5 -14zM419 1451q21 0 38.5 -7.5t31 -20.5t21 -31t7.5 -39q0 -41 -28 -69.5
t-70 -28.5q-21 0 -39 7.5t-31 21t-20.5 31.5t-7.5 38q0 42 28 70t70 28zM757 1451q20 0 38 -7.5t31 -20.5t20.5 -31t7.5 -39q0 -41 -28 -69.5t-69 -28.5q-21 0 -39 7.5t-31.5 21t-21 31.5t-7.5 38q0 42 28.5 70t70.5 28z" />
    <glyph glyph-name="aring" unicode="&#xe5;" horiz-adv-x="1156" 
d="M837 162q-61 -86 -157.5 -127.5t-221.5 -41.5q-82 0 -149 24.5t-114 67.5t-72.5 101.5t-25.5 126.5q0 69 26.5 124.5t77.5 94.5t124.5 60t167.5 21h343l-1 66q0 118 -69.5 183t-208.5 65q-86 0 -167.5 -31.5t-162.5 -89.5l-71 109q51 34 99.5 60.5t100 45t108.5 28
t126 9.5q98 0 174 -25t128 -72t79 -114.5t28 -151.5l3 -695h-164zM491 124q67 0 124.5 16.5t102.5 47.5t76 75.5t43 100.5l-1 127h-321q-261 0 -261 -173q0 -43 16.5 -79t47.5 -61.5t74.5 -39.5t98.5 -14zM586 1567q43 0 80.5 -16.5t66 -44.5t45 -65t16.5 -78t-16.5 -78
t-45 -65t-66 -44.5t-80.5 -16.5q-42 0 -80 16.5t-66 44.5t-44.5 65t-16.5 78t16.5 78t44.5 65t66 44.5t80 16.5zM586 1476q-24 0 -45 -9t-37 -24.5t-25.5 -36t-9.5 -43.5t9.5 -43.5t25.5 -36t37 -24.5t45 -9t45.5 9t37.5 24.5t25.5 36t9.5 43.5t-9.5 43.5t-25.5 36
t-37.5 24.5t-45.5 9z" />
    <glyph glyph-name="ae" unicode="&#xe6;" horiz-adv-x="1959" 
d="M457 -7q-81 0 -147 23t-113.5 64t-73.5 98.5t-26 127.5q0 68 27 122t78 92t125 58t168 20h344v81q0 121 -72.5 184.5t-208.5 63.5q-87 0 -174.5 -30t-181.5 -91l-47 115q223 137 435 137q142 0 237.5 -54.5t134.5 -157.5q65 102 170.5 157t236.5 55q117 0 213 -42.5
t163.5 -118t103 -181t32.5 -231.5h-873v-28q0 -66 31 -126t82.5 -106t120 -73t143.5 -27q96 0 178 34t144 100l92 -90q-80 -86 -188.5 -130t-237.5 -44q-79 0 -149.5 19t-129.5 55t-105 87.5t-76 115.5q-64 -139 -178.5 -209t-277.5 -70zM1371 938q-73 0 -138 -23.5
t-114 -68t-78.5 -107.5t-32.5 -141h707q-4 79 -30.5 142t-71.5 107t-106.5 67.5t-135.5 23.5zM492 109q126 0 210 57.5t137 180.5v138h-315q-130 0 -200 -39.5t-70 -127.5q0 -47 17 -85.5t48.5 -66t75 -42.5t97.5 -15z" />
    <glyph glyph-name="ccedilla" unicode="&#xe7;" horiz-adv-x="1123" 
d="M924 795q-59 57 -136.5 90t-174.5 33q-79 0 -146.5 -28.5t-116 -80.5t-76 -124t-27.5 -159q0 -88 27.5 -160.5t76 -124.5t116 -80.5t146.5 -28.5q103 0 185.5 34.5t139.5 102.5l94 -94q-67 -81 -168.5 -128t-231.5 -52l-23 -68q43 -5 73.5 -19.5t50 -35.5t29 -46.5
t9.5 -52.5q0 -39 -15.5 -71t-44 -54.5t-68 -35t-86.5 -12.5t-94 12t-84 31l38 100q25 -14 58.5 -22t63.5 -8q50 0 75 23.5t25 50.5q0 29 -26.5 49.5t-77.5 20.5h-62l45 144q-97 14 -177.5 58t-138 112.5t-89.5 158.5t-32 196q0 117 39 215t108.5 168.5t166 109.5t211.5 39
q131 0 235 -40.5t176 -114.5z" />
    <glyph glyph-name="egrave" unicode="&#xe8;" horiz-adv-x="1177" 
d="M247 469q9 -78 40.5 -141.5t80.5 -108.5t113.5 -69.5t140.5 -24.5q96 0 178.5 34.5t143.5 99.5l91 -90q-76 -83 -184 -128.5t-241 -45.5q-118 0 -215 39t-167 109t-108.5 167.5t-38.5 215.5q0 117 39 215t109 168t166 109.5t211 39.5q129 0 225 -42t157.5 -119t89 -185.5
t20.5 -242.5h-851zM607 927q-74 0 -136.5 -24t-109.5 -68t-77 -106t-38 -138h705q-4 77 -30 139t-70.5 106t-106 67.5t-137.5 23.5zM446 1499l223 -253l-144 -17l-249 198z" />
    <glyph glyph-name="eacute" unicode="&#xe9;" horiz-adv-x="1177" 
d="M247 469q9 -78 40.5 -141.5t80.5 -108.5t113.5 -69.5t140.5 -24.5q96 0 178.5 34.5t143.5 99.5l91 -90q-76 -83 -184 -128.5t-241 -45.5q-118 0 -215 39t-167 109t-108.5 167.5t-38.5 215.5q0 117 39 215t109 168t166 109.5t211 39.5q129 0 225 -42t157.5 -119t89 -185.5
t20.5 -242.5h-851zM607 927q-74 0 -136.5 -24t-109.5 -68t-77 -106t-38 -138h705q-4 77 -30 139t-70.5 106t-106 67.5t-137.5 23.5zM729 1499l170 -72l-249 -198l-144 17z" />
    <glyph glyph-name="ecircumflex" unicode="&#xea;" horiz-adv-x="1177" 
d="M247 469q9 -78 40.5 -141.5t80.5 -108.5t113.5 -69.5t140.5 -24.5q96 0 178.5 34.5t143.5 99.5l91 -90q-76 -83 -184 -128.5t-241 -45.5q-118 0 -215 39t-167 109t-108.5 167.5t-38.5 215.5q0 117 39 215t109 168t166 109.5t211 39.5q129 0 225 -42t157.5 -119t89 -185.5
t20.5 -242.5h-851zM607 927q-74 0 -136.5 -24t-109.5 -68t-77 -106t-38 -138h705q-4 77 -30 139t-70.5 106t-106 67.5t-137.5 23.5zM508 1493h176l208 -257h-167l-129 142l-130 -142h-166z" />
    <glyph glyph-name="edieresis" unicode="&#xeb;" horiz-adv-x="1177" 
d="M247 469q9 -78 40.5 -141.5t80.5 -108.5t113.5 -69.5t140.5 -24.5q96 0 178.5 34.5t143.5 99.5l91 -90q-76 -83 -184 -128.5t-241 -45.5q-118 0 -215 39t-167 109t-108.5 167.5t-38.5 215.5q0 117 39 215t109 168t166 109.5t211 39.5q129 0 225 -42t157.5 -119t89 -185.5
t20.5 -242.5h-851zM607 927q-74 0 -136.5 -24t-109.5 -68t-77 -106t-38 -138h705q-4 77 -30 139t-70.5 106t-106 67.5t-137.5 23.5zM428 1451q21 0 38.5 -7.5t31 -20.5t21 -31t7.5 -39q0 -41 -28 -69.5t-70 -28.5q-21 0 -39 7.5t-31 21t-20.5 31.5t-7.5 38q0 42 28 70t70 28
zM766 1451q20 0 38 -7.5t31 -20.5t20.5 -31t7.5 -39q0 -41 -28 -69.5t-69 -28.5q-21 0 -39 7.5t-31.5 21t-21 31.5t-7.5 38q0 42 28.5 70t70.5 28z" />
    <glyph glyph-name="igrave" unicode="&#xec;" horiz-adv-x="539" 
d="M187 1053h165v-1053h-165v1053zM115 1499l223 -253l-144 -17l-249 198z" />
    <glyph glyph-name="iacute" unicode="&#xed;" horiz-adv-x="539" 
d="M187 1053h165v-1053h-165v1053zM401 1499l170 -72l-249 -198l-144 17z" />
    <glyph glyph-name="icircumflex" unicode="&#xee;" horiz-adv-x="539" 
d="M187 1053h165v-1053h-165v1053zM182 1493h176l208 -257h-167l-129 142l-130 -142h-166z" />
    <glyph glyph-name="idieresis" unicode="&#xef;" horiz-adv-x="539" 
d="M187 1053h165v-1053h-165v1053zM129 1451q42 0 69.5 -28t27.5 -70q0 -41 -27.5 -69.5t-69.5 -28.5q-21 0 -39 7.5t-31.5 21t-21 31.5t-7.5 38q0 42 28.5 70t70.5 28zM413 1451q42 0 69.5 -28t27.5 -70q0 -41 -27.5 -69.5t-69.5 -28.5q-21 0 -39 7.5t-31.5 21t-21 31.5
t-7.5 38q0 42 28.5 70t70.5 28z" />
    <glyph glyph-name="eth" unicode="&#xf0;" horiz-adv-x="1164" 
d="M235 1091l310 143q-127 103 -277 177l109 80q83 -42 157.5 -91.5t140.5 -106.5l273 126l43 -90l-236 -109q78 -78 139 -164t103.5 -177.5t65 -186.5t22.5 -191q0 -115 -37 -209t-105 -160.5t-164.5 -102.5t-215.5 -36q-108 0 -195.5 32t-150 91.5t-96 143.5t-33.5 187
q0 99 32 179.5t91.5 137.5t143.5 88t187 31q61 0 118.5 -13.5t106.5 -39t87.5 -62t62.5 -81.5q-26 126 -102.5 247.5t-187.5 226.5l-348 -160zM577 764q-75 0 -136 -21.5t-103.5 -62t-66 -97t-23.5 -127.5q0 -73 23.5 -132.5t66.5 -101.5t103.5 -64.5t134.5 -22.5
q76 0 137.5 22t105 62.5t67 98t23.5 127.5q0 72 -23.5 131t-67 101t-104.5 64.5t-137 22.5z" />
    <glyph glyph-name="ntilde" unicode="&#xf1;" horiz-adv-x="1313" 
d="M993 609q0 71 -20 126.5t-58 94t-92 59t-123 20.5q-76 -1 -137.5 -26.5t-106 -70.5t-71 -108t-32.5 -139v-565h-166v1053h166v-231q56 120 159.5 177t247.5 59q94 0 168 -28t125.5 -81t78.5 -129t27 -171v-649h-166v609zM992 1452q0 -46 -8.5 -87t-28 -72t-49.5 -49.5
t-74 -18.5q-42 0 -78 17t-67.5 38t-60 38t-54.5 17q-39 0 -54.5 -29t-15.5 -73h-116q0 46 8.5 87t27.5 72t49.5 49.5t73.5 18.5q42 0 78 -17t68 -38t60 -38t55 -17q39 0 54 28.5t15 73.5h117z" />
    <glyph glyph-name="ograve" unicode="&#xf2;" horiz-adv-x="1237" 
d="M619 1058q118 0 216.5 -39t170 -109t111 -167.5t39.5 -215.5t-39.5 -215.5t-111 -168t-170 -109.5t-216.5 -39t-217 39t-170.5 109.5t-111 168t-39.5 215.5t39.5 215.5t111 167.5t170.5 109t217 39zM619 921q-81 0 -149.5 -29t-117.5 -81.5t-76.5 -125t-27.5 -159.5
q0 -88 27.5 -161t76.5 -125.5t117.5 -81.5t149.5 -29t149 29t117 81.5t76.5 125.5t27.5 161q0 87 -27.5 159.5t-76.5 125t-117 81.5t-149 29zM465 1499l223 -253l-144 -17l-249 198z" />
    <glyph glyph-name="oacute" unicode="&#xf3;" horiz-adv-x="1237" 
d="M619 1058q118 0 216.5 -39t170 -109t111 -167.5t39.5 -215.5t-39.5 -215.5t-111 -168t-170 -109.5t-216.5 -39t-217 39t-170.5 109.5t-111 168t-39.5 215.5t39.5 215.5t111 167.5t170.5 109t217 39zM619 921q-81 0 -149.5 -29t-117.5 -81.5t-76.5 -125t-27.5 -159.5
q0 -88 27.5 -161t76.5 -125.5t117.5 -81.5t149.5 -29t149 29t117 81.5t76.5 125.5t27.5 161q0 87 -27.5 159.5t-76.5 125t-117 81.5t-149 29zM751 1499l170 -72l-249 -198l-144 17z" />
    <glyph glyph-name="ocircumflex" unicode="&#xf4;" horiz-adv-x="1237" 
d="M619 1058q118 0 216.5 -39t170 -109t111 -167.5t39.5 -215.5t-39.5 -215.5t-111 -168t-170 -109.5t-216.5 -39t-217 39t-170.5 109.5t-111 168t-39.5 215.5t39.5 215.5t111 167.5t170.5 109t217 39zM619 921q-81 0 -149.5 -29t-117.5 -81.5t-76.5 -125t-27.5 -159.5
q0 -88 27.5 -161t76.5 -125.5t117.5 -81.5t149.5 -29t149 29t117 81.5t76.5 125.5t27.5 161q0 87 -27.5 159.5t-76.5 125t-117 81.5t-149 29zM532 1493h176l208 -257h-167l-129 142l-130 -142h-166z" />
    <glyph glyph-name="otilde" unicode="&#xf5;" horiz-adv-x="1237" 
d="M619 1058q118 0 216.5 -39t170 -109t111 -167.5t39.5 -215.5t-39.5 -215.5t-111 -168t-170 -109.5t-216.5 -39t-217 39t-170.5 109.5t-111 168t-39.5 215.5t39.5 215.5t111 167.5t170.5 109t217 39zM619 921q-81 0 -149.5 -29t-117.5 -81.5t-76.5 -125t-27.5 -159.5
q0 -88 27.5 -161t76.5 -125.5t117.5 -81.5t149.5 -29t149 29t117 81.5t76.5 125.5t27.5 161q0 87 -27.5 159.5t-76.5 125t-117 81.5t-149 29zM922 1452q0 -46 -8.5 -87t-28 -72t-49.5 -49.5t-74 -18.5q-42 0 -78 17t-67.5 38t-60 38t-54.5 17q-39 0 -54.5 -29t-15.5 -73
h-116q0 46 8.5 87t27.5 72t49.5 49.5t73.5 18.5q42 0 78 -17t68 -38t60 -38t55 -17q39 0 54 28.5t15 73.5h117z" />
    <glyph glyph-name="odieresis" unicode="&#xf6;" horiz-adv-x="1237" 
d="M619 1058q118 0 216.5 -39t170 -109t111 -167.5t39.5 -215.5t-39.5 -215.5t-111 -168t-170 -109.5t-216.5 -39t-217 39t-170.5 109.5t-111 168t-39.5 215.5t39.5 215.5t111 167.5t170.5 109t217 39zM619 921q-81 0 -149.5 -29t-117.5 -81.5t-76.5 -125t-27.5 -159.5
q0 -88 27.5 -161t76.5 -125.5t117.5 -81.5t149.5 -29t149 29t117 81.5t76.5 125.5t27.5 161q0 87 -27.5 159.5t-76.5 125t-117 81.5t-149 29zM452 1451q21 0 38.5 -7.5t31 -20.5t21 -31t7.5 -39q0 -41 -28 -69.5t-70 -28.5q-21 0 -39 7.5t-31 21t-20.5 31.5t-7.5 38
q0 42 28 70t70 28zM790 1451q20 0 38 -7.5t31 -20.5t20.5 -31t7.5 -39q0 -41 -28 -69.5t-69 -28.5q-21 0 -39 7.5t-31.5 21t-21 31.5t-7.5 38q0 42 28.5 70t70.5 28z" />
    <glyph glyph-name="divide" unicode="&#xf7;" horiz-adv-x="984" 
d="M493 391q41 0 69 -27.5t28 -70.5q0 -41 -28 -69t-69 -28q-21 0 -39 7.5t-31 20.5t-20.5 31t-7.5 38q0 43 28 70.5t70 27.5zM73 703h838v-115h-838v115zM493 1099q41 0 69 -27.5t28 -70.5q0 -41 -28 -69t-69 -28q-21 0 -39 7.5t-31 20.5t-20.5 31t-7.5 38q0 43 28 70.5
t70 27.5z" />
    <glyph glyph-name="oslash" unicode="&#xf8;" horiz-adv-x="1237" 
d="M272 108q-90 71 -140.5 178t-50.5 241q0 118 39.5 215.5t111 167.5t170.5 109t217 39q74 0 139.5 -15t122.5 -44l174 255h124l-212 -310q89 -70 139 -176.5t50 -240.5q0 -118 -39.5 -215.5t-111 -168t-170 -109.5t-216.5 -39q-73 0 -138.5 15t-122.5 43l-175 -254h-123z
M619 931q-83 0 -152.5 -29.5t-120 -83t-78.5 -128t-28 -164.5q0 -94 29 -170.5t83 -130.5l452 661q-41 22 -87 33.5t-98 11.5zM999 526q0 94 -29.5 169.5t-83.5 129.5l-453 -662q41 -22 87.5 -34t98.5 -12q83 0 153 30t120.5 84t78.5 129t28 166z" />
    <glyph glyph-name="ugrave" unicode="&#xf9;" 
d="M319 444q0 -70 19.5 -126t56.5 -94.5t89.5 -59t119.5 -20.5q80 2 142.5 31.5t106 81t66.5 123t23 156.5v517h167v-1053h-167v236q-54 -122 -154.5 -180.5t-242.5 -60.5q-92 0 -165 28t-123.5 81t-77.5 128.5t-27 171.5v649h167v-609zM495 1499l223 -253l-144 -17
l-249 198z" />
    <glyph glyph-name="uacute" unicode="&#xfa;" 
d="M319 444q0 -70 19.5 -126t56.5 -94.5t89.5 -59t119.5 -20.5q80 2 142.5 31.5t106 81t66.5 123t23 156.5v517h167v-1053h-167v236q-54 -122 -154.5 -180.5t-242.5 -60.5q-92 0 -165 28t-123.5 81t-77.5 128.5t-27 171.5v649h167v-609zM780 1499l170 -72l-249 -198l-144 17
z" />
    <glyph glyph-name="ucircumflex" unicode="&#xfb;" 
d="M319 444q0 -70 19.5 -126t56.5 -94.5t89.5 -59t119.5 -20.5q80 2 142.5 31.5t106 81t66.5 123t23 156.5v517h167v-1053h-167v236q-54 -122 -154.5 -180.5t-242.5 -60.5q-92 0 -165 28t-123.5 81t-77.5 128.5t-27 171.5v649h167v-609zM561 1493h176l208 -257h-167
l-129 142l-130 -142h-166z" />
    <glyph glyph-name="udieresis" unicode="&#xfc;" 
d="M319 444q0 -70 19.5 -126t56.5 -94.5t89.5 -59t119.5 -20.5q80 2 142.5 31.5t106 81t66.5 123t23 156.5v517h167v-1053h-167v236q-54 -122 -154.5 -180.5t-242.5 -60.5q-92 0 -165 28t-123.5 81t-77.5 128.5t-27 171.5v649h167v-609zM481 1451q21 0 38.5 -7.5t31 -20.5
t21 -31t7.5 -39q0 -41 -28 -69.5t-70 -28.5q-21 0 -39 7.5t-31 21t-20.5 31.5t-7.5 38q0 42 28 70t70 28zM819 1451q20 0 38 -7.5t31 -20.5t20.5 -31t7.5 -39q0 -41 -28 -69.5t-69 -28.5q-21 0 -39 7.5t-31.5 21t-21 31.5t-7.5 38q0 42 28.5 70t70.5 28z" />
    <glyph glyph-name="yacute" unicode="&#xfd;" horiz-adv-x="1012" 
d="M535 -150q-50 -121 -131.5 -183t-189.5 -62q-66 0 -121 19t-104 57l71 125q36 -26 71.5 -38t74.5 -12q61 0 109 38.5t80 113.5l41 100l-436 1045h174l346 -876l329 876h170zM644 1499l170 -72l-249 -198l-144 17z" />
    <glyph glyph-name="thorn" unicode="&#xfe;" horiz-adv-x="1344" 
d="M355 829q57 109 160.5 169t241.5 60q112 0 205 -39t160 -109.5t104 -169t37 -216.5q0 -117 -36.5 -214t-103 -167t-159 -109t-205.5 -39q-140 0 -243.5 60t-160.5 169v-612h-167v1872h167v-655zM725 923q-81 0 -149 -29.5t-117 -82t-76.5 -125t-27.5 -158.5
q0 -87 27.5 -159.5t76.5 -125t117 -82t149 -29.5t149 29.5t117 82t76.5 125t27.5 159.5q0 86 -27.5 158t-76.5 125t-117 82.5t-149 29.5z" />
    <glyph glyph-name="ydieresis" unicode="&#xff;" horiz-adv-x="1012" 
d="M535 -150q-50 -121 -131.5 -183t-189.5 -62q-66 0 -121 19t-104 57l71 125q36 -26 71.5 -38t74.5 -12q61 0 109 38.5t80 113.5l41 100l-436 1045h174l346 -876l329 876h170zM345 1451q21 0 38.5 -7.5t31 -20.5t21 -31t7.5 -39q0 -41 -28 -69.5t-70 -28.5q-21 0 -39 7.5
t-31 21t-20.5 31.5t-7.5 38q0 42 28 70t70 28zM683 1451q20 0 38 -7.5t31 -20.5t20.5 -31t7.5 -39q0 -41 -28 -69.5t-69 -28.5q-21 0 -39 7.5t-31.5 21t-21 31.5t-7.5 38q0 42 28.5 70t70.5 28z" />
    <glyph glyph-name="Amacron" unicode="&#x100;" horiz-adv-x="1442" 
d="M634 1400h176l624 -1400h-183l-156 358h-752l-155 -358h-180zM1031 505l-314 721l-311 -721h625zM411 1652h619v-107h-619v107z" />
    <glyph glyph-name="amacron" unicode="&#x101;" horiz-adv-x="1156" 
d="M837 162q-61 -86 -157.5 -127.5t-221.5 -41.5q-82 0 -149 24.5t-114 67.5t-72.5 101.5t-25.5 126.5q0 69 26.5 124.5t77.5 94.5t124.5 60t167.5 21h343l-1 66q0 118 -69.5 183t-208.5 65q-86 0 -167.5 -31.5t-162.5 -89.5l-71 109q51 34 99.5 60.5t100 45t108.5 28
t126 9.5q98 0 174 -25t128 -72t79 -114.5t28 -151.5l3 -695h-164zM491 124q67 0 124.5 16.5t102.5 47.5t76 75.5t43 100.5l-1 127h-321q-261 0 -261 -173q0 -43 16.5 -79t47.5 -61.5t74.5 -39.5t98.5 -14zM303 1406h565v-107h-565v107z" />
    <glyph glyph-name="Abreve" unicode="&#x102;" horiz-adv-x="1442" 
d="M634 1400h176l624 -1400h-183l-156 358h-752l-155 -358h-180zM1031 505l-314 721l-311 -721h625zM580 1785q2 -31 13 -58t30 -46.5t44 -30.5t54 -11t54 11t43.5 30.5t30 46.5t12.5 58h118q-2 -57 -22.5 -104t-55 -81t-80.5 -52.5t-100 -18.5t-100.5 18.5t-81 52.5
t-54.5 81t-22 104h117z" />
    <glyph glyph-name="abreve" unicode="&#x103;" horiz-adv-x="1156" 
d="M837 162q-61 -86 -157.5 -127.5t-221.5 -41.5q-82 0 -149 24.5t-114 67.5t-72.5 101.5t-25.5 126.5q0 69 26.5 124.5t77.5 94.5t124.5 60t167.5 21h343l-1 66q0 118 -69.5 183t-208.5 65q-86 0 -167.5 -31.5t-162.5 -89.5l-71 109q51 34 99.5 60.5t100 45t108.5 28
t126 9.5q98 0 174 -25t128 -72t79 -114.5t28 -151.5l3 -695h-164zM491 124q67 0 124.5 16.5t102.5 47.5t76 75.5t43 100.5l-1 127h-321q-261 0 -261 -173q0 -43 16.5 -79t47.5 -61.5t74.5 -39.5t98.5 -14zM446 1481q2 -31 13 -58t30 -46.5t44 -30.5t54 -11t54 11t43.5 30.5
t30 46.5t12.5 58h118q-2 -57 -22.5 -104t-55 -81t-80.5 -52.5t-100 -18.5t-100.5 18.5t-81 52.5t-54.5 81t-22 104h117z" />
    <glyph glyph-name="Aogonek" unicode="&#x104;" horiz-adv-x="1442" 
d="M634 1400h176l624 -1400h-183l-156 358h-752l-155 -358h-180zM1031 505l-314 721l-311 -721h625zM1433 0q-103 -74 -150 -128t-47 -107q0 -40 20 -57t49 -17q19 0 41 6t43 18l42 -105q-42 -22 -82 -31.5t-78 -9.5q-42 0 -76.5 11t-59.5 32t-39 52.5t-14 73.5
q0 80 57.5 160.5t191.5 160.5z" />
    <glyph glyph-name="aogonek" unicode="&#x105;" horiz-adv-x="1156" 
d="M837 162q-61 -86 -157.5 -127.5t-221.5 -41.5q-82 0 -149 24.5t-114 67.5t-72.5 101.5t-25.5 126.5q0 69 26.5 124.5t77.5 94.5t124.5 60t167.5 21h343l-1 66q0 118 -69.5 183t-208.5 65q-86 0 -167.5 -31.5t-162.5 -89.5l-71 109q51 34 99.5 60.5t100 45t108.5 28
t126 9.5q98 0 174 -25t128 -72t79 -114.5t28 -151.5l3 -695h-164zM491 124q67 0 124.5 16.5t102.5 47.5t76 75.5t43 100.5l-1 127h-321q-261 0 -261 -173q0 -43 16.5 -79t47.5 -61.5t74.5 -39.5t98.5 -14zM1002 0q-103 -74 -150 -128t-47 -107q0 -40 20 -57t49 -17
q19 0 41 6t43 18l42 -105q-42 -22 -82 -31.5t-78 -9.5q-42 0 -76.5 11t-59.5 32t-39 52.5t-14 73.5q0 80 57.5 160.5t191.5 160.5z" />
    <glyph glyph-name="Cacute" unicode="&#x106;" horiz-adv-x="1400" 
d="M1223 1091q-40 41 -88 74t-101 55.5t-109 34.5t-113 12q-117 0 -219.5 -44t-178 -120.5t-119.5 -179.5t-44 -220q0 -78 20 -150t56 -135t87.5 -114t113.5 -88t134 -57t150 -20q114 0 221 45t190 124l103 -106q-51 -49 -112 -89t-128 -68t-138.5 -43t-143.5 -15
q-101 0 -194 25.5t-174 72t-146.5 111.5t-112.5 144.5t-72.5 171t-25.5 190.5t26 190t73 170t113.5 143.5t147.5 110.5t174.5 71t195.5 25q72 0 143 -14t137 -40.5t125.5 -64.5t109.5 -86zM961 1799l170 -72l-249 -198l-144 17z" />
    <glyph glyph-name="cacute" unicode="&#x107;" horiz-adv-x="1123" 
d="M924 795q-59 57 -136.5 90t-174.5 33q-79 0 -146.5 -28.5t-116 -80.5t-76 -124t-27.5 -159q0 -88 27.5 -160.5t76 -124.5t116 -80.5t146.5 -28.5q103 0 185.5 34.5t139.5 102.5l94 -94q-71 -86 -178.5 -133t-247.5 -47q-115 0 -211.5 39t-166 109t-108.5 167.5t-39 215.5
q0 117 39 215t108.5 168.5t166 109.5t211.5 39q131 0 235 -40.5t176 -114.5zM723 1499l170 -72l-249 -198l-144 17z" />
    <glyph glyph-name="Ccircumflex" unicode="&#x108;" horiz-adv-x="1400" 
d="M1223 1091q-40 41 -88 74t-101 55.5t-109 34.5t-113 12q-117 0 -219.5 -44t-178 -120.5t-119.5 -179.5t-44 -220q0 -78 20 -150t56 -135t87.5 -114t113.5 -88t134 -57t150 -20q114 0 221 45t190 124l103 -106q-51 -49 -112 -89t-128 -68t-138.5 -43t-143.5 -15
q-101 0 -194 25.5t-174 72t-146.5 111.5t-112.5 144.5t-72.5 171t-25.5 190.5t26 190t73 170t113.5 143.5t147.5 110.5t174.5 71t195.5 25q72 0 143 -14t137 -40.5t125.5 -64.5t109.5 -86zM747 1793h176l208 -257h-167l-129 142l-130 -142h-166z" />
    <glyph glyph-name="ccircumflex" unicode="&#x109;" horiz-adv-x="1123" 
d="M924 795q-59 57 -136.5 90t-174.5 33q-79 0 -146.5 -28.5t-116 -80.5t-76 -124t-27.5 -159q0 -88 27.5 -160.5t76 -124.5t116 -80.5t146.5 -28.5q103 0 185.5 34.5t139.5 102.5l94 -94q-71 -86 -178.5 -133t-247.5 -47q-115 0 -211.5 39t-166 109t-108.5 167.5t-39 215.5
q0 117 39 215t108.5 168.5t166 109.5t211.5 39q131 0 235 -40.5t176 -114.5zM504 1493h176l208 -257h-167l-129 142l-130 -142h-166z" />
    <glyph glyph-name="Cdotaccent" unicode="&#x10a;" horiz-adv-x="1400" 
d="M1223 1091q-40 41 -88 74t-101 55.5t-109 34.5t-113 12q-117 0 -219.5 -44t-178 -120.5t-119.5 -179.5t-44 -220q0 -78 20 -150t56 -135t87.5 -114t113.5 -88t134 -57t150 -20q114 0 221 45t190 124l103 -106q-51 -49 -112 -89t-128 -68t-138.5 -43t-143.5 -15
q-101 0 -194 25.5t-174 72t-146.5 111.5t-112.5 144.5t-72.5 171t-25.5 190.5t26 190t73 170t113.5 143.5t147.5 110.5t174.5 71t195.5 25q72 0 143 -14t137 -40.5t125.5 -64.5t109.5 -86zM835 1743q23 0 42.5 -8t33.5 -22.5t22.5 -34t8.5 -42.5q0 -22 -8.5 -42t-22.5 -34
t-33.5 -22.5t-42.5 -8.5q-22 0 -41.5 8.5t-34 22.5t-22.5 34t-8 42q0 23 8 42.5t22.5 34t34 22.5t41.5 8z" />
    <glyph glyph-name="cdotaccent" unicode="&#x10b;" horiz-adv-x="1123" 
d="M924 795q-59 57 -136.5 90t-174.5 33q-79 0 -146.5 -28.5t-116 -80.5t-76 -124t-27.5 -159q0 -88 27.5 -160.5t76 -124.5t116 -80.5t146.5 -28.5q103 0 185.5 34.5t139.5 102.5l94 -94q-71 -86 -178.5 -133t-247.5 -47q-115 0 -211.5 39t-166 109t-108.5 167.5t-39 215.5
q0 117 39 215t108.5 168.5t166 109.5t211.5 39q131 0 235 -40.5t176 -114.5zM592 1461q45 0 75.5 -30t30.5 -76q0 -22 -8 -42t-22.5 -34t-33.5 -22.5t-42 -8.5q-22 0 -42 8.5t-34 22.5t-22.5 34t-8.5 42q0 23 8.5 42.5t22.5 33.5t34 22t42 8z" />
    <glyph glyph-name="Ccaron" unicode="&#x10c;" horiz-adv-x="1400" 
d="M1223 1091q-40 41 -88 74t-101 55.5t-109 34.5t-113 12q-117 0 -219.5 -44t-178 -120.5t-119.5 -179.5t-44 -220q0 -78 20 -150t56 -135t87.5 -114t113.5 -88t134 -57t150 -20q114 0 221 45t190 124l103 -106q-51 -49 -112 -89t-128 -68t-138.5 -43t-143.5 -15
q-101 0 -194 25.5t-174 72t-146.5 111.5t-112.5 144.5t-72.5 171t-25.5 190.5t26 190t73 170t113.5 143.5t147.5 110.5t174.5 71t195.5 25q72 0 143 -14t137 -40.5t125.5 -64.5t109.5 -86zM884 1536h-176l-208 257h166l130 -142l129 142h167z" />
    <glyph glyph-name="ccaron" unicode="&#x10d;" horiz-adv-x="1123" 
d="M924 795q-59 57 -136.5 90t-174.5 33q-79 0 -146.5 -28.5t-116 -80.5t-76 -124t-27.5 -159q0 -88 27.5 -160.5t76 -124.5t116 -80.5t146.5 -28.5q103 0 185.5 34.5t139.5 102.5l94 -94q-71 -86 -178.5 -133t-247.5 -47q-115 0 -211.5 39t-166 109t-108.5 167.5t-39 215.5
q0 117 39 215t108.5 168.5t166 109.5t211.5 39q131 0 235 -40.5t176 -114.5zM680 1236h-176l-208 257h166l130 -142l129 142h167z" />
    <glyph glyph-name="Dcaron" unicode="&#x10e;" horiz-adv-x="1575" 
d="M774 1400q103 0 196.5 -24t174 -69t145 -108t110.5 -140.5t71 -168.5t25 -190q0 -149 -55 -277t-152.5 -222t-230 -147.5t-288.5 -53.5h-562v1400h566zM778 148q115 0 214.5 42t173 115.5t116 174t42.5 218.5q0 119 -43 220t-117.5 175.5t-175 116.5t-216.5 42h-393
v-1104h399zM793 1535h-176l-208 257h166l130 -142l129 142h167z" />
    <glyph glyph-name="dcaron" unicode="&#x10f;" horiz-adv-x="1466" 
d="M995 220q-60 -109 -162.5 -168.5t-242.5 -59.5q-113 0 -206.5 39.5t-161 110.5t-104.5 169.5t-37 216.5t37.5 216t104.5 168.5t160 109.5t204 39q140 0 244 -60t164 -169v652h166v-1484h-166v220zM622 923q-82 0 -150.5 -30t-118 -83t-77.5 -126t-28 -160t28 -159.5
t77.5 -125.5t118 -82.5t150.5 -29.5t150.5 29.5t118 82.5t77 125.5t27.5 159.5t-27.5 160.5t-77 126.5t-118 82.5t-150.5 29.5zM1344 1484h158l-42 -386h-116v386z" />
    <glyph glyph-name="Dcroat" unicode="&#x110;" horiz-adv-x="1575" 
d="M65 751h143v649h567q154 0 286 -53.5t228.5 -147.5t151.5 -222t55 -278q0 -99 -25 -189.5t-71 -168t-111 -140.5t-146 -108t-175 -69t-197 -24h-563v649h-143v102zM779 148q114 0 213.5 42t173 115.5t116 174t42.5 218.5q0 119 -43 220.5t-117.5 175.5t-175 116
t-216.5 42h-393v-501h454v-102h-454v-501h400z" />
    <glyph glyph-name="dcroat" unicode="&#x111;" horiz-adv-x="1357" 
d="M556 1301h439v183h165v-183h148v-102h-148v-1199h-165v229q-62 -111 -167 -174t-242 -63q-111 0 -204 38.5t-159.5 108t-104 165.5t-37.5 211q0 114 37 209.5t103.5 164t158.5 107t202 38.5q68 0 129.5 -16.5t114.5 -47t95.5 -74.5t73.5 -99v402h-439v102zM622 897
q-82 0 -150.5 -29t-118 -80t-77.5 -122t-28 -155t28 -154.5t77.5 -121.5t118 -79.5t150.5 -28.5q81 0 149.5 28.5t118 79.5t77.5 121.5t28 154.5t-28 155t-77.5 122t-118 80t-149.5 29z" />
    <glyph glyph-name="Emacron" unicode="&#x112;" horiz-adv-x="1305" 
d="M208 1400h959v-148h-788v-469h703v-147h-703v-488h813v-148h-984v1400zM392 1653h619v-107h-619v107z" />
    <glyph glyph-name="emacron" unicode="&#x113;" horiz-adv-x="1177" 
d="M247 469q9 -78 40.5 -141.5t80.5 -108.5t113.5 -69.5t140.5 -24.5q96 0 178.5 34.5t143.5 99.5l91 -90q-76 -83 -184 -128.5t-241 -45.5q-118 0 -215 39t-167 109t-108.5 167.5t-38.5 215.5q0 117 39 215t109 168t166 109.5t211 39.5q129 0 225 -42t157.5 -119t89 -185.5
t20.5 -242.5h-851zM607 927q-74 0 -136.5 -24t-109.5 -68t-77 -106t-38 -138h705q-4 77 -30 139t-70.5 106t-106 67.5t-137.5 23.5zM312 1406h565v-107h-565v107z" />
    <glyph glyph-name="Ebreve" unicode="&#x114;" horiz-adv-x="1305" 
d="M208 1400h959v-148h-788v-469h703v-147h-703v-488h813v-148h-984v1400zM561 1786q2 -31 13 -58t30 -46.5t44 -30.5t54 -11t54 11t43.5 30.5t30 46.5t12.5 58h118q-2 -57 -22.5 -104t-55 -81t-80.5 -52.5t-100 -18.5t-100.5 18.5t-81 52.5t-54.5 81t-22 104h117z" />
    <glyph glyph-name="ebreve" unicode="&#x115;" horiz-adv-x="1177" 
d="M247 469q9 -78 40.5 -141.5t80.5 -108.5t113.5 -69.5t140.5 -24.5q96 0 178.5 34.5t143.5 99.5l91 -90q-76 -83 -184 -128.5t-241 -45.5q-118 0 -215 39t-167 109t-108.5 167.5t-38.5 215.5q0 117 39 215t109 168t166 109.5t211 39.5q129 0 225 -42t157.5 -119t89 -185.5
t20.5 -242.5h-851zM607 927q-74 0 -136.5 -24t-109.5 -68t-77 -106t-38 -138h705q-4 77 -30 139t-70.5 106t-106 67.5t-137.5 23.5zM455 1481q2 -31 13 -58t30 -46.5t44 -30.5t54 -11t54 11t43.5 30.5t30 46.5t12.5 58h118q-2 -57 -22.5 -104t-55 -81t-80.5 -52.5
t-100 -18.5t-100.5 18.5t-81 52.5t-54.5 81t-22 104h117z" />
    <glyph glyph-name="Edotaccent" unicode="&#x116;" horiz-adv-x="1305" 
d="M208 1400h959v-148h-788v-469h703v-147h-703v-488h813v-148h-984v1400zM702 1743q23 0 42.5 -8t33.5 -22.5t22.5 -34t8.5 -42.5q0 -22 -8.5 -42t-22.5 -34t-33.5 -22.5t-42.5 -8.5q-22 0 -41.5 8.5t-34 22.5t-22.5 34t-8 42q0 23 8 42.5t22.5 34t34 22.5t41.5 8z" />
    <glyph glyph-name="edotaccent" unicode="&#x117;" horiz-adv-x="1177" 
d="M247 469q9 -78 40.5 -141.5t80.5 -108.5t113.5 -69.5t140.5 -24.5q96 0 178.5 34.5t143.5 99.5l91 -90q-76 -83 -184 -128.5t-241 -45.5q-118 0 -215 39t-167 109t-108.5 167.5t-38.5 215.5q0 117 39 215t109 168t166 109.5t211 39.5q129 0 225 -42t157.5 -119t89 -185.5
t20.5 -242.5h-851zM607 927q-74 0 -136.5 -24t-109.5 -68t-77 -106t-38 -138h705q-4 77 -30 139t-70.5 106t-106 67.5t-137.5 23.5zM596 1461q45 0 75.5 -30t30.5 -76q0 -22 -8 -42t-22.5 -34t-33.5 -22.5t-42 -8.5q-22 0 -42 8.5t-34 22.5t-22.5 34t-8.5 42q0 23 8.5 42.5
t22.5 33.5t34 22t42 8z" />
    <glyph glyph-name="Eogonek" unicode="&#x118;" horiz-adv-x="1305" 
d="M208 1400h959v-148h-788v-469h703v-147h-703v-488h813v-148h-984v1400zM1191 0q-103 -74 -150 -128t-47 -107q0 -40 20 -57t49 -17q19 0 41 6t43 18l42 -105q-42 -22 -82 -31.5t-78 -9.5q-42 0 -76.5 11t-59.5 32t-39 52.5t-14 73.5q0 80 57.5 160.5t191.5 160.5z" />
    <glyph glyph-name="eogonek" unicode="&#x119;" horiz-adv-x="1177" 
d="M247 469q9 -78 40.5 -141.5t80.5 -108.5t113.5 -69.5t140.5 -24.5q96 0 178.5 34.5t143.5 99.5l91 -90q-76 -83 -184 -128.5t-241 -45.5q-118 0 -215 39t-167 109t-108.5 167.5t-38.5 215.5q0 117 39 215t109 168t166 109.5t211 39.5q129 0 225 -42t157.5 -119t89 -185.5
t20.5 -242.5h-851zM607 927q-74 0 -136.5 -24t-109.5 -68t-77 -106t-38 -138h705q-4 77 -30 139t-70.5 106t-106 67.5t-137.5 23.5zM955 99q-46 -39 -84.5 -82t-66.5 -86t-43.5 -84t-15.5 -75q0 -39 18.5 -60t52.5 -21q20 0 41.5 6.5t40.5 17.5l43 -105q-43 -22 -84 -31.5
t-76 -9.5q-86 0 -138 49.5t-52 136.5q0 91 69.5 189t216.5 206z" />
    <glyph glyph-name="Ecaron" unicode="&#x11a;" horiz-adv-x="1305" 
d="M208 1400h959v-148h-788v-469h703v-147h-703v-488h813v-148h-984v1400zM751 1536h-176l-208 257h166l130 -142l129 142h167z" />
    <glyph glyph-name="ecaron" unicode="&#x11b;" horiz-adv-x="1177" 
d="M247 469q9 -78 40.5 -141.5t80.5 -108.5t113.5 -69.5t140.5 -24.5q96 0 178.5 34.5t143.5 99.5l91 -90q-76 -83 -184 -128.5t-241 -45.5q-118 0 -215 39t-167 109t-108.5 167.5t-38.5 215.5q0 117 39 215t109 168t166 109.5t211 39.5q129 0 225 -42t157.5 -119t89 -185.5
t20.5 -242.5h-851zM607 927q-74 0 -136.5 -24t-109.5 -68t-77 -106t-38 -138h705q-4 77 -30 139t-70.5 106t-106 67.5t-137.5 23.5zM684 1236h-176l-208 257h166l130 -142l129 142h167z" />
    <glyph glyph-name="Gcircumflex" unicode="&#x11c;" horiz-adv-x="1506" 
d="M1239 1102q-85 78 -194.5 121.5t-226.5 43.5q-118 0 -221.5 -44.5t-180 -121t-121 -179.5t-44.5 -220q0 -118 44.5 -222t121.5 -181t180.5 -121.5t221.5 -44.5q91 0 182 29t170 82v383h-484v146h645v-602q-51 -42 -112.5 -76t-129 -58t-139 -37t-142.5 -13
q-102 0 -195.5 25.5t-175 72t-147.5 111.5t-113.5 144.5t-73 171t-25.5 190.5t26 190t73.5 169.5t114.5 143t149.5 110.5t177.5 71t198 25q73 0 144.5 -13.5t137.5 -38t126 -60t111 -80.5zM681 1792h176l208 -257h-167l-129 142l-130 -142h-166z" />
    <glyph glyph-name="gcircumflex" unicode="&#x11d;" horiz-adv-x="1273" 
d="M1111 109q0 -116 -38 -208.5t-107.5 -157.5t-167.5 -100t-219 -35q-125 0 -231.5 39.5t-202.5 113.5l75 115q78 -66 162.5 -100.5t189.5 -34.5q85 0 154 25.5t117.5 73t75 115t26.5 150.5v156q-56 -103 -153.5 -159t-229.5 -56q-107 0 -195.5 37.5t-152 105t-98.5 160.5
t-35 205q0 111 35 203.5t98 159t150.5 104t192.5 37.5q134 1 232.5 -56t155.5 -160v211h166v-944zM593 928q-78 0 -143 -28.5t-112 -78.5t-73.5 -119.5t-26.5 -151.5t26.5 -151t73 -119.5t112 -78.5t143.5 -28q77 0 142 28t111.5 78.5t72.5 119.5t26 151q0 83 -26 152.5
t-72.5 119.5t-111.5 78t-142 28zM518 1493h176l208 -257h-167l-129 142l-130 -142h-166z" />
    <glyph glyph-name="Gbreve" unicode="&#x11e;" horiz-adv-x="1506" 
d="M1239 1102q-85 78 -194.5 121.5t-226.5 43.5q-118 0 -221.5 -44.5t-180 -121t-121 -179.5t-44.5 -220q0 -118 44.5 -222t121.5 -181t180.5 -121.5t221.5 -44.5q91 0 182 29t170 82v383h-484v146h645v-602q-51 -42 -112.5 -76t-129 -58t-139 -37t-142.5 -13
q-102 0 -195.5 25.5t-175 72t-147.5 111.5t-113.5 144.5t-73 171t-25.5 190.5t26 190t73.5 169.5t114.5 143t149.5 110.5t177.5 71t198 25q73 0 144.5 -13.5t137.5 -38t126 -60t111 -80.5zM629 1785q2 -31 13 -58t30 -46.5t44 -30.5t54 -11t54 11t43.5 30.5t30 46.5t12.5 58
h118q-2 -57 -22.5 -104t-55 -81t-80.5 -52.5t-100 -18.5t-100.5 18.5t-81 52.5t-54.5 81t-22 104h117z" />
    <glyph glyph-name="gbreve" unicode="&#x11f;" horiz-adv-x="1273" 
d="M1111 109q0 -116 -38 -208.5t-107.5 -157.5t-167.5 -100t-219 -35q-125 0 -231.5 39.5t-202.5 113.5l75 115q78 -66 162.5 -100.5t189.5 -34.5q85 0 154 25.5t117.5 73t75 115t26.5 150.5v156q-56 -103 -153.5 -159t-229.5 -56q-107 0 -195.5 37.5t-152 105t-98.5 160.5
t-35 205q0 111 35 203.5t98 159t150.5 104t192.5 37.5q134 1 232.5 -56t155.5 -160v211h166v-944zM593 928q-78 0 -143 -28.5t-112 -78.5t-73.5 -119.5t-26.5 -151.5t26.5 -151t73 -119.5t112 -78.5t143.5 -28q77 0 142 28t111.5 78.5t72.5 119.5t26 151q0 83 -26 152.5
t-72.5 119.5t-111.5 78t-142 28zM465 1481q2 -31 13 -58t30 -46.5t44 -30.5t54 -11t54 11t43.5 30.5t30 46.5t12.5 58h118q-2 -57 -22.5 -104t-55 -81t-80.5 -52.5t-100 -18.5t-100.5 18.5t-81 52.5t-54.5 81t-22 104h117z" />
    <glyph glyph-name="Gdotaccent" unicode="&#x120;" horiz-adv-x="1506" 
d="M1239 1102q-85 78 -194.5 121.5t-226.5 43.5q-118 0 -221.5 -44.5t-180 -121t-121 -179.5t-44.5 -220q0 -118 44.5 -222t121.5 -181t180.5 -121.5t221.5 -44.5q91 0 182 29t170 82v383h-484v146h645v-602q-51 -42 -112.5 -76t-129 -58t-139 -37t-142.5 -13
q-102 0 -195.5 25.5t-175 72t-147.5 111.5t-113.5 144.5t-73 171t-25.5 190.5t26 190t73.5 169.5t114.5 143t149.5 110.5t177.5 71t198 25q73 0 144.5 -13.5t137.5 -38t126 -60t111 -80.5zM769 1742q23 0 42.5 -8t33.5 -22.5t22.5 -34t8.5 -42.5q0 -22 -8.5 -42t-22.5 -34
t-33.5 -22.5t-42.5 -8.5q-22 0 -41.5 8.5t-34 22.5t-22.5 34t-8 42q0 23 8 42.5t22.5 34t34 22.5t41.5 8z" />
    <glyph glyph-name="gdotaccent" unicode="&#x121;" horiz-adv-x="1273" 
d="M1111 109q0 -116 -38 -208.5t-107.5 -157.5t-167.5 -100t-219 -35q-125 0 -231.5 39.5t-202.5 113.5l75 115q78 -66 162.5 -100.5t189.5 -34.5q85 0 154 25.5t117.5 73t75 115t26.5 150.5v156q-56 -103 -153.5 -159t-229.5 -56q-107 0 -195.5 37.5t-152 105t-98.5 160.5
t-35 205q0 111 35 203.5t98 159t150.5 104t192.5 37.5q134 1 232.5 -56t155.5 -160v211h166v-944zM593 928q-78 0 -143 -28.5t-112 -78.5t-73.5 -119.5t-26.5 -151.5t26.5 -151t73 -119.5t112 -78.5t143.5 -28q77 0 142 28t111.5 78.5t72.5 119.5t26 151q0 83 -26 152.5
t-72.5 119.5t-111.5 78t-142 28zM606 1461q45 0 75.5 -30t30.5 -76q0 -22 -8 -42t-22.5 -34t-33.5 -22.5t-42 -8.5q-22 0 -42 8.5t-34 22.5t-22.5 34t-8.5 42q0 23 8.5 42.5t22.5 33.5t34 22t42 8z" />
    <glyph glyph-name="uni0122" unicode="&#x122;" horiz-adv-x="1506" 
d="M1239 1102q-85 78 -194.5 121.5t-226.5 43.5q-118 0 -221.5 -44.5t-180 -121t-121 -179.5t-44.5 -220q0 -118 44.5 -222t121.5 -181t180.5 -121.5t221.5 -44.5q91 0 182 29t170 82v383h-484v146h645v-602q-51 -42 -112.5 -76t-129 -58t-139 -37t-142.5 -13
q-102 0 -195.5 25.5t-175 72t-147.5 111.5t-113.5 144.5t-73 171t-25.5 190.5t26 190t73.5 169.5t114.5 143t149.5 110.5t177.5 71t198 25q73 0 144.5 -13.5t137.5 -38t126 -60t111 -80.5zM693 -121h156l-106 -314h-122z" />
    <glyph glyph-name="uni0123" unicode="&#x123;" horiz-adv-x="1273" 
d="M1111 109q0 -116 -38 -208.5t-107.5 -157.5t-167.5 -100t-219 -35q-125 0 -231.5 39.5t-202.5 113.5l75 115q78 -66 162.5 -100.5t189.5 -34.5q85 0 154 25.5t117.5 73t75 115t26.5 150.5v156q-56 -103 -153.5 -159t-229.5 -56q-107 0 -195.5 37.5t-152 105t-98.5 160.5
t-35 205q0 111 35 203.5t98 159t150.5 104t192.5 37.5q134 1 232.5 -56t155.5 -160v211h166v-944zM593 928q-78 0 -143 -28.5t-112 -78.5t-73.5 -119.5t-26.5 -151.5t26.5 -151t73 -119.5t112 -78.5t143.5 -28q77 0 142 28t111.5 78.5t72.5 119.5t26 151q0 83 -26 152.5
t-72.5 119.5t-111.5 78t-142 28zM678 1227h-155l106 314h121z" />
    <glyph glyph-name="Hcircumflex" unicode="&#x124;" horiz-adv-x="1588" 
d="M208 1400h171v-634h830v634h171v-1400h-171v620h-830v-620h-171v1400zM711 1791h176l208 -257h-167l-129 142l-130 -142h-166z" />
    <glyph glyph-name="hcircumflex" unicode="&#x125;" horiz-adv-x="1317" 
d="M996 609q0 142 -77 221t-216 79q-82 -1 -146.5 -30.5t-109.5 -81t-68.5 -123t-23.5 -157.5v-517h-167v1484h167v-666q55 122 158.5 180t249.5 60q94 0 168.5 -28t126 -81t78.5 -129t27 -171v-649h-167v609zM182 1924h176l208 -257h-167l-129 142l-130 -142h-166z" />
    <glyph glyph-name="Hbar" unicode="&#x126;" horiz-adv-x="1588" 
d="M43 1152h165v248h171v-248h830v248h171v-248h167v-101h-167v-1051h-171v619h-830v-619h-171v1051h-165v101zM1209 1051h-830v-284h830v284z" />
    <glyph glyph-name="hbar" unicode="&#x127;" horiz-adv-x="1325" 
d="M50 1301h147v183h166v-183h439v-102h-439v-406q55 123 159 181.5t250 58.5q94 0 168 -28t125.5 -81t78.5 -129t27 -172v-623h-166v583q0 71 -20 126.5t-58 94t-92 59t-123 20.5q-82 0 -147 -29t-110 -81t-68.5 -124t-23.5 -158v-491h-166v1199h-147v102z" />
    <glyph glyph-name="Itilde" unicode="&#x128;" horiz-adv-x="587" 
d="M208 1400h171v-1400h-171v1400zM602 1756q0 -46 -8.5 -87t-28 -72t-49.5 -49.5t-74 -18.5q-42 0 -78 17t-67.5 38t-60 38t-54.5 17q-39 0 -54.5 -29t-15.5 -73h-116q0 46 8.5 87t27.5 72t49.5 49.5t73.5 18.5q42 0 78 -17t68 -38t60 -38t55 -17q39 0 54 28.5t15 73.5h117
z" />
    <glyph glyph-name="itilde" unicode="&#x129;" horiz-adv-x="539" 
d="M187 1053h165v-1053h-165v1053zM540 1449q0 -48 -8 -89.5t-25.5 -72t-44.5 -48t-65 -17.5q-36 0 -67 16.5t-57 36.5t-49 36.5t-44 16.5q-32 0 -45 -27.5t-13 -70.5h-116q0 48 8 89t25 72t44 48.5t66 17.5q36 0 66 -16t56.5 -35t49.5 -35t45 -16q32 0 45 26t13 68h116z
" />
    <glyph glyph-name="Imacron" unicode="&#x12a;" horiz-adv-x="587" 
d="M208 1400h171v-1400h-171v1400zM9 1652h565v-107h-565v107z" />
    <glyph glyph-name="imacron" unicode="&#x12b;" horiz-adv-x="539" 
d="M187 1053h165v-1053h-165v1053zM26 1406h485v-107h-485v107z" />
    <glyph glyph-name="Ibreve" unicode="&#x12c;" horiz-adv-x="587" 
d="M208 1400h171v-1400h-171v1400zM151 1785q2 -31 13 -58t30 -46.5t44 -30.5t54 -11t54 11t43.5 30.5t30 46.5t12.5 58h118q-2 -57 -22.5 -104t-55 -81t-80.5 -52.5t-100 -18.5t-100.5 18.5t-81 52.5t-54.5 81t-22 104h117z" />
    <glyph glyph-name="ibreve" unicode="&#x12d;" horiz-adv-x="539" 
d="M187 1053h165v-1053h-165v1053zM129 1481q2 -31 13 -58t30 -46.5t44 -30.5t54 -11t54 11t43.5 30.5t30 46.5t12.5 58h118q-2 -57 -22.5 -104t-55 -81t-80.5 -52.5t-100 -18.5t-100.5 18.5t-81 52.5t-54.5 81t-22 104h117z" />
    <glyph glyph-name="Iogonek" unicode="&#x12e;" horiz-adv-x="587" 
d="M208 1400h171v-1400h-171v1400zM378 0q-103 -74 -150 -128t-47 -107q0 -40 20 -57t49 -17q19 0 41 6t43 18l42 -105q-42 -22 -82 -31.5t-78 -9.5q-42 0 -76.5 11t-59.5 32t-39 52.5t-14 73.5q0 80 57.5 160.5t191.5 160.5z" />
    <glyph glyph-name="iogonek" unicode="&#x12f;" horiz-adv-x="539" 
d="M187 1053h165v-1053h-165v1053zM270 1461q45 0 75.5 -30t30.5 -76q0 -22 -8 -42t-22.5 -34t-33.5 -22.5t-42 -8.5q-22 0 -42 8.5t-34 22.5t-22.5 34t-8.5 42q0 23 8.5 42.5t22.5 33.5t34 22t42 8zM352 0q-103 -74 -150 -128t-47 -107q0 -40 20 -57t49 -17q19 0 41 6
t43 18l42 -105q-42 -22 -82 -31.5t-78 -9.5q-42 0 -76.5 11t-59.5 32t-39 52.5t-14 73.5q0 80 57.5 160.5t191.5 160.5z" />
    <glyph glyph-name="Idotaccent" unicode="&#x130;" horiz-adv-x="587" 
d="M208 1400h171v-1400h-171v1400zM292 1742q23 0 42.5 -8t33.5 -22.5t22.5 -34t8.5 -42.5q0 -22 -8.5 -42t-22.5 -34t-33.5 -22.5t-42.5 -8.5q-22 0 -41.5 8.5t-34 22.5t-22.5 34t-8 42q0 23 8 42.5t22.5 34t34 22.5t41.5 8z" />
    <glyph glyph-name="dotlessi" unicode="&#x131;" horiz-adv-x="539" 
d="M187 1053h165v-1053h-165v1053z" />
    <glyph glyph-name="IJ" unicode="&#x132;" horiz-adv-x="1591" 
d="M208 1400h171v-1400h-171v1400zM1383 418q0 -102 -27.5 -181t-80 -133t-128 -82.5t-170.5 -28.5q-118 0 -217 52t-174 147l84 124q67 -81 146.5 -122.5t159.5 -41.5q112 0 173.5 69t61.5 201v978h172v-982z" />
    <glyph glyph-name="ij" unicode="&#x133;" horiz-adv-x="1073" 
d="M187 1053h165v-1053h-165v1053zM270 1461q45 0 75.5 -30t30.5 -76q0 -22 -8 -42t-22.5 -34t-33.5 -22.5t-42 -8.5q-22 0 -42 8.5t-34 22.5t-22.5 34t-8.5 42q0 23 8.5 42.5t22.5 33.5t34 22t42 8zM462 -237q24 -9 50.5 -15t52.5 -6q77 0 116.5 57t39.5 168v1086h167
v-1107q0 -83 -20 -146.5t-57.5 -106.5t-92.5 -65t-125 -21q-91 3 -170 35zM804 1461q45 0 75.5 -30t30.5 -76q0 -22 -8 -42t-22.5 -34t-33.5 -22.5t-42 -8.5q-22 0 -42 8.5t-34 22.5t-22.5 34t-8.5 42q0 23 8.5 42.5t22.5 33.5t34 22t42 8z" />
    <glyph glyph-name="Jcircumflex" unicode="&#x134;" horiz-adv-x="972" 
d="M796 418q0 -102 -27.5 -181t-80 -133t-128 -82.5t-170.5 -28.5q-118 0 -217 52t-174 147l84 124q67 -81 146.5 -122.5t159.5 -41.5q112 0 173.5 69t61.5 201v978h172v-982zM614 1793h176l208 -257h-167l-129 142l-130 -142h-166z" />
    <glyph glyph-name="jcircumflex" unicode="&#x135;" horiz-adv-x="513" 
d="M-77 -237q24 -9 50.5 -15t52.5 -6q77 0 116.5 57t39.5 168v1086h167v-1107q0 -83 -20 -146.5t-57.5 -106.5t-92.5 -65t-125 -21q-91 3 -170 35zM177 1493h176l208 -257h-167l-129 142l-130 -142h-166z" />
    <glyph glyph-name="uni0136" unicode="&#x136;" horiz-adv-x="1405" 
d="M208 1400h171v-821l740 821h204l-557 -608l596 -792h-207l-507 663l-269 -294v-369h-171v1400zM618 -121h156l-106 -314h-122z" />
    <glyph glyph-name="uni0137" unicode="&#x137;" horiz-adv-x="1147" 
d="M186 1484h167v-978l533 547h194l-394 -407l434 -646h-197l-351 529l-219 -226v-303h-167v1484zM551 -121h156l-106 -314h-122z" />
    <glyph glyph-name="kgreenlandic" unicode="&#x138;" horiz-adv-x="1143" 
d="M187 1053h165v-549l535 549h195l-395 -407l435 -646h-197l-351 529l-222 -229v-300h-165v1053z" />
    <glyph glyph-name="Lacute" unicode="&#x139;" horiz-adv-x="1040" 
d="M208 1400h171v-1252h613v-148h-784v1400zM428 1798l170 -72l-249 -198l-144 17z" />
    <glyph glyph-name="lacute" unicode="&#x13a;" horiz-adv-x="585" 
d="M334 269q0 -66 26.5 -98t74.5 -32q50 0 110 43l30 -125q-45 -32 -91 -48t-90 -16q-49 0 -90 16.5t-71 49.5t-47 81.5t-17 111.5v1232h165v-1215zM384 1930l170 -72l-249 -198l-144 17z" />
    <glyph glyph-name="uni013B" unicode="&#x13b;" horiz-adv-x="1040" 
d="M208 1400h171v-1252h613v-148h-784v1400zM524 -121h156l-106 -314h-122z" />
    <glyph glyph-name="uni013C" unicode="&#x13c;" horiz-adv-x="585" 
d="M334 269q0 -66 26.5 -98t74.5 -32q50 0 110 43l30 -125q-45 -32 -91 -48t-90 -16q-49 0 -90 16.5t-71 49.5t-47 81.5t-17 111.5v1232h165v-1215zM303 -121h156l-106 -314h-122z" />
    <glyph glyph-name="Lcaron" unicode="&#x13d;" horiz-adv-x="1040" 
d="M208 1400h171v-1252h613v-148h-784v1400zM834 1399h158l-42 -386h-116v386z" />
    <glyph glyph-name="lcaron" unicode="&#x13e;" horiz-adv-x="650" 
d="M334 269q0 -66 26.5 -98t74.5 -32q50 0 110 43l30 -125q-45 -32 -91 -48t-90 -16q-49 0 -90 16.5t-71 49.5t-47 81.5t-17 111.5v1232h165v-1215zM500 1484h158l-42 -386h-116v386z" />
    <glyph glyph-name="Ldot" unicode="&#x13f;" horiz-adv-x="1040" 
d="M208 1400h171v-1252h613v-148h-784v1400zM811 764q45 0 75.5 -30t30.5 -76q0 -22 -8 -42t-22.5 -34t-33.5 -22.5t-42 -8.5q-22 0 -42 8.5t-34 22.5t-22.5 34t-8.5 42q0 23 8.5 42.5t22.5 33.5t34 22t42 8z" />
    <glyph glyph-name="ldot" unicode="&#x140;" horiz-adv-x="685" 
d="M334 269q0 -66 26.5 -98t74.5 -32q50 0 110 43l30 -125q-45 -32 -91 -48t-90 -16q-49 0 -90 16.5t-71 49.5t-47 81.5t-17 111.5v1232h165v-1215zM567 902q45 0 75.5 -30t30.5 -76q0 -22 -8 -42t-22.5 -34t-33.5 -22.5t-42 -8.5q-22 0 -42 8.5t-34 22.5t-22.5 34t-8.5 42
q0 23 8.5 42.5t22.5 33.5t34 22t42 8z" />
    <glyph glyph-name="Lslash" unicode="&#x141;" horiz-adv-x="1091" 
d="M51 660l208 111v629h170v-537l243 130v-105l-243 -130v-611h614v-147h-784v667l-208 -112v105z" />
    <glyph glyph-name="lslash" unicode="&#x142;" horiz-adv-x="740" 
d="M334 853l249 132v-116l-249 -133v-467q0 -66 26.5 -98t74.5 -32q50 0 110 43l30 -125q-45 -32 -91 -48t-90 -16q-49 0 -90 16.5t-71 49.5t-47 81.5t-17 111.5v396l-208 -111v118l208 110v719h165v-631z" />
    <glyph glyph-name="Nacute" unicode="&#x143;" horiz-adv-x="1589" 
d="M208 1400h175l829 -1139v1139h168v-1400h-175l-826 1135v-1135h-171v1400zM944 1799l170 -72l-249 -198l-144 17z" />
    <glyph glyph-name="nacute" unicode="&#x144;" horiz-adv-x="1313" 
d="M993 609q0 71 -20 126.5t-58 94t-92 59t-123 20.5q-76 -1 -137.5 -26.5t-106 -70.5t-71 -108t-32.5 -139v-565h-166v1053h166v-231q56 120 159.5 177t247.5 59q94 0 168 -28t125.5 -81t78.5 -129t27 -171v-649h-166v609zM821 1499l170 -72l-249 -198l-144 17z" />
    <glyph glyph-name="uni0145" unicode="&#x145;" horiz-adv-x="1589" 
d="M208 1400h175l829 -1139v1139h168v-1400h-175l-826 1135v-1135h-171v1400zM716 -121h156l-106 -314h-122z" />
    <glyph glyph-name="uni0146" unicode="&#x146;" horiz-adv-x="1313" 
d="M993 609q0 71 -20 126.5t-58 94t-92 59t-123 20.5q-76 -1 -137.5 -26.5t-106 -70.5t-71 -108t-32.5 -139v-565h-166v1053h166v-231q56 120 159.5 177t247.5 59q94 0 168 -28t125.5 -81t78.5 -129t27 -171v-649h-166v609zM590 -121h156l-106 -314h-122z" />
    <glyph glyph-name="Ncaron" unicode="&#x147;" horiz-adv-x="1589" 
d="M208 1400h175l829 -1139v1139h168v-1400h-175l-826 1135v-1135h-171v1400zM867 1536h-176l-208 257h166l130 -142l129 142h167z" />
    <glyph glyph-name="ncaron" unicode="&#x148;" horiz-adv-x="1313" 
d="M993 609q0 71 -20 126.5t-58 94t-92 59t-123 20.5q-76 -1 -137.5 -26.5t-106 -70.5t-71 -108t-32.5 -139v-565h-166v1053h166v-231q56 120 159.5 177t247.5 59q94 0 168 -28t125.5 -81t78.5 -129t27 -171v-649h-166v609zM778 1236h-176l-208 257h166l130 -142l129 142
h167z" />
    <glyph glyph-name="napostrophe" unicode="&#x149;" horiz-adv-x="1499" 
d="M70 1400h131l-25 -520h-109zM1178 609q0 71 -20 126.5t-58 94t-92 59t-123 20.5q-76 -1 -137.5 -26.5t-106 -70.5t-71 -108t-32.5 -139v-565h-166v1053h166v-231q56 120 159.5 177t247.5 59q94 0 168 -28t125.5 -81t78.5 -129t27 -171v-649h-166v609z" />
    <glyph glyph-name="Eng" unicode="&#x14a;" horiz-adv-x="1589" 
d="M208 1400h175l829 -1137v1137h168v-1400q0 -93 -28 -167.5t-80.5 -126.5t-127.5 -79.5t-169 -27.5q-115 0 -210.5 44.5t-167.5 127.5l84 124q65 -69 141 -103.5t150 -34.5q105 0 166.5 62t68.5 181h-2l-826 1136v-1136h-171v1400z" />
    <glyph glyph-name="eng" unicode="&#x14b;" horiz-adv-x="1313" 
d="M187 1053h166v-231q56 120 159.5 177t247.5 59q94 0 168 -28t125.5 -81t78.5 -129t27 -171v-690q0 -91 -25 -157.5t-67.5 -110t-98 -64.5t-117.5 -21q-59 1 -114 19.5t-102 53.5l59 124q34 -27 73.5 -41t77.5 -15q66 0 107 47t41 146v669q0 71 -20 126.5t-58 94t-92 59
t-123 20.5q-76 -1 -137.5 -26.5t-106 -70.5t-71 -108t-32.5 -139v-565h-166v1053z" />
    <glyph glyph-name="Omacron" unicode="&#x14c;" horiz-adv-x="1626" 
d="M813 1412q103 0 197 -25t175.5 -71t148 -110.5t114 -143.5t73.5 -170t26 -190t-26 -190.5t-73.5 -171t-114 -144.5t-148 -111.5t-175.5 -72t-197 -25.5q-102 0 -196.5 25.5t-176 72t-148 111.5t-114 144.5t-73.5 171t-26 190.5t26 190.5t73.5 170t114 143t148 110.5
t176 71t196.5 25zM814 1265q-115 0 -217.5 -44t-179 -120.5t-121 -179t-44.5 -219.5q0 -78 20.5 -151t57.5 -136t88.5 -115t114 -88.5t134 -57t147.5 -20.5q115 0 217 44.5t178 121.5t120 180.5t44 221.5q0 117 -44 219.5t-120 179t-178 120.5t-217 44zM503 1653h619v-107
h-619v107z" />
    <glyph glyph-name="omacron" unicode="&#x14d;" horiz-adv-x="1237" 
d="M619 1058q118 0 216.5 -39t170 -109t111 -167.5t39.5 -215.5t-39.5 -215.5t-111 -168t-170 -109.5t-216.5 -39t-217 39t-170.5 109.5t-111 168t-39.5 215.5t39.5 215.5t111 167.5t170.5 109t217 39zM619 921q-81 0 -149.5 -29t-117.5 -81.5t-76.5 -125t-27.5 -159.5
q0 -88 27.5 -161t76.5 -125.5t117.5 -81.5t149.5 -29t149 29t117 81.5t76.5 125.5t27.5 161q0 87 -27.5 159.5t-76.5 125t-117 81.5t-149 29zM336 1406h565v-107h-565v107z" />
    <glyph glyph-name="Obreve" unicode="&#x14e;" horiz-adv-x="1626" 
d="M813 1412q103 0 197 -25t175.5 -71t148 -110.5t114 -143.5t73.5 -170t26 -190t-26 -190.5t-73.5 -171t-114 -144.5t-148 -111.5t-175.5 -72t-197 -25.5q-102 0 -196.5 25.5t-176 72t-148 111.5t-114 144.5t-73.5 171t-26 190.5t26 190.5t73.5 170t114 143t148 110.5
t176 71t196.5 25zM814 1265q-115 0 -217.5 -44t-179 -120.5t-121 -179t-44.5 -219.5q0 -78 20.5 -151t57.5 -136t88.5 -115t114 -88.5t134 -57t147.5 -20.5q115 0 217 44.5t178 121.5t120 180.5t44 221.5q0 117 -44 219.5t-120 179t-178 120.5t-217 44zM673 1786
q2 -31 13 -58t30 -46.5t44 -30.5t54 -11t54 11t43.5 30.5t30 46.5t12.5 58h118q-2 -57 -22.5 -104t-55 -81t-80.5 -52.5t-100 -18.5t-100.5 18.5t-81 52.5t-54.5 81t-22 104h117z" />
    <glyph glyph-name="obreve" unicode="&#x14f;" horiz-adv-x="1237" 
d="M619 1058q118 0 216.5 -39t170 -109t111 -167.5t39.5 -215.5t-39.5 -215.5t-111 -168t-170 -109.5t-216.5 -39t-217 39t-170.5 109.5t-111 168t-39.5 215.5t39.5 215.5t111 167.5t170.5 109t217 39zM619 921q-81 0 -149.5 -29t-117.5 -81.5t-76.5 -125t-27.5 -159.5
q0 -88 27.5 -161t76.5 -125.5t117.5 -81.5t149.5 -29t149 29t117 81.5t76.5 125.5t27.5 161q0 87 -27.5 159.5t-76.5 125t-117 81.5t-149 29zM479 1481q2 -31 13 -58t30 -46.5t44 -30.5t54 -11t54 11t43.5 30.5t30 46.5t12.5 58h118q-2 -57 -22.5 -104t-55 -81t-80.5 -52.5
t-100 -18.5t-100.5 18.5t-81 52.5t-54.5 81t-22 104h117z" />
    <glyph glyph-name="Ohungarumlaut" unicode="&#x150;" horiz-adv-x="1626" 
d="M813 1412q103 0 197 -25t175.5 -71t148 -110.5t114 -143.5t73.5 -170t26 -190t-26 -190.5t-73.5 -171t-114 -144.5t-148 -111.5t-175.5 -72t-197 -25.5q-102 0 -196.5 25.5t-176 72t-148 111.5t-114 144.5t-73.5 171t-26 190.5t26 190.5t73.5 170t114 143t148 110.5
t176 71t196.5 25zM814 1265q-115 0 -217.5 -44t-179 -120.5t-121 -179t-44.5 -219.5q0 -78 20.5 -151t57.5 -136t88.5 -115t114 -88.5t134 -57t147.5 -20.5q115 0 217 44.5t178 121.5t120 180.5t44 221.5q0 117 -44 219.5t-120 179t-178 120.5t-217 44zM733 1809l142 -66
l-185 -214l-127 16zM1033 1809l142 -66l-186 -214l-126 16z" />
    <glyph glyph-name="ohungarumlaut" unicode="&#x151;" horiz-adv-x="1237" 
d="M619 1058q118 0 216.5 -39t170 -109t111 -167.5t39.5 -215.5t-39.5 -215.5t-111 -168t-170 -109.5t-216.5 -39t-217 39t-170.5 109.5t-111 168t-39.5 215.5t39.5 215.5t111 167.5t170.5 109t217 39zM619 921q-81 0 -149.5 -29t-117.5 -81.5t-76.5 -125t-27.5 -159.5
q0 -88 27.5 -161t76.5 -125.5t117.5 -81.5t149.5 -29t149 29t117 81.5t76.5 125.5t27.5 161q0 87 -27.5 159.5t-76.5 125t-117 81.5t-149 29zM538 1509l142 -66l-185 -214l-127 16zM838 1509l142 -66l-186 -214l-126 16z" />
    <glyph glyph-name="OE" unicode="&#x152;" horiz-adv-x="2190" 
d="M812 0q-102 0 -196 24.5t-175.5 69.5t-148 109t-114 141.5t-73.5 167.5t-26 188t26 187.5t73 167.5t113.5 141.5t148 108.5t175.5 70t197 25h1239v-148h-787v-469h703v-147h-703v-488h813v-148h-1265zM251 699q0 -78 20 -149t56.5 -132.5t87.5 -111.5t113.5 -85.5
t134.5 -55t150 -19.5l280 -1v1108h-280q-117 0 -219.5 -43t-178.5 -117.5t-120 -175.5t-44 -218z" />
    <glyph glyph-name="oe" unicode="&#x153;" horiz-adv-x="2105" 
d="M619 1058q79 0 148 -19t126.5 -54t102 -85t74.5 -113q30 63 74 113t100.5 85t124 54t144.5 19q119 0 215.5 -41.5t163.5 -115.5t102.5 -177.5t32.5 -228.5h-880q6 -84 36.5 -152.5t81 -116.5t118 -74.5t146.5 -26.5q97 0 179.5 34.5t144.5 99.5l91 -90
q-78 -83 -186 -128.5t-242 -45.5q-79 0 -147.5 18.5t-125 53.5t-100.5 85t-74 113q-30 -63 -74.5 -113t-101.5 -85t-126 -53.5t-148 -18.5q-118 0 -217 39t-170.5 109.5t-111 168t-39.5 215.5t39.5 215.5t111 167.5t170.5 109t217 39zM619 921q-81 0 -149.5 -29
t-117.5 -81.5t-76.5 -125t-27.5 -159.5q0 -88 27.5 -161t76.5 -125.5t117.5 -81.5t149.5 -29t149 29t117 81.5t76.5 125.5t27.5 161q0 87 -27.5 159.5t-76.5 125t-117 81.5t-149 29zM1515 938q-75 0 -139 -25.5t-111.5 -72t-77.5 -111t-38 -142.5h712q-4 77 -30 141.5
t-71 111t-107.5 72.5t-137.5 26z" />
    <glyph glyph-name="Racute" unicode="&#x154;" horiz-adv-x="1446" 
d="M745 1400q132 0 235 -31.5t174 -91.5t108 -147t37 -199q0 -174 -81 -288.5t-233 -163.5l330 -479h-195l-289 448q-20 -2 -41.5 -3t-44.5 -1h-366v-444h-171v1400h537zM745 592q187 0 289.5 84.5t102.5 250.5q0 161 -102.5 243t-289.5 82h-366v-660h366zM813 1799l170 -72
l-249 -198l-144 17z" />
    <glyph glyph-name="racute" unicode="&#x155;" horiz-adv-x="751" 
d="M187 1053h166v-233q53 115 148.5 175.5t229.5 62.5v-152q-83 2 -150 -22.5t-115.5 -70t-77 -110t-35.5 -144.5v-559h-166v1053zM594 1499l170 -72l-249 -198l-144 17z" />
    <glyph glyph-name="uni0156" unicode="&#x156;" horiz-adv-x="1446" 
d="M745 1400q132 0 235 -31.5t174 -91.5t108 -147t37 -199q0 -174 -81 -288.5t-233 -163.5l330 -479h-195l-289 448q-20 -2 -41.5 -3t-44.5 -1h-366v-444h-171v1400h537zM745 592q187 0 289.5 84.5t102.5 250.5q0 161 -102.5 243t-289.5 82h-366v-660h366zM645 -121h156
l-106 -314h-122z" />
    <glyph glyph-name="uni0157" unicode="&#x157;" horiz-adv-x="751" 
d="M187 1053h166v-233q53 115 148.5 175.5t229.5 62.5v-152q-83 2 -150 -22.5t-115.5 -70t-77 -110t-35.5 -144.5v-559h-166v1053zM192 -121h156l-106 -314h-122z" />
    <glyph glyph-name="Rcaron" unicode="&#x158;" horiz-adv-x="1446" 
d="M745 1400q132 0 235 -31.5t174 -91.5t108 -147t37 -199q0 -174 -81 -288.5t-233 -163.5l330 -479h-195l-289 448q-20 -2 -41.5 -3t-44.5 -1h-366v-444h-171v1400h537zM745 592q187 0 289.5 84.5t102.5 250.5q0 161 -102.5 243t-289.5 82h-366v-660h366zM736 1536h-176
l-208 257h166l130 -142l129 142h167z" />
    <glyph glyph-name="rcaron" unicode="&#x159;" horiz-adv-x="751" 
d="M187 1053h166v-233q53 115 148.5 175.5t229.5 62.5v-152q-83 2 -150 -22.5t-115.5 -70t-77 -110t-35.5 -144.5v-559h-166v1053zM551 1236h-176l-208 257h166l130 -142l129 142h167z" />
    <glyph glyph-name="Sacute" unicode="&#x15a;" horiz-adv-x="1225" 
d="M1010 1142q-85 54 -187.5 85.5t-203.5 31.5q-46 0 -97 -9t-93.5 -31.5t-70 -60.5t-27.5 -95q0 -69 33.5 -114.5t88.5 -77t125.5 -53.5t143.5 -45t143.5 -52t125.5 -74t88.5 -110.5t33.5 -162.5q0 -104 -46 -177t-119.5 -119.5t-164.5 -67.5t-180 -21q-74 0 -148 14.5
t-143.5 42t-132.5 67.5t-117 91l77 139q45 -44 99.5 -81t114.5 -63.5t124 -41t128 -14.5q53 0 110 11t103.5 36.5t76.5 68.5t30 107q0 71 -33.5 117.5t-88.5 78.5t-125.5 54t-144 45t-144 51t-125.5 72t-88.5 108.5t-33.5 159.5q0 66 20.5 119t56 93t83.5 69t102.5 47
t112.5 26.5t114 8.5q58 0 117.5 -8.5t117.5 -25t113 -40.5t103 -56zM742 1799l170 -72l-249 -198l-144 17z" />
    <glyph glyph-name="sacute" unicode="&#x15b;" horiz-adv-x="911" 
d="M751 845q-64 38 -140 61t-149 23q-43 0 -79.5 -8.5t-63.5 -25.5t-42.5 -44t-15.5 -65q0 -45 25 -74t66.5 -50t94 -37t107 -33.5t107 -39.5t93.5 -56.5t66 -83.5t25 -120q0 -77 -32 -133t-86 -92.5t-124 -54t-146 -17.5q-57 0 -114 9.5t-110 28t-100 46t-85 62.5l63 114
q34 -31 76 -55.5t88 -41.5t94 -26t94 -9q45 0 84.5 9t69 27.5t47 47t18.5 68.5q1 48 -23.5 80t-65.5 54t-93 38.5t-106.5 34t-107 39t-93.5 54.5t-65.5 81t-24.5 118q0 75 30.5 129t81.5 88.5t118 51t140 16.5q95 0 184 -25t156 -70zM590 1499l170 -72l-249 -198l-144 17z
" />
    <glyph glyph-name="Scircumflex" unicode="&#x15c;" horiz-adv-x="1225" 
d="M1010 1142q-85 54 -187.5 85.5t-203.5 31.5q-46 0 -97 -9t-93.5 -31.5t-70 -60.5t-27.5 -95q0 -69 33.5 -114.5t88.5 -77t125.5 -53.5t143.5 -45t143.5 -52t125.5 -74t88.5 -110.5t33.5 -162.5q0 -104 -46 -177t-119.5 -119.5t-164.5 -67.5t-180 -21q-74 0 -148 14.5
t-143.5 42t-132.5 67.5t-117 91l77 139q45 -44 99.5 -81t114.5 -63.5t124 -41t128 -14.5q53 0 110 11t103.5 36.5t76.5 68.5t30 107q0 71 -33.5 117.5t-88.5 78.5t-125.5 54t-144 45t-144 51t-125.5 72t-88.5 108.5t-33.5 159.5q0 66 20.5 119t56 93t83.5 69t102.5 47
t112.5 26.5t114 8.5q58 0 117.5 -8.5t117.5 -25t113 -40.5t103 -56zM529 1793h176l208 -257h-167l-129 142l-130 -142h-166z" />
    <glyph glyph-name="scircumflex" unicode="&#x15d;" horiz-adv-x="911" 
d="M751 845q-64 38 -140 61t-149 23q-43 0 -79.5 -8.5t-63.5 -25.5t-42.5 -44t-15.5 -65q0 -45 25 -74t66.5 -50t94 -37t107 -33.5t107 -39.5t93.5 -56.5t66 -83.5t25 -120q0 -77 -32 -133t-86 -92.5t-124 -54t-146 -17.5q-57 0 -114 9.5t-110 28t-100 46t-85 62.5l63 114
q34 -31 76 -55.5t88 -41.5t94 -26t94 -9q45 0 84.5 9t69 27.5t47 47t18.5 68.5q1 48 -23.5 80t-65.5 54t-93 38.5t-106.5 34t-107 39t-93.5 54.5t-65.5 81t-24.5 118q0 75 30.5 129t81.5 88.5t118 51t140 16.5q95 0 184 -25t156 -70zM376 1493h176l208 -257h-167l-129 142
l-130 -142h-166z" />
    <glyph glyph-name="Scedilla" unicode="&#x15e;" horiz-adv-x="1225" 
d="M1010 1142q-85 54 -187.5 85.5t-203.5 31.5q-46 0 -97 -9t-93.5 -31.5t-70 -60.5t-27.5 -95q0 -69 33.5 -114.5t88.5 -77t125.5 -53.5t143.5 -45t143.5 -52t125.5 -74t88.5 -110.5t33.5 -162.5q0 -93 -37.5 -161.5t-99 -115t-140 -72t-160.5 -33.5l-22 -65
q42 -5 73 -19.5t50.5 -35.5t29 -46.5t9.5 -52.5q0 -39 -15.5 -71t-44 -54.5t-68 -35t-86.5 -12.5t-94 12t-84 31l37 100q26 -14 59 -22t63 -8q51 0 75.5 23.5t24.5 50.5q0 29 -26 49.5t-78 20.5h-62l43 134q-68 4 -136 20t-132 43.5t-122.5 65t-107.5 84.5l77 139
q45 -44 99.5 -81t114.5 -63.5t124 -41t128 -14.5q53 0 110 11t103.5 36.5t76.5 68.5t30 107q0 71 -33.5 117.5t-88.5 78.5t-125.5 54t-144 45t-144 51t-125.5 72t-88.5 108.5t-33.5 159.5q0 66 20.5 119t56 93t83.5 69t102.5 47t112.5 26.5t114 8.5q58 0 117.5 -8.5
t117.5 -25t113 -40.5t103 -56z" />
    <glyph glyph-name="scedilla" unicode="&#x15f;" horiz-adv-x="911" 
d="M751 845q-64 38 -140 61t-149 23q-43 0 -79.5 -8.5t-63.5 -25.5t-42.5 -44t-15.5 -65q0 -45 25 -74t66.5 -50t94 -37t107 -33.5t107 -39.5t93.5 -56.5t66 -83.5t25 -120q0 -70 -27 -123t-73 -89.5t-106.5 -56.5t-128.5 -26l-24 -70q42 -5 73 -19.5t50.5 -35.5t29 -46.5
t9.5 -52.5q0 -39 -15.5 -71t-44 -54.5t-68 -35t-86.5 -12.5t-94 12t-84 31l37 100q26 -14 59 -22t63 -8q51 0 75.5 23.5t24.5 50.5q0 29 -26 49.5t-78 20.5h-62l45 141q-100 8 -190 45t-156 98l63 114q34 -31 76 -55.5t88 -41.5t94 -26t94 -9q45 0 84.5 9t69 27.5t47 47
t18.5 68.5q1 48 -23.5 80t-65.5 54t-93 38.5t-106.5 34t-107 39t-93.5 54.5t-65.5 81t-24.5 118q0 75 30.5 129t81.5 88.5t118 51t140 16.5q95 0 184 -25t156 -70z" />
    <glyph glyph-name="Scaron" unicode="&#x160;" horiz-adv-x="1225" 
d="M1010 1142q-85 54 -187.5 85.5t-203.5 31.5q-46 0 -97 -9t-93.5 -31.5t-70 -60.5t-27.5 -95q0 -69 33.5 -114.5t88.5 -77t125.5 -53.5t143.5 -45t143.5 -52t125.5 -74t88.5 -110.5t33.5 -162.5q0 -104 -46 -177t-119.5 -119.5t-164.5 -67.5t-180 -21q-74 0 -148 14.5
t-143.5 42t-132.5 67.5t-117 91l77 139q45 -44 99.5 -81t114.5 -63.5t124 -41t128 -14.5q53 0 110 11t103.5 36.5t76.5 68.5t30 107q0 71 -33.5 117.5t-88.5 78.5t-125.5 54t-144 45t-144 51t-125.5 72t-88.5 108.5t-33.5 159.5q0 66 20.5 119t56 93t83.5 69t102.5 47
t112.5 26.5t114 8.5q58 0 117.5 -8.5t117.5 -25t113 -40.5t103 -56zM665 1536h-176l-208 257h166l130 -142l129 142h167z" />
    <glyph glyph-name="scaron" unicode="&#x161;" horiz-adv-x="911" 
d="M751 845q-64 38 -140 61t-149 23q-43 0 -79.5 -8.5t-63.5 -25.5t-42.5 -44t-15.5 -65q0 -45 25 -74t66.5 -50t94 -37t107 -33.5t107 -39.5t93.5 -56.5t66 -83.5t25 -120q0 -77 -32 -133t-86 -92.5t-124 -54t-146 -17.5q-57 0 -114 9.5t-110 28t-100 46t-85 62.5l63 114
q34 -31 76 -55.5t88 -41.5t94 -26t94 -9q45 0 84.5 9t69 27.5t47 47t18.5 68.5q1 48 -23.5 80t-65.5 54t-93 38.5t-106.5 34t-107 39t-93.5 54.5t-65.5 81t-24.5 118q0 75 30.5 129t81.5 88.5t118 51t140 16.5q95 0 184 -25t156 -70zM552 1236h-176l-208 257h166l130 -142
l129 142h167z" />
    <glyph glyph-name="uni0162" unicode="&#x162;" horiz-adv-x="1123" 
d="M21 1400h1081v-148h-456v-1252h-31l-25 -73q43 -5 73.5 -19.5t50 -35.5t29 -46.5t9.5 -52.5q0 -39 -15.5 -71t-44 -54.5t-68 -35t-86.5 -12.5t-94 12t-84 31l38 100q25 -14 58.5 -22t63.5 -8q50 0 75 23.5t25 50.5q0 29 -26.5 49.5t-77.5 20.5h-62l45 143h-23v1252h-455
v148z" />
    <glyph glyph-name="uni0163" unicode="&#x163;" horiz-adv-x="784" 
d="M391 1053h330v-123h-330v-611q0 -98 35 -139.5t101 -40.5q79 0 166 54l47 -122q-42 -28 -87.5 -46t-92.5 -25l-24 -73q42 -5 73 -19.5t50.5 -35.5t29 -46.5t9.5 -52.5q0 -39 -15.5 -71t-44 -54.5t-68 -35t-86.5 -12.5t-94.5 12t-83.5 31l37 100q25 -14 58.5 -22t63.5 -8
q51 0 75.5 23.5t24.5 50.5q0 29 -26 49.5t-78 20.5h-62l44 140q-48 7 -88 28.5t-69 57.5t-45 88t-16 121v638h-150v123h150v243h166v-243z" />
    <glyph glyph-name="Tcaron" unicode="&#x164;" horiz-adv-x="1123" 
d="M21 1400h1081v-148h-456v-1252h-170v1252h-455v148zM602 1536h-176l-208 257h166l130 -142l129 142h167z" />
    <glyph glyph-name="tcaron" unicode="&#x165;" horiz-adv-x="784" 
d="M391 1053h330v-123h-330v-611q0 -98 35 -139.5t101 -40.5q79 0 166 54l47 -122q-57 -38 -118 -57.5t-125 -20.5q-58 0 -107.5 17.5t-86 54t-57.5 93t-21 134.5v638h-150v123h150v243h166v-243zM537 1484h158l-44 -327h-114v327z" />
    <glyph glyph-name="Tbar" unicode="&#x166;" horiz-adv-x="1123" 
d="M21 1400h1081v-148h-456v-1252h-170v1252h-455v148zM163 724h792v-102h-792v102z" />
    <glyph glyph-name="tbar" unicode="&#x167;" horiz-adv-x="784" 
d="M75 1053h150v243h166v-243h330v-123h-330v-276h330v-123h-330v-212q0 -98 35 -139.5t101 -40.5q79 0 166 54l47 -122q-57 -38 -118 -57.5t-125 -20.5q-58 0 -107.5 17.5t-86 54t-57.5 93t-21 134.5v239h-151v123h151v276h-150v123z" />
    <glyph glyph-name="Utilde" unicode="&#x168;" horiz-adv-x="1529" 
d="M348 570q0 -103 29 -184t83 -137t131.5 -85.5t174.5 -29.5t174 29.5t130.5 85t82 137t28.5 184.5v830h170v-830q0 -137 -40 -245t-115.5 -183t-184 -115t-245.5 -40q-138 0 -247.5 40t-185 115t-116 183t-40.5 245v830h171v-830zM1075 1757q0 -46 -8.5 -87t-28 -72
t-49.5 -49.5t-74 -18.5q-42 0 -78 17t-67.5 38t-60 38t-54.5 17q-39 0 -54.5 -29t-15.5 -73h-116q0 46 8.5 87t27.5 72t49.5 49.5t73.5 18.5q42 0 78 -17t68 -38t60 -38t55 -17q39 0 54 28.5t15 73.5h117z" />
    <glyph glyph-name="utilde" unicode="&#x169;" 
d="M319 444q0 -70 19.5 -126t56.5 -94.5t89.5 -59t119.5 -20.5q80 2 142.5 31.5t106 81t66.5 123t23 156.5v517h167v-1053h-167v236q-54 -122 -154.5 -180.5t-242.5 -60.5q-92 0 -165 28t-123.5 81t-77.5 128.5t-27 171.5v649h167v-609zM952 1452q0 -46 -8.5 -87t-28 -72
t-49.5 -49.5t-74 -18.5q-42 0 -78 17t-67.5 38t-60 38t-54.5 17q-39 0 -54.5 -29t-15.5 -73h-116q0 46 8.5 87t27.5 72t49.5 49.5t73.5 18.5q42 0 78 -17t68 -38t60 -38t55 -17q39 0 54 28.5t15 73.5h117z" />
    <glyph glyph-name="Umacron" unicode="&#x16a;" horiz-adv-x="1529" 
d="M348 570q0 -103 29 -184t83 -137t131.5 -85.5t174.5 -29.5t174 29.5t130.5 85t82 137t28.5 184.5v830h170v-830q0 -137 -40 -245t-115.5 -183t-184 -115t-245.5 -40q-138 0 -247.5 40t-185 115t-116 183t-40.5 245v830h171v-830zM455 1653h619v-107h-619v107z" />
    <glyph glyph-name="umacron" unicode="&#x16b;" 
d="M319 444q0 -70 19.5 -126t56.5 -94.5t89.5 -59t119.5 -20.5q80 2 142.5 31.5t106 81t66.5 123t23 156.5v517h167v-1053h-167v236q-54 -122 -154.5 -180.5t-242.5 -60.5q-92 0 -165 28t-123.5 81t-77.5 128.5t-27 171.5v649h167v-609zM365 1406h565v-107h-565v107z" />
    <glyph glyph-name="Ubreve" unicode="&#x16c;" horiz-adv-x="1529" 
d="M348 570q0 -103 29 -184t83 -137t131.5 -85.5t174.5 -29.5t174 29.5t130.5 85t82 137t28.5 184.5v830h170v-830q0 -137 -40 -245t-115.5 -183t-184 -115t-245.5 -40q-138 0 -247.5 40t-185 115t-116 183t-40.5 245v830h171v-830zM625 1786q2 -31 13 -58t30 -46.5
t44 -30.5t54 -11t54 11t43.5 30.5t30 46.5t12.5 58h118q-2 -57 -22.5 -104t-55 -81t-80.5 -52.5t-100 -18.5t-100.5 18.5t-81 52.5t-54.5 81t-22 104h117z" />
    <glyph glyph-name="ubreve" unicode="&#x16d;" 
d="M319 444q0 -70 19.5 -126t56.5 -94.5t89.5 -59t119.5 -20.5q80 2 142.5 31.5t106 81t66.5 123t23 156.5v517h167v-1053h-167v236q-54 -122 -154.5 -180.5t-242.5 -60.5q-92 0 -165 28t-123.5 81t-77.5 128.5t-27 171.5v649h167v-609zM508 1481q2 -31 13 -58t30 -46.5
t44 -30.5t54 -11t54 11t43.5 30.5t30 46.5t12.5 58h118q-2 -57 -22.5 -104t-55 -81t-80.5 -52.5t-100 -18.5t-100.5 18.5t-81 52.5t-54.5 81t-22 104h117z" />
    <glyph glyph-name="Uring" unicode="&#x16e;" horiz-adv-x="1529" 
d="M348 570q0 -103 29 -184t83 -137t131.5 -85.5t174.5 -29.5t174 29.5t130.5 85t82 137t28.5 184.5v830h170v-830q0 -137 -40 -245t-115.5 -183t-184 -115t-245.5 -40q-138 0 -247.5 40t-185 115t-116 183t-40.5 245v830h171v-830zM764 1914q43 0 80.5 -16.5t66 -44.5
t45 -65t16.5 -78t-16.5 -78t-45 -65t-66 -44.5t-80.5 -16.5q-42 0 -80 16.5t-66 44.5t-44.5 65t-16.5 78t16.5 78t44.5 65t66 44.5t80 16.5zM764 1823q-24 0 -45 -9t-37 -24.5t-25.5 -36t-9.5 -43.5t9.5 -43.5t25.5 -36t37 -24.5t45 -9t45.5 9t37.5 24.5t25.5 36t9.5 43.5
t-9.5 43.5t-25.5 36t-37.5 24.5t-45.5 9z" />
    <glyph glyph-name="uring" unicode="&#x16f;" 
d="M319 444q0 -70 19.5 -126t56.5 -94.5t89.5 -59t119.5 -20.5q80 2 142.5 31.5t106 81t66.5 123t23 156.5v517h167v-1053h-167v236q-54 -122 -154.5 -180.5t-242.5 -60.5q-92 0 -165 28t-123.5 81t-77.5 128.5t-27 171.5v649h167v-609zM648 1567q43 0 80.5 -16.5t66 -44.5
t45 -65t16.5 -78t-16.5 -78t-45 -65t-66 -44.5t-80.5 -16.5q-42 0 -80 16.5t-66 44.5t-44.5 65t-16.5 78t16.5 78t44.5 65t66 44.5t80 16.5zM648 1476q-24 0 -45 -9t-37 -24.5t-25.5 -36t-9.5 -43.5t9.5 -43.5t25.5 -36t37 -24.5t45 -9t45.5 9t37.5 24.5t25.5 36t9.5 43.5
t-9.5 43.5t-25.5 36t-37.5 24.5t-45.5 9z" />
    <glyph glyph-name="Uhungarumlaut" unicode="&#x170;" horiz-adv-x="1529" 
d="M348 570q0 -103 29 -184t83 -137t131.5 -85.5t174.5 -29.5t174 29.5t130.5 85t82 137t28.5 184.5v830h170v-830q0 -137 -40 -245t-115.5 -183t-184 -115t-245.5 -40q-138 0 -247.5 40t-185 115t-116 183t-40.5 245v830h171v-830zM685 1809l142 -66l-185 -214l-127 16z
M985 1809l142 -66l-186 -214l-126 16z" />
    <glyph glyph-name="uhungarumlaut" unicode="&#x171;" 
d="M319 444q0 -70 19.5 -126t56.5 -94.5t89.5 -59t119.5 -20.5q80 2 142.5 31.5t106 81t66.5 123t23 156.5v517h167v-1053h-167v236q-54 -122 -154.5 -180.5t-242.5 -60.5q-92 0 -165 28t-123.5 81t-77.5 128.5t-27 171.5v649h167v-609zM568 1509l142 -66l-185 -214l-127 16
zM868 1509l142 -66l-186 -214l-126 16z" />
    <glyph glyph-name="Uogonek" unicode="&#x172;" horiz-adv-x="1529" 
d="M348 570q0 -103 29 -184t83 -137t131.5 -85.5t174.5 -29.5t174 29.5t130.5 85t82 137t28.5 184.5v830h170v-830q0 -137 -40 -245t-115.5 -183t-184 -115t-245.5 -40q-138 0 -247.5 40t-185 115t-116 183t-40.5 245v830h171v-830zM1145 99q-46 -39 -84.5 -82t-66.5 -86
t-43.5 -84t-15.5 -75q0 -39 18.5 -60t52.5 -21q20 0 41.5 6.5t40.5 17.5l43 -105q-43 -22 -84 -31.5t-76 -9.5q-86 0 -138 49.5t-52 136.5q0 91 69.5 189t216.5 206z" />
    <glyph glyph-name="uogonek" unicode="&#x173;" 
d="M319 444q0 -70 19.5 -126t56.5 -94.5t89.5 -59t119.5 -20.5q80 2 142.5 31.5t106 81t66.5 123t23 156.5v517h167v-1053h-167v236q-54 -122 -154.5 -180.5t-242.5 -60.5q-92 0 -165 28t-123.5 81t-77.5 128.5t-27 171.5v649h167v-609zM1108 0q-103 -74 -150 -128t-47 -107
q0 -40 20 -57t49 -17q19 0 41 6t43 18l42 -105q-42 -22 -82 -31.5t-78 -9.5q-42 0 -76.5 11t-59.5 32t-39 52.5t-14 73.5q0 80 57.5 160.5t191.5 160.5z" />
    <glyph glyph-name="Wcircumflex" unicode="&#x174;" horiz-adv-x="2076" 
d="M11 1400h184l381 -1221l380 1221h170l383 -1221l379 1221h178l-475 -1400h-176l-376 1191l-380 -1191h-175zM951 1793h176l208 -257h-167l-129 142l-130 -142h-166z" />
    <glyph glyph-name="wcircumflex" unicode="&#x175;" horiz-adv-x="1736" 
d="M8 1053h173l308 -896l300 896h175l303 -896l304 896h172l-390 -1053h-174l-302 862l-304 -862h-172zM786 1493h176l208 -257h-167l-129 142l-130 -142h-166z" />
    <glyph glyph-name="Ycircumflex" unicode="&#x176;" horiz-adv-x="1254" 
d="M546 488l-538 912h175l447 -735l440 735h176l-530 -906v-494h-170v488zM538 1793h176l208 -257h-167l-129 142l-130 -142h-166z" />
    <glyph glyph-name="ycircumflex" unicode="&#x177;" horiz-adv-x="1012" 
d="M535 -150q-50 -121 -131.5 -183t-189.5 -62q-66 0 -121 19t-104 57l71 125q36 -26 71.5 -38t74.5 -12q61 0 109 38.5t80 113.5l41 100l-436 1045h174l346 -876l329 876h170zM425 1493h176l208 -257h-167l-129 142l-130 -142h-166z" />
    <glyph glyph-name="Ydieresis" unicode="&#x178;" horiz-adv-x="1254" 
d="M546 488l-538 912h175l447 -735l440 735h176l-530 -906v-494h-170v488zM458 1725q41 0 69 -27.5t28 -69.5t-28 -70.5t-69 -28.5q-21 0 -39 7.5t-31.5 21t-21 31.5t-7.5 39q0 42 28.5 69.5t70.5 27.5zM796 1725q42 0 70 -27.5t28 -69.5t-28 -70.5t-70 -28.5q-21 0 -39 7.5
t-31 21t-20.5 31.5t-7.5 39q0 42 28 69.5t70 27.5z" />
    <glyph glyph-name="Zacute" unicode="&#x179;" horiz-adv-x="1322" 
d="M111 1400h1117v-123l-917 -1129h926v-148h-1153v123l919 1129h-892v148zM795 1799l170 -72l-249 -198l-144 17z" />
    <glyph glyph-name="zacute" unicode="&#x17a;" horiz-adv-x="1056" 
d="M119 1053l837 -2v-116l-652 -804l669 -1v-132l-872 2v115l652 805l-634 2v131zM666 1499l170 -72l-249 -198l-144 17z" />
    <glyph glyph-name="Zdotaccent" unicode="&#x17b;" horiz-adv-x="1322" 
d="M111 1400h1117v-123l-917 -1129h926v-148h-1153v123l919 1129h-892v148zM670 1743q23 0 42.5 -8t33.5 -22.5t22.5 -34t8.5 -42.5q0 -22 -8.5 -42t-22.5 -34t-33.5 -22.5t-42.5 -8.5q-22 0 -41.5 8.5t-34 22.5t-22.5 34t-8 42q0 23 8 42.5t22.5 34t34 22.5t41.5 8z" />
    <glyph glyph-name="zdotaccent" unicode="&#x17c;" horiz-adv-x="1056" 
d="M119 1053l837 -2v-116l-652 -804l669 -1v-132l-872 2v115l652 805l-634 2v131zM534 1461q45 0 75.5 -30t30.5 -76q0 -22 -8 -42t-22.5 -34t-33.5 -22.5t-42 -8.5q-22 0 -42 8.5t-34 22.5t-22.5 34t-8.5 42q0 23 8.5 42.5t22.5 33.5t34 22t42 8z" />
    <glyph glyph-name="Zcaron" unicode="&#x17d;" horiz-adv-x="1322" 
d="M111 1400h1117v-123l-917 -1129h926v-148h-1153v123l919 1129h-892v148zM719 1536h-176l-208 257h166l130 -142l129 142h167z" />
    <glyph glyph-name="zcaron" unicode="&#x17e;" horiz-adv-x="1056" 
d="M119 1053l837 -2v-116l-652 -804l669 -1v-132l-872 2v115l652 805l-634 2v131zM622 1236h-176l-208 257h166l130 -142l129 142h167z" />
    <glyph glyph-name="longs" unicode="&#x17f;" horiz-adv-x="753" 
d="M221 930h-137v123h137v124q0 86 28.5 151.5t75.5 110t109 67.5t128 23q46 0 93 -13.5t88 -34.5l-40 -128q-30 14 -65 25t-72 11t-70 -12.5t-57.5 -37.5t-38.5 -60.5t-14 -82.5v-1196h-165v930z" />
    <glyph glyph-name="uni018F" unicode="&#x18f;" horiz-adv-x="1567" 
d="M783 -13q-155 0 -286 57t-226.5 158t-149 239t-53.5 299h1251q-7 111 -51.5 207t-116.5 166.5t-166.5 111t-200.5 40.5q-134 0 -248.5 -56.5t-192.5 -155.5l-122 111q104 115 243 181.5t319 66.5q99 0 189.5 -25t169 -71t142.5 -110.5t109.5 -143.5t70.5 -170t25 -190
t-25 -190.5t-70.5 -171t-109.5 -144.5t-142.5 -111.5t-169.5 -72t-189 -25.5zM784 134q100 0 188.5 34.5t158.5 96t117 145t63 182.5h-1058q16 -99 62 -182.5t116 -145t160 -96t193 -34.5z" />
    <glyph glyph-name="florin" unicode="&#x192;" horiz-adv-x="703" 
d="M387 812l-108 -881q-9 -75 -34 -135.5t-65 -103t-95.5 -65.5t-125.5 -22q-27 1 -54.5 6.5t-54.5 15.5t-51.5 23.5t-43.5 30.5l52 117q26 -24 65.5 -41t75.5 -17q38 0 67 15t49.5 43t33.5 67t19 87l104 860h-134l13 115h135l31 252q9 75 38.5 135t75 102.5t105.5 65.5
t130 22q32 -1 64 -6.5t63 -15.5t59 -23.5t50 -29.5l-64 -118q-30 24 -73.5 41t-82.5 17q-40 0 -74 -15t-60.5 -42t-44 -66t-23.5 -87l-29 -232h299l-13 -115h-299z" />
    <glyph glyph-name="Ohorn" unicode="&#x1a0;" horiz-adv-x="1677" 
d="M813 1412q103 0 197 -25t175.5 -71t148 -110.5t114 -143.5t73.5 -170t26 -190t-26 -190.5t-73.5 -171t-114 -144.5t-148 -111.5t-175.5 -72t-197 -25.5q-102 0 -196.5 25.5t-176 72t-148 111.5t-114 144.5t-73.5 171t-26 190.5t26 190.5t73.5 170t114 143t148 110.5
t176 71t196.5 25zM814 1265q-115 0 -217.5 -44t-179 -120.5t-121 -179t-44.5 -219.5q0 -78 20.5 -151t57.5 -136t88.5 -115t114 -88.5t134 -57t147.5 -20.5q115 0 217 44.5t178 121.5t120 180.5t44 221.5q0 117 -44 219.5t-120 179t-178 120.5t-217 44zM1450 1659
q31 -53 42 -106t5 -101.5t-28 -90.5t-57 -73t-82 -49t-103 -18q-35 0 -59.5 2t-46.5 6l11 114q19 -7 40.5 -11t45.5 -4q51 0 83.5 27.5t45.5 69.5t4.5 91.5t-40.5 93.5z" />
    <glyph glyph-name="ohorn" unicode="&#x1a1;" 
d="M619 1058q118 0 216.5 -39t170 -109t111 -167.5t39.5 -215.5t-39.5 -215.5t-111 -168t-170 -109.5t-216.5 -39t-217 39t-170.5 109.5t-111 168t-39.5 215.5t39.5 215.5t111 167.5t170.5 109t217 39zM619 921q-81 0 -149.5 -29t-117.5 -81.5t-76.5 -125t-27.5 -159.5
q0 -88 27.5 -161t76.5 -125.5t117.5 -81.5t149.5 -29t149 29t117 81.5t76.5 125.5t27.5 161q0 87 -27.5 159.5t-76.5 125t-117 81.5t-149 29zM1207 1311q31 -53 42 -106t5 -101.5t-28 -90.5t-57 -73t-82 -49t-103 -18q-35 0 -59.5 2t-46.5 6l11 114q19 -7 40.5 -11t45.5 -4
q51 0 83.5 27.5t45.5 69.5t4.5 91.5t-40.5 93.5z" />
    <glyph glyph-name="Uhorn" unicode="&#x1af;" horiz-adv-x="1573" 
d="M348 570q0 -103 29 -184t83 -137t131.5 -85.5t174.5 -29.5t174 29.5t130.5 85t82 137t28.5 184.5v830h170v-830q0 -137 -40 -245t-115.5 -183t-184 -115t-245.5 -40q-138 0 -247.5 40t-185 115t-116 183t-40.5 245v830h171v-830zM1517 1659q34 -77 34.5 -143.5
t-30 -115.5t-90.5 -77t-147 -28v105q52 0 83 17t43 46t6 67.5t-28 81.5z" />
    <glyph glyph-name="uhorn" unicode="&#x1b0;" horiz-adv-x="1302" 
d="M319 444q0 -70 19.5 -126t56.5 -94.5t89.5 -59t119.5 -20.5q80 2 142.5 31.5t106 81t66.5 123t23 156.5v517h167v-1053h-167v236q-54 -122 -154.5 -180.5t-242.5 -60.5q-92 0 -165 28t-123.5 81t-77.5 128.5t-27 171.5v649h167v-609zM1247 1312q34 -77 34.5 -143.5
t-30 -115.5t-90.5 -77t-147 -28v105q52 0 83 17t43 46t6 67.5t-28 81.5z" />
    <glyph glyph-name="uni01C4" unicode="&#x1c4;" horiz-adv-x="2897" 
d="M774 1400q103 0 196.5 -24t174 -69t145 -108t110.5 -140.5t71 -168.5t25 -190q0 -149 -55 -277t-152.5 -222t-230 -147.5t-288.5 -53.5h-562v1400h566zM778 148q115 0 214.5 42t173 115.5t116 174t42.5 218.5q0 119 -43 220t-117.5 175.5t-175 116.5t-216.5 42h-393
v-1104h399zM1686 1400h1117v-123l-917 -1129h926v-148h-1153v123l919 1129h-892v148zM2294 1536h-176l-208 257h166l130 -142l129 142h167z" />
    <glyph glyph-name="uni01C5" unicode="&#x1c5;" horiz-adv-x="2631" 
d="M774 1400q103 0 196.5 -24t174 -69t145 -108t110.5 -140.5t71 -168.5t25 -190q0 -149 -55 -277t-152.5 -222t-230 -147.5t-288.5 -53.5h-562v1400h566zM778 148q115 0 214.5 42t173 115.5t116 174t42.5 218.5q0 119 -43 220t-117.5 175.5t-175 116.5t-216.5 42h-393
v-1104h399zM1694 1053l837 -2v-116l-652 -804l669 -1v-132l-872 2v115l652 805l-634 2v131zM2197 1236h-176l-208 257h166l130 -142l129 142h167z" />
    <glyph glyph-name="uni01C6" unicode="&#x1c6;" horiz-adv-x="2414" 
d="M995 220q-60 -109 -162.5 -168.5t-242.5 -59.5q-113 0 -206.5 39.5t-161 110.5t-104.5 169.5t-37 216.5t37.5 216t104.5 168.5t160 109.5t204 39q140 0 244 -60t164 -169v652h166v-1484h-166v220zM622 923q-82 0 -150.5 -30t-118 -83t-77.5 -126t-28 -160t28 -159.5
t77.5 -125.5t118 -82.5t150.5 -29.5t150.5 29.5t118 82.5t77 125.5t27.5 159.5t-27.5 160.5t-77 126.5t-118 82.5t-150.5 29.5zM1477 1053l837 -2v-116l-652 -804l669 -1v-132l-872 2v115l652 805l-634 2v131zM1980 1236h-176l-208 257h166l130 -142l129 142h167z" />
    <glyph glyph-name="uni01C7" unicode="&#x1c7;" horiz-adv-x="2011" 
d="M208 1400h171v-1252h613v-148h-784v1400zM1836 418q0 -102 -27.5 -181t-80 -133t-128 -82.5t-170.5 -28.5q-118 0 -217 52t-174 147l84 124q67 -81 146.5 -122.5t159.5 -41.5q112 0 173.5 69t61.5 201v978h172v-982z" />
    <glyph glyph-name="uni01C8" unicode="&#x1c8;" horiz-adv-x="1553" 
d="M208 1400h171v-1252h613v-148h-784v1400zM963 -237q24 -9 50.5 -15t52.5 -6q77 0 116.5 57t39.5 168v1086h167v-1107q0 -83 -20 -146.5t-57.5 -106.5t-92.5 -65t-125 -21q-91 3 -170 35zM1305 1461q45 0 75.5 -30t30.5 -76q0 -22 -8 -42t-22.5 -34t-33.5 -22.5t-42 -8.5
q-22 0 -42 8.5t-34 22.5t-22.5 34t-8.5 42q0 23 8.5 42.5t22.5 33.5t34 22t42 8z" />
    <glyph glyph-name="uni01C9" unicode="&#x1c9;" horiz-adv-x="1097" 
d="M334 269q0 -66 26.5 -98t74.5 -32q50 0 110 43l30 -125q-45 -32 -91 -48t-90 -16q-49 0 -90 16.5t-71 49.5t-47 81.5t-17 111.5v1232h165v-1215zM508 -237q24 -9 50.5 -15t52.5 -6q77 0 116.5 57t39.5 168v1086h167v-1107q0 -83 -20 -146.5t-57.5 -106.5t-92.5 -65
t-125 -21q-91 3 -170 35zM850 1461q45 0 75.5 -30t30.5 -76q0 -22 -8 -42t-22.5 -34t-33.5 -22.5t-42 -8.5q-22 0 -42 8.5t-34 22.5t-22.5 34t-8.5 42q0 23 8.5 42.5t22.5 33.5t34 22t42 8z" />
    <glyph glyph-name="uni01CA" unicode="&#x1ca;" horiz-adv-x="2561" 
d="M208 1400h175l829 -1139v1139h168v-1400h-175l-826 1135v-1135h-171v1400zM2385 418q0 -102 -27.5 -181t-80 -133t-128 -82.5t-170.5 -28.5q-118 0 -217 52t-174 147l84 124q67 -81 146.5 -122.5t159.5 -41.5q112 0 173.5 69t61.5 201v978h172v-982z" />
    <glyph glyph-name="uni01CB" unicode="&#x1cb;" horiz-adv-x="2102" 
d="M208 1400h175l829 -1139v1139h168v-1400h-175l-826 1135v-1135h-171v1400zM1512 -237q24 -9 50.5 -15t52.5 -6q77 0 116.5 57t39.5 168v1086h167v-1107q0 -83 -20 -146.5t-57.5 -106.5t-92.5 -65t-125 -21q-91 3 -170 35zM1854 1461q45 0 75.5 -30t30.5 -76q0 -22 -8 -42
t-22.5 -34t-33.5 -22.5t-42 -8.5q-22 0 -42 8.5t-34 22.5t-22.5 34t-8.5 42q0 23 8.5 42.5t22.5 33.5t34 22t42 8z" />
    <glyph glyph-name="uni01CC" unicode="&#x1cc;" horiz-adv-x="1826" 
d="M993 609q0 71 -20 126.5t-58 94t-92 59t-123 20.5q-76 -1 -137.5 -26.5t-106 -70.5t-71 -108t-32.5 -139v-565h-166v1053h166v-231q56 120 159.5 177t247.5 59q94 0 168 -28t125.5 -81t78.5 -129t27 -171v-649h-166v609zM1236 -237q24 -9 50.5 -15t52.5 -6q77 0 116.5 57
t39.5 168v1086h167v-1107q0 -83 -20 -146.5t-57.5 -106.5t-92.5 -65t-125 -21q-91 3 -170 35zM1578 1461q45 0 75.5 -30t30.5 -76q0 -22 -8 -42t-22.5 -34t-33.5 -22.5t-42 -8.5q-22 0 -42 8.5t-34 22.5t-22.5 34t-8.5 42q0 23 8.5 42.5t22.5 33.5t34 22t42 8z" />
    <glyph glyph-name="Gcaron" unicode="&#x1e6;" horiz-adv-x="1506" 
d="M1239 1102q-85 78 -194.5 121.5t-226.5 43.5q-118 0 -221.5 -44.5t-180 -121t-121 -179.5t-44.5 -220q0 -118 44.5 -222t121.5 -181t180.5 -121.5t221.5 -44.5q91 0 182 29t170 82v383h-484v146h645v-602q-51 -42 -112.5 -76t-129 -58t-139 -37t-142.5 -13
q-102 0 -195.5 25.5t-175 72t-147.5 111.5t-113.5 144.5t-73 171t-25.5 190.5t26 190t73.5 169.5t114.5 143t149.5 110.5t177.5 71t198 25q73 0 144.5 -13.5t137.5 -38t126 -60t111 -80.5zM818 1535h-176l-208 257h166l130 -142l129 142h167z" />
    <glyph glyph-name="gcaron" unicode="&#x1e7;" horiz-adv-x="1273" 
d="M1111 109q0 -116 -38 -208.5t-107.5 -157.5t-167.5 -100t-219 -35q-125 0 -231.5 39.5t-202.5 113.5l75 115q78 -66 162.5 -100.5t189.5 -34.5q85 0 154 25.5t117.5 73t75 115t26.5 150.5v156q-56 -103 -153.5 -159t-229.5 -56q-107 0 -195.5 37.5t-152 105t-98.5 160.5
t-35 205q0 111 35 203.5t98 159t150.5 104t192.5 37.5q134 1 232.5 -56t155.5 -160v211h166v-944zM593 928q-78 0 -143 -28.5t-112 -78.5t-73.5 -119.5t-26.5 -151.5t26.5 -151t73 -119.5t112 -78.5t143.5 -28q77 0 142 28t111.5 78.5t72.5 119.5t26 151q0 83 -26 152.5
t-72.5 119.5t-111.5 78t-142 28zM694 1236h-176l-208 257h166l130 -142l129 142h167z" />
    <glyph glyph-name="uni01EA" unicode="&#x1ea;" horiz-adv-x="1626" 
d="M813 1412q103 0 197 -25t175.5 -71t148 -110.5t114 -143.5t73.5 -170t26 -190t-26 -190.5t-73.5 -171t-114 -144.5t-148 -111.5t-175.5 -72t-197 -25.5q-102 0 -196.5 25.5t-176 72t-148 111.5t-114 144.5t-73.5 171t-26 190.5t26 190.5t73.5 170t114 143t148 110.5
t176 71t196.5 25zM814 1265q-115 0 -217.5 -44t-179 -120.5t-121 -179t-44.5 -219.5q0 -78 20.5 -151t57.5 -136t88.5 -115t114 -88.5t134 -57t147.5 -20.5q115 0 217 44.5t178 121.5t120 180.5t44 221.5q0 117 -44 219.5t-120 179t-178 120.5t-217 44zM1202 99
q-46 -39 -84.5 -82t-66.5 -86t-43.5 -84t-15.5 -75q0 -39 18.5 -60t52.5 -21q20 0 41.5 6.5t40.5 17.5l43 -105q-43 -22 -84 -31.5t-76 -9.5q-86 0 -138 49.5t-52 136.5q0 91 69.5 189t216.5 206z" />
    <glyph glyph-name="uni01EB" unicode="&#x1eb;" horiz-adv-x="1237" 
d="M619 1058q118 0 216.5 -39t170 -109t111 -167.5t39.5 -215.5t-39.5 -215.5t-111 -168t-170 -109.5t-216.5 -39t-217 39t-170.5 109.5t-111 168t-39.5 215.5t39.5 215.5t111 167.5t170.5 109t217 39zM619 921q-81 0 -149.5 -29t-117.5 -81.5t-76.5 -125t-27.5 -159.5
q0 -88 27.5 -161t76.5 -125.5t117.5 -81.5t149.5 -29t149 29t117 81.5t76.5 125.5t27.5 161q0 87 -27.5 159.5t-76.5 125t-117 81.5t-149 29zM954 99q-46 -39 -84.5 -82t-66.5 -86t-43.5 -84t-15.5 -75q0 -39 18.5 -60t52.5 -21q20 0 41.5 6.5t40.5 17.5l43 -105
q-43 -22 -84 -31.5t-76 -9.5q-86 0 -138 49.5t-52 136.5q0 91 69.5 189t216.5 206z" />
    <glyph glyph-name="Aringacute" unicode="&#x1fa;" horiz-adv-x="1442" 
d="M629 1391q-51 25 -83.5 73.5t-32.5 108.5q0 41 16.5 78t44.5 65t66 44.5t80 16.5q28 0 57 -8l185 143l142 -92l-222 -120q22 -27 34 -59.5t12 -67.5q0 -59 -32 -107.5t-83 -74.5l621 -1391h-183l-156 358h-752l-155 -358h-180zM1031 505l-314 721l-311 -721h625z
M720 1686q-24 0 -45 -9t-37 -24.5t-25.5 -36t-9.5 -43.5t9.5 -43.5t25.5 -36t37 -24.5t45 -9t45.5 9t37.5 24.5t25.5 36t9.5 43.5t-9.5 43.5t-25.5 36t-37.5 24.5t-45.5 9z" />
    <glyph glyph-name="aringacute" unicode="&#x1fb;" horiz-adv-x="1156" 
d="M837 162q-61 -86 -157.5 -127.5t-221.5 -41.5q-82 0 -149 24.5t-114 67.5t-72.5 101.5t-25.5 126.5q0 69 26.5 124.5t77.5 94.5t124.5 60t167.5 21h343l-1 66q0 118 -69.5 183t-208.5 65q-86 0 -167.5 -31.5t-162.5 -89.5l-71 109q51 34 99.5 60.5t100 45t108.5 28
t126 9.5q98 0 174 -25t128 -72t79 -114.5t28 -151.5l3 -695h-164zM491 124q67 0 124.5 16.5t102.5 47.5t76 75.5t43 100.5l-1 127h-321q-261 0 -261 -173q0 -43 16.5 -79t47.5 -61.5t74.5 -39.5t98.5 -14zM569 1567q43 0 80.5 -16.5t66 -44.5t45 -65t16.5 -78t-16.5 -78
t-45 -65t-66 -44.5t-80.5 -16.5q-42 0 -80 16.5t-66 44.5t-44.5 65t-16.5 78t16.5 78t44.5 65t66 44.5t80 16.5zM702 1877l142 -92l-281 -152l-128 38zM569 1476q-24 0 -45 -9t-37 -24.5t-25.5 -36t-9.5 -43.5t9.5 -43.5t25.5 -36t37 -24.5t45 -9t45.5 9t37.5 24.5t25.5 36
t9.5 43.5t-9.5 43.5t-25.5 36t-37.5 24.5t-45.5 9z" />
    <glyph glyph-name="AEacute" unicode="&#x1fc;" horiz-adv-x="2060" 
d="M965 384h-557l-220 -384h-180l822 1400h1092v-148h-788v-469h705v-147h-705v-488h814v-148h-983v384zM965 514v750h-51l-431 -750h482zM1358 1798l170 -72l-249 -198l-144 17z" />
    <glyph glyph-name="aeacute" unicode="&#x1fd;" horiz-adv-x="1959" 
d="M457 -7q-81 0 -147 23t-113.5 64t-73.5 98.5t-26 127.5q0 68 27 122t78 92t125 58t168 20h344v81q0 121 -72.5 184.5t-208.5 63.5q-87 0 -174.5 -30t-181.5 -91l-47 115q223 137 435 137q142 0 237.5 -54.5t134.5 -157.5q65 102 170.5 157t236.5 55q117 0 213 -42.5
t163.5 -118t103 -181t32.5 -231.5h-873v-28q0 -66 31 -126t82.5 -106t120 -73t143.5 -27q96 0 178 34t144 100l92 -90q-80 -86 -188.5 -130t-237.5 -44q-79 0 -149.5 19t-129.5 55t-105 87.5t-76 115.5q-64 -139 -178.5 -209t-277.5 -70zM1371 938q-73 0 -138 -23.5
t-114 -68t-78.5 -107.5t-32.5 -141h707q-4 79 -30.5 142t-71.5 107t-106.5 67.5t-135.5 23.5zM492 109q126 0 210 57.5t137 180.5v138h-315q-130 0 -200 -39.5t-70 -127.5q0 -47 17 -85.5t48.5 -66t75 -42.5t97.5 -15zM1112 1499l170 -72l-249 -198l-144 17z" />
    <glyph glyph-name="Oslashacute" unicode="&#x1fe;" horiz-adv-x="1626" 
d="M356 145q-64 48 -115 109t-87 132t-55.5 150t-19.5 164q0 99 26 189.5t73.5 168.5t114 142t148 109.5t176 70t196.5 24.5q97 0 186 -22t168 -63l132 192h147l-177 -256q64 -48 115.5 -108.5t87.5 -131.5t55.5 -150t19.5 -165q0 -98 -26 -188.5t-73.5 -169.5t-114 -143
t-148 -110t-175.5 -71t-197 -25q-98 0 -187.5 22.5t-168.5 64.5l-131 -190h-146zM814 1257q-115 0 -217.5 -43.5t-179 -119t-121 -177t-44.5 -217.5q0 -128 52.5 -236.5t142.5 -186.5l631 914q-59 32 -125.5 49t-138.5 17zM1373 700q0 128 -52.5 237t-142.5 186l-632 -914
q60 -33 128 -51t140 -18q115 0 217 44t178 120t120 178t44 218zM939 1799l170 -72l-249 -198l-144 17z" />
    <glyph glyph-name="oslashacute" unicode="&#x1ff;" horiz-adv-x="1237" 
d="M272 108q-90 71 -140.5 178t-50.5 241q0 118 39.5 215.5t111 167.5t170.5 109t217 39q74 0 139.5 -15t122.5 -44l174 255h124l-212 -310q89 -70 139 -176.5t50 -240.5q0 -118 -39.5 -215.5t-111 -168t-170 -109.5t-216.5 -39q-73 0 -138.5 15t-122.5 43l-175 -254h-123z
M619 931q-83 0 -152.5 -29.5t-120 -83t-78.5 -128t-28 -164.5q0 -94 29 -170.5t83 -130.5l452 661q-41 22 -87 33.5t-98 11.5zM999 526q0 94 -29.5 169.5t-83.5 129.5l-453 -662q41 -22 87.5 -34t98.5 -12q83 0 153 30t120.5 84t78.5 129t28 166zM753 1499l170 -72
l-249 -198l-144 17z" />
    <glyph glyph-name="uni0200" unicode="&#x200;" horiz-adv-x="1442" 
d="M634 1400h176l624 -1400h-183l-156 358h-752l-155 -358h-180zM1031 505l-314 721l-311 -721h625zM485 1808l171 -264l-128 -16l-185 214zM784 1808l171 -264l-127 -16l-186 214z" />
    <glyph glyph-name="uni0201" unicode="&#x201;" horiz-adv-x="1156" 
d="M837 162q-61 -86 -157.5 -127.5t-221.5 -41.5q-82 0 -149 24.5t-114 67.5t-72.5 101.5t-25.5 126.5q0 69 26.5 124.5t77.5 94.5t124.5 60t167.5 21h343l-1 66q0 118 -69.5 183t-208.5 65q-86 0 -167.5 -31.5t-162.5 -89.5l-71 109q51 34 99.5 60.5t100 45t108.5 28
t126 9.5q98 0 174 -25t128 -72t79 -114.5t28 -151.5l3 -695h-164zM491 124q67 0 124.5 16.5t102.5 47.5t76 75.5t43 100.5l-1 127h-321q-261 0 -261 -173q0 -43 16.5 -79t47.5 -61.5t74.5 -39.5t98.5 -14zM351 1509l171 -264l-128 -16l-185 214zM650 1509l171 -264l-127 -16
l-186 214z" />
    <glyph glyph-name="uni0202" unicode="&#x202;" horiz-adv-x="1442" 
d="M634 1400h176l624 -1400h-183l-156 358h-752l-155 -358h-180zM1031 505l-314 721l-311 -721h625zM463 1535q2 57 22 104t54.5 81t81 52.5t100.5 18.5t100 -18.5t80.5 -52.5t55 -81t22.5 -104h-118q-1 32 -12.5 58.5t-30 46t-43.5 30.5t-54 11t-54 -11t-44 -30.5t-30 -46
t-13 -58.5h-117z" />
    <glyph glyph-name="uni0203" unicode="&#x203;" horiz-adv-x="1156" 
d="M837 162q-61 -86 -157.5 -127.5t-221.5 -41.5q-82 0 -149 24.5t-114 67.5t-72.5 101.5t-25.5 126.5q0 69 26.5 124.5t77.5 94.5t124.5 60t167.5 21h343l-1 66q0 118 -69.5 183t-208.5 65q-86 0 -167.5 -31.5t-162.5 -89.5l-71 109q51 34 99.5 60.5t100 45t108.5 28
t126 9.5q98 0 174 -25t128 -72t79 -114.5t28 -151.5l3 -695h-164zM491 124q67 0 124.5 16.5t102.5 47.5t76 75.5t43 100.5l-1 127h-321q-261 0 -261 -173q0 -43 16.5 -79t47.5 -61.5t74.5 -39.5t98.5 -14zM329 1225q2 57 22 104t54.5 81t81 52.5t100.5 18.5t100 -18.5
t80.5 -52.5t55 -81t22.5 -104h-118q-1 32 -12.5 58.5t-30 46t-43.5 30.5t-54 11t-54 -11t-44 -30.5t-30 -46t-13 -58.5h-117z" />
    <glyph glyph-name="uni0204" unicode="&#x204;" horiz-adv-x="1305" 
d="M208 1400h959v-148h-788v-469h703v-147h-703v-488h813v-148h-984v1400zM466 1809l171 -264l-128 -16l-185 214zM765 1809l171 -264l-127 -16l-186 214z" />
    <glyph glyph-name="uni0205" unicode="&#x205;" horiz-adv-x="1177" 
d="M247 469q9 -78 40.5 -141.5t80.5 -108.5t113.5 -69.5t140.5 -24.5q96 0 178.5 34.5t143.5 99.5l91 -90q-76 -83 -184 -128.5t-241 -45.5q-118 0 -215 39t-167 109t-108.5 167.5t-38.5 215.5q0 117 39 215t109 168t166 109.5t211 39.5q129 0 225 -42t157.5 -119t89 -185.5
t20.5 -242.5h-851zM607 927q-74 0 -136.5 -24t-109.5 -68t-77 -106t-38 -138h705q-4 77 -30 139t-70.5 106t-106 67.5t-137.5 23.5zM360 1509l171 -264l-128 -16l-185 214zM659 1509l171 -264l-127 -16l-186 214z" />
    <glyph glyph-name="uni0206" unicode="&#x206;" horiz-adv-x="1305" 
d="M208 1400h959v-148h-788v-469h703v-147h-703v-488h813v-148h-984v1400zM444 1536q2 57 22 104t54.5 81t81 52.5t100.5 18.5t100 -18.5t80.5 -52.5t55 -81t22.5 -104h-118q-1 32 -12.5 58.5t-30 46t-43.5 30.5t-54 11t-54 -11t-44 -30.5t-30 -46t-13 -58.5h-117z" />
    <glyph glyph-name="uni0207" unicode="&#x207;" horiz-adv-x="1177" 
d="M247 469q9 -78 40.5 -141.5t80.5 -108.5t113.5 -69.5t140.5 -24.5q96 0 178.5 34.5t143.5 99.5l91 -90q-76 -83 -184 -128.5t-241 -45.5q-118 0 -215 39t-167 109t-108.5 167.5t-38.5 215.5q0 117 39 215t109 168t166 109.5t211 39.5q129 0 225 -42t157.5 -119t89 -185.5
t20.5 -242.5h-851zM607 927q-74 0 -136.5 -24t-109.5 -68t-77 -106t-38 -138h705q-4 77 -30 139t-70.5 106t-106 67.5t-137.5 23.5zM338 1225q2 57 22 104t54.5 81t81 52.5t100.5 18.5t100 -18.5t80.5 -52.5t55 -81t22.5 -104h-118q-1 32 -12.5 58.5t-30 46t-43.5 30.5
t-54 11t-54 -11t-44 -30.5t-30 -46t-13 -58.5h-117z" />
    <glyph glyph-name="uni0208" unicode="&#x208;" horiz-adv-x="587" 
d="M208 1400h171v-1400h-171v1400zM56 1808l171 -264l-128 -16l-185 214zM355 1808l171 -264l-127 -16l-186 214z" />
    <glyph glyph-name="uni0209" unicode="&#x209;" horiz-adv-x="539" 
d="M187 1053h165v-1053h-165v1053zM34 1509l171 -264l-128 -16l-185 214zM333 1509l171 -264l-127 -16l-186 214z" />
    <glyph glyph-name="uni020A" unicode="&#x20a;" horiz-adv-x="587" 
d="M208 1400h171v-1400h-171v1400zM34 1535q2 57 22 104t54.5 81t81 52.5t100.5 18.5t100 -18.5t80.5 -52.5t55 -81t22.5 -104h-118q-1 32 -12.5 58.5t-30 46t-43.5 30.5t-54 11t-54 -11t-44 -30.5t-30 -46t-13 -58.5h-117z" />
    <glyph glyph-name="uni020B" unicode="&#x20b;" horiz-adv-x="539" 
d="M187 1053h165v-1053h-165v1053zM35 1225q2 58 20 105.5t49 81.5t73.5 53t91.5 19q50 0 91.5 -19t72.5 -53t49 -81.5t20 -105.5h-119q-1 31 -10 57.5t-24 46t-35.5 31t-44.5 11.5t-44.5 -11.5t-36 -31t-24.5 -46t-10 -57.5h-119z" />
    <glyph glyph-name="uni020C" unicode="&#x20c;" horiz-adv-x="1626" 
d="M813 1412q103 0 197 -25t175.5 -71t148 -110.5t114 -143.5t73.5 -170t26 -190t-26 -190.5t-73.5 -171t-114 -144.5t-148 -111.5t-175.5 -72t-197 -25.5q-102 0 -196.5 25.5t-176 72t-148 111.5t-114 144.5t-73.5 171t-26 190.5t26 190.5t73.5 170t114 143t148 110.5
t176 71t196.5 25zM814 1265q-115 0 -217.5 -44t-179 -120.5t-121 -179t-44.5 -219.5q0 -78 20.5 -151t57.5 -136t88.5 -115t114 -88.5t134 -57t147.5 -20.5q115 0 217 44.5t178 121.5t120 180.5t44 221.5q0 117 -44 219.5t-120 179t-178 120.5t-217 44zM578 1809l171 -264
l-128 -16l-185 214zM877 1809l171 -264l-127 -16l-186 214z" />
    <glyph glyph-name="uni020D" unicode="&#x20d;" horiz-adv-x="1237" 
d="M619 1058q118 0 216.5 -39t170 -109t111 -167.5t39.5 -215.5t-39.5 -215.5t-111 -168t-170 -109.5t-216.5 -39t-217 39t-170.5 109.5t-111 168t-39.5 215.5t39.5 215.5t111 167.5t170.5 109t217 39zM619 921q-81 0 -149.5 -29t-117.5 -81.5t-76.5 -125t-27.5 -159.5
q0 -88 27.5 -161t76.5 -125.5t117.5 -81.5t149.5 -29t149 29t117 81.5t76.5 125.5t27.5 161q0 87 -27.5 159.5t-76.5 125t-117 81.5t-149 29zM384 1509l171 -264l-128 -16l-185 214zM683 1509l171 -264l-127 -16l-186 214z" />
    <glyph glyph-name="uni020E" unicode="&#x20e;" horiz-adv-x="1626" 
d="M813 1412q103 0 197 -25t175.5 -71t148 -110.5t114 -143.5t73.5 -170t26 -190t-26 -190.5t-73.5 -171t-114 -144.5t-148 -111.5t-175.5 -72t-197 -25.5q-102 0 -196.5 25.5t-176 72t-148 111.5t-114 144.5t-73.5 171t-26 190.5t26 190.5t73.5 170t114 143t148 110.5
t176 71t196.5 25zM814 1265q-115 0 -217.5 -44t-179 -120.5t-121 -179t-44.5 -219.5q0 -78 20.5 -151t57.5 -136t88.5 -115t114 -88.5t134 -57t147.5 -20.5q115 0 217 44.5t178 121.5t120 180.5t44 221.5q0 117 -44 219.5t-120 179t-178 120.5t-217 44zM556 1536
q2 57 22 104t54.5 81t81 52.5t100.5 18.5t100 -18.5t80.5 -52.5t55 -81t22.5 -104h-118q-1 32 -12.5 58.5t-30 46t-43.5 30.5t-54 11t-54 -11t-44 -30.5t-30 -46t-13 -58.5h-117z" />
    <glyph glyph-name="uni020F" unicode="&#x20f;" horiz-adv-x="1237" 
d="M619 1058q118 0 216.5 -39t170 -109t111 -167.5t39.5 -215.5t-39.5 -215.5t-111 -168t-170 -109.5t-216.5 -39t-217 39t-170.5 109.5t-111 168t-39.5 215.5t39.5 215.5t111 167.5t170.5 109t217 39zM619 921q-81 0 -149.5 -29t-117.5 -81.5t-76.5 -125t-27.5 -159.5
q0 -88 27.5 -161t76.5 -125.5t117.5 -81.5t149.5 -29t149 29t117 81.5t76.5 125.5t27.5 161q0 87 -27.5 159.5t-76.5 125t-117 81.5t-149 29zM362 1225q2 57 22 104t54.5 81t81 52.5t100.5 18.5t100 -18.5t80.5 -52.5t55 -81t22.5 -104h-118q-1 32 -12.5 58.5t-30 46
t-43.5 30.5t-54 11t-54 -11t-44 -30.5t-30 -46t-13 -58.5h-117z" />
    <glyph glyph-name="uni0210" unicode="&#x210;" horiz-adv-x="1446" 
d="M745 1400q132 0 235 -31.5t174 -91.5t108 -147t37 -199q0 -174 -81 -288.5t-233 -163.5l330 -479h-195l-289 448q-20 -2 -41.5 -3t-44.5 -1h-366v-444h-171v1400h537zM745 592q187 0 289.5 84.5t102.5 250.5q0 161 -102.5 243t-289.5 82h-366v-660h366zM452 1809
l171 -264l-128 -16l-185 214zM751 1809l171 -264l-127 -16l-186 214z" />
    <glyph glyph-name="uni0211" unicode="&#x211;" horiz-adv-x="751" 
d="M187 1053h166v-233q53 115 148.5 175.5t229.5 62.5v-152q-83 2 -150 -22.5t-115.5 -70t-77 -110t-35.5 -144.5v-559h-166v1053zM227 1509l171 -264l-128 -16l-185 214zM526 1509l171 -264l-127 -16l-186 214z" />
    <glyph glyph-name="uni0212" unicode="&#x212;" horiz-adv-x="1446" 
d="M745 1400q132 0 235 -31.5t174 -91.5t108 -147t37 -199q0 -174 -81 -288.5t-233 -163.5l330 -479h-195l-289 448q-20 -2 -41.5 -3t-44.5 -1h-366v-444h-171v1400h537zM745 592q187 0 289.5 84.5t102.5 250.5q0 161 -102.5 243t-289.5 82h-366v-660h366zM430 1536
q2 57 22 104t54.5 81t81 52.5t100.5 18.5t100 -18.5t80.5 -52.5t55 -81t22.5 -104h-118q-1 32 -12.5 58.5t-30 46t-43.5 30.5t-54 11t-54 -11t-44 -30.5t-30 -46t-13 -58.5h-117z" />
    <glyph glyph-name="uni0213" unicode="&#x213;" horiz-adv-x="751" 
d="M187 1053h166v-233q53 115 148.5 175.5t229.5 62.5v-152q-83 2 -150 -22.5t-115.5 -70t-77 -110t-35.5 -144.5v-559h-166v1053zM205 1225q2 57 22 104t54.5 81t81 52.5t100.5 18.5t100 -18.5t80.5 -52.5t55 -81t22.5 -104h-118q-1 32 -12.5 58.5t-30 46t-43.5 30.5
t-54 11t-54 -11t-44 -30.5t-30 -46t-13 -58.5h-117z" />
    <glyph glyph-name="uni0214" unicode="&#x214;" horiz-adv-x="1529" 
d="M348 570q0 -103 29 -184t83 -137t131.5 -85.5t174.5 -29.5t174 29.5t130.5 85t82 137t28.5 184.5v830h170v-830q0 -137 -40 -245t-115.5 -183t-184 -115t-245.5 -40q-138 0 -247.5 40t-185 115t-116 183t-40.5 245v830h171v-830zM530 1809l171 -264l-128 -16l-185 214z
M829 1809l171 -264l-127 -16l-186 214z" />
    <glyph glyph-name="uni0215" unicode="&#x215;" 
d="M319 444q0 -70 19.5 -126t56.5 -94.5t89.5 -59t119.5 -20.5q80 2 142.5 31.5t106 81t66.5 123t23 156.5v517h167v-1053h-167v236q-54 -122 -154.5 -180.5t-242.5 -60.5q-92 0 -165 28t-123.5 81t-77.5 128.5t-27 171.5v649h167v-609zM413 1509l171 -264l-128 -16
l-185 214zM712 1509l171 -264l-127 -16l-186 214z" />
    <glyph glyph-name="uni0216" unicode="&#x216;" horiz-adv-x="1529" 
d="M348 570q0 -103 29 -184t83 -137t131.5 -85.5t174.5 -29.5t174 29.5t130.5 85t82 137t28.5 184.5v830h170v-830q0 -137 -40 -245t-115.5 -183t-184 -115t-245.5 -40q-138 0 -247.5 40t-185 115t-116 183t-40.5 245v830h171v-830zM508 1536q2 57 22 104t54.5 81t81 52.5
t100.5 18.5t100 -18.5t80.5 -52.5t55 -81t22.5 -104h-118q-1 32 -12.5 58.5t-30 46t-43.5 30.5t-54 11t-54 -11t-44 -30.5t-30 -46t-13 -58.5h-117z" />
    <glyph glyph-name="uni0217" unicode="&#x217;" 
d="M319 444q0 -70 19.5 -126t56.5 -94.5t89.5 -59t119.5 -20.5q80 2 142.5 31.5t106 81t66.5 123t23 156.5v517h167v-1053h-167v236q-54 -122 -154.5 -180.5t-242.5 -60.5q-92 0 -165 28t-123.5 81t-77.5 128.5t-27 171.5v649h167v-609zM391 1225q2 57 22 104t54.5 81
t81 52.5t100.5 18.5t100 -18.5t80.5 -52.5t55 -81t22.5 -104h-118q-1 32 -12.5 58.5t-30 46t-43.5 30.5t-54 11t-54 -11t-44 -30.5t-30 -46t-13 -58.5h-117z" />
    <glyph glyph-name="uni0218" unicode="&#x218;" horiz-adv-x="1225" 
d="M1010 1142q-85 54 -187.5 85.5t-203.5 31.5q-46 0 -97 -9t-93.5 -31.5t-70 -60.5t-27.5 -95q0 -69 33.5 -114.5t88.5 -77t125.5 -53.5t143.5 -45t143.5 -52t125.5 -74t88.5 -110.5t33.5 -162.5q0 -104 -46 -177t-119.5 -119.5t-164.5 -67.5t-180 -21q-74 0 -148 14.5
t-143.5 42t-132.5 67.5t-117 91l77 139q45 -44 99.5 -81t114.5 -63.5t124 -41t128 -14.5q53 0 110 11t103.5 36.5t76.5 68.5t30 107q0 71 -33.5 117.5t-88.5 78.5t-125.5 54t-144 45t-144 51t-125.5 72t-88.5 108.5t-33.5 159.5q0 66 20.5 119t56 93t83.5 69t102.5 47
t112.5 26.5t114 8.5q58 0 117.5 -8.5t117.5 -25t113 -40.5t103 -56zM543 -121h156l-106 -314h-122z" />
    <glyph glyph-name="uni0219" unicode="&#x219;" horiz-adv-x="911" 
d="M751 845q-64 38 -140 61t-149 23q-43 0 -79.5 -8.5t-63.5 -25.5t-42.5 -44t-15.5 -65q0 -45 25 -74t66.5 -50t94 -37t107 -33.5t107 -39.5t93.5 -56.5t66 -83.5t25 -120q0 -77 -32 -133t-86 -92.5t-124 -54t-146 -17.5q-57 0 -114 9.5t-110 28t-100 46t-85 62.5l63 114
q34 -31 76 -55.5t88 -41.5t94 -26t94 -9q45 0 84.5 9t69 27.5t47 47t18.5 68.5q1 48 -23.5 80t-65.5 54t-93 38.5t-106.5 34t-107 39t-93.5 54.5t-65.5 81t-24.5 118q0 75 30.5 129t81.5 88.5t118 51t140 16.5q95 0 184 -25t156 -70zM377 -121h156l-106 -314h-122z" />
    <glyph glyph-name="uni021A" unicode="&#x21a;" horiz-adv-x="1123" 
d="M21 1400h1081v-148h-456v-1252h-170v1252h-455v148zM484 -121h156l-106 -314h-122z" />
    <glyph glyph-name="uni021B" unicode="&#x21b;" horiz-adv-x="784" 
d="M391 1053h330v-123h-330v-611q0 -98 35 -139.5t101 -40.5q79 0 166 54l47 -122q-57 -38 -118 -57.5t-125 -20.5q-58 0 -107.5 17.5t-86 54t-57.5 93t-21 134.5v638h-150v123h150v243h166v-243zM422 -121h156l-106 -314h-122z" />
    <glyph glyph-name="uni022A" unicode="&#x22a;" horiz-adv-x="1626" 
d="M813 1412q103 0 197 -25t175.5 -71t148 -110.5t114 -143.5t73.5 -170t26 -190t-26 -190.5t-73.5 -171t-114 -144.5t-148 -111.5t-175.5 -72t-197 -25.5q-102 0 -196.5 25.5t-176 72t-148 111.5t-114 144.5t-73.5 171t-26 190.5t26 190.5t73.5 170t114 143t148 110.5
t176 71t196.5 25zM814 1265q-115 0 -217.5 -44t-179 -120.5t-121 -179t-44.5 -219.5q0 -78 20.5 -151t57.5 -136t88.5 -115t114 -88.5t134 -57t147.5 -20.5q115 0 217 44.5t178 121.5t120 180.5t44 221.5q0 117 -44 219.5t-120 179t-178 120.5t-217 44zM657 1720
q40 0 67 -26.5t27 -68.5q0 -40 -27 -68t-67 -28q-42 0 -69 28t-27 68q0 42 27 68.5t69 26.5zM971 1720q20 0 37 -7t30 -20t20.5 -30t7.5 -38q0 -20 -7.5 -37.5t-20.5 -30.5t-30 -20.5t-37 -7.5q-41 0 -69 28t-28 68q0 42 28 68.5t69 26.5zM570 1903h485v-106h-485v106z" />
    <glyph glyph-name="uni022B" unicode="&#x22b;" horiz-adv-x="1237" 
d="M619 1058q118 0 216.5 -39t170 -109t111 -167.5t39.5 -215.5t-39.5 -215.5t-111 -168t-170 -109.5t-216.5 -39t-217 39t-170.5 109.5t-111 168t-39.5 215.5t39.5 215.5t111 167.5t170.5 109t217 39zM619 921q-81 0 -149.5 -29t-117.5 -81.5t-76.5 -125t-27.5 -159.5
q0 -88 27.5 -161t76.5 -125.5t117.5 -81.5t149.5 -29t149 29t117 81.5t76.5 125.5t27.5 161q0 87 -27.5 159.5t-76.5 125t-117 81.5t-149 29zM464 1407q40 0 67 -26.5t27 -68.5q0 -40 -27 -68t-67 -28q-42 0 -69 28t-27 68q0 42 27 68.5t69 26.5zM778 1407q20 0 37 -7
t30 -20t20.5 -30t7.5 -38q0 -20 -7.5 -37.5t-20.5 -30.5t-30 -20.5t-37 -7.5q-41 0 -69 28t-28 68q0 42 28 68.5t69 26.5zM377 1590h485v-106h-485v106z" />
    <glyph glyph-name="uni022C" unicode="&#x22c;" horiz-adv-x="1626" 
d="M813 1412q103 0 197 -25t175.5 -71t148 -110.5t114 -143.5t73.5 -170t26 -190t-26 -190.5t-73.5 -171t-114 -144.5t-148 -111.5t-175.5 -72t-197 -25.5q-102 0 -196.5 25.5t-176 72t-148 111.5t-114 144.5t-73.5 171t-26 190.5t26 190.5t73.5 170t114 143t148 110.5
t176 71t196.5 25zM814 1265q-115 0 -217.5 -44t-179 -120.5t-121 -179t-44.5 -219.5q0 -78 20.5 -151t57.5 -136t88.5 -115t114 -88.5t134 -57t147.5 -20.5q115 0 217 44.5t178 121.5t120 180.5t44 221.5q0 117 -44 219.5t-120 179t-178 120.5t-217 44zM1113 1730
q0 -42 -9 -78t-27.5 -63t-48.5 -42t-72 -15q-43 0 -80 15.5t-69.5 34t-62 34t-57.5 15.5q-41 0 -57.5 -25.5t-16.5 -67.5h-99q0 42 9 78.5t27.5 63.5t48.5 42.5t72 15.5q44 0 81 -15.5t70 -34t62 -34t57 -15.5q41 0 57.5 25t16.5 66h98zM573 1917h484v-107h-484v107z" />
    <glyph glyph-name="uni022D" unicode="&#x22d;" horiz-adv-x="1237" 
d="M619 1058q118 0 216.5 -39t170 -109t111 -167.5t39.5 -215.5t-39.5 -215.5t-111 -168t-170 -109.5t-216.5 -39t-217 39t-170.5 109.5t-111 168t-39.5 215.5t39.5 215.5t111 167.5t170.5 109t217 39zM619 921q-81 0 -149.5 -29t-117.5 -81.5t-76.5 -125t-27.5 -159.5
q0 -88 27.5 -161t76.5 -125.5t117.5 -81.5t149.5 -29t149 29t117 81.5t76.5 125.5t27.5 161q0 87 -27.5 159.5t-76.5 125t-117 81.5t-149 29zM919 1411q0 -42 -9 -78t-27.5 -63t-48.5 -42t-72 -15q-43 0 -80 15.5t-69.5 34t-62 34t-57.5 15.5q-41 0 -57.5 -25.5t-16.5 -67.5
h-99q0 42 9 78.5t27.5 63.5t48.5 42.5t72 15.5q44 0 81 -15.5t70 -34t62 -34t57 -15.5q41 0 57.5 25t16.5 66h98zM379 1598h484v-107h-484v107z" />
    <glyph glyph-name="uni0230" unicode="&#x230;" horiz-adv-x="1626" 
d="M813 1412q103 0 197 -25t175.5 -71t148 -110.5t114 -143.5t73.5 -170t26 -190t-26 -190.5t-73.5 -171t-114 -144.5t-148 -111.5t-175.5 -72t-197 -25.5q-102 0 -196.5 25.5t-176 72t-148 111.5t-114 144.5t-73.5 171t-26 190.5t26 190.5t73.5 170t114 143t148 110.5
t176 71t196.5 25zM814 1265q-115 0 -217.5 -44t-179 -120.5t-121 -179t-44.5 -219.5q0 -78 20.5 -151t57.5 -136t88.5 -115t114 -88.5t134 -57t147.5 -20.5q115 0 217 44.5t178 121.5t120 180.5t44 221.5q0 117 -44 219.5t-120 179t-178 120.5t-217 44zM812 1736
q44 0 73 -29t29 -72q0 -21 -8 -39t-21.5 -31.5t-32 -21.5t-40.5 -8q-21 0 -39 8t-31.5 21.5t-21.5 31.5t-8 39t8 39.5t21.5 32t31.5 21.5t39 8zM571 1909h485v-106h-485v106z" />
    <glyph glyph-name="uni0231" unicode="&#x231;" horiz-adv-x="1237" 
d="M619 1058q118 0 216.5 -39t170 -109t111 -167.5t39.5 -215.5t-39.5 -215.5t-111 -168t-170 -109.5t-216.5 -39t-217 39t-170.5 109.5t-111 168t-39.5 215.5t39.5 215.5t111 167.5t170.5 109t217 39zM619 921q-81 0 -149.5 -29t-117.5 -81.5t-76.5 -125t-27.5 -159.5
q0 -88 27.5 -161t76.5 -125.5t117.5 -81.5t149.5 -29t149 29t117 81.5t76.5 125.5t27.5 161q0 87 -27.5 159.5t-76.5 125t-117 81.5t-149 29zM616 1417q44 0 73 -29t29 -72q0 -21 -8 -39t-21.5 -31.5t-32 -21.5t-40.5 -8q-21 0 -39 8t-31.5 21.5t-21.5 31.5t-8 39t8 39.5
t21.5 32t31.5 21.5t39 8zM375 1590h485v-106h-485v106z" />
    <glyph glyph-name="uni0232" unicode="&#x232;" horiz-adv-x="1254" 
d="M546 488l-538 912h175l447 -735l440 735h176l-530 -906v-494h-170v488zM316 1653h619v-107h-619v107z" />
    <glyph glyph-name="uni0233" unicode="&#x233;" horiz-adv-x="1012" 
d="M535 -150q-50 -121 -131.5 -183t-189.5 -62q-66 0 -121 19t-104 57l71 125q36 -26 71.5 -38t74.5 -12q61 0 109 38.5t80 113.5l41 100l-436 1045h174l346 -876l329 876h170zM229 1406h565v-107h-565v107z" />
    <glyph glyph-name="uni0237" unicode="&#x237;" horiz-adv-x="513" 
d="M-77 -237q24 -9 50.5 -15t52.5 -6q77 0 116.5 57t39.5 168v1086h167v-1107q0 -83 -20 -146.5t-57.5 -106.5t-92.5 -65t-125 -21q-91 3 -170 35z" />
    <glyph glyph-name="uni0259" unicode="&#x259;" horiz-adv-x="1177" 
d="M571 -5q-130 0 -225.5 42t-157 119t-89 186t-20.5 242h851q-9 78 -40.5 141.5t-81 108.5t-114 69t-139.5 24q-97 0 -179.5 -34t-142.5 -100l-91 91q76 83 184 128.5t241 45.5q118 0 215 -39t166.5 -109t108 -167.5t38.5 -215.5t-39 -215.5t-108.5 -168t-165.5 -109.5
t-211 -39zM569 125q74 0 137 24t110 68t77 106t38 138h-706q5 -76 31 -138.5t70.5 -106t106 -67.5t136.5 -24z" />
    <glyph glyph-name="uni02BB" unicode="&#x2bb;" horiz-adv-x="359" 
d="M259 1020l-159 34l45 346h114v-380z" />
    <glyph glyph-name="uni02BC" unicode="&#x2bc;" horiz-adv-x="262" 
d="M70 1400h131l-25 -520h-109z" />
    <glyph glyph-name="uni02BE" unicode="&#x2be;" horiz-adv-x="503" 
d="M132 1210q31 0 59 11.5t49 32t33 47t12 56.5t-12 56.5t-33 47t-49 32t-59 11.5v80q48 0 90 -18.5t74 -49.5t50.5 -72t18.5 -87t-18.5 -87.5t-50.5 -72.5t-74 -49t-90 -18v80z" />
    <glyph glyph-name="uni02BF" unicode="&#x2bf;" horiz-adv-x="501" 
d="M369 1130q-48 0 -90 18t-73.5 49t-50 72.5t-18.5 87.5t18.5 87t50 72t73.5 49.5t90 18.5v-80q-31 0 -58.5 -11.5t-48.5 -32t-33 -47t-12 -56.5t12 -56.5t33 -47t48.5 -32t58.5 -11.5v-80z" />
    <glyph glyph-name="circumflex" unicode="&#x2c6;" horiz-adv-x="645" 
d="M235 1493h176l208 -257h-167l-129 142l-130 -142h-166z" />
    <glyph glyph-name="caron" unicode="&#x2c7;" horiz-adv-x="645" 
d="M371 1236h-176l-208 257h166l130 -142l129 142h167z" />
    <glyph glyph-name="uni02C8" unicode="&#x2c8;" horiz-adv-x="191" 
d="M33 1047v353h124v-353h-124z" />
    <glyph glyph-name="uni02C9" unicode="&#x2c9;" horiz-adv-x="700" 
d="M69 1406h565v-107h-565v107z" />
    <glyph glyph-name="uni02CA" unicode="&#x2ca;" horiz-adv-x="700" 
d="M396 1499l170 -72l-249 -198l-144 17z" />
    <glyph glyph-name="uni02CB" unicode="&#x2cb;" horiz-adv-x="700" 
d="M270 1499l223 -253l-144 -17l-249 198z" />
    <glyph glyph-name="uni02CC" unicode="&#x2cc;" horiz-adv-x="189" 
d="M33 -415v354h123v-354h-123z" />
    <glyph glyph-name="breve" unicode="&#x2d8;" horiz-adv-x="633" 
d="M176 1481q2 -31 13 -58t30 -46.5t44 -30.5t54 -11t54 11t43.5 30.5t30 46.5t12.5 58h118q-2 -57 -22.5 -104t-55 -81t-80.5 -52.5t-100 -18.5t-100.5 18.5t-81 52.5t-54.5 81t-22 104h117z" />
    <glyph glyph-name="dotaccent" unicode="&#x2d9;" horiz-adv-x="528" 
d="M264 1461q45 0 75.5 -30t30.5 -76q0 -22 -8 -42t-22.5 -34t-33.5 -22.5t-42 -8.5q-22 0 -42 8.5t-34 22.5t-22.5 34t-8.5 42q0 23 8.5 42.5t22.5 33.5t34 22t42 8z" />
    <glyph glyph-name="ring" unicode="&#x2da;" horiz-adv-x="865" 
d="M349 1567q43 0 80.5 -16.5t66 -44.5t45 -65t16.5 -78t-16.5 -78t-45 -65t-66 -44.5t-80.5 -16.5q-42 0 -80 16.5t-66 44.5t-44.5 65t-16.5 78t16.5 78t44.5 65t66 44.5t80 16.5zM349 1476q-24 0 -45 -9t-37 -24.5t-25.5 -36t-9.5 -43.5t9.5 -43.5t25.5 -36t37 -24.5
t45 -9t45.5 9t37.5 24.5t25.5 36t9.5 43.5t-9.5 43.5t-25.5 36t-37.5 24.5t-45.5 9z" />
    <glyph glyph-name="ogonek" unicode="&#x2db;" horiz-adv-x="524" 
d="M402 0q-103 -74 -150 -128t-47 -107q0 -40 20 -57t49 -17q19 0 41 6t42 18l43 -105q-42 -22 -82 -31.5t-78 -9.5q-42 0 -76.5 11t-59.5 32t-39 52.5t-14 73.5q0 80 57.5 160.5t191.5 160.5z" />
    <glyph glyph-name="tilde" unicode="&#x2dc;" horiz-adv-x="723" 
d="M747 1452q0 -46 -8.5 -87t-28 -72t-49.5 -49.5t-74 -18.5q-42 0 -78 17t-67.5 38t-60 38t-54.5 17q-39 0 -54.5 -29t-15.5 -73h-116q0 46 8.5 87t27.5 72t49.5 49.5t73.5 18.5q42 0 78 -17t68 -38t60 -38t55 -17q39 0 54 28.5t15 73.5h117z" />
    <glyph glyph-name="hungarumlaut" unicode="&#x2dd;" horiz-adv-x="919" 
d="M329 1509l142 -66l-185 -214l-127 16zM629 1509l142 -66l-186 -214l-126 16z" />
    <glyph glyph-name="gravecomb" unicode="&#x300;" horiz-adv-x="1086" 
d="M510 1499l223 -253l-144 -17l-249 198z" />
    <glyph glyph-name="acutecomb" unicode="&#x301;" horiz-adv-x="966" 
d="M516 1499l170 -72l-249 -198l-144 17z" />
    <glyph glyph-name="uni0302" unicode="&#x302;" horiz-adv-x="645" 
d="M235 1493h176l208 -257h-167l-129 142l-130 -142h-166z" />
    <glyph glyph-name="tildecomb" unicode="&#x303;" horiz-adv-x="723" 
d="M665 1452q0 -46 -8.5 -87t-28 -72t-49.5 -49.5t-74 -18.5q-42 0 -78 17t-67.5 38t-60 38t-54.5 17q-39 0 -54.5 -29t-15.5 -73h-116q0 46 8.5 87t27.5 72t49.5 49.5t73.5 18.5q42 0 78 -17t68 -38t60 -38t55 -17q39 0 54 28.5t15 73.5h117z" />
    <glyph glyph-name="uni0304" unicode="&#x304;" horiz-adv-x="565" 
d="M0 1406h565v-107h-565v107z" />
    <glyph glyph-name="uni0306" unicode="&#x306;" horiz-adv-x="633" 
d="M176 1481q2 -31 13 -58t30 -46.5t44 -30.5t54 -11t54 11t43.5 30.5t30 46.5t12.5 58h118q-2 -57 -22.5 -104t-55 -81t-80.5 -52.5t-100 -18.5t-100.5 18.5t-81 52.5t-54.5 81t-22 104h117z" />
    <glyph glyph-name="uni0307" unicode="&#x307;" horiz-adv-x="413" 
d="M207 1461q45 0 75.5 -30t30.5 -76q0 -22 -8 -42t-22.5 -34t-33.5 -22.5t-42 -8.5q-22 0 -42 8.5t-34 22.5t-22.5 34t-8.5 42q0 23 8.5 42.5t22.5 33.5t34 22t42 8z" />
    <glyph glyph-name="uni0308" unicode="&#x308;" horiz-adv-x="732" 
d="M199 1451q21 0 38.5 -7.5t31 -20.5t21 -31t7.5 -39q0 -41 -28 -69.5t-70 -28.5q-21 0 -39 7.5t-31 21t-20.5 31.5t-7.5 38q0 42 28 70t70 28zM537 1451q20 0 38 -7.5t31 -20.5t20.5 -31t7.5 -39q0 -41 -28 -69.5t-69 -28.5q-21 0 -39 7.5t-31.5 21t-21 31.5t-7.5 38
q0 42 28.5 70t70.5 28z" />
    <glyph glyph-name="hookabovecomb" unicode="&#x309;" horiz-adv-x="477" 
d="M234 1546q39 0 72 -10.5t58 -30t39 -48.5t14 -66q0 -28 -10.5 -58.5t-29 -60.5t-43.5 -58.5t-55 -53.5l-96 41q45 39 68 84t23 80q0 29 -20.5 49t-52.5 20q-41 0 -82 -28l-56 87q38 26 82 39.5t89 13.5z" />
    <glyph glyph-name="uni030A" unicode="&#x30a;" horiz-adv-x="699" 
d="M349 1567q43 0 80.5 -16.5t66 -44.5t45 -65t16.5 -78t-16.5 -78t-45 -65t-66 -44.5t-80.5 -16.5q-42 0 -80 16.5t-66 44.5t-44.5 65t-16.5 78t16.5 78t44.5 65t66 44.5t80 16.5zM349 1476q-24 0 -45 -9t-37 -24.5t-25.5 -36t-9.5 -43.5t9.5 -43.5t25.5 -36t37 -24.5
t45 -9t45.5 9t37.5 24.5t25.5 36t9.5 43.5t-9.5 43.5t-25.5 36t-37.5 24.5t-45.5 9z" />
    <glyph glyph-name="uni030B" unicode="&#x30b;" horiz-adv-x="821" 
d="M283 1509l142 -66l-185 -214l-127 16zM583 1509l142 -66l-186 -214l-126 16z" />
    <glyph glyph-name="uni030C" unicode="&#x30c;" horiz-adv-x="685" 
d="M431 1236h-176l-208 257h166l130 -142l129 142h167z" />
    <glyph glyph-name="uni030F" unicode="&#x30f;" horiz-adv-x="821" 
d="M242 1509l171 -264l-128 -16l-185 214zM541 1509l171 -264l-127 -16l-186 214z" />
    <glyph glyph-name="uni0311" unicode="&#x311;" horiz-adv-x="633" 
d="M59 1225q2 57 22 104t54.5 81t81 52.5t100.5 18.5t100 -18.5t80.5 -52.5t55 -81t22.5 -104h-118q-1 32 -12.5 58.5t-30 46t-43.5 30.5t-54 11t-54 -11t-44 -30.5t-30 -46t-13 -58.5h-117z" />
    <glyph glyph-name="uni0312" unicode="&#x312;" horiz-adv-x="421" 
d="M269 1227h-155l106 314h121z" />
    <glyph glyph-name="uni031B" unicode="&#x31b;" horiz-adv-x="309" 
d="M212 1312q34 -77 34.5 -143.5t-30 -115.5t-90.5 -77t-147 -28v105q52 0 83 17t43 46t6 67.5t-28 81.5z" />
    <glyph glyph-name="dotbelowcomb" unicode="&#x323;" horiz-adv-x="413" 
d="M207 -150q45 0 75.5 -30t30.5 -76q0 -22 -8 -42t-22.5 -34t-33.5 -22.5t-42 -8.5q-22 0 -42 8.5t-34 22.5t-22.5 34t-8.5 42q0 23 8.5 42.5t22.5 33.5t34 22t42 8z" />
    <glyph glyph-name="uni0324" unicode="&#x324;" horiz-adv-x="732" 
d="M223 -146q21 0 38.5 -7.5t31 -20.5t21 -31t7.5 -39q0 -41 -28 -69.5t-70 -28.5q-21 0 -39 7.5t-31 21t-20.5 31.5t-7.5 38q0 42 28 70t70 28zM561 -146q20 0 38 -7.5t31 -20.5t20.5 -31t7.5 -39q0 -41 -28 -69.5t-69 -28.5q-21 0 -39 7.5t-31.5 21t-21 31.5t-7.5 38
q0 42 28.5 70t70.5 28z" />
    <glyph glyph-name="uni0325" unicode="&#x325;" horiz-adv-x="0" 
d="M-1 -56q43 0 80.5 -16.5t66 -44.5t45 -65t16.5 -78t-16.5 -78t-45 -65t-66 -44.5t-80.5 -16.5q-42 0 -80 16.5t-66 44.5t-44.5 65t-16.5 78t16.5 78t44.5 65t66 44.5t80 16.5zM-1 -147q-24 0 -45 -9t-37 -24.5t-25.5 -36t-9.5 -43.5t9.5 -43.5t25.5 -36t37 -24.5t45 -9
t45.5 9t37.5 24.5t25.5 36t9.5 43.5t-9.5 43.5t-25.5 36t-37.5 24.5t-45.5 9z" />
    <glyph glyph-name="uni0326" unicode="&#x326;" horiz-adv-x="390" 
d="M137 -121h156l-106 -314h-122z" />
    <glyph glyph-name="uni0327" unicode="&#x327;" horiz-adv-x="592" 
d="M274 43l113 -14l-35 -102q42 -5 73 -19.5t50.5 -35.5t29 -46.5t9.5 -52.5q0 -39 -15.5 -71t-44 -54.5t-68 -35t-86.5 -12.5t-94 12t-84 31l37 100q26 -14 59 -22t63 -8q51 0 75.5 23.5t24.5 50.5q0 29 -26 49.5t-78 20.5h-62z" />
    <glyph glyph-name="uni0328" unicode="&#x328;" horiz-adv-x="514" 
d="M451 0q-103 -74 -150 -128t-47 -107q0 -40 20 -57t49 -17q19 0 41 6t43 18l42 -105q-42 -22 -82 -31.5t-78 -9.5q-42 0 -76.5 11t-59.5 32t-39 52.5t-14 73.5q0 80 57.5 160.5t191.5 160.5z" />
    <glyph glyph-name="uni032D" unicode="&#x32d;" horiz-adv-x="0" 
d="M-88 -120h176l208 -257h-167l-129 142l-130 -142h-166z" />
    <glyph glyph-name="uni032E" unicode="&#x32e;" horiz-adv-x="633" 
d="M176 -100q2 -31 13 -58t30 -46.5t44 -30.5t54 -11t54 11t43.5 30.5t30 46.5t12.5 58h118q-2 -57 -22.5 -104t-55 -81t-80.5 -52.5t-100 -18.5t-100.5 18.5t-81 52.5t-54.5 81t-22 104h117z" />
    <glyph glyph-name="uni0330" unicode="&#x330;" horiz-adv-x="0" 
d="M243 -128q0 -46 -8.5 -87t-28 -72t-49.5 -49.5t-74 -18.5q-42 0 -78 17t-67.5 38t-60 38t-54.5 17q-39 0 -54.5 -29t-15.5 -73h-116q0 46 8.5 87t27.5 72t49.5 49.5t73.5 18.5q42 0 78 -17t68 -38t60 -38t55 -17q39 0 54 28.5t15 73.5h117z" />
    <glyph glyph-name="uni0331" unicode="&#x331;" horiz-adv-x="685" 
d="M60 -168h565v-107h-565v107z" />
    <glyph glyph-name="uni0335" unicode="&#x335;" horiz-adv-x="673" 
d="M13 933h647v-102h-647v102z" />
    <glyph glyph-name="uni0336" unicode="&#x336;" horiz-adv-x="1200" 
d="M200 933h792v-102h-792v102z" />
    <glyph glyph-name="uni0337" unicode="&#x337;" horiz-adv-x="637" 
d="M572 1117l-313 -942h-145l313 942h145z" />
    <glyph glyph-name="uni0338" unicode="&#x338;" horiz-adv-x="637" 
d="M56 0l494 1484h145l-494 -1484h-145z" />
    <glyph glyph-name="tonos" unicode="&#x384;" horiz-adv-x="298" 
d="M97 1466h183l-135 -252h-130z" />
    <glyph glyph-name="dieresistonos" unicode="&#x385;" horiz-adv-x="709" 
d="M133 1232q-19 0 -36 7t-29.5 19.5t-19.5 29.5t-7 36q0 39 26.5 65.5t65.5 26.5q40 0 66 -26t26 -66q0 -39 -26.5 -65.5t-65.5 -26.5zM315 1456h183l-135 -252h-130zM576 1232q-19 0 -36 7t-29.5 19.5t-19.5 29.5t-7 36q0 39 26.5 65.5t65.5 26.5q40 0 66 -26t26 -66
q0 -39 -26.5 -65.5t-65.5 -26.5z" />
    <glyph glyph-name="Alphatonos" unicode="&#x386;" horiz-adv-x="1445" 
d="M634 1400h176l624 -1400h-183l-156 358h-752l-155 -358h-180zM1031 505l-314 721l-311 -721h625zM172 1466h183l-135 -252h-130z" />
    <glyph glyph-name="Epsilontonos" unicode="&#x388;" horiz-adv-x="1552" 
d="M442 1400h959v-148h-788v-469h703v-147h-703v-488h813v-148h-984v1400zM128 1466h183l-135 -252h-130z" />
    <glyph glyph-name="Etatonos" unicode="&#x389;" horiz-adv-x="1813" 
d="M404 1400h171v-634h830v634h171v-1400h-171v620h-830v-620h-171v1400zM102 1466h183l-135 -252h-130z" />
    <glyph glyph-name="Iotatonos" unicode="&#x38a;" horiz-adv-x="809" 
d="M102 1466h183l-135 -252h-130zM417 1400h171v-1400h-171v1400z" />
    <glyph glyph-name="Omicrontonos" unicode="&#x38c;" horiz-adv-x="1679" 
d="M826 1411q103 0 197 -25t175.5 -71t148 -110.5t114 -143.5t73.5 -170t26 -190t-26 -190.5t-73.5 -171t-114 -144.5t-148 -111.5t-175.5 -72t-197 -25.5q-102 0 -196.5 25.5t-176 72t-148 111.5t-114 144.5t-73.5 171t-26 190.5t26 190.5t73.5 170t114 143t148 110.5
t176 71t196.5 25zM827 1264q-115 0 -217.5 -44t-179 -120.5t-121 -179t-44.5 -219.5q0 -78 20.5 -151t57.5 -136t88.5 -115t114 -88.5t134 -57t147.5 -20.5q115 0 217 44.5t178 121.5t120 180.5t44 221.5q0 117 -44 219.5t-120 179t-178 120.5t-217 44zM108 1466h183
l-135 -252h-130z" />
    <glyph glyph-name="Upsilontonos" unicode="&#x38e;" horiz-adv-x="1534" 
d="M826 488l-538 912h175l447 -735l440 735h176l-530 -906v-494h-170v488zM108 1466h183l-135 -252h-130z" />
    <glyph glyph-name="Omegatonos" unicode="&#x38f;" horiz-adv-x="1801" 
d="M1128 147q81 45 143.5 108t105 137t64.5 155t22 162q0 113 -39.5 213.5t-113 176t-178 120t-235.5 44.5q-130 0 -234.5 -44.5t-178 -120t-113 -176t-39.5 -212.5q0 -81 22 -162.5t64.5 -155t105.5 -137t144 -108.5v-147h-647v139h457q-66 48 -121 115t-94.5 145
t-61.5 163t-22 168q0 146 54 270t150 214.5t227.5 141.5t286.5 51t287 -51t228 -141.5t150.5 -214.5t54.5 -270q0 -83 -22 -168t-62 -163t-95 -145t-121 -115h456v-139h-645v147zM118 1466h183l-135 -252h-130z" />
    <glyph glyph-name="iotadieresistonos" unicode="&#x390;" horiz-adv-x="611" 
d="M361 269q0 -66 26.5 -98t74.5 -32q50 0 110 43l30 -125q-45 -32 -91 -48t-90 -16q-49 0 -90 16.5t-71 49.5t-47 81.5t-17 111.5v802h165v-785zM84 1232q-19 0 -36 7t-29.5 19.5t-19.5 29.5t-7 36q0 39 26.5 65.5t65.5 26.5q40 0 66 -26t26 -66q0 -39 -26.5 -65.5
t-65.5 -26.5zM266 1456h183l-135 -252h-130zM527 1232q-19 0 -36 7t-29.5 19.5t-19.5 29.5t-7 36q0 39 26.5 65.5t65.5 26.5q40 0 66 -26t26 -66q0 -39 -26.5 -65.5t-65.5 -26.5z" />
    <glyph glyph-name="Alpha" unicode="&#x391;" horiz-adv-x="1445" 
d="M2 0l638 1400h164l639 -1400h-175l-162 365h-769l-162 -365h-173zM1046 500l-325 729l-324 -729h649z" />
    <glyph glyph-name="Beta" unicode="&#x392;" horiz-adv-x="1429" 
d="M801 1400q107 0 191.5 -23.5t143 -68.5t90 -110t31.5 -147q0 -124 -67.5 -207t-188.5 -109q75 -11 133.5 -41t99 -75.5t62 -105.5t21.5 -132q0 -90 -34.5 -161t-100 -119.5t-159 -74.5t-212.5 -26h-603v1400h593zM793 148q83 0 148 16.5t110 48.5t68.5 79t23.5 108
q0 58 -23.5 104t-68.5 77.5t-110 48t-148 16.5h-414v-498h414zM793 794q137 0 213 60t76 172q0 109 -76 168t-213 58h-414v-458h414z" />
    <glyph glyph-name="Gamma" unicode="&#x393;" horiz-adv-x="1149" 
d="M230 0v1400h900l-1 -145h-736l1 -1255h-164z" />
    <glyph glyph-name="uni0394" unicode="&#x394;" horiz-adv-x="1442" 
d="M633 1400h176l625 -1400h-1426zM1194 129l-477 1097l-473 -1097h950z" />
    <glyph glyph-name="Epsilon" unicode="&#x395;" horiz-adv-x="1305" 
d="M208 1400h959v-148h-788v-469h703v-147h-703v-488h813v-148h-984v1400z" />
    <glyph glyph-name="Zeta" unicode="&#x396;" horiz-adv-x="1322" 
d="M111 1400h1117v-123l-917 -1129h926v-148h-1153v123l919 1129h-892v148z" />
    <glyph glyph-name="Eta" unicode="&#x397;" horiz-adv-x="1588" 
d="M208 1400h171v-634h830v634h171v-1400h-171v620h-830v-620h-171v1400z" />
    <glyph glyph-name="Theta" unicode="&#x398;" horiz-adv-x="1679" 
d="M840 -14q-103 0 -198 23.5t-177 68t-149 107.5t-115 142.5t-74 173.5t-26 199t26 199t74 173.5t115 142.5t149 107.5t177 68t198 23.5q155 0 290 -52t234.5 -146.5t156.5 -226t57 -289.5t-57 -289.5t-156.5 -226t-234.5 -146.5t-290 -52zM1251 785v-156h-820v156h820z
M840 135q122 0 226.5 42.5t181 117.5t120 178.5t43.5 226.5t-43.5 226.5t-120 178.5t-181 117.5t-226.5 42.5t-226.5 -42.5t-181.5 -117.5t-121 -178.5t-44 -226.5t44 -226.5t121 -178.5t181.5 -117.5t226.5 -42.5z" />
    <glyph glyph-name="Iota" unicode="&#x399;" horiz-adv-x="587" 
d="M208 1400h171v-1400h-171v1400z" />
    <glyph glyph-name="Kappa" unicode="&#x39a;" horiz-adv-x="1405" 
d="M208 1400h171v-821l740 821h204l-557 -608l596 -792h-207l-507 663l-269 -294v-369h-171v1400z" />
    <glyph glyph-name="Lambda" unicode="&#x39b;" horiz-adv-x="1445" 
d="M2 0l638 1400h164l639 -1400h-175l-547 1229l-546 -1229h-173z" />
    <glyph glyph-name="Mu" unicode="&#x39c;" horiz-adv-x="1877" 
d="M208 1400h206l526 -1020l523 1020h206v-1400h-159l-2 1167l-518 -1018h-102l-521 1018v-1167h-159v1400z" />
    <glyph glyph-name="Nu" unicode="&#x39d;" horiz-adv-x="1589" 
d="M208 1400h175l829 -1139v1139h168v-1400h-175l-826 1135v-1135h-171v1400z" />
    <glyph glyph-name="Xi" unicode="&#x39e;" horiz-adv-x="1595" 
d="M222 0v143h1151v-143h-1151zM381 640v142h832v-142h-832zM242 1255v145h1101v-145h-1101z" />
    <glyph glyph-name="Omicron" unicode="&#x39f;" horiz-adv-x="1626" 
d="M813 1412q103 0 197 -25t175.5 -71t148 -110.5t114 -143.5t73.5 -170t26 -190t-26 -190.5t-73.5 -171t-114 -144.5t-148 -111.5t-175.5 -72t-197 -25.5q-102 0 -196.5 25.5t-176 72t-148 111.5t-114 144.5t-73.5 171t-26 190.5t26 190.5t73.5 170t114 143t148 110.5
t176 71t196.5 25zM814 1265q-115 0 -217.5 -44t-179 -120.5t-121 -179t-44.5 -219.5q0 -78 20.5 -151t57.5 -136t88.5 -115t114 -88.5t134 -57t147.5 -20.5q115 0 217 44.5t178 121.5t120 180.5t44 221.5q0 117 -44 219.5t-120 179t-178 120.5t-217 44z" />
    <glyph glyph-name="Pi" unicode="&#x3a0;" horiz-adv-x="1647" 
d="M230 0v1400h1187v-1400h-164v1255h-859v-1255h-164z" />
    <glyph glyph-name="Rho" unicode="&#x3a1;" horiz-adv-x="1339" 
d="M738 1400q131 0 232.5 -31.5t172 -91.5t107 -147t36.5 -199q0 -116 -36.5 -206.5t-107 -153t-172 -95t-232.5 -32.5h-359v-444h-171v1400h530zM732 592q186 0 288 84.5t102 250.5q0 161 -102 243t-288 82h-353v-660h353z" />
    <glyph glyph-name="Sigma" unicode="&#x3a3;" horiz-adv-x="1299" 
d="M96 -1v137l549 567l-549 560v137h1085v-159l-842 -1l496 -501v-78l-492 -502h838v-160h-1085z" />
    <glyph glyph-name="Tau" unicode="&#x3a4;" horiz-adv-x="1157" 
d="M496 1255h-488v145h1141v-145h-488v-1255h-165v1255z" />
    <glyph glyph-name="Upsilon" unicode="&#x3a5;" horiz-adv-x="1279" 
d="M557 485l-558 915h178l468 -767l469 767h166l-558 -915v-485h-165v485z" />
    <glyph glyph-name="Phi" unicode="&#x3a6;" horiz-adv-x="1685" 
d="M766 96q-93 3 -185 18.5t-175 46t-154 78t-122.5 114t-81 153t-29.5 195.5q0 108 28.5 193.5t79 152t120 114.5t152.5 79.5t176.5 48t190.5 19.5v141h155v-141q217 -8 375 -70q180 -72 275.5 -207.5t95.5 -329.5q0 -107 -28.5 -192.5t-79 -152t-120.5 -114.5
t-152.5 -79.5t-175.5 -48t-190 -19.5v-144h-155v145zM180 701q0 -84 22.5 -151t62.5 -118t95.5 -88t120.5 -61.5t137.5 -37.5t147.5 -17v947q-110 -6 -215.5 -31.5t-188 -80t-132.5 -143t-50 -219.5zM1507 703q0 126 -49 214t-130.5 143.5t-187.5 82.5t-219 32v-947
q110 6 215 32t187.5 81t133 143.5t50.5 218.5z" />
    <glyph glyph-name="Chi" unicode="&#x3a7;" horiz-adv-x="1325" 
d="M561 719l-496 681h190l411 -560l409 560h181l-496 -676l533 -724h-192l-442 602l-437 -602h-191z" />
    <glyph glyph-name="Psi" unicode="&#x3a8;" horiz-adv-x="1672" 
d="M1651 1400q2 -134 2 -216v-114q0 -202 -93 -378q-50 -93 -120 -157t-153.5 -104t-178 -59t-194.5 -22v-399h-155v399q-215 7 -374 83q-92 44 -160.5 111.5t-114.5 151.5t-68.5 179.5t-22.5 194.5q0 51 6 330h158q-3 -261 -3 -330q0 -166 78 -312q38 -73 92 -123
t119 -82.5t138.5 -49t151.5 -21.5v967h155v-967q166 11 286 67q75 35 130 91t91 125.5t54 148t18 157.5v116t-2 213h160z" />
    <glyph glyph-name="uni03A9" unicode="&#x3a9;" horiz-adv-x="1794" 
d="M1128 147q81 45 143.5 108t105 137t64.5 155t22 162q0 113 -39.5 213.5t-113 176t-178 120t-235.5 44.5q-130 0 -234.5 -44.5t-178 -120t-113 -176t-39.5 -212.5q0 -81 22 -162.5t64.5 -155t105.5 -137t144 -108.5v-147h-647v139h457q-66 48 -121 115t-94.5 145
t-61.5 163t-22 168q0 146 54 270t150 214.5t227.5 141.5t286.5 51t287 -51t228 -141.5t150.5 -214.5t54.5 -270q0 -83 -22 -168t-62 -163t-95 -145t-121 -115h456v-139h-645v147z" />
    <glyph glyph-name="Iotadieresis" unicode="&#x3aa;" horiz-adv-x="587" 
d="M208 1400h171v-1400h-171v1400zM125 1797q21 0 38.5 -7.5t31 -20.5t21 -31t7.5 -39q0 -41 -28 -69.5t-70 -28.5q-21 0 -39 7.5t-31 21t-20.5 31.5t-7.5 38q0 42 28 70t70 28zM463 1797q20 0 38 -7.5t31 -20.5t20.5 -31t7.5 -39q0 -41 -28 -69.5t-69 -28.5q-21 0 -39 7.5
t-31.5 21t-21 31.5t-7.5 38q0 42 28.5 70t70.5 28z" />
    <glyph glyph-name="Upsilondieresis" unicode="&#x3ab;" horiz-adv-x="1279" 
d="M557 485l-558 915h178l468 -767l469 767h166l-558 -915v-485h-165v485zM472 1725q41 0 69 -27.5t28 -69.5t-28 -70.5t-69 -28.5q-21 0 -39 7.5t-31.5 21t-21 31.5t-7.5 39q0 42 28.5 69.5t70.5 27.5zM810 1725q42 0 70 -27.5t28 -69.5t-28 -70.5t-70 -28.5q-21 0 -39 7.5
t-31 21t-20.5 31.5t-7.5 39q0 42 28 69.5t70 27.5z" />
    <glyph glyph-name="alphatonos" unicode="&#x3ac;" horiz-adv-x="1365" 
d="M995 220q-60 -109 -162.5 -168.5t-242.5 -59.5q-113 0 -206.5 39.5t-161 110.5t-104.5 169.5t-37 216.5t37.5 216t104.5 168.5t160 109.5t204 39q140 0 244 -60t164 -169v222h166v-1054h-166v220zM622 923q-82 0 -150.5 -30t-118 -83t-77.5 -126t-28 -160t28 -159.5
t77.5 -125.5t118 -82.5t150.5 -29.5t150.5 29.5t118 82.5t77 125.5t27.5 159.5t-27.5 160.5t-77 126.5t-118 82.5t-150.5 29.5zM633 1466h183l-135 -252h-130z" />
    <glyph glyph-name="epsilontonos" unicode="&#x3ad;" horiz-adv-x="1107" 
d="M585 -13q-100 0 -186 23t-149 65t-99 100.5t-36 129.5q0 93 60 156t169 89q-45 15 -81.5 37.5t-63 52.5t-40.5 66t-14 77q0 65 33 117.5t91.5 90t138 57.5t172.5 20q106 0 202.5 -25t190.5 -73l-44 -125q-85 43 -167.5 63.5t-162.5 21.5q-63 0 -116 -10.5t-92 -32.5
t-60.5 -53.5t-21.5 -73.5q0 -37 18.5 -66t51.5 -49t79.5 -31t102.5 -11h174v-116h-184q-63 0 -113.5 -11.5t-86 -33t-54 -53t-18.5 -71.5q0 -58 33 -95.5t82 -59.5t104 -30.5t100 -8.5q98 0 195 28t172 82l52 -121q-44 -31 -95 -55t-106.5 -40t-113.5 -23.5t-117 -7.5z
M618 1466h183l-135 -252h-130z" />
    <glyph glyph-name="etatonos" unicode="&#x3ae;" horiz-adv-x="1356" 
d="M739 1064q104 0 185 -31t136.5 -89.5t84.5 -142.5t29 -191v-1010h-160v993q0 163 -79.5 245.5t-225.5 82.5q-84 0 -150.5 -26t-112 -74t-69.5 -116.5t-24 -154.5v-550h-160v1054h153v-180q32 50 74.5 86t93.5 59t108 34t117 11zM720 1466h183l-135 -252h-130z" />
    <glyph glyph-name="iotatonos" unicode="&#x3af;" horiz-adv-x="585" 
d="M334 269q0 -66 26.5 -98t74.5 -32q50 0 110 43l30 -125q-45 -32 -91 -48t-90 -16q-49 0 -90 16.5t-71 49.5t-47 81.5t-17 111.5v802h165v-785zM277 1466h183l-135 -252h-130z" />
    <glyph glyph-name="upsilondieresistonos" unicode="&#x3b0;" horiz-adv-x="1347" 
d="M669 -14q-115 0 -205.5 33t-153 96.5t-95.5 156t-33 210.5v572h161v-567q0 -180 84.5 -270t242.5 -90q157 0 241 89.5t84 270.5v567h159v-572q0 -113 -31 -205t-92 -156.5t-151.5 -99.5t-210.5 -35zM452 1232q-19 0 -36 7t-29.5 19.5t-19.5 29.5t-7 36q0 39 26.5 65.5
t65.5 26.5q40 0 66 -26t26 -66q0 -39 -26.5 -65.5t-65.5 -26.5zM634 1456h183l-135 -252h-130zM895 1232q-19 0 -36 7t-29.5 19.5t-19.5 29.5t-7 36q0 39 26.5 65.5t65.5 26.5q40 0 66 -26t26 -66q0 -39 -26.5 -65.5t-65.5 -26.5z" />
    <glyph glyph-name="alpha" unicode="&#x3b1;" horiz-adv-x="1358" 
d="M995 220q-60 -109 -162.5 -168.5t-242.5 -59.5q-113 0 -206.5 39.5t-161 110.5t-104.5 169.5t-37 216.5t37.5 216t104.5 168.5t160 109.5t204 39q140 0 244 -60t164 -169v222h166v-1054h-166v220zM622 923q-82 0 -150.5 -30t-118 -83t-77.5 -126t-28 -160t28 -159.5
t77.5 -125.5t118 -82.5t150.5 -29.5t150.5 29.5t118 82.5t77 125.5t27.5 159.5t-27.5 160.5t-77 126.5t-118 82.5t-150.5 29.5z" />
    <glyph glyph-name="beta" unicode="&#x3b2;" horiz-adv-x="1363" 
d="M730 -19q-117 0 -219 33t-190 97v-511h-165v1217q0 131 39.5 242t113.5 191.5t181 125.5t242 45q64 0 127.5 -15.5t114.5 -49.5t82.5 -86.5t31.5 -126.5q0 -56 -25 -109t-63 -93l-122 -130q85 -4 154.5 -27t119.5 -67.5t77.5 -112t27.5 -162.5q0 -124 -39.5 -211.5
t-109.5 -143t-167 -81t-211 -25.5zM343 275q76 -67 169 -105.5t204 -38.5q78 0 146 19t118.5 58.5t79.5 100.5t29 145q0 62 -19.5 105t-54.5 70t-83 39t-105 12q-31 0 -59 -11t-53 -29t-48 -40t-45 -43zM862 1020q23 24 42.5 55.5t19.5 66.5q0 36 -17 62t-44 43t-59.5 25.5
t-62.5 8.5q-105 0 -183.5 -36t-131 -99.5t-79 -149t-26.5 -184.5v-379z" />
    <glyph glyph-name="gamma" unicode="&#x3b3;" horiz-adv-x="1049" 
d="M419 59l-466 995h172l379 -835l377 835h168l-468 -998v-456h-162v459z" />
    <glyph glyph-name="delta" unicode="&#x3b4;" horiz-adv-x="1300" 
d="M650 -10q-114 0 -213 38.5t-171.5 108.5t-114.5 168t-42 216q0 78 20 149.5t58 132t93 108t125 78.5q-32 23 -60 41t-48.5 40.5t-32 53t-11.5 78.5q0 53 19.5 95.5t52.5 74.5t76 55t90.5 37.5t96 21t91.5 6.5q45 0 95.5 -5.5t100 -17.5t96.5 -30.5t84 -44.5l-69 -127
q-71 48 -149.5 67.5t-159.5 19.5q-33 0 -79 -7t-87 -24t-70 -46t-29 -74q0 -32 16.5 -55t43 -39.5t59.5 -27t67.5 -17.5t66 -10.5t54.5 -6.5q104 -11 190.5 -54.5t149 -113t97.5 -160.5t35 -198q0 -116 -40.5 -213.5t-112.5 -168t-171 -110t-217 -39.5zM650 131
q84 0 153.5 29t120 81t78 123.5t27.5 156.5q0 83 -26.5 154t-75.5 123t-119 82t-157 30q-84 0 -153.5 -29t-120 -80.5t-78.5 -123t-28 -156.5q0 -82 27 -153.5t76.5 -124t119.5 -82.5t156 -30z" />
    <glyph glyph-name="epsilon" unicode="&#x3b5;" horiz-adv-x="1120" 
d="M585 -13q-100 0 -186 23t-149 65t-99 100.5t-36 129.5q0 93 60 156t169 89q-45 15 -81.5 37.5t-63 52.5t-40.5 66t-14 77q0 65 33 117.5t91.5 90t138 57.5t172.5 20q106 0 202.5 -25t190.5 -73l-44 -125q-85 43 -167.5 63.5t-162.5 21.5q-63 0 -116 -10.5t-92 -32.5
t-60.5 -53.5t-21.5 -73.5q0 -37 18.5 -66t51.5 -49t79.5 -31t102.5 -11h174v-116h-184q-63 0 -113.5 -11.5t-86 -33t-54 -53t-18.5 -71.5q0 -58 33 -95.5t82 -59.5t104 -30.5t100 -8.5q98 0 195 28t172 82l52 -121q-44 -31 -95 -55t-106.5 -40t-113.5 -23.5t-117 -7.5z" />
    <glyph glyph-name="zeta" unicode="&#x3b6;" horiz-adv-x="1063" 
d="M990 1260q-133 -165 -250.5 -311t-204 -268.5t-135.5 -219.5t-46.5 -164.5t64.5 -103.5t197 -36q107 0 174 -25.5t103.5 -69t46.5 -100t2.5 -118t-27.5 -125t-45 -119.5h-178q209 401 -114 401q-288 0 -378 136q-35 53 -32 128q-8 264 613 995h-577v141h787v-141z" />
    <glyph glyph-name="eta" unicode="&#x3b7;" horiz-adv-x="1356" 
d="M739 1064q104 0 185 -31t136.5 -89.5t84.5 -142.5t29 -191v-1010h-160v993q0 163 -79.5 245.5t-225.5 82.5q-84 0 -150.5 -26t-112 -74t-69.5 -116.5t-24 -154.5v-550h-160v1054h153v-180q32 50 74.5 86t93.5 59t108 34t117 11z" />
    <glyph glyph-name="theta" unicode="&#x3b8;" horiz-adv-x="1469" 
d="M735 -14q-149 0 -267 53t-199.5 146t-124.5 220t-43 275q0 144 42 270.5t123 220.5t199 148.5t270 54.5q150 0 267.5 -53t199 -146t124 -220t42.5 -275q0 -144 -41.5 -270.5t-122 -220.5t-198.5 -148.5t-271 -54.5zM735 135q107 0 189.5 37t140.5 101t91 150.5t42 185.5
h-927q9 -97 41.5 -183.5t90.5 -151t140.5 -102t191.5 -37.5zM735 1225q-106 0 -187.5 -35.5t-139.5 -97.5t-92 -146t-44 -181h925q-10 95 -43.5 178.5t-91 146t-139 99t-188.5 36.5z" />
    <glyph glyph-name="iota" unicode="&#x3b9;" horiz-adv-x="585" 
d="M334 269q0 -66 26.5 -98t74.5 -32q50 0 110 43l30 -125q-45 -32 -91 -48t-90 -16q-49 0 -90 16.5t-71 49.5t-47 81.5t-17 111.5v802h165v-785z" />
    <glyph glyph-name="kappa" unicode="&#x3ba;" horiz-adv-x="1152" 
d="M197 1053h165v-549l535 549h195l-395 -407l435 -646h-197l-351 529l-222 -229v-300h-165v1053z" />
    <glyph glyph-name="lambda" unicode="&#x3bb;" horiz-adv-x="1096" 
d="M214 1452q72 0 127 -19.5t97.5 -56t75.5 -88t60 -115.5l522 -1173h-158l-385 877l-386 -877h-167l469 1052l-42 92q-16 37 -35 68.5t-43.5 54t-57 35.5t-76.5 13q-110 0 -191 -79l-71 120q51 51 121 73.5t140 22.5z" />
    <glyph glyph-name="uni03BC" unicode="&#x3bc;" horiz-adv-x="1326" 
d="M171 1054h160v-593q0 -75 18.5 -136t56 -103.5t95.5 -65.5t136 -23q83 0 148 26.5t109 75t67 117t23 152.5v550h160v-1054h-153v183q-52 -96 -144 -144.5t-207 -48.5q-103 0 -181 34.5t-128 103.5v-528h-160v1454z" />
    <glyph glyph-name="nu" unicode="&#x3bd;" horiz-adv-x="1004" 
d="M8 1053h175l331 -896l327 896h170l-414 -1053h-173z" />
    <glyph glyph-name="xi" unicode="&#x3be;" horiz-adv-x="973" 
d="M766 639h-130q-79 0 -153 -8.5t-130.5 -35.5t-90.5 -76.5t-34 -131.5q0 -115 75.5 -172.5t222.5 -57.5q158 0 240.5 -58t82.5 -186q0 -63 -18 -140t-53 -173h-176q80 160 80 255q0 145 -196 145q-208 0 -312.5 99.5t-104.5 292.5q0 318 324 333q-252 17 -252 251
q0 253 252 269h-289v156h742v-156q-63 0 -126 -3.5t-121.5 -12.5t-109 -25.5t-88 -42.5t-59 -63t-21.5 -88q0 -199 247 -199h198v-172z" />
    <glyph glyph-name="omicron" unicode="&#x3bf;" horiz-adv-x="1237" 
d="M619 1058q118 0 216.5 -39t170 -109t111 -167.5t39.5 -215.5t-39.5 -215.5t-111 -168t-170 -109.5t-216.5 -39t-217 39t-170.5 109.5t-111 168t-39.5 215.5t39.5 215.5t111 167.5t170.5 109t217 39zM619 921q-81 0 -149.5 -29t-117.5 -81.5t-76.5 -125t-27.5 -159.5
q0 -88 27.5 -161t76.5 -125.5t117.5 -81.5t149.5 -29t149 29t117 81.5t76.5 125.5t27.5 161q0 87 -27.5 159.5t-76.5 125t-117 81.5t-149 29z" />
    <glyph glyph-name="pi" unicode="&#x3c0;" horiz-adv-x="1315" 
d="M1148 1054v-1054h-160v919h-661v-919h-160v1054h981z" />
    <glyph glyph-name="rho" unicode="&#x3c1;" horiz-adv-x="1265" 
d="M649 -6q-114 0 -213.5 42t-169.5 131v-556h-157v920q0 117 40.5 215.5t112.5 170t171 111.5t216 40q118 0 217 -39.5t171 -111t112.5 -170t40.5 -216.5t-40.5 -216.5t-112.5 -169.5t-171 -111t-217 -40zM649 135q87 0 157.5 30t120 83.5t76 126t26.5 156.5
q0 85 -26.5 157.5t-76 125.5t-119.5 83t-156 30t-156.5 -30t-120.5 -83t-77 -125.5t-27 -157.5q0 -84 27 -156t77 -125.5t120 -84t155 -30.5z" />
    <glyph glyph-name="uni03C2" unicode="&#x3c2;" horiz-adv-x="986" 
d="M599 0q-115 0 -210 38t-163.5 107t-106.5 166t-38 215q0 117 39 215t108.5 168.5t166 109.5t211.5 39q131 0 235 -40.5t176 -114.5l-93 -108q-59 57 -136.5 90t-174.5 33q-79 0 -146.5 -28.5t-116 -80.5t-76 -124t-27.5 -159q0 -88 31.5 -156t85 -115t125 -71.5
t150.5 -24.5q89 0 148.5 -19t95.5 -52.5t51.5 -78t15.5 -95.5q0 -39 -7.5 -80.5t-19 -82.5t-26 -79.5t-28.5 -71.5h-178q86 165 86 262q0 138 -178 138z" />
    <glyph glyph-name="sigma" unicode="&#x3c3;" horiz-adv-x="1343" 
d="M630 -10q-118 0 -217.5 40.5t-171.5 112t-112 170t-40 214.5q0 119 41.5 218t114 170t172 110t214.5 39h622v-119h-273q93 -75 142 -182.5t49 -235.5q0 -120 -41 -218.5t-113.5 -169.5t-171.5 -110t-215 -39zM630 131q85 0 154.5 30t119.5 83t77.5 125.5t27.5 157.5
q0 84 -26 156t-75 125.5t-119.5 84t-158.5 30.5q-85 0 -154.5 -30t-119.5 -82.5t-77.5 -125t-27.5 -158.5q0 -83 26.5 -155t76 -125.5t119.5 -84.5t157 -31z" />
    <glyph glyph-name="tau" unicode="&#x3c4;" horiz-adv-x="1041" 
d="M1011 1054v-135l-410 1v-920h-160v920l-411 1v133h981z" />
    <glyph glyph-name="upsilon" unicode="&#x3c5;" horiz-adv-x="1347" 
d="M669 -14q-115 0 -205.5 33t-153 96.5t-95.5 156t-33 210.5v572h161v-567q0 -180 84.5 -270t242.5 -90q157 0 241 89.5t84 270.5v567h159v-572q0 -113 -31 -205t-92 -156.5t-151.5 -99.5t-210.5 -35z" />
    <glyph glyph-name="phi" unicode="&#x3c6;" horiz-adv-x="1561" 
d="M702 -12q-206 11 -322 74q-137 75 -214.5 192t-77.5 275q0 74 21.5 143t60.5 130t92.5 110.5t117.5 84.5q117 65 324 75l1 219h152v-219q205 -10 322 -75q64 -35 118 -84.5t93 -110t61 -130t22 -143.5q0 -79 -20.5 -148t-58.5 -127.5t-92.5 -106.5t-122.5 -85
q-117 -64 -318 -74l1 -388h-161zM464 184q83 -46 238 -55l2 802q-160 -9 -240 -55q-45 -26 -84 -63t-67.5 -82t-45 -96t-16.5 -104q0 -119 55.5 -204t157.5 -143zM1095 876q-83 46 -237 55l2 -801q154 9 235 54q100 57 157 142t57 203q0 54 -16.5 105t-45 96t-67.5 82.5
t-85 63.5z" />
    <glyph glyph-name="chi" unicode="&#x3c7;" horiz-adv-x="1081" 
d="M459 334l-404 720h179l306 -586l307 586h176l-405 -719l429 -735h-183l-325 603l-325 -603h-179z" />
    <glyph glyph-name="psi" unicode="&#x3c8;" horiz-adv-x="1501" 
d="M831 151q40 7 80.5 21t83.5 34q124 60 187.5 163t66.5 240q2 123 -4.5 233.5t-21.5 211.5h176q18 -198 12 -445q-2 -83 -22 -162t-62 -155q-41 -75 -102 -132.5t-146 -95.5q-123 -58 -248 -73l1 -391h-163l1 390q-63 8 -125 26t-125 48q-163 76 -247 228q-81 151 -84 317
q-4 247 12 445h177q-16 -101 -22 -211t-4 -232q3 -129 63 -235q26 -46 65.5 -84t87 -66.5t99.5 -47.5t103 -28l2 1124h156z" />
    <glyph glyph-name="omega" unicode="&#x3c9;" horiz-adv-x="1727" 
d="M1365 1069q68 -39 118.5 -101t84.5 -136.5t51 -154.5t17 -155q0 -107 -25.5 -202.5t-79.5 -167.5t-138.5 -114.5t-202.5 -42.5q-57 0 -108.5 16.5t-93.5 46t-74.5 70.5t-52.5 90q-21 -49 -57.5 -89.5t-83 -69t-99.5 -44t-108 -15.5q-101 0 -179.5 41t-132.5 109
t-82 155.5t-28 180.5q0 76 17.5 161t52 165t85 147.5t116.5 109.5l75 -130q-44 -37 -79.5 -86t-61 -103t-39 -110.5t-13.5 -108.5q0 -64 13.5 -129t45 -117t83 -85t127.5 -33q63 0 112.5 21.5t84 59.5t53 90t18.5 112l-2 251h170v-278q0 -51 12.5 -95.5t39 -78t68 -53
t98.5 -19.5q78 0 136 24t96.5 68t57.5 105.5t19 135.5q0 129 -45 237.5t-148 189.5z" />
    <glyph glyph-name="iotadieresis" unicode="&#x3ca;" horiz-adv-x="585" 
d="M334 269q0 -66 26.5 -98t74.5 -32q50 0 110 43l30 -125q-45 -32 -91 -48t-90 -16q-49 0 -90 16.5t-71 49.5t-47 81.5t-17 111.5v802h165v-785zM86 1452q21 0 38.5 -7.5t31 -20.5t21 -31t7.5 -39q0 -41 -28 -69.5t-70 -28.5q-21 0 -39 7.5t-31 21t-20.5 31.5t-7.5 38
q0 42 28 70t70 28zM424 1452q20 0 38 -7.5t31 -20.5t20.5 -31t7.5 -39q0 -41 -28 -69.5t-69 -28.5q-21 0 -39 7.5t-31.5 21t-21 31.5t-7.5 38q0 42 28.5 70t70.5 28z" />
    <glyph glyph-name="upsilondieresis" unicode="&#x3cb;" horiz-adv-x="1347" 
d="M669 -14q-115 0 -205.5 33t-153 96.5t-95.5 156t-33 210.5v572h161v-567q0 -180 84.5 -270t242.5 -90q157 0 241 89.5t84 270.5v567h159v-572q0 -113 -31 -205t-92 -156.5t-151.5 -99.5t-210.5 -35zM502 1454q21 0 38.5 -7.5t31 -20.5t21 -31t7.5 -39q0 -41 -28 -69.5
t-70 -28.5q-21 0 -39 7.5t-31 21t-20.5 31.5t-7.5 38q0 42 28 70t70 28zM840 1454q20 0 38 -7.5t31 -20.5t20.5 -31t7.5 -39q0 -41 -28 -69.5t-69 -28.5q-21 0 -39 7.5t-31.5 21t-21 31.5t-7.5 38q0 42 28.5 70t70.5 28z" />
    <glyph glyph-name="omicrontonos" unicode="&#x3cc;" horiz-adv-x="1260" 
d="M619 1058q118 0 216.5 -39t170 -109t111 -167.5t39.5 -215.5t-39.5 -215.5t-111 -168t-170 -109.5t-216.5 -39t-217 39t-170.5 109.5t-111 168t-39.5 215.5t39.5 215.5t111 167.5t170.5 109t217 39zM619 921q-81 0 -149.5 -29t-117.5 -81.5t-76.5 -125t-27.5 -159.5
q0 -88 27.5 -161t76.5 -125.5t117.5 -81.5t149.5 -29t149 29t117 81.5t76.5 125.5t27.5 161q0 87 -27.5 159.5t-76.5 125t-117 81.5t-149 29zM645 1466h183l-135 -252h-130z" />
    <glyph glyph-name="upsilontonos" unicode="&#x3cd;" horiz-adv-x="1331" 
d="M669 -14q-115 0 -205.5 33t-153 96.5t-95.5 156t-33 210.5v572h161v-567q0 -180 84.5 -270t242.5 -90q157 0 241 89.5t84 270.5v567h159v-572q0 -113 -31 -205t-92 -156.5t-151.5 -99.5t-210.5 -35zM688 1466h183l-135 -252h-130z" />
    <glyph glyph-name="omegatonos" unicode="&#x3ce;" horiz-adv-x="1727" 
d="M1365 1069q68 -39 118.5 -101t84.5 -136.5t51 -154.5t17 -155q0 -107 -25.5 -202.5t-79.5 -167.5t-138.5 -114.5t-202.5 -42.5q-57 0 -108.5 16.5t-93.5 46t-74.5 70.5t-52.5 90q-21 -49 -57.5 -89.5t-83 -69t-99.5 -44t-108 -15.5q-101 0 -179.5 41t-132.5 109
t-82 155.5t-28 180.5q0 76 17.5 161t52 165t85 147.5t116.5 109.5l75 -130q-44 -37 -79.5 -86t-61 -103t-39 -110.5t-13.5 -108.5q0 -64 13.5 -129t45 -117t83 -85t127.5 -33q63 0 112.5 21.5t84 59.5t53 90t18.5 112l-2 251h170v-278q0 -51 12.5 -95.5t39 -78t68 -53
t98.5 -19.5q78 0 136 24t96.5 68t57.5 105.5t19 135.5q0 129 -45 237.5t-148 189.5zM881 1466h183l-135 -252h-130z" />
    <glyph glyph-name="uni0400" unicode="&#x400;" horiz-adv-x="1322" 
d="M216 1400h959v-148h-788v-469h703v-147h-703v-488h813v-148h-984v1400zM638 1800l223 -253l-144 -17l-249 198z" />
    <glyph glyph-name="uni0401" unicode="&#x401;" horiz-adv-x="1322" 
d="M216 1400h959v-148h-788v-469h703v-147h-703v-488h813v-148h-984v1400zM516 1726q41 0 69 -27.5t28 -69.5t-28 -70.5t-69 -28.5q-21 0 -39 7.5t-31.5 21t-21 31.5t-7.5 39q0 42 28.5 69.5t70.5 27.5zM854 1726q42 0 70 -27.5t28 -69.5t-28 -70.5t-70 -28.5q-21 0 -39 7.5
t-31 21t-20.5 31.5t-7.5 39q0 42 28 69.5t70 27.5z" />
    <glyph glyph-name="uni0402" unicode="&#x402;" horiz-adv-x="1656" 
d="M514 0v1255h-488v145h1182v-145h-530v-491q112 42 216.5 62t198.5 20q107 0 195.5 -27t152.5 -80.5t99 -133.5t35 -187q0 -111 -37 -192t-100.5 -133.5t-147 -77.5t-176.5 -25q-42 0 -84 5t-84 14l21 140q63 -16 130 -16q62 0 118.5 16t100 50.5t69 87.5t25.5 128
q0 74 -25.5 128t-71.5 90t-110 53.5t-140 17.5q-87 0 -184.5 -22t-200.5 -67v-615h-164z" />
    <glyph glyph-name="uni0403" unicode="&#x403;" horiz-adv-x="1149" 
d="M230 0v1400h900l-1 -145h-736l1 -1255h-164zM789 1800l170 -72l-249 -198l-144 17z" />
    <glyph glyph-name="uni0404" unicode="&#x404;" horiz-adv-x="1415" 
d="M813 -14q-150 0 -278 53.5t-221.5 149t-146.5 226.5t-53 285q0 155 53 285.5t146.5 226t221.5 149t278 53.5q165 0 303 -52.5t232 -158.5l-104 -106q-87 88 -192.5 127.5t-230.5 39.5q-109 0 -203 -38t-165 -105.5t-115.5 -161t-53.5 -204.5h707v-136h-704
q13 -106 58.5 -195t115.5 -153t162 -99.5t198 -35.5q125 0 230.5 39.5t192.5 127.5l104 -105q-94 -106 -232 -159t-303 -53z" />
    <glyph glyph-name="uni0405" unicode="&#x405;" horiz-adv-x="1261" 
d="M1025 1142q-85 54 -187.5 85.5t-203.5 31.5q-46 0 -97 -9t-93.5 -31.5t-70 -60.5t-27.5 -95q0 -69 33.5 -114.5t88.5 -77t125.5 -53.5t143.5 -45t143.5 -52t125.5 -74t88.5 -110.5t33.5 -162.5q0 -104 -46 -177t-119.5 -119.5t-164.5 -67.5t-180 -21q-74 0 -148 14.5
t-143.5 42t-132.5 67.5t-117 91l77 139q45 -44 99.5 -81t114.5 -63.5t124 -41t128 -14.5q53 0 110 11t103.5 36.5t76.5 68.5t30 107q0 71 -33.5 117.5t-88.5 78.5t-125.5 54t-144 45t-144 51t-125.5 72t-88.5 108.5t-33.5 159.5q0 66 20.5 119t56 93t83.5 69t102.5 47
t112.5 26.5t114 8.5q58 0 117.5 -8.5t117.5 -25t113 -40.5t103 -56z" />
    <glyph glyph-name="uni0406" unicode="&#x406;" horiz-adv-x="624" 
d="M230 0v1400h164v-1400h-164z" />
    <glyph glyph-name="uni0407" unicode="&#x407;" horiz-adv-x="609" 
d="M222 0v1400h165v-1400h-165zM123 1555q-38 0 -65 26t-27 66q0 41 27 66.5t65 25.5t65 -25.5t27 -66.5q0 -20 -7 -37t-19.5 -29t-29.5 -19t-36 -7zM486 1555q-19 0 -36 7t-29.5 19t-19.5 29t-7 37q0 41 27 66.5t65 25.5t65 -25.5t27 -66.5q0 -20 -7 -37t-19.5 -29
t-29.5 -19t-36 -7z" />
    <glyph glyph-name="uni0408" unicode="&#x408;" horiz-adv-x="1063" 
d="M849 418q0 -102 -27.5 -181t-80 -133t-128 -82.5t-170.5 -28.5q-118 0 -217 52t-174 147l84 124q67 -81 146.5 -122.5t159.5 -41.5q112 0 173.5 69t61.5 201v978h172v-982z" />
    <glyph glyph-name="uni0409" unicode="&#x409;" horiz-adv-x="2373" 
d="M140 -15q-28 0 -56 3.5t-61 11.5l14 149q18 -5 32.5 -6.5t31.5 -1.5q66 0 112.5 39t77 120.5t47 206.5t23.5 297l20 596h963v-496h431q249 0 381 -111t132 -330q0 -114 -36 -200.5t-106 -145t-171 -88t-232 -29.5h-563v1255h-655l-16 -446q-7 -210 -29 -365t-64.5 -257
t-110 -152t-165.5 -50zM1739 133q187 0 284.5 82.5t97.5 244.5q0 159 -97 235t-285 76h-395v-638h395z" />
    <glyph glyph-name="uni040A" unicode="&#x40a;" horiz-adv-x="2365" 
d="M230 0v1400h164v-569h821v569h164v-564h428q114 0 203.5 -27.5t151.5 -79.5t94.5 -127.5t32.5 -171.5q0 -102 -35 -181.5t-101 -135t-160.5 -84.5t-213.5 -29h-564v686h-821v-686h-164zM1379 133h388q84 0 150 19.5t111 56.5t69 90.5t24 122.5q0 137 -91.5 208.5
t-262.5 71.5h-388v-569z" />
    <glyph glyph-name="uni040B" unicode="&#x40b;" horiz-adv-x="1675" 
d="M511 0v1255h-487v145h1175v-145h-524v-502q114 45 215.5 66.5t198.5 21.5q110 0 199 -28t152 -84.5t97.5 -142t34.5 -200.5v-386h-164v366q0 80 -24.5 141.5t-70 102.5t-111 62t-146.5 21q-169 0 -381 -95v-598h-164z" />
    <glyph glyph-name="uni040C" unicode="&#x40c;" horiz-adv-x="1411" 
d="M1183 0l-481 633h-309v-633h-163v1400h163v-620h312l460 620h179l-511 -679l540 -721h-190zM835 1800l170 -72l-249 -198l-144 17z" />
    <glyph glyph-name="uni040D" unicode="&#x40d;" horiz-adv-x="1648" 
d="M230 0v1400h164v-1131l873 1131h151v-1400h-164v1129l-873 -1129h-151zM695 1800l223 -253l-144 -17l-249 198z" />
    <glyph glyph-name="uni040E" unicode="&#x40e;" horiz-adv-x="1368" 
d="M212 147q35 -13 67.5 -20t63.5 -7q64 0 120.5 33.5t104.5 112.5l37 61l-567 1073h178l476 -926l488 926h166l-631 -1169q-71 -134 -166.5 -195.5t-202.5 -61.5q-89 0 -179 39zM665 1547q-69 0 -124.5 17.5t-95 51t-61.5 83.5t-23 114h112q2 -78 54 -123.5t137 -45.5
q42 0 77 12t60.5 33.5t40 53t15.5 70.5h114q-1 -64 -23.5 -114t-62 -83.5t-95.5 -51t-125 -17.5z" />
    <glyph glyph-name="uni040F" unicode="&#x40f;" horiz-adv-x="1612" 
d="M1382 1400v-1400h-499v-325h-155v325h-498v1400h164v-1255h823v1255h165z" />
    <glyph glyph-name="uni0410" unicode="&#x410;" horiz-adv-x="1499" 
d="M661 1400h176l624 -1400h-183l-156 358h-752l-155 -358h-180zM1058 505l-314 721l-311 -721h625z" />
    <glyph glyph-name="uni0411" unicode="&#x411;" horiz-adv-x="1456" 
d="M230 0v1400h1035v-142h-871v-437h450q250 0 378.5 -101.5t128.5 -298.5q0 -204 -139.5 -312.5t-400.5 -108.5h-581zM394 133h413q187 0 282.5 71t95.5 211q0 274 -378 274h-413v-556z" />
    <glyph glyph-name="uni0412" unicode="&#x412;" horiz-adv-x="1496" 
d="M230 0v1400h589q112 0 201 -23t151 -68t95 -112t33 -155q0 -121 -60 -200.5t-166 -117.5q146 -32 221 -118.5t75 -226.5q0 -180 -128.5 -279.5t-383.5 -99.5h-627zM394 133h461q171 0 259.5 62.5t88.5 195.5q0 132 -89 193t-259 61h-461v-512zM394 773h415
q155 0 238.5 62t83.5 184q0 123 -83.5 185.5t-238.5 62.5h-415v-494z" />
    <glyph glyph-name="uni0413" unicode="&#x413;" horiz-adv-x="1149" 
d="M230 0v1400h900l-1 -145h-736l1 -1255h-164z" />
    <glyph glyph-name="uni0414" unicode="&#x414;" horiz-adv-x="1595" 
d="M24 -311l2 456h69q74 5 121 69t75.5 172.5t41.5 252.5t18 308l15 453h957v-1255h210v-456h-155v311h-1197l-2 -311h-155zM499 932q-5 -133 -15 -258.5t-30 -229.5t-51.5 -182t-79.5 -117h836v1110h-649z" />
    <glyph glyph-name="uni0415" unicode="&#x415;" horiz-adv-x="1322" 
d="M216 1400h959v-148h-788v-469h703v-147h-703v-488h813v-148h-984v1400z" />
    <glyph glyph-name="uni0416" unicode="&#x416;" horiz-adv-x="2035" 
d="M1797 0l-416 633h-282v-633h-162v633h-283l-416 -633h-194l475 725l-440 675h180l392 -620h286v620h162v-620h283l394 620h179l-438 -676l474 -724h-194z" />
    <glyph glyph-name="uni0417" unicode="&#x417;" horiz-adv-x="1277" 
d="M127 283q47 -39 101 -68t111 -48t116 -28.5t116 -9.5q83 0 157.5 19t130.5 55.5t89.5 89.5t33.5 122q0 118 -93 180t-259 62h-303v136h293q144 0 223.5 59.5t79.5 166.5q0 62 -28.5 109.5t-77.5 80.5t-115 50t-141 17q-95 0 -197.5 -28t-197.5 -87l-55 137q109 63 225 93
t228 30q107 0 202.5 -26t167.5 -75t114.5 -120t42.5 -161q0 -112 -60.5 -191.5t-168.5 -116.5q68 -18 121 -49.5t90.5 -75t57 -97.5t19.5 -117q0 -96 -46 -171.5t-123 -127.5t-179 -79.5t-213 -27.5q-67 0 -136 10.5t-135.5 32t-130 55t-119.5 78.5z" />
    <glyph glyph-name="uni0418" unicode="&#x418;" horiz-adv-x="1648" 
d="M230 0v1400h164v-1131l873 1131h151v-1400h-164v1129l-873 -1129h-151z" />
    <glyph glyph-name="uni0419" unicode="&#x419;" horiz-adv-x="1648" 
d="M230 0v1400h164v-1131l873 1131h151v-1400h-164v1129l-873 -1129h-151zM822 1502q-155 0 -242.5 68.5t-89.5 194.5h122q2 -81 58.5 -125t151.5 -44q94 0 151.5 44t60.5 125h120q-2 -126 -89.5 -194.5t-242.5 -68.5z" />
    <glyph glyph-name="uni041A" unicode="&#x41a;" horiz-adv-x="1411" 
d="M1183 0l-481 633h-309v-633h-163v1400h163v-620h312l460 620h179l-511 -679l540 -721h-190z" />
    <glyph glyph-name="uni041B" unicode="&#x41b;" horiz-adv-x="1574" 
d="M140 -14q-28 0 -56 3.5t-61 11.5l14 149q18 -5 32.5 -6.5t31.5 -1.5q66 0 112.5 39t77 120t47 206t23.5 297l20 596h963v-1400h-164v1255h-655l-16 -446q-7 -209 -29 -364t-64.5 -257t-110 -152t-165.5 -50z" />
    <glyph glyph-name="uni041C" unicode="&#x41c;" horiz-adv-x="1927" 
d="M230 0v1400h137l598 -1018l594 1018h136l2 -1400h-160l-2 1083l-534 -908h-77l-534 901v-1076h-160z" />
    <glyph glyph-name="uni041D" unicode="&#x41d;" horiz-adv-x="1641" 
d="M216 1400h171v-634h830v634h171v-1400h-171v620h-830v-620h-171v1400z" />
    <glyph glyph-name="uni041E" unicode="&#x41e;" horiz-adv-x="1699" 
d="M822 1412q103 0 197 -25t175.5 -71t148 -110.5t114 -143.5t73.5 -170t26 -190t-26 -190.5t-73.5 -171t-114 -144.5t-148 -111.5t-175.5 -72t-197 -25.5q-102 0 -196.5 25.5t-176 72t-148 111.5t-114 144.5t-73.5 171t-26 190.5t26 190.5t73.5 170t114 143t148 110.5
t176 71t196.5 25zM823 1265q-115 0 -217.5 -44t-179 -120.5t-121 -179t-44.5 -219.5q0 -78 20.5 -151t57.5 -136t88.5 -115t114 -88.5t134 -57t147.5 -20.5q115 0 217 44.5t178 121.5t120 180.5t44 221.5q0 117 -44 219.5t-120 179t-178 120.5t-217 44z" />
    <glyph glyph-name="uni041F" unicode="&#x41f;" horiz-adv-x="1647" 
d="M230 0v1400h1187v-1400h-164v1255h-859v-1255h-164z" />
    <glyph glyph-name="uni0420" unicode="&#x420;" horiz-adv-x="1422" 
d="M746 1400q131 0 232.5 -31.5t172 -91.5t107 -147t36.5 -199q0 -116 -36.5 -206.5t-107 -153t-172 -95t-232.5 -32.5h-359v-444h-171v1400h530zM740 592q186 0 288 84.5t102 250.5q0 161 -102 243t-288 82h-353v-660h353z" />
    <glyph glyph-name="uni0421" unicode="&#x421;" horiz-adv-x="1433" 
d="M1234 1091q-40 41 -88 74t-101 55.5t-109 34.5t-113 12q-117 0 -219.5 -44t-178 -120.5t-119.5 -179.5t-44 -220q0 -78 20 -150t56 -135t87.5 -114t113.5 -88t134 -57t150 -20q114 0 221 45t190 124l103 -106q-51 -49 -112 -89t-128 -68t-138.5 -43t-143.5 -15
q-101 0 -194 25.5t-174 72t-146.5 111.5t-112.5 144.5t-72.5 171t-25.5 190.5t26 190t73 170t113.5 143.5t147.5 110.5t174.5 71t195.5 25q72 0 143 -14t137 -40.5t125.5 -64.5t109.5 -86z" />
    <glyph glyph-name="uni0422" unicode="&#x422;" horiz-adv-x="1187" 
d="M511 0v1255h-487v145h1139v-145h-488v-1255h-164z" />
    <glyph glyph-name="uni0423" unicode="&#x423;" horiz-adv-x="1368" 
d="M212 147q35 -13 67.5 -20t63.5 -7q64 0 120.5 33.5t104.5 112.5l37 61l-567 1073h178l476 -926l488 926h166l-631 -1169q-71 -134 -166.5 -195.5t-202.5 -61.5q-89 0 -179 39z" />
    <glyph glyph-name="uni0424" unicode="&#x424;" horiz-adv-x="1840" 
d="M843 -49v145q-176 6 -315 49t-235 120.5t-146.5 187t-50.5 248.5q0 140 50.5 250t146.5 187.5t235 120.5t315 49v141h155v-141q176 -6 314.5 -49.5t234.5 -121t146.5 -187.5t50.5 -249t-50.5 -249t-146.5 -187.5t-234.5 -120.5t-314.5 -49v-144h-155zM257 701
q0 -109 40 -194t115.5 -144.5t184 -93.5t246.5 -41v947q-141 -7 -250 -41t-183.5 -93.5t-113.5 -144.5t-39 -195zM1584 703q0 109 -39.5 194t-114.5 145t-184 93.5t-248 39.5v-947q140 7 249 41t184 94t114 145.5t39 194.5z" />
    <glyph glyph-name="uni0425" unicode="&#x425;" horiz-adv-x="1313" 
d="M76 1400h192l385 -539l386 539h195l-477 -673l515 -727h-196l-423 586l-420 -586h-192l512 721z" />
    <glyph glyph-name="uni0426" unicode="&#x426;" horiz-adv-x="1655" 
d="M1447 -325v325h-1217v1400h164v-1255h823v1255h165v-1255h219v-470h-154z" />
    <glyph glyph-name="uni0427" unicode="&#x427;" horiz-adv-x="1465" 
d="M1071 0v571q-113 -48 -221.5 -71t-208.5 -23q-125 0 -223 31t-165.5 90.5t-102.5 145.5t-35 197v459h164v-441q0 -80 25.5 -142.5t74 -105t119 -65t160.5 -22.5q99 0 204 23.5t209 71.5v681h164v-1400h-164z" />
    <glyph glyph-name="uni0428" unicode="&#x428;" horiz-adv-x="2189" 
d="M1013 145v1255h164v-1255h618v1255h164v-1400h-1729v1400h164v-1255h619z" />
    <glyph glyph-name="uni0429" unicode="&#x429;" horiz-adv-x="2237" 
d="M1013 145v1255h164v-1255h618v1255h164v-1255h216v-456h-155v311h-1790v1400h164v-1255h619z" />
    <glyph glyph-name="uni042A" unicode="&#x42a;" horiz-adv-x="1646" 
d="M1050 904q248 0 379.5 -111t131.5 -330q0 -114 -36 -200.5t-105.5 -145t-171 -88t-232.5 -29.5h-561v1255h-431v145h595v-496h431zM1013 133q187 0 284.5 82.5t97.5 244.5q0 160 -96.5 235.5t-285.5 75.5h-394v-638h394z" />
    <glyph glyph-name="uni042B" unicode="&#x42b;" horiz-adv-x="1967" 
d="M825 904q249 0 381 -111t132 -330q0 -114 -36 -200.5t-106 -145t-171 -88t-232 -29.5h-563v1400h164v-496h431zM789 133q187 0 284.5 82.5t97.5 244.5q0 159 -97 235t-285 76h-395v-638h395zM1573 0v1400h164v-1400h-164z" />
    <glyph glyph-name="uni042C" unicode="&#x42c;" horiz-adv-x="1423" 
d="M825 904q249 0 381 -111t132 -330q0 -114 -36 -200.5t-106 -145t-171 -88t-232 -29.5h-563v1400h164v-496h431zM789 133q187 0 284.5 82.5t97.5 244.5q0 159 -97 235t-285 76h-395v-638h395z" />
    <glyph glyph-name="uni042D" unicode="&#x42d;" horiz-adv-x="1413" 
d="M600 1414q150 0 278 -53.5t221.5 -149t146.5 -226t53 -285.5q0 -154 -53 -285t-146.5 -226.5t-221.5 -149t-278 -53.5q-165 0 -302.5 52.5t-232.5 158.5l104 106q87 -88 192.5 -127.5t230.5 -39.5q109 0 203 38t165 105.5t115.5 161t53.5 204.5h-706v136h703
q-13 106 -58.5 195t-115.5 153t-162 99.5t-198 35.5q-125 0 -230.5 -39.5t-192.5 -127.5l-104 105q95 106 232.5 159t302.5 53z" />
    <glyph glyph-name="uni042E" unicode="&#x42e;" horiz-adv-x="2189" 
d="M230 0v1400h164v-614h278q15 137 73.5 252.5t150.5 199t213.5 130t261.5 46.5q151 0 280 -54t223 -149t147.5 -226t53.5 -285t-53.5 -285t-147.5 -226t-223 -149t-280 -54q-143 0 -266 48.5t-216 134.5t-150.5 205.5t-68.5 260.5h-276v-635h-164zM1371 136q114 0 212 42
t170.5 117t113.5 178.5t41 226.5t-41 226.5t-113.5 178.5t-170.5 117t-212 42t-212 -42t-170 -117t-113 -178.5t-41 -226.5t41 -226.5t113 -178.5t170 -117t212 -42z" />
    <glyph glyph-name="uni042F" unicode="&#x42f;" horiz-adv-x="1463" 
d="M1069 0v419h-406q-36 0 -71 3l-289 -422h-176l314 450q-152 48 -233.5 163.5t-81.5 287.5q0 119 39.5 212t112.5 157t175.5 97t229.5 33h550v-1400h-164zM1069 1255h-378q-95 0 -169 -22.5t-124.5 -66.5t-77 -110t-26.5 -152q0 -165 96 -255t286 -90h393v696z" />
    <glyph glyph-name="uni0430" unicode="&#x430;" horiz-adv-x="1170" 
d="M834 162q-61 -86 -157.5 -127.5t-221.5 -41.5q-82 0 -149 24.5t-114 67.5t-72.5 101.5t-25.5 126.5q0 69 26.5 124.5t77.5 94.5t124.5 60t167.5 21h343l-1 66q0 118 -69.5 183t-208.5 65q-86 0 -167.5 -31.5t-162.5 -89.5l-71 109q51 34 99.5 60.5t100 45t108.5 28
t126 9.5q98 0 174 -25t128 -72t79 -114.5t28 -151.5l3 -695h-164zM488 124q67 0 124.5 16.5t102.5 47.5t76 75.5t43 100.5l-1 127h-321q-261 0 -261 -173q0 -43 16.5 -79t47.5 -61.5t74.5 -39.5t98.5 -14z" />
    <glyph glyph-name="uni0431" unicode="&#x431;" horiz-adv-x="1320" 
d="M687 -14q-134 0 -237.5 48t-174.5 138t-107.5 219.5t-36.5 292.5q0 169 33 297.5t100 220.5t168 151t237 90l476 109l24 -148l-444 -99q-109 -24 -189 -65t-134 -103.5t-83 -150t-34 -204.5q64 115 176 179t256 64q112 0 205 -37.5t160 -105.5t104.5 -163t37.5 -209
q0 -116 -39.5 -212.5t-110.5 -165.5t-169.5 -107.5t-217.5 -38.5zM691 120q81 0 149 28.5t117 79.5t76 122t27 156t-26.5 154t-75.5 118.5t-116.5 76.5t-150.5 27q-82 0 -150.5 -27t-118 -76.5t-76.5 -118.5t-27 -154t27.5 -156t77 -122t117.5 -79.5t150 -28.5z" />
    <glyph glyph-name="uni0432" unicode="&#x432;" horiz-adv-x="1220" 
d="M197 0v1054h474q91 0 163 -17.5t122.5 -52t77.5 -84.5t27 -116q0 -88 -47 -148t-130 -90q109 -26 160.5 -90.5t51.5 -167.5q0 -137 -101 -212.5t-308 -75.5h-490zM353 125h324q128 0 194 41t66 131q0 91 -59 134t-188 43h-337v-349zM353 592h305q118 0 180.5 43t62.5 127
q0 85 -62.5 126t-180.5 41h-305v-337z" />
    <glyph glyph-name="uni0433" unicode="&#x433;" horiz-adv-x="959" 
d="M197 0v1054h757v-141h-597v-913h-160z" />
    <glyph glyph-name="uni0434" unicode="&#x434;" horiz-adv-x="1311" 
d="M18 -251v391h58q58 3 93.5 52t56 127t30 177.5t15.5 204.5l14 353h792v-914h164v-391h-150v251h-922v-251h-151zM417 690q-3 -87 -10 -172t-21 -158.5t-38.5 -131t-62.5 -88.5h632v773h-490z" />
    <glyph glyph-name="uni0435" unicode="&#x435;" horiz-adv-x="1243" 
d="M254 469q9 -78 40.5 -141.5t80.5 -108.5t113.5 -69.5t140.5 -24.5q96 0 178.5 34.5t143.5 99.5l91 -90q-76 -83 -184 -128.5t-241 -45.5q-118 0 -215 39t-167 109t-108.5 167.5t-38.5 215.5q0 117 39 215t109 168t166 109.5t211 39.5q129 0 225 -42t157.5 -119t89 -185.5
t20.5 -242.5h-851zM614 927q-74 0 -136.5 -24t-109.5 -68t-77 -106t-38 -138h705q-4 77 -30 139t-70.5 106t-106 67.5t-137.5 23.5z" />
    <glyph glyph-name="uni0436" unicode="&#x436;" horiz-adv-x="1669" 
d="M1446 0l-313 461h-220v-461h-159v461h-220l-311 -461h-192l373 544l-343 510h172l299 -457h222v457h159v-457h222l300 457h173l-343 -511l372 -543h-191z" />
    </font>
</defs>
</svg>
