<?xml version="1.0" standalone="no"?>
<!DOCTYPE svg PUBLIC "-//W3C//DTD SVG 1.1//EN" "http://www.w3.org/Graphics/SVG/1.1/DTD/svg11.dtd" >
<svg xmlns="http://www.w3.org/2000/svg" xmlns:xlink="http://www.w3.org/1999/xlink" version="1.1">
<metadata>
Created by FontForge 20201107 at Tue Sep  9 01:05:04 2025
 By 
Copyright 2018-2025 The Argentum Sans Project Authors (cssobral2013@gmail.com - https://github.com/cssobral2013/Argentum-Sans)
Portions are:
Copyright 2011-2017 The Montserrat Project Authors (julieta.ulanovsky@gmail.com - https://github.com/JulietaUla/Montserrat)
Copyright 2016 The Jones Project Authors (https://github.com/indestructible-type/jones)
Copyright 2016 The Montserrat-G Project Authors (https://github.com/green-s/Montserrat-G)
Copyright 2023 The Montserrat-Z-Remix Project Authors (https://github.com/AndreasZorpidis/Montserrat-Z-Remix/)
</metadata>
<defs>
<font id="ArgentumSans-ExtraLight" horiz-adv-x="1632" >
  <font-face 
    font-family="Argentum Sans ExtraLight"
    font-weight="200"
    font-stretch="normal"
    units-per-em="2000"
    panose-1="0 0 0 0 0 0 0 0 0 0"
    ascent="1600"
    descent="-400"
    x-height="1043"
    cap-height="1400"
    bbox="-452 -436 2816 2064"
    underline-thickness="100"
    underline-position="-250"
    unicode-range="U+000D-FB02"
  />
<missing-glyph horiz-adv-x="1174" 
d="M80 0v1400h1014v-1400h-1014zM240 140h694v1120h-694v-1120z" />
    <glyph glyph-name="fi" unicode="fi" horiz-adv-x="1139" 
d="M833 962h-503v-962h-103v962h-133v81h133v146q0 76 25 138.5t67.5 106.5t99 68.5t118.5 24.5q20 0 41.5 -2.5t41.5 -7.5l-11 -89q-15 4 -31 6.5t-32 2.5q-45 0 -84.5 -17t-69 -48.5t-46 -75.5t-16.5 -98v-155h606v-1043h-103v962zM885 1423q33 0 56 -23t23 -57
q0 -33 -23 -56t-56 -23t-56.5 23t-23.5 56q0 34 23.5 57t56.5 23z" />
    <glyph glyph-name="fl" unicode="fl" horiz-adv-x="1191" 
d="M227 962h-133v81h133v146q0 77 26 139.5t69.5 107t101 68t120.5 23.5q95 -1 165.5 -18t116.5 -37v12h101v-1259q0 -69 27 -102.5t78 -33.5q27 0 56 13.5t58 39.5l28 -77q-40 -33 -82 -50.5t-81 -17.5q-85 0 -135 55t-50 164v1161q-18 9 -44.5 19.5t-61.5 19.5t-78.5 15
t-95.5 6q-45 0 -84.5 -17t-69 -48.5t-46 -75.5t-16.5 -98v-155h317v-81h-317v-962h-103v962z" />
    <glyph glyph-name="Idieresis.double" unicode="&#xcf;&#xcf;" horiz-adv-x="949" 
d="M245 1400h105v-1400h-105v1400zM617 1400h106v-1400h-106v1400zM137 1713q31 0 52.5 -21.5t21.5 -53.5q0 -31 -21.5 -53t-52.5 -22q-32 0 -54 22t-22 53q0 32 22 53.5t54 21.5zM473 1713q31 0 52.5 -21.5t21.5 -53.5q0 -31 -21.5 -53t-52.5 -22q-32 0 -54 22t-22 53
q0 32 22 53.5t54 21.5zM812 1713q31 0 53 -21.5t22 -53.5q0 -31 -22 -53t-53 -22q-32 0 -53.5 22t-21.5 53q0 32 21.5 53.5t53.5 21.5z" />
    <glyph glyph-name="idieresis.double" unicode="&#xef;&#xef;" horiz-adv-x="841" 
d="M219 1043h102v-1043h-102v1043zM524 1043h103v-1043h-103v1043zM111 1417q31 0 52.5 -21t21.5 -53t-21.5 -54t-52.5 -22q-32 0 -54 22t-22 54t22 53t54 21zM421 1417q31 0 52.5 -21t21.5 -53t-21.5 -54t-52.5 -22q-32 0 -54 22t-22 54t22 53t54 21zM731 1417
q31 0 52.5 -21t21.5 -53t-21.5 -54t-52.5 -22q-32 0 -54 22t-22 54t22 53t54 21z" />
    <glyph glyph-name=".notdef" horiz-adv-x="1174" 
d="M80 0v1400h1014v-1400h-1014zM240 140h694v1120h-694v-1120z" />
    <glyph glyph-name=".null" horiz-adv-x="0" 
 />
    <glyph glyph-name=".null" horiz-adv-x="0" 
 />
    <glyph glyph-name="uni000D" unicode="&#xd;" horiz-adv-x="600" 
 />
    <glyph glyph-name="space" unicode=" " horiz-adv-x="580" 
 />
    <glyph glyph-name="exclam" unicode="!" horiz-adv-x="396" 
d="M198 139q32 0 54.5 -22.5t22.5 -54.5t-22.5 -54.5t-54.5 -22.5t-54.5 22.5t-22.5 54.5t22.5 54.5t54.5 22.5zM148 1370h100v-331l-13 -642h-74l-13 642v331z" />
    <glyph glyph-name="quotedbl" unicode="&#x22;" horiz-adv-x="556" 
d="M120 1400h85v-415h-85v415zM351 1400h85v-415h-85v415z" />
    <glyph glyph-name="numbersign" unicode="#" horiz-adv-x="1427" 
d="M149 997h298l49 403h83l-49 -403h439l50 403h83l-50 -403h291l-4 -80h-297l-54 -442h291l-4 -80h-297l-49 -395h-82l48 395h-440l-48 -395h-83l48 395h-291l4 80h297l55 442h-292zM905 475l54 442h-439l-55 -442h440z" />
    <glyph glyph-name="dollar" unicode="$" horiz-adv-x="1205" 
d="M557 -8q-66 2 -132.5 17t-129.5 41.5t-119.5 64t-103.5 83.5l53 83q44 -44 97.5 -79.5t113 -60.5t122.5 -38.5t125 -13.5t129 13t122.5 43.5t91 81t35.5 125.5q0 65 -22.5 112t-61.5 81t-91 58t-110.5 43.5t-120 37.5t-120 40t-110.5 50.5t-91 69.5t-61.5 97t-22.5 133
q0 85 36 145.5t94 100.5t131 61.5t146 27.5v217h85v-215q101 -4 203 -33t185 -83l-46 -87q-39 25 -84.5 44.5t-94 33t-98 20.5t-96.5 7q-36 0 -76 -5t-78.5 -16t-73 -28.5t-61 -43.5t-42 -61t-15.5 -80q0 -79 35 -131t92 -87t129.5 -59t148.5 -47.5t148.5 -52t129.5 -73
t92 -110t35 -163.5q0 -91 -38 -157t-99.5 -109.5t-139 -66.5t-156.5 -29v-246h-85v244z" />
    <glyph glyph-name="percent" unicode="%" horiz-adv-x="1723" 
d="M1279 743q66 0 118 -25t88 -73t55 -117.5t19 -158.5q0 -181 -73.5 -278.5t-206.5 -97.5t-205.5 97.5t-72.5 278.5q0 89 18.5 158.5t54.5 117.5t87.5 73t117.5 25zM1338 1399h95l-1060 -1399h-96zM443 1407q66 0 118 -25t88 -73t55 -117.5t19 -158.5q0 -181 -73.5 -278.5
t-206.5 -97.5t-205.5 97.5t-72.5 278.5q0 89 18.5 158.5t54.5 117.5t87.5 73t117.5 25zM1279 679q-97 0 -149 -80.5t-52 -229.5q0 -152 52 -231t149 -79q99 0 151.5 79t52.5 231q0 149 -52.5 229.5t-151.5 80.5zM443 1343q-97 0 -149 -80.5t-52 -229.5q0 -152 52 -231
t149 -79q99 0 151.5 79t52.5 231q0 149 -52.5 229.5t-151.5 80.5z" />
    <glyph glyph-name="ampersand" unicode="&#x26;" horiz-adv-x="1309" 
d="M1228 -21l-208 220q-87 -106 -202.5 -157.5t-258.5 -51.5q-100 0 -183.5 25t-144 71t-94.5 111t-34 144q0 60 19 115.5t62 109t112.5 106.5t169.5 110l-2 2q-53 56 -87.5 100t-55 83.5t-29 76.5t-8.5 77q0 65 24.5 118t68.5 90.5t104.5 58.5t133.5 21q91 0 160 -31
t127 -99l-63 -56q-48 54 -100.5 80.5t-124.5 26.5q-55 0 -99 -15t-74.5 -42.5t-46.5 -65.5t-16 -84q0 -33 7.5 -63t26 -64t51 -74.5t83.5 -94.5l467 -492q72 129 105 325l85 -16q-20 -113 -53 -205t-78 -166l217 -228zM564 75q128 0 227.5 45t171.5 139l-440 462
q-93 -52 -155 -98t-98.5 -90.5t-52 -89.5t-15.5 -94q0 -63 26.5 -113.5t74 -86t114 -55t147.5 -19.5z" />
    <glyph glyph-name="quotesingle" unicode="'" horiz-adv-x="325" 
d="M120 1400h85v-415h-85v415z" />
    <glyph glyph-name="parenleft" unicode="(" horiz-adv-x="576" 
d="M512 1484q-110 -167 -169.5 -388.5t-59.5 -477.5t59.5 -477.5t169.5 -388.5h-96q-113 167 -172.5 388.5t-59.5 477.5t59.5 477.5t172.5 388.5h96z" />
    <glyph glyph-name="parenright" unicode=")" horiz-adv-x="576" 
d="M160 1484q113 -167 172.5 -388.5t59.5 -477.5t-59.5 -477.5t-172.5 -388.5h-96q110 167 169.5 388.5t59.5 477.5t-59.5 477.5t-169.5 388.5h96z" />
    <glyph glyph-name="asterisk" unicode="*" horiz-adv-x="629" 
d="M283 1445h64l-1 -226l194 114l32 -58l-195 -111l195 -111l-32 -58l-194 114l1 -225h-64v225l-194 -114l-32 58l193 111l-193 111l32 59l194 -115v226z" />
    <glyph glyph-name="plus" unicode="+" horiz-adv-x="972" 
d="M77 681h371v371h77v-371h370v-77h-370v-371h-77v371h-371v77z" />
    <glyph glyph-name="comma" unicode="," horiz-adv-x="540" 
d="M245 -8q-23 9 -35.5 27.5t-12.5 41.5q0 32 22 54t54 22q30 0 53 -21t23 -55q0 -18 -6.5 -34t-14.5 -34l-95 -226h-66z" />
    <glyph glyph-name="hyphen" unicode="-" horiz-adv-x="721" 
d="M134 641h453v-77h-453v77z" />
    <glyph glyph-name="period" unicode="." horiz-adv-x="540" 
d="M271 139q32 0 54 -22.5t22 -54.5t-22 -54.5t-54 -22.5t-54.5 22.5t-22.5 54.5t22.5 54.5t54.5 22.5z" />
    <glyph glyph-name="slash" unicode="/" horiz-adv-x="613" 
d="M611 1646h93l-619 -1898h-94z" />
    <glyph glyph-name="zero" unicode="0" horiz-adv-x="1268" 
d="M635 1405q102 0 181 -27.5t138 -76.5t99.5 -116t65 -145.5t35.5 -165t11 -174.5t-11 -174.5t-35.5 -165t-64.5 -145.5t-99 -116t-138 -77t-182 -28t-182 28t-138.5 77.5t-100 116.5t-65 145.5t-35.5 165t-11 173.5q0 88 11 174t35.5 164.5t65 145.5t100 116t138.5 77
t182 28zM635 1319q-86 0 -151 -26.5t-112 -72t-77.5 -106t-49 -129t-26 -141t-7.5 -142.5t7.5 -143.5t26 -142.5t49.5 -130t78 -107t111.5 -72.5t150.5 -26.5t150.5 26.5t111.5 72t78 106.5t49 130t25.5 142.5t7.5 143.5q0 71 -7.5 144t-25.5 141.5t-49 129t-78 106
t-111.5 71.5t-150.5 26z" />
    <glyph glyph-name="one" unicode="1" horiz-adv-x="1268" 
d="M739 91h360v-91h-860v91h398v1000h-377v89h377v220h102v-1309z" />
    <glyph glyph-name="two" unicode="2" horiz-adv-x="1268" 
d="M743 678q34 32 75 78t76.5 97.5t59.5 106t24 103.5q0 74 -33 122.5t-85 77.5t-115.5 41t-124.5 12q-58 0 -116 -12.5t-113 -35t-105.5 -54t-93.5 -69.5l-50 74q50 44 107.5 79t120 59t128.5 37t133 13q79 0 160 -17t147 -56t107.5 -103t41.5 -158q0 -59 -27.5 -123
t-68 -124.5t-88 -114t-87.5 -92.5l-545 -530h920v-89h-1044v94z" />
    <glyph glyph-name="three" unicode="3" horiz-adv-x="1268" 
d="M445 805h148q105 0 179.5 13.5t122 42.5t70 75t22.5 110q0 137 -95 208.5t-275 71.5q-47 0 -95 -7t-93.5 -19.5t-86 -30t-73.5 -38.5l-41 82q38 24 84.5 43.5t98.5 33t108 21t113 7.5q105 0 190 -24.5t145 -69.5t92 -109.5t32 -145.5q0 -61 -17.5 -113.5t-50 -93
t-77.5 -66.5t-101 -35q68 -11 123 -41.5t94 -76t60 -104.5t21 -127q0 -93 -38 -170t-107.5 -132t-166.5 -85.5t-215 -30.5q-66 0 -132.5 9t-128.5 26t-116 41t-94 53l49 81q37 -27 85 -49.5t103 -38.5t114 -24.5t117 -8.5q97 0 176 24t134.5 68t86 105.5t30.5 137.5
q0 147 -116 224t-342 77h-137v86z" />
    <glyph glyph-name="four" unicode="4" horiz-adv-x="1268" 
d="M929 393v-393h-100v393h-716v90l692 917h125l-1 -913h231v-94h-231zM829 487l1 798l-601 -798h600z" />
    <glyph glyph-name="five" unicode="5" horiz-adv-x="1268" 
d="M378 818q33 8 71 15t76.5 12t76 7.5t69.5 2.5q113 0 204 -30t155.5 -85.5t99.5 -133.5t35 -174t-35.5 -176.5t-100.5 -138.5t-156.5 -90.5t-203.5 -32.5q-63 0 -128.5 10.5t-129 29.5t-123.5 45.5t-111 59.5l45 81q47 -31 101 -55.5t110 -42t113 -26.5t111 -9
q90 0 163.5 25.5t125.5 72t80.5 113t28.5 148.5q0 71 -28 129t-80 99.5t-126.5 64t-167.5 22.5q-37 0 -85 -4.5t-99 -12t-101 -18t-92 -23.5l25 697h808v-93h-713z" />
    <glyph glyph-name="six" unicode="6" horiz-adv-x="1268" 
d="M1036 1231q-78 42 -163.5 63.5t-173.5 21.5q-125 0 -217.5 -52t-152.5 -150q-60 -97 -84.5 -235.5t-11.5 -312.5q23 81 65.5 141.5t101.5 100t131.5 59.5t154.5 20q102 0 185 -29.5t141.5 -85.5t90.5 -137t32 -185q0 -107 -33.5 -192t-95 -143.5t-148 -89.5t-191.5 -31
q-149 0 -252 55t-167.5 148t-93.5 214.5t-29 254.5q0 168 39.5 304t112.5 233q74 97 178.5 149.5t235.5 52.5q100 0 199.5 -25.5t189.5 -68.5zM671 801q-94 0 -168.5 -29.5t-127.5 -80.5q-52 -51 -79.5 -116t-26.5 -136q-1 -55 21.5 -117t69.5 -115q48 -54 120.5 -88
t175.5 -34q84 0 154 25.5t120 73t77.5 115.5t27.5 154q0 83 -26.5 148t-74.5 109.5t-115 67.5t-148 23z" />
    <glyph glyph-name="seven" unicode="7" horiz-adv-x="1268" 
d="M147 1400h1014v-90l-654 -1310h-112l654 1307h-902v93z" />
    <glyph glyph-name="eight" unicode="8" horiz-adv-x="1268" 
d="M633 1405q82 0 160.5 -18t140 -58.5t99 -106t37.5 -159.5q0 -60 -17 -109.5t-49 -88t-76.5 -67t-100.5 -47.5q68 -18 124.5 -49t98 -75.5t64.5 -103t23 -132.5q0 -109 -42.5 -184.5t-113 -122.5t-161 -68.5t-186.5 -21.5q-94 0 -185 21t-162 68t-114.5 122.5t-43.5 183.5
q0 74 24 133t66 104t99.5 76t124.5 49q-55 19 -100.5 47.5t-78 67.5t-50.5 88.5t-18 110.5q0 93 38 158t99.5 105.5t140 58.5t159.5 18zM632 701q-72 0 -144 -15.5t-129.5 -50.5t-93 -93t-35.5 -142q0 -88 34 -149t90.5 -99t129 -55.5t150.5 -17.5q77 0 149.5 17t128.5 55.5
t90.5 99t34.5 147.5q0 85 -36 143t-94 93.5t-130.5 51t-144.5 15.5zM634 1324q-64 0 -126 -14t-111 -45.5t-78.5 -83t-29.5 -125.5t29.5 -125.5t78 -84t110.5 -47t127 -14.5t127 14.5t110 47t77 84t29 125.5t-29.5 125.5t-77.5 83t-109.5 45.5t-126.5 14z" />
    <glyph glyph-name="nine" unicode="9" horiz-adv-x="1268" 
d="M221 168q74 -40 161 -62.5t171 -22.5q125 0 216.5 52t151.5 150q59 98 83.5 237t11.5 313q-21 -80 -63.5 -140.5t-101 -101t-131 -60.5t-152.5 -20q-102 0 -184 30t-140 86.5t-89.5 137.5t-31.5 184q0 107 33 191t93.5 142.5t146.5 89.5t191 31q149 0 251.5 -55
t166.5 -148t92 -214t28 -253q0 -168 -39 -304t-112 -234q-74 -97 -178 -150t-235 -53q-48 0 -98 7t-99.5 19t-97 29.5t-89.5 38.5zM598 1314q-84 0 -153 -25.5t-118.5 -73t-76.5 -115t-27 -152.5q0 -82 26 -147t73.5 -110t113.5 -68.5t147 -23.5q94 0 167.5 30t125.5 81
q51 51 78 116t27 136q0 56 -21.5 117t-68.5 114q-48 53 -120 87t-173 34z" />
    <glyph glyph-name="colon" unicode=":" horiz-adv-x="540" 
d="M271 139q32 0 54 -22.5t22 -54.5t-22 -54.5t-54 -22.5t-54.5 22.5t-22.5 54.5t22.5 54.5t54.5 22.5zM271 1059q32 0 54 -22.5t22 -54.5t-22 -54.5t-54 -22.5t-54.5 22.5t-22.5 54.5t22.5 54.5t54.5 22.5z" />
    <glyph glyph-name="semicolon" unicode=";" horiz-adv-x="540" 
d="M271 1062q32 0 54 -22.5t22 -54.5t-22 -54.5t-54 -22.5t-54.5 22.5t-22.5 54.5t22.5 54.5t54.5 22.5zM245 -8q-23 9 -35.5 27.5t-12.5 41.5q0 32 22 54t54 22q30 0 53 -21t23 -55q0 -18 -6.5 -34t-14.5 -34l-95 -226h-66z" />
    <glyph glyph-name="less" unicode="&#x3c;" horiz-adv-x="972" 
d="M895 1075v-85l-742 -335l742 -336v-86l-818 372v99z" />
    <glyph glyph-name="equal" unicode="=" horiz-adv-x="972" 
d="M77 478h818v-77h-818v77zM77 884h818v-77h-818v77z" />
    <glyph glyph-name="greater" unicode="&#x3e;" horiz-adv-x="972" 
d="M77 233v86l742 335l-742 336v85l818 -372v-98z" />
    <glyph glyph-name="question" unicode="?" horiz-adv-x="1123" 
d="M455 -8q-35 0 -59 24t-24 58t24 58t59 24t58.5 -24t23.5 -58t-23.5 -58t-58.5 -24zM407 381q-18 36 -25 67.5t-7 58.5q0 39 15 70t40 57t58 48.5t69 44.5l170 102q60 36 95.5 91.5t35.5 133.5q0 58 -23 107t-67.5 84t-109.5 55t-149 20q-136 0 -234.5 -41.5
t-168.5 -123.5l-75 58q81 95 201 146t282 51q102 0 185 -24.5t141 -69t89.5 -108t31.5 -141.5q0 -105 -43.5 -177t-113.5 -114l-178 -108q-31 -19 -58.5 -37t-48 -38.5t-32.5 -43.5t-12 -52q0 -42 22 -92z" />
    <glyph glyph-name="at" unicode="@" horiz-adv-x="1991" 
d="M1452 227q0 -38 10.5 -67.5t28 -50t41.5 -31.5t51 -11q51 0 94 33t74 93t48.5 144.5t17.5 187.5q0 178 -59.5 329t-167 261.5t-257 172.5t-328.5 62q-119 0 -227 -28t-200.5 -80.5t-167 -126t-127.5 -165t-81.5 -198.5t-28.5 -225q0 -170 61 -314t168.5 -249t255 -164
t321.5 -59q43 0 91.5 7t97.5 19.5t95 30.5t83 41l38 -72q-40 -24 -90.5 -43.5t-104.5 -34t-108.5 -22t-101.5 -7.5q-128 0 -243.5 29.5t-214.5 84t-179 132.5t-136 174t-86.5 209t-30.5 238q0 130 31.5 247t89.5 217.5t140.5 181.5t184 137.5t220.5 87.5t250 31
q130 0 246.5 -30.5t216 -87.5t179.5 -137.5t136.5 -180.5t87 -218t30.5 -248q0 -121 -23.5 -220t-66.5 -168.5t-103.5 -107.5t-134.5 -38q-41 0 -76.5 14t-62.5 40t-43.5 64t-19.5 86l-1 100q-29 -62 -72 -111t-97.5 -83.5t-119 -53t-136.5 -18.5q-103 0 -193 37.5
t-156.5 104t-104.5 159t-38 202.5q0 108 36 201t100 161t153 106.5t195 38.5q77 0 143.5 -20.5t120 -55.5t92.5 -81.5t60 -98.5v247h99v-805zM951 949q-86 0 -158 -31t-124.5 -86.5t-81.5 -130.5t-29 -164t29 -165t81.5 -131.5t125 -87t159.5 -31.5t160 31.5t125.5 87
t81.5 131.5t29 165t-29.5 164t-82 130.5t-126 86.5t-160.5 31z" />
    <glyph glyph-name="A" unicode="A" horiz-adv-x="1408" 
d="M647 1400h110l637 -1400h-115l-176 393h-801l-174 -393h-114zM1061 486l-361 804l-356 -804h717z" />
    <glyph glyph-name="B" unicode="B" horiz-adv-x="1447" 
d="M811 1400q104 0 185.5 -23.5t138 -68t86.5 -109t30 -146.5q0 -128 -69.5 -212t-196.5 -108q79 -11 141 -40.5t105 -75.5t65.5 -106.5t22.5 -133.5q0 -89 -34 -159t-98.5 -118.5t-158.5 -74t-213 -25.5h-583v1400h579zM807 94q96 0 171.5 19.5t127.5 57t79.5 92.5
t27.5 125q0 69 -27.5 122.5t-79.5 90.5t-127.5 56t-171.5 19h-470v-582h470zM807 770q161 0 249 70t88 200q0 127 -88 197t-249 69h-470v-536h470z" />
    <glyph glyph-name="C" unicode="C" horiz-adv-x="1406" 
d="M1249 1145q-86 83 -198 128.5t-236 45.5q-85 0 -164.5 -22t-148.5 -62t-125.5 -96.5t-97 -125t-62.5 -147.5t-22 -164t22 -163.5t62.5 -147t97 -125t125.5 -97t148.5 -62.5t164.5 -22q123 0 234.5 45t199.5 126l65 -66q-50 -46 -108 -83t-122.5 -62.5t-133 -39.5
t-139.5 -14q-100 0 -192 25.5t-172.5 71.5t-146.5 111t-112.5 144t-72.5 169.5t-26 188.5t26 189t73 169.5t113 143t146.5 111t173.5 71.5t193 25q143 0 271 -51t227 -142z" />
    <glyph glyph-name="D" unicode="D" horiz-adv-x="1599" 
d="M791 1400q101 0 193.5 -24.5t172 -70t145 -109t111.5 -141t71.5 -168t25.5 -188.5t-25.5 -187.5t-72 -167.5t-111.5 -141.5t-145.5 -108.5t-173 -69.5t-193.5 -24.5h-557v1400h559zM793 94q127 0 238.5 47t194 128.5t130.5 192t48 237.5q0 128 -48 238.5t-131.5 192.5
t-195.5 129t-240 47h-452v-1212h456z" />
    <glyph glyph-name="E" unicode="E" horiz-adv-x="1297" 
d="M232 1400h917v-94h-812v-544h724v-93h-724v-575h839v-94h-944v1400z" />
    <glyph glyph-name="F" unicode="F" horiz-adv-x="1111" 
d="M232 1400h857v-94h-752v-588h668v-93h-668v-625h-105v1400z" />
    <glyph glyph-name="G" unicode="G" horiz-adv-x="1513" 
d="M1255 1150q-88 80 -200 123.5t-237 43.5q-86 0 -166 -22t-149 -62t-126 -96.5t-97.5 -124.5t-62.5 -146.5t-22 -163.5q0 -128 49 -241t133.5 -197t198.5 -132.5t243 -48.5q108 0 209.5 35t186.5 98v437h-542v94h643v-572q-50 -42 -108.5 -76t-123 -58t-133 -37
t-138.5 -13q-100 0 -192.5 25.5t-173 71.5t-146.5 111t-113 144t-73 170t-26 189t26 188.5t73.5 169t113.5 143t147 110.5t174.5 71t194.5 25q143 0 271.5 -50t227.5 -138z" />
    <glyph glyph-name="H" unicode="H" horiz-adv-x="1594" 
d="M232 1400h105v-653h920v653h105v-1400h-105v653h-920v-653h-105v1400z" />
    <glyph glyph-name="I" unicode="I" horiz-adv-x="569" 
d="M232 1400h105v-1400h-105v1400z" />
    <glyph glyph-name="J" unicode="J" horiz-adv-x="946" 
d="M747 407q0 -199 -97.5 -304.5t-277.5 -105.5q-111 0 -205 51t-164 146l56 76q64 -85 144 -129.5t168 -44.5q131 0 200.5 79.5t69.5 233.5v991h106v-993z" />
    <glyph glyph-name="K" unicode="K" horiz-adv-x="1373" 
d="M232 1400h105v-890l814 890h130l-570 -618l611 -782h-131l-553 702l-301 -326v-376h-105v1400z" />
    <glyph glyph-name="L" unicode="L" horiz-adv-x="1012" 
d="M232 1400h105v-1306h620v-94h-725v1400z" />
    <glyph glyph-name="M" unicode="M" horiz-adv-x="1873" 
d="M232 1400h138l569 -1090l564 1090h138v-1400h-99l-2 1265l-577 -1114h-52l-580 1114v-1265h-99v1400z" />
    <glyph glyph-name="N" unicode="N" horiz-adv-x="1595" 
d="M232 1400h117l909 -1249v1249h104v-1400h-117l-908 1248v-1248h-105v1400z" />
    <glyph glyph-name="O" unicode="O" 
d="M816 1410q101 0 194 -25t173.5 -71t147 -110.5t113.5 -143t73 -169t26 -188.5t-26 -189.5t-73 -170.5t-113.5 -144t-147 -111t-173.5 -71.5t-194 -25.5q-100 0 -193 25.5t-174 71.5t-147.5 111t-113.5 144t-73 170.5t-26 189.5t26 188.5t73 169t113.5 143t147.5 110.5
t174 71t193 25zM817 1317q-85 0 -164 -22t-148 -62t-126 -96t-97.5 -124.5t-63 -146.5t-22.5 -163t22.5 -164t63 -148t97.5 -125.5t126 -97t148 -62.5t164 -22t164 22t147.5 62.5t125 97t97 125.5t62.5 148t22 164t-22 163t-62.5 146.5t-97 124.5t-125 96t-147.5 62t-164 22
z" />
    <glyph glyph-name="P" unicode="P" horiz-adv-x="1333" 
d="M735 1400q129 0 229.5 -31t170 -90t105.5 -145t36 -196q0 -113 -36 -201.5t-105.5 -149t-170 -92.5t-229.5 -32h-398v-463h-105v1400h503zM731 557q106 0 188.5 25t139 73t86 118.5t29.5 162.5q0 90 -29.5 159t-86 116t-139 71t-188.5 24h-394v-749h394z" />
    <glyph glyph-name="Q" unicode="Q" horiz-adv-x="1608" 
d="M1269 146q-94 -73 -209 -114t-245 -41q-100 0 -193 25.5t-174 71.5t-147 111t-113 144t-73 170t-26 189q0 147 57 275.5t155.5 224.5t230.5 151.5t283 55.5t283 -55.5t230.5 -151.5t155.5 -224.5t57 -275.5q0 -145 -54 -271t-149 -223l192 -182l-64 -66zM816 1315
q-85 0 -164 -22t-148 -62t-125.5 -96t-97 -124t-63 -146.5t-22.5 -162.5q0 -85 22.5 -164t63 -147.5t97.5 -125t125.5 -97t147.5 -62.5t164 -22q108 0 204 34.5t175 96.5l-328 310l63 67l334 -315q79 84 124.5 192.5t45.5 232.5q0 127 -49 238.5t-133 195t-196.5 131.5
t-239.5 48z" />
    <glyph glyph-name="R" unicode="R" horiz-adv-x="1446" 
d="M738 1400q130 0 231.5 -31t171 -90t106 -145t36.5 -196q0 -177 -87 -291.5t-251 -158.5l346 -488h-123l-322 469q-51 -6 -108 -6h-401v-463h-105v1400h506zM738 557q105 0 187.5 25t139.5 73t86.5 118.5t29.5 162.5q0 90 -29.5 159t-86.5 116t-139.5 71t-187.5 24h-401
v-749h401z" />
    <glyph glyph-name="S" unicode="S" horiz-adv-x="1207" 
d="M984 1208q-39 25 -84.5 44.5t-94 33t-98 20.5t-96.5 7q-36 0 -76 -5t-78.5 -16t-73 -28.5t-61 -43.5t-42 -61t-15.5 -80q0 -79 35 -131t92 -87t129.5 -59t148.5 -47.5t148.5 -52t129.5 -73t92 -110t35 -163.5q0 -100 -45 -169.5t-116.5 -113t-159 -63t-173.5 -19.5
q-69 0 -138.5 14t-135.5 40.5t-126 65t-109 87.5l53 83q44 -44 97.5 -79.5t113 -60.5t122.5 -38.5t125 -13.5t129 13t122.5 43.5t91 81t35.5 125.5q0 65 -22.5 112t-61.5 81t-91 58t-110.5 43.5t-120 37.5t-120 40t-110.5 50.5t-91 69.5t-61.5 97t-22.5 133q0 62 20 111.5
t54.5 86.5t80.5 63.5t98 43.5t107 24.5t107 7.5q53 0 107.5 -7.5t108 -22t103.5 -36t94 -50.5z" />
    <glyph glyph-name="T" unicode="T" horiz-adv-x="1089" 
d="M23 1400h1042v-94h-468v-1306h-106v1306h-468v94z" />
    <glyph glyph-name="U" unicode="U" horiz-adv-x="1539" 
d="M304 567q0 -115 32 -204.5t92 -151.5t146.5 -94.5t196.5 -32.5t196 32.5t145.5 94t91 151.5t31.5 205v833h106v-833q0 -136 -38.5 -243.5t-112 -181t-179 -112.5t-240.5 -39t-241 39t-179.5 112.5t-112.5 181t-39 243.5v833h105v-833z" />
    <glyph glyph-name="V" unicode="V" horiz-adv-x="1296" 
d="M15 1400h116l517 -1287l519 1287h114l-580 -1400h-110z" />
    <glyph glyph-name="W" unicode="W" horiz-adv-x="2026" 
d="M15 1400h116l416 -1289l414 1289h108l416 -1289l414 1289h112l-474 -1400h-110l-413 1268l-416 -1268h-109z" />
    <glyph glyph-name="X" unicode="X" horiz-adv-x="1293" 
d="M91 1400h124l420 -593l424 593h124l-482 -673l521 -727h-126l-461 641l-457 -641h-124l518 723z" />
    <glyph glyph-name="Y" unicode="Y" horiz-adv-x="1234" 
d="M569 511l-555 889h111l496 -778l487 778h112l-547 -886v-514h-104v511z" />
    <glyph glyph-name="Z" unicode="Z" horiz-adv-x="1312" 
d="M121 1400h1089v-87l-983 -1219h990v-94h-1123v87l983 1219h-956v94z" />
    <glyph glyph-name="bracketleft" unicode="[" horiz-adv-x="598" 
d="M199 1484h350v-85h-255v-1562h255v-85h-350v1732z" />
    <glyph glyph-name="backslash" unicode="\" horiz-adv-x="613" 
d="M611 1646h93l-619 -1898h-94z" />
    <glyph glyph-name="bracketright" unicode="]" horiz-adv-x="598" 
d="M399 -248h-350v85h255v1562h-255v85h350v-1732z" />
    <glyph glyph-name="asciicircum" unicode="^" horiz-adv-x="995" 
d="M919 604h-86l-335 723l-336 -723h-85l372 796h98z" />
    <glyph glyph-name="underscore" unicode="_" horiz-adv-x="1093" 
d="M0 -337h1093v-71h-1093v71z" />
    <glyph glyph-name="grave" unicode="`" horiz-adv-x="683" 
d="M268 1489l247 -237l-98 -13l-253 204z" />
    <glyph glyph-name="a" unicode="a" horiz-adv-x="1140" 
d="M867 197q-66 -103 -170 -151.5t-237 -48.5q-79 0 -143 23.5t-110 64.5t-71 97.5t-25 122.5t27 118.5t77.5 89.5t122.5 56.5t163 19.5h364v96q-1 129 -76.5 202.5t-227.5 73.5q-95 0 -179 -35t-167 -98l-47 71q48 34 94.5 61.5t96 46.5t103.5 29t116 10q94 0 166 -24.5
t121.5 -70.5t75 -111.5t26.5 -146.5l3 -693h-102zM477 82q143 0 244.5 64.5t144.5 197.5v163h-353q-149 0 -226 -50t-77 -149q0 -50 18.5 -91.5t53.5 -71.5t84.5 -46.5t110.5 -16.5z" />
    <glyph glyph-name="b" unicode="b" horiz-adv-x="1328" 
d="M196 1484h103v-702q29 62 72.5 110.5t98.5 83t121 52.5t140 18q110 0 202.5 -39t159.5 -109t104.5 -166.5t37.5 -211.5q0 -114 -37 -210t-103.5 -165.5t-159 -108.5t-202.5 -39q-75 0 -141 18.5t-121.5 52.5t-99 83t-72.5 110v-261h-103v1484zM715 959q-91 0 -167 -32.5
t-131.5 -91t-86.5 -138.5t-31 -175t31 -175t86.5 -138t131.5 -90.5t167 -32.5t167 32.5t131.5 90.5t86.5 138t31 175t-31 175t-86.5 138t-131.5 91t-167 33z" />
    <glyph glyph-name="c" unicode="c" horiz-adv-x="1119" 
d="M928 831q-62 59 -141.5 92t-177.5 33q-90 0 -166 -32t-131 -89t-86 -137t-31 -176q0 -97 31 -177t86 -137.5t131 -89.5t166 -32q106 0 191.5 37t145.5 106l60 -60q-69 -81 -170.5 -126.5t-229.5 -45.5q-111 0 -205.5 38.5t-162.5 108.5t-106.5 166.5t-38.5 211.5
t38.5 211.5t106.5 166t162.5 108t205.5 38.5q118 0 215 -39t166 -108z" />
    <glyph glyph-name="d" unicode="d" horiz-adv-x="1335" 
d="M1035 260q-29 -62 -72.5 -111t-99 -83.5t-122 -53t-141.5 -18.5q-111 0 -204.5 39.5t-160.5 109.5t-104.5 167t-37.5 212q0 116 37.5 212.5t105 166.5t160 109t203.5 39q152 0 264.5 -71t171.5 -196v702h104v-1484h-104v260zM616 961q-91 0 -168 -33t-133 -92
t-87.5 -139.5t-31.5 -176.5t31.5 -176.5t87 -139t132.5 -91t169 -32.5t168.5 32.5t132.5 91t87 139t31 176.5t-31 176.5t-87 139.5t-132.5 92t-168.5 33z" />
    <glyph glyph-name="e" unicode="e" horiz-adv-x="1177" 
d="M194 493q5 -92 38 -167.5t88.5 -129.5t129.5 -83.5t162 -29.5q105 0 193 36.5t151 105.5l59 -60q-73 -80 -177.5 -124t-231.5 -44q-112 0 -206.5 38.5t-162.5 108.5t-106 166.5t-38 211.5t38 211t106.5 165.5t162 108.5t204.5 39q119 0 211 -40.5t154.5 -113t93 -174.5
t27.5 -225h-896zM605 961q-85 0 -156.5 -28t-125.5 -79t-87 -122t-41 -157h802q-6 87 -35.5 158t-80.5 121.5t-120.5 78.5t-155.5 28z" />
    <glyph glyph-name="f" unicode="f" horiz-adv-x="727" 
d="M227 962h-133v81h133v146q0 77 26 139.5t69.5 106.5t101 68t120.5 24q45 0 89.5 -13.5t83.5 -34.5l-30 -82q-32 17 -68 28.5t-73 11.5q-45 0 -84.5 -17t-69 -48.5t-46 -75.5t-16.5 -98v-155h317v-81h-317v-962h-103v962z" />
    <glyph glyph-name="g" unicode="g" horiz-adv-x="1267" 
d="M1091 113q0 -116 -36.5 -209t-103.5 -158t-161.5 -100.5t-210.5 -35.5q-125 0 -228 43t-196 124l51 71q81 -75 170 -113t200 -38q94 0 170 29t130 83t83.5 130.5t29.5 171.5v184q-57 -118 -164 -185.5t-251 -67.5q-105 0 -193.5 37.5t-152.5 104t-99.5 159t-35.5 201.5
q0 110 35.5 202t99 158.5t151 104t192.5 37.5q146 0 253.5 -67.5t164.5 -186.5v251h102v-930zM589 962q-87 0 -160 -31.5t-126 -87.5t-83 -133t-30 -168q0 -90 30 -166.5t82.5 -132t126 -87t160.5 -31.5t160.5 31.5t126.5 87t83 132t30 166.5q0 91 -30 168t-83 133
t-126.5 87.5t-160.5 31.5z" />
    <glyph glyph-name="h" unicode="h" horiz-adv-x="1295" 
d="M1022 617q0 79 -22.5 141t-65 105t-103.5 65.5t-138 22.5q-93 -1 -166 -33t-124 -89t-77.5 -138t-26.5 -180v-511h-103v1484h103v-706q53 131 161 198.5t263 69.5q95 0 169.5 -28t126.5 -80.5t79 -128.5t27 -172v-637h-103v617z" />
    <glyph glyph-name="i" unicode="i" horiz-adv-x="509" 
d="M203 1043h103v-1043h-103v1043zM254 1423q33 0 56.5 -23t23.5 -57q0 -33 -23.5 -56t-56.5 -23t-56 23t-23 56q0 34 23 57t56 23z" />
    <glyph glyph-name="j" unicode="j" horiz-adv-x="475" 
d="M-85 -279q50 -20 105 -23q54 -1 88.5 22t54 60t26.5 83t7 90v1090h103v-1101q0 -165 -67.5 -249t-195.5 -82q-80 3 -148 31zM247 1423q33 0 56.5 -23t23.5 -57q0 -33 -23.5 -56t-56.5 -23t-56 23t-23 56q0 34 23 57t56 23z" />
    <glyph glyph-name="k" unicode="k" horiz-adv-x="1103" 
d="M203 1484h103v-1046l595 605h126l-395 -404l445 -639h-123l-393 567l-255 -261v-306h-103v1484z" />
    <glyph glyph-name="l" unicode="l" horiz-adv-x="551" 
d="M288 225q0 -69 27 -102.5t78 -33.5q27 0 56 13.5t58 39.5l28 -77q-41 -33 -82.5 -50.5t-80.5 -17.5q-85 0 -135 55t-50 164v1268h101v-1259z" />
    <glyph glyph-name="m" unicode="m" horiz-adv-x="2090" 
d="M1011 617q0 79 -22 141.5t-63.5 105.5t-101.5 65.5t-135 22.5q-90 -2 -161 -34t-120.5 -89t-75.5 -137.5t-26 -179.5v-512h-103v1043h103v-262q52 130 157.5 196.5t256.5 68.5q156 0 255 -77t128 -217q48 144 156.5 218t266.5 76q93 0 166 -28t124 -80.5t77.5 -128.5
t26.5 -172v-637h-103v617q0 79 -22 141.5t-63.5 105.5t-101 65.5t-135.5 22.5q-90 -2 -161 -34t-119.5 -89t-74.5 -137.5t-26 -179.5v-512h-103v617z" />
    <glyph glyph-name="n" unicode="n" horiz-adv-x="1301" 
d="M1027 617q0 79 -22.5 141t-64.5 105t-103 65.5t-139 22.5q-87 -1 -156 -29t-119 -78t-79.5 -121t-36.5 -159v-564h-104v1043h104v-260q53 129 160 195t261 68q95 0 170 -28t126.5 -80.5t79 -128.5t27.5 -172v-637h-104v617z" />
    <glyph glyph-name="o" unicode="o" horiz-adv-x="1225" 
d="M613 1046q113 0 208 -38.5t164 -108t108 -165.5t39 -211t-39 -212t-108 -166.5t-164 -108.5t-208 -39t-208.5 39t-164.5 108.5t-108 166.5t-39 212t39 211t108 165.5t164.5 108t208.5 38.5zM613 957q-91 0 -167.5 -32t-132 -89.5t-86.5 -137.5t-31 -176q0 -97 31 -177.5
t86.5 -138t132 -89.5t167.5 -32t167 32t131.5 89.5t86.5 138t31 177.5q0 96 -31 176t-86.5 137.5t-131.5 89.5t-167 32z" />
    <glyph glyph-name="p" unicode="p" horiz-adv-x="1328" 
d="M196 1043h103v-261q29 62 72.5 110.5t98.5 83t121 52.5t140 18q110 0 202.5 -39t159.5 -109t104.5 -166.5t37.5 -211.5q0 -114 -37 -210t-103.5 -165.5t-159 -108.5t-202.5 -39q-75 0 -141 18.5t-121.5 52.5t-99 83t-72.5 110v-649h-103v1431zM715 959q-91 0 -167 -32.5
t-131.5 -91t-86.5 -138.5t-31 -175t31 -175t86.5 -138t131.5 -90.5t167 -32.5t167 32.5t131.5 90.5t86.5 138t31 175t-31 175t-86.5 138t-131.5 91t-167 33z" />
    <glyph glyph-name="q" unicode="q" horiz-adv-x="1329" 
d="M1035 260q-29 -62 -72.5 -111t-99 -83.5t-122 -53t-141.5 -18.5q-111 0 -204.5 39.5t-160.5 109.5t-104.5 167t-37.5 212q0 116 37.5 212.5t105 166.5t160 109t203.5 39q152 0 264.5 -71t171.5 -196v261h104v-1431h-104v648zM616 961q-91 0 -168 -33t-133 -92
t-87.5 -139.5t-31.5 -176.5t31.5 -176.5t87 -139t132.5 -91t169 -32.5t168.5 32.5t132.5 91t87 139t31 176.5t-31 176.5t-87 139.5t-132.5 92t-168.5 33z" />
    <glyph glyph-name="r" unicode="r" horiz-adv-x="713" 
d="M203 1043h104v-256q50 125 148 191t238 68v-96q-85 0 -153.5 -27t-118 -77.5t-78.5 -122t-36 -161.5v-562h-104v1043z" />
    <glyph glyph-name="s" unicode="s" horiz-adv-x="883" 
d="M725 885q-57 35 -126.5 55.5t-144.5 20.5q-52 0 -96.5 -10t-77.5 -31.5t-52 -54t-19 -77.5q0 -51 26 -85t68.5 -58t96.5 -41t110.5 -34.5t110.5 -39t96.5 -54t68 -80t25.5 -116.5q0 -73 -30.5 -126.5t-81.5 -88.5t-117.5 -51.5t-138.5 -16.5q-112 0 -214 37.5t-175 108.5
l45 72q67 -64 158.5 -99t189.5 -35q53 0 100 11t82.5 34t57.5 58t23 83q2 54 -23.5 90t-67.5 61t-96 42.5t-110.5 35.5t-111 39t-97.5 53t-69 78.5t-26 113.5q0 69 28.5 119.5t76.5 83.5t111.5 48.5t133.5 15.5q89 0 167 -23.5t141 -61.5z" />
    <glyph glyph-name="t" unicode="t" horiz-adv-x="754" 
d="M341 1043h348v-81h-348v-661q0 -109 40.5 -161t117.5 -51q90 3 174 60l35 -76q-51 -36 -107 -55.5t-116 -20.5q-67 -1 -114 21.5t-76 62.5t-42.5 93t-13.5 114v674h-152v81h152v235h102v-235z" />
    <glyph glyph-name="u" unicode="u" horiz-adv-x="1285" 
d="M271 426q0 -79 22 -141t63.5 -105t101.5 -65.5t136 -22.5q90 2 161.5 34t121 89t75.5 137.5t26 179.5v511h103v-1043h-103v268q-51 -133 -156 -200.5t-257 -70.5q-94 0 -167.5 28t-124.5 81t-78 128.5t-27 171.5v637h103v-617z" />
    <glyph glyph-name="v" unicode="v" horiz-adv-x="958" 
d="M14 1043h111l365 -942l363 942h108l-418 -1043h-109z" />
    <glyph glyph-name="w" unicode="w" horiz-adv-x="1686" 
d="M14 1043h111l338 -942l334 942h111l337 -942l336 942h108l-392 -1043h-108l-336 920l-338 -920h-108z" />
    <glyph glyph-name="x" unicode="x" horiz-adv-x="1021" 
d="M79 1043h120l310 -434l312 434h116l-361 -504l387 -539h-121l-334 467l-339 -467h-118l390 539z" />
    <glyph glyph-name="y" unicode="y" horiz-adv-x="962" 
d="M481 -150q-48 -118 -123.5 -179.5t-171.5 -61.5q-120 0 -205 64l45 79q69 -48 154 -48q69 0 124 46.5t91 135.5l47 116l-432 1041h110l374 -932l363 932h108z" />
    <glyph glyph-name="z" unicode="z" horiz-adv-x="1038" 
d="M131 1043l799 -2v-82l-696 -874l711 -1v-86l-832 2v83l696 873l-678 2v85z" />
    <glyph glyph-name="braceleft" unicode="{" horiz-adv-x="653" 
d="M175 659q52 0 77 32t25 101v473q0 116 64 168t204 52h35v-85q-110 0 -158.5 -38t-48.5 -119v-447q0 -41 -7 -69t-21.5 -48t-35.5 -34.5t-49 -28.5q28 -14 49 -28.5t35.5 -34.5t21.5 -48t7 -69v-447q0 -81 48.5 -118.5t158.5 -37.5v-85h-35q-140 0 -204 52t-64 168v473
q0 69 -25 100.5t-77 31.5h-46v86h46z" />
    <glyph glyph-name="bar" unicode="|" horiz-adv-x="473" 
d="M194 1639h85v-1889h-85v1889z" />
    <glyph glyph-name="braceright" unicode="}" horiz-adv-x="653" 
d="M524 659v-86h-46q-52 0 -77 -31.5t-25 -100.5v-473q0 -116 -64 -168t-204 -52h-35v85q110 0 158.5 37.5t48.5 118.5v447q0 41 7.5 69t21.5 48t35 34.5t49 28.5q-28 14 -49 28.5t-35 34.5t-21.5 48t-7.5 69v447q0 81 -48.5 119t-158.5 38v85h35q140 0 204 -52t64 -168
v-473q0 -69 25 -101t77 -32h46z" />
    <glyph glyph-name="asciitilde" unicode="~" horiz-adv-x="972" 
d="M819 724q0 -96 -40.5 -146.5t-117.5 -50.5q-50 0 -94.5 20.5t-85 45.5t-78.5 45.5t-76 20.5q-45 0 -68.5 -30t-23.5 -85h-80q0 96 40.5 146.5t117.5 50.5q45 0 89.5 -20.5t86.5 -45.5t81.5 -45.5t76.5 -20.5q45 0 69 30t24 85h79z" />
    <glyph glyph-name="uni00A0" unicode="&#xa0;" horiz-adv-x="580" 
 />
    <glyph glyph-name="exclamdown" unicode="&#xa1;" horiz-adv-x="396" 
d="M248 -276h-100v331l13 642h74l13 -642v-331zM198 955q-32 0 -54.5 22.5t-22.5 54.5t22.5 54.5t54.5 22.5t54.5 -22.5t22.5 -54.5t-22.5 -54.5t-54.5 -22.5z" />
    <glyph glyph-name="cent" unicode="&#xa2;" horiz-adv-x="1200" 
d="M567 -1q-104 7 -191 48t-150 110t-98 162t-35 203t35 202.5t98 161.5t150 110.5t191 48.5v282h85v-283q103 -7 188 -44.5t148 -100.5l-59 -68q-62 59 -142 92t-177 33q-90 0 -166 -32t-131.5 -89t-86.5 -137t-31 -176q0 -97 31 -177t86.5 -137.5t131.5 -89.5t166 -32
q105 0 191 37t146 106l60 -60q-63 -74 -153 -118t-202 -52v-278h-85v278z" />
    <glyph glyph-name="sterling" unicode="&#xa3;" horiz-adv-x="1075" 
d="M646 1403q108 0 202 -49t163 -142l-50 -76q-62 85 -140 129.5t-167 44.5q-134 0 -204 -81t-70 -237v-271h372v-66h-372v-568h609v-87h-895v87h181v568h-181v66h181v272q0 199 95.5 304.5t275.5 105.5z" />
    <glyph glyph-name="currency" unicode="&#xa4;" horiz-adv-x="1442" 
d="M155 1264l214 -214q72 58 162 91t190 33q101 0 191 -32.5t162 -90.5l213 213l62 -62l-210 -212q66 -72 102.5 -162.5t36.5 -193.5q0 -102 -37 -192t-103 -161l211 -213l-62 -62l-214 214q-72 -57 -162 -89t-190 -32t-189 32.5t-161 90.5l-216 -216l-62 62l213 215
q-64 71 -100.5 160.5t-36.5 190.5q0 102 36 192t100 162l-212 214zM721 1087q-96 0 -180.5 -36t-147.5 -97.5t-99.5 -144t-36.5 -175.5q0 -92 36.5 -173.5t99.5 -142t147.5 -96t180.5 -35.5q97 0 182.5 35.5t149.5 96t101 142t37 173.5q0 93 -37 175.5t-101 144t-149.5 97.5
t-182.5 36z" />
    <glyph glyph-name="yen" unicode="&#xa5;" horiz-adv-x="1233" 
d="M141 569h390l-518 831h112l494 -779l488 779h112l-513 -831h395v-67h-428v-160h428v-67h-428v-275h-106v275h-426v67h426v160h-426v67z" />
    <glyph glyph-name="brokenbar" unicode="&#xa6;" horiz-adv-x="473" 
d="M194 452h85v-702h-85v702zM194 1639h85v-701h-85v701z" />
    <glyph glyph-name="section" unicode="&#xa7;" horiz-adv-x="907" 
d="M745 1235q-59 38 -127.5 57t-142.5 19q-58 0 -106 -12t-82.5 -34.5t-53 -56t-18.5 -75.5q0 -53 26.5 -88.5t70.5 -60.5t99.5 -43t114 -36t114 -39.5t99.5 -53t70.5 -77.5t26.5 -112q0 -55 -21 -100t-54.5 -78.5t-75.5 -55t-84 -28.5q114 -41 166 -101t52 -148
q0 -63 -27.5 -113.5t-76.5 -86.5t-117 -55.5t-149 -19.5q-119 0 -221 40t-174 108l42 64q73 -65 162.5 -99.5t186.5 -34.5q58 0 109 13.5t89 38.5t60 61.5t22 82.5q0 53 -26.5 88.5t-70 60.5t-99 43.5t-113.5 36.5t-113.5 40t-99 54t-70 78t-26.5 112q0 52 19 94t55 73.5
t87.5 51.5t115.5 28q-71 24 -120.5 51t-81 58.5t-45.5 68.5t-14 80q0 60 25.5 108t71.5 81.5t111 51.5t143 18q172 0 311 -87zM461 809q-60 0 -108.5 -12.5t-82.5 -35t-52.5 -54t-18.5 -69.5q0 -45 24.5 -85t66 -70t96 -48t113.5 -18q53 0 97.5 14.5t77 40t51 62t18.5 79.5
q0 44 -19.5 80t-56 61.5t-89 40t-117.5 14.5z" />
    <glyph glyph-name="dieresis" unicode="&#xa8;" horiz-adv-x="631" 
d="M177 1417q31 0 52.5 -21t21.5 -53t-21.5 -54t-52.5 -22q-32 0 -54 22t-22 54t22 53t54 21zM495 1417q32 0 53.5 -21t21.5 -53t-21.5 -54t-53.5 -22t-53.5 22t-21.5 54t21.5 53t53.5 21z" />
    <glyph glyph-name="copyright" unicode="&#xa9;" horiz-adv-x="1533" 
d="M993 909q-44 41 -99 63.5t-117 22.5q-64 0 -119.5 -23.5t-96.5 -63.5t-65 -94t-24 -115q0 -62 24 -116.5t65 -95t96.5 -64t119.5 -23.5q60 0 116 22t100 62l41 -42q-52 -48 -119.5 -76t-141.5 -28q-76 0 -143.5 28t-117 77t-78.5 114.5t-29 140.5q0 74 29 139t79.5 113.5
t118 76.5t144.5 28q72 0 139.5 -26.5t118.5 -73.5zM767 1378q143 0 266 -53.5t214.5 -146t143.5 -215.5t52 -263q0 -92 -24 -178.5t-67.5 -162.5t-105 -138.5t-137 -107.5t-163.5 -70t-183 -25t-182 24.5t-162 69t-135.5 106.5t-104 137.5t-67 162t-23.5 178.5
q0 93 23.5 179t67 162t105 138.5t137 107.5t163 70t182.5 25zM767 1313q-130 0 -242.5 -49t-194.5 -133t-129 -196.5t-47 -238.5t46.5 -238t128.5 -195t193 -131.5t241 -48.5q87 0 166.5 22.5t148 63t124 97t95 125t61 147t21.5 162.5q0 127 -47 238.5t-129.5 195
t-194 131.5t-241.5 48z" />
    <glyph glyph-name="ordfeminine" unicode="&#xaa;" horiz-adv-x="753" 
d="M547 936q-40 -63 -103 -93t-146 -30q-47 0 -85.5 13t-65.5 37t-42 57t-15 73q0 78 63.5 121.5t175.5 43.5h217v54q0 72 -45 112.5t-135 40.5q-57 0 -110 -19.5t-107 -54.5l-25 57q61 37 125.5 59.5t133.5 22.5q117 0 180 -56.5t63 -154.5l1 -404h-79zM321 871
q78 0 135.5 31t90.5 106v95h-204q-85 0 -130.5 -25t-45.5 -80q0 -57 42 -92t112 -35z" />
    <glyph glyph-name="guillemotleft" unicode="&#xab;" horiz-adv-x="812" 
d="M315 825h96l-215 -323l215 -319h-96l-222 319zM586 825h96l-215 -323l215 -319h-96l-222 319z" />
    <glyph glyph-name="logicalnot" unicode="&#xac;" horiz-adv-x="1086" 
d="M77 747h834v-436h-83v360h-751v76z" />
    <glyph glyph-name="uni00AD" unicode="&#xad;" horiz-adv-x="721" 
d="M134 641h453v-77h-453v77z" />
    <glyph glyph-name="registered" unicode="&#xae;" horiz-adv-x="1533" 
d="M767 1378q143 0 266 -53.5t214.5 -146t143.5 -215.5t52 -263q0 -92 -24 -178.5t-67.5 -162.5t-105 -138.5t-137 -107.5t-163.5 -70t-183 -25t-182 24.5t-162 69t-135.5 106.5t-104 137.5t-67 162t-23.5 178.5q0 93 23.5 179t67 162t105 138.5t137 107.5t163 70t182.5 25z
M767 1313q-130 0 -242.5 -49t-194.5 -133t-129 -196.5t-47 -238.5t46.5 -238t128.5 -195t193 -131.5t241 -48.5q87 0 166.5 22.5t148 63t124 97t95 125t61 147t21.5 162.5q0 127 -47 238.5t-129.5 195t-194 131.5t-241.5 48zM776 1077q138 0 211.5 -62.5t73.5 -177.5
q0 -91 -44 -151.5t-128 -84.5l179 -252h-77l-164 240q-12 -1 -24.5 -1.5t-26.5 -0.5h-201v-238h-64v728h265zM776 644q106 0 164 50t58 142q0 91 -58 137t-164 46h-201v-375h201z" />
    <glyph glyph-name="macron" unicode="&#xaf;" horiz-adv-x="700" 
d="M81 1380h539v-73h-539v73z" />
    <glyph glyph-name="degree" unicode="&#xb0;" horiz-adv-x="631" 
d="M382 1601q47 0 88 -18t72.5 -48.5t49.5 -70.5t18 -85t-18 -85t-49.5 -70t-72.5 -47.5t-88 -17.5q-46 0 -87 17.5t-72 47.5t-49.5 70t-18.5 85t18 85t49 70.5t72.5 48.5t87.5 18zM382 1541q-34 0 -64.5 -13t-53 -35t-36 -51.5t-13.5 -62.5t13.5 -62.5t36 -51t53 -34.5
t64.5 -13q35 0 65.5 13t53.5 34.5t36.5 51t13.5 62.5t-13.5 62.5t-36.5 51.5t-53.5 35t-65.5 13z" />
    <glyph glyph-name="plusminus" unicode="&#xb1;" horiz-adv-x="972" 
d="M77 681h371v371h77v-371h370v-77h-370v-371h-77v371h-371v77zM77 165h818v-77h-818v77z" />
    <glyph glyph-name="twosuperior" unicode="&#xb2;" horiz-adv-x="670" 
d="M371 1139q59 62 92.5 118t33.5 105q0 69 -47.5 109t-133.5 40q-63 0 -128 -29.5t-118 -80.5l-40 62q63 57 139.5 88t155.5 31q49 0 96 -12t84 -37.5t59.5 -65t22.5 -95.5q0 -38 -15 -77t-38 -75t-51 -68.5t-54 -57.5l-285 -305h498v-69h-604v67z" />
    <glyph glyph-name="threesuperior" unicode="&#xb3;" horiz-adv-x="669" 
d="M205 1209h162q89 0 128 38.5t39 101.5q0 80 -56.5 120t-157.5 40q-55 0 -104.5 -15.5t-108.5 -49.5l-30 70q62 35 119 51t124 16q69 0 125.5 -14.5t96 -42.5t61 -70t21.5 -98q0 -65 -35.5 -113t-95.5 -69q36 -13 66 -32.5t51.5 -45.5t34 -58t12.5 -68q0 -60 -23.5 -110
t-67 -85.5t-106.5 -55.5t-142 -20q-39 0 -79.5 6t-79 17.5t-73.5 27t-65 34.5l41 67q55 -38 122 -59.5t132 -21.5q59 0 105.5 14.5t78.5 40t49 61.5t17 79q0 87 -66.5 131t-186.5 44h-108v69z" />
    <glyph glyph-name="acute" unicode="&#xb4;" horiz-adv-x="700" 
d="M428 1489l104 -46l-253 -204l-98 13z" />
    <glyph glyph-name="uni00B5" unicode="&#xb5;" horiz-adv-x="1330" 
d="M167 1044h100v-601q0 -84 21.5 -151t64.5 -113.5t107.5 -71t150.5 -24.5q91 0 162 29t120 82t75 128t26 166v556h100v-1044h-97v225q-51 -115 -150.5 -174t-232.5 -59q-120 0 -208.5 44.5t-138.5 132.5v-569h-100v1444z" />
    <glyph glyph-name="paragraph" unicode="&#xb6;" horiz-adv-x="1153" 
d="M421 799q-39 -3 -72 -3q-68 0 -119.5 16t-89 42t-63 61t-40.5 72t-21.5 75t-6.5 71q0 67 22.5 130t72 112t127.5 79t189 30h501v-1706h-86v1634h-330v-1634h-84v1021z" />
    <glyph glyph-name="periodcentered" unicode="&#xb7;" horiz-adv-x="377" 
d="M188 625q33 0 56.5 -23t23.5 -57q0 -33 -23.5 -56t-56.5 -23t-56 23t-23 56q0 34 23 57t56 23z" />
    <glyph glyph-name="cedilla" unicode="&#xb8;" horiz-adv-x="535" 
d="M274 35l77 -12l-33 -102q42 -3 72.5 -16.5t50.5 -34.5t29.5 -47t9.5 -54q0 -35 -13.5 -65.5t-39 -53.5t-61.5 -36.5t-82 -13.5q-42 0 -86.5 12t-75.5 31l27 70q24 -15 59 -25.5t67 -10.5q30 0 52 8.5t36.5 22.5t22 32t7.5 37q0 17 -7 33.5t-21 29t-34.5 20t-47.5 7.5h-60
z" />
    <glyph glyph-name="onesuperior" unicode="&#xb9;" horiz-adv-x="493" 
d="M376 720h-79v641h-238v65h238v136h79v-842z" />
    <glyph glyph-name="ordmasculine" unicode="&#xba;" horiz-adv-x="799" 
d="M399 1411q70 0 128.5 -22.5t101 -63t66.5 -97.5t24 -125t-24 -124.5t-66.5 -97t-101 -63t-128.5 -22.5t-128.5 22.5t-101 63t-66 97t-23.5 124.5t23.5 125t66 97.5t101 63t128.5 22.5zM399 1344q-52 0 -95.5 -17.5t-75 -49.5t-49.5 -76t-18 -98t18 -98.5t49.5 -76.5
t75 -49.5t95.5 -17.5t95.5 17.5t75 49.5t49 76.5t17.5 98.5t-17.5 98t-49 76t-75 49.5t-95.5 17.5z" />
    <glyph glyph-name="guillemotright" unicode="&#xbb;" horiz-adv-x="820" 
d="M234 183h-96l215 324l-215 318h96l223 -318zM505 183h-96l215 324l-215 318h96l222 -318z" />
    <glyph glyph-name="onequarter" unicode="&#xbc;" horiz-adv-x="1352" 
d="M1095 842h95v-548h132v-65h-132v-229h-83v229h-418v67zM1088 1400h95l-1062 -1400h-95zM376 580h-79v641h-238v65h238v136h79v-842zM1107 294v449l-331 -449h331z" />
    <glyph glyph-name="onehalf" unicode="&#xbd;" horiz-adv-x="1397" 
d="M1056 419q59 62 92.5 118t33.5 105q0 69 -47.5 109t-133.5 40q-63 0 -128 -29.5t-118 -80.5l-40 62q63 57 139 88t155 31q49 0 96.5 -12t84.5 -37.5t59.5 -65t22.5 -95.5q0 -37 -15 -76t-38.5 -75.5t-51 -69.5t-53.5 -57l-285 -305h497v-69h-604v67zM1088 1400h95
l-1062 -1400h-95zM376 580h-79v641h-238v65h238v136h79v-842z" />
    <glyph glyph-name="threequarters" unicode="&#xbe;" horiz-adv-x="1535" 
d="M1286 842h95v-548h133v-65h-133v-229h-82v229h-418v67zM1279 1400h95l-1061 -1400h-96zM205 1072h162q89 0 128 38.5t39 101.5q0 80 -56.5 120t-157.5 40q-55 0 -104.5 -15.5t-108.5 -49.5l-30 70q62 35 119 51t124 16q69 0 125.5 -14.5t96 -42.5t61 -70t21.5 -98
q0 -65 -35.5 -113t-95.5 -69q36 -13 66 -32.5t51.5 -45.5t34 -58t12.5 -68q0 -60 -23.5 -110t-67 -85.5t-106.5 -55.5t-142 -20q-39 0 -79.5 6.5t-79 17.5t-73.5 26.5t-65 34.5l41 67q55 -38 122 -59.5t132 -21.5q59 0 105.5 14.5t78.5 40t49 61.5t17 79q0 87 -66.5 131
t-186.5 44h-108v69zM1299 294v449l-332 -449h332z" />
    <glyph glyph-name="questiondown" unicode="&#xbf;" horiz-adv-x="1123" 
d="M717 683q17 -36 24.5 -67.5t7.5 -58.5q0 -34 -11.5 -62.5t-31.5 -53t-47 -45t-58 -39.5l-199 -118q-61 -37 -99 -93t-38 -136q0 -58 23 -107t67.5 -84t110 -55t149.5 -20q136 0 234 41.5t168 123.5l75 -58q-81 -95 -200.5 -146t-282.5 -51q-102 0 -185 24.5t-141 69
t-89.5 108t-31.5 141.5q0 103 41 173.5t110 112.5l197 120q29 18 54 35.5t44 37t29.5 42t10.5 49.5q0 20 -5.5 44t-16.5 48zM669 1072q35 0 58.5 -24t23.5 -58t-23.5 -58t-58.5 -24t-59 24t-24 58t24 58t59 24z" />
    <glyph glyph-name="Agrave" unicode="&#xc0;" horiz-adv-x="1408" 
d="M647 1400h110l637 -1400h-115l-176 393h-801l-174 -393h-114zM1061 486l-361 804l-356 -804h717zM550 1790l247 -237l-98 -13l-253 204z" />
    <glyph glyph-name="Aacute" unicode="&#xc1;" horiz-adv-x="1408" 
d="M647 1400h110l637 -1400h-115l-176 393h-801l-174 -393h-114zM1061 486l-361 804l-356 -804h717zM874 1790l104 -46l-253 -204l-98 13z" />
    <glyph glyph-name="Acircumflex" unicode="&#xc2;" horiz-adv-x="1408" 
d="M647 1400h110l637 -1400h-115l-176 393h-801l-174 -393h-114zM1061 486l-361 804l-356 -804h717zM643 1782h120l202 -239h-109l-153 163l-152 -163h-110z" />
    <glyph glyph-name="Atilde" unicode="&#xc3;" horiz-adv-x="1408" 
d="M647 1400h110l637 -1400h-115l-176 393h-801l-174 -393h-114zM1061 486l-361 804l-356 -804h717zM1001 1736q0 -41 -9 -76.5t-27.5 -62t-47 -41.5t-66.5 -15q-42 0 -75.5 19t-63 41.5t-57.5 41t-60 18.5q-44 0 -64 -30.5t-20 -81.5h-78q0 41 9.5 77t28 62t47 41t66.5 15
q42 0 75.5 -18.5t63 -41t57.5 -41.5t59 -19q44 0 64.5 30.5t20.5 81.5h77z" />
    <glyph glyph-name="Adieresis" unicode="&#xc4;" horiz-adv-x="1408" 
d="M647 1400h110l637 -1400h-115l-176 393h-801l-174 -393h-114zM1061 486l-361 804l-356 -804h717zM542 1690q32 0 53.5 -21.5t21.5 -53.5q0 -31 -21.5 -53t-53.5 -22t-53.5 22t-21.5 53q0 32 21.5 53.5t53.5 21.5zM864 1690q31 0 52.5 -21.5t21.5 -53.5q0 -31 -21.5 -53
t-52.5 -22q-32 0 -54 22t-22 53q0 32 22 53.5t54 21.5z" />
    <glyph glyph-name="Aring" unicode="&#xc5;" horiz-adv-x="1408" 
d="M641 1385q-28 10 -52.5 27.5t-42 41t-27.5 51.5t-10 58q0 38 15.5 72t41.5 59.5t61.5 41t74.5 15.5q40 0 75 -15.5t61.5 -41t42 -59.5t15.5 -72q0 -30 -10 -58t-27.5 -51.5t-41.5 -41t-53 -27.5l630 -1385h-115l-176 393h-801l-174 -393h-114zM1061 486l-361 804
l-356 -804h717zM702 1688q-27 0 -50.5 -10t-41.5 -27t-28.5 -39.5t-10.5 -48.5q0 -25 10.5 -48t28.5 -40t41.5 -27t50.5 -10t51 10t42 27t28.5 40t10.5 48q0 26 -10.5 48.5t-28.5 39.5t-42 27t-51 10z" />
    <glyph glyph-name="AE" unicode="&#xc6;" horiz-adv-x="2018" 
d="M954 415h-582l-244 -415h-114l833 1400h1024v-94h-812v-544h724v-93h-724v-575h838v-94h-943v415zM954 501v811h-55l-477 -811h532z" />
    <glyph glyph-name="Ccedilla" unicode="&#xc7;" horiz-adv-x="1406" 
d="M1249 1145q-86 83 -198 128.5t-236 45.5q-85 0 -164.5 -22t-148.5 -62t-125.5 -96.5t-97 -125t-62.5 -147.5t-22 -164t22 -163.5t62.5 -147t97 -125t125.5 -97t148.5 -62.5t164.5 -22q123 0 234.5 45t199.5 126l65 -66q-49 -45 -106 -81.5t-120 -62t-130 -40t-136 -15.5
l-23 -70q42 -3 72.5 -16.5t50.5 -34.5t29.5 -47t9.5 -54q0 -35 -13.5 -65.5t-39 -53.5t-61.5 -36.5t-82 -13.5q-42 0 -86 12t-76 31l27 70q25 -15 59.5 -25.5t66.5 -10.5q30 0 52 8.5t36.5 22.5t22 32t7.5 37q0 17 -7 33.5t-21 29t-34.5 20t-47.5 7.5h-60l39 128
q-92 8 -176 38t-156.5 77.5t-132 111.5t-101.5 139.5t-65 161.5t-23 178q0 98 26 189t73 169.5t113 143t146.5 111t173.5 71.5t193 25q143 0 271 -51t227 -142z" />
    <glyph glyph-name="Egrave" unicode="&#xc8;" horiz-adv-x="1297" 
d="M232 1400h917v-94h-812v-544h724v-93h-724v-575h839v-94h-944v1400zM549 1791l247 -237l-98 -13l-253 204z" />
    <glyph glyph-name="Eacute" unicode="&#xc9;" horiz-adv-x="1297" 
d="M232 1400h917v-94h-812v-544h724v-93h-724v-575h839v-94h-944v1400zM873 1791l104 -46l-253 -204l-98 13z" />
    <glyph glyph-name="Ecircumflex" unicode="&#xca;" horiz-adv-x="1297" 
d="M232 1400h917v-94h-812v-544h724v-93h-724v-575h839v-94h-944v1400zM642 1783h120l202 -239h-109l-153 163l-152 -163h-110z" />
    <glyph glyph-name="Edieresis" unicode="&#xcb;" horiz-adv-x="1297" 
d="M232 1400h917v-94h-812v-544h724v-93h-724v-575h839v-94h-944v1400zM541 1691q32 0 53.5 -21.5t21.5 -53.5q0 -31 -21.5 -53t-53.5 -22t-53.5 22t-21.5 53q0 32 21.5 53.5t53.5 21.5zM863 1691q31 0 52.5 -21.5t21.5 -53.5q0 -31 -21.5 -53t-52.5 -22q-32 0 -54 22
t-22 53q0 32 22 53.5t54 21.5z" />
    <glyph glyph-name="Igrave" unicode="&#xcc;" horiz-adv-x="569" 
d="M232 1400h105v-1400h-105v1400zM131 1790l247 -237l-98 -13l-253 204z" />
    <glyph glyph-name="Iacute" unicode="&#xcd;" horiz-adv-x="569" 
d="M232 1400h105v-1400h-105v1400zM455 1790l104 -46l-253 -204l-98 13z" />
    <glyph glyph-name="Icircumflex" unicode="&#xce;" horiz-adv-x="569" 
d="M232 1400h105v-1400h-105v1400zM224 1782h120l202 -239h-109l-153 163l-152 -163h-110z" />
    <glyph glyph-name="Idieresis" unicode="&#xcf;" horiz-adv-x="569" 
d="M232 1400h105v-1400h-105v1400zM123 1690q32 0 53.5 -21.5t21.5 -53.5q0 -31 -21.5 -53t-53.5 -22t-53.5 22t-21.5 53q0 32 21.5 53.5t53.5 21.5zM445 1690q31 0 52.5 -21.5t21.5 -53.5q0 -31 -21.5 -53t-52.5 -22q-32 0 -54 22t-22 53q0 32 22 53.5t54 21.5z" />
    <glyph glyph-name="Eth" unicode="&#xd0;" horiz-adv-x="1599" 
d="M89 737h143v663h559q101 0 193.5 -24.5t172 -70t145 -109t111.5 -141t71.5 -168t25.5 -188.5t-25.5 -187.5t-72 -167.5t-111.5 -141.5t-145.5 -108.5t-173 -69.5t-193.5 -24.5h-557v665h-143v72zM793 94q127 0 238.5 47t194 128.5t130.5 191.5t48 237q0 128 -48 239
t-131.5 193t-195 129t-239.5 47h-453v-569h512v-72h-512v-571h456z" />
    <glyph glyph-name="Ntilde" unicode="&#xd1;" horiz-adv-x="1595" 
d="M232 1400h117l909 -1249v1249h104v-1400h-117l-908 1248v-1248h-105v1400zM1123 1737q0 -41 -9 -76.5t-27.5 -62t-47 -41.5t-66.5 -15q-42 0 -75.5 19t-63 41.5t-57.5 41t-60 18.5q-44 0 -64 -30.5t-20 -81.5h-78q0 41 9.5 77t28 62t47 41t66.5 15q42 0 75.5 -18.5
t63 -41t57.5 -41.5t59 -19q44 0 64.5 30.5t20.5 81.5h77z" />
    <glyph glyph-name="Ograve" unicode="&#xd2;" 
d="M816 1410q101 0 194 -25t173.5 -71t147 -110.5t113.5 -143t73 -169t26 -188.5t-26 -189.5t-73 -170.5t-113.5 -144t-147 -111t-173.5 -71.5t-194 -25.5q-100 0 -193 25.5t-174 71.5t-147.5 111t-113.5 144t-73 170.5t-26 189.5t26 188.5t73 169t113.5 143t147.5 110.5
t174 71t193 25zM817 1317q-85 0 -164 -22t-148 -62t-126 -96t-97.5 -124.5t-63 -146.5t-22.5 -163t22.5 -164t63 -148t97.5 -125.5t126 -97t148 -62.5t164 -22t164 22t147.5 62.5t125 97t97 125.5t62.5 148t22 164t-22 163t-62.5 146.5t-97 124.5t-125 96t-147.5 62t-164 22
zM664 1791l247 -237l-98 -13l-253 204z" />
    <glyph glyph-name="Oacute" unicode="&#xd3;" 
d="M816 1410q101 0 194 -25t173.5 -71t147 -110.5t113.5 -143t73 -169t26 -188.5t-26 -189.5t-73 -170.5t-113.5 -144t-147 -111t-173.5 -71.5t-194 -25.5q-100 0 -193 25.5t-174 71.5t-147.5 111t-113.5 144t-73 170.5t-26 189.5t26 188.5t73 169t113.5 143t147.5 110.5
t174 71t193 25zM817 1317q-85 0 -164 -22t-148 -62t-126 -96t-97.5 -124.5t-63 -146.5t-22.5 -163t22.5 -164t63 -148t97.5 -125.5t126 -97t148 -62.5t164 -22t164 22t147.5 62.5t125 97t97 125.5t62.5 148t22 164t-22 163t-62.5 146.5t-97 124.5t-125 96t-147.5 62t-164 22
zM987 1791l104 -46l-253 -204l-98 13z" />
    <glyph glyph-name="Ocircumflex" unicode="&#xd4;" 
d="M816 1410q101 0 194 -25t173.5 -71t147 -110.5t113.5 -143t73 -169t26 -188.5t-26 -189.5t-73 -170.5t-113.5 -144t-147 -111t-173.5 -71.5t-194 -25.5q-100 0 -193 25.5t-174 71.5t-147.5 111t-113.5 144t-73 170.5t-26 189.5t26 188.5t73 169t113.5 143t147.5 110.5
t174 71t193 25zM817 1317q-85 0 -164 -22t-148 -62t-126 -96t-97.5 -124.5t-63 -146.5t-22.5 -163t22.5 -164t63 -148t97.5 -125.5t126 -97t148 -62.5t164 -22t164 22t147.5 62.5t125 97t97 125.5t62.5 148t22 164t-22 163t-62.5 146.5t-97 124.5t-125 96t-147.5 62t-164 22
zM757 1783h120l202 -239h-109l-153 163l-152 -163h-110z" />
    <glyph glyph-name="Otilde" unicode="&#xd5;" 
d="M816 1410q101 0 194 -25t173.5 -71t147 -110.5t113.5 -143t73 -169t26 -188.5t-26 -189.5t-73 -170.5t-113.5 -144t-147 -111t-173.5 -71.5t-194 -25.5q-100 0 -193 25.5t-174 71.5t-147.5 111t-113.5 144t-73 170.5t-26 189.5t26 188.5t73 169t113.5 143t147.5 110.5
t174 71t193 25zM817 1317q-85 0 -164 -22t-148 -62t-126 -96t-97.5 -124.5t-63 -146.5t-22.5 -163t22.5 -164t63 -148t97.5 -125.5t126 -97t148 -62.5t164 -22t164 22t147.5 62.5t125 97t97 125.5t62.5 148t22 164t-22 163t-62.5 146.5t-97 124.5t-125 96t-147.5 62t-164 22
zM1114 1737q0 -41 -9 -76.5t-27.5 -62t-47 -41.5t-66.5 -15q-42 0 -75.5 19t-63 41.5t-57.5 41t-60 18.5q-44 0 -64 -30.5t-20 -81.5h-78q0 41 9.5 77t28 62t47 41t66.5 15q42 0 75.5 -18.5t63 -41t57.5 -41.5t59 -19q44 0 64.5 30.5t20.5 81.5h77z" />
    <glyph glyph-name="Odieresis" unicode="&#xd6;" 
d="M816 1410q101 0 194 -25t173.5 -71t147 -110.5t113.5 -143t73 -169t26 -188.5t-26 -189.5t-73 -170.5t-113.5 -144t-147 -111t-173.5 -71.5t-194 -25.5q-100 0 -193 25.5t-174 71.5t-147.5 111t-113.5 144t-73 170.5t-26 189.5t26 188.5t73 169t113.5 143t147.5 110.5
t174 71t193 25zM817 1317q-85 0 -164 -22t-148 -62t-126 -96t-97.5 -124.5t-63 -146.5t-22.5 -163t22.5 -164t63 -148t97.5 -125.5t126 -97t148 -62.5t164 -22t164 22t147.5 62.5t125 97t97 125.5t62.5 148t22 164t-22 163t-62.5 146.5t-97 124.5t-125 96t-147.5 62t-164 22
zM656 1691q32 0 53.5 -21.5t21.5 -53.5q0 -31 -21.5 -53t-53.5 -22t-53.5 22t-21.5 53q0 32 21.5 53.5t53.5 21.5zM978 1691q31 0 52.5 -21.5t21.5 -53.5q0 -31 -21.5 -53t-52.5 -22q-32 0 -54 22t-22 53q0 32 22 53.5t54 21.5z" />
    <glyph glyph-name="multiply" unicode="&#xd7;" horiz-adv-x="972" 
d="M432 643l-261 261l54 55l261 -262l262 262l54 -55l-261 -261l261 -262l-54 -54l-262 262l-261 -262l-54 54z" />
    <glyph glyph-name="Oslash" unicode="&#xd8;" 
d="M371 144q-64 48 -116 109t-89 132.5t-57 151t-20 164.5q0 98 26 187.5t73 167.5t113.5 142t147.5 109t174 70t193 25q106 0 201.5 -26.5t178.5 -76.5l151 212h95l-182 -254q65 -48 117 -109t89 -132t57 -150.5t20 -164.5q0 -97 -26 -187.5t-73 -168.5t-113.5 -142
t-147 -110t-173.5 -71t-194 -25q-106 0 -202 27t-179 77l-151 -211h-94zM817 1309q-85 0 -164 -21.5t-148 -61.5t-126 -95t-97.5 -123t-63 -145.5t-22.5 -161.5q0 -72 16.5 -139.5t47 -128.5t73.5 -113.5t96 -94.5l710 994q-71 43 -152.5 66.5t-169.5 23.5zM1435 701
q0 72 -16.5 139.5t-47 128t-73.5 113t-96 94.5l-710 -995q72 -44 153.5 -67.5t171.5 -23.5q85 0 164 22t147.5 61.5t125 95.5t97 124t62.5 146t22 162z" />
    <glyph glyph-name="Ugrave" unicode="&#xd9;" horiz-adv-x="1539" 
d="M304 567q0 -115 32 -204.5t92 -151.5t146.5 -94.5t196.5 -32.5t196 32.5t145.5 94t91 151.5t31.5 205v833h106v-833q0 -136 -38.5 -243.5t-112 -181t-179 -112.5t-240.5 -39t-241 39t-179.5 112.5t-112.5 181t-39 243.5v833h105v-833zM618 1791l247 -237l-98 -13
l-253 204z" />
    <glyph glyph-name="Uacute" unicode="&#xda;" horiz-adv-x="1539" 
d="M304 567q0 -115 32 -204.5t92 -151.5t146.5 -94.5t196.5 -32.5t196 32.5t145.5 94t91 151.5t31.5 205v833h106v-833q0 -136 -38.5 -243.5t-112 -181t-179 -112.5t-240.5 -39t-241 39t-179.5 112.5t-112.5 181t-39 243.5v833h105v-833zM941 1791l104 -46l-253 -204l-98 13
z" />
    <glyph glyph-name="Ucircumflex" unicode="&#xdb;" horiz-adv-x="1539" 
d="M304 567q0 -115 32 -204.5t92 -151.5t146.5 -94.5t196.5 -32.5t196 32.5t145.5 94t91 151.5t31.5 205v833h106v-833q0 -136 -38.5 -243.5t-112 -181t-179 -112.5t-240.5 -39t-241 39t-179.5 112.5t-112.5 181t-39 243.5v833h105v-833zM711 1783h120l202 -239h-109
l-153 163l-152 -163h-110z" />
    <glyph glyph-name="Udieresis" unicode="&#xdc;" horiz-adv-x="1539" 
d="M304 567q0 -115 32 -204.5t92 -151.5t146.5 -94.5t196.5 -32.5t196 32.5t145.5 94t91 151.5t31.5 205v833h106v-833q0 -136 -38.5 -243.5t-112 -181t-179 -112.5t-240.5 -39t-241 39t-179.5 112.5t-112.5 181t-39 243.5v833h105v-833zM610 1691q32 0 53.5 -21.5
t21.5 -53.5q0 -31 -21.5 -53t-53.5 -22t-53.5 22t-21.5 53q0 32 21.5 53.5t53.5 21.5zM932 1691q31 0 52.5 -21.5t21.5 -53.5q0 -31 -21.5 -53t-52.5 -22q-32 0 -54 22t-22 53q0 32 22 53.5t54 21.5z" />
    <glyph glyph-name="Yacute" unicode="&#xdd;" horiz-adv-x="1234" 
d="M569 511l-555 889h111l496 -778l487 778h112l-547 -886v-514h-104v511zM787 1791l104 -46l-253 -204l-98 13z" />
    <glyph glyph-name="Thorn" unicode="&#xde;" horiz-adv-x="1336" 
d="M232 1400h105v-216h348q295 0 444.5 -113t149.5 -336q0 -229 -149.5 -346t-444.5 -117h-348v-272h-105v1400zM337 360h344q492 0 492 373q0 363 -492 363h-344v-736z" />
    <glyph glyph-name="germandbls" unicode="&#xdf;" horiz-adv-x="1289" 
d="M199 986q0 114 32.5 206.5t93 158t146.5 101t192 35.5q95 0 173.5 -26t134 -74.5t86 -117t30.5 -153.5q0 -67 -19.5 -125.5t-55.5 -105.5t-87 -80t-114 -48q78 -11 142.5 -41t110.5 -75.5t71.5 -105.5t25.5 -132q0 -91 -34.5 -165t-99 -127t-155 -82t-203.5 -29h-108v83
h114q87 0 158.5 23t121.5 64.5t77.5 100t27.5 129.5q0 70 -29.5 126.5t-83.5 96t-130.5 61t-170.5 21.5h-15v82q81 0 146.5 22.5t112 64.5t71.5 100.5t25 130.5q0 68 -23 122.5t-65.5 93.5t-102 60t-133.5 21q-82 0 -149 -29t-114 -82.5t-72.5 -129.5t-25.5 -170v-991h-102
v986z" />
    <glyph glyph-name="agrave" unicode="&#xe0;" horiz-adv-x="1140" 
d="M867 197q-66 -103 -170 -151.5t-237 -48.5q-79 0 -143 23.5t-110 64.5t-71 97.5t-25 122.5t27 118.5t77.5 89.5t122.5 56.5t163 19.5h364v96q-1 129 -76.5 202.5t-227.5 73.5q-95 0 -179 -35t-167 -98l-47 71q48 34 94.5 61.5t96 46.5t103.5 29t116 10q94 0 166 -24.5
t121.5 -70.5t75 -111.5t26.5 -146.5l3 -693h-102zM477 82q143 0 244.5 64.5t144.5 197.5v163h-353q-149 0 -226 -50t-77 -149q0 -50 18.5 -91.5t53.5 -71.5t84.5 -46.5t110.5 -16.5zM373 1489l247 -237l-98 -13l-253 204z" />
    <glyph glyph-name="aacute" unicode="&#xe1;" horiz-adv-x="1140" 
d="M867 197q-66 -103 -170 -151.5t-237 -48.5q-79 0 -143 23.5t-110 64.5t-71 97.5t-25 122.5t27 118.5t77.5 89.5t122.5 56.5t163 19.5h364v96q-1 129 -76.5 202.5t-227.5 73.5q-95 0 -179 -35t-167 -98l-47 71q48 34 94.5 61.5t96 46.5t103.5 29t116 10q94 0 166 -24.5
t121.5 -70.5t75 -111.5t26.5 -146.5l3 -693h-102zM477 82q143 0 244.5 64.5t144.5 197.5v163h-353q-149 0 -226 -50t-77 -149q0 -50 18.5 -91.5t53.5 -71.5t84.5 -46.5t110.5 -16.5zM763 1489l104 -46l-253 -204l-98 13z" />
    <glyph glyph-name="acircumflex" unicode="&#xe2;" horiz-adv-x="1140" 
d="M867 197q-66 -103 -170 -151.5t-237 -48.5q-79 0 -143 23.5t-110 64.5t-71 97.5t-25 122.5t27 118.5t77.5 89.5t122.5 56.5t163 19.5h364v96q-1 129 -76.5 202.5t-227.5 73.5q-95 0 -179 -35t-167 -98l-47 71q48 34 94.5 61.5t96 46.5t103.5 29t116 10q94 0 166 -24.5
t121.5 -70.5t75 -111.5t26.5 -146.5l3 -693h-102zM477 82q143 0 244.5 64.5t144.5 197.5v163h-353q-149 0 -226 -50t-77 -149q0 -50 18.5 -91.5t53.5 -71.5t84.5 -46.5t110.5 -16.5zM516 1481h120l202 -239h-109l-153 163l-152 -163h-110z" />
    <glyph glyph-name="atilde" unicode="&#xe3;" horiz-adv-x="1140" 
d="M867 197q-66 -103 -170 -151.5t-237 -48.5q-79 0 -143 23.5t-110 64.5t-71 97.5t-25 122.5t27 118.5t77.5 89.5t122.5 56.5t163 19.5h364v96q-1 129 -76.5 202.5t-227.5 73.5q-95 0 -179 -35t-167 -98l-47 71q48 34 94.5 61.5t96 46.5t103.5 29t116 10q94 0 166 -24.5
t121.5 -70.5t75 -111.5t26.5 -146.5l3 -693h-102zM477 82q143 0 244.5 64.5t144.5 197.5v163h-353q-149 0 -226 -50t-77 -149q0 -50 18.5 -91.5t53.5 -71.5t84.5 -46.5t110.5 -16.5zM859 1436q0 -41 -9 -76.5t-27.5 -62t-47 -41.5t-66.5 -15q-42 0 -75.5 19t-63 41.5
t-57.5 41t-60 18.5q-44 0 -64 -30.5t-20 -81.5h-78q0 41 9.5 77t28 62t47 41t66.5 15q42 0 75.5 -18.5t63 -41t57.5 -41.5t59 -19q44 0 64.5 30.5t20.5 81.5h77z" />
    <glyph glyph-name="adieresis" unicode="&#xe4;" horiz-adv-x="1140" 
d="M867 197q-66 -103 -170 -151.5t-237 -48.5q-79 0 -143 23.5t-110 64.5t-71 97.5t-25 122.5t27 118.5t77.5 89.5t122.5 56.5t163 19.5h364v96q-1 129 -76.5 202.5t-227.5 73.5q-95 0 -179 -35t-167 -98l-47 71q48 34 94.5 61.5t96 46.5t103.5 29t116 10q94 0 166 -24.5
t121.5 -70.5t75 -111.5t26.5 -146.5l3 -693h-102zM477 82q143 0 244.5 64.5t144.5 197.5v163h-353q-149 0 -226 -50t-77 -149q0 -50 18.5 -91.5t53.5 -71.5t84.5 -46.5t110.5 -16.5zM418 1417q31 0 52.5 -21t21.5 -53t-21.5 -54t-52.5 -22q-32 0 -54 22t-22 54t22 53t54 21z
M736 1417q32 0 53.5 -21t21.5 -53t-21.5 -54t-53.5 -22t-53.5 22t-21.5 54t21.5 53t53.5 21z" />
    <glyph glyph-name="aring" unicode="&#xe5;" horiz-adv-x="1140" 
d="M867 197q-66 -103 -170 -151.5t-237 -48.5q-79 0 -143 23.5t-110 64.5t-71 97.5t-25 122.5t27 118.5t77.5 89.5t122.5 56.5t163 19.5h364v96q-1 129 -76.5 202.5t-227.5 73.5q-95 0 -179 -35t-167 -98l-47 71q48 34 94.5 61.5t96 46.5t103.5 29t116 10q94 0 166 -24.5
t121.5 -70.5t75 -111.5t26.5 -146.5l3 -693h-102zM477 82q143 0 244.5 64.5t144.5 197.5v163h-353q-149 0 -226 -50t-77 -149q0 -50 18.5 -91.5t53.5 -71.5t84.5 -46.5t110.5 -16.5zM575 1537q40 0 75 -15.5t61.5 -41t42 -59.5t15.5 -72t-15.5 -72.5t-42 -60t-61.5 -40.5
t-75 -15q-39 0 -74.5 15t-61.5 40.5t-41.5 60t-15.5 72.5t15.5 72t41.5 59.5t61.5 41t74.5 15.5zM575 1474q-27 0 -50.5 -10t-41.5 -27t-28.5 -39.5t-10.5 -48.5q0 -25 10.5 -48t28.5 -40t41.5 -27t50.5 -10q26 0 50 10t42 27t29 40t11 48q0 26 -11 48.5t-29 39.5t-42 27
t-50 10z" />
    <glyph glyph-name="ae" unicode="&#xe6;" horiz-adv-x="1967" 
d="M461 -3q-78 0 -142 22.5t-110.5 62.5t-72 96.5t-25.5 123.5q0 65 26.5 116t77 86.5t123.5 54.5t165 19h364v107q0 134 -78.5 205t-226.5 71q-90 0 -177 -32t-183 -101l-35 73q107 74 207.5 109.5t203.5 35.5q154 0 250 -68.5t120 -195.5q30 62 75 111t101 83t122 52
t139 18q111 0 203 -40t157.5 -112.5t101.5 -172.5t34 -220h-907v-40q0 -75 34.5 -143.5t92 -120.5t133.5 -83t159 -31q103 0 191 36t153 106l60 -60q-77 -81 -182 -124.5t-228 -43.5q-80 0 -153 21.5t-133.5 61t-107 94.5t-74.5 122q-131 -299 -458 -299zM1385 966
q-84 0 -156.5 -28t-127.5 -79t-88 -122.5t-38 -158.5h802q-5 89 -36 160.5t-82 122t-121 78t-153 27.5zM478 75q73 0 131.5 16t106 50t84.5 87.5t67 127.5v145h-349q-148 0 -228 -47t-80 -146q0 -52 19 -95t54.5 -73.5t85 -47.5t109.5 -17z" />
    <glyph glyph-name="ccedilla" unicode="&#xe7;" horiz-adv-x="1119" 
d="M928 831q-62 59 -141.5 92t-177.5 33q-90 0 -166 -32t-131 -89t-86 -137t-31 -176q0 -97 31 -177t86 -137.5t131 -89.5t166 -32q106 0 191.5 37t145.5 106l60 -60q-68 -79 -168.5 -124t-221.5 -47l-24 -77q41 -3 71.5 -16.5t50.5 -34.5t30 -47t10 -54q0 -35 -13.5 -65.5
t-39 -53.5t-61.5 -36.5t-82 -13.5q-42 0 -86.5 12t-75.5 31l26 70q25 -15 59.5 -25.5t66.5 -10.5q30 0 52 8.5t37 22.5t22 32t7 37q0 17 -7 33.5t-21 29t-34.5 20t-47.5 7.5h-60l41 135q-98 11 -179.5 54t-140.5 111t-91.5 158.5t-32.5 196.5q0 115 38.5 211.5t106.5 166
t162.5 108t205.5 38.5q118 0 215 -39t166 -108z" />
    <glyph glyph-name="egrave" unicode="&#xe8;" horiz-adv-x="1177" 
d="M194 493q5 -92 38 -167.5t88.5 -129.5t129.5 -83.5t162 -29.5q105 0 193 36.5t151 105.5l59 -60q-73 -80 -177.5 -124t-231.5 -44q-112 0 -206.5 38.5t-162.5 108.5t-106 166.5t-38 211.5t38 211t106.5 165.5t162 108.5t204.5 39q119 0 211 -40.5t154.5 -113t93 -174.5
t27.5 -225h-896zM605 961q-85 0 -156.5 -28t-125.5 -79t-87 -122t-41 -157h802q-6 87 -35.5 158t-80.5 121.5t-120.5 78.5t-155.5 28zM392 1489l247 -237l-98 -13l-253 204z" />
    <glyph glyph-name="eacute" unicode="&#xe9;" horiz-adv-x="1177" 
d="M194 493q5 -92 38 -167.5t88.5 -129.5t129.5 -83.5t162 -29.5q105 0 193 36.5t151 105.5l59 -60q-73 -80 -177.5 -124t-231.5 -44q-112 0 -206.5 38.5t-162.5 108.5t-106 166.5t-38 211.5t38 211t106.5 165.5t162 108.5t204.5 39q119 0 211 -40.5t154.5 -113t93 -174.5
t27.5 -225h-896zM605 961q-85 0 -156.5 -28t-125.5 -79t-87 -122t-41 -157h802q-6 87 -35.5 158t-80.5 121.5t-120.5 78.5t-155.5 28zM780 1489l104 -46l-253 -204l-98 13z" />
    <glyph glyph-name="ecircumflex" unicode="&#xea;" horiz-adv-x="1177" 
d="M194 493q5 -92 38 -167.5t88.5 -129.5t129.5 -83.5t162 -29.5q105 0 193 36.5t151 105.5l59 -60q-73 -80 -177.5 -124t-231.5 -44q-112 0 -206.5 38.5t-162.5 108.5t-106 166.5t-38 211.5t38 211t106.5 165.5t162 108.5t204.5 39q119 0 211 -40.5t154.5 -113t93 -174.5
t27.5 -225h-896zM605 961q-85 0 -156.5 -28t-125.5 -79t-87 -122t-41 -157h802q-6 87 -35.5 158t-80.5 121.5t-120.5 78.5t-155.5 28zM532 1481h120l202 -239h-109l-153 163l-152 -163h-110z" />
    <glyph glyph-name="edieresis" unicode="&#xeb;" horiz-adv-x="1177" 
d="M194 493q5 -92 38 -167.5t88.5 -129.5t129.5 -83.5t162 -29.5q105 0 193 36.5t151 105.5l59 -60q-73 -80 -177.5 -124t-231.5 -44q-112 0 -206.5 38.5t-162.5 108.5t-106 166.5t-38 211.5t38 211t106.5 165.5t162 108.5t204.5 39q119 0 211 -40.5t154.5 -113t93 -174.5
t27.5 -225h-896zM605 961q-85 0 -156.5 -28t-125.5 -79t-87 -122t-41 -157h802q-6 87 -35.5 158t-80.5 121.5t-120.5 78.5t-155.5 28zM434 1417q31 0 52.5 -21t21.5 -53t-21.5 -54t-52.5 -22q-32 0 -54 22t-22 54t22 53t54 21zM752 1417q32 0 53.5 -21t21.5 -53t-21.5 -54
t-53.5 -22t-53.5 22t-21.5 54t21.5 53t53.5 21z" />
    <glyph glyph-name="igrave" unicode="&#xec;" horiz-adv-x="509" 
d="M203 1043h103v-1043h-103v1043zM52 1489l247 -237l-98 -13l-253 204z" />
    <glyph glyph-name="iacute" unicode="&#xed;" horiz-adv-x="509" 
d="M203 1043h103v-1043h-103v1043zM441 1489l104 -46l-253 -204l-98 13z" />
    <glyph glyph-name="icircumflex" unicode="&#xee;" horiz-adv-x="509" 
d="M203 1043h103v-1043h-103v1043zM194 1481h120l202 -239h-109l-153 163l-152 -163h-110z" />
    <glyph glyph-name="idieresis" unicode="&#xef;" horiz-adv-x="509" 
d="M203 1043h103v-1043h-103v1043zM129 1417q33 0 54 -21t21 -53t-22 -54t-53 -22q-32 0 -53.5 22t-21.5 54t21.5 53t53.5 21zM381 1417q31 0 53 -21t22 -53t-22 -54t-53 -22q-32 0 -53.5 22t-21.5 54t21.5 53t53.5 21z" />
    <glyph glyph-name="eth" unicode="&#xf0;" horiz-adv-x="1148" 
d="M255 1091l317 146q-65 56 -135.5 104.5t-146.5 87.5l67 58q166 -91 300 -211l271 125l31 -64l-247 -113q82 -82 146.5 -172t109 -185t68 -193.5t23.5 -196.5q0 -109 -35 -198t-100 -151.5t-156.5 -96.5t-204.5 -34q-104 0 -189 32t-145 90.5t-92.5 141t-32.5 184.5
q0 99 32 179t91.5 137t143.5 87.5t187 30.5q66 0 126.5 -15.5t111.5 -44t91 -69.5t64 -91q-16 70 -46 139t-71.5 136t-93 130t-111.5 121l-344 -158zM575 800q-85 0 -153.5 -24.5t-117 -70t-74.5 -109.5t-26 -144q0 -83 26.5 -150.5t74.5 -115t116.5 -73.5t152.5 -26
q86 0 155.5 25t119 71t76 111t26.5 145q0 82 -26.5 148.5t-76 114t-118.5 73t-155 25.5z" />
    <glyph glyph-name="ntilde" unicode="&#xf1;" horiz-adv-x="1301" 
d="M1027 617q0 79 -22.5 141t-64.5 105t-103 65.5t-139 22.5q-87 -1 -156 -29t-119 -78t-79.5 -121t-36.5 -159v-564h-104v1043h104v-260q53 129 160 195t261 68q95 0 170 -28t126.5 -80.5t79 -128.5t27.5 -172v-637h-104v617zM970 1436q0 -41 -9 -76.5t-27.5 -62t-47 -41.5
t-66.5 -15q-42 0 -75.5 19t-63 41.5t-57.5 41t-60 18.5q-44 0 -64 -30.5t-20 -81.5h-78q0 41 9.5 77t28 62t47 41t66.5 15q42 0 75.5 -18.5t63 -41t57.5 -41.5t59 -19q44 0 64.5 30.5t20.5 81.5h77z" />
    <glyph glyph-name="ograve" unicode="&#xf2;" horiz-adv-x="1225" 
d="M613 1046q113 0 208 -38.5t164 -108t108 -165.5t39 -211t-39 -212t-108 -166.5t-164 -108.5t-208 -39t-208.5 39t-164.5 108.5t-108 166.5t-39 212t39 211t108 165.5t164.5 108t208.5 38.5zM613 957q-91 0 -167.5 -32t-132 -89.5t-86.5 -137.5t-31 -176q0 -97 31 -177.5
t86.5 -138t132 -89.5t167.5 -32t167 32t131.5 89.5t86.5 138t31 177.5q0 96 -31 176t-86.5 137.5t-131.5 89.5t-167 32zM410 1489l247 -237l-98 -13l-253 204z" />
    <glyph glyph-name="oacute" unicode="&#xf3;" horiz-adv-x="1225" 
d="M613 1046q113 0 208 -38.5t164 -108t108 -165.5t39 -211t-39 -212t-108 -166.5t-164 -108.5t-208 -39t-208.5 39t-164.5 108.5t-108 166.5t-39 212t39 211t108 165.5t164.5 108t208.5 38.5zM613 957q-91 0 -167.5 -32t-132 -89.5t-86.5 -137.5t-31 -176q0 -97 31 -177.5
t86.5 -138t132 -89.5t167.5 -32t167 32t131.5 89.5t86.5 138t31 177.5q0 96 -31 176t-86.5 137.5t-131.5 89.5t-167 32zM799 1489l104 -46l-253 -204l-98 13z" />
    <glyph glyph-name="ocircumflex" unicode="&#xf4;" horiz-adv-x="1225" 
d="M613 1046q113 0 208 -38.5t164 -108t108 -165.5t39 -211t-39 -212t-108 -166.5t-164 -108.5t-208 -39t-208.5 39t-164.5 108.5t-108 166.5t-39 212t39 211t108 165.5t164.5 108t208.5 38.5zM613 957q-91 0 -167.5 -32t-132 -89.5t-86.5 -137.5t-31 -176q0 -97 31 -177.5
t86.5 -138t132 -89.5t167.5 -32t167 32t131.5 89.5t86.5 138t31 177.5q0 96 -31 176t-86.5 137.5t-131.5 89.5t-167 32zM552 1481h120l202 -239h-109l-153 163l-152 -163h-110z" />
    <glyph glyph-name="otilde" unicode="&#xf5;" horiz-adv-x="1225" 
d="M613 1046q113 0 208 -38.5t164 -108t108 -165.5t39 -211t-39 -212t-108 -166.5t-164 -108.5t-208 -39t-208.5 39t-164.5 108.5t-108 166.5t-39 212t39 211t108 165.5t164.5 108t208.5 38.5zM613 957q-91 0 -167.5 -32t-132 -89.5t-86.5 -137.5t-31 -176q0 -97 31 -177.5
t86.5 -138t132 -89.5t167.5 -32t167 32t131.5 89.5t86.5 138t31 177.5q0 96 -31 176t-86.5 137.5t-131.5 89.5t-167 32zM896 1436q0 -41 -9 -76.5t-27.5 -62t-47 -41.5t-66.5 -15q-42 0 -75.5 19t-63 41.5t-57.5 41t-60 18.5q-44 0 -64 -30.5t-20 -81.5h-78q0 41 9.5 77
t28 62t47 41t66.5 15q42 0 75.5 -18.5t63 -41t57.5 -41.5t59 -19q44 0 64.5 30.5t20.5 81.5h77z" />
    <glyph glyph-name="odieresis" unicode="&#xf6;" horiz-adv-x="1225" 
d="M613 1046q113 0 208 -38.5t164 -108t108 -165.5t39 -211t-39 -212t-108 -166.5t-164 -108.5t-208 -39t-208.5 39t-164.5 108.5t-108 166.5t-39 212t39 211t108 165.5t164.5 108t208.5 38.5zM613 957q-91 0 -167.5 -32t-132 -89.5t-86.5 -137.5t-31 -176q0 -97 31 -177.5
t86.5 -138t132 -89.5t167.5 -32t167 32t131.5 89.5t86.5 138t31 177.5q0 96 -31 176t-86.5 137.5t-131.5 89.5t-167 32zM454 1417q31 0 52.5 -21t21.5 -53t-21.5 -54t-52.5 -22q-32 0 -54 22t-22 54t22 53t54 21zM772 1417q32 0 53.5 -21t21.5 -53t-21.5 -54t-53.5 -22
t-53.5 22t-21.5 54t21.5 53t53.5 21z" />
    <glyph glyph-name="divide" unicode="&#xf7;" horiz-adv-x="972" 
d="M486 367q32 0 53.5 -21.5t21.5 -53.5t-21.5 -53.5t-53.5 -21.5q-31 0 -53 21.5t-22 53.5t22 53.5t53 21.5zM77 681h818v-77h-818v77zM486 1071q32 0 53.5 -21.5t21.5 -53.5t-21.5 -53.5t-53.5 -21.5q-31 0 -53 21.5t-22 53.5t22 53.5t53 21.5z" />
    <glyph glyph-name="oslash" unicode="&#xf8;" horiz-adv-x="1225" 
d="M285 104q-90 70 -141 177.5t-51 241.5q0 115 39 211t108 165.5t164.5 108t208.5 38.5q76 0 144 -18t126 -51l190 277h82l-215 -315q90 -69 141 -175.5t51 -240.5q0 -115 -39 -212t-108 -166.5t-164 -108.5t-208 -39q-77 0 -145 18t-126 51l-189 -277h-83zM613 963
q-92 0 -169.5 -32.5t-133.5 -90.5t-87 -139t-31 -179q0 -109 38 -197t106 -147l497 726q-48 29 -103 44t-117 15zM1033 522q0 109 -38 196t-106 147l-498 -727q48 -29 103.5 -44t118.5 -15q92 0 169 32.5t132.5 91t87 140t31.5 179.5z" />
    <glyph glyph-name="ugrave" unicode="&#xf9;" horiz-adv-x="1285" 
d="M271 426q0 -79 22 -141t63.5 -105t101.5 -65.5t136 -22.5q90 2 161.5 34t121 89t75.5 137.5t26 179.5v511h103v-1043h-103v268q-51 -133 -156 -200.5t-257 -70.5q-94 0 -167.5 28t-124.5 81t-78 128.5t-27 171.5v637h103v-617zM440 1489l247 -237l-98 -13l-253 204z" />
    <glyph glyph-name="uacute" unicode="&#xfa;" horiz-adv-x="1285" 
d="M271 426q0 -79 22 -141t63.5 -105t101.5 -65.5t136 -22.5q90 2 161.5 34t121 89t75.5 137.5t26 179.5v511h103v-1043h-103v268q-51 -133 -156 -200.5t-257 -70.5q-94 0 -167.5 28t-124.5 81t-78 128.5t-27 171.5v637h103v-617zM830 1489l104 -46l-253 -204l-98 13z" />
    <glyph glyph-name="ucircumflex" unicode="&#xfb;" horiz-adv-x="1285" 
d="M271 426q0 -79 22 -141t63.5 -105t101.5 -65.5t136 -22.5q90 2 161.5 34t121 89t75.5 137.5t26 179.5v511h103v-1043h-103v268q-51 -133 -156 -200.5t-257 -70.5q-94 0 -167.5 28t-124.5 81t-78 128.5t-27 171.5v637h103v-617zM583 1481h120l202 -239h-109l-153 163
l-152 -163h-110z" />
    <glyph glyph-name="udieresis" unicode="&#xfc;" horiz-adv-x="1285" 
d="M271 426q0 -79 22 -141t63.5 -105t101.5 -65.5t136 -22.5q90 2 161.5 34t121 89t75.5 137.5t26 179.5v511h103v-1043h-103v268q-51 -133 -156 -200.5t-257 -70.5q-94 0 -167.5 28t-124.5 81t-78 128.5t-27 171.5v637h103v-617zM485 1417q31 0 52.5 -21t21.5 -53
t-21.5 -54t-52.5 -22q-32 0 -54 22t-22 54t22 53t54 21zM803 1417q32 0 53.5 -21t21.5 -53t-21.5 -54t-53.5 -22t-53.5 22t-21.5 54t21.5 53t53.5 21z" />
    <glyph glyph-name="yacute" unicode="&#xfd;" horiz-adv-x="962" 
d="M481 -150q-48 -118 -123.5 -179.5t-171.5 -61.5q-120 0 -205 64l45 79q69 -48 154 -48q69 0 124 46.5t91 135.5l47 116l-432 1041h110l374 -932l363 932h108zM676 1489l104 -46l-253 -204l-98 13z" />
    <glyph glyph-name="thorn" unicode="&#xfe;" horiz-adv-x="1328" 
d="M299 779q29 62 72 111t98 84t121 53.5t141 18.5q110 0 202.5 -39t159.5 -109t104.5 -166.5t37.5 -211.5q0 -114 -37 -210t-103.5 -165.5t-159 -108.5t-202.5 -39q-75 0 -141.5 18.5t-122 53.5t-98.5 84.5t-72 110.5v-652h-103v1872h103v-705zM715 959q-91 0 -167 -32.5
t-131.5 -91t-86.5 -138.5t-31 -175t31 -175t86.5 -138t131.5 -90.5t167 -32.5t167 32.5t131.5 90.5t86.5 138t31 175t-31 175t-86.5 138t-131.5 91t-167 33z" />
    <glyph glyph-name="ydieresis" unicode="&#xff;" horiz-adv-x="962" 
d="M481 -150q-48 -118 -123.5 -179.5t-171.5 -61.5q-120 0 -205 64l45 79q69 -48 154 -48q69 0 124 46.5t91 135.5l47 116l-432 1041h110l374 -932l363 932h108zM331 1417q31 0 52.5 -21t21.5 -53t-21.5 -54t-52.5 -22q-32 0 -54 22t-22 54t22 53t54 21zM649 1417
q32 0 53.5 -21t21.5 -53t-21.5 -54t-53.5 -22t-53.5 22t-21.5 54t21.5 53t53.5 21z" />
    <glyph glyph-name="Amacron" unicode="&#x100;" horiz-adv-x="1408" 
d="M647 1400h110l637 -1400h-115l-176 393h-801l-174 -393h-114zM1061 486l-361 804l-356 -804h717zM388 1626h627v-73h-627v73z" />
    <glyph glyph-name="amacron" unicode="&#x101;" horiz-adv-x="1140" 
d="M867 197q-66 -103 -170 -151.5t-237 -48.5q-79 0 -143 23.5t-110 64.5t-71 97.5t-25 122.5t27 118.5t77.5 89.5t122.5 56.5t163 19.5h364v96q-1 129 -76.5 202.5t-227.5 73.5q-95 0 -179 -35t-167 -98l-47 71q48 34 94.5 61.5t96 46.5t103.5 29t116 10q94 0 166 -24.5
t121.5 -70.5t75 -111.5t26.5 -146.5l3 -693h-102zM477 82q143 0 244.5 64.5t144.5 197.5v163h-353q-149 0 -226 -50t-77 -149q0 -50 18.5 -91.5t53.5 -71.5t84.5 -46.5t110.5 -16.5zM306 1380h539v-73h-539v73z" />
    <glyph glyph-name="Abreve" unicode="&#x102;" horiz-adv-x="1408" 
d="M647 1400h110l637 -1400h-115l-176 393h-801l-174 -393h-114zM1061 486l-361 804l-356 -804h717zM548 1773q2 -34 14 -63t32.5 -50t48.5 -33t60 -12t60 12t49 33t33.5 50t13.5 63h78q-1 -51 -19.5 -94t-50 -74t-73.5 -48.5t-91 -17.5q-48 0 -90 17.5t-73.5 48.5t-50 74
t-20.5 94h79z" />
    <glyph glyph-name="abreve" unicode="&#x103;" horiz-adv-x="1140" 
d="M867 197q-66 -103 -170 -151.5t-237 -48.5q-79 0 -143 23.5t-110 64.5t-71 97.5t-25 122.5t27 118.5t77.5 89.5t122.5 56.5t163 19.5h364v96q-1 129 -76.5 202.5t-227.5 73.5q-95 0 -179 -35t-167 -98l-47 71q48 34 94.5 61.5t96 46.5t103.5 29t116 10q94 0 166 -24.5
t121.5 -70.5t75 -111.5t26.5 -146.5l3 -693h-102zM477 82q143 0 244.5 64.5t144.5 197.5v163h-353q-149 0 -226 -50t-77 -149q0 -50 18.5 -91.5t53.5 -71.5t84.5 -46.5t110.5 -16.5zM421 1467q2 -34 14 -63t32.5 -50t48.5 -33t60 -12t60 12t49 33t33.5 50t13.5 63h78
q-1 -51 -19.5 -94t-50 -74t-73.5 -48.5t-91 -17.5q-48 0 -90 17.5t-73.5 48.5t-50 74t-20.5 94h79z" />
    <glyph glyph-name="Aogonek" unicode="&#x104;" horiz-adv-x="1408" 
d="M647 1400h110l637 -1400h-115l-176 393h-801l-174 -393h-114zM1061 486l-361 804l-356 -804h717zM1394 0q-56 -39 -97.5 -72t-69 -63.5t-41 -60t-13.5 -61.5q0 -48 25 -69t62 -21q23 0 49.5 7.5t50.5 24.5l32 -69q-38 -23 -76 -34t-74 -11q-75 0 -121 41.5t-46 117.5
q0 85 63 160t196 155z" />
    <glyph glyph-name="aogonek" unicode="&#x105;" horiz-adv-x="1140" 
d="M867 197q-66 -103 -170 -151.5t-237 -48.5q-79 0 -143 23.5t-110 64.5t-71 97.5t-25 122.5t27 118.5t77.5 89.5t122.5 56.5t163 19.5h364v96q-1 129 -76.5 202.5t-227.5 73.5q-95 0 -179 -35t-167 -98l-47 71q48 34 94.5 61.5t96 46.5t103.5 29t116 10q94 0 166 -24.5
t121.5 -70.5t75 -111.5t26.5 -146.5l3 -693h-102zM477 82q143 0 244.5 64.5t144.5 197.5v163h-353q-149 0 -226 -50t-77 -149q0 -50 18.5 -91.5t53.5 -71.5t84.5 -46.5t110.5 -16.5zM970 0q-56 -39 -97.5 -72t-69 -63.5t-41 -60t-13.5 -61.5q0 -48 25 -69t62 -21
q23 0 49.5 7.5t50.5 24.5l32 -69q-38 -23 -76 -34t-74 -11q-75 0 -121 41.5t-46 117.5q0 85 63 160t196 155z" />
    <glyph glyph-name="Cacute" unicode="&#x106;" horiz-adv-x="1406" 
d="M1249 1145q-86 83 -198 128.5t-236 45.5q-85 0 -164.5 -22t-148.5 -62t-125.5 -96.5t-97 -125t-62.5 -147.5t-22 -164t22 -163.5t62.5 -147t97 -125t125.5 -97t148.5 -62.5t164.5 -22q123 0 234.5 45t199.5 126l65 -66q-50 -46 -108 -83t-122.5 -62.5t-133 -39.5
t-139.5 -14q-100 0 -192 25.5t-172.5 71.5t-146.5 111t-112.5 144t-72.5 169.5t-26 188.5t26 189t73 169.5t113 143t146.5 111t173.5 71.5t193 25q143 0 271 -51t227 -142zM997 1791l104 -46l-253 -204l-98 13z" />
    <glyph glyph-name="cacute" unicode="&#x107;" horiz-adv-x="1119" 
d="M928 831q-62 59 -141.5 92t-177.5 33q-90 0 -166 -32t-131 -89t-86 -137t-31 -176q0 -97 31 -177t86 -137.5t131 -89.5t166 -32q106 0 191.5 37t145.5 106l60 -60q-69 -81 -170.5 -126.5t-229.5 -45.5q-111 0 -205.5 38.5t-162.5 108.5t-106.5 166.5t-38.5 211.5
t38.5 211.5t106.5 166t162.5 108t205.5 38.5q118 0 215 -39t166 -108zM761 1489l104 -46l-253 -204l-98 13z" />
    <glyph glyph-name="Ccircumflex" unicode="&#x108;" horiz-adv-x="1406" 
d="M1249 1145q-86 83 -198 128.5t-236 45.5q-85 0 -164.5 -22t-148.5 -62t-125.5 -96.5t-97 -125t-62.5 -147.5t-22 -164t22 -163.5t62.5 -147t97 -125t125.5 -97t148.5 -62.5t164.5 -22q123 0 234.5 45t199.5 126l65 -66q-50 -46 -108 -83t-122.5 -62.5t-133 -39.5
t-139.5 -14q-100 0 -192 25.5t-172.5 71.5t-146.5 111t-112.5 144t-72.5 169.5t-26 188.5t26 189t73 169.5t113 143t146.5 111t173.5 71.5t193 25q143 0 271 -51t227 -142zM767 1783h120l202 -239h-109l-153 163l-152 -163h-110z" />
    <glyph glyph-name="ccircumflex" unicode="&#x109;" horiz-adv-x="1119" 
d="M928 831q-62 59 -141.5 92t-177.5 33q-90 0 -166 -32t-131 -89t-86 -137t-31 -176q0 -97 31 -177t86 -137.5t131 -89.5t166 -32q106 0 191.5 37t145.5 106l60 -60q-69 -81 -170.5 -126.5t-229.5 -45.5q-111 0 -205.5 38.5t-162.5 108.5t-106.5 166.5t-38.5 211.5
t38.5 211.5t106.5 166t162.5 108t205.5 38.5q118 0 215 -39t166 -108zM514 1481h120l202 -239h-109l-153 163l-152 -163h-110z" />
    <glyph glyph-name="Cdotaccent" unicode="&#x10a;" horiz-adv-x="1406" 
d="M1249 1145q-86 83 -198 128.5t-236 45.5q-85 0 -164.5 -22t-148.5 -62t-125.5 -96.5t-97 -125t-62.5 -147.5t-22 -164t22 -163.5t62.5 -147t97 -125t125.5 -97t148.5 -62.5t164.5 -22q123 0 234.5 45t199.5 126l65 -66q-50 -46 -108 -83t-122.5 -62.5t-133 -39.5
t-139.5 -14q-100 0 -192 25.5t-172.5 71.5t-146.5 111t-112.5 144t-72.5 169.5t-26 188.5t26 189t73 169.5t113 143t146.5 111t173.5 71.5t193 25q143 0 271 -51t227 -142zM827 1699q33 0 56 -22.5t23 -56.5q0 -33 -23 -56t-56 -23t-56.5 23t-23.5 56q0 34 23.5 56.5
t56.5 22.5z" />
    <glyph glyph-name="cdotaccent" unicode="&#x10b;" horiz-adv-x="1119" 
d="M928 831q-62 59 -141.5 92t-177.5 33q-90 0 -166 -32t-131 -89t-86 -137t-31 -176q0 -97 31 -177t86 -137.5t131 -89.5t166 -32q106 0 191.5 37t145.5 106l60 -60q-69 -81 -170.5 -126.5t-229.5 -45.5q-111 0 -205.5 38.5t-162.5 108.5t-106.5 166.5t-38.5 211.5
t38.5 211.5t106.5 166t162.5 108t205.5 38.5q118 0 215 -39t166 -108zM574 1423q33 0 56.5 -23t23.5 -57q0 -33 -23.5 -56t-56.5 -23t-56 23t-23 56q0 34 23 57t56 23z" />
    <glyph glyph-name="Ccaron" unicode="&#x10c;" horiz-adv-x="1406" 
d="M1249 1145q-86 83 -198 128.5t-236 45.5q-85 0 -164.5 -22t-148.5 -62t-125.5 -96.5t-97 -125t-62.5 -147.5t-22 -164t22 -163.5t62.5 -147t97 -125t125.5 -97t148.5 -62.5t164.5 -22q123 0 234.5 45t199.5 126l65 -66q-50 -46 -108 -83t-122.5 -62.5t-133 -39.5
t-139.5 -14q-100 0 -192 25.5t-172.5 71.5t-146.5 111t-112.5 144t-72.5 169.5t-26 188.5t26 189t73 169.5t113 143t146.5 111t173.5 71.5t193 25q143 0 271 -51t227 -142zM866 1544h-120l-202 239h110l152 -164l153 164h109z" />
    <glyph glyph-name="ccaron" unicode="&#x10d;" horiz-adv-x="1119" 
d="M928 831q-62 59 -141.5 92t-177.5 33q-90 0 -166 -32t-131 -89t-86 -137t-31 -176q0 -97 31 -177t86 -137.5t131 -89.5t166 -32q106 0 191.5 37t145.5 106l60 -60q-69 -81 -170.5 -126.5t-229.5 -45.5q-111 0 -205.5 38.5t-162.5 108.5t-106.5 166.5t-38.5 211.5
t38.5 211.5t106.5 166t162.5 108t205.5 38.5q118 0 215 -39t166 -108zM634 1242h-120l-202 239h110l152 -164l153 164h109z" />
    <glyph glyph-name="Dcaron" unicode="&#x10e;" horiz-adv-x="1599" 
d="M791 1400q101 0 193.5 -24.5t172 -70t145 -109t111.5 -141t71.5 -168t25.5 -188.5t-25.5 -187.5t-72 -167.5t-111.5 -141.5t-145.5 -108.5t-173 -69.5t-193.5 -24.5h-557v1400h559zM793 94q127 0 238.5 47t194 128.5t130.5 192t48 237.5q0 128 -48 238.5t-131.5 192.5
t-195.5 129t-240 47h-452v-1212h456zM799 1543h-120l-202 239h110l152 -164l153 164h109z" />
    <glyph glyph-name="dcaron" unicode="&#x10f;" horiz-adv-x="1398" 
d="M1035 260q-29 -62 -72.5 -111t-99 -83.5t-122 -53t-141.5 -18.5q-111 0 -204.5 39.5t-160.5 109.5t-104.5 167t-37.5 212q0 116 37.5 212.5t105 166.5t160 109t203.5 39q152 0 264.5 -71t171.5 -196v702h104v-1484h-104v260zM616 961q-91 0 -168 -33t-133 -92
t-87.5 -139.5t-31.5 -176.5t31.5 -176.5t87 -139t132.5 -91t169 -32.5t168.5 32.5t132.5 91t87 139t31 176.5t-31 176.5t-87 139.5t-132.5 92t-168.5 33zM1330 1484h98l-22 -372h-76v372z" />
    <glyph glyph-name="Dcroat" unicode="&#x110;" horiz-adv-x="1599" 
d="M89 737h143v663h559q101 0 193.5 -24.5t172 -70t145 -109t111.5 -141t71.5 -168t25.5 -188.5t-25.5 -187.5t-72 -167.5t-111.5 -141.5t-145.5 -108.5t-173 -69.5t-193.5 -24.5h-557v665h-143v72zM793 94q127 0 238.5 47t194 128.5t130.5 191.5t48 237q0 128 -48 239
t-131.5 193t-195 129t-239.5 47h-453v-569h512v-72h-512v-571h456z" />
    <glyph glyph-name="dcroat" unicode="&#x111;" horiz-adv-x="1351" 
d="M566 1289h469v195h103v-195h154v-70h-154v-1219h-103v264q-30 -62 -74 -112t-100 -85t-122.5 -54t-140.5 -19q-110 0 -203 39t-160 108t-104.5 164.5t-37.5 209.5t37.5 209.5t104 165t159 108t202.5 38.5q75 0 141.5 -19t123 -54t100.5 -85t74 -112v453h-469v70zM616 947
q-91 0 -168.5 -32.5t-133 -90t-87 -137t-31.5 -174.5q0 -94 31.5 -173.5t87 -137t133 -89.5t168.5 -32t168 32t132.5 89.5t87 137t31.5 173.5q0 95 -31.5 174.5t-87 137t-132.5 90t-168 32.5z" />
    <glyph glyph-name="Emacron" unicode="&#x112;" horiz-adv-x="1297" 
d="M232 1400h917v-94h-812v-544h724v-93h-724v-575h839v-94h-944v1400zM387 1627h627v-73h-627v73z" />
    <glyph glyph-name="emacron" unicode="&#x113;" horiz-adv-x="1177" 
d="M194 493q5 -92 38 -167.5t88.5 -129.5t129.5 -83.5t162 -29.5q105 0 193 36.5t151 105.5l59 -60q-73 -80 -177.5 -124t-231.5 -44q-112 0 -206.5 38.5t-162.5 108.5t-106 166.5t-38 211.5t38 211t106.5 165.5t162 108.5t204.5 39q119 0 211 -40.5t154.5 -113t93 -174.5
t27.5 -225h-896zM605 961q-85 0 -156.5 -28t-125.5 -79t-87 -122t-41 -157h802q-6 87 -35.5 158t-80.5 121.5t-120.5 78.5t-155.5 28zM322 1380h539v-73h-539v73z" />
    <glyph glyph-name="Ebreve" unicode="&#x114;" horiz-adv-x="1297" 
d="M232 1400h917v-94h-812v-544h724v-93h-724v-575h839v-94h-944v1400zM547 1774q2 -34 14 -63t32.5 -50t48.5 -33t60 -12t60 12t49 33t33.5 50t13.5 63h78q-1 -51 -19.5 -94t-50 -74t-73.5 -48.5t-91 -17.5q-48 0 -90 17.5t-73.5 48.5t-50 74t-20.5 94h79z" />
    <glyph glyph-name="ebreve" unicode="&#x115;" horiz-adv-x="1177" 
d="M194 493q5 -92 38 -167.5t88.5 -129.5t129.5 -83.5t162 -29.5q105 0 193 36.5t151 105.5l59 -60q-73 -80 -177.5 -124t-231.5 -44q-112 0 -206.5 38.5t-162.5 108.5t-106 166.5t-38 211.5t38 211t106.5 165.5t162 108.5t204.5 39q119 0 211 -40.5t154.5 -113t93 -174.5
t27.5 -225h-896zM605 961q-85 0 -156.5 -28t-125.5 -79t-87 -122t-41 -157h802q-6 87 -35.5 158t-80.5 121.5t-120.5 78.5t-155.5 28zM437 1467q2 -34 14 -63t32.5 -50t48.5 -33t60 -12t60 12t49 33t33.5 50t13.5 63h78q-1 -51 -19.5 -94t-50 -74t-73.5 -48.5t-91 -17.5
q-48 0 -90 17.5t-73.5 48.5t-50 74t-20.5 94h79z" />
    <glyph glyph-name="Edotaccent" unicode="&#x116;" horiz-adv-x="1297" 
d="M232 1400h917v-94h-812v-544h724v-93h-724v-575h839v-94h-944v1400zM702 1699q33 0 56 -22.5t23 -56.5q0 -33 -23 -56t-56 -23t-56.5 23t-23.5 56q0 34 23.5 56.5t56.5 22.5z" />
    <glyph glyph-name="edotaccent" unicode="&#x117;" horiz-adv-x="1177" 
d="M194 493q5 -92 38 -167.5t88.5 -129.5t129.5 -83.5t162 -29.5q105 0 193 36.5t151 105.5l59 -60q-73 -80 -177.5 -124t-231.5 -44q-112 0 -206.5 38.5t-162.5 108.5t-106 166.5t-38 211.5t38 211t106.5 165.5t162 108.5t204.5 39q119 0 211 -40.5t154.5 -113t93 -174.5
t27.5 -225h-896zM605 961q-85 0 -156.5 -28t-125.5 -79t-87 -122t-41 -157h802q-6 87 -35.5 158t-80.5 121.5t-120.5 78.5t-155.5 28zM592 1423q33 0 56.5 -23t23.5 -57q0 -33 -23.5 -56t-56.5 -23t-56 23t-23 56q0 34 23 57t56 23z" />
    <glyph glyph-name="Eogonek" unicode="&#x118;" horiz-adv-x="1297" 
d="M232 1400h917v-94h-812v-544h724v-93h-724v-575h839v-94h-944v1400zM1176 0q-56 -39 -97.5 -72t-69 -63.5t-41 -60t-13.5 -61.5q0 -48 25 -69t62 -21q23 0 49.5 7.5t50.5 24.5l32 -69q-38 -23 -76 -34t-74 -11q-75 0 -121 41.5t-46 117.5q0 85 63 160t196 155z" />
    <glyph glyph-name="eogonek" unicode="&#x119;" horiz-adv-x="1177" 
d="M194 493q5 -92 38 -167.5t88.5 -129.5t129.5 -83.5t162 -29.5q105 0 193 36.5t151 105.5l59 -60q-73 -80 -177.5 -124t-231.5 -44q-112 0 -206.5 38.5t-162.5 108.5t-106 166.5t-38 211.5t38 211t106.5 165.5t162 108.5t204.5 39q119 0 211 -40.5t154.5 -113t93 -174.5
t27.5 -225h-896zM605 961q-85 0 -156.5 -28t-125.5 -79t-87 -122t-41 -157h802q-6 87 -35.5 158t-80.5 121.5t-120.5 78.5t-155.5 28zM939 99q-56 -46 -101.5 -93.5t-77.5 -93t-49.5 -88t-17.5 -78.5q0 -47 24.5 -70t62.5 -23q24 0 50.5 8t49.5 24l31 -69q-38 -23 -76.5 -34
t-73.5 -11q-37 0 -68 12t-52.5 33.5t-33.5 52.5t-12 70q0 92 74.5 190.5t219.5 210.5z" />
    <glyph glyph-name="Ecaron" unicode="&#x11a;" horiz-adv-x="1297" 
d="M232 1400h917v-94h-812v-544h724v-93h-724v-575h839v-94h-944v1400zM741 1544h-120l-202 239h110l152 -164l153 164h109z" />
    <glyph glyph-name="ecaron" unicode="&#x11b;" horiz-adv-x="1177" 
d="M194 493q5 -92 38 -167.5t88.5 -129.5t129.5 -83.5t162 -29.5q105 0 193 36.5t151 105.5l59 -60q-73 -80 -177.5 -124t-231.5 -44q-112 0 -206.5 38.5t-162.5 108.5t-106 166.5t-38 211.5t38 211t106.5 165.5t162 108.5t204.5 39q119 0 211 -40.5t154.5 -113t93 -174.5
t27.5 -225h-896zM605 961q-85 0 -156.5 -28t-125.5 -79t-87 -122t-41 -157h802q-6 87 -35.5 158t-80.5 121.5t-120.5 78.5t-155.5 28zM652 1242h-120l-202 239h110l152 -164l153 164h109z" />
    <glyph glyph-name="Gcircumflex" unicode="&#x11c;" horiz-adv-x="1514" 
d="M1255 1150q-88 80 -200 123.5t-237 43.5q-86 0 -166 -22t-149 -62t-126 -96.5t-97.5 -124.5t-62.5 -146.5t-22 -163.5q0 -128 49 -241t133.5 -197t198.5 -132.5t243 -48.5q108 0 209.5 35t186.5 98v437h-542v94h643v-572q-50 -42 -108.5 -76t-123 -58t-133 -37
t-138.5 -13q-100 0 -192.5 25.5t-173 71.5t-146.5 111t-113 144t-73 170t-26 189t26 188.5t73.5 169t113.5 143t147 110.5t174.5 71t194.5 25q143 0 271.5 -50t227.5 -138zM705 1782h120l202 -239h-109l-153 163l-152 -163h-110z" />
    <glyph glyph-name="gcircumflex" unicode="&#x11d;" horiz-adv-x="1267" 
d="M1091 113q0 -116 -36.5 -209t-103.5 -158t-161.5 -100.5t-210.5 -35.5q-125 0 -228 43t-196 124l51 71q81 -75 170 -113t200 -38q94 0 170 29t130 83t83.5 130.5t29.5 171.5v184q-57 -118 -164 -185.5t-251 -67.5q-105 0 -193.5 37.5t-152.5 104t-99.5 159t-35.5 201.5
q0 110 35.5 202t99 158.5t151 104t192.5 37.5q146 0 253.5 -67.5t164.5 -186.5v251h102v-930zM589 962q-87 0 -160 -31.5t-126 -87.5t-83 -133t-30 -168q0 -90 30 -166.5t82.5 -132t126 -87t160.5 -31.5t160.5 31.5t126.5 87t83 132t30 166.5q0 91 -30 168t-83 133
t-126.5 87.5t-160.5 31.5zM540 1481h120l202 -239h-109l-153 163l-152 -163h-110z" />
    <glyph glyph-name="Gbreve" unicode="&#x11e;" horiz-adv-x="1514" 
d="M1255 1150q-88 80 -200 123.5t-237 43.5q-86 0 -166 -22t-149 -62t-126 -96.5t-97.5 -124.5t-62.5 -146.5t-22 -163.5q0 -128 49 -241t133.5 -197t198.5 -132.5t243 -48.5q108 0 209.5 35t186.5 98v437h-542v94h643v-572q-50 -42 -108.5 -76t-123 -58t-133 -37
t-138.5 -13q-100 0 -192.5 25.5t-173 71.5t-146.5 111t-113 144t-73 170t-26 189t26 188.5t73.5 169t113.5 143t147 110.5t174.5 71t194.5 25q143 0 271.5 -50t227.5 -138zM609 1773q2 -34 14 -63t32.5 -50t48.5 -33t60 -12t60 12t49 33t33.5 50t13.5 63h78
q-1 -51 -19.5 -94t-50 -74t-73.5 -48.5t-91 -17.5q-48 0 -90 17.5t-73.5 48.5t-50 74t-20.5 94h79z" />
    <glyph glyph-name="gbreve" unicode="&#x11f;" horiz-adv-x="1267" 
d="M1091 113q0 -116 -36.5 -209t-103.5 -158t-161.5 -100.5t-210.5 -35.5q-125 0 -228 43t-196 124l51 71q81 -75 170 -113t200 -38q94 0 170 29t130 83t83.5 130.5t29.5 171.5v184q-57 -118 -164 -185.5t-251 -67.5q-105 0 -193.5 37.5t-152.5 104t-99.5 159t-35.5 201.5
q0 110 35.5 202t99 158.5t151 104t192.5 37.5q146 0 253.5 -67.5t164.5 -186.5v251h102v-930zM589 962q-87 0 -160 -31.5t-126 -87.5t-83 -133t-30 -168q0 -90 30 -166.5t82.5 -132t126 -87t160.5 -31.5t160.5 31.5t126.5 87t83 132t30 166.5q0 91 -30 168t-83 133
t-126.5 87.5t-160.5 31.5zM445 1467q2 -34 14 -63t32.5 -50t48.5 -33t60 -12t60 12t49 33t33.5 50t13.5 63h78q-1 -51 -19.5 -94t-50 -74t-73.5 -48.5t-91 -17.5q-48 0 -90 17.5t-73.5 48.5t-50 74t-20.5 94h79z" />
    <glyph glyph-name="Gdotaccent" unicode="&#x120;" horiz-adv-x="1514" 
d="M1255 1150q-88 80 -200 123.5t-237 43.5q-86 0 -166 -22t-149 -62t-126 -96.5t-97.5 -124.5t-62.5 -146.5t-22 -163.5q0 -128 49 -241t133.5 -197t198.5 -132.5t243 -48.5q108 0 209.5 35t186.5 98v437h-542v94h643v-572q-50 -42 -108.5 -76t-123 -58t-133 -37
t-138.5 -13q-100 0 -192.5 25.5t-173 71.5t-146.5 111t-113 144t-73 170t-26 189t26 188.5t73.5 169t113.5 143t147 110.5t174.5 71t194.5 25q143 0 271.5 -50t227.5 -138zM765 1698q33 0 56 -22.5t23 -56.5q0 -33 -23 -56t-56 -23t-56.5 23t-23.5 56q0 34 23.5 56.5
t56.5 22.5z" />
    <glyph glyph-name="gdotaccent" unicode="&#x121;" horiz-adv-x="1267" 
d="M1091 113q0 -116 -36.5 -209t-103.5 -158t-161.5 -100.5t-210.5 -35.5q-125 0 -228 43t-196 124l51 71q81 -75 170 -113t200 -38q94 0 170 29t130 83t83.5 130.5t29.5 171.5v184q-57 -118 -164 -185.5t-251 -67.5q-105 0 -193.5 37.5t-152.5 104t-99.5 159t-35.5 201.5
q0 110 35.5 202t99 158.5t151 104t192.5 37.5q146 0 253.5 -67.5t164.5 -186.5v251h102v-930zM589 962q-87 0 -160 -31.5t-126 -87.5t-83 -133t-30 -168q0 -90 30 -166.5t82.5 -132t126 -87t160.5 -31.5t160.5 31.5t126.5 87t83 132t30 166.5q0 91 -30 168t-83 133
t-126.5 87.5t-160.5 31.5zM600 1423q33 0 56.5 -23t23.5 -57q0 -33 -23.5 -56t-56.5 -23t-56 23t-23 56q0 34 23 57t56 23z" />
    <glyph glyph-name="uni0122" unicode="&#x122;" horiz-adv-x="1514" 
d="M1255 1150q-88 80 -200 123.5t-237 43.5q-86 0 -166 -22t-149 -62t-126 -96.5t-97.5 -124.5t-62.5 -146.5t-22 -163.5q0 -128 49 -241t133.5 -197t198.5 -132.5t243 -48.5q108 0 209.5 35t186.5 98v437h-542v94h643v-572q-50 -42 -108.5 -76t-123 -58t-133 -37
t-138.5 -13q-100 0 -192.5 25.5t-173 71.5t-146.5 111t-113 144t-73 170t-26 189t26 188.5t73.5 169t113.5 143t147 110.5t174.5 71t194.5 25q143 0 271.5 -50t227.5 -138zM717 -125h98l-96 -306h-78z" />
    <glyph glyph-name="uni0123" unicode="&#x123;" horiz-adv-x="1267" 
d="M1091 113q0 -116 -36.5 -209t-103.5 -158t-161.5 -100.5t-210.5 -35.5q-125 0 -228 43t-196 124l51 71q81 -75 170 -113t200 -38q94 0 170 29t130 83t83.5 130.5t29.5 171.5v184q-57 -118 -164 -185.5t-251 -67.5q-105 0 -193.5 37.5t-152.5 104t-99.5 159t-35.5 201.5
q0 110 35.5 202t99 158.5t151 104t192.5 37.5q146 0 253.5 -67.5t164.5 -186.5v251h102v-930zM589 962q-87 0 -160 -31.5t-126 -87.5t-83 -133t-30 -168q0 -90 30 -166.5t82.5 -132t126 -87t160.5 -31.5t160.5 31.5t126.5 87t83 132t30 166.5q0 91 -30 168t-83 133
t-126.5 87.5t-160.5 31.5zM640 1229h-99l96 306h79z" />
    <glyph glyph-name="Hcircumflex" unicode="&#x124;" horiz-adv-x="1594" 
d="M232 1400h105v-653h920v653h105v-1400h-105v653h-920v-653h-105v1400zM737 1781h120l202 -239h-109l-153 163l-152 -163h-110z" />
    <glyph glyph-name="hcircumflex" unicode="&#x125;" horiz-adv-x="1295" 
d="M1022 617q0 79 -22.5 141t-65 105t-103.5 65.5t-138 22.5q-93 -1 -166 -33t-124 -89t-77.5 -138t-26.5 -180v-511h-103v1484h103v-706q53 131 161 198.5t263 69.5q95 0 169.5 -28t126.5 -80.5t79 -128.5t27 -172v-637h-103v617zM188 1922h120l202 -239h-109l-153 163
l-152 -163h-110z" />
    <glyph glyph-name="Hbar" unicode="&#x126;" horiz-adv-x="1594" 
d="M83 1124h149v276h105v-276h920v276h105v-276h151v-71h-151v-1053h-105v653h-920v-653h-105v1053h-149v71zM1257 1053h-920v-306h920v306z" />
    <glyph glyph-name="hbar" unicode="&#x127;" horiz-adv-x="1313" 
d="M60 1289h153v195h104v-195h469v-70h-469v-453q53 133 160.5 200t262.5 67q95 0 170 -28t126.5 -80.5t79 -128t27.5 -171.5v-625h-104v605q0 79 -22.5 141t-64.5 105t-103 65.5t-139 22.5q-93 0 -166 -31.5t-123.5 -89.5t-77 -139t-26.5 -180v-499h-104v1219h-153v70z" />
    <glyph glyph-name="Itilde" unicode="&#x128;" horiz-adv-x="569" 
d="M232 1400h105v-1400h-105v1400zM581 1736q0 -41 -9 -76.5t-27.5 -62t-47 -41.5t-66.5 -15q-42 0 -75.5 19t-63 41.5t-57.5 41t-60 18.5q-44 0 -64 -30.5t-20 -81.5h-78q0 41 9.5 77t28 62t47 41t66.5 15q42 0 75.5 -18.5t63 -41t57.5 -41.5t59 -19q44 0 64.5 30.5
t20.5 81.5h77z" />
    <glyph glyph-name="itilde" unicode="&#x129;" horiz-adv-x="509" 
d="M203 1043h103v-1043h-103v1043zM496 1435q0 -42 -8 -78t-24 -62t-40 -40.5t-57 -14.5q-35 0 -62.5 18.5t-52 40.5t-47 40.5t-47.5 18.5q-35 0 -51.5 -29.5t-16.5 -80.5h-76q0 42 8 78t24 62t40 40.5t57 14.5q35 0 62.5 -18t52 -40t47 -40t47.5 -18q35 0 51.5 29.5
t16.5 78.5h76z" />
    <glyph glyph-name="Imacron" unicode="&#x12a;" horiz-adv-x="569" 
d="M232 1400h105v-1400h-105v1400zM13 1626h539v-73h-539v73z" />
    <glyph glyph-name="imacron" unicode="&#x12b;" horiz-adv-x="509" 
d="M203 1043h103v-1043h-103v1043zM24 1380h459v-73h-459v73z" />
    <glyph glyph-name="Ibreve" unicode="&#x12c;" horiz-adv-x="569" 
d="M232 1400h105v-1400h-105v1400zM129 1773q2 -34 14 -63t32.5 -50t48.5 -33t60 -12t60 12t49 33t33.5 50t13.5 63h78q-1 -51 -19.5 -94t-50 -74t-73.5 -48.5t-91 -17.5q-48 0 -90 17.5t-73.5 48.5t-50 74t-20.5 94h79z" />
    <glyph glyph-name="ibreve" unicode="&#x12d;" horiz-adv-x="509" 
d="M203 1043h103v-1043h-103v1043zM99 1467q2 -34 14 -63t32.5 -50t48.5 -33t60 -12t60 12t49 33t33.5 50t13.5 63h78q-1 -51 -19.5 -94t-50 -74t-73.5 -48.5t-91 -17.5q-48 0 -90 17.5t-73.5 48.5t-50 74t-20.5 94h79z" />
    <glyph glyph-name="Iogonek" unicode="&#x12e;" horiz-adv-x="569" 
d="M232 1400h105v-1400h-105v1400zM337 0q-56 -39 -97.5 -72t-69 -63.5t-41 -60t-13.5 -61.5q0 -48 25 -69t62 -21q23 0 49.5 7.5t50.5 24.5l32 -69q-38 -23 -76 -34t-74 -11q-75 0 -121 41.5t-46 117.5q0 85 63 160t196 155z" />
    <glyph glyph-name="iogonek" unicode="&#x12f;" horiz-adv-x="509" 
d="M203 1043h103v-1043h-103v1043zM254 1423q33 0 56.5 -23t23.5 -57q0 -33 -23.5 -56t-56.5 -23t-56 23t-23 56q0 34 23 57t56 23zM306 0q-56 -39 -97.5 -72t-69 -63.5t-41 -60t-13.5 -61.5q0 -48 25 -69t62 -21q23 0 49.5 7.5t50.5 24.5l32 -69q-38 -23 -76 -34t-74 -11
q-75 0 -121 41.5t-46 117.5q0 85 63 160t196 155z" />
    <glyph glyph-name="Idotaccent" unicode="&#x130;" horiz-adv-x="569" 
d="M232 1400h105v-1400h-105v1400zM284 1698q33 0 56 -22.5t23 -56.5q0 -33 -23 -56t-56 -23t-56.5 23t-23.5 56q0 34 23.5 56.5t56.5 22.5z" />
    <glyph glyph-name="dotlessi" unicode="&#x131;" horiz-adv-x="509" 
d="M203 1043h103v-1043h-103v1043z" />
    <glyph glyph-name="IJ" unicode="&#x132;" horiz-adv-x="1549" 
d="M232 1400h105v-1400h-105v1400zM1316 407q0 -199 -97.5 -304.5t-277.5 -105.5q-111 0 -205 51t-164 146l56 76q64 -85 144 -129.5t168 -44.5q131 0 200.5 79.5t69.5 233.5v991h106v-993z" />
    <glyph glyph-name="ij" unicode="&#x133;" horiz-adv-x="1011" 
d="M203 1043h103v-1043h-103v1043zM254 1423q33 0 56.5 -23t23.5 -57q0 -33 -23.5 -56t-56.5 -23t-56 23t-23 56q0 34 23 57t56 23zM424 -279q50 -20 105 -23q54 -1 88.5 22t54 60t26.5 83t7 90v1090h103v-1101q0 -165 -67.5 -249t-195.5 -82q-80 3 -148 31zM756 1423
q33 0 56.5 -23t23.5 -57q0 -33 -23.5 -56t-56.5 -23t-56 23t-23 56q0 34 23 57t56 23z" />
    <glyph glyph-name="Jcircumflex" unicode="&#x134;" horiz-adv-x="946" 
d="M747 407q0 -199 -97.5 -304.5t-277.5 -105.5q-111 0 -205 51t-164 146l56 76q64 -85 144 -129.5t168 -44.5q131 0 200.5 79.5t69.5 233.5v991h106v-993zM628 1783h120l202 -239h-109l-153 163l-152 -163h-110z" />
    <glyph glyph-name="jcircumflex" unicode="&#x135;" horiz-adv-x="475" 
d="M-85 -279q50 -20 105 -23q54 -1 88.5 22t54 60t26.5 83t7 90v1090h103v-1101q0 -165 -67.5 -249t-195.5 -82q-80 3 -148 31zM187 1481h120l202 -239h-109l-153 163l-152 -163h-110z" />
    <glyph glyph-name="uni0136" unicode="&#x136;" horiz-adv-x="1373" 
d="M232 1400h105v-890l814 890h130l-570 -618l611 -782h-131l-553 702l-301 -326v-376h-105v1400zM634 -125h98l-96 -306h-78z" />
    <glyph glyph-name="uni0137" unicode="&#x137;" horiz-adv-x="1103" 
d="M192 1484h103v-1046l595 605h126l-395 -404l445 -639h-123l-393 567l-255 -261v-306h-103v1484zM565 -125h98l-96 -306h-78z" />
    <glyph glyph-name="kgreenlandic" unicode="&#x138;" horiz-adv-x="1107" 
d="M203 1043h103v-608l599 608h125l-395 -404l445 -639h-123l-392 567l-259 -265v-302h-103v1043z" />
    <glyph glyph-name="Lacute" unicode="&#x139;" horiz-adv-x="1012" 
d="M232 1400h105v-1306h620v-94h-725v1400zM470 1790l104 -46l-253 -204l-98 13z" />
    <glyph glyph-name="lacute" unicode="&#x13a;" horiz-adv-x="551" 
d="M288 225q0 -69 27 -102.5t78 -33.5q27 0 56 13.5t58 39.5l28 -77q-41 -33 -82.5 -50.5t-80.5 -17.5q-85 0 -135 55t-50 164v1268h101v-1259zM424 1930l104 -46l-253 -204l-98 13z" />
    <glyph glyph-name="uni013B" unicode="&#x13b;" horiz-adv-x="1012" 
d="M232 1400h105v-1306h620v-94h-725v1400zM548 -125h98l-96 -306h-78z" />
    <glyph glyph-name="uni013C" unicode="&#x13c;" horiz-adv-x="551" 
d="M288 225q0 -69 27 -102.5t78 -33.5q27 0 56 13.5t58 39.5l28 -77q-41 -33 -82.5 -50.5t-80.5 -17.5q-85 0 -135 55t-50 164v1268h101v-1259zM317 -125h98l-96 -306h-78z" />
    <glyph glyph-name="Lcaron" unicode="&#x13d;" horiz-adv-x="1012" 
d="M232 1400h105v-1306h620v-94h-725v1400zM860 1399h98l-22 -372h-76v372z" />
    <glyph glyph-name="lcaron" unicode="&#x13e;" horiz-adv-x="592" 
d="M288 225q0 -69 27 -102.5t78 -33.5q27 0 56 13.5t58 39.5l28 -77q-41 -33 -82.5 -50.5t-80.5 -17.5q-85 0 -135 55t-50 164v1268h101v-1259zM472 1484h98l-22 -372h-76v372z" />
    <glyph glyph-name="Ldot" unicode="&#x13f;" horiz-adv-x="1012" 
d="M232 1400h105v-1306h620v-94h-725v1400zM785 710q33 0 56.5 -23t23.5 -57q0 -33 -23.5 -56t-56.5 -23t-56 23t-23 56q0 34 23 57t56 23z" />
    <glyph glyph-name="ldot" unicode="&#x140;" horiz-adv-x="601" 
d="M288 225q0 -69 27 -102.5t78 -33.5q27 0 56 13.5t58 39.5l28 -77q-41 -33 -82.5 -50.5t-80.5 -17.5q-85 0 -135 55t-50 164v1268h101v-1259zM533 876q33 0 56.5 -23t23.5 -57q0 -33 -23.5 -56t-56.5 -23t-56 23t-23 56q0 34 23 57t56 23z" />
    <glyph glyph-name="Lslash" unicode="&#x141;" horiz-adv-x="1049" 
d="M55 646l214 117v637h106v-580l251 137v-75l-251 -137v-652h620v-93h-726v687l-214 -116v75z" />
    <glyph glyph-name="lslash" unicode="&#x142;" horiz-adv-x="704" 
d="M288 815l253 138v-82l-253 -137v-509q0 -69 27 -102.5t78 -33.5q27 0 56 13.5t58 39.5l28 -77q-41 -33 -82.5 -50.5t-80.5 -17.5q-85 0 -135 55t-50 164v463l-216 -118v82l216 117v724h101v-669z" />
    <glyph glyph-name="Nacute" unicode="&#x143;" horiz-adv-x="1595" 
d="M232 1400h117l909 -1249v1249h104v-1400h-117l-908 1248v-1248h-105v1400zM996 1791l104 -46l-253 -204l-98 13z" />
    <glyph glyph-name="nacute" unicode="&#x144;" horiz-adv-x="1301" 
d="M1027 617q0 79 -22.5 141t-64.5 105t-103 65.5t-139 22.5q-87 -1 -156 -29t-119 -78t-79.5 -121t-36.5 -159v-564h-104v1043h104v-260q53 129 160 195t261 68q95 0 170 -28t126.5 -80.5t79 -128.5t27.5 -172v-637h-104v617zM873 1489l104 -46l-253 -204l-98 13z" />
    <glyph glyph-name="uni0145" unicode="&#x145;" horiz-adv-x="1595" 
d="M232 1400h117l909 -1249v1249h104v-1400h-117l-908 1248v-1248h-105v1400zM744 -125h98l-96 -306h-78z" />
    <glyph glyph-name="uni0146" unicode="&#x146;" horiz-adv-x="1301" 
d="M1027 617q0 79 -22.5 141t-64.5 105t-103 65.5t-139 22.5q-87 -1 -156 -29t-119 -78t-79.5 -121t-36.5 -159v-564h-104v1043h104v-260q53 129 160 195t261 68q95 0 170 -28t126.5 -80.5t79 -128.5t27.5 -172v-637h-104v617zM610 -125h98l-96 -306h-78z" />
    <glyph glyph-name="Ncaron" unicode="&#x147;" horiz-adv-x="1595" 
d="M232 1400h117l909 -1249v1249h104v-1400h-117l-908 1248v-1248h-105v1400zM865 1544h-120l-202 239h110l152 -164l153 164h109z" />
    <glyph glyph-name="ncaron" unicode="&#x148;" horiz-adv-x="1301" 
d="M1027 617q0 79 -22.5 141t-64.5 105t-103 65.5t-139 22.5q-87 -1 -156 -29t-119 -78t-79.5 -121t-36.5 -159v-564h-104v1043h104v-260q53 129 160 195t261 68q95 0 170 -28t126.5 -80.5t79 -128.5t27.5 -172v-637h-104v617zM746 1242h-120l-202 239h110l152 -164l153 164
h109z" />
    <glyph glyph-name="napostrophe" unicode="&#x149;" horiz-adv-x="1433" 
d="M70 1400h85l-19 -519h-73zM1158 617q0 79 -22.5 141t-64.5 105t-103 65.5t-139 22.5q-87 -1 -156 -29t-119 -78t-79.5 -121t-36.5 -159v-564h-104v1043h104v-260q53 129 160 195t261 68q95 0 170 -28t126.5 -80.5t79 -128.5t27.5 -172v-637h-104v617z" />
    <glyph glyph-name="Eng" unicode="&#x14a;" horiz-adv-x="1595" 
d="M232 1400h117l909 -1249v1249h104v-1400q0 -94 -25.5 -167.5t-73.5 -124.5t-117.5 -78t-158.5 -27q-109 0 -201.5 47.5t-162.5 136.5l56 76q65 -79 143.5 -119.5t163.5 -40.5q125 0 195 75.5t75 221.5h-11l-908 1248v-1248h-105v1400z" />
    <glyph glyph-name="eng" unicode="&#x14b;" horiz-adv-x="1301" 
d="M203 1043h104v-260q53 129 160 195t261 68q95 0 170 -28t126.5 -80.5t79 -128.5t27.5 -172v-690q0 -86 -20 -149t-56 -105t-85.5 -62.5t-108.5 -20.5q-57 1 -111 19.5t-99 53.5l41 78q37 -29 79.5 -44t85.5 -16q51 -1 84 20t52 55t26.5 76.5t7.5 85.5v679q0 79 -22.5 141
t-64.5 105t-103 65.5t-139 22.5q-87 -1 -156 -29t-119 -78t-79.5 -121t-36.5 -159v-564h-104v1043z" />
    <glyph glyph-name="Omacron" unicode="&#x14c;" 
d="M816 1410q101 0 194 -25t173.5 -71t147 -110.5t113.5 -143t73 -169t26 -188.5t-26 -189.5t-73 -170.5t-113.5 -144t-147 -111t-173.5 -71.5t-194 -25.5q-100 0 -193 25.5t-174 71.5t-147.5 111t-113.5 144t-73 170.5t-26 189.5t26 188.5t73 169t113.5 143t147.5 110.5
t174 71t193 25zM817 1317q-85 0 -164 -22t-148 -62t-126 -96t-97.5 -124.5t-63 -146.5t-22.5 -163t22.5 -164t63 -148t97.5 -125.5t126 -97t148 -62.5t164 -22t164 22t147.5 62.5t125 97t97 125.5t62.5 148t22 164t-22 163t-62.5 146.5t-97 124.5t-125 96t-147.5 62t-164 22
zM502 1627h627v-73h-627v73z" />
    <glyph glyph-name="omacron" unicode="&#x14d;" horiz-adv-x="1225" 
d="M613 1046q113 0 208 -38.5t164 -108t108 -165.5t39 -211t-39 -212t-108 -166.5t-164 -108.5t-208 -39t-208.5 39t-164.5 108.5t-108 166.5t-39 212t39 211t108 165.5t164.5 108t208.5 38.5zM613 957q-91 0 -167.5 -32t-132 -89.5t-86.5 -137.5t-31 -176q0 -97 31 -177.5
t86.5 -138t132 -89.5t167.5 -32t167 32t131.5 89.5t86.5 138t31 177.5q0 96 -31 176t-86.5 137.5t-131.5 89.5t-167 32zM342 1380h539v-73h-539v73z" />
    <glyph glyph-name="Obreve" unicode="&#x14e;" 
d="M816 1410q101 0 194 -25t173.5 -71t147 -110.5t113.5 -143t73 -169t26 -188.5t-26 -189.5t-73 -170.5t-113.5 -144t-147 -111t-173.5 -71.5t-194 -25.5q-100 0 -193 25.5t-174 71.5t-147.5 111t-113.5 144t-73 170.5t-26 189.5t26 188.5t73 169t113.5 143t147.5 110.5
t174 71t193 25zM817 1317q-85 0 -164 -22t-148 -62t-126 -96t-97.5 -124.5t-63 -146.5t-22.5 -163t22.5 -164t63 -148t97.5 -125.5t126 -97t148 -62.5t164 -22t164 22t147.5 62.5t125 97t97 125.5t62.5 148t22 164t-22 163t-62.5 146.5t-97 124.5t-125 96t-147.5 62t-164 22
zM661 1774q2 -34 14 -63t32.5 -50t48.5 -33t60 -12t60 12t49 33t33.5 50t13.5 63h78q-1 -51 -19.5 -94t-50 -74t-73.5 -48.5t-91 -17.5q-48 0 -90 17.5t-73.5 48.5t-50 74t-20.5 94h79z" />
    <glyph glyph-name="obreve" unicode="&#x14f;" horiz-adv-x="1225" 
d="M613 1046q113 0 208 -38.5t164 -108t108 -165.5t39 -211t-39 -212t-108 -166.5t-164 -108.5t-208 -39t-208.5 39t-164.5 108.5t-108 166.5t-39 212t39 211t108 165.5t164.5 108t208.5 38.5zM613 957q-91 0 -167.5 -32t-132 -89.5t-86.5 -137.5t-31 -176q0 -97 31 -177.5
t86.5 -138t132 -89.5t167.5 -32t167 32t131.5 89.5t86.5 138t31 177.5q0 96 -31 176t-86.5 137.5t-131.5 89.5t-167 32zM457 1467q2 -34 14 -63t32.5 -50t48.5 -33t60 -12t60 12t49 33t33.5 50t13.5 63h78q-1 -51 -19.5 -94t-50 -74t-73.5 -48.5t-91 -17.5q-48 0 -90 17.5
t-73.5 48.5t-50 74t-20.5 94h79z" />
    <glyph glyph-name="Ohungarumlaut" unicode="&#x150;" 
d="M816 1410q101 0 194 -25t173.5 -71t147 -110.5t113.5 -143t73 -169t26 -188.5t-26 -189.5t-73 -170.5t-113.5 -144t-147 -111t-173.5 -71.5t-194 -25.5q-100 0 -193 25.5t-174 71.5t-147.5 111t-113.5 144t-73 170.5t-26 189.5t26 188.5t73 169t113.5 143t147.5 110.5
t174 71t193 25zM817 1317q-85 0 -164 -22t-148 -62t-126 -96t-97.5 -124.5t-63 -146.5t-22.5 -163t22.5 -164t63 -148t97.5 -125.5t126 -97t148 -62.5t164 -22t164 22t147.5 62.5t125 97t97 125.5t62.5 148t22 164t-22 163t-62.5 146.5t-97 124.5t-125 96t-147.5 62t-164 22
zM791 1795l88 -44l-187 -210l-85 12zM1059 1795l88 -44l-186 -210l-86 12z" />
    <glyph glyph-name="ohungarumlaut" unicode="&#x151;" horiz-adv-x="1225" 
d="M613 1046q113 0 208 -38.5t164 -108t108 -165.5t39 -211t-39 -212t-108 -166.5t-164 -108.5t-208 -39t-208.5 39t-164.5 108.5t-108 166.5t-39 212t39 211t108 165.5t164.5 108t208.5 38.5zM613 957q-91 0 -167.5 -32t-132 -89.5t-86.5 -137.5t-31 -176q0 -97 31 -177.5
t86.5 -138t132 -89.5t167.5 -32t167 32t131.5 89.5t86.5 138t31 177.5q0 96 -31 176t-86.5 137.5t-131.5 89.5t-167 32zM588 1493l88 -44l-187 -210l-85 12zM856 1493l88 -44l-186 -210l-86 12z" />
    <glyph glyph-name="OE" unicode="&#x152;" horiz-adv-x="2186" 
d="M816 0q-101 0 -194 25t-173.5 70.5t-147 109t-113.5 141.5t-73 167.5t-26 186.5t26 186.5t73 167.5t113.5 141.5t147 109t173.5 70.5t194 25h1221v-94h-811v-543h723v-95h-723v-574h837v-94h-1247zM195 699q0 -126 48.5 -237t133 -193t198 -129.5t242.5 -47.5l304 -2
v1217h-304q-129 0 -242.5 -47.5t-198 -129.5t-133 -193t-48.5 -238z" />
    <glyph glyph-name="oe" unicode="&#x153;" horiz-adv-x="2127" 
d="M613 1046q83 0 156 -22t133 -63t105.5 -98.5t72.5 -129.5q27 72 72 129.5t104 98.5t132 63t155 22q113 0 205.5 -40t158 -111t100.5 -170t34 -218h-913q3 -95 36 -173.5t89 -134t132 -86t166 -30.5q104 0 192.5 36.5t153.5 105.5l59 -60q-75 -80 -179.5 -124t-232.5 -44
q-83 0 -156 22t-132.5 63t-104.5 98.5t-72 129.5q-27 -72 -72 -129.5t-105 -98.5t-133 -63t-156 -22q-113 0 -208.5 39t-164.5 108.5t-108 166.5t-39 212t39 211t108 165.5t164.5 108t208.5 38.5zM613 957q-91 0 -167.5 -32t-132 -89.5t-86.5 -137.5t-31 -176
q0 -97 31 -177.5t86.5 -138t132 -89.5t167.5 -32t167 32t131.5 89.5t86.5 138t31 177.5q0 96 -31 176t-86.5 137.5t-131.5 89.5t-167 32zM1543 966q-85 0 -157.5 -29t-126.5 -80.5t-87.5 -124t-41.5 -159.5h807q-5 87 -35 159.5t-81 124t-121.5 80.5t-156.5 29z" />
    <glyph glyph-name="Racute" unicode="&#x154;" horiz-adv-x="1446" 
d="M738 1400q130 0 231.5 -31t171 -90t106 -145t36.5 -196q0 -177 -87 -291.5t-251 -158.5l346 -488h-123l-322 469q-51 -6 -108 -6h-401v-463h-105v1400h506zM738 557q105 0 187.5 25t139.5 73t86.5 118.5t29.5 162.5q0 90 -29.5 159t-86.5 116t-139.5 71t-187.5 24h-401
v-749h401zM855 1791l104 -46l-253 -204l-98 13z" />
    <glyph glyph-name="racute" unicode="&#x155;" horiz-adv-x="713" 
d="M203 1043h104v-256q50 125 148 191t238 68v-96q-85 0 -153.5 -27t-118 -77.5t-78.5 -122t-36 -161.5v-562h-104v1043zM634 1489l104 -46l-253 -204l-98 13z" />
    <glyph glyph-name="uni0156" unicode="&#x156;" horiz-adv-x="1446" 
d="M738 1400q130 0 231.5 -31t171 -90t106 -145t36.5 -196q0 -177 -87 -291.5t-251 -158.5l346 -488h-123l-322 469q-51 -6 -108 -6h-401v-463h-105v1400h506zM738 557q105 0 187.5 25t139.5 73t86.5 118.5t29.5 162.5q0 90 -29.5 159t-86.5 116t-139.5 71t-187.5 24h-401
v-749h401zM675 -125h98l-96 -306h-78z" />
    <glyph glyph-name="uni0157" unicode="&#x157;" horiz-adv-x="713" 
d="M203 1043h104v-256q50 125 148 191t238 68v-96q-85 0 -153.5 -27t-118 -77.5t-78.5 -122t-36 -161.5v-562h-104v1043zM206 -125h98l-96 -306h-78z" />
    <glyph glyph-name="Rcaron" unicode="&#x158;" horiz-adv-x="1446" 
d="M738 1400q130 0 231.5 -31t171 -90t106 -145t36.5 -196q0 -177 -87 -291.5t-251 -158.5l346 -488h-123l-322 469q-51 -6 -108 -6h-401v-463h-105v1400h506zM738 557q105 0 187.5 25t139.5 73t86.5 118.5t29.5 162.5q0 90 -29.5 159t-86.5 116t-139.5 71t-187.5 24h-401
v-749h401zM724 1544h-120l-202 239h110l152 -164l153 164h109z" />
    <glyph glyph-name="rcaron" unicode="&#x159;" horiz-adv-x="713" 
d="M203 1043h104v-256q50 125 148 191t238 68v-96q-85 0 -153.5 -27t-118 -77.5t-78.5 -122t-36 -161.5v-562h-104v1043zM507 1242h-120l-202 239h110l152 -164l153 164h109z" />
    <glyph glyph-name="Sacute" unicode="&#x15a;" horiz-adv-x="1207" 
d="M984 1208q-39 25 -84.5 44.5t-94 33t-98 20.5t-96.5 7q-36 0 -76 -5t-78.5 -16t-73 -28.5t-61 -43.5t-42 -61t-15.5 -80q0 -79 35 -131t92 -87t129.5 -59t148.5 -47.5t148.5 -52t129.5 -73t92 -110t35 -163.5q0 -100 -45 -169.5t-116.5 -113t-159 -63t-173.5 -19.5
q-69 0 -138.5 14t-135.5 40.5t-126 65t-109 87.5l53 83q44 -44 97.5 -79.5t113 -60.5t122.5 -38.5t125 -13.5t129 13t122.5 43.5t91 81t35.5 125.5q0 65 -22.5 112t-61.5 81t-91 58t-110.5 43.5t-120 37.5t-120 40t-110.5 50.5t-91 69.5t-61.5 97t-22.5 133q0 62 20 111.5
t54.5 86.5t80.5 63.5t98 43.5t107 24.5t107 7.5q53 0 107.5 -7.5t108 -22t103.5 -36t94 -50.5zM766 1791l104 -46l-253 -204l-98 13z" />
    <glyph glyph-name="sacute" unicode="&#x15b;" horiz-adv-x="883" 
d="M725 885q-57 35 -126.5 55.5t-144.5 20.5q-52 0 -96.5 -10t-77.5 -31.5t-52 -54t-19 -77.5q0 -51 26 -85t68.5 -58t96.5 -41t110.5 -34.5t110.5 -39t96.5 -54t68 -80t25.5 -116.5q0 -73 -30.5 -126.5t-81.5 -88.5t-117.5 -51.5t-138.5 -16.5q-112 0 -214 37.5t-175 108.5
l45 72q67 -64 158.5 -99t189.5 -35q53 0 100 11t82.5 34t57.5 58t23 83q2 54 -23.5 90t-67.5 61t-96 42.5t-110.5 35.5t-111 39t-97.5 53t-69 78.5t-26 113.5q0 69 28.5 119.5t76.5 83.5t111.5 48.5t133.5 15.5q89 0 167 -23.5t141 -61.5zM629 1489l104 -46l-253 -204
l-98 13z" />
    <glyph glyph-name="Scircumflex" unicode="&#x15c;" horiz-adv-x="1207" 
d="M984 1208q-39 25 -84.5 44.5t-94 33t-98 20.5t-96.5 7q-36 0 -76 -5t-78.5 -16t-73 -28.5t-61 -43.5t-42 -61t-15.5 -80q0 -79 35 -131t92 -87t129.5 -59t148.5 -47.5t148.5 -52t129.5 -73t92 -110t35 -163.5q0 -100 -45 -169.5t-116.5 -113t-159 -63t-173.5 -19.5
q-69 0 -138.5 14t-135.5 40.5t-126 65t-109 87.5l53 83q44 -44 97.5 -79.5t113 -60.5t122.5 -38.5t125 -13.5t129 13t122.5 43.5t91 81t35.5 125.5q0 65 -22.5 112t-61.5 81t-91 58t-110.5 43.5t-120 37.5t-120 40t-110.5 50.5t-91 69.5t-61.5 97t-22.5 133q0 62 20 111.5
t54.5 86.5t80.5 63.5t98 43.5t107 24.5t107 7.5q53 0 107.5 -7.5t108 -22t103.5 -36t94 -50.5zM535 1783h120l202 -239h-109l-153 163l-152 -163h-110z" />
    <glyph glyph-name="scircumflex" unicode="&#x15d;" horiz-adv-x="883" 
d="M725 885q-57 35 -126.5 55.5t-144.5 20.5q-52 0 -96.5 -10t-77.5 -31.5t-52 -54t-19 -77.5q0 -51 26 -85t68.5 -58t96.5 -41t110.5 -34.5t110.5 -39t96.5 -54t68 -80t25.5 -116.5q0 -73 -30.5 -126.5t-81.5 -88.5t-117.5 -51.5t-138.5 -16.5q-112 0 -214 37.5t-175 108.5
l45 72q67 -64 158.5 -99t189.5 -35q53 0 100 11t82.5 34t57.5 58t23 83q2 54 -23.5 90t-67.5 61t-96 42.5t-110.5 35.5t-111 39t-97.5 53t-69 78.5t-26 113.5q0 69 28.5 119.5t76.5 83.5t111.5 48.5t133.5 15.5q89 0 167 -23.5t141 -61.5zM384 1481h120l202 -239h-109
l-153 163l-152 -163h-110z" />
    <glyph glyph-name="Scedilla" unicode="&#x15e;" horiz-adv-x="1207" 
d="M984 1208q-39 25 -84.5 44.5t-94 33t-98 20.5t-96.5 7q-36 0 -76 -5t-78.5 -16t-73 -28.5t-61 -43.5t-42 -61t-15.5 -80q0 -79 35 -131t92 -87t129.5 -59t148.5 -47.5t148.5 -52t129.5 -73t92 -110t35 -163.5q0 -91 -37.5 -156.5t-98.5 -109t-138 -67t-156 -29.5l-23 -73
q42 -3 72.5 -16.5t50.5 -34.5t29.5 -47t9.5 -54q0 -35 -13.5 -65.5t-39 -53.5t-61.5 -36.5t-82 -13.5q-42 0 -86.5 12t-75.5 31l27 70q24 -15 59 -25.5t67 -10.5q30 0 52 8.5t36.5 22.5t22 32t7.5 37q0 17 -7 33.5t-21 29t-34.5 20t-47.5 7.5h-60l38 125q-66 2 -133.5 17
t-131.5 41.5t-122.5 63.5t-105.5 84l53 83q44 -44 97.5 -79.5t113 -60.5t122.5 -38.5t125 -13.5t129 13t122.5 43.5t91 81t35.5 125.5q0 65 -22.5 112t-61.5 81t-91 58t-110.5 43.5t-120 37.5t-120 40t-110.5 50.5t-91 69.5t-61.5 97t-22.5 133q0 62 20 111.5t54.5 86.5
t80.5 63.5t98 43.5t107 24.5t107 7.5q53 0 107.5 -7.5t108 -22t103.5 -36t94 -50.5z" />
    <glyph glyph-name="scedilla" unicode="&#x15f;" horiz-adv-x="883" 
d="M725 885q-57 35 -126.5 55.5t-144.5 20.5q-52 0 -96.5 -10t-77.5 -31.5t-52 -54t-19 -77.5q0 -51 26 -85t68.5 -58t96.5 -41t110.5 -34.5t110.5 -39t96.5 -54t68 -80t25.5 -116.5t-27.5 -120.5t-73.5 -86t-107 -53t-128 -21.5l-24 -78q42 -3 72.5 -16.5t50.5 -34.5
t29.5 -47t9.5 -54q0 -35 -13.5 -65.5t-39 -53.5t-61.5 -36.5t-82 -13.5q-42 0 -86.5 12t-75.5 31l27 70q24 -15 59 -25.5t67 -10.5q30 0 52 8.5t36.5 22.5t22 32t7.5 37q0 17 -7 33.5t-21 29t-34.5 20t-47.5 7.5h-60l40 132q-99 8 -188 44.5t-154 99.5l45 72
q67 -64 158.5 -99t189.5 -35q53 0 100 11t82.5 34t57.5 58t23 83q2 54 -23.5 90t-67.5 61t-96 42.5t-110.5 35.5t-111 39t-97.5 53t-69 78.5t-26 113.5q0 69 28.5 119.5t76.5 83.5t111.5 48.5t133.5 15.5q89 0 167 -23.5t141 -61.5z" />
    <glyph glyph-name="Scaron" unicode="&#x160;" horiz-adv-x="1207" 
d="M984 1208q-39 25 -84.5 44.5t-94 33t-98 20.5t-96.5 7q-36 0 -76 -5t-78.5 -16t-73 -28.5t-61 -43.5t-42 -61t-15.5 -80q0 -79 35 -131t92 -87t129.5 -59t148.5 -47.5t148.5 -52t129.5 -73t92 -110t35 -163.5q0 -100 -45 -169.5t-116.5 -113t-159 -63t-173.5 -19.5
q-69 0 -138.5 14t-135.5 40.5t-126 65t-109 87.5l53 83q44 -44 97.5 -79.5t113 -60.5t122.5 -38.5t125 -13.5t129 13t122.5 43.5t91 81t35.5 125.5q0 65 -22.5 112t-61.5 81t-91 58t-110.5 43.5t-120 37.5t-120 40t-110.5 50.5t-91 69.5t-61.5 97t-22.5 133q0 62 20 111.5
t54.5 86.5t80.5 63.5t98 43.5t107 24.5t107 7.5q53 0 107.5 -7.5t108 -22t103.5 -36t94 -50.5zM635 1544h-120l-202 239h110l152 -164l153 164h109z" />
    <glyph glyph-name="scaron" unicode="&#x161;" horiz-adv-x="883" 
d="M725 885q-57 35 -126.5 55.5t-144.5 20.5q-52 0 -96.5 -10t-77.5 -31.5t-52 -54t-19 -77.5q0 -51 26 -85t68.5 -58t96.5 -41t110.5 -34.5t110.5 -39t96.5 -54t68 -80t25.5 -116.5q0 -73 -30.5 -126.5t-81.5 -88.5t-117.5 -51.5t-138.5 -16.5q-112 0 -214 37.5t-175 108.5
l45 72q67 -64 158.5 -99t189.5 -35q53 0 100 11t82.5 34t57.5 58t23 83q2 54 -23.5 90t-67.5 61t-96 42.5t-110.5 35.5t-111 39t-97.5 53t-69 78.5t-26 113.5q0 69 28.5 119.5t76.5 83.5t111.5 48.5t133.5 15.5q89 0 167 -23.5t141 -61.5zM504 1242h-120l-202 239h110
l152 -164l153 164h109z" />
    <glyph glyph-name="uni0162" unicode="&#x162;" horiz-adv-x="1089" 
d="M23 1400h1042v-94h-468v-1306h-16l-24 -79q41 -3 71.5 -16.5t50.5 -34.5t30 -47t10 -54q0 -35 -13.5 -65.5t-39 -53.5t-61.5 -36.5t-82 -13.5q-42 0 -86.5 12t-75.5 31l26 70q25 -15 59.5 -25.5t66.5 -10.5q30 0 52 8.5t37 22.5t22 32t7 37q0 17 -7 33.5t-21 29t-34.5 20
t-47.5 7.5h-60l42 133h-12v1306h-468v94z" />
    <glyph glyph-name="uni0163" unicode="&#x163;" horiz-adv-x="754" 
d="M341 1043h348v-81h-348v-661q0 -109 40.5 -161t117.5 -51q90 3 174 60l35 -76q-87 -62 -186 -73l-25 -79q42 -3 72.5 -16.5t50.5 -34.5t29.5 -47t9.5 -54q0 -35 -13.5 -65.5t-39 -53.5t-61.5 -36.5t-82 -13.5q-42 0 -86 12t-76 31l27 70q25 -15 59.5 -25.5t66.5 -10.5
q30 0 52 8.5t36.5 22.5t22 32t7.5 37q0 17 -7 33.5t-21 29t-34.5 20t-47.5 7.5h-60l41 132q-95 11 -149.5 83t-54.5 206v674h-152v81h152v235h102v-235z" />
    <glyph glyph-name="Tcaron" unicode="&#x164;" horiz-adv-x="1089" 
d="M23 1400h1042v-94h-468v-1306h-106v1306h-468v94zM579 1544h-120l-202 239h110l152 -164l153 164h109z" />
    <glyph glyph-name="tcaron" unicode="&#x165;" horiz-adv-x="754" 
d="M341 1043h348v-81h-348v-661q0 -109 40.5 -161t117.5 -51q90 3 174 60l35 -76q-51 -36 -107 -55.5t-116 -20.5q-67 -1 -114 21.5t-76 62.5t-42.5 93t-13.5 114v674h-152v81h152v235h102v-235zM511 1484h98l-26 -319h-72v319z" />
    <glyph glyph-name="Tbar" unicode="&#x166;" horiz-adv-x="1089" 
d="M23 1400h1042v-94h-468v-1306h-106v1306h-468v94zM166 721h752v-70h-752v70z" />
    <glyph glyph-name="tbar" unicode="&#x167;" horiz-adv-x="754" 
d="M87 1043h152v235h102v-235h348v-81h-348v-318h346v-81h-346v-262q0 -109 40.5 -161t117.5 -51q90 3 174 60l35 -76q-51 -36 -107 -55.5t-116 -20.5q-67 -1 -114 21.5t-76 62.5t-42.5 93t-13.5 114v275h-153v81h153v318h-152v81z" />
    <glyph glyph-name="Utilde" unicode="&#x168;" horiz-adv-x="1539" 
d="M304 567q0 -115 32 -204.5t92 -151.5t146.5 -94.5t196.5 -32.5t196 32.5t145.5 94t91 151.5t31.5 205v833h106v-833q0 -136 -38.5 -243.5t-112 -181t-179 -112.5t-240.5 -39t-241 39t-179.5 112.5t-112.5 181t-39 243.5v833h105v-833zM1068 1737q0 -41 -9 -76.5
t-27.5 -62t-47 -41.5t-66.5 -15q-42 0 -75.5 19t-63 41.5t-57.5 41t-60 18.5q-44 0 -64 -30.5t-20 -81.5h-78q0 41 9.5 77t28 62t47 41t66.5 15q42 0 75.5 -18.5t63 -41t57.5 -41.5t59 -19q44 0 64.5 30.5t20.5 81.5h77z" />
    <glyph glyph-name="utilde" unicode="&#x169;" horiz-adv-x="1285" 
d="M271 426q0 -79 22 -141t63.5 -105t101.5 -65.5t136 -22.5q90 2 161.5 34t121 89t75.5 137.5t26 179.5v511h103v-1043h-103v268q-51 -133 -156 -200.5t-257 -70.5q-94 0 -167.5 28t-124.5 81t-78 128.5t-27 171.5v637h103v-617zM926 1436q0 -41 -9 -76.5t-27.5 -62
t-47 -41.5t-66.5 -15q-42 0 -75.5 19t-63 41.5t-57.5 41t-60 18.5q-44 0 -64 -30.5t-20 -81.5h-78q0 41 9.5 77t28 62t47 41t66.5 15q42 0 75.5 -18.5t63 -41t57.5 -41.5t59 -19q44 0 64.5 30.5t20.5 81.5h77z" />
    <glyph glyph-name="Umacron" unicode="&#x16a;" horiz-adv-x="1539" 
d="M304 567q0 -115 32 -204.5t92 -151.5t146.5 -94.5t196.5 -32.5t196 32.5t145.5 94t91 151.5t31.5 205v833h106v-833q0 -136 -38.5 -243.5t-112 -181t-179 -112.5t-240.5 -39t-241 39t-179.5 112.5t-112.5 181t-39 243.5v833h105v-833zM456 1627h627v-73h-627v73z" />
    <glyph glyph-name="umacron" unicode="&#x16b;" horiz-adv-x="1285" 
d="M271 426q0 -79 22 -141t63.5 -105t101.5 -65.5t136 -22.5q90 2 161.5 34t121 89t75.5 137.5t26 179.5v511h103v-1043h-103v268q-51 -133 -156 -200.5t-257 -70.5q-94 0 -167.5 28t-124.5 81t-78 128.5t-27 171.5v637h103v-617zM373 1380h539v-73h-539v73z" />
    <glyph glyph-name="Ubreve" unicode="&#x16c;" horiz-adv-x="1539" 
d="M304 567q0 -115 32 -204.5t92 -151.5t146.5 -94.5t196.5 -32.5t196 32.5t145.5 94t91 151.5t31.5 205v833h106v-833q0 -136 -38.5 -243.5t-112 -181t-179 -112.5t-240.5 -39t-241 39t-179.5 112.5t-112.5 181t-39 243.5v833h105v-833zM615 1774q2 -34 14 -63t32.5 -50
t48.5 -33t60 -12t60 12t49 33t33.5 50t13.5 63h78q-1 -51 -19.5 -94t-50 -74t-73.5 -48.5t-91 -17.5q-48 0 -90 17.5t-73.5 48.5t-50 74t-20.5 94h79z" />
    <glyph glyph-name="ubreve" unicode="&#x16d;" horiz-adv-x="1285" 
d="M271 426q0 -79 22 -141t63.5 -105t101.5 -65.5t136 -22.5q90 2 161.5 34t121 89t75.5 137.5t26 179.5v511h103v-1043h-103v268q-51 -133 -156 -200.5t-257 -70.5q-94 0 -167.5 28t-124.5 81t-78 128.5t-27 171.5v637h103v-617zM488 1467q2 -34 14 -63t32.5 -50t48.5 -33
t60 -12t60 12t49 33t33.5 50t13.5 63h78q-1 -51 -19.5 -94t-50 -74t-73.5 -48.5t-91 -17.5q-48 0 -90 17.5t-73.5 48.5t-50 74t-20.5 94h79z" />
    <glyph glyph-name="Uring" unicode="&#x16e;" horiz-adv-x="1539" 
d="M304 567q0 -115 32 -204.5t92 -151.5t146.5 -94.5t196.5 -32.5t196 32.5t145.5 94t91 151.5t31.5 205v833h106v-833q0 -136 -38.5 -243.5t-112 -181t-179 -112.5t-240.5 -39t-241 39t-179.5 112.5t-112.5 181t-39 243.5v833h105v-833zM769 1893q40 0 75 -15.5t61.5 -41
t42 -59.5t15.5 -72t-15.5 -72.5t-42 -60t-61.5 -40.5t-75 -15q-39 0 -74.5 15t-61.5 40.5t-41.5 60t-15.5 72.5t15.5 72t41.5 59.5t61.5 41t74.5 15.5zM769 1830q-27 0 -50.5 -10t-41.5 -27t-28.5 -39.5t-10.5 -48.5q0 -25 10.5 -48t28.5 -40t41.5 -27t50.5 -10q26 0 50 10
t42 27t29 40t11 48q0 26 -11 48.5t-29 39.5t-42 27t-50 10z" />
    <glyph glyph-name="uring" unicode="&#x16f;" horiz-adv-x="1285" 
d="M271 426q0 -79 22 -141t63.5 -105t101.5 -65.5t136 -22.5q90 2 161.5 34t121 89t75.5 137.5t26 179.5v511h103v-1043h-103v268q-51 -133 -156 -200.5t-257 -70.5q-94 0 -167.5 28t-124.5 81t-78 128.5t-27 171.5v637h103v-617zM642 1537q40 0 75 -15.5t61.5 -41t42 -59.5
t15.5 -72t-15.5 -72.5t-42 -60t-61.5 -40.5t-75 -15q-39 0 -74.5 15t-61.5 40.5t-41.5 60t-15.5 72.5t15.5 72t41.5 59.5t61.5 41t74.5 15.5zM642 1474q-27 0 -50.5 -10t-41.5 -27t-28.5 -39.5t-10.5 -48.5q0 -25 10.5 -48t28.5 -40t41.5 -27t50.5 -10q26 0 50 10t42 27
t29 40t11 48q0 26 -11 48.5t-29 39.5t-42 27t-50 10z" />
    <glyph glyph-name="Uhungarumlaut" unicode="&#x170;" horiz-adv-x="1539" 
d="M304 567q0 -115 32 -204.5t92 -151.5t146.5 -94.5t196.5 -32.5t196 32.5t145.5 94t91 151.5t31.5 205v833h106v-833q0 -136 -38.5 -243.5t-112 -181t-179 -112.5t-240.5 -39t-241 39t-179.5 112.5t-112.5 181t-39 243.5v833h105v-833zM745 1795l88 -44l-187 -210l-85 12z
M1013 1795l88 -44l-186 -210l-86 12z" />
    <glyph glyph-name="uhungarumlaut" unicode="&#x171;" horiz-adv-x="1285" 
d="M271 426q0 -79 22 -141t63.5 -105t101.5 -65.5t136 -22.5q90 2 161.5 34t121 89t75.5 137.5t26 179.5v511h103v-1043h-103v268q-51 -133 -156 -200.5t-257 -70.5q-94 0 -167.5 28t-124.5 81t-78 128.5t-27 171.5v637h103v-617zM618 1493l88 -44l-187 -210l-85 12z
M886 1493l88 -44l-186 -210l-86 12z" />
    <glyph glyph-name="Uogonek" unicode="&#x172;" horiz-adv-x="1539" 
d="M304 567q0 -115 32 -204.5t92 -151.5t146.5 -94.5t196.5 -32.5t196 32.5t145.5 94t91 151.5t31.5 205v833h106v-833q0 -136 -38.5 -243.5t-112 -181t-179 -112.5t-240.5 -39t-241 39t-179.5 112.5t-112.5 181t-39 243.5v833h105v-833zM1140 99q-56 -46 -101.5 -93.5
t-77.5 -93t-49.5 -88t-17.5 -78.5q0 -47 24.5 -70t62.5 -23q24 0 50.5 8t49.5 24l31 -69q-38 -23 -76.5 -34t-73.5 -11q-37 0 -68 12t-52.5 33.5t-33.5 52.5t-12 70q0 92 74.5 190.5t219.5 210.5z" />
    <glyph glyph-name="uogonek" unicode="&#x173;" horiz-adv-x="1285" 
d="M271 426q0 -79 22 -141t63.5 -105t101.5 -65.5t136 -22.5q90 2 161.5 34t121 89t75.5 137.5t26 179.5v511h103v-1043h-103v268q-51 -133 -156 -200.5t-257 -70.5q-94 0 -167.5 28t-124.5 81t-78 128.5t-27 171.5v637h103v-617zM1082 0q-56 -39 -97.5 -72t-69 -63.5
t-41 -60t-13.5 -61.5q0 -48 25 -69t62 -21q23 0 49.5 7.5t50.5 24.5l32 -69q-38 -23 -76 -34t-74 -11q-75 0 -121 41.5t-46 117.5q0 85 63 160t196 155z" />
    <glyph glyph-name="Wcircumflex" unicode="&#x174;" horiz-adv-x="2026" 
d="M15 1400h116l416 -1289l414 1289h108l416 -1289l414 1289h112l-474 -1400h-110l-413 1268l-416 -1268h-109zM955 1783h120l202 -239h-109l-153 163l-152 -163h-110z" />
    <glyph glyph-name="wcircumflex" unicode="&#x175;" horiz-adv-x="1686" 
d="M14 1043h111l338 -942l334 942h111l337 -942l336 942h108l-392 -1043h-108l-336 920l-338 -920h-108zM786 1481h120l202 -239h-109l-153 163l-152 -163h-110z" />
    <glyph glyph-name="Ycircumflex" unicode="&#x176;" horiz-adv-x="1234" 
d="M569 511l-555 889h111l496 -778l487 778h112l-547 -886v-514h-104v511zM556 1783h120l202 -239h-109l-153 163l-152 -163h-110z" />
    <glyph glyph-name="ycircumflex" unicode="&#x177;" horiz-adv-x="962" 
d="M481 -150q-48 -118 -123.5 -179.5t-171.5 -61.5q-120 0 -205 64l45 79q69 -48 154 -48q69 0 124 46.5t91 135.5l47 116l-432 1041h110l374 -932l363 932h108zM429 1481h120l202 -239h-109l-153 163l-152 -163h-110z" />
    <glyph glyph-name="Ydieresis" unicode="&#x178;" horiz-adv-x="1234" 
d="M569 511l-555 889h111l496 -778l487 778h112l-547 -886v-514h-104v511zM455 1691q32 0 53.5 -21.5t21.5 -53.5q0 -31 -21.5 -53t-53.5 -22t-53.5 22t-21.5 53q0 32 21.5 53.5t53.5 21.5zM777 1691q31 0 52.5 -21.5t21.5 -53.5q0 -31 -21.5 -53t-52.5 -22q-32 0 -54 22
t-22 53q0 32 22 53.5t54 21.5z" />
    <glyph glyph-name="Zacute" unicode="&#x179;" horiz-adv-x="1312" 
d="M121 1400h1089v-87l-983 -1219h990v-94h-1123v87l983 1219h-956v94zM837 1791l104 -46l-253 -204l-98 13z" />
    <glyph glyph-name="zacute" unicode="&#x17a;" horiz-adv-x="1038" 
d="M131 1043l799 -2v-82l-696 -874l711 -1v-86l-832 2v83l696 873l-678 2v85zM708 1489l104 -46l-253 -204l-98 13z" />
    <glyph glyph-name="Zdotaccent" unicode="&#x17b;" horiz-adv-x="1312" 
d="M121 1400h1089v-87l-983 -1219h990v-94h-1123v87l983 1219h-956v94zM666 1699q33 0 56 -22.5t23 -56.5q0 -33 -23 -56t-56 -23t-56.5 23t-23.5 56q0 34 23.5 56.5t56.5 22.5z" />
    <glyph glyph-name="zdotaccent" unicode="&#x17c;" horiz-adv-x="1038" 
d="M131 1043l799 -2v-82l-696 -874l711 -1v-86l-832 2v83l696 873l-678 2v85zM522 1423q33 0 56.5 -23t23.5 -57q0 -33 -23.5 -56t-56.5 -23t-56 23t-23 56q0 34 23 57t56 23z" />
    <glyph glyph-name="Zcaron" unicode="&#x17d;" horiz-adv-x="1312" 
d="M121 1400h1089v-87l-983 -1219h990v-94h-1123v87l983 1219h-956v94zM705 1544h-120l-202 239h110l152 -164l153 164h109z" />
    <glyph glyph-name="zcaron" unicode="&#x17e;" horiz-adv-x="1038" 
d="M131 1043l799 -2v-82l-696 -874l711 -1v-86l-832 2v83l696 873l-678 2v85zM582 1242h-120l-202 239h110l152 -164l153 164h109z" />
    <glyph glyph-name="longs" unicode="&#x17f;" horiz-adv-x="727" 
d="M227 962h-133v81h133v146q0 77 26 139.5t69.5 106.5t101 68t120.5 24q45 0 89.5 -13.5t83.5 -34.5l-30 -82q-32 17 -68 28.5t-73 11.5q-45 0 -84.5 -17t-69 -48.5t-46 -75.5t-16.5 -98v-1198h-103v962z" />
    <glyph glyph-name="uni018F" unicode="&#x18f;" horiz-adv-x="1575" 
d="M783 -9q-150 0 -279 56.5t-224.5 155t-149.5 231.5t-54 286h1305q-4 125 -52 233.5t-129 189.5t-188 127.5t-228 46.5q-145 0 -268 -59.5t-209 -162.5l-74 71q101 114 239.5 179t310.5 65q98 0 187.5 -25t167.5 -71t142 -111t109.5 -143.5t70.5 -169t25 -188.5t-25 -189
t-70.5 -170t-109.5 -144t-142 -111t-168 -71.5t-187 -25.5zM784 84q115 0 217.5 42t181.5 115t129.5 172t62.5 213h-1186q12 -114 62.5 -213t129.5 -172t182.5 -115t220.5 -42z" />
    <glyph glyph-name="florin" unicode="&#x192;" horiz-adv-x="661" 
d="M335 848l-112 -925q-9 -72 -31 -130.5t-57 -99.5t-84.5 -63t-113.5 -21q-49 2 -100.5 22t-87.5 52l40 75q28 -27 67 -43.5t76 -18.5q51 -1 85 20.5t55.5 56t32.5 77t16 84.5l111 914h-131l9 77h132l32 264q9 72 36.5 130.5t69 100t96 63.5t117.5 21q57 -2 115.5 -22.5
t100.5 -52.5l-46 -74q-33 27 -77 43.5t-85 18.5q-51 1 -90.5 -19t-68 -53.5t-45 -76.5t-22.5 -89l-31 -254h319l-9 -77h-319z" />
    <glyph glyph-name="Ohorn" unicode="&#x1a0;" horiz-adv-x="1685" 
d="M816 1410q101 0 194 -25t173.5 -71t147 -110.5t113.5 -143t73 -169t26 -188.5t-26 -189.5t-73 -170.5t-113.5 -144t-147 -111t-173.5 -71.5t-194 -25.5q-100 0 -193 25.5t-174 71.5t-147.5 111t-113.5 144t-73 170.5t-26 189.5t26 188.5t73 169t113.5 143t147.5 110.5
t174 71t193 25zM817 1317q-85 0 -164 -22t-148 -62t-126 -96t-97.5 -124.5t-63 -146.5t-22.5 -163t22.5 -164t63 -148t97.5 -125.5t126 -97t148 -62.5t164 -22t164 22t147.5 62.5t125 97t97 125.5t62.5 148t22 164t-22 163t-62.5 146.5t-97 124.5t-125 96t-147.5 62t-164 22
zM1420 1646q43 -68 46.5 -138t-24 -127t-82.5 -93t-129 -36q-61 0 -102 10l5 76q20 -7 43 -11t47 -4q53 0 88.5 28.5t50.5 71.5t7.5 93.5t-39.5 94.5z" />
    <glyph glyph-name="ohorn" unicode="&#x1a1;" horiz-adv-x="1275" 
d="M613 1046q113 0 208 -38.5t164 -108t108 -165.5t39 -211t-39 -212t-108 -166.5t-164 -108.5t-208 -39t-208.5 39t-164.5 108.5t-108 166.5t-39 212t39 211t108 165.5t164.5 108t208.5 38.5zM613 957q-91 0 -167.5 -32t-132 -89.5t-86.5 -137.5t-31 -176q0 -97 31 -177.5
t86.5 -138t132 -89.5t167.5 -32t167 32t131.5 89.5t86.5 138t31 177.5q0 96 -31 176t-86.5 137.5t-131.5 89.5t-167 32zM1159 1291q43 -68 46.5 -138t-24 -127t-82.5 -93t-129 -36q-61 0 -102 10l5 76q20 -7 43 -11t47 -4q53 0 88.5 28.5t50.5 71.5t7.5 93.5t-39.5 94.5z
" />
    <glyph glyph-name="Uhorn" unicode="&#x1af;" horiz-adv-x="1571" 
d="M304 567q0 -115 32 -204.5t92 -151.5t146.5 -94.5t196.5 -32.5t196 32.5t145.5 94t91 151.5t31.5 205v833h106v-833q0 -136 -38.5 -243.5t-112 -181t-179 -112.5t-240.5 -39t-241 39t-179.5 112.5t-112.5 181t-39 243.5v833h105v-833zM1479 1646q29 -63 30.5 -120.5
t-23 -101t-73.5 -69t-121 -25.5l2 69q50 0 79.5 18.5t41.5 49t6.5 69.5t-25.5 79z" />
    <glyph glyph-name="uhorn" unicode="&#x1b0;" horiz-adv-x="1286" 
d="M271 426q0 -79 22 -141t63.5 -105t101.5 -65.5t136 -22.5q90 2 161.5 34t121 89t75.5 137.5t26 179.5v511h103v-1043h-103v268q-51 -133 -156 -200.5t-257 -70.5q-94 0 -167.5 28t-124.5 81t-78 128.5t-27 171.5v637h103v-617zM1207 1290q29 -63 30.5 -120.5t-23 -101
t-73.5 -69t-121 -25.5l2 69q50 0 79.5 18.5t41.5 49t6.5 69.5t-25.5 79z" />
    <glyph glyph-name="uni01C4" unicode="&#x1c4;" horiz-adv-x="2911" 
d="M791 1400q101 0 193.5 -24.5t172 -70t145 -109t111.5 -141t71.5 -168t25.5 -188.5t-25.5 -187.5t-72 -167.5t-111.5 -141.5t-145.5 -108.5t-173 -69.5t-193.5 -24.5h-557v1400h559zM793 94q127 0 238.5 47t194 128.5t130.5 192t48 237.5q0 128 -48 238.5t-131.5 192.5
t-195.5 129t-240 47h-452v-1212h456zM1720 1400h1089v-87l-983 -1219h990v-94h-1123v87l983 1219h-956v94zM2304 1544h-120l-202 239h110l152 -164l153 164h109z" />
    <glyph glyph-name="uni01C5" unicode="&#x1c5;" horiz-adv-x="2639" 
d="M791 1400q101 0 193.5 -24.5t172 -70t145 -109t111.5 -141t71.5 -168t25.5 -188.5t-25.5 -187.5t-72 -167.5t-111.5 -141.5t-145.5 -108.5t-173 -69.5t-193.5 -24.5h-557v1400h559zM793 94q127 0 238.5 47t194 128.5t130.5 192t48 237.5q0 128 -48 238.5t-131.5 192.5
t-195.5 129t-240 47h-452v-1212h456zM1730 1043l799 -2v-82l-696 -874l711 -1v-86l-832 2v83l696 873l-678 2v85zM2181 1242h-120l-202 239h110l152 -164l153 164h109z" />
    <glyph glyph-name="uni01C6" unicode="&#x1c6;" horiz-adv-x="2390" 
d="M1035 260q-29 -62 -72.5 -111t-99 -83.5t-122 -53t-141.5 -18.5q-111 0 -204.5 39.5t-160.5 109.5t-104.5 167t-37.5 212q0 116 37.5 212.5t105 166.5t160 109t203.5 39q152 0 264.5 -71t171.5 -196v702h104v-1484h-104v260zM616 961q-91 0 -168 -33t-133 -92
t-87.5 -139.5t-31.5 -176.5t31.5 -176.5t87 -139t132.5 -91t169 -32.5t168.5 32.5t132.5 91t87 139t31 176.5t-31 176.5t-87 139.5t-132.5 92t-168.5 33zM1483 1043l799 -2v-82l-696 -874l711 -1v-86l-832 2v83l696 873l-678 2v85zM1934 1242h-120l-202 239h110l152 -164
l153 164h109z" />
    <glyph glyph-name="uni01C7" unicode="&#x1c7;" horiz-adv-x="1957" 
d="M232 1400h105v-1306h620v-94h-725v1400zM1759 407q0 -199 -97.5 -304.5t-277.5 -105.5q-111 0 -205 51t-164 146l56 76q64 -85 144 -129.5t168 -44.5q131 0 200.5 79.5t69.5 233.5v991h106v-993z" />
    <glyph glyph-name="uni01C8" unicode="&#x1c8;" horiz-adv-x="1487" 
d="M232 1400h105v-1306h620v-94h-725v1400zM927 -279q50 -20 105 -23q54 -1 88.5 22t54 60t26.5 83t7 90v1090h103v-1101q0 -165 -67.5 -249t-195.5 -82q-80 3 -148 31zM1259 1423q33 0 56.5 -23t23.5 -57q0 -33 -23.5 -56t-56.5 -23t-56 23t-23 56q0 34 23 57t56 23z" />
    <glyph glyph-name="uni01C9" unicode="&#x1c9;" horiz-adv-x="1027" 
d="M288 225q0 -69 27 -102.5t78 -33.5q27 0 56 13.5t58 39.5l28 -77q-41 -33 -82.5 -50.5t-80.5 -17.5q-85 0 -135 55t-50 164v1268h101v-1259zM466 -279q50 -20 105 -23q54 -1 88.5 22t54 60t26.5 83t7 90v1090h103v-1101q0 -165 -67.5 -249t-195.5 -82q-80 3 -148 31z
M798 1423q33 0 56.5 -23t23.5 -57q0 -33 -23.5 -56t-56.5 -23t-56 23t-23 56q0 34 23 57t56 23z" />
    <glyph glyph-name="uni01CA" unicode="&#x1ca;" horiz-adv-x="2541" 
d="M232 1400h117l909 -1249v1249h104v-1400h-117l-908 1248v-1248h-105v1400zM2342 407q0 -199 -97.5 -304.5t-277.5 -105.5q-111 0 -205 51t-164 146l56 76q64 -85 144 -129.5t168 -44.5q131 0 200.5 79.5t69.5 233.5v991h106v-993z" />
    <glyph glyph-name="uni01CB" unicode="&#x1cb;" horiz-adv-x="2070" 
d="M232 1400h117l909 -1249v1249h104v-1400h-117l-908 1248v-1248h-105v1400zM1510 -279q50 -20 105 -23q54 -1 88.5 22t54 60t26.5 83t7 90v1090h103v-1101q0 -165 -67.5 -249t-195.5 -82q-80 3 -148 31zM1842 1423q33 0 56.5 -23t23.5 -57q0 -33 -23.5 -56t-56.5 -23
t-56 23t-23 56q0 34 23 57t56 23z" />
    <glyph glyph-name="uni01CC" unicode="&#x1cc;" horiz-adv-x="1776" 
d="M1027 617q0 79 -22.5 141t-64.5 105t-103 65.5t-139 22.5q-87 -1 -156 -29t-119 -78t-79.5 -121t-36.5 -159v-564h-104v1043h104v-260q53 129 160 195t261 68q95 0 170 -28t126.5 -80.5t79 -128.5t27.5 -172v-637h-104v617zM1216 -279q50 -20 105 -23q54 -1 88.5 22
t54 60t26.5 83t7 90v1090h103v-1101q0 -165 -67.5 -249t-195.5 -82q-80 3 -148 31zM1548 1423q33 0 56.5 -23t23.5 -57q0 -33 -23.5 -56t-56.5 -23t-56 23t-23 56q0 34 23 57t56 23z" />
    <glyph glyph-name="Gcaron" unicode="&#x1e6;" horiz-adv-x="1514" 
d="M1255 1150q-88 80 -200 123.5t-237 43.5q-86 0 -166 -22t-149 -62t-126 -96.5t-97.5 -124.5t-62.5 -146.5t-22 -163.5q0 -128 49 -241t133.5 -197t198.5 -132.5t243 -48.5q108 0 209.5 35t186.5 98v437h-542v94h643v-572q-50 -42 -108.5 -76t-123 -58t-133 -37
t-138.5 -13q-100 0 -192.5 25.5t-173 71.5t-146.5 111t-113 144t-73 170t-26 189t26 188.5t73.5 169t113.5 143t147 110.5t174.5 71t194.5 25q143 0 271.5 -50t227.5 -138zM804 1543h-120l-202 239h110l152 -164l153 164h109z" />
    <glyph glyph-name="gcaron" unicode="&#x1e7;" horiz-adv-x="1267" 
d="M1091 113q0 -116 -36.5 -209t-103.5 -158t-161.5 -100.5t-210.5 -35.5q-125 0 -228 43t-196 124l51 71q81 -75 170 -113t200 -38q94 0 170 29t130 83t83.5 130.5t29.5 171.5v184q-57 -118 -164 -185.5t-251 -67.5q-105 0 -193.5 37.5t-152.5 104t-99.5 159t-35.5 201.5
q0 110 35.5 202t99 158.5t151 104t192.5 37.5q146 0 253.5 -67.5t164.5 -186.5v251h102v-930zM589 962q-87 0 -160 -31.5t-126 -87.5t-83 -133t-30 -168q0 -90 30 -166.5t82.5 -132t126 -87t160.5 -31.5t160.5 31.5t126.5 87t83 132t30 166.5q0 91 -30 168t-83 133
t-126.5 87.5t-160.5 31.5zM660 1242h-120l-202 239h110l152 -164l153 164h109z" />
    <glyph glyph-name="uni01EA" unicode="&#x1ea;" 
d="M816 1410q101 0 194 -25t173.5 -71t147 -110.5t113.5 -143t73 -169t26 -188.5t-26 -189.5t-73 -170.5t-113.5 -144t-147 -111t-173.5 -71.5t-194 -25.5q-100 0 -193 25.5t-174 71.5t-147.5 111t-113.5 144t-73 170.5t-26 189.5t26 188.5t73 169t113.5 143t147.5 110.5
t174 71t193 25zM817 1317q-85 0 -164 -22t-148 -62t-126 -96t-97.5 -124.5t-63 -146.5t-22.5 -163t22.5 -164t63 -148t97.5 -125.5t126 -97t148 -62.5t164 -22t164 22t147.5 62.5t125 97t97 125.5t62.5 148t22 164t-22 163t-62.5 146.5t-97 124.5t-125 96t-147.5 62t-164 22
zM1193 99q-56 -46 -101.5 -93.5t-77.5 -93t-49.5 -88t-17.5 -78.5q0 -47 24.5 -70t62.5 -23q24 0 50.5 8t49.5 24l31 -69q-38 -23 -76.5 -34t-73.5 -11q-37 0 -68 12t-52.5 33.5t-33.5 52.5t-12 70q0 92 74.5 190.5t219.5 210.5z" />
    <glyph glyph-name="uni01EB" unicode="&#x1eb;" horiz-adv-x="1225" 
d="M613 1046q113 0 208 -38.5t164 -108t108 -165.5t39 -211t-39 -212t-108 -166.5t-164 -108.5t-208 -39t-208.5 39t-164.5 108.5t-108 166.5t-39 212t39 211t108 165.5t164.5 108t208.5 38.5zM613 957q-91 0 -167.5 -32t-132 -89.5t-86.5 -137.5t-31 -176q0 -97 31 -177.5
t86.5 -138t132 -89.5t167.5 -32t167 32t131.5 89.5t86.5 138t31 177.5q0 96 -31 176t-86.5 137.5t-131.5 89.5t-167 32zM932 99q-56 -46 -101.5 -93.5t-77.5 -93t-49.5 -88t-17.5 -78.5q0 -47 24.5 -70t62.5 -23q24 0 50.5 8t49.5 24l31 -69q-38 -23 -76.5 -34t-73.5 -11
q-37 0 -68 12t-52.5 33.5t-33.5 52.5t-12 70q0 92 74.5 190.5t219.5 210.5z" />
    <glyph glyph-name="Aringacute" unicode="&#x1fa;" horiz-adv-x="1408" 
d="M641 1385q-28 10 -52.5 27.5t-41.5 41t-27 51.5t-10 58q0 38 15.5 72t41.5 59.5t61.5 41t74.5 15.5q37 0 71 -14l225 148l88 -58l-244 -136q25 -26 39.5 -59t14.5 -69q0 -30 -10 -58.5t-27.5 -51.5t-42 -41t-53.5 -27l630 -1385h-115l-176 393h-801l-174 -393h-114z
M1061 486l-361 804l-356 -804h717zM703 1688q-27 0 -50.5 -10t-41.5 -27t-28.5 -39.5t-10.5 -48.5q0 -25 10.5 -48t28.5 -40t41.5 -27t50.5 -10q26 0 50 10t42 27t29 40t11 48q0 26 -11 48.5t-29 39.5t-42 27t-50 10z" />
    <glyph glyph-name="aringacute" unicode="&#x1fb;" horiz-adv-x="1140" 
d="M867 197q-66 -103 -170 -151.5t-237 -48.5q-79 0 -143 23.5t-110 64.5t-71 97.5t-25 122.5t27 118.5t77.5 89.5t122.5 56.5t163 19.5h364v96q-1 129 -76.5 202.5t-227.5 73.5q-95 0 -179 -35t-167 -98l-47 71q48 34 94.5 61.5t96 46.5t103.5 29t116 10q94 0 166 -24.5
t121.5 -70.5t75 -111.5t26.5 -146.5l3 -693h-102zM477 82q143 0 244.5 64.5t144.5 197.5v163h-353q-149 0 -226 -50t-77 -149q0 -50 18.5 -91.5t53.5 -71.5t84.5 -46.5t110.5 -16.5zM559 1537q40 0 75 -15.5t61.5 -41t42 -59.5t15.5 -72t-15.5 -72.5t-42 -60t-61.5 -40.5
t-75 -15q-39 0 -74.5 15t-61.5 40.5t-41.5 60t-15.5 72.5t15.5 72t41.5 59.5t61.5 41t74.5 15.5zM724 1837l88 -58l-285 -158l-90 28zM559 1474q-27 0 -50.5 -10t-41.5 -27t-28.5 -39.5t-10.5 -48.5q0 -25 10.5 -48t28.5 -40t41.5 -27t50.5 -10q26 0 50 10t42 27t29 40
t11 48q0 26 -11 48.5t-29 39.5t-42 27t-50 10z" />
    <glyph glyph-name="AEacute" unicode="&#x1fc;" horiz-adv-x="2018" 
d="M954 415h-582l-244 -415h-114l833 1400h1024v-94h-812v-544h724v-93h-724v-575h838v-94h-943v415zM954 501v811h-55l-477 -811h532zM1386 1790l104 -46l-253 -204l-98 13z" />
    <glyph glyph-name="aeacute" unicode="&#x1fd;" horiz-adv-x="1967" 
d="M461 -3q-78 0 -142 22.5t-110.5 62.5t-72 96.5t-25.5 123.5q0 65 26.5 116t77 86.5t123.5 54.5t165 19h364v107q0 134 -78.5 205t-226.5 71q-90 0 -177 -32t-183 -101l-35 73q107 74 207.5 109.5t203.5 35.5q154 0 250 -68.5t120 -195.5q30 62 75 111t101 83t122 52
t139 18q111 0 203 -40t157.5 -112.5t101.5 -172.5t34 -220h-907v-40q0 -75 34.5 -143.5t92 -120.5t133.5 -83t159 -31q103 0 191 36t153 106l60 -60q-77 -81 -182 -124.5t-228 -43.5q-80 0 -153 21.5t-133.5 61t-107 94.5t-74.5 122q-131 -299 -458 -299zM1385 966
q-84 0 -156.5 -28t-127.5 -79t-88 -122.5t-38 -158.5h802q-5 89 -36 160.5t-82 122t-121 78t-153 27.5zM478 75q73 0 131.5 16t106 50t84.5 87.5t67 127.5v145h-349q-148 0 -228 -47t-80 -146q0 -52 19 -95t54.5 -73.5t85 -47.5t109.5 -17zM1170 1489l104 -46l-253 -204
l-98 13z" />
    <glyph glyph-name="Oslashacute" unicode="&#x1fe;" 
d="M371 144q-64 48 -116 109t-89 132.5t-57 151t-20 164.5q0 98 26 187.5t73 167.5t113.5 142t147.5 109t174 70t193 25q106 0 201.5 -26.5t178.5 -76.5l151 212h95l-182 -254q65 -48 117 -109t89 -132t57 -150.5t20 -164.5q0 -97 -26 -187.5t-73 -168.5t-113.5 -142
t-147 -110t-173.5 -71t-194 -25q-106 0 -202 27t-179 77l-151 -211h-94zM817 1309q-85 0 -164 -21.5t-148 -61.5t-126 -95t-97.5 -123t-63 -145.5t-22.5 -161.5q0 -72 16.5 -139.5t47 -128.5t73.5 -113.5t96 -94.5l710 994q-71 43 -152.5 66.5t-169.5 23.5zM1435 701
q0 72 -16.5 139.5t-47 128t-73.5 113t-96 94.5l-710 -995q72 -44 153.5 -67.5t171.5 -23.5q85 0 164 22t147.5 61.5t125 95.5t97 124t62.5 146t22 162zM989 1791l104 -46l-253 -204l-98 13z" />
    <glyph glyph-name="oslashacute" unicode="&#x1ff;" horiz-adv-x="1225" 
d="M285 104q-90 70 -141 177.5t-51 241.5q0 115 39 211t108 165.5t164.5 108t208.5 38.5q76 0 144 -18t126 -51l190 277h82l-215 -315q90 -69 141 -175.5t51 -240.5q0 -115 -39 -212t-108 -166.5t-164 -108.5t-208 -39q-77 0 -145 18t-126 51l-189 -277h-83zM613 963
q-92 0 -169.5 -32.5t-133.5 -90.5t-87 -139t-31 -179q0 -109 38 -197t106 -147l497 726q-48 29 -103 44t-117 15zM1033 522q0 109 -38 196t-106 147l-498 -727q48 -29 103.5 -44t118.5 -15q92 0 169 32.5t132.5 91t87 140t31.5 179.5zM800 1489l104 -46l-253 -204l-98 13z
" />
    <glyph glyph-name="uni0200" unicode="&#x200;" horiz-adv-x="1408" 
d="M647 1400h110l637 -1400h-115l-176 393h-801l-174 -393h-114zM1061 486l-361 804l-356 -804h717zM454 1794l185 -242l-86 -12l-187 210zM723 1794l185 -242l-87 -12l-186 210z" />
    <glyph glyph-name="uni0201" unicode="&#x201;" horiz-adv-x="1140" 
d="M867 197q-66 -103 -170 -151.5t-237 -48.5q-79 0 -143 23.5t-110 64.5t-71 97.5t-25 122.5t27 118.5t77.5 89.5t122.5 56.5t163 19.5h364v96q-1 129 -76.5 202.5t-227.5 73.5q-95 0 -179 -35t-167 -98l-47 71q48 34 94.5 61.5t96 46.5t103.5 29t116 10q94 0 166 -24.5
t121.5 -70.5t75 -111.5t26.5 -146.5l3 -693h-102zM477 82q143 0 244.5 64.5t144.5 197.5v163h-353q-149 0 -226 -50t-77 -149q0 -50 18.5 -91.5t53.5 -71.5t84.5 -46.5t110.5 -16.5zM328 1493l185 -242l-86 -12l-187 210zM597 1493l185 -242l-87 -12l-186 210z" />
    <glyph glyph-name="uni0202" unicode="&#x202;" horiz-adv-x="1408" 
d="M647 1400h110l637 -1400h-115l-176 393h-801l-174 -393h-114zM1061 486l-361 804l-356 -804h717zM469 1543q2 51 20.5 94t50 74t73.5 48.5t90 17.5q49 0 91 -17.5t73.5 -48.5t50 -74t19.5 -94h-78q-1 34 -13.5 63t-33.5 50t-49 33t-60 12t-60 -12t-48.5 -33t-32.5 -50
t-14 -63h-79z" />
    <glyph glyph-name="uni0203" unicode="&#x203;" horiz-adv-x="1140" 
d="M867 197q-66 -103 -170 -151.5t-237 -48.5q-79 0 -143 23.5t-110 64.5t-71 97.5t-25 122.5t27 118.5t77.5 89.5t122.5 56.5t163 19.5h364v96q-1 129 -76.5 202.5t-227.5 73.5q-95 0 -179 -35t-167 -98l-47 71q48 34 94.5 61.5t96 46.5t103.5 29t116 10q94 0 166 -24.5
t121.5 -70.5t75 -111.5t26.5 -146.5l3 -693h-102zM477 82q143 0 244.5 64.5t144.5 197.5v163h-353q-149 0 -226 -50t-77 -149q0 -50 18.5 -91.5t53.5 -71.5t84.5 -46.5t110.5 -16.5zM342 1233q2 51 20.5 94t50 74t73.5 48.5t90 17.5q49 0 91 -17.5t73.5 -48.5t50 -74
t19.5 -94h-78q-1 34 -13.5 63t-33.5 50t-49 33t-60 12t-60 -12t-48.5 -33t-32.5 -50t-14 -63h-79z" />
    <glyph glyph-name="uni0204" unicode="&#x204;" horiz-adv-x="1297" 
d="M232 1400h917v-94h-812v-544h724v-93h-724v-575h839v-94h-944v1400zM453 1795l185 -242l-86 -12l-187 210zM722 1795l185 -242l-87 -12l-186 210z" />
    <glyph glyph-name="uni0205" unicode="&#x205;" horiz-adv-x="1177" 
d="M194 493q5 -92 38 -167.5t88.5 -129.5t129.5 -83.5t162 -29.5q105 0 193 36.5t151 105.5l59 -60q-73 -80 -177.5 -124t-231.5 -44q-112 0 -206.5 38.5t-162.5 108.5t-106 166.5t-38 211.5t38 211t106.5 165.5t162 108.5t204.5 39q119 0 211 -40.5t154.5 -113t93 -174.5
t27.5 -225h-896zM605 961q-85 0 -156.5 -28t-125.5 -79t-87 -122t-41 -157h802q-6 87 -35.5 158t-80.5 121.5t-120.5 78.5t-155.5 28zM344 1493l185 -242l-86 -12l-187 210zM613 1493l185 -242l-87 -12l-186 210z" />
    <glyph glyph-name="uni0206" unicode="&#x206;" horiz-adv-x="1297" 
d="M232 1400h917v-94h-812v-544h724v-93h-724v-575h839v-94h-944v1400zM468 1544q2 51 20.5 94t50 74t73.5 48.5t90 17.5q49 0 91 -17.5t73.5 -48.5t50 -74t19.5 -94h-78q-1 34 -13.5 63t-33.5 50t-49 33t-60 12t-60 -12t-48.5 -33t-32.5 -50t-14 -63h-79z" />
    <glyph glyph-name="uni0207" unicode="&#x207;" horiz-adv-x="1177" 
d="M194 493q5 -92 38 -167.5t88.5 -129.5t129.5 -83.5t162 -29.5q105 0 193 36.5t151 105.5l59 -60q-73 -80 -177.5 -124t-231.5 -44q-112 0 -206.5 38.5t-162.5 108.5t-106 166.5t-38 211.5t38 211t106.5 165.5t162 108.5t204.5 39q119 0 211 -40.5t154.5 -113t93 -174.5
t27.5 -225h-896zM605 961q-85 0 -156.5 -28t-125.5 -79t-87 -122t-41 -157h802q-6 87 -35.5 158t-80.5 121.5t-120.5 78.5t-155.5 28zM358 1233q2 51 20.5 94t50 74t73.5 48.5t90 17.5q49 0 91 -17.5t73.5 -48.5t50 -74t19.5 -94h-78q-1 34 -13.5 63t-33.5 50t-49 33t-60 12
t-60 -12t-48.5 -33t-32.5 -50t-14 -63h-79z" />
    <glyph glyph-name="uni0208" unicode="&#x208;" horiz-adv-x="569" 
d="M232 1400h105v-1400h-105v1400zM35 1794l185 -242l-86 -12l-187 210zM304 1794l185 -242l-87 -12l-186 210z" />
    <glyph glyph-name="uni0209" unicode="&#x209;" horiz-adv-x="509" 
d="M203 1043h103v-1043h-103v1043zM6 1493l185 -242l-86 -12l-187 210zM275 1493l185 -242l-87 -12l-186 210z" />
    <glyph glyph-name="uni020A" unicode="&#x20a;" horiz-adv-x="569" 
d="M232 1400h105v-1400h-105v1400zM50 1543q2 51 20.5 94t50 74t73.5 48.5t90 17.5q49 0 91 -17.5t73.5 -48.5t50 -74t19.5 -94h-78q-1 34 -13.5 63t-33.5 50t-49 33t-60 12t-60 -12t-48.5 -33t-32.5 -50t-14 -63h-79z" />
    <glyph glyph-name="uni020B" unicode="&#x20b;" horiz-adv-x="509" 
d="M203 1043h103v-1043h-103v1043zM51 1233q2 52 18 95t43 74t63.5 48.5t79.5 17.5q42 0 78 -17.5t63 -48.5t43 -74t17 -95h-77q-1 34 -11 63t-26.5 50t-38.5 33t-48 12t-48.5 -12t-39 -33t-26.5 -50t-11 -63h-79z" />
    <glyph glyph-name="uni020C" unicode="&#x20c;" 
d="M816 1410q101 0 194 -25t173.5 -71t147 -110.5t113.5 -143t73 -169t26 -188.5t-26 -189.5t-73 -170.5t-113.5 -144t-147 -111t-173.5 -71.5t-194 -25.5q-100 0 -193 25.5t-174 71.5t-147.5 111t-113.5 144t-73 170.5t-26 189.5t26 188.5t73 169t113.5 143t147.5 110.5
t174 71t193 25zM817 1317q-85 0 -164 -22t-148 -62t-126 -96t-97.5 -124.5t-63 -146.5t-22.5 -163t22.5 -164t63 -148t97.5 -125.5t126 -97t148 -62.5t164 -22t164 22t147.5 62.5t125 97t97 125.5t62.5 148t22 164t-22 163t-62.5 146.5t-97 124.5t-125 96t-147.5 62t-164 22
zM567 1795l185 -242l-86 -12l-187 210zM836 1795l185 -242l-87 -12l-186 210z" />
    <glyph glyph-name="uni020D" unicode="&#x20d;" horiz-adv-x="1225" 
d="M613 1046q113 0 208 -38.5t164 -108t108 -165.5t39 -211t-39 -212t-108 -166.5t-164 -108.5t-208 -39t-208.5 39t-164.5 108.5t-108 166.5t-39 212t39 211t108 165.5t164.5 108t208.5 38.5zM613 957q-91 0 -167.5 -32t-132 -89.5t-86.5 -137.5t-31 -176q0 -97 31 -177.5
t86.5 -138t132 -89.5t167.5 -32t167 32t131.5 89.5t86.5 138t31 177.5q0 96 -31 176t-86.5 137.5t-131.5 89.5t-167 32zM364 1493l185 -242l-86 -12l-187 210zM633 1493l185 -242l-87 -12l-186 210z" />
    <glyph glyph-name="uni020E" unicode="&#x20e;" 
d="M816 1410q101 0 194 -25t173.5 -71t147 -110.5t113.5 -143t73 -169t26 -188.5t-26 -189.5t-73 -170.5t-113.5 -144t-147 -111t-173.5 -71.5t-194 -25.5q-100 0 -193 25.5t-174 71.5t-147.5 111t-113.5 144t-73 170.5t-26 189.5t26 188.5t73 169t113.5 143t147.5 110.5
t174 71t193 25zM817 1317q-85 0 -164 -22t-148 -62t-126 -96t-97.5 -124.5t-63 -146.5t-22.5 -163t22.5 -164t63 -148t97.5 -125.5t126 -97t148 -62.5t164 -22t164 22t147.5 62.5t125 97t97 125.5t62.5 148t22 164t-22 163t-62.5 146.5t-97 124.5t-125 96t-147.5 62t-164 22
zM582 1544q2 51 20.5 94t50 74t73.5 48.5t90 17.5q49 0 91 -17.5t73.5 -48.5t50 -74t19.5 -94h-78q-1 34 -13.5 63t-33.5 50t-49 33t-60 12t-60 -12t-48.5 -33t-32.5 -50t-14 -63h-79z" />
    <glyph glyph-name="uni020F" unicode="&#x20f;" horiz-adv-x="1225" 
d="M613 1046q113 0 208 -38.5t164 -108t108 -165.5t39 -211t-39 -212t-108 -166.5t-164 -108.5t-208 -39t-208.5 39t-164.5 108.5t-108 166.5t-39 212t39 211t108 165.5t164.5 108t208.5 38.5zM613 957q-91 0 -167.5 -32t-132 -89.5t-86.5 -137.5t-31 -176q0 -97 31 -177.5
t86.5 -138t132 -89.5t167.5 -32t167 32t131.5 89.5t86.5 138t31 177.5q0 96 -31 176t-86.5 137.5t-131.5 89.5t-167 32zM378 1233q2 51 20.5 94t50 74t73.5 48.5t90 17.5q49 0 91 -17.5t73.5 -48.5t50 -74t19.5 -94h-78q-1 34 -13.5 63t-33.5 50t-49 33t-60 12t-60 -12
t-48.5 -33t-32.5 -50t-14 -63h-79z" />
    <glyph glyph-name="uni0210" unicode="&#x210;" horiz-adv-x="1446" 
d="M738 1400q130 0 231.5 -31t171 -90t106 -145t36.5 -196q0 -177 -87 -291.5t-251 -158.5l346 -488h-123l-322 469q-51 -6 -108 -6h-401v-463h-105v1400h506zM738 557q105 0 187.5 25t139.5 73t86.5 118.5t29.5 162.5q0 90 -29.5 159t-86.5 116t-139.5 71t-187.5 24h-401
v-749h401zM435 1795l185 -242l-86 -12l-187 210zM704 1795l185 -242l-87 -12l-186 210z" />
    <glyph glyph-name="uni0211" unicode="&#x211;" horiz-adv-x="713" 
d="M203 1043h104v-256q50 125 148 191t238 68v-96q-85 0 -153.5 -27t-118 -77.5t-78.5 -122t-36 -161.5v-562h-104v1043zM199 1493l185 -242l-86 -12l-187 210zM468 1493l185 -242l-87 -12l-186 210z" />
    <glyph glyph-name="uni0212" unicode="&#x212;" horiz-adv-x="1446" 
d="M738 1400q130 0 231.5 -31t171 -90t106 -145t36.5 -196q0 -177 -87 -291.5t-251 -158.5l346 -488h-123l-322 469q-51 -6 -108 -6h-401v-463h-105v1400h506zM738 557q105 0 187.5 25t139.5 73t86.5 118.5t29.5 162.5q0 90 -29.5 159t-86.5 116t-139.5 71t-187.5 24h-401
v-749h401zM450 1544q2 51 20.5 94t50 74t73.5 48.5t90 17.5q49 0 91 -17.5t73.5 -48.5t50 -74t19.5 -94h-78q-1 34 -13.5 63t-33.5 50t-49 33t-60 12t-60 -12t-48.5 -33t-32.5 -50t-14 -63h-79z" />
    <glyph glyph-name="uni0213" unicode="&#x213;" horiz-adv-x="713" 
d="M203 1043h104v-256q50 125 148 191t238 68v-96q-85 0 -153.5 -27t-118 -77.5t-78.5 -122t-36 -161.5v-562h-104v1043zM213 1233q2 51 20.5 94t50 74t73.5 48.5t90 17.5q49 0 91 -17.5t73.5 -48.5t50 -74t19.5 -94h-78q-1 34 -13.5 63t-33.5 50t-49 33t-60 12t-60 -12
t-48.5 -33t-32.5 -50t-14 -63h-79z" />
    <glyph glyph-name="uni0214" unicode="&#x214;" horiz-adv-x="1539" 
d="M304 567q0 -115 32 -204.5t92 -151.5t146.5 -94.5t196.5 -32.5t196 32.5t145.5 94t91 151.5t31.5 205v833h106v-833q0 -136 -38.5 -243.5t-112 -181t-179 -112.5t-240.5 -39t-241 39t-179.5 112.5t-112.5 181t-39 243.5v833h105v-833zM521 1795l185 -242l-86 -12
l-187 210zM790 1795l185 -242l-87 -12l-186 210z" />
    <glyph glyph-name="uni0215" unicode="&#x215;" horiz-adv-x="1285" 
d="M271 426q0 -79 22 -141t63.5 -105t101.5 -65.5t136 -22.5q90 2 161.5 34t121 89t75.5 137.5t26 179.5v511h103v-1043h-103v268q-51 -133 -156 -200.5t-257 -70.5q-94 0 -167.5 28t-124.5 81t-78 128.5t-27 171.5v637h103v-617zM395 1493l185 -242l-86 -12l-187 210z
M664 1493l185 -242l-87 -12l-186 210z" />
    <glyph glyph-name="uni0216" unicode="&#x216;" horiz-adv-x="1539" 
d="M304 567q0 -115 32 -204.5t92 -151.5t146.5 -94.5t196.5 -32.5t196 32.5t145.5 94t91 151.5t31.5 205v833h106v-833q0 -136 -38.5 -243.5t-112 -181t-179 -112.5t-240.5 -39t-241 39t-179.5 112.5t-112.5 181t-39 243.5v833h105v-833zM536 1544q2 51 20.5 94t50 74
t73.5 48.5t90 17.5q49 0 91 -17.5t73.5 -48.5t50 -74t19.5 -94h-78q-1 34 -13.5 63t-33.5 50t-49 33t-60 12t-60 -12t-48.5 -33t-32.5 -50t-14 -63h-79z" />
    <glyph glyph-name="uni0217" unicode="&#x217;" horiz-adv-x="1285" 
d="M271 426q0 -79 22 -141t63.5 -105t101.5 -65.5t136 -22.5q90 2 161.5 34t121 89t75.5 137.5t26 179.5v511h103v-1043h-103v268q-51 -133 -156 -200.5t-257 -70.5q-94 0 -167.5 28t-124.5 81t-78 128.5t-27 171.5v637h103v-617zM409 1233q2 51 20.5 94t50 74t73.5 48.5
t90 17.5q49 0 91 -17.5t73.5 -48.5t50 -74t19.5 -94h-78q-1 34 -13.5 63t-33.5 50t-49 33t-60 12t-60 -12t-48.5 -33t-32.5 -50t-14 -63h-79z" />
    <glyph glyph-name="uni0218" unicode="&#x218;" horiz-adv-x="1207" 
d="M984 1208q-39 25 -84.5 44.5t-94 33t-98 20.5t-96.5 7q-36 0 -76 -5t-78.5 -16t-73 -28.5t-61 -43.5t-42 -61t-15.5 -80q0 -79 35 -131t92 -87t129.5 -59t148.5 -47.5t148.5 -52t129.5 -73t92 -110t35 -163.5q0 -100 -45 -169.5t-116.5 -113t-159 -63t-173.5 -19.5
q-69 0 -138.5 14t-135.5 40.5t-126 65t-109 87.5l53 83q44 -44 97.5 -79.5t113 -60.5t122.5 -38.5t125 -13.5t129 13t122.5 43.5t91 81t35.5 125.5q0 65 -22.5 112t-61.5 81t-91 58t-110.5 43.5t-120 37.5t-120 40t-110.5 50.5t-91 69.5t-61.5 97t-22.5 133q0 62 20 111.5
t54.5 86.5t80.5 63.5t98 43.5t107 24.5t107 7.5q53 0 107.5 -7.5t108 -22t103.5 -36t94 -50.5zM559 -125h98l-96 -306h-78z" />
    <glyph glyph-name="uni0219" unicode="&#x219;" horiz-adv-x="883" 
d="M725 885q-57 35 -126.5 55.5t-144.5 20.5q-52 0 -96.5 -10t-77.5 -31.5t-52 -54t-19 -77.5q0 -51 26 -85t68.5 -58t96.5 -41t110.5 -34.5t110.5 -39t96.5 -54t68 -80t25.5 -116.5q0 -73 -30.5 -126.5t-81.5 -88.5t-117.5 -51.5t-138.5 -16.5q-112 0 -214 37.5t-175 108.5
l45 72q67 -64 158.5 -99t189.5 -35q53 0 100 11t82.5 34t57.5 58t23 83q2 54 -23.5 90t-67.5 61t-96 42.5t-110.5 35.5t-111 39t-97.5 53t-69 78.5t-26 113.5q0 69 28.5 119.5t76.5 83.5t111.5 48.5t133.5 15.5q89 0 167 -23.5t141 -61.5zM389 -125h98l-96 -306h-78z" />
    <glyph glyph-name="uni021A" unicode="&#x21a;" horiz-adv-x="1089" 
d="M23 1400h1042v-94h-468v-1306h-106v1306h-468v94zM496 -125h98l-96 -306h-78z" />
    <glyph glyph-name="uni021B" unicode="&#x21b;" horiz-adv-x="754" 
d="M341 1043h348v-81h-348v-661q0 -109 40.5 -161t117.5 -51q90 3 174 60l35 -76q-51 -36 -107 -55.5t-116 -20.5q-67 -1 -114 21.5t-76 62.5t-42.5 93t-13.5 114v674h-152v81h152v235h102v-235zM436 -125h98l-96 -306h-78z" />
    <glyph glyph-name="uni022A" unicode="&#x22a;" 
d="M816 1410q101 0 194 -25t173.5 -71t147 -110.5t113.5 -143t73 -169t26 -188.5t-26 -189.5t-73 -170.5t-113.5 -144t-147 -111t-173.5 -71.5t-194 -25.5q-100 0 -193 25.5t-174 71.5t-147.5 111t-113.5 144t-73 170.5t-26 189.5t26 188.5t73 169t113.5 143t147.5 110.5
t174 71t193 25zM817 1317q-85 0 -164 -22t-148 -62t-126 -96t-97.5 -124.5t-63 -146.5t-22.5 -163t22.5 -164t63 -148t97.5 -125.5t126 -97t148 -62.5t164 -22t164 22t147.5 62.5t125 97t97 125.5t62.5 148t22 164t-22 163t-62.5 146.5t-97 124.5t-125 96t-147.5 62t-164 22
zM675 1688q31 0 52.5 -21t21.5 -52t-21.5 -52.5t-52.5 -21.5t-52.5 21.5t-21.5 52.5t21.5 52t52.5 21zM965 1688q30 0 51.5 -21t21.5 -52t-21.5 -52.5t-51.5 -21.5q-32 0 -53.5 21.5t-21.5 52.5t21.5 52t53.5 21zM590 1847h459v-74h-459v74z" />
    <glyph glyph-name="uni022B" unicode="&#x22b;" horiz-adv-x="1225" 
d="M613 1046q113 0 208 -38.5t164 -108t108 -165.5t39 -211t-39 -212t-108 -166.5t-164 -108.5t-208 -39t-208.5 39t-164.5 108.5t-108 166.5t-39 212t39 211t108 165.5t164.5 108t208.5 38.5zM613 957q-91 0 -167.5 -32t-132 -89.5t-86.5 -137.5t-31 -176q0 -97 31 -177.5
t86.5 -138t132 -89.5t167.5 -32t167 32t131.5 89.5t86.5 138t31 177.5q0 96 -31 176t-86.5 137.5t-131.5 89.5t-167 32zM470 1379q31 0 52.5 -21t21.5 -52t-21.5 -52.5t-52.5 -21.5t-52.5 21.5t-21.5 52.5t21.5 52t52.5 21zM760 1379q30 0 51.5 -21t21.5 -52t-21.5 -52.5
t-51.5 -21.5q-32 0 -53.5 21.5t-21.5 52.5t21.5 52t53.5 21zM385 1538h459v-74h-459v74z" />
    <glyph glyph-name="uni022C" unicode="&#x22c;" 
d="M816 1410q101 0 194 -25t173.5 -71t147 -110.5t113.5 -143t73 -169t26 -188.5t-26 -189.5t-73 -170.5t-113.5 -144t-147 -111t-173.5 -71.5t-194 -25.5q-100 0 -193 25.5t-174 71.5t-147.5 111t-113.5 144t-73 170.5t-26 189.5t26 188.5t73 169t113.5 143t147.5 110.5
t174 71t193 25zM817 1317q-85 0 -164 -22t-148 -62t-126 -96t-97.5 -124.5t-63 -146.5t-22.5 -163t22.5 -164t63 -148t97.5 -125.5t126 -97t148 -62.5t164 -22t164 22t147.5 62.5t125 97t97 125.5t62.5 148t22 164t-22 163t-62.5 146.5t-97 124.5t-125 96t-147.5 62t-164 22
zM1099 1708q0 -37 -9 -68t-28 -53.5t-46.5 -35.5t-65.5 -13q-42 0 -76 16.5t-64 36t-58.5 36t-60.5 16.5q-45 0 -66.5 -27t-21.5 -72h-69q0 75 38 123.5t113 48.5q43 0 77 -16.5t64 -36t58.5 -36t60.5 -16.5q44 0 65 26.5t21 70.5h68zM589 1867h460v-73h-460v73z" />
    <glyph glyph-name="uni022D" unicode="&#x22d;" horiz-adv-x="1225" 
d="M613 1046q113 0 208 -38.5t164 -108t108 -165.5t39 -211t-39 -212t-108 -166.5t-164 -108.5t-208 -39t-208.5 39t-164.5 108.5t-108 166.5t-39 212t39 211t108 165.5t164.5 108t208.5 38.5zM613 957q-91 0 -167.5 -32t-132 -89.5t-86.5 -137.5t-31 -176q0 -97 31 -177.5
t86.5 -138t132 -89.5t167.5 -32t167 32t131.5 89.5t86.5 138t31 177.5q0 96 -31 176t-86.5 137.5t-131.5 89.5t-167 32zM895 1397q0 -37 -9 -68t-28 -53.5t-46.5 -35.5t-65.5 -13q-42 0 -76 16.5t-64 36t-58.5 36t-60.5 16.5q-45 0 -66.5 -27t-21.5 -72h-69q0 75 38 123.5
t113 48.5q43 0 77 -16.5t64 -36t58.5 -36t60.5 -16.5q44 0 65 26.5t21 70.5h68zM385 1556h460v-73h-460v73z" />
    <glyph glyph-name="uni0230" unicode="&#x230;" 
d="M816 1410q101 0 194 -25t173.5 -71t147 -110.5t113.5 -143t73 -169t26 -188.5t-26 -189.5t-73 -170.5t-113.5 -144t-147 -111t-173.5 -71.5t-194 -25.5q-100 0 -193 25.5t-174 71.5t-147.5 111t-113.5 144t-73 170.5t-26 189.5t26 188.5t73 169t113.5 143t147.5 110.5
t174 71t193 25zM817 1317q-85 0 -164 -22t-148 -62t-126 -96t-97.5 -124.5t-63 -146.5t-22.5 -163t22.5 -164t63 -148t97.5 -125.5t126 -97t148 -62.5t164 -22t164 22t147.5 62.5t125 97t97 125.5t62.5 148t22 164t-22 163t-62.5 146.5t-97 124.5t-125 96t-147.5 62t-164 22
zM816 1696q32 0 54 -22.5t22 -54.5t-22 -54t-54 -22t-54 22t-22 54t22 54.5t54 22.5zM587 1849h459v-74h-459v74z" />
    <glyph glyph-name="uni0231" unicode="&#x231;" horiz-adv-x="1225" 
d="M613 1046q113 0 208 -38.5t164 -108t108 -165.5t39 -211t-39 -212t-108 -166.5t-164 -108.5t-208 -39t-208.5 39t-164.5 108.5t-108 166.5t-39 212t39 211t108 165.5t164.5 108t208.5 38.5zM613 957q-91 0 -167.5 -32t-132 -89.5t-86.5 -137.5t-31 -176q0 -97 31 -177.5
t86.5 -138t132 -89.5t167.5 -32t167 32t131.5 89.5t86.5 138t31 177.5q0 96 -31 176t-86.5 137.5t-131.5 89.5t-167 32zM612 1385q32 0 54 -22.5t22 -54.5t-22 -54t-54 -22t-54 22t-22 54t22 54.5t54 22.5zM383 1538h459v-74h-459v74z" />
    <glyph glyph-name="uni0232" unicode="&#x232;" horiz-adv-x="1234" 
d="M569 511l-555 889h111l496 -778l487 778h112l-547 -886v-514h-104v511zM301 1627h627v-73h-627v73z" />
    <glyph glyph-name="uni0233" unicode="&#x233;" horiz-adv-x="962" 
d="M481 -150q-48 -118 -123.5 -179.5t-171.5 -61.5q-120 0 -205 64l45 79q69 -48 154 -48q69 0 124 46.5t91 135.5l47 116l-432 1041h110l374 -932l363 932h108zM219 1380h539v-73h-539v73z" />
    <glyph glyph-name="uni0237" unicode="&#x237;" horiz-adv-x="475" 
d="M-85 -279q50 -20 105 -23q54 -1 88.5 22t54 60t26.5 83t7 90v1090h103v-1101q0 -165 -67.5 -249t-195.5 -82q-80 3 -148 31z" />
    <glyph glyph-name="uni0259" unicode="&#x259;" horiz-adv-x="1177" 
d="M573 -3q-118 0 -210.5 40.5t-154.5 113t-93 174.5t-28 225h896q-5 92 -38 168t-88.5 130t-129.5 83.5t-162 29.5q-104 0 -192.5 -36.5t-151.5 -105.5l-59 59q73 80 177.5 124t231.5 44q113 0 207 -38.5t162.5 -108.5t106.5 -166t38 -212q0 -115 -38.5 -211t-106.5 -165.5
t-162 -108.5t-205 -39zM573 83q84 0 156 28t125.5 78.5t87 121.5t40.5 158h-801q5 -87 35 -158t80.5 -122t120.5 -78.5t156 -27.5z" />
    <glyph glyph-name="uni02BB" unicode="&#x2bb;" horiz-adv-x="303" 
d="M203 1030l-103 22l31 348h72v-370z" />
    <glyph glyph-name="uni02BC" unicode="&#x2bc;" horiz-adv-x="220" 
d="M70 1400h85l-19 -519h-73z" />
    <glyph glyph-name="uni02BE" unicode="&#x2be;" horiz-adv-x="519" 
d="M136 1184q34 0 64.5 13t54 34.5t37 51t13.5 62.5t-13.5 62.5t-37 52t-54 35.5t-64.5 13v60q47 0 88.5 -18t73 -48.5t49.5 -71t18 -85.5t-18 -85t-49.5 -70t-73 -48t-88.5 -18v60z" />
    <glyph glyph-name="uni02BF" unicode="&#x2bf;" horiz-adv-x="517" 
d="M381 1124q-46 0 -87.5 18t-73 48t-49.5 70t-18 85t18 85.5t49.5 71t73 48.5t87.5 18v-60q-34 0 -64.5 -13t-53.5 -35.5t-36.5 -52t-13.5 -62.5t13.5 -62.5t36.5 -51t53.5 -34.5t64.5 -13v-60z" />
    <glyph glyph-name="circumflex" unicode="&#x2c6;" horiz-adv-x="591" 
d="M235 1481h120l202 -239h-109l-153 163l-152 -163h-110z" />
    <glyph glyph-name="caron" unicode="&#x2c7;" horiz-adv-x="591" 
d="M335 1242h-120l-202 239h110l152 -164l153 164h109z" />
    <glyph glyph-name="uni02C8" unicode="&#x2c8;" horiz-adv-x="135" 
d="M27 1043v357h82v-357h-82z" />
    <glyph glyph-name="uni02C9" unicode="&#x2c9;" horiz-adv-x="700" 
d="M81 1380h539v-73h-539v73z" />
    <glyph glyph-name="uni02CA" unicode="&#x2ca;" horiz-adv-x="700" 
d="M440 1489l104 -46l-253 -204l-98 13z" />
    <glyph glyph-name="uni02CB" unicode="&#x2cb;" horiz-adv-x="700" 
d="M204 1489l247 -237l-98 -13l-253 204z" />
    <glyph glyph-name="uni02CC" unicode="&#x2cc;" horiz-adv-x="135" 
d="M27 -417v356h81v-356h-81z" />
    <glyph glyph-name="breve" unicode="&#x2d8;" horiz-adv-x="567" 
d="M128 1467q2 -34 14 -63t32.5 -50t48.5 -33t60 -12t60 12t49 33t33.5 50t13.5 63h78q-1 -51 -19.5 -94t-50 -74t-73.5 -48.5t-91 -17.5q-48 0 -90 17.5t-73.5 48.5t-50 74t-20.5 94h79z" />
    <glyph glyph-name="dotaccent" unicode="&#x2d9;" horiz-adv-x="356" 
d="M178 1423q33 0 56.5 -23t23.5 -57q0 -33 -23.5 -56t-56.5 -23t-56 23t-23 56q0 34 23 57t56 23z" />
    <glyph glyph-name="ring" unicode="&#x2da;" horiz-adv-x="857" 
d="M353 1537q40 0 75 -15.5t61.5 -41t42 -59.5t15.5 -72t-15.5 -72.5t-42 -60t-61.5 -40.5t-75 -15q-39 0 -74.5 15t-61.5 40.5t-41.5 60t-15.5 72.5t15.5 72t41.5 59.5t61.5 41t74.5 15.5zM353 1474q-27 0 -50.5 -10t-41.5 -27t-28.5 -39.5t-10.5 -48.5q0 -25 10.5 -48
t28.5 -40t41.5 -27t50.5 -10q26 0 50 10t42 27t29 40t11 48q0 26 -11 48.5t-29 39.5t-42 27t-50 10z" />
    <glyph glyph-name="ogonek" unicode="&#x2db;" horiz-adv-x="500" 
d="M390 0q-56 -39 -97.5 -72t-69 -63.5t-41 -60t-13.5 -61.5q0 -48 25 -69t62 -21q23 0 49.5 7.5t51.5 24.5l31 -69q-38 -23 -76 -34t-74 -11q-75 0 -121 41.5t-46 117.5q0 85 63 160t196 155z" />
    <glyph glyph-name="tilde" unicode="&#x2dc;" horiz-adv-x="667" 
d="M662 1436q0 -41 -9 -76.5t-27.5 -62t-47 -41.5t-66.5 -15q-42 0 -75.5 19t-63 41.5t-57.5 41t-60 18.5q-44 0 -64 -30.5t-20 -81.5h-78q0 41 9.5 77t28 62t47 41t66.5 15q42 0 75.5 -18.5t63 -41t57.5 -41.5t59 -19q44 0 64.5 30.5t20.5 81.5h77z" />
    <glyph glyph-name="hungarumlaut" unicode="&#x2dd;" horiz-adv-x="889" 
d="M365 1493l88 -44l-187 -210l-85 12zM633 1493l88 -44l-186 -210l-86 12z" />
    <glyph glyph-name="gravecomb" unicode="&#x300;" horiz-adv-x="1044" 
d="M444 1489l247 -237l-98 -13l-253 204z" />
    <glyph glyph-name="acutecomb" unicode="&#x301;" horiz-adv-x="924" 
d="M540 1489l104 -46l-253 -204l-98 13z" />
    <glyph glyph-name="uni0302" unicode="&#x302;" horiz-adv-x="591" 
d="M235 1481h120l202 -239h-109l-153 163l-152 -163h-110z" />
    <glyph glyph-name="tildecomb" unicode="&#x303;" horiz-adv-x="667" 
d="M617 1436q0 -41 -9 -76.5t-27.5 -62t-47 -41.5t-66.5 -15q-42 0 -75.5 19t-63 41.5t-57.5 41t-60 18.5q-44 0 -64 -30.5t-20 -81.5h-78q0 41 9.5 77t28 62t47 41t66.5 15q42 0 75.5 -18.5t63 -41t57.5 -41.5t59 -19q44 0 64.5 30.5t20.5 81.5h77z" />
    <glyph glyph-name="uni0304" unicode="&#x304;" horiz-adv-x="539" 
d="M0 1380h539v-73h-539v73z" />
    <glyph glyph-name="uni0306" unicode="&#x306;" horiz-adv-x="567" 
d="M128 1467q2 -34 14 -63t32.5 -50t48.5 -33t60 -12t60 12t49 33t33.5 50t13.5 63h78q-1 -51 -19.5 -94t-50 -74t-73.5 -48.5t-91 -17.5q-48 0 -90 17.5t-73.5 48.5t-50 74t-20.5 94h79z" />
    <glyph glyph-name="uni0307" unicode="&#x307;" horiz-adv-x="359" 
d="M179 1423q33 0 56.5 -23t23.5 -57q0 -33 -23.5 -56t-56.5 -23t-56 23t-23 56q0 34 23 57t56 23z" />
    <glyph glyph-name="uni0308" unicode="&#x308;" horiz-adv-x="668" 
d="M177 1417q31 0 52.5 -21t21.5 -53t-21.5 -54t-52.5 -22q-32 0 -54 22t-22 54t22 53t54 21zM495 1417q32 0 53.5 -21t21.5 -53t-21.5 -54t-53.5 -22t-53.5 22t-21.5 54t21.5 53t53.5 21z" />
    <glyph glyph-name="hookabovecomb" unicode="&#x309;" horiz-adv-x="443" 
d="M202 1524q76 0 120.5 -41t44.5 -108q0 -52 -33.5 -107.5t-88.5 -99.5l-68 29q48 38 73.5 83t25.5 83q0 35 -24 60t-67 25q-24 0 -47 -8t-47 -24l-38 59q34 23 72.5 36t76.5 13z" />
    <glyph glyph-name="uni030A" unicode="&#x30a;" horiz-adv-x="707" 
d="M353 1537q40 0 75 -15.5t61.5 -41t42 -59.5t15.5 -72t-15.5 -72.5t-42 -60t-61.5 -40.5t-75 -15q-39 0 -74.5 15t-61.5 40.5t-41.5 60t-15.5 72.5t15.5 72t41.5 59.5t61.5 41t74.5 15.5zM353 1474q-27 0 -50.5 -10t-41.5 -27t-28.5 -39.5t-10.5 -48.5q0 -25 10.5 -48
t28.5 -40t41.5 -27t50.5 -10q26 0 50 10t42 27t29 40t11 48q0 26 -11 48.5t-29 39.5t-42 27t-50 10z" />
    <glyph glyph-name="uni030B" unicode="&#x30b;" horiz-adv-x="751" 
d="M297 1493l88 -44l-187 -210l-85 12zM565 1493l88 -44l-186 -210l-86 12z" />
    <glyph glyph-name="uni030C" unicode="&#x30c;" horiz-adv-x="671" 
d="M395 1242h-120l-202 239h110l152 -164l153 164h109z" />
    <glyph glyph-name="uni030F" unicode="&#x30f;" horiz-adv-x="751" 
d="M188 1493l185 -242l-86 -12l-187 210zM457 1493l185 -242l-87 -12l-186 210z" />
    <glyph glyph-name="uni0311" unicode="&#x311;" horiz-adv-x="567" 
d="M49 1233q2 51 20.5 94t50 74t73.5 48.5t90 17.5q49 0 91 -17.5t73.5 -48.5t50 -74t19.5 -94h-78q-1 34 -13.5 63t-33.5 50t-49 33t-60 12t-60 -12t-48.5 -33t-32.5 -50t-14 -63h-79z" />
    <glyph glyph-name="uni0312" unicode="&#x312;" horiz-adv-x="371" 
d="M215 1229h-99l96 306h79z" />
    <glyph glyph-name="uni031B" unicode="&#x31b;" horiz-adv-x="249" 
d="M172 1290q29 -63 30.5 -120.5t-23 -101t-73.5 -69t-121 -25.5l2 69q50 0 79.5 18.5t41.5 49t6.5 69.5t-25.5 79z" />
    <glyph glyph-name="dotbelowcomb" unicode="&#x323;" horiz-adv-x="359" 
d="M179 -154q33 0 56.5 -23t23.5 -57q0 -33 -23.5 -56t-56.5 -23t-56 23t-23 56q0 34 23 57t56 23z" />
    <glyph glyph-name="uni0324" unicode="&#x324;" horiz-adv-x="668" 
d="M195 -152q31 0 52.5 -21t21.5 -53t-21.5 -54t-52.5 -22q-32 0 -54 22t-22 54t22 53t54 21zM513 -152q32 0 53.5 -21t21.5 -53t-21.5 -54t-53.5 -22t-53.5 22t-21.5 54t21.5 53t53.5 21z" />
    <glyph glyph-name="uni0325" unicode="&#x325;" horiz-adv-x="0" 
d="M0 -60q40 0 75 -15.5t61.5 -41t42 -59.5t15.5 -72t-15.5 -72.5t-42 -60t-61.5 -40.5t-75 -15q-39 0 -74.5 15t-61.5 40.5t-41.5 60t-15.5 72.5t15.5 72t41.5 59.5t61.5 41t74.5 15.5zM0 -123q-27 0 -50.5 -10t-41.5 -27t-28.5 -39.5t-10.5 -48.5q0 -25 10.5 -48t28.5 -40
t41.5 -27t50.5 -10q26 0 50 10t42 27t29 40t11 48q0 26 -11 48.5t-29 39.5t-42 27t-50 10z" />
    <glyph glyph-name="uni0326" unicode="&#x326;" horiz-adv-x="356" 
d="M139 -125h98l-96 -306h-78z" />
    <glyph glyph-name="uni0327" unicode="&#x327;" horiz-adv-x="562" 
d="M274 35l77 -12l-33 -102q42 -3 72.5 -16.5t50.5 -34.5t29.5 -47t9.5 -54q0 -35 -13.5 -65.5t-39 -53.5t-61.5 -36.5t-82 -13.5q-42 0 -86.5 12t-75.5 31l27 70q24 -15 59 -25.5t67 -10.5q30 0 52 8.5t36.5 22.5t22 32t7.5 37q0 17 -7 33.5t-21 29t-34.5 20t-47.5 7.5h-60
z" />
    <glyph glyph-name="uni0328" unicode="&#x328;" horiz-adv-x="480" 
d="M417 0q-56 -39 -97.5 -72t-69 -63.5t-41 -60t-13.5 -61.5q0 -48 25 -69t62 -21q23 0 49.5 7.5t50.5 24.5l32 -69q-38 -23 -76 -34t-74 -11q-75 0 -121 41.5t-46 117.5q0 85 63 160t196 155z" />
    <glyph glyph-name="uni032D" unicode="&#x32d;" horiz-adv-x="0" 
d="M-60 -146h120l202 -239h-109l-153 163l-152 -163h-110z" />
    <glyph glyph-name="uni032E" unicode="&#x32e;" horiz-adv-x="567" 
d="M128 -100q2 -34 14 -63t32.5 -50t48.5 -33t60 -12t60 12t49 33t33.5 50t13.5 63h78q-1 -51 -19.5 -94t-50 -74t-73.5 -48.5t-91 -17.5q-48 0 -90 17.5t-73.5 48.5t-50 74t-20.5 94h79z" />
    <glyph glyph-name="uni0330" unicode="&#x330;" horiz-adv-x="0" 
d="M164 -154q0 -41 -9 -76.5t-27.5 -62t-47 -41.5t-66.5 -15q-42 0 -75.5 19t-63 41.5t-57.5 41t-60 18.5q-44 0 -64 -30.5t-20 -81.5h-78q0 41 9.5 77t28 62t47 41t66.5 15q42 0 75.5 -18.5t63 -41t57.5 -41.5t59 -19q44 0 64.5 30.5t20.5 81.5h77z" />
    <glyph glyph-name="uni0331" unicode="&#x331;" horiz-adv-x="659" 
d="M60 -174h539v-73h-539v73z" />
    <glyph glyph-name="uni0335" unicode="&#x335;" horiz-adv-x="615" 
d="M7 917h601v-70h-601v70z" />
    <glyph glyph-name="uni0336" unicode="&#x336;" horiz-adv-x="1200" 
d="M220 917h752v-70h-752v70z" />
    <glyph glyph-name="uni0337" unicode="&#x337;" horiz-adv-x="613" 
d="M532 1119l-311 -952h-93l311 952h93z" />
    <glyph glyph-name="uni0338" unicode="&#x338;" horiz-adv-x="613" 
d="M74 0l484 1484h93l-484 -1484h-93z" />
    <glyph glyph-name="tonos" unicode="&#x384;" horiz-adv-x="242" 
d="M103 1450h121l-115 -236h-84z" />
    <glyph glyph-name="dieresistonos" unicode="&#x385;" horiz-adv-x="645" 
d="M130 1231q-30 0 -51 21t-21 51t21 51t51 21q31 0 51.5 -20.5t20.5 -51.5q0 -30 -21 -51t-51 -21zM310 1425h121l-115 -236h-84zM515 1231q-29 0 -50.5 21t-21.5 51t21 51t51 21q31 0 51.5 -20.5t20.5 -51.5q0 -30 -21 -51t-51 -21z" />
    <glyph glyph-name="Alphatonos" unicode="&#x386;" horiz-adv-x="1411" 
d="M647 1400h110l637 -1400h-115l-176 393h-801l-174 -393h-114zM1061 486l-361 804l-356 -804h717zM178 1450h121l-115 -236h-84z" />
    <glyph glyph-name="Epsilontonos" unicode="&#x388;" horiz-adv-x="1490" 
d="M400 1400h917v-94h-812v-544h724v-93h-724v-575h839v-94h-944v1400zM136 1450h121l-115 -236h-84z" />
    <glyph glyph-name="Etatonos" unicode="&#x389;" horiz-adv-x="1749" 
d="M359 1400h105v-653h920v653h105v-1400h-105v653h-920v-653h-105v1400zM106 1450h121l-115 -236h-84z" />
    <glyph glyph-name="Iotatonos" unicode="&#x38a;" horiz-adv-x="729" 
d="M104 1450h121l-115 -236h-84zM379 1400h105v-1400h-105v1400z" />
    <glyph glyph-name="Omicrontonos" unicode="&#x38c;" horiz-adv-x="1675" 
d="M828 1409q101 0 194 -25t173.5 -71t147 -110.5t113.5 -143t73 -169t26 -188.5t-26 -189.5t-73 -170.5t-113.5 -144t-147 -111t-173.5 -71.5t-194 -25.5q-100 0 -193 25.5t-174 71.5t-147.5 111t-113.5 144t-73 170.5t-26 189.5t26 188.5t73 169t113.5 143t147.5 110.5
t174 71t193 25zM829 1316q-85 0 -164 -22t-148 -62t-126 -96t-97.5 -124.5t-63 -146.5t-22.5 -163t22.5 -164t63 -148t97.5 -125.5t126 -97t148 -62.5t164 -22t164 22t147.5 62.5t125 97t97 125.5t62.5 148t22 164t-22 163t-62.5 146.5t-97 124.5t-125 96t-147.5 62t-164 22
zM114 1450h121l-115 -236h-84z" />
    <glyph glyph-name="Upsilontonos" unicode="&#x38e;" horiz-adv-x="1461" 
d="M796 511l-555 889h111l496 -778l487 778h112l-547 -886v-514h-104v511zM115 1450h121l-115 -236h-84z" />
    <glyph glyph-name="Omegatonos" unicode="&#x38f;" horiz-adv-x="1811" 
d="M1174 95q83 44 149.5 111.5t113.5 148.5t72.5 171t25.5 181q0 128 -45 238t-127 191.5t-196.5 128t-253.5 46.5t-254 -46.5t-197 -128t-127 -191.5t-45 -237q0 -91 25.5 -182t72.5 -172t114 -148.5t150 -112.5v-93h-629v89h495q-72 50 -131.5 121t-102.5 154t-67 173.5
t-24 180.5q0 147 54.5 272.5t150.5 217t228 143.5t287 52q103 0 196 -23.5t173 -67t144.5 -105t110 -137.5t70 -165t24.5 -187q0 -90 -24 -180.5t-67 -173.5t-102.5 -154t-130.5 -121h494v-89h-627v95zM125 1450h121l-115 -236h-84z" />
    <glyph glyph-name="iotadieresistonos" unicode="&#x390;" horiz-adv-x="565" 
d="M301 225q0 -69 27 -102.5t78 -33.5q27 0 56 13.5t58 39.5l28 -77q-41 -33 -82.5 -50.5t-80.5 -17.5q-85 0 -135 55t-50 164v828h101v-819zM90 1231q-30 0 -51 21t-21 51t21 51t51 21q31 0 51.5 -20.5t20.5 -51.5q0 -30 -21 -51t-51 -21zM270 1425h121l-115 -236h-84z
M475 1231q-29 0 -50.5 21t-21.5 51t21 51t51 21q31 0 51.5 -20.5t20.5 -51.5q0 -30 -21 -51t-51 -21z" />
    <glyph glyph-name="Alpha" unicode="&#x391;" horiz-adv-x="1411" 
d="M10 0l644 1400h102l645 -1400h-111l-179 393h-813l-179 -393h-109zM1072 480l-367 808l-368 -808h735z" />
    <glyph glyph-name="Beta" unicode="&#x392;" horiz-adv-x="1447" 
d="M811 1400q104 0 185.5 -23.5t138 -68t86.5 -109t30 -146.5q0 -128 -69.5 -212t-196.5 -108q79 -11 141 -40.5t105 -75.5t65.5 -106.5t22.5 -133.5q0 -89 -34 -159t-98.5 -118.5t-158.5 -74t-213 -25.5h-583v1400h579zM807 94q96 0 171.5 19.5t127.5 57t79.5 92.5
t27.5 125q0 69 -27.5 122.5t-79.5 90.5t-127.5 56t-171.5 19h-470v-582h470zM807 770q161 0 249 70t88 200q0 127 -88 197t-249 69h-470v-536h470z" />
    <glyph glyph-name="Gamma" unicode="&#x393;" horiz-adv-x="1135" 
d="M252 0v1400h866l-1 -91h-764l1 -1309h-102z" />
    <glyph glyph-name="uni0394" unicode="&#x394;" horiz-adv-x="1408" 
d="M647 1400h110l637 -1400h-1380zM1241 85l-542 1205l-533 -1205h1075z" />
    <glyph glyph-name="Epsilon" unicode="&#x395;" horiz-adv-x="1297" 
d="M232 1400h917v-94h-812v-544h724v-93h-724v-575h839v-94h-944v1400z" />
    <glyph glyph-name="Zeta" unicode="&#x396;" horiz-adv-x="1312" 
d="M121 1400h1089v-87l-983 -1219h990v-94h-1123v87l983 1219h-956v94z" />
    <glyph glyph-name="Eta" unicode="&#x397;" horiz-adv-x="1594" 
d="M232 1400h105v-653h920v653h105v-1400h-105v653h-920v-653h-105v1400z" />
    <glyph glyph-name="Theta" unicode="&#x398;" horiz-adv-x="1675" 
d="M838 -10q-153 0 -286.5 52.5t-231.5 147t-154.5 224.5t-56.5 286t56.5 286t154.5 224.5t231.5 147t286.5 52.5q102 0 196 -24t174.5 -68t146.5 -107.5t113 -142t72.5 -171.5t25.5 -197t-25.5 -197t-72.5 -171.5t-113 -142t-146.5 -107.5t-174.5 -68t-196 -24zM1261 755
v-102h-844v102h844zM838 83q133 0 247 46.5t198 128.5t132 195.5t48 246.5q0 134 -48 247t-132 195t-198 128.5t-247 46.5t-247.5 -46t-198.5 -128.5t-131.5 -195.5t-47.5 -247t47.5 -247t131.5 -195.5t198.5 -128.5t247.5 -46z" />
    <glyph glyph-name="Iota" unicode="&#x399;" horiz-adv-x="569" 
d="M232 1400h105v-1400h-105v1400z" />
    <glyph glyph-name="Kappa" unicode="&#x39a;" horiz-adv-x="1373" 
d="M232 1400h105v-890l814 890h130l-570 -618l611 -782h-131l-553 702l-301 -326v-376h-105v1400z" />
    <glyph glyph-name="Lambda" unicode="&#x39b;" horiz-adv-x="1411" 
d="M10 0l644 1400h102l645 -1400h-111l-585 1288l-586 -1288h-109z" />
    <glyph glyph-name="Mu" unicode="&#x39c;" horiz-adv-x="1873" 
d="M232 1400h138l569 -1090l564 1090h138v-1400h-99l-2 1265l-577 -1114h-52l-580 1114v-1265h-99v1400z" />
    <glyph glyph-name="Nu" unicode="&#x39d;" horiz-adv-x="1595" 
d="M232 1400h117l909 -1249v1249h104v-1400h-117l-908 1248v-1248h-105v1400z" />
    <glyph glyph-name="Xi" unicode="&#x39e;" horiz-adv-x="1529" 
d="M244 0v91h1041v-91h-1041zM383 666v90h762v-90h-762zM254 1307v93h1003v-93h-1003z" />
    <glyph glyph-name="Omicron" unicode="&#x39f;" 
d="M816 1410q101 0 194 -25t173.5 -71t147 -110.5t113.5 -143t73 -169t26 -188.5t-26 -189.5t-73 -170.5t-113.5 -144t-147 -111t-173.5 -71.5t-194 -25.5q-100 0 -193 25.5t-174 71.5t-147.5 111t-113.5 144t-73 170.5t-26 189.5t26 188.5t73 169t113.5 143t147.5 110.5
t174 71t193 25zM817 1317q-85 0 -164 -22t-148 -62t-126 -96t-97.5 -124.5t-63 -146.5t-22.5 -163t22.5 -164t63 -148t97.5 -125.5t126 -97t148 -62.5t164 -22t164 22t147.5 62.5t125 97t97 125.5t62.5 148t22 164t-22 163t-62.5 146.5t-97 124.5t-125 96t-147.5 62t-164 22
z" />
    <glyph glyph-name="Pi" unicode="&#x3a0;" horiz-adv-x="1657" 
d="M252 0v1400h1153v-1400h-102v1309h-949v-1309h-102z" />
    <glyph glyph-name="Rho" unicode="&#x3a1;" horiz-adv-x="1333" 
d="M735 1400q129 0 229.5 -31t170 -90t105.5 -145t36 -196q0 -113 -36 -201.5t-105.5 -149t-170 -92.5t-229.5 -32h-398v-463h-105v1400h503zM731 557q106 0 188.5 25t139 73t86 118.5t29.5 162.5q0 90 -29.5 159t-86 116t-139 71t-188.5 24h-394v-749h394z" />
    <glyph glyph-name="Sigma" unicode="&#x3a3;" horiz-adv-x="1345" 
d="M108 -1v85l619 618l-619 613v85h1119v-99l-960 -1l578 -575v-50l-575 -576h957v-100h-1119z" />
    <glyph glyph-name="Tau" unicode="&#x3a4;" horiz-adv-x="1127" 
d="M512 1309h-504v91h1111v-91h-504v-1309h-103v1309z" />
    <glyph glyph-name="Upsilon" unicode="&#x3a5;" horiz-adv-x="1249" 
d="M573 480l-564 920h112l506 -824l507 824h106l-564 -920v-480h-103v480z" />
    <glyph glyph-name="Phi" unicode="&#x3a6;" horiz-adv-x="1641" 
d="M772 98q-94 2 -186 17t-176 45.5t-155.5 77.5t-124 113.5t-82 153t-29.5 196.5q0 108 29 193.5t80 152t121.5 114.5t154.5 79t177.5 46.5t190.5 17.5v141h97v-141q94 -2 186 -17t175.5 -45.5t155 -77.5t124 -113.5t82 -153.5t29.5 -196q0 -107 -29 -193t-80 -152.5
t-121.5 -114t-154 -78.5t-177 -47t-190.5 -18v-143h-97v143zM120 701q0 -93 25 -167t70 -130.5t106.5 -97t133.5 -67t153 -40.5t164 -16v1036q-81 -2 -160.5 -15t-152 -39t-134.5 -66t-107.5 -96.5t-71.5 -131.5t-26 -170zM1521 701q0 93 -25 167t-70 130.5t-106.5 97.5
t-133.5 67.5t-153 40t-164 15.5v-1036q81 3 160.5 15.5t152 38.5t134.5 66t107.5 97t71.5 131.5t26 169.5z" />
    <glyph glyph-name="Chi" unicode="&#x3a7;" horiz-adv-x="1283" 
d="M578 722l-501 678h120l447 -603l445 603h115l-501 -676l540 -724h-122l-481 648l-480 -648h-119z" />
    <glyph glyph-name="Psi" unicode="&#x3a8;" horiz-adv-x="1614" 
d="M1593 1400q1 -121 1.5 -193t0.5 -95q0 -213 -93 -386q-49 -93 -118 -160.5t-152.5 -112t-178.5 -66.5t-197 -25v-407h-97v407q-223 6 -384 95q-90 50 -157 121t-111.5 156t-66 181t-21.5 197q0 20 1 91.5t3 196.5h98q-1 -120 -1 -191.5v-96.5q0 -190 81 -343
q44 -81 103 -139.5t130.5 -98t153.5 -60t171 -24.5v998h97v-998q192 9 327 86q80 45 138.5 108t97 138t57.5 160t19 174q0 23 -0.5 94.5t-1.5 192.5h100z" />
    <glyph glyph-name="uni03A9" unicode="&#x3a9;" horiz-adv-x="1824" 
d="M1174 95q83 44 149.5 111.5t113.5 148.5t72.5 171t25.5 181q0 128 -45 238t-127 191.5t-196.5 128t-253.5 46.5t-254 -46.5t-197 -128t-127 -191.5t-45 -237q0 -91 25.5 -182t72.5 -172t114 -148.5t150 -112.5v-93h-629v89h495q-72 50 -131.5 121t-102.5 154t-67 173.5
t-24 180.5q0 147 54.5 272.5t150.5 217t228 143.5t287 52q103 0 196 -23.5t173 -67t144.5 -105t110 -137.5t70 -165t24.5 -187q0 -90 -24 -180.5t-67 -173.5t-102.5 -154t-130.5 -121h494v-89h-627v95z" />
    <glyph glyph-name="Iotadieresis" unicode="&#x3aa;" horiz-adv-x="569" 
d="M232 1400h105v-1400h-105v1400zM126 1773q31 0 52.5 -21t21.5 -53t-21.5 -54t-52.5 -22q-32 0 -54 22t-22 54t22 53t54 21zM444 1773q32 0 53.5 -21t21.5 -53t-21.5 -54t-53.5 -22t-53.5 22t-21.5 54t21.5 53t53.5 21z" />
    <glyph glyph-name="Upsilondieresis" unicode="&#x3ab;" horiz-adv-x="1249" 
d="M573 480l-564 920h112l506 -824l507 824h106l-564 -920v-480h-103v480zM464 1691q32 0 53.5 -21.5t21.5 -53.5q0 -31 -21.5 -53t-53.5 -22t-53.5 22t-21.5 53q0 32 21.5 53.5t53.5 21.5zM786 1691q31 0 52.5 -21.5t21.5 -53.5q0 -31 -21.5 -53t-52.5 -22q-32 0 -54 22
t-22 53q0 32 22 53.5t54 21.5z" />
    <glyph glyph-name="alphatonos" unicode="&#x3ac;" horiz-adv-x="1359" 
d="M1035 260q-29 -62 -72.5 -111t-99 -83.5t-122 -53t-141.5 -18.5q-111 0 -204.5 39.5t-160.5 109.5t-104.5 167t-37.5 212q0 116 37.5 212.5t105 166.5t160 109t203.5 39q152 0 264.5 -71t171.5 -196v262h104v-1044h-104v260zM616 961q-91 0 -168 -33t-133 -92
t-87.5 -139.5t-31.5 -176.5t31.5 -176.5t87 -139t132.5 -91t169 -32.5t168.5 32.5t132.5 91t87 139t31 176.5t-31 176.5t-87 139.5t-132.5 92t-168.5 33zM659 1450h121l-115 -236h-84z" />
    <glyph glyph-name="epsilontonos" unicode="&#x3ad;" horiz-adv-x="1085" 
d="M573 -11q-89 1 -169 23t-140 62t-95.5 96.5t-35.5 126.5q0 97 63 161t180 87q-48 14 -87 36t-67 51.5t-43.5 66t-15.5 78.5q0 66 32 118t87 87.5t129 54.5t158 19q99 0 193.5 -25t180.5 -73l-32 -79q-78 44 -161.5 66.5t-173.5 22.5q-65 0 -121.5 -13t-98.5 -38.5
t-66.5 -64t-24.5 -88.5q0 -43 21.5 -77t60 -57.5t91.5 -36t115 -12.5h164v-78h-168q-72 0 -130.5 -13t-99 -38.5t-62.5 -62t-22 -83.5q0 -43 16 -77t42.5 -59.5t61.5 -43t73.5 -29t77.5 -16.5t74 -5q99 0 197.5 30.5t173.5 93.5l38 -73q-83 -70 -191 -104t-220 -34h-5z
M636 1450h121l-115 -236h-84z" />
    <glyph glyph-name="etatonos" unicode="&#x3ae;" horiz-adv-x="1346" 
d="M721 1052q102 0 181 -30t133 -87t82.5 -139t28.5 -186v-1010h-100v1001q0 179 -88.5 269.5t-250.5 90.5q-92 0 -165.5 -28t-124.5 -80t-78.5 -127t-27.5 -170v-556h-100v1044h97v-224q29 60 72.5 103.5t96.5 72t115 42.5t129 14zM748 1450h121l-115 -236h-84z" />
    <glyph glyph-name="iotatonos" unicode="&#x3af;" horiz-adv-x="551" 
d="M288 225q0 -69 27 -102.5t78 -33.5q27 0 56 13.5t58 39.5l28 -77q-41 -33 -82.5 -50.5t-80.5 -17.5q-85 0 -135 55t-50 164v828h101v-819zM281 1450h121l-115 -236h-84z" />
    <glyph glyph-name="upsilondieresistonos" unicode="&#x3b0;" horiz-adv-x="1337" 
d="M663 -10q-112 0 -198.5 33t-145.5 95.5t-89 153t-30 204.5v568h101v-565q0 -201 95 -300.5t268 -99.5t268 99t95 301v565h99v-568q0 -109 -28.5 -199t-86 -153.5t-144.5 -98.5t-204 -35zM476 1231q-30 0 -51 21t-21 51t21 51t51 21q31 0 51.5 -20.5t20.5 -51.5
q0 -30 -21 -51t-51 -21zM656 1425h121l-115 -236h-84zM861 1231q-29 0 -50.5 21t-21.5 51t21 51t51 21q31 0 51.5 -20.5t20.5 -51.5q0 -30 -21 -51t-51 -21z" />
    <glyph glyph-name="alpha" unicode="&#x3b1;" horiz-adv-x="1352" 
d="M1035 260q-29 -62 -72.5 -111t-99 -83.5t-122 -53t-141.5 -18.5q-111 0 -204.5 39.5t-160.5 109.5t-104.5 167t-37.5 212q0 116 37.5 212.5t105 166.5t160 109t203.5 39q152 0 264.5 -71t171.5 -196v262h104v-1044h-104v260zM616 961q-91 0 -168 -33t-133 -92
t-87.5 -139.5t-31.5 -176.5t31.5 -176.5t87 -139t132.5 -91t169 -32.5t168.5 32.5t132.5 91t87 139t31 176.5t-31 176.5t-87 139.5t-132.5 92t-168.5 33z" />
    <glyph glyph-name="beta" unicode="&#x3b2;" horiz-adv-x="1321" 
d="M710 -19q-138 0 -247.5 50t-191.5 146v-577h-103v1233q0 121 34 225.5t100 182t164 122t226 44.5q56 0 113 -13.5t103 -42.5t74.5 -75t28.5 -112q0 -44 -19 -90.5t-48 -78.5l-183 -201q91 0 170.5 -17t138 -58t92 -109.5t33.5 -171.5q0 -115 -34.5 -201t-97.5 -143
t-152.5 -85t-200.5 -28zM288 286q72 -101 175.5 -155.5t237.5 -54.5q87 0 158.5 23.5t123.5 69t80.5 114t28.5 158.5q0 75 -24 126t-66.5 82.5t-100.5 45.5t-126 14q-53 0 -100.5 -27.5t-86.5 -69.5zM858 1048q20 23 34.5 51t14.5 59q0 41 -19 70.5t-48.5 49t-66 29
t-71.5 9.5q-109 0 -190 -38t-134.5 -104t-80 -155t-26.5 -191v-442z" />
    <glyph glyph-name="gamma" unicode="&#x3b3;" horiz-adv-x="987" 
d="M413 50l-468 994h110l411 -893l409 893h106l-468 -995v-449h-100v450z" />
    <glyph glyph-name="delta" unicode="&#x3b4;" horiz-adv-x="1220" 
d="M610 -8q-110 0 -205.5 38t-165.5 106.5t-110 163.5t-40 209q0 86 24 162.5t69 139t109 108.5t144 70q-39 18 -75 36t-64.5 43t-45.5 59.5t-17 86.5q0 74 39.5 125t99 83t128.5 46t129 14q44 0 92 -6t96 -18.5t92 -32t80 -45.5l-47 -79q-66 49 -147.5 71t-165.5 22
q-42 0 -93 -8t-96 -28.5t-75.5 -55t-30.5 -87.5q0 -37 18.5 -65t48.5 -48.5t68 -34.5t76.5 -23t75 -14.5t62.5 -8.5q100 -11 182.5 -54.5t141.5 -111t91.5 -156t32.5 -190.5q0 -112 -38.5 -206.5t-107.5 -163.5t-165 -108t-210 -39zM610 81q92 0 169 32t133 89t87.5 135.5
t31.5 171.5q0 91 -30 169t-85.5 135.5t-132.5 90t-172 32.5q-91 0 -168.5 -31.5t-134 -88.5t-88 -135.5t-31.5 -171.5q0 -90 31 -168t86.5 -136t133 -91t170.5 -33z" />
    <glyph glyph-name="epsilon" unicode="&#x3b5;" horiz-adv-x="1092" 
d="M573 -11q-89 1 -169 23t-140 62t-95.5 96.5t-35.5 126.5q0 97 63 161t180 87q-48 14 -87 36t-67 51.5t-43.5 66t-15.5 78.5q0 66 32 118t87 87.5t129 54.5t158 19q99 0 193.5 -25t180.5 -73l-32 -79q-78 44 -161.5 66.5t-173.5 22.5q-65 0 -121.5 -13t-98.5 -38.5
t-66.5 -64t-24.5 -88.5q0 -43 21.5 -77t60 -57.5t91.5 -36t115 -12.5h164v-78h-168q-72 0 -130.5 -13t-99 -38.5t-62.5 -62t-22 -83.5q0 -43 16 -77t42.5 -59.5t61.5 -43t73.5 -29t77.5 -16.5t74 -5q99 0 197.5 30.5t173.5 93.5l38 -73q-83 -70 -191 -104t-220 -34h-5z" />
    <glyph glyph-name="zeta" unicode="&#x3b6;" horiz-adv-x="1071" 
d="M1000 1312q-102 -128 -199 -248.5t-180.5 -229.5t-150 -206.5t-108.5 -179.5t-55.5 -147t9 -110.5t85.5 -69.5t174 -24q95 0 160.5 -18.5t105 -51.5t56 -79t14 -101.5t-21.5 -118t-50 -128.5h-110q215 401 -172 401q-256 0 -336 114q-43 58 -28 152q24 267 677 1045h-647
v89h777v-89z" />
    <glyph glyph-name="eta" unicode="&#x3b7;" horiz-adv-x="1346" 
d="M721 1052q102 0 181 -30t133 -87t82.5 -139t28.5 -186v-1010h-100v1001q0 179 -88.5 269.5t-250.5 90.5q-92 0 -165.5 -28t-124.5 -80t-78.5 -127t-27.5 -170v-556h-100v1044h97v-224q29 60 72.5 103.5t96.5 72t115 42.5t129 14z" />
    <glyph glyph-name="theta" unicode="&#x3b8;" horiz-adv-x="1481" 
d="M741 -10q-146 0 -262.5 54t-197.5 147t-124.5 219t-43.5 270q0 141 42.5 266t123 219.5t197 149.5t265.5 55q146 0 262.5 -54t197.5 -147t124 -219t43 -270q0 -141 -42.5 -266.5t-122.5 -219.5t-196.5 -149t-265.5 -55zM741 83q120 0 214 43.5t160.5 118.5t104 175
t43.5 213h-1046q7 -111 44 -211t103 -175.5t161 -119.5t216 -44zM741 1277q-119 0 -212.5 -42.5t-160 -116t-104.5 -172t-46 -211.5h1045q-8 110 -45.5 208.5t-103.5 172.5t-159.5 117.5t-213.5 43.5z" />
    <glyph glyph-name="iota" unicode="&#x3b9;" horiz-adv-x="551" 
d="M288 225q0 -69 27 -102.5t78 -33.5q27 0 56 13.5t58 39.5l28 -77q-41 -33 -82.5 -50.5t-80.5 -17.5q-85 0 -135 55t-50 164v828h101v-819z" />
    <glyph glyph-name="kappa" unicode="&#x3ba;" horiz-adv-x="1114" 
d="M213 1043h103v-608l599 608h125l-395 -404l445 -639h-123l-392 567l-259 -265v-302h-103v1043z" />
    <glyph glyph-name="lambda" unicode="&#x3bb;" horiz-adv-x="1056" 
d="M188 1440q64 0 113.5 -18.5t88.5 -52t69 -80t55 -102.5l536 -1187h-102l-418 933l-417 -933h-107l471 1041l-56 125q-18 39 -39 73t-48.5 59.5t-62.5 40t-82 14.5q-59 0 -105.5 -20.5t-87.5 -62.5l-51 76q49 49 112 71.5t131 22.5z" />
    <glyph glyph-name="uni03BC" unicode="&#x3bc;" horiz-adv-x="1294" 
d="M167 1044h100v-601q0 -84 21.5 -151t64.5 -113.5t107.5 -71t150.5 -24.5q91 0 162 29t120 82t75 128t26 166v556h100v-1044h-97v225q-51 -115 -150.5 -174t-232.5 -59q-120 0 -208.5 44.5t-138.5 132.5v-569h-100v1444z" />
    <glyph glyph-name="nu" unicode="&#x3bd;" horiz-adv-x="958" 
d="M14 1043h111l365 -942l363 942h108l-418 -1043h-109z" />
    <glyph glyph-name="xi" unicode="&#x3be;" horiz-adv-x="949" 
d="M730 689h-162q-84 0 -156.5 -13.5t-125.5 -46.5t-83.5 -89.5t-30.5 -142.5q0 -152 81.5 -226t242.5 -74q74 0 135.5 -11t105 -37.5t67.5 -69t24 -105.5q0 -54 -17 -121.5t-53 -152.5h-110q76 145 76 238q0 162 -248 162q-201 0 -301 100.5t-100 298.5q0 317 306 344
q-222 33 -222 263q0 267 250 299h-311v96h716v-96q-114 0 -213.5 -11t-173.5 -41t-117 -83.5t-43 -137.5q0 -237 267 -237h196v-106z" />
    <glyph glyph-name="omicron" unicode="&#x3bf;" horiz-adv-x="1225" 
d="M613 1046q113 0 208 -38.5t164 -108t108 -165.5t39 -211t-39 -212t-108 -166.5t-164 -108.5t-208 -39t-208.5 39t-164.5 108.5t-108 166.5t-39 212t39 211t108 165.5t164.5 108t208.5 38.5zM613 957q-91 0 -167.5 -32t-132 -89.5t-86.5 -137.5t-31 -176q0 -97 31 -177.5
t86.5 -138t132 -89.5t167.5 -32t167 32t131.5 89.5t86.5 138t31 177.5q0 96 -31 176t-86.5 137.5t-131.5 89.5t-167 32z" />
    <glyph glyph-name="pi" unicode="&#x3c0;" horiz-adv-x="1281" 
d="M1108 1044v-1044h-100v957h-735v-957h-100v1044h935z" />
    <glyph glyph-name="rho" unicode="&#x3c1;" horiz-adv-x="1271" 
d="M649 -6q-142 0 -246 62t-177 179v-612h-99v902q0 113 38.5 210t107.5 168t165 111t211 40q116 0 211.5 -40t164.5 -110.5t107 -167.5t38 -211t-38 -211t-107 -168.5t-164.5 -111.5t-211.5 -40zM649 83q96 0 173.5 34t132.5 93.5t84.5 140.5t29.5 174q0 94 -29.5 174.5
t-84.5 139.5t-132.5 92.5t-173.5 33.5q-95 0 -173 -34t-133 -93t-85 -139.5t-30 -173.5t30 -173.5t85 -140t133 -94t173 -34.5z" />
    <glyph glyph-name="uni03C2" unicode="&#x3c2;" horiz-adv-x="956" 
d="M603 0q-112 0 -205.5 38.5t-161 107.5t-105.5 165t-38 211t38.5 211.5t106.5 166t162.5 108t205.5 38.5q118 0 215 -39t166 -108l-59 -68q-62 59 -141.5 92t-177.5 33q-90 0 -166 -32t-131 -89t-86 -137t-31 -176q0 -97 33 -175t91 -133t136 -85t168 -30q81 0 137.5 -16
t91 -44.5t50 -68t15.5 -87.5q0 -66 -23 -139.5t-55 -143.5h-110q84 156 84 251q0 149 -210 149z" />
    <glyph glyph-name="sigma" unicode="&#x3c3;" horiz-adv-x="1325" 
d="M620 -8q-116 0 -212 41t-164.5 112t-106.5 168.5t-38 209.5q0 115 39 212t108.5 167.5t165.5 110t209 39.5h606v-81h-320q57 -35 100.5 -83.5t73.5 -106t45 -123t15 -135.5q0 -116 -38.5 -213.5t-108 -168t-165 -110t-209.5 -39.5zM620 81q94 0 171.5 34t133 93t86 140
t30.5 175q0 92 -29 172.5t-84 140t-132.5 93.5t-175.5 34q-94 0 -171.5 -33.5t-133 -92t-86 -139t-30.5 -175.5q0 -91 29.5 -171.5t84.5 -140.5t133 -95t174 -35z" />
    <glyph glyph-name="tau" unicode="&#x3c4;" horiz-adv-x="975" 
d="M955 1044v-87h-418v-957h-100v957h-417v87h935z" />
    <glyph glyph-name="upsilon" unicode="&#x3c5;" horiz-adv-x="1337" 
d="M663 -10q-112 0 -198.5 33t-145.5 95.5t-89 153t-30 204.5v568h101v-565q0 -201 95 -300.5t268 -99.5t268 99t95 301v565h99v-568q0 -109 -28.5 -199t-86 -153.5t-144.5 -98.5t-204 -35z" />
    <glyph glyph-name="phi" unicode="&#x3c6;" horiz-adv-x="1515" 
d="M708 -9q-213 6 -332 74q-65 37 -117 85.5t-88 107t-55.5 126.5t-19.5 143q0 72 20.5 140t58 128t89 110t112.5 85q121 67 333 74v197h96l1 -197q206 -7 327 -74q62 -35 114.5 -84.5t90.5 -109.5t59.5 -128.5t21.5 -140.5q0 -76 -20.5 -144t-58 -126.5t-90 -107
t-117.5 -84.5q-121 -67 -326 -74l1 -391h-101zM428 144q98 -56 280 -62l1 893q-92 -4 -162 -19t-119 -44q-50 -29 -92.5 -70.5t-73 -92t-48 -107t-17.5 -115.5q0 -125 62 -223t169 -160zM1253 742q-37 65 -85 108.5t-104.5 70t-121.5 39t-136 14.5l1 -892q176 6 274 62
q109 62 170.5 159t61.5 224q0 107 -60 215z" />
    <glyph glyph-name="chi" unicode="&#x3c7;" horiz-adv-x="1039" 
d="M466 333l-399 711h115l336 -628l337 628h112l-399 -710l425 -734h-117l-358 651l-358 -651h-115z" />
    <glyph glyph-name="psi" unicode="&#x3c8;" horiz-adv-x="1443" 
d="M771 92q48 6 99 22t105 43q131 65 198.5 176.5t69.5 257.5q2 106 -5 219t-23 234h112q20 -238 18 -453q-1 -164 -80 -304q-36 -64 -91 -115.5t-120 -89t-137.5 -60.5t-144.5 -30v-392h-101v392q-121 10 -255 76q-155 78 -235 214.5t-82 308.5q-3 215 18 453h111
q-15 -121 -22.5 -234t-5.5 -219q2 -146 69.5 -257t198.5 -177q54 -27 104.5 -43.5t98.5 -21.5l1 1136h98z" />
    <glyph glyph-name="omega" unicode="&#x3c9;" horiz-adv-x="1771" 
d="M1424 1055q60 -43 106 -105t77.5 -133t47.5 -147.5t16 -147.5q0 -110 -23.5 -206.5t-76.5 -168t-138 -113t-208 -41.5q-66 0 -120.5 19t-97.5 53t-73 81t-47 103q-20 -56 -56.5 -102t-85.5 -78.5t-107 -50.5t-122 -18q-99 0 -176.5 40.5t-131 107t-81 152.5t-27.5 177
q0 80 14 159.5t42.5 154.5t71 142t100.5 122l61 -74q-41 -46 -75.5 -101.5t-60 -115t-39.5 -121.5t-14 -122q0 -76 17 -150t54.5 -133t98.5 -95.5t149 -36.5q72 0 130.5 26t99.5 71t63.5 106t22.5 131v211h108v-224q0 -62 14 -119.5t45.5 -102t82.5 -71.5t125 -27
q93 0 160 28t110.5 79.5t64.5 123.5t21 159q0 74 -12 138.5t-36.5 122.5t-63 111t-92.5 104z" />
    <glyph glyph-name="iotadieresis" unicode="&#x3ca;" horiz-adv-x="551" 
d="M288 225q0 -69 27 -102.5t78 -33.5q27 0 56 13.5t58 39.5l28 -77q-41 -33 -82.5 -50.5t-80.5 -17.5q-85 0 -135 55t-50 164v828h101v-819zM79 1418q31 0 52.5 -21t21.5 -53t-21.5 -54t-52.5 -22q-32 0 -54 22t-22 54t22 53t54 21zM397 1418q32 0 53.5 -21t21.5 -53
t-21.5 -54t-53.5 -22t-53.5 22t-21.5 54t21.5 53t53.5 21z" />
    <glyph glyph-name="upsilondieresis" unicode="&#x3cb;" horiz-adv-x="1337" 
d="M663 -10q-112 0 -198.5 33t-145.5 95.5t-89 153t-30 204.5v568h101v-565q0 -201 95 -300.5t268 -99.5t268 99t95 301v565h99v-568q0 -109 -28.5 -199t-86 -153.5t-144.5 -98.5t-204 -35zM506 1420q31 0 52.5 -21t21.5 -53t-21.5 -54t-52.5 -22q-32 0 -54 22t-22 54t22 53
t54 21zM824 1420q32 0 53.5 -21t21.5 -53t-21.5 -54t-53.5 -22t-53.5 22t-21.5 54t21.5 53t53.5 21z" />
    <glyph glyph-name="omicrontonos" unicode="&#x3cc;" horiz-adv-x="1240" 
d="M613 1046q113 0 208 -38.5t164 -108t108 -165.5t39 -211t-39 -212t-108 -166.5t-164 -108.5t-208 -39t-208.5 39t-164.5 108.5t-108 166.5t-39 212t39 211t108 165.5t164.5 108t208.5 38.5zM613 957q-91 0 -167.5 -32t-132 -89.5t-86.5 -137.5t-31 -176q0 -97 31 -177.5
t86.5 -138t132 -89.5t167.5 -32t167 32t131.5 89.5t86.5 138t31 177.5q0 96 -31 176t-86.5 137.5t-131.5 89.5t-167 32zM659 1450h121l-115 -236h-84z" />
    <glyph glyph-name="upsilontonos" unicode="&#x3cd;" horiz-adv-x="1305" 
d="M663 -10q-112 0 -198.5 33t-145.5 95.5t-89 153t-30 204.5v568h101v-565q0 -201 95 -300.5t268 -99.5t268 99t95 301v565h99v-568q0 -109 -28.5 -199t-86 -153.5t-144.5 -98.5t-204 -35zM704 1450h121l-115 -236h-84z" />
    <glyph glyph-name="omegatonos" unicode="&#x3ce;" horiz-adv-x="1771" 
d="M1424 1055q60 -43 106 -105t77.5 -133t47.5 -147.5t16 -147.5q0 -110 -23.5 -206.5t-76.5 -168t-138 -113t-208 -41.5q-66 0 -120.5 19t-97.5 53t-73 81t-47 103q-20 -56 -56.5 -102t-85.5 -78.5t-107 -50.5t-122 -18q-99 0 -176.5 40.5t-131 107t-81 152.5t-27.5 177
q0 80 14 159.5t42.5 154.5t71 142t100.5 122l61 -74q-41 -46 -75.5 -101.5t-60 -115t-39.5 -121.5t-14 -122q0 -76 17 -150t54.5 -133t98.5 -95.5t149 -36.5q72 0 130.5 26t99.5 71t63.5 106t22.5 131v211h108v-224q0 -62 14 -119.5t45.5 -102t82.5 -71.5t125 -27
q93 0 160 28t110.5 79.5t64.5 123.5t21 159q0 74 -12 138.5t-36.5 122.5t-63 111t-92.5 104zM921 1450h121l-115 -236h-84z" />
    <glyph glyph-name="uni0400" unicode="&#x400;" horiz-adv-x="1306" 
d="M240 1400h917v-94h-812v-544h724v-93h-724v-575h839v-94h-944v1400zM586 1792l247 -237l-98 -13l-253 204z" />
    <glyph glyph-name="uni0401" unicode="&#x401;" horiz-adv-x="1306" 
d="M240 1400h917v-94h-812v-544h724v-93h-724v-575h839v-94h-944v1400zM540 1692q32 0 53.5 -21.5t21.5 -53.5q0 -31 -21.5 -53t-53.5 -22t-53.5 22t-21.5 53q0 32 21.5 53.5t53.5 21.5zM862 1692q31 0 52.5 -21.5t21.5 -53.5q0 -31 -21.5 -53t-52.5 -22q-32 0 -54 22
t-22 53q0 32 22 53.5t54 21.5z" />
    <glyph glyph-name="uni0402" unicode="&#x402;" horiz-adv-x="1638" 
d="M526 0v1309h-504v91h1146v-91h-540v-570q119 49 232 73.5t215 24.5q103 0 189.5 -26t149.5 -78.5t98 -131.5t35 -185q0 -109 -36.5 -189t-98 -132t-143.5 -77t-172 -25q-81 0 -169 20l17 88q74 -18 145 -18t135.5 19t113 59.5t77 103t28.5 148.5t-28.5 148.5t-79.5 104
t-121.5 61.5t-154.5 20q-97 0 -207 -26t-225 -77v-644h-102z" />
    <glyph glyph-name="uni0403" unicode="&#x403;" horiz-adv-x="1135" 
d="M252 0v1400h866l-1 -91h-764l1 -1309h-102zM841 1792l104 -46l-253 -204l-98 13z" />
    <glyph glyph-name="uni0404" unicode="&#x404;" horiz-adv-x="1411" 
d="M817 -10q-147 0 -273 53.5t-218.5 148.5t-145 225t-52.5 283t52.5 283t145 225t218.5 148.5t273 53.5q156 0 289 -48.5t226 -146.5l-64 -66q-91 90 -203.5 128.5t-243.5 38.5q-122 0 -227.5 -44.5t-184 -123t-125 -186t-51.5 -233.5h758v-88h-757q10 -120 58.5 -222.5
t126.5 -176.5t181 -116t221 -42q130 0 243 39.5t204 129.5l64 -67q-93 -98 -226 -147t-289 -49z" />
    <glyph glyph-name="uni0405" unicode="&#x405;" horiz-adv-x="1239" 
d="M995 1208q-39 25 -84.5 44.5t-94 33t-98 20.5t-96.5 7q-36 0 -76 -5t-78.5 -16t-73 -28.5t-61 -43.5t-42 -61t-15.5 -80q0 -79 35 -131t92 -87t129.5 -59t148.5 -47.5t148.5 -52t129.5 -73t92 -110t35 -163.5q0 -100 -45 -169.5t-116.5 -113t-159 -63t-173.5 -19.5
q-69 0 -138.5 14t-135.5 40.5t-126 65t-109 87.5l53 83q44 -44 97.5 -79.5t113 -60.5t122.5 -38.5t125 -13.5t129 13t122.5 43.5t91 81t35.5 125.5q0 65 -22.5 112t-61.5 81t-91 58t-110.5 43.5t-120 37.5t-120 40t-110.5 50.5t-91 69.5t-61.5 97t-22.5 133q0 62 20 111.5
t54.5 86.5t80.5 63.5t98 43.5t107 24.5t107 7.5q53 0 107.5 -7.5t108 -22t103.5 -36t94 -50.5z" />
    <glyph glyph-name="uni0406" unicode="&#x406;" horiz-adv-x="606" 
d="M252 0v1400h102v-1400h-102z" />
    <glyph glyph-name="uni0407" unicode="&#x407;" horiz-adv-x="591" 
d="M244 0v1400h103v-1400h-103zM123 1569q-30 0 -51 20.5t-21 51.5q0 30 21 51t51 21q29 0 50.5 -21t21.5 -51q0 -31 -21.5 -51.5t-50.5 -20.5zM468 1569q-29 0 -50.5 20.5t-21.5 51.5q0 30 21.5 51t50.5 21t50.5 -21t21.5 -51q0 -31 -21.5 -51.5t-50.5 -20.5z" />
    <glyph glyph-name="uni0408" unicode="&#x408;" horiz-adv-x="1031" 
d="M796 407q0 -199 -97.5 -304.5t-277.5 -105.5q-111 0 -205 51t-164 146l56 76q64 -85 144 -129.5t168 -44.5q131 0 200.5 79.5t69.5 233.5v991h106v-993z" />
    <glyph glyph-name="uni0409" unicode="&#x409;" horiz-adv-x="2371" 
d="M118 -13q-25 0 -47.5 3t-51.5 10l10 93q20 -5 35 -6.5t33 -1.5q68 0 116.5 39.5t81.5 124.5t51 219.5t25 323.5l22 608h917v-512h461q246 0 375.5 -110t129.5 -325q0 -223 -137.5 -338t-395.5 -115h-535v1309h-723l-20 -516q-7 -211 -29 -363.5t-63.5 -250.5t-103.5 -145
t-151 -47zM1745 85q211 0 319.5 91.5t108.5 273.5q0 179 -107.5 266t-320.5 87h-435v-718h435z" />
    <glyph glyph-name="uni040A" unicode="&#x40a;" horiz-adv-x="2375" 
d="M252 0v1400h102v-589h903v589h102v-586h456q113 0 201 -26.5t148.5 -77.5t92.5 -124.5t32 -167.5q0 -99 -34 -176.5t-98 -131t-156.5 -82t-209.5 -28.5h-534v720h-903v-720h-102zM1359 85h430q94 0 167.5 22.5t124.5 64.5t77.5 102.5t26.5 137.5q0 153 -102 234.5
t-294 81.5h-430v-643z" />
    <glyph glyph-name="uni040B" unicode="&#x40b;" horiz-adv-x="1661" 
d="M523 0v1309h-503v91h1143v-91h-538v-575q123 52 232.5 77.5t213.5 25.5q107 0 194 -27t149 -81.5t96 -136t34 -190.5v-402h-102v392q0 86 -26.5 151.5t-77 109.5t-122.5 67t-162 23q-96 0 -201.5 -26t-227.5 -81v-636h-102z" />
    <glyph glyph-name="uni040C" unicode="&#x40c;" horiz-adv-x="1389" 
d="M1223 0l-532 663h-338v-663h-101v1400h101v-644h339l501 644h115l-535 -682l570 -718h-120zM863 1792l104 -46l-253 -204l-98 13z" />
    <glyph glyph-name="uni040D" unicode="&#x40d;" horiz-adv-x="1650" 
d="M252 0v1400h102v-1227l953 1227h91v-1400h-102v1227l-953 -1227h-91zM667 1792l247 -237l-98 -13l-253 204z" />
    <glyph glyph-name="uni040E" unicode="&#x40e;" horiz-adv-x="1342" 
d="M210 95q32 -13 64.5 -20t64.5 -7q65 0 125 36t110 122l49 83l-575 1091h112l518 -997l528 997h106l-645 -1197q-65 -121 -150 -174t-178 -53q-40 0 -80.5 9t-79.5 26zM652 1561q-61 0 -113 16.5t-89.5 48t-59 77.5t-22.5 104h74q2 -41 18 -74t44 -56.5t65.5 -36
t81.5 -12.5t82 12.5t65.5 36t44 56.5t17.5 74h76q-1 -58 -22.5 -104t-59 -77.5t-89 -48t-113.5 -16.5z" />
    <glyph glyph-name="uni040F" unicode="&#x40f;" horiz-adv-x="1610" 
d="M1358 1400v-1400h-505v-337h-97v337h-504v1400h102v-1309h901v1309h103z" />
    <glyph glyph-name="uni0410" unicode="&#x410;" horiz-adv-x="1465" 
d="M674 1400h110l637 -1400h-115l-176 393h-801l-174 -393h-114zM1088 486l-361 804l-356 -804h717z" />
    <glyph glyph-name="uni0411" unicode="&#x411;" horiz-adv-x="1446" 
d="M252 0v1400h999v-90h-897v-503h474q248 0 375.5 -100.5t127.5 -295.5q0 -202 -135 -306.5t-395 -104.5h-549zM354 85h449q211 0 317.5 81t106.5 241t-105 237t-319 77h-449v-636z" />
    <glyph glyph-name="uni0412" unicode="&#x412;" horiz-adv-x="1500" 
d="M252 0v1400h563q108 0 194.5 -22.5t147.5 -67.5t93.5 -111.5t32.5 -154.5q0 -127 -65.5 -207.5t-178.5 -115.5q157 -28 236.5 -115.5t79.5 -232.5q0 -178 -125 -275.5t-377 -97.5h-601zM354 85h503q194 0 294 71t100 223q0 150 -100.5 220t-293.5 70h-503v-584zM354 751
h459q175 0 270.5 71t95.5 211q0 139 -96 210.5t-270 71.5h-459v-564z" />
    <glyph glyph-name="uni0413" unicode="&#x413;" horiz-adv-x="1135" 
d="M252 0v1400h866l-1 -91h-764l1 -1309h-102z" />
    <glyph glyph-name="uni0414" unicode="&#x414;" horiz-adv-x="1571" 
d="M20 -321l2 412h74q51 4 89 36.5t65.5 88.5t46.5 133.5t31.5 170.5t19 200t9.5 221l15 459h911v-1309h214v-412h-97v321h-1281l-2 -321h-97zM451 932q-5 -144 -15.5 -279.5t-32 -248t-56.5 -194.5t-88 -119h922v1218h-717z" />
    <glyph glyph-name="uni0415" unicode="&#x415;" horiz-adv-x="1306" 
d="M240 1400h917v-94h-812v-544h724v-93h-724v-575h839v-94h-944v1400z" />
    <glyph glyph-name="uni0416" unicode="&#x416;" horiz-adv-x="1991" 
d="M1815 0l-460 663h-308v-663h-102v663h-308l-461 -663h-122l499 720l-460 680h114l429 -644h309v644h102v-644h307l430 644h115l-460 -681l498 -719h-122z" />
    <glyph glyph-name="uni0417" unicode="&#x417;" horiz-adv-x="1261" 
d="M117 251q47 -43 101.5 -75t113 -53t119 -31.5t120.5 -10.5q87 0 167 21.5t141 63t97 101.5t36 138q0 67 -26.5 119t-77.5 88t-124.5 54.5t-167.5 18.5h-289v86h285q80 0 143 18t107 51.5t67.5 82.5t23.5 110q0 70 -31 124.5t-85 92t-125.5 57t-152.5 19.5q-98 0 -202 -29
t-201 -92l-37 85q106 66 219.5 97t222.5 31q101 0 191 -25.5t158 -74t107.5 -118t39.5 -157.5q0 -116 -65.5 -196.5t-181.5 -114.5q72 -16 128.5 -46.5t96 -74t60.5 -99t21 -120.5q0 -95 -44 -170t-118 -126.5t-171 -78.5t-202 -27q-67 0 -134.5 11.5t-133 35t-126 59
t-113.5 84.5z" />
    <glyph glyph-name="uni0418" unicode="&#x418;" horiz-adv-x="1650" 
d="M252 0v1400h102v-1227l953 1227h91v-1400h-102v1227l-953 -1227h-91z" />
    <glyph glyph-name="uni0419" unicode="&#x419;" horiz-adv-x="1650" 
d="M252 0v1400h102v-1227l953 1227h91v-1400h-102v1227l-953 -1227h-91zM822 1506q-69 0 -126 17t-97.5 48.5t-63.5 77t-25 102.5h82q2 -42 19 -75t47 -56t72 -35.5t92 -12.5q49 0 90.5 12.5t71.5 35.5t47.5 56t18.5 75h82q-1 -57 -24.5 -102.5t-64 -77t-97 -48.5
t-124.5 -17z" />
    <glyph glyph-name="uni041A" unicode="&#x41a;" horiz-adv-x="1389" 
d="M1223 0l-532 663h-338v-663h-101v1400h101v-644h339l501 644h115l-535 -682l570 -718h-120z" />
    <glyph glyph-name="uni041B" unicode="&#x41b;" horiz-adv-x="1562" 
d="M118 -10q-25 0 -47.5 2.5t-51.5 10.5l10 93q20 -5 35 -6.5t33 -1.5q68 0 116.5 39.5t81.5 124.5t51 218.5t25 321.5l22 608h917v-1400h-102v1309h-724l-19 -516q-7 -210 -29 -361.5t-63 -250t-103.5 -145t-151.5 -46.5z" />
    <glyph glyph-name="uni041C" unicode="&#x41c;" horiz-adv-x="1927" 
d="M252 0v1400h85l628 -1083l624 1083h86v-1400h-100v1198l-586 -1011h-51l-586 1006v-1193h-100z" />
    <glyph glyph-name="uni041D" unicode="&#x41d;" horiz-adv-x="1645" 
d="M240 1400h105v-653h920v653h105v-1400h-105v653h-920v-653h-105v1400z" />
    <glyph glyph-name="uni041E" unicode="&#x41e;" horiz-adv-x="1707" 
d="M831 1410q101 0 194 -25t173.5 -71t147 -110.5t113.5 -143t73 -169t26 -188.5t-26 -189.5t-73 -170.5t-113.5 -144t-147 -111t-173.5 -71.5t-194 -25.5q-100 0 -193 25.5t-174 71.5t-147.5 111t-113.5 144t-73 170.5t-26 189.5t26 188.5t73 169t113.5 143t147.5 110.5
t174 71t193 25zM832 1317q-85 0 -164 -22t-148 -62t-126 -96t-97.5 -124.5t-63 -146.5t-22.5 -163t22.5 -164t63 -148t97.5 -125.5t126 -97t148 -62.5t164 -22t164 22t147.5 62.5t125 97t97 125.5t62.5 148t22 164t-22 163t-62.5 146.5t-97 124.5t-125 96t-147.5 62t-164 22
z" />
    <glyph glyph-name="uni041F" unicode="&#x41f;" horiz-adv-x="1657" 
d="M252 0v1400h1153v-1400h-102v1309h-949v-1309h-102z" />
    <glyph glyph-name="uni0420" unicode="&#x420;" horiz-adv-x="1412" 
d="M743 1400q129 0 229.5 -31t170 -90t105.5 -145t36 -196q0 -113 -36 -201.5t-105.5 -149t-170 -92.5t-229.5 -32h-398v-463h-105v1400h503zM739 557q106 0 188.5 25t139 73t86 118.5t29.5 162.5q0 90 -29.5 159t-86 116t-139 71t-188.5 24h-394v-749h394z" />
    <glyph glyph-name="uni0421" unicode="&#x421;" horiz-adv-x="1429" 
d="M1264 1145q-86 83 -198 128.5t-236 45.5q-85 0 -164.5 -22t-148.5 -62t-125.5 -96.5t-97 -125t-62.5 -147.5t-22 -164t22 -163.5t62.5 -147t97 -125t125.5 -97t148.5 -62.5t164.5 -22q123 0 234.5 45t199.5 126l65 -66q-50 -46 -108 -83t-122.5 -62.5t-133 -39.5
t-139.5 -14q-100 0 -192 25.5t-172.5 71.5t-146.5 111t-112.5 144t-72.5 169.5t-26 188.5t26 189t73 169.5t113 143t146.5 111t173.5 71.5t193 25q143 0 271 -51t227 -142z" />
    <glyph glyph-name="uni0422" unicode="&#x422;" horiz-adv-x="1149" 
d="M523 0v1309h-503v91h1109v-91h-504v-1309h-102z" />
    <glyph glyph-name="uni0423" unicode="&#x423;" horiz-adv-x="1342" 
d="M210 95q32 -13 64.5 -20t64.5 -7q65 0 125 36t110 122l49 83l-575 1091h112l518 -997l528 997h106l-645 -1197q-65 -121 -150 -174t-178 -53q-40 0 -80.5 9t-79.5 26z" />
    <glyph glyph-name="uni0424" unicode="&#x424;" horiz-adv-x="1818" 
d="M861 -45v143q-176 3 -315.5 45.5t-237 119.5t-149 187.5t-51.5 250.5t51.5 250.5t149 187.5t237 119.5t315.5 45.5v141h97v-141q176 -4 315 -46.5t236.5 -119.5t149 -187t51.5 -250t-51.5 -250t-149 -187.5t-236.5 -119.5t-315 -46v-143h-97zM209 701q0 -121 45 -215.5
t129 -160t205 -101.5t273 -41v1036q-154 -5 -275 -41t-205 -102t-128 -160t-44 -215zM1610 701q0 120 -44.5 214.5t-128.5 160.5t-205 102.5t-274 40.5v-1036q153 5 274 41.5t205 102.5t128.5 160t44.5 214z" />
    <glyph glyph-name="uni0425" unicode="&#x425;" horiz-adv-x="1269" 
d="M90 1400h120l423 -589l424 589h121l-481 -673l519 -727h-122l-461 640l-460 -640h-120l518 723z" />
    <glyph glyph-name="uni0426" unicode="&#x426;" horiz-adv-x="1649" 
d="M1487 -337v337h-1235v1400h102v-1309h901v1309h103v-1309h227v-428h-98z" />
    <glyph glyph-name="uni0427" unicode="&#x427;" horiz-adv-x="1453" 
d="M1099 0v600q-121 -53 -239 -80t-227 -27q-119 0 -213 30t-159 86.5t-99.5 138t-34.5 185.5v467h102v-459q0 -84 28 -150t81 -111.5t129 -69.5t173 -24q106 0 222.5 27.5t236.5 81.5v705h102v-1400h-102z" />
    <glyph glyph-name="uni0428" unicode="&#x428;" horiz-adv-x="2187" 
d="M1043 91v1309h102v-1309h688v1309h102v-1400h-1683v1400h102v-1309h689z" />
    <glyph glyph-name="uni0429" unicode="&#x429;" horiz-adv-x="2227" 
d="M1043 91v1309h102v-1309h688v1309h102v-1309h224v-412h-97v321h-1810v1400h102v-1309h689z" />
    <glyph glyph-name="uni042A" unicode="&#x42a;" horiz-adv-x="1628" 
d="M1028 888q246 0 375.5 -110t129.5 -325q0 -223 -137 -338t-396 -115h-535v1309h-445v91h547v-512h461zM1003 85q211 0 318.5 91.5t107.5 273.5q0 179 -107 266t-319 87h-436v-718h436z" />
    <glyph glyph-name="uni042B" unicode="&#x42b;" horiz-adv-x="1931" 
d="M815 888q246 0 375.5 -110t129.5 -325q0 -223 -137.5 -338t-395.5 -115h-535v1400h102v-512h461zM789 85q211 0 319.5 91.5t108.5 273.5q0 179 -107.5 266t-320.5 87h-435v-718h435zM1577 0v1400h102v-1400h-102z" />
    <glyph glyph-name="uni042C" unicode="&#x42c;" horiz-adv-x="1415" 
d="M815 888q246 0 375.5 -110t129.5 -325q0 -223 -137.5 -338t-395.5 -115h-535v1400h102v-512h461zM789 85q211 0 319.5 91.5t108.5 273.5q0 179 -107.5 266t-320.5 87h-435v-718h435z" />
    <glyph glyph-name="uni042D" unicode="&#x42d;" horiz-adv-x="1411" 
d="M594 1410q147 0 273 -53.5t218.5 -148.5t145 -225t52.5 -283t-52.5 -283t-145 -225t-218.5 -148.5t-273 -53.5q-156 0 -289.5 48.5t-225.5 146.5l64 66q91 -90 203.5 -128.5t243.5 -38.5q122 0 227 44.5t184 123t125.5 186t51.5 233.5h-759v88h757q-10 120 -58 222.5
t-126 176.5t-180.5 116t-221.5 42q-130 0 -243 -39.5t-204 -129.5l-64 67q92 98 225.5 147t289.5 49z" />
    <glyph glyph-name="uni042E" unicode="&#x42e;" horiz-adv-x="2175" 
d="M252 0v1400h102v-642h315q10 142 65.5 261.5t147 206.5t212.5 135.5t261 48.5q99 0 188.5 -24.5t166 -69.5t138.5 -108.5t106 -142.5t67.5 -171t23.5 -194t-23.5 -194t-67.5 -171t-106 -142.5t-138.5 -108.5t-166 -69.5t-188.5 -24.5q-95 0 -182 23t-162 65.5t-136 102.5
t-106 135t-71 162.5t-30 184.5h-314v-663h-102zM1355 84q125 0 232.5 46.5t186.5 128.5t123.5 195t44.5 246t-44.5 246t-123.5 195t-186.5 128.5t-232.5 46.5q-124 0 -231 -46.5t-185.5 -128.5t-123 -195t-44.5 -246t44.5 -246t123 -195t185.5 -128.5t231 -46.5z" />
    <glyph glyph-name="uni042F" unicode="&#x42f;" horiz-adv-x="1465" 
d="M1111 0v439h-446q-52 0 -99 6l-309 -445h-112l325 464q-156 44 -240 158.5t-84 290.5q0 118 38.5 208.5t109 152.5t170 94t221.5 32h528v-1400h-102zM1111 1309h-420q-105 0 -187 -25.5t-138.5 -75.5t-86 -123.5t-29.5 -170.5q0 -184 107 -284.5t317 -100.5h437v780z" />
    <glyph glyph-name="uni0430" unicode="&#x430;" horiz-adv-x="1154" 
d="M866 197q-66 -103 -170 -151.5t-237 -48.5q-79 0 -143 23.5t-110 64.5t-71 97.5t-25 122.5t27 118.5t77.5 89.5t122.5 56.5t163 19.5h364v96q-1 129 -76.5 202.5t-227.5 73.5q-95 0 -179 -35t-167 -98l-47 71q48 34 94.5 61.5t96 46.5t103.5 29t116 10q94 0 166 -24.5
t121.5 -70.5t75 -111.5t26.5 -146.5l3 -693h-102zM476 82q143 0 244.5 64.5t144.5 197.5v163h-353q-149 0 -226 -50t-77 -149q0 -50 18.5 -91.5t53.5 -71.5t84.5 -46.5t110.5 -16.5z" />
    <glyph glyph-name="uni0431" unicode="&#x431;" horiz-adv-x="1312" 
d="M685 -10q-130 0 -230.5 49t-168.5 138t-103.5 215t-35.5 280q0 177 32.5 307t97.5 221.5t163 148.5t229 88l462 111l18 -94l-440 -103q-118 -28 -205 -75t-144.5 -121.5t-86 -181t-30.5 -253.5q27 71 71 128.5t103 97.5t131 61.5t153 21.5q110 0 201.5 -37.5
t157.5 -105.5t103 -163t37 -209q0 -115 -38 -211.5t-106 -166t-162.5 -108t-208.5 -38.5zM687 76q90 0 165.5 32t130 89.5t85 138t30.5 176.5t-30 174.5t-84.5 134.5t-130 86.5t-166.5 30.5t-166.5 -30.5t-130 -86.5t-85 -134.5t-30.5 -174.5t30.5 -176.5t85.5 -138
t130.5 -89.5t165.5 -32z" />
    <glyph glyph-name="uni0432" unicode="&#x432;" horiz-adv-x="1204" 
d="M215 0v1044h440q86 0 155 -17t117 -51t74 -83.5t26 -114.5q0 -94 -50.5 -154t-139.5 -86q118 -22 172.5 -86.5t54.5 -171.5q0 -135 -97.5 -207.5t-299.5 -72.5h-452zM313 81h352q148 0 224 49t76 155t-68 155.5t-215 49.5h-369v-409zM313 568h337q134 0 205.5 49.5
t71.5 148.5t-71.5 148t-205.5 49h-337v-395z" />
    <glyph glyph-name="uni0433" unicode="&#x433;" horiz-adv-x="929" 
d="M215 0v1044h715v-89h-615v-955h-100z" />
    <glyph glyph-name="uni0434" unicode="&#x434;" horiz-adv-x="1279" 
d="M20 -259v347h62q40 3 69 28t50 68t34.5 101t22.5 125t14 140.5t9 148.5l16 345h734v-956h168v-347h-96v259h-988v-259h-95zM375 694q-4 -96 -12 -191t-24 -177.5t-43 -145t-69 -92.5h704v867h-544z" />
    <glyph glyph-name="uni0435" unicode="&#x435;" horiz-adv-x="1219" 
d="M207 493q5 -92 38 -167.5t88.5 -129.5t129.5 -83.5t162 -29.5q105 0 193 36.5t151 105.5l59 -60q-73 -80 -177.5 -124t-231.5 -44q-112 0 -206.5 38.5t-162.5 108.5t-106 166.5t-38 211.5t38 211t106.5 165.5t162 108.5t204.5 39q119 0 211 -40.5t154.5 -113t93 -174.5
t27.5 -225h-896zM618 961q-85 0 -156.5 -28t-125.5 -79t-87 -122t-41 -157h802q-6 87 -35.5 158t-80.5 121.5t-120.5 78.5t-155.5 28z" />
    <glyph glyph-name="uni0436" unicode="&#x436;" horiz-adv-x="1613" 
d="M1450 0l-350 485h-245v-485h-99v485h-244l-349 -485h-120l388 536l-358 508h110l329 -473h244v473h99v-473h246l328 473h111l-357 -509l388 -535h-121z" />
    <glyph glyph-name="uni0437" unicode="&#x437;" horiz-adv-x="1051" 
d="M472 -11q-111 0 -219 34t-191 104l39 73q74 -63 172 -93.5t197 -30.5q62 0 123.5 13.5t111.5 42t81 71.5t31 103q0 47 -22 83.5t-63 62t-99 38.5t-130 13h-168v78h164q62 0 114.5 12.5t91 36t60.5 57.5t22 77q0 51 -24.5 89t-67 63.5t-100 38.5t-122.5 13
q-86 0 -170 -22.5t-163 -66.5l-31 79q87 48 180.5 73t193.5 25q84 0 158 -19t129 -54.5t87 -87.5t32 -118q0 -42 -15.5 -78.5t-44 -66t-67.5 -51.5t-87 -36q117 -23 180.5 -87t63.5 -161q0 -76 -39.5 -134t-103.5 -96.5t-143.5 -58t-160.5 -19.5z" />
    <glyph glyph-name="uni0438" unicode="&#x438;" horiz-adv-x="1364" 
d="M215 0v1044h100v-889l746 889h88v-1044h-100v889l-745 -889h-89z" />
    <glyph glyph-name="uni0439" unicode="&#x439;" horiz-adv-x="1364" 
d="M215 0v1044h100v-889l746 889h88v-1044h-100v889l-745 -889h-89zM675 1205q-61 0 -113 16.5t-89.5 48t-59 77.5t-22.5 104h74q2 -41 18 -74t44 -56.5t65.5 -36t81.5 -12.5t82 12.5t65.5 36t44 56.5t17.5 74h76q-1 -58 -22.5 -104t-59 -77.5t-89 -48t-113.5 -16.5z" />
    <glyph glyph-name="uni043A" unicode="&#x43a;" horiz-adv-x="1135" 
d="M987 0l-417 485h-255v-485h-100v1044h100v-473h256l393 473h111l-425 -507l455 -537h-118z" />
    <glyph glyph-name="uni043B" unicode="&#x43b;" horiz-adv-x="1248" 
d="M19 88q13 -3 26 -5t24 -2q45 0 76.5 23.5t54 65.5t36.5 99.5t23 124.5t14 141t9 150l18 359h733v-1044h-100v955h-544l-15 -280q-5 -91 -12 -177.5t-19.5 -162.5t-32 -139.5t-49 -109.5t-70 -71.5t-94.5 -25.5q-21 0 -42 3.5t-45 9.5z" />
    <glyph glyph-name="uni043C" unicode="&#x43c;" horiz-adv-x="1568" 
d="M215 0v1044h99l472 -790l475 790h91l1 -1044h-92v884l-454 -749h-47l-451 746v-881h-94z" />
    <glyph glyph-name="uni043D" unicode="&#x43d;" horiz-adv-x="1340" 
d="M215 0v1044h100v-477h710v477h100v-1044h-100v480h-710v-480h-100z" />
    <glyph glyph-name="uni043E" unicode="&#x43e;" horiz-adv-x="1265" 
d="M624 1046q113 0 208 -38.5t164 -108t108 -165.5t39 -211t-39 -212t-108 -166.5t-164 -108.5t-208 -39t-208.5 39t-164.5 108.5t-108 166.5t-39 212t39 211t108 165.5t164.5 108t208.5 38.5zM624 957q-91 0 -167.5 -32t-132 -89.5t-86.5 -137.5t-31 -176q0 -97 31 -177.5
t86.5 -138t132 -89.5t167.5 -32t167 32t131.5 89.5t86.5 138t31 177.5q0 96 -31 176t-86.5 137.5t-131.5 89.5t-167 32z" />
    <glyph glyph-name="uni043F" unicode="&#x43f;" horiz-adv-x="1343" 
d="M215 0v1044h913v-1044h-100v955h-713v-955h-100z" />
    <glyph glyph-name="uni0440" unicode="&#x440;" horiz-adv-x="1369" 
d="M219 1043h103v-261q29 62 72.5 110.5t98.5 83t121 52.5t140 18q110 0 202.5 -39t159.5 -109t104.5 -166.5t37.5 -211.5q0 -114 -37 -210t-103.5 -165.5t-159 -108.5t-202.5 -39q-75 0 -141 18.5t-121.5 52.5t-99 83t-72.5 110v-649h-103v1431zM738 959q-91 0 -167 -32.5
t-131.5 -91t-86.5 -138.5t-31 -175t31 -175t86.5 -138t131.5 -90.5t167 -32.5t167 32.5t131.5 90.5t86.5 138t31 175t-31 175t-86.5 138t-131.5 91t-167 33z" />
    <glyph glyph-name="uni0441" unicode="&#x441;" horiz-adv-x="1114" 
d="M939 831q-62 59 -141.5 92t-177.5 33q-90 0 -166 -32t-131 -89t-86 -137t-31 -176q0 -97 31 -177t86 -137.5t131 -89.5t166 -32q106 0 191.5 37t145.5 106l60 -60q-69 -81 -170.5 -126.5t-229.5 -45.5q-111 0 -205.5 38.5t-162.5 108.5t-106.5 166.5t-38.5 211.5
t38.5 211.5t106.5 166t162.5 108t205.5 38.5q118 0 215 -39t166 -108z" />
    <glyph glyph-name="uni0442" unicode="&#x442;" horiz-adv-x="912" 
d="M406 0v955h-407v89h914v-89h-407v-955h-100z" />
    </font>
</defs>
</svg>
